<svg width="114" height="97" viewBox="0 0 114 97" fill="none" xmlns="http://www.w3.org/2000/svg">
<g opacity="0.2">
<path opacity="0.2" d="M78.2865 5.51465C70.2775 9.57515 64.6315 17.6456 64.0095 27.0681C57.371 20.8011 48.4255 16.9531 38.5975 16.9531C20.833 16.9531 5.95097 29.5216 2.37047 46.2326C2.32597 47.0996 2.30347 47.9727 2.30347 48.8507C2.30347 62.1667 7.47547 74.2731 15.9175 83.2772C22.1895 88.1471 30.0605 91.0517 38.598 91.0517C39.3905 91.0517 40.176 91.0236 40.9565 90.9746C42.778 93.5296 45.6165 95.3486 48.9545 95.7686C50.755 95.9951 52.452 96.1086 54.038 96.1086C56.104 96.1086 57.9815 95.9161 59.6515 95.5321C62.7425 94.8206 65.2705 92.4996 66.2495 89.4741L66.6145 88.3456C67.3445 86.0891 67.317 83.6142 66.5375 81.3772C66.2695 80.6081 65.982 79.9026 65.6795 79.2566C71.859 72.6341 75.6475 63.7531 75.6475 54.0021C75.6475 53.6206 75.64 53.2411 75.6285 52.8627L77.2065 52.4476C77.7675 52.3001 78.3655 52.3082 78.934 52.4636C78.9935 52.5087 79.0555 52.5506 79.1225 52.5861C79.297 52.6782 79.4825 52.7286 79.668 52.7416C82.881 54.1396 86.2935 54.8656 89.815 54.8966C89.8925 54.8971 89.97 54.8976 90.0475 54.8976C94.628 54.8976 99.0375 53.7101 102.931 51.4796C102.976 50.6087 102.999 49.7322 102.999 48.8502C102.997 30.4081 93.079 14.2841 78.2865 5.51465Z" fill="#6D4C41"/>
</g>
<path d="M36.662 86.599C56.3756 86.599 72.3565 70.618 72.3565 50.9045C72.3565 31.1909 56.3756 15.21 36.662 15.21C16.9485 15.21 0.967529 31.1909 0.967529 50.9045C0.967529 70.618 16.9485 86.599 36.662 86.599Z" fill="#FFD62B"/>
<path d="M36.662 87.5672C31.713 87.5672 26.9115 86.5977 22.391 84.6857C18.025 82.8392 14.1045 80.1957 10.738 76.8292C7.3715 73.4627 4.728 69.5417 2.8815 65.1762C0.9695 60.6557 0 55.8542 0 50.9052C0 45.9562 0.9695 41.1547 2.8815 36.6342C4.728 32.2682 7.3715 28.3477 10.738 24.9812C14.1045 21.6147 18.0255 18.9712 22.391 17.1247C26.9115 15.2127 31.713 14.2432 36.662 14.2432C41.611 14.2432 46.4125 15.2127 50.933 17.1247C55.299 18.9712 59.2195 21.6147 62.586 24.9812C65.9525 28.3477 68.596 32.2687 70.4425 36.6342C72.3545 41.1547 73.324 45.9562 73.324 50.9052C73.324 55.8542 72.3545 60.6557 70.4425 65.1762C68.596 69.5422 65.9525 73.4627 62.586 76.8292C59.2195 80.1957 55.2985 82.8392 50.933 84.6857C46.4125 86.5977 41.611 87.5672 36.662 87.5672ZM36.662 16.1782C17.5135 16.1782 1.9355 31.7567 1.9355 50.9047C1.9355 70.0527 17.514 85.6312 36.662 85.6312C55.8105 85.6312 71.3885 70.0527 71.3885 50.9047C71.3885 31.7567 55.81 16.1782 36.662 16.1782Z" fill="#977FB8"/>
<g opacity="0.15">
<path opacity="0.15" d="M19.6605 40.7231C21.9852 37.2576 22.25 33.3618 20.2521 32.0216C18.2541 30.6813 14.7499 32.4042 12.4252 35.8697C10.1006 39.3352 9.83574 43.231 11.8337 44.5713C13.8317 45.9115 17.3359 44.1886 19.6605 40.7231Z" fill="white"/>
</g>
<g opacity="0.2">
<path opacity="0.2" d="M61.8215 28.2215C61.8215 32.286 62.7345 36.184 64.536 39.8075C64.929 40.598 64.9915 41.495 64.712 42.333L61.0235 53.395C60.866 53.867 60.98 54.387 61.3205 54.75C61.58 55.027 61.9395 55.1785 62.309 55.1785C62.424 55.1785 62.5395 55.164 62.6535 55.134L72.316 52.5925C72.342 52.033 72.357 51.4705 72.357 50.9045C72.357 41.069 68.3785 32.163 61.9435 25.707C61.8635 26.535 61.8215 27.3735 61.8215 28.2215Z" fill="#6D4C41"/>
</g>
<g opacity="0.5">
<g opacity="0.5">
<path opacity="0.5" d="M18.064 40.2227C17.0775 40.6027 16.226 39.4342 16.8905 38.6122C18.355 36.7997 21.186 34.5552 26.2255 34.5552C26.2255 34.5552 31.1295 34.4427 33.899 37.4027C34.3585 37.8937 34.06 38.7127 33.3925 38.7927C32.725 38.8727 31.7105 38.7877 30.1965 38.2567C30.1965 38.2567 25.734 35.6742 21.9485 38.2567C21.9485 38.2557 20.083 39.4452 18.064 40.2227Z" fill="white"/>
</g>
<g opacity="0.5">
<path opacity="0.5" d="M43.7455 33.089C42.759 33.469 41.9075 32.3005 42.572 31.4785C44.0365 29.666 46.8675 27.4215 51.907 27.4215C51.907 27.4215 56.811 27.309 59.5805 30.269C60.04 30.76 59.7415 31.579 59.074 31.659C58.4065 31.739 57.392 31.654 55.878 31.123C55.878 31.123 51.4155 28.5405 47.63 31.123C47.6305 31.1225 45.7645 32.3115 43.7455 33.089Z" fill="white"/>
</g>
<g opacity="0.5">
<path opacity="0.5" d="M49.863 47.3522C52.6172 47.3522 54.85 44.7908 54.85 41.6312C54.85 38.4715 52.6172 35.9102 49.863 35.9102C47.1087 35.9102 44.876 38.4715 44.876 41.6312C44.876 44.7908 47.1087 47.3522 49.863 47.3522Z" fill="white"/>
</g>
<g opacity="0.5">
<path opacity="0.5" d="M50.9036 41.5684C51.9877 41.5684 52.8666 40.5604 52.8666 39.3169C52.8666 38.0735 51.9877 37.0654 50.9036 37.0654C49.8194 37.0654 48.9406 38.0735 48.9406 39.3169C48.9406 40.5604 49.8194 41.5684 50.9036 41.5684Z" fill="white"/>
</g>
<g opacity="0.5">
<path opacity="0.5" d="M27.2796 50.6781C30.0217 50.6781 32.2446 48.1281 32.2446 44.9826C32.2446 41.8371 30.0217 39.2871 27.2796 39.2871C24.5375 39.2871 22.3146 41.8371 22.3146 44.9826C22.3146 48.1281 24.5375 50.6781 27.2796 50.6781Z" fill="white"/>
</g>
<g opacity="0.5">
<path opacity="0.5" d="M28.456 44.9826C29.5106 44.9826 30.3655 44.0018 30.3655 42.7921C30.3655 41.5823 29.5106 40.6016 28.456 40.6016C27.4014 40.6016 26.5465 41.5823 26.5465 42.7921C26.5465 44.0018 27.4014 44.9826 28.456 44.9826Z" fill="white"/>
</g>
<g opacity="0.5">
<path opacity="0.5" d="M30.3675 59.1334C33.604 58.5044 42.972 56.9079 50.1275 57.9344C50.77 58.0264 51.2985 58.5094 51.4295 59.1454C51.433 59.1619 51.436 59.1779 51.4395 59.1949C51.636 60.2179 50.8415 61.1639 49.8 61.1559C46.14 61.1284 35.4355 61.1789 30.9025 62.6189C29.993 62.9079 28.9995 62.3809 28.7995 61.4479C28.79 61.4034 28.7815 61.3579 28.775 61.3114C28.623 60.2844 29.3495 59.3309 30.3675 59.1334Z" fill="white"/>
</g>
</g>
<path d="M17.4831 39.4493C16.4966 39.8293 15.6451 38.6608 16.3096 37.8388C17.7741 36.0263 20.6051 33.7818 25.6446 33.7818C25.6446 33.7818 30.5486 33.6693 33.3181 36.6293C33.7776 37.1203 33.4791 37.9393 32.8116 38.0193C32.1441 38.0993 31.1296 38.0143 29.6156 37.4833C29.6156 37.4833 25.1531 34.9008 21.3676 37.4833C21.3681 37.4828 19.5026 38.6718 17.4831 39.4493Z" fill="#977FB8"/>
<path d="M43.1651 32.3155C42.1786 32.6955 41.3271 31.527 41.9916 30.705C43.4561 28.8925 46.2871 26.648 51.3266 26.648C51.3266 26.648 56.2306 26.5355 59.0001 29.4955C59.4596 29.9865 59.1611 30.8055 58.4936 30.8855C57.8261 30.9655 56.8116 30.8805 55.2976 30.3495C55.2976 30.3495 50.8351 27.767 47.0496 30.3495C47.0496 30.3485 45.1841 31.538 43.1651 32.3155Z" fill="#977FB8"/>
<path d="M49.2825 46.5787C52.0368 46.5787 54.2695 44.0173 54.2695 40.8577C54.2695 37.6981 52.0368 35.1367 49.2825 35.1367C46.5283 35.1367 44.2955 37.6981 44.2955 40.8577C44.2955 44.0173 46.5283 46.5787 49.2825 46.5787Z" fill="#977FB8"/>
<path d="M26.6986 49.9047C29.4407 49.9047 31.6636 47.3547 31.6636 44.2092C31.6636 41.0636 29.4407 38.5137 26.6986 38.5137C23.9566 38.5137 21.7336 41.0636 21.7336 44.2092C21.7336 47.3547 23.9566 49.9047 26.6986 49.9047Z" fill="#977FB8"/>
<path d="M29.7871 58.359C33.0236 57.73 42.3916 56.1335 49.5471 57.16C50.1896 57.252 50.7181 57.735 50.8491 58.371C50.8526 58.3875 50.8556 58.4035 50.8591 58.4205C51.0555 59.4435 50.261 60.3895 49.2195 60.3815C45.5595 60.354 34.8551 60.4045 30.3221 61.8445C29.4126 62.1335 28.419 61.6065 28.219 60.6735C28.2095 60.629 28.201 60.5835 28.1945 60.537C28.042 59.5105 28.7691 58.557 29.7871 58.359Z" fill="#977FB8"/>
<path d="M63.5044 78.6623C63.0219 77.2778 62.3499 75.7343 61.4719 74.5468C60.9739 73.8738 60.6654 73.0798 60.6124 72.2448L60.0294 63.0623C59.9374 61.6138 58.7359 60.4863 57.2849 60.4863C55.8499 60.4863 54.6559 61.5898 54.5434 63.0208L54.0644 69.1103C53.9704 70.3058 52.8644 71.1568 51.6844 70.9433C48.1194 70.2978 40.8094 68.7468 34.0554 65.9013C32.3624 65.1883 30.4159 66.0108 29.7614 67.7273C29.0919 69.4838 30.0534 71.4393 31.8529 71.9813L37.3769 73.6458C38.3659 73.9438 38.9604 74.9493 38.7469 75.9603C38.5284 76.9948 38.2694 78.3948 38.0889 79.9243C37.4159 85.6338 41.4589 90.8013 47.1629 91.5193C50.3574 91.9213 54.1369 92.0663 57.4544 91.3033C60.1679 90.6788 62.3509 88.6688 63.2079 86.0198L63.5729 84.8913C64.2294 82.8628 64.2064 80.6758 63.5044 78.6623Z" fill="#FFD62B"/>
<path d="M52.102 92.818C50.5245 92.818 48.8355 92.7055 47.0425 92.4795C44.029 92.1 41.3405 90.5766 39.4725 88.1901C37.605 85.8036 36.772 82.8276 37.128 79.8111C37.282 78.5066 37.508 77.1436 37.8 75.7601C37.9105 75.2371 37.6085 74.7266 37.0975 74.5726L31.5735 72.908C30.4595 72.5725 29.526 71.7811 29.0125 70.7366C28.499 69.6926 28.4425 68.47 28.8565 67.3825C29.266 66.3085 30.073 65.4686 31.13 65.0166C32.192 64.5626 33.364 64.5601 34.4305 65.0096C41.0445 67.7961 48.187 69.3266 51.856 69.9911C52.1545 70.0451 52.4505 69.9731 52.6905 69.7881C52.93 69.6036 53.075 69.3361 53.0985 69.0346L53.5775 62.945C53.651 62.0095 54.071 61.1436 54.76 60.5066C55.449 59.8696 56.3455 59.5186 57.284 59.5186C59.2405 59.5186 60.8705 61.048 60.9945 63.001L61.5775 72.1835C61.6175 72.8131 61.85 73.4316 62.249 73.9716C63.0575 75.0646 63.787 76.5355 64.4175 78.344C65.1835 80.5415 65.2105 82.9726 64.493 85.1896L64.128 86.318C63.656 87.7775 62.81 89.097 61.6815 90.1335C60.5515 91.172 59.1645 91.903 57.671 92.2465C56.016 92.627 54.153 92.818 52.102 92.818ZM32.788 66.6111C32.484 66.6111 32.18 66.6726 31.8915 66.7961C31.322 67.0396 30.8865 67.4926 30.666 68.0716C30.439 68.6671 30.469 69.31 30.75 69.882C31.031 70.454 31.522 70.8701 32.1325 71.0541L37.6565 72.7186C38.368 72.9331 38.968 73.403 39.346 74.042C39.724 74.6805 39.8475 75.4326 39.694 76.159C39.418 77.4666 39.1955 78.8076 39.0505 80.0366C38.443 85.1901 42.137 89.91 47.2845 90.558C51.1825 91.0485 54.5315 90.9816 57.238 90.359C59.603 89.8151 61.538 88.0375 62.2875 85.7211L62.6525 84.5925C63.2405 82.775 63.2185 80.7815 62.5905 78.98C62.0245 77.356 61.3865 76.0581 60.6935 75.1216C60.072 74.2816 59.71 73.3076 59.646 72.3051L59.063 63.1226C59.0035 62.1866 58.2225 61.4531 57.284 61.4531C56.36 61.4531 55.5795 62.1746 55.507 63.0956L55.028 69.1851C54.962 70.0266 54.5405 70.805 53.872 71.32C53.203 71.8355 52.3425 72.0451 51.511 71.8941C47.7635 71.2156 40.4635 69.6506 33.6785 66.7916C33.3915 66.6721 33.0895 66.6111 32.788 66.6111Z" fill="#977FB8"/>
<path d="M62.5022 51.3078L66.1907 40.2458C66.5817 39.0738 66.4927 37.7948 65.9427 36.6883C64.2982 33.3798 63.3697 29.6508 63.3697 25.7053C63.3697 12.0383 74.4482 0.966797 88.1097 0.966797C101.825 0.966797 112.937 12.1263 112.849 25.8673C112.762 39.4958 101.518 50.5638 87.8897 50.4443C84.3872 50.4138 81.0617 49.6513 78.0492 48.3058C77.0662 47.8668 75.9657 47.7658 74.9247 48.0398L62.5022 51.3078Z" fill="#2063AC"/>
<path d="M62.5025 52.276C62.2385 52.276 61.982 52.168 61.7965 51.97C61.5535 51.7105 61.472 51.339 61.5845 51.002L65.273 39.94C65.585 39.004 65.5155 38.0025 65.0765 37.1195C63.302 33.55 62.4025 29.71 62.4025 25.706C62.4025 22.235 63.0825 18.868 64.4235 15.698C65.7185 12.6365 67.572 9.8875 69.933 7.5275C72.2935 5.1675 75.043 3.3145 78.1045 2.02C81.2745 0.679501 84.6405 0 88.1105 0C91.595 0 94.975 0.685499 98.1565 2.037C101.229 3.3425 103.985 5.21 106.348 7.5885C108.71 9.966 110.56 12.7325 111.845 15.8115C113.176 19.0015 113.84 22.3875 113.818 25.8745C113.796 29.335 113.089 32.6935 111.719 35.8575C110.396 38.91 108.516 41.649 106.131 43.9985C103.744 46.3495 100.975 48.1885 97.901 49.465C94.715 50.788 91.345 51.443 87.882 51.413C84.329 51.382 80.888 50.634 77.6555 49.1905C76.8675 48.8385 75.9855 48.7625 75.172 48.9765L62.749 52.244C62.667 52.2655 62.5845 52.276 62.5025 52.276ZM88.11 1.935C75.002 1.935 64.3375 12.5985 64.3375 25.706C64.3375 29.4085 65.169 32.9585 66.809 36.258C67.4775 37.6025 67.5835 39.1275 67.1085 40.5525L63.986 49.9175L74.6785 47.105C75.9175 46.779 77.2545 46.892 78.444 47.4235C81.432 48.758 84.613 49.449 87.898 49.4775C87.9685 49.478 88.0395 49.4785 88.1095 49.4785C94.366 49.4785 100.276 47.0475 104.772 42.6195C109.316 38.1435 111.841 32.1925 111.881 25.862C111.922 19.4815 109.469 13.476 104.974 8.9525C100.479 4.427 94.489 1.935 88.11 1.935Z" fill="#977FB8"/>
<g opacity="0.2">
<path opacity="0.2" d="M103.949 6.70117C106.543 10.6422 108.043 15.3677 108.01 20.4477C107.923 34.0762 96.6795 45.1442 83.051 45.0247C81.675 45.0127 79.9445 44.7967 78.35 44.5387C75.291 44.0442 72.1584 44.7257 69.5979 46.4707L62.502 51.3072L74.925 48.0397C75.966 47.7657 77.0665 47.8667 78.0495 48.3057C81.21 49.7167 84.7144 50.4867 88.4074 50.4432C101.884 50.2842 112.832 39.2157 112.85 25.7382C112.86 18.0862 109.396 11.2452 103.949 6.70117Z" fill="#6D4C41"/>
</g>
<path d="M86.879 32.17C85.571 32.17 84.511 31.11 84.511 29.802V26.645C84.511 25.337 85.571 24.277 86.879 24.277C87.355 24.2725 91.615 23.4885 91.615 20.3315C91.615 18.753 90.0365 17.1735 87.6685 17.1735C85.742 17.1735 84.5115 18.753 84.5115 19.542C84.5115 20.849 83.4515 21.91 82.1435 21.91C80.8355 21.91 79.7755 20.849 79.7755 19.542C79.7755 15.691 83.3905 12.4375 87.6685 12.4375C93.983 12.4375 96.351 17.159 96.351 21.1205C96.351 24.3915 94.554 26.8925 91.289 28.161C90.5785 28.4375 89.876 28.6245 89.247 28.7505V29.802C89.247 31.11 88.187 32.17 86.879 32.17Z" fill="#FFD62B"/>
<path d="M86.879 32.9436C85.1465 32.9436 83.737 31.5341 83.737 29.8016V26.6446C83.737 24.9156 85.141 23.5081 86.8685 23.5026C87.0895 23.4916 88.1435 23.2946 89.1035 22.7806C90.256 22.1631 90.8405 21.3391 90.8405 20.3311C90.8405 19.7691 90.5435 19.1921 90.0255 18.7481C89.4235 18.2321 88.586 17.9476 87.668 17.9476C86.162 17.9476 85.288 19.2006 85.285 19.5421C85.285 21.2746 83.8755 22.6841 82.143 22.6841C80.4105 22.6841 79.001 21.2746 79.001 19.5421C79.001 17.4571 79.924 15.4786 81.5995 13.9701C83.2525 12.4826 85.4075 11.6631 87.6685 11.6631C90.756 11.6631 93.283 12.7481 94.975 14.8011C96.3615 16.4831 97.125 18.7276 97.125 21.1206C97.125 22.9141 96.6365 24.5031 95.673 25.8436C94.717 27.1736 93.336 28.1966 91.5695 28.8826C91.08 29.0731 90.5615 29.2361 90.0215 29.3701V29.8016C90.0215 31.5341 88.612 32.9436 86.879 32.9436ZM87.6685 16.3986C88.956 16.3986 90.151 16.8151 91.0335 17.5721C91.895 18.3106 92.389 19.3161 92.389 20.3306C92.389 21.9476 91.489 23.2756 89.7855 24.1711C88.527 24.8326 87.22 25.0476 86.8865 25.0506C86.884 25.0506 86.8815 25.0506 86.879 25.0506C86 25.0506 85.2855 25.7656 85.2855 26.6441V29.8011C85.2855 30.6801 86.0005 31.3946 86.879 31.3946C87.7575 31.3946 88.4725 30.6796 88.4725 29.8011V28.7496C88.4725 28.3806 88.7325 28.0631 89.0945 27.9906C89.772 27.8546 90.416 27.6686 91.008 27.4386C93.954 26.2941 95.576 24.0501 95.576 21.1196C95.576 17.4711 93.505 13.2106 87.668 13.2106C83.809 13.2106 80.549 16.1096 80.549 19.5411C80.549 20.4201 81.264 21.1346 82.1425 21.1346C83.021 21.1346 83.736 20.4196 83.736 19.5411C83.736 18.8906 84.1625 18.1026 84.8485 17.4851C85.6285 16.7846 86.6295 16.3986 87.6685 16.3986Z" fill="#977FB8"/>
<path d="M89.247 37.4715C89.247 38.7795 88.187 39.8395 86.879 39.8395C85.571 39.8395 84.511 38.7795 84.511 37.4715C84.511 36.1635 85.571 35.1035 86.879 35.1035C88.187 35.1035 89.247 36.1635 89.247 37.4715Z" fill="#FFD62B"/>
<path d="M86.8791 40.6131C85.1466 40.6131 83.7371 39.2036 83.7371 37.4711C83.7371 35.7386 85.1466 34.3291 86.8791 34.3291C88.6116 34.3291 90.0211 35.7386 90.0211 37.4711C90.0216 39.2036 88.6121 40.6131 86.8791 40.6131ZM86.8791 35.8771C86.0001 35.8771 85.2856 36.5921 85.2856 37.4706C85.2856 38.3491 86.0006 39.0641 86.8791 39.0641C87.7576 39.0641 88.4726 38.3491 88.4726 37.4706C88.4726 36.5921 87.7581 35.8771 86.8791 35.8771Z" fill="#977FB8"/>
</svg>
