<svg width="44" height="80" viewBox="0 0 44 80" fill="none" xmlns="http://www.w3.org/2000/svg">
<path d="M36.5923 34.2669C36.0638 37.6969 35.2508 41.2186 33.8983 44.4171C33.1844 46.1072 32.3218 47.7074 30.6481 48.5175C28.7818 49.4214 26.6805 49.9174 24.6526 50.2849C22.2191 50.7258 19.6957 50.926 17.2292 50.6505C15.3592 50.441 13.1496 49.8807 11.9586 48.2916C11.8485 48.1446 11.7475 47.9866 11.6613 47.825C11.6264 47.7588 11.4998 47.4704 11.5732 47.6504C11.4796 47.4189 11.4062 47.1801 11.3438 46.9395C11.1694 46.2634 11.1162 45.7912 11.0612 45.1593C10.9107 43.4195 10.9584 41.6632 11.0557 39.9216C11.3126 35.3435 11.9751 30.7856 12.7789 26.2736C13.5735 21.8167 14.515 17.3709 15.7611 13.0187C16.2052 11.4682 16.6805 9.9158 17.299 8.42589C17.3393 8.33036 17.3467 8.30831 17.4274 8.13011C17.4862 7.996 17.5486 7.86372 17.611 7.73329C17.7174 7.51283 17.8312 7.29605 17.956 7.08478C18.0074 6.99844 18.0606 6.91393 18.1156 6.82942C18.1432 6.789 18.1725 6.74859 18.2 6.70817C18.2918 6.5759 18.1009 6.81656 18.2056 6.70266C18.2551 6.64938 18.3102 6.59611 18.356 6.53915C18.5029 6.36095 18.2459 6.58141 18.446 6.46934C19.9141 5.64815 21.6998 5.29358 23.4285 5.05292C25.8051 4.7204 28.2404 4.64691 30.6335 4.82328C32.654 4.97208 34.8764 5.26786 36.6584 6.30584C37.3227 6.69164 37.8237 7.14541 38.1265 7.82882C38.5083 8.69043 38.6826 9.66779 38.7946 10.5974C39.3286 15.0598 38.7872 19.7261 38.1192 24.1462C38.0733 24.4493 38.0274 24.7543 37.9742 25.0556C37.8164 25.9705 39.2167 26.3636 39.3745 25.4414C40.0296 21.6312 40.4352 17.7181 40.4224 13.8509C40.415 11.5857 40.36 8.98621 39.3011 6.92495C38.4257 5.22193 36.385 4.42646 34.6415 3.98003C32.2191 3.35908 29.659 3.22497 27.1686 3.29846C24.8196 3.36643 22.4173 3.6071 20.1453 4.22988C18.8809 4.57526 17.5724 5.0125 16.8255 6.15152C16.1153 7.23359 15.6803 8.52509 15.2619 9.73943C13.8598 13.816 12.911 18.0616 12.0632 22.2815C11.0777 27.1756 10.2794 32.123 9.81873 37.0961C9.62971 39.1408 9.4939 41.1966 9.52143 43.2505C9.54162 44.7037 9.59851 46.2377 10.0316 47.6357C11.3786 51.9842 17.2182 52.3939 20.9767 52.1808C23.5313 52.0356 26.095 51.5911 28.545 50.8507C30.294 50.3216 32.2117 49.6878 33.3973 48.2163C34.8728 46.3846 35.6857 44.0368 36.3593 41.8139C36.9685 39.804 37.442 37.7501 37.8201 35.6852C37.8825 35.3417 37.9449 34.9981 37.9981 34.6527C38.1339 33.7378 36.7336 33.3447 36.5923 34.2669Z" fill="#2063AC"/>
<path d="M37.0623 27.1663C28.9324 26.944 19.6481 26.9734 11.5366 27.5557C11.5366 27.5557 8.77647 43.2099 11.5366 48.2749C14.2967 53.3398 29.0131 52.4194 31.7732 48.736C34.5334 45.0525 37.2917 33.5429 37.2917 33.5429H36.3722L37.2917 27.0964" fill="#2063AC"/>
<path d="M39.0772 24.813C38.3046 24.5282 37.4696 24.9287 37.0145 25.568C36.5208 26.2606 36.4804 27.1681 36.3611 27.982C36.0914 29.8375 35.8234 31.693 35.5537 33.5485C35.4821 34.0427 35.7408 34.423 36.2547 34.4689C36.9484 34.5314 37.6348 34.502 38.323 34.4009C38.9304 34.3127 39.67 34.208 40.026 33.6422C40.3582 33.1168 40.4077 32.3672 40.538 31.7683C40.6867 31.0757 40.8335 30.3813 40.9766 29.6869C41.1143 29.02 41.2501 28.3513 41.3841 27.6825C41.507 27.0689 41.7052 26.4094 41.4832 25.7977C41.0684 24.6531 39.7287 24.6439 38.7322 24.8423C37.8165 25.0242 38.2037 26.426 39.1176 26.2441C39.3837 26.1908 39.6902 26.1375 39.9581 26.2092C40.2187 26.279 40.1361 26.4976 40.0939 26.7346C39.9086 27.7542 39.6865 28.7665 39.4755 29.7805C39.2699 30.7616 39.0277 31.7389 38.8423 32.7236C38.8295 32.7898 38.7616 32.8743 38.8313 32.8118C38.7597 32.8761 38.5652 32.8798 38.4753 32.9C38.2587 32.9478 38.0385 32.9863 37.8183 33.0102C37.2989 33.0672 36.7741 33.0598 36.2547 33.0139C36.4878 33.3207 36.7208 33.6275 36.9557 33.9343C37.1778 32.3966 37.4017 30.8589 37.6238 29.3231C37.7284 28.6066 37.8073 27.8846 37.9412 27.1737C38.0073 26.8228 38.1688 26.0255 38.6918 26.2165C39.0607 26.3525 39.4883 26.064 39.5856 25.7095C39.6957 25.3016 39.4479 24.9489 39.0772 24.813Z" fill="#2063AC"/>
<path d="M11.599 25.1008C10.8044 25.0585 9.95836 25.0769 9.23896 25.4627C8.35257 25.9385 8.11216 26.8552 7.98002 27.7793C7.67538 29.8994 7.45699 32.0304 7.32853 34.1688C7.31201 34.4518 7.56343 34.8265 7.86257 34.8706C8.7508 34.9992 9.64087 35.0782 10.5383 35.0874C11.4742 35.0966 11.4742 33.6434 10.5383 33.6324C9.773 33.6251 9.00589 33.5773 8.24796 33.4671C8.42597 33.7004 8.60399 33.9337 8.782 34.1688C8.88844 32.3776 9.05544 30.5883 9.29218 28.8081C9.36926 28.2239 9.33256 27.1694 9.85926 26.7836C10.3217 26.4437 11.0668 26.5246 11.6009 26.5539C12.5331 26.6054 12.5313 25.1504 11.599 25.1008Z" fill="#2063AC"/>
<path d="M8.06988 29.0943C7.19817 27.981 5.66945 28.8298 5.26755 29.8935C4.99777 30.6063 4.97575 31.4513 4.87849 32.199C4.76654 33.0717 4.6601 33.9462 4.561 34.8225C4.16276 38.3222 3.8673 41.8348 3.67644 45.3529C3.51677 48.307 2.93685 51.7479 4.81792 54.2924C6.55218 56.6384 9.36186 57.7058 12.1513 58.1522C15.3317 58.6592 18.6039 58.8742 21.821 58.8778C24.3535 58.8815 26.8971 58.718 29.3911 58.2587C31.2245 57.9207 33.0652 57.4136 34.7205 56.5373C36.3869 55.6537 37.5577 54.3273 38.446 52.6628C40.0976 49.5709 40.7766 45.9426 41.5401 42.5549C42.3879 38.7907 43.0816 34.9952 43.6285 31.1758C43.6818 30.8083 43.5441 30.3674 43.122 30.2811C42.287 30.1121 41.4538 29.9412 40.6188 29.7722C39.7067 29.5867 39.3158 30.9884 40.2334 31.1739C41.0684 31.3429 41.9016 31.5138 42.7366 31.6828C42.5678 31.3852 42.399 31.0858 42.2301 30.7881C41.7842 33.9057 41.2409 37.0087 40.5931 40.0895C39.9747 43.04 39.3305 46.0198 38.4239 48.8949C37.7926 50.8937 36.9099 53.1405 35.2252 54.4944C34.2067 55.312 32.8615 55.8521 31.5897 56.2379C27.0861 57.6047 22.1715 57.5882 17.5229 57.263C14.6766 57.0628 11.4815 56.9672 8.86452 55.7125C7.82213 55.2128 6.85315 54.5294 6.12641 53.6218C5.27305 52.5544 4.97575 51.296 4.95923 49.9494C4.91335 46.4313 5.24919 42.8654 5.55751 39.3639C5.71166 37.6094 5.89151 35.8568 6.09889 34.1078C6.20166 33.2334 6.31177 32.3589 6.42739 31.4862C6.4751 31.1225 6.48611 30.6173 6.67514 30.2866C6.81461 30.0441 6.93757 29.9871 7.04584 30.1231C7.61842 30.8579 8.63879 29.8236 8.06988 29.0943Z" fill="#2063AC"/>
<path d="M17.0128 58.4785C16.6825 61.5446 16.3522 64.6127 16.0218 67.6788C15.9796 68.0701 16.3852 68.4063 16.7486 68.4063C17.1762 68.4063 17.4331 68.072 17.4753 67.6788C17.8056 64.6127 18.136 61.5446 18.4663 58.4785C18.5085 58.0872 18.1029 57.751 17.7396 57.751C17.3101 57.751 17.055 58.0853 17.0128 58.4785Z" fill="#2063AC"/>
<path d="M21.0722 58.1385C20.6098 61.359 20.2684 64.5923 20.0592 67.8386C19.9987 68.7737 21.4521 68.77 21.5127 67.8386C21.7127 64.7228 22.0302 61.6144 22.4743 58.5243C22.5312 58.133 22.3771 57.7472 21.9678 57.6296C21.6265 57.5323 21.1291 57.749 21.0722 58.1385Z" fill="#2063AC"/>
<path d="M16.6109 65.3827C14.137 66.0091 11.7183 66.9001 9.44446 68.0649C7.50833 69.0569 5.58322 70.5303 5.22903 72.8212C5.06386 73.8923 5.26389 74.9725 5.93741 75.8378C6.63845 76.738 7.69736 77.302 8.70488 77.7943C10.8906 78.8654 13.2378 79.4992 15.6474 79.8023C20.7896 80.4508 25.9869 79.4257 30.8905 77.9045C32.8542 77.2946 35.1481 76.681 36.3722 74.8825C37.6146 73.0564 36.9246 70.7452 35.6583 69.1414C32.522 65.1659 26.6989 64.8609 22.0669 64.6901C21.1328 64.6552 21.1328 66.1102 22.0669 66.1451C25.8107 66.2829 29.9215 66.4556 33.0891 68.706C34.4526 69.6742 35.9079 71.4066 35.5299 73.2107C35.1481 75.0258 33.0175 75.6926 31.4814 76.1923C27.1596 77.5977 22.6578 78.6706 18.0845 78.5365C15.9557 78.474 13.8397 78.1452 11.81 77.4912C10.7952 77.1642 9.81333 76.7527 8.87371 76.2511C8.03503 75.8029 7.06789 75.2811 6.74122 74.324C5.96677 72.0606 8.29196 70.3117 10.0024 69.4133C12.2119 68.2523 14.5812 67.3998 16.9981 66.7862C17.9029 66.5566 17.5175 65.153 16.6109 65.3827Z" fill="#2063AC"/>
<path d="M23.5754 76.5317C25.5225 76.4527 27.3907 75.6517 28.78 74.2812C29.0589 74.0056 29.0553 73.5298 28.78 73.2524C28.4992 72.9713 28.0331 72.975 27.7523 73.2524C27.6091 73.3939 27.4605 73.5316 27.3045 73.6621C27.1815 73.765 27.0677 73.8513 26.875 73.9799C26.5282 74.2132 26.1612 74.4135 25.7794 74.5825C25.8492 74.5513 25.7684 74.588 25.7427 74.5972C25.695 74.6156 25.6491 74.6339 25.6014 74.6523C25.506 74.6872 25.4124 74.7221 25.3151 74.7533C25.1224 74.8176 24.9279 74.8727 24.7315 74.9187C24.6324 74.9426 24.5352 74.9628 24.4342 74.983C24.3718 74.9958 24.3094 75.005 24.247 75.016C24.2342 75.0179 24.0966 75.0399 24.1553 75.0307C24.214 75.0234 24.0764 75.0399 24.0635 75.0418C24.014 75.0473 23.9626 75.0528 23.913 75.0565C23.7993 75.0656 23.6855 75.073 23.5717 75.0767C23.1918 75.0914 22.8266 75.4 22.845 75.8042C22.867 76.1863 23.1698 76.5482 23.5754 76.5317Z" fill="#2063AC"/>
<path d="M31.2906 72.6513C31.342 72.5999 31.3933 72.5485 31.4447 72.497C31.5163 72.4309 31.5658 72.3537 31.5952 72.2637C31.6411 72.1774 31.6613 72.0837 31.6576 71.9845C31.6613 71.8852 31.6411 71.7916 31.5952 71.7052C31.5658 71.6152 31.5163 71.5362 31.4447 71.4719C31.3952 71.4333 31.3475 71.3966 31.2979 71.358C31.1841 71.2919 31.063 71.2588 30.9309 71.2588C30.8666 71.268 30.8024 71.2753 30.7382 71.2845C30.6152 71.3194 30.5088 71.3819 30.417 71.4719C30.3656 71.5233 30.3142 71.5748 30.2629 71.6262C30.1913 71.6924 30.1417 71.7695 30.1124 71.8595C30.0665 71.9459 30.0463 72.0396 30.05 72.1388C30.0463 72.238 30.0665 72.3317 30.1124 72.418C30.1417 72.508 30.1913 72.587 30.2629 72.6513C30.3124 72.6899 30.3601 72.7267 30.4097 72.7652C30.5235 72.8314 30.6446 72.8644 30.7767 72.8644C30.8409 72.8553 30.9052 72.8479 30.9694 72.8387C31.0924 72.8038 31.2006 72.7414 31.2906 72.6513Z" fill="#2063AC"/>
<path d="M21.1951 36.4949C19.8096 36.3369 18.7176 37.3436 18.3304 38.6057C17.9634 39.8091 18.1763 41.2677 19.0608 42.1955C19.9656 43.1453 21.5402 43.3217 22.6193 42.5684C23.6084 41.8777 24.2067 40.6523 24.148 39.4416C24.1131 38.7233 23.8654 38.0509 23.3864 37.5108C22.8248 36.8752 22.0136 36.6051 21.1951 36.4949C20.8061 36.4434 20.4684 36.866 20.4684 37.2224C20.4684 37.6578 20.8043 37.8985 21.1951 37.9499C21.019 37.926 21.241 37.9609 21.2887 37.9701C21.3603 37.9848 21.4319 38.0013 21.5016 38.0215C21.5695 38.0399 21.6356 38.062 21.7017 38.084C21.7255 38.0914 21.7494 38.1042 21.7732 38.1097C21.8577 38.1281 21.6429 38.0418 21.7586 38.1042C21.8687 38.163 21.9806 38.2163 22.0852 38.2861C22.1421 38.3247 22.2541 38.4422 22.1164 38.3045C22.1568 38.3449 22.2045 38.3798 22.2449 38.4184C22.2853 38.4569 22.3238 38.4992 22.3623 38.5396C22.4908 38.6756 22.3165 38.4588 22.3788 38.5543C22.4412 38.6517 22.5055 38.7472 22.5569 38.8519C22.566 38.8703 22.5734 38.8887 22.5826 38.907C22.6431 39.0173 22.555 38.8427 22.5569 38.8446C22.5826 38.8593 22.6027 38.9695 22.6119 38.9971C22.6468 39.1073 22.6633 39.2212 22.6927 39.3314C22.7165 39.4214 22.678 39.1661 22.6835 39.2598C22.6853 39.2873 22.689 39.313 22.6908 39.3406C22.6945 39.3884 22.6982 39.4361 22.7 39.4839C22.7037 39.5996 22.7 39.7172 22.689 39.833C22.6872 39.8605 22.6817 39.8881 22.6798 39.9156C22.6743 40.0093 22.711 39.754 22.689 39.8458C22.678 39.8917 22.6725 39.9413 22.6633 39.9891C22.6394 40.1048 22.6082 40.2187 22.5715 40.3308C22.555 40.3823 22.5312 40.4337 22.5147 40.487C22.489 40.5752 22.5807 40.3455 22.5403 40.4282C22.5275 40.4521 22.5183 40.4796 22.5055 40.5035C22.4559 40.6101 22.399 40.7129 22.3385 40.8121C22.3128 40.8526 22.2871 40.893 22.2596 40.9316C22.2449 40.9536 22.2265 40.9756 22.2118 40.9977C22.1641 41.0749 22.3128 40.882 22.2504 40.9481C22.1715 41.0326 22.1017 41.1208 22.0192 41.2016C21.9861 41.2347 21.9494 41.2641 21.9145 41.2953C21.7916 41.4074 22.043 41.2126 21.9035 41.3045C21.8081 41.367 21.7145 41.4239 21.6154 41.479C21.4631 41.5617 21.6962 41.4588 21.6081 41.4864C21.564 41.4992 21.52 41.5176 21.4759 41.5323C21.4245 41.5488 21.3732 41.5617 21.3199 41.5727C21.2943 41.5782 21.2667 41.5837 21.241 41.5892C21.1199 41.615 21.2594 41.5525 21.2924 41.5837C21.2667 41.5599 21.0025 41.5911 20.9547 41.5892C20.9327 41.5892 20.9107 41.5837 20.8887 41.5837C20.7951 41.5874 21.0428 41.6168 20.9492 41.5929C20.8795 41.5746 20.8061 41.5672 20.7345 41.5488C20.674 41.5323 20.6134 41.5139 20.5547 41.4937C20.5253 41.4845 20.4978 41.4717 20.4684 41.4606C20.4849 41.4662 20.6207 41.5396 20.518 41.479C20.417 41.4202 20.3179 41.3541 20.2152 41.299C20.3822 41.3927 20.2482 41.3247 20.195 41.2769C20.1528 41.2384 20.1124 41.1979 20.0738 41.1575C20.0353 41.1153 20.0004 41.0693 19.9619 41.0271C20.0628 41.1355 20.0041 41.0822 19.9509 40.9995C19.8885 40.9022 19.8389 40.7993 19.7839 40.6982C19.7288 40.5935 19.8371 40.8526 19.7729 40.6707C19.7545 40.6156 19.7343 40.5605 19.7178 40.5035C19.683 40.3896 19.6591 40.2739 19.6371 40.1581C19.6334 40.1434 19.6187 40.0773 19.6224 40.0699C19.6224 40.0681 19.6407 40.2647 19.6316 40.1306C19.6279 40.0626 19.6187 39.9965 19.6169 39.9285C19.6114 39.8164 19.6132 39.7044 19.6187 39.5905C19.6224 39.5298 19.6297 39.471 19.6334 39.4122C19.6407 39.3057 19.6114 39.449 19.6242 39.4729C19.6132 39.4527 19.6389 39.3829 19.6426 39.3626C19.6664 39.2322 19.6976 39.1036 19.738 38.9768C19.7582 38.9144 19.7821 38.8538 19.8022 38.7913C19.8353 38.6903 19.7747 38.8354 19.7784 38.8446C19.7729 38.828 19.8169 38.7619 19.8243 38.7472C19.8793 38.6333 19.9436 38.5231 20.0151 38.4184C20.0316 38.3963 20.0482 38.3743 20.0628 38.3504C20.1087 38.2769 19.9527 38.4735 20.039 38.3835C20.0812 38.3394 20.1197 38.2916 20.1638 38.2475C20.1748 38.2365 20.3014 38.1299 20.2996 38.1244C20.3032 38.1354 20.1436 38.2273 20.2482 38.1648C20.2776 38.1483 20.3032 38.1263 20.3326 38.1079C20.384 38.0748 20.4372 38.0473 20.4923 38.0179C20.6556 37.9315 20.384 38.0454 20.5271 38.005C20.5877 37.9866 20.6464 37.9683 20.7088 37.9536C20.7364 37.9481 20.7657 37.9425 20.7932 37.937C20.918 37.9076 20.6629 37.937 20.7529 37.9425C20.9015 37.9517 21.0465 37.9352 21.1951 37.9517C21.586 37.9958 21.9219 37.5861 21.9219 37.2242C21.9219 36.7925 21.586 36.5408 21.1951 36.4949Z" fill="white"/>
<path d="M20.5767 5.03231C18.3286 12.0483 16.6347 19.2333 15.5134 26.5157C15.3721 27.4306 16.7724 27.8256 16.9137 26.9015C18.0368 19.6191 19.7289 12.4341 21.977 5.41811C22.2633 4.5271 20.8612 4.14314 20.5767 5.03231Z" fill="#2063AC"/>
<path d="M25.0472 4.58021C22.8028 11.9104 21.0557 19.3875 19.8188 26.9546C19.6683 27.8695 21.0686 28.2645 21.219 27.3404C22.456 19.7733 24.2031 12.2962 26.4475 4.96601C26.7228 4.06949 25.3207 3.68553 25.0472 4.58021Z" fill="#2063AC"/>
<path d="M29.1287 4.41362C27.9982 11.8613 26.6291 19.2686 25.0233 26.6282C24.8251 27.5394 26.2235 27.9307 26.4236 27.014C26.4658 26.8211 26.508 26.63 26.5502 26.4371C26.7502 25.5259 25.35 25.1364 25.15 26.0513C25.1077 26.2442 25.0655 26.4353 25.0233 26.6282C25.4895 26.7568 25.9574 26.8854 26.4236 27.014C28.0275 19.6544 29.3966 12.2453 30.5289 4.79941C30.6684 3.88452 29.27 3.48954 29.1287 4.41362Z" fill="#2063AC"/>
<path d="M33.0982 5.2351C32.6101 12.5138 31.8063 19.7686 30.6794 26.9775C30.5363 27.8924 31.9366 28.2874 32.0797 27.3633C33.2267 20.0277 34.0544 12.6442 34.5499 5.2351C34.6141 4.3 33.1606 4.30368 33.0982 5.2351Z" fill="#2063AC"/>
<path d="M35.5555 5.68443C35.5867 13.0127 35.2472 20.3392 34.5388 27.6345C34.4489 28.5659 35.9023 28.5585 35.9923 27.6345C36.7006 20.3392 37.0402 13.0127 37.009 5.68443C37.0035 4.74934 35.5518 4.7475 35.5555 5.68443Z" fill="#2063AC"/>
<path d="M16.5319 10.2188C23.9168 9.09999 31.4319 9.8477 38.8332 8.88872C39.7471 8.77114 39.76 7.3143 38.8332 7.43371C31.3016 8.40739 23.6635 7.67621 16.1466 8.81523C15.2235 8.95669 15.6162 10.3584 16.5319 10.2188Z" fill="#2063AC"/>
<path d="M15.4234 13.7977C19.4297 14.167 23.5185 13.8069 27.532 13.6746C31.5272 13.5424 35.5224 13.4119 39.5158 13.2797C40.4481 13.2484 40.4518 11.7953 39.5158 11.8247C35.5206 11.9569 31.5254 12.0874 27.532 12.2196C23.5185 12.3519 19.4297 12.712 15.4234 12.3427C14.493 12.2582 14.4985 13.7114 15.4234 13.7977Z" fill="#2063AC"/>
<path d="M14.5243 17.65C22.8817 18.2048 31.2777 17.7933 39.5453 16.4577C40.4665 16.3089 40.0756 14.9072 39.1599 15.056C31.0226 16.3713 22.7478 16.7424 14.5243 16.1968C13.5902 16.1325 13.5938 17.5875 14.5243 17.65Z" fill="#2063AC"/>
<path d="M13.1423 22.1565C21.821 22.5992 30.5308 21.9801 39.0626 20.334C39.9802 20.1577 39.5911 18.7559 38.6772 18.9323C30.272 20.5527 21.6907 21.1387 13.1423 20.7015C12.2082 20.6537 12.2101 22.1087 13.1423 22.1565Z" fill="#2063AC"/>
<path d="M12.6835 25.4412C21.2208 25.6543 29.7655 25.5165 38.2918 25.0297C39.2204 24.9764 39.2277 23.5214 38.2918 23.5747C29.7655 24.0615 21.2208 24.1975 12.6835 23.9862C11.7476 23.9641 11.7476 25.4173 12.6835 25.4412Z" fill="#2063AC"/>
<path d="M1.64487 1.23898C2.69276 2.28798 3.74066 3.33515 4.79038 4.38231C5.06016 4.65237 5.55199 4.67258 5.81809 4.38231C6.08419 4.09204 6.10622 3.64195 5.81809 3.35352C4.7702 2.30635 3.7223 1.25735 2.67257 0.21019C2.4028 -0.059868 1.91097 -0.0800765 1.64487 0.21019C1.37877 0.500456 1.35674 0.950553 1.64487 1.23898Z" fill="#2063AC"/>
<path d="M0.727278 7.49838C1.85041 7.61045 2.97355 7.72435 4.09669 7.83642C4.47657 7.875 4.83994 7.4745 4.82342 7.10891C4.80507 6.6827 4.5041 6.42183 4.09669 6.38141C2.97355 6.26934 1.85041 6.15544 0.727278 6.04338C0.347393 6.00663 -0.0159743 6.40529 0.000542381 6.77088C0.0207295 7.1971 0.321701 7.45797 0.727278 7.49838Z" fill="#2063AC"/>
<path d="M1.50541 14.5569C2.6524 14.2648 3.76453 13.8496 4.83078 13.3371C5.17396 13.1717 5.29141 12.6537 5.09137 12.3432C4.86381 11.9904 4.46557 11.9059 4.09853 12.0823C3.97374 12.1411 3.85078 12.1999 3.72416 12.2568C3.65258 12.2899 3.58101 12.3211 3.50944 12.3524C3.47457 12.3671 3.31124 12.4387 3.46539 12.3726C3.21397 12.4828 2.95521 12.5783 2.69645 12.672C2.17893 12.8594 1.65223 13.0192 1.11819 13.1552C0.749312 13.2489 0.492385 13.6806 0.611673 14.0499C0.73463 14.4302 1.11084 14.658 1.50541 14.5569Z" fill="#2063AC"/>
</svg>
