<svg width="71" height="68" viewBox="0 0 71 68" fill="none" xmlns="http://www.w3.org/2000/svg">
<path d="M18.531 28.6396C15.5269 27.1376 2.752 32.3962 0.497432 34.6508C-1.75713 36.9054 4.25404 64.7067 6.50861 66.9583C8.76318 69.2098 23.7896 65.4562 25.2917 63.9542C26.7937 62.4521 21.5351 30.1417 18.531 28.6396Z" fill="#2063AC"/>
<path d="M20.2099 31.4366C22.1017 30.6271 24.0265 29.8926 25.9423 29.1341C27.0995 28.6754 28.6315 28.3516 29.5729 27.4971C30.5203 26.6367 31.018 25.2696 31.4827 24.1153C33.0417 20.2447 34.0941 16.1763 35.4042 12.2218C36.0578 10.2521 36.7324 8.27336 37.5928 6.38156C38.1865 5.07439 38.8431 3.62032 39.8894 2.77785C39.8924 2.77485 39.8264 2.80184 40.0063 2.7059C40.1592 2.62195 40.3091 2.55 40.474 2.49303C40.8518 2.36112 41.2385 2.32514 41.6253 2.42408C42.4558 2.63994 43.0854 3.40745 43.5411 4.09102C44.6683 5.79094 45.3129 7.78467 45.8256 9.74242C46.4192 11.997 46.2603 14.4554 46.1824 16.764C46.1254 18.4699 46.0325 20.1758 45.8916 21.8787C45.7986 22.988 47.2107 23.3298 47.9183 22.7182C49.7891 21.1022 51.9777 19.6241 54.2533 18.3859C55.9922 17.4385 57.869 16.6021 59.8387 16.2933C60.6602 16.1643 61.5386 16.1314 62.3541 16.3202C62.7019 16.4012 63.0377 16.5091 63.3585 16.665C63.7482 16.8569 63.8681 16.9438 64.033 17.0937C66.0178 18.8836 66.7073 22.4723 67.169 25.1436C67.8646 29.1731 68.0085 33.3224 67.8256 37.3998C67.6727 40.8386 67.3549 44.4633 66.1137 47.7073C65.9548 48.124 65.694 48.6487 65.4062 49.1164C65.2113 49.4282 65.3252 49.2903 65.0884 49.5241C65.0044 49.6081 64.6566 49.9079 64.7436 49.8419C64.1799 50.2766 62.9537 50.8763 62.0873 51.245C59.2361 52.4593 55.9232 53.4127 52.8292 54.2671C48.9826 55.3314 45.1061 56.2698 41.2145 57.1603C37.7727 57.9458 34.3219 58.6863 30.8651 59.3939C28.9973 59.7746 27.0935 60.0684 25.2377 60.5091C25.1508 60.5301 25.0608 60.5421 24.9739 60.5601C23.4748 60.8419 24.1104 63.1295 25.6035 62.8477C30.4664 61.9362 35.3113 60.9139 40.1382 59.8346C44.2036 58.9232 48.2571 57.9608 52.2805 56.8785C55.7223 55.952 59.1881 54.9777 62.492 53.6285C64.6866 52.7321 66.7943 51.7727 67.8856 49.5421C69.4566 46.3372 69.8523 42.5236 70.1042 39.0128C70.416 34.6566 70.2841 30.2584 69.6754 25.9351C69.2077 22.6132 68.5122 18.7877 66.3446 16.1044C63.8681 13.0343 59.4549 13.598 56.184 14.8782C52.7602 16.2213 49.6332 18.284 46.785 20.5895C46.6021 20.7394 46.4162 20.8893 46.2364 21.0452C46.9109 21.3241 47.5855 21.6059 48.2631 21.8847C48.5809 18.0441 48.9706 13.9458 48.338 10.1292C48.0022 8.09647 47.2347 6.01279 46.3173 4.17796C45.3489 2.24419 43.7749 0.166512 41.4334 0.0106112C37.425 -0.256219 35.71 4.57071 34.5468 7.55981C32.8679 11.8771 31.6656 16.3592 30.1876 20.7424C29.6329 22.3884 29.1322 24.0643 28.1758 25.5094C28.0259 25.7373 28.2538 25.4075 28.0709 25.6473C27.99 25.7522 27.6931 25.9291 28.0019 25.7403C27.3064 26.169 26.419 26.4118 25.6604 26.7116C23.4388 27.5961 21.2083 28.4535 19.0077 29.3949C17.6106 29.9856 18.8188 32.0303 20.2099 31.4366Z" fill="#2063AC"/>
<path d="M58.5645 28.5222C59.0262 28.2103 59.5149 27.9435 60.0276 27.7247C59.9316 27.7636 59.8387 27.8056 59.7428 27.8446C60.1655 27.6677 60.6032 27.5268 61.0469 27.4219C61.6525 27.2779 62.0693 26.5584 61.8744 25.9618C61.6705 25.3322 61.0619 24.9784 60.4143 25.1343C59.335 25.3921 58.2797 25.8508 57.3623 26.4745C57.1044 26.6483 56.9006 26.8762 56.8166 27.185C56.7387 27.4698 56.7746 27.8476 56.9365 28.0994C57.0984 28.3543 57.3443 28.5761 57.6471 28.6451C57.9499 28.711 58.3037 28.702 58.5645 28.5222Z" fill="#2063AC"/>
<path d="M60.1085 36.374C61.1039 35.9423 62.0993 35.5105 63.0946 35.0788C63.3495 34.9679 63.5713 34.6231 63.6403 34.3683C63.7182 34.0834 63.6823 33.7057 63.5204 33.4538C63.3585 33.199 63.1126 32.9771 62.8098 32.9082C62.7049 32.8932 62.6 32.8812 62.495 32.8662C62.2822 32.8662 62.0813 32.9202 61.8954 33.0281C60.9 33.4598 59.9047 33.8916 58.9093 34.3233C58.6545 34.4342 58.4326 34.779 58.3636 35.0338C58.2857 35.3187 58.3217 35.6964 58.4836 35.9483C58.6455 36.2031 58.8913 36.4249 59.1941 36.4939C59.2991 36.5089 59.404 36.5209 59.5089 36.5359C59.7248 36.5359 59.9227 36.4819 60.1085 36.374Z" fill="#2063AC"/>
<path d="M61.7964 46.1086C61.8894 46.0217 61.9883 45.9378 62.0903 45.8598C62.0093 45.9228 61.9314 45.9827 61.8504 46.0457C62.1172 45.8418 62.4081 45.6709 62.7199 45.539C62.6239 45.578 62.531 45.62 62.435 45.6589C62.6359 45.575 62.8428 45.506 63.0527 45.4551C63.3375 45.3861 63.6163 45.1613 63.7632 44.9094C63.8501 44.7745 63.8981 44.6276 63.9041 44.4687C63.9401 44.3098 63.9311 44.1539 63.8831 43.995C63.7902 43.7072 63.6133 43.4314 63.3375 43.2844C63.0497 43.1315 62.7439 43.0866 62.4231 43.1645C61.9943 43.2695 61.5746 43.4403 61.1878 43.6502C60.8011 43.8601 60.4413 44.1329 60.1205 44.4297C59.9017 44.6336 59.7727 44.9754 59.7727 45.2692C59.7727 45.56 59.9017 45.9078 60.1205 46.1086C60.3454 46.3155 60.6422 46.4714 60.96 46.4564C61.2778 46.4414 61.5596 46.3305 61.7964 46.1086Z" fill="#2063AC"/>
<path d="M24.4132 57.035C25.9992 58.3092 27.5852 59.5834 29.1682 60.8546C29.54 61.1514 30.0976 61.2444 30.4544 60.8546C30.7572 60.5248 30.8501 59.8862 30.4544 59.5684C28.8684 58.2942 27.2824 57.0201 25.6964 55.7489C25.3246 55.4521 24.767 55.3591 24.4102 55.7489C24.1104 56.0787 24.0175 56.7173 24.4132 57.035Z" fill="#2063AC"/>
<path d="M23.4329 51.7884C26.6618 54.9994 30.0077 58.0904 33.4645 61.0555C33.8362 61.3763 34.3849 61.4213 34.7507 61.0555C35.0775 60.7287 35.1254 60.0901 34.7507 59.7693C31.2969 56.8042 27.948 53.7132 24.719 50.5022C23.8886 49.6747 22.5994 50.9609 23.4329 51.7884Z" fill="#2063AC"/>
<path d="M23.211 48.3187C25.7923 49.6438 27.909 51.6046 30.0137 53.5684C32.3762 55.772 34.7387 57.9756 37.1012 60.1762C37.9556 60.9736 39.2448 59.6905 38.3873 58.89C35.9589 56.6264 33.5334 54.3628 31.105 52.0993C28.9583 50.0966 26.7577 48.0968 24.1284 46.7477C23.0881 46.214 22.1677 47.785 23.211 48.3187Z" fill="#2063AC"/>
</svg>
