<svg width="65" height="64" viewBox="0 0 65 64" fill="none" xmlns="http://www.w3.org/2000/svg">
<path d="M45.5622 32.2243C48.0579 32.735 56.3846 26.3748 57.5938 24.2805C58.8029 22.1862 48.9416 2.99862 46.8479 1.79168C44.7542 0.584728 34.4825 6.28439 33.6769 7.67966C32.8714 9.07493 43.0665 31.7136 45.5622 32.2243Z" fill="#2063AC"/>
<path d="M43.7832 30.5047C42.5562 31.4691 41.2903 32.3851 40.0356 33.3169C39.2779 33.8801 38.219 34.418 37.6971 35.2288C37.1719 36.0452 37.0757 37.1444 36.9618 38.0813C36.5795 41.2229 36.6072 44.4101 36.4236 47.5644C36.3314 49.1357 36.2257 50.7178 35.9667 52.2726C35.7884 53.3468 35.5928 54.541 34.9916 55.3636C34.99 55.3664 35.033 55.3336 34.9201 55.4392C34.8245 55.5308 34.7288 55.6129 34.6192 55.687C34.3684 55.8578 34.0921 55.9601 33.7893 55.9635C33.1385 55.9684 32.5266 55.5297 32.0586 55.1184C30.899 54.0943 30.0354 52.7602 29.2755 51.4266C28.398 49.8914 28.0318 48.0591 27.6358 46.3525C27.3426 45.0916 27.0759 43.8236 26.8448 42.5483C26.6951 41.7174 25.5935 41.7442 25.1952 42.3312C24.1419 43.8823 22.8286 45.3948 21.4046 46.7486C20.3166 47.784 19.1059 48.7652 17.7234 49.3781C17.1469 49.6338 16.5098 49.8305 15.8753 49.8522C15.6046 49.8611 15.3374 49.848 15.0718 49.7967C14.7486 49.7327 14.6437 49.6925 14.4935 49.6151C12.6881 48.6934 11.4784 46.1996 10.6158 44.3332C9.31522 41.5178 8.39526 38.5061 7.72884 35.4831C7.16581 32.9338 6.68709 30.2159 6.95963 27.5957C6.99423 27.2592 7.08233 26.8236 7.20137 26.4245C7.28293 26.1578 7.22654 26.2812 7.35415 26.0634C7.39918 25.9854 7.59511 25.6975 7.54436 25.7629C7.87196 25.3337 8.65259 24.6537 9.21497 24.2135C11.0654 22.7642 13.3053 21.4154 15.4043 20.1821C18.0134 18.6473 20.6692 17.1988 23.3454 15.7826C25.7127 14.5315 28.0954 13.3115 30.489 12.1146C31.7827 11.469 33.1197 10.88 34.3928 10.1928C34.4524 10.1604 34.5159 10.134 34.5761 10.1037C35.619 9.60298 34.7043 8.05187 33.6658 8.55142C30.2821 10.1737 26.9333 11.8738 23.6089 13.6121C20.8095 15.0778 18.0288 16.5786 15.2937 18.1613C12.954 19.5156 10.6062 20.9098 8.45057 22.5468C7.01875 23.6343 5.66299 24.7509 5.30135 26.5993C4.77956 29.2557 5.23824 32.1272 5.74292 34.7487C6.36963 38.0013 7.32965 41.1976 8.62419 44.2454C9.61893 46.5872 10.8795 49.2533 12.9942 50.7936C15.4111 52.5567 18.5337 51.2774 20.6787 49.6974C22.9233 48.0413 24.8093 45.9163 26.4433 43.6682C26.5479 43.5225 26.6546 43.3761 26.7558 43.2266C26.2069 43.1548 25.6574 43.0807 25.1062 43.0095C25.6273 45.8855 26.1463 48.9645 27.359 51.6364C28.004 53.0597 28.9753 54.4355 30.0076 55.5997C31.0967 56.8263 32.6576 58.0394 34.4037 57.694C37.3927 57.1026 37.7015 53.2297 37.967 50.8115C38.3495 47.3191 38.3504 43.7994 38.5728 40.298C38.656 38.9833 38.6938 37.6572 39.1108 36.4108C39.1759 36.2144 39.0737 36.5008 39.1606 36.2892C39.1993 36.1964 39.3821 36.0085 39.1929 36.2075C39.6183 35.7569 40.2208 35.4048 40.7176 35.0363C42.1716 33.9522 43.6374 32.8861 45.0648 31.7645C45.9724 31.0575 44.6858 29.7967 43.7832 30.5047Z" fill="#2063AC"/>
<path d="M16.2564 40.1692C15.9793 40.4883 15.6737 40.7797 15.3411 41.0407C15.4037 40.9933 15.4636 40.9443 15.5262 40.8969C15.2512 41.1095 14.9582 41.2986 14.6537 41.4626C14.2383 41.6869 14.0742 42.2959 14.3341 42.6947C14.6071 43.1159 15.1224 43.2556 15.5662 43.0143C16.3063 42.6135 16.9894 42.0703 17.5391 41.4334C17.6939 41.2554 17.7985 41.0484 17.7994 40.8057C17.8006 40.5817 17.7001 40.312 17.532 40.1593C17.3634 40.0044 17.1397 39.8901 16.9044 39.8991C16.6696 39.9102 16.4122 39.9862 16.2564 40.1692Z" fill="#2063AC"/>
<path d="M13.5838 34.7199C12.9393 35.2316 12.2948 35.7433 11.6504 36.2549C11.4854 36.3862 11.3906 36.6824 11.3901 36.8826C11.3889 37.1066 11.4894 37.3763 11.6574 37.529C11.8261 37.6839 12.0497 37.7982 12.2851 37.7893C12.3649 37.7796 12.4442 37.7678 12.524 37.7582C12.6799 37.7164 12.8165 37.6375 12.9315 37.5219C13.576 37.0102 14.2204 36.4985 14.8649 35.9869C15.0298 35.8556 15.1247 35.5594 15.1252 35.3592C15.1264 35.1352 15.0258 34.8655 14.8578 34.7128C14.6892 34.5579 14.4655 34.4436 14.2301 34.4526C14.1503 34.4622 14.0711 34.474 13.9913 34.4836C13.8331 34.526 13.6988 34.6043 13.5838 34.7199Z" fill="#2063AC"/>
<path d="M10.4363 27.9189C10.3852 28.0008 10.3292 28.0818 10.2699 28.1589C10.3168 28.0969 10.3621 28.0376 10.4091 27.9756C10.2536 28.1773 10.0741 28.3596 9.87158 28.5175C9.93422 28.4701 9.99407 28.4211 10.0567 28.3737C9.92602 28.4746 9.788 28.5658 9.64426 28.6443C9.44913 28.7507 9.289 28.9702 9.23082 29.1835C9.1936 29.2995 9.1873 29.4165 9.2141 29.5341C9.21893 29.6576 9.25612 29.77 9.32246 29.877C9.44705 30.0696 9.63078 30.237 9.86169 30.2904C10.1026 30.346 10.3354 30.3189 10.5551 30.1988C10.8486 30.0378 11.1226 29.8302 11.3647 29.6005C11.6069 29.3708 11.8169 29.1003 11.9937 28.8199C12.114 28.6276 12.1413 28.3519 12.0836 28.1366C12.0266 27.9236 11.8638 27.6941 11.6641 27.5899C11.4587 27.4825 11.2107 27.4265 10.9808 27.4999C10.7509 27.5733 10.5662 27.7099 10.4363 27.9189Z" fill="#2063AC"/>
<path d="M35.6788 12.5762C34.2667 11.9541 32.8547 11.3319 31.4454 10.7114C31.1148 10.5669 30.688 10.6083 30.5032 10.9638C30.3461 11.2649 30.4033 11.751 30.7556 11.9061C32.1677 12.5283 33.5797 13.1504 34.9912 13.7704C35.3218 13.9148 35.7486 13.8735 35.9334 13.5179C36.0884 13.2174 36.0311 12.7313 35.6788 12.5762Z" fill="#2063AC"/>
<path d="M37.427 16.2277C34.4311 14.5091 31.3731 12.9014 28.2585 11.4077C27.9232 11.2457 27.5124 11.3204 27.3163 11.6602C27.141 11.9638 27.2312 12.441 27.5687 12.6025C30.6811 14.0967 33.7413 15.7039 36.7372 17.4224C37.508 17.8656 38.2 16.6703 37.427 16.2277Z" fill="#2063AC"/>
<path d="M38.2707 18.7265C36.1194 18.2624 34.1838 17.2414 32.2564 16.2159C30.0931 15.0653 27.9297 13.9147 25.7669 12.7663C24.9844 12.3498 24.2918 13.5429 25.0771 13.961C27.3006 15.1426 29.5218 16.3248 31.7453 17.5064C33.7111 18.5522 35.7158 19.5853 37.9069 20.0575C38.7739 20.2443 39.1398 18.9127 38.2707 18.7265Z" fill="#2063AC"/>
</svg>
