<svg width="74" height="74" viewBox="0 0 74 74" fill="none" xmlns="http://www.w3.org/2000/svg">
<path d="M36.662 72.599C56.3756 72.599 72.3565 56.618 72.3565 36.9045C72.3565 17.1909 56.3756 1.20996 36.662 1.20996C16.9485 1.20996 0.967529 17.1909 0.967529 36.9045C0.967529 56.618 16.9485 72.599 36.662 72.599Z" fill="#FFD62B"/>
<path d="M36.662 73.5672C31.713 73.5672 26.9115 72.5977 22.391 70.6857C18.025 68.8392 14.1045 66.1957 10.738 62.8292C7.3715 59.4627 4.728 55.5417 2.8815 51.1762C0.9695 46.6557 0 41.8542 0 36.9052C0 31.9562 0.9695 27.1547 2.8815 22.6342C4.728 18.2682 7.3715 14.3477 10.738 10.9812C14.1045 7.61467 18.0255 4.97116 22.391 3.12466C26.9115 1.21266 31.713 0.243164 36.662 0.243164C41.611 0.243164 46.4125 1.21266 50.933 3.12466C55.299 4.97116 59.2195 7.61467 62.586 10.9812C65.9525 14.3477 68.596 18.2687 70.4425 22.6342C72.3545 27.1547 73.324 31.9562 73.324 36.9052C73.324 41.8542 72.3545 46.6557 70.4425 51.1762C68.596 55.5422 65.9525 59.4627 62.586 62.8292C59.2195 66.1957 55.2985 68.8392 50.933 70.6857C46.4125 72.5977 41.611 73.5672 36.662 73.5672ZM36.662 2.17816C17.5135 2.17816 1.9355 17.7567 1.9355 36.9047C1.9355 56.0527 17.514 71.6312 36.662 71.6312C55.8105 71.6312 71.3885 56.0527 71.3885 36.9047C71.3885 17.7567 55.81 2.17816 36.662 2.17816Z" fill="#977FB8"/>
<g opacity="0.15">
<path opacity="0.15" d="M19.6605 26.7231C21.9852 23.2576 22.25 19.3618 20.2521 18.0216C18.2541 16.6813 14.7499 18.4042 12.4252 21.8697C10.1006 25.3352 9.83574 29.231 11.8337 30.5713C13.8317 31.9115 17.3359 30.1886 19.6605 26.7231Z" fill="white"/>
</g>
<g opacity="0.5">
<g opacity="0.5">
<path opacity="0.5" d="M49.863 33.3522C52.6172 33.3522 54.85 30.7908 54.85 27.6312C54.85 24.4715 52.6172 21.9102 49.863 21.9102C47.1087 21.9102 44.876 24.4715 44.876 27.6312C44.876 30.7908 47.1087 33.3522 49.863 33.3522Z" fill="white"/>
</g>
<g opacity="0.5">
<path opacity="0.5" d="M50.9036 27.5684C51.9877 27.5684 52.8666 26.5604 52.8666 25.3169C52.8666 24.0735 51.9877 23.0654 50.9036 23.0654C49.8194 23.0654 48.9406 24.0735 48.9406 25.3169C48.9406 26.5604 49.8194 27.5684 50.9036 27.5684Z" fill="white"/>
</g>
<g opacity="0.5">
<path opacity="0.5" d="M28.456 30.9826C29.5106 30.9826 30.3655 30.0018 30.3655 28.7921C30.3655 27.5823 29.5106 26.6016 28.456 26.6016C27.4014 26.6016 26.5465 27.5823 26.5465 28.7921C26.5465 30.0018 27.4014 30.9826 28.456 30.9826Z" fill="white"/>
</g>
</g>
<path d="M20.9874 43.9707C21.8653 51.7602 28.4771 57.8196 36.5021 57.8196C44.5271 57.8196 51.1347 51.7645 52.0168 43.9707H20.9874Z" fill="#695342"/>
<path d="M25.7836 53.5545C28.5799 56.1966 32.3483 57.8196 36.4978 57.8196C40.4718 57.8196 44.0946 56.3337 46.8481 53.8928L46.7068 53.5588C36.288 48.4757 25.9249 53.4817 25.7836 53.5545Z" fill="#F06669"/>
<path d="M31.4662 25.8864C31.4662 25.8693 31.4662 25.8521 31.4662 25.8307C31.4662 22.4606 29.0296 19.373 25.364 19.373C22.452 19.373 20.7605 21.4671 20.1867 23.4241C19.6086 21.4628 17.9214 19.373 15.0094 19.373C11.3438 19.373 8.90716 22.4606 8.90716 25.8307C8.90716 25.8478 8.90716 25.865 8.90716 25.8864C8.88575 26.6187 8.90717 34.0827 20.1824 40.1635C31.4705 34.0827 31.4876 26.6187 31.4662 25.8864Z" fill="#977FB8"/>
<path d="M64.0929 25.8864C64.0929 25.8693 64.0929 25.8521 64.0929 25.8307C64.0929 22.4606 61.6563 19.373 57.9907 19.373C55.0787 19.373 53.3872 21.4671 52.8134 23.4241C52.2353 21.4628 50.5481 19.373 47.6361 19.373C43.9705 19.373 41.5339 22.4606 41.5339 25.8307C41.5339 25.8479 41.5339 25.865 41.5339 25.8864C41.5125 26.6187 41.5339 34.0827 52.8091 40.1635C64.0929 34.0827 64.1143 26.6187 64.0929 25.8864Z" fill="#977FB8"/>
</svg>
