<svg width="38" height="38" viewBox="0 0 38 38" fill="none" xmlns="http://www.w3.org/2000/svg">
<path d="M36.8377 36.2668L-3.8147e-06 38L-4.92633e-07 8.12203e-06L38 0L36.8377 36.2668Z" fill="#FFD62B"/>
<path d="M9.33032 24.2922C9.20728 25.3612 10.0686 28.6296 10.8069 28.9911C11.4298 29.291 12.1604 29.1757 12.8064 29.1833C15.1904 29.191 17.5668 29.1526 19.9508 29.1218C22.3579 29.0911 24.765 29.0526 27.1644 29.0142C28.1103 28.9988 29.1639 27.4453 29.5792 25.6304C29.6715 25.2228 29.7792 24.4999 29.7792 24.4999C29.7099 24.5999 29.8002 24.7075 29.731 24.8075C30.6923 24.8306 31.4018 24.7844 32.3631 24.8075C32.7092 24.8152 32.4324 24.8536 32.4093 24.6229C32.4324 24.7998 32.4477 24.9844 32.4554 25.1613C32.5246 25.9841 32.5554 26.807 32.5554 27.6299C32.5554 29.2679 32.4093 31.3982 31.1173 31.4751C30.2483 31.5212 29.3793 31.552 28.5025 31.5751C22.0118 31.775 15.5134 31.9058 9.02271 31.6289C8.23828 31.5981 7.13086 31.9058 6.69251 30.6445C6.09265 28.9142 6.46949 26.1302 6.60022 24.3076C6.5387 24.4076 6.46949 24.5076 6.40796 24.6152C7.44617 24.6383 8.48438 24.6614 9.52258 24.6844C9.77637 24.6921 9.77637 24.0769 9.52258 24.0692C8.48438 24.0461 7.44617 24.0231 6.40796 24C6.29261 24 6.22339 24.1461 6.20801 24.3076C6.0542 26.384 5.76197 28.9757 6.36182 30.9598C6.73865 32.198 7.60767 32.1749 8.36133 32.2134C11.6759 32.3903 14.9982 32.3903 18.3204 32.3749C21.5273 32.3595 24.7342 32.3057 27.9335 32.2134C28.9024 32.1826 29.8791 32.1518 30.8481 32.1057C31.6249 32.0673 32.217 31.9058 32.6015 30.7291C33.1937 28.9142 33.0091 26.361 32.7938 24.423C32.7784 24.2922 32.6861 24.2 32.6015 24.2C31.5633 24.1769 30.5251 24.1538 29.4869 24.1307C29.3793 24.1307 29.287 24.2692 29.287 24.4384C29.3562 26.9301 28.1026 28.2374 27.0644 28.3989C24.8419 28.745 22.8424 28.7219 20.6891 28.745C18.4127 28.7758 16.1363 29.0295 13.8677 28.8142C11.8066 28.6219 9.94556 29.4217 9.71484 24.4537C9.69177 24.0692 9.37646 23.9 9.33032 24.2922Z" fill="#977FB8" stroke="#977FB8"/>
<path fill-rule="evenodd" clip-rule="evenodd" d="M13.7976 14.7763C13.7976 14.5948 13.7982 14.4456 13.7976 14.2962C13.7873 11.8524 13.7658 9.40842 13.7726 6.96468C13.7746 6.18871 13.84 5.41197 13.9018 4.63781C13.9202 4.40846 13.9996 4.17367 14.0978 3.96346C14.2669 3.60094 14.5806 3.39047 14.9679 3.31755C15.3899 3.23791 15.816 3.17171 16.2432 3.12776C18.4066 2.90487 20.5709 3.01838 22.7341 3.13164C23.0498 3.14819 23.3621 3.23532 23.6753 3.29324C24.1668 3.384 24.4109 3.71368 24.4872 4.17781C24.5298 4.43716 24.5454 4.70297 24.5479 4.96619C24.572 7.40942 24.6103 9.85239 24.452 12.2943C24.3982 13.123 24.4435 13.958 24.4435 14.842C24.5769 14.8469 24.7233 14.8524 24.8696 14.8575C25.8542 14.8917 26.8394 14.9142 27.823 14.9674C28.0945 14.9822 28.3768 15.0507 28.6269 15.1582C29.2335 15.4194 29.414 16.056 29.0551 16.6106C28.8971 16.8547 28.7267 17.0965 28.5286 17.308C27.7418 18.1489 26.9643 19.0006 26.1407 19.8047C25.2471 20.6772 24.323 21.5206 23.3808 22.3405C22.3131 23.2693 21.2207 24.171 20.1192 25.0594C19.4513 25.598 18.7648 25.6037 18.0387 25.1362C17.8406 25.0087 17.6503 24.867 17.4691 24.7168C14.774 22.482 12.1746 20.1417 9.72206 17.6418C9.31481 17.2265 8.94583 16.7717 8.58099 16.3179C7.97387 15.5626 8.34 14.9594 9.19664 14.7867C9.43996 14.7378 9.6931 14.7153 9.94132 14.7179C11.0795 14.7301 12.2178 14.7559 13.3557 14.7761C13.4899 14.7784 13.6244 14.7763 13.7976 14.7763ZM24.0761 7.78538C24.0792 7.78538 24.0825 7.78538 24.0856 7.78538C24.0856 7.09086 24.0942 6.39634 24.0828 5.70208C24.075 5.23071 24.0598 4.75752 24.0104 4.289C23.9636 3.84658 23.847 3.73979 23.4017 3.70204C22.7796 3.64904 22.1557 3.61801 21.532 3.58594C19.3476 3.47398 17.1733 3.57896 15.009 3.89261C14.6064 3.95104 14.4981 4.02319 14.4249 4.42009C14.3624 4.75959 14.3256 5.10815 14.3202 5.45359C14.292 7.21678 14.2737 8.97997 14.2597 10.7434C14.2494 12.035 14.2561 13.3268 14.2439 14.6181C14.2393 15.092 14.1545 15.175 13.6792 15.1924C13.138 15.212 12.5961 15.2043 12.0546 15.2164C11.1804 15.2361 10.3062 15.2588 9.4322 15.2886C9.28145 15.2937 9.1276 15.3248 8.98332 15.3698C8.73406 15.4478 8.68235 15.5727 8.79845 15.8127C8.85817 15.9363 8.94661 16.0464 9.02702 16.1592C9.62871 17.0018 10.406 17.6759 11.1455 18.3896C13.2345 20.4059 15.3617 22.3791 17.5834 24.2488C17.8792 24.4978 18.2001 24.7227 18.5315 24.9221C18.9147 25.1525 19.3047 25.0951 19.6659 24.8414C19.7566 24.7778 19.8417 24.7057 19.9263 24.6335C21.2757 23.4775 22.6444 22.3429 23.9685 21.1584C25.3549 19.9183 26.7318 18.6634 27.9236 17.2258C28.1715 16.9266 28.4203 16.6259 28.639 16.3058C28.8692 15.9689 28.7937 15.7359 28.4079 15.5934C28.1907 15.5133 27.9497 15.4742 27.7172 15.4631C26.7049 15.415 25.6919 15.3853 24.679 15.346C24.1125 15.324 23.991 15.226 23.969 14.6553C23.9431 13.9761 23.9447 13.2947 23.9612 12.6149C23.9879 11.5186 24.0424 10.4231 24.0737 9.32671C24.0882 8.81345 24.0761 8.29916 24.0761 7.78538Z" fill="#977FB8" stroke="#977FB8"/>
</svg>
