<svg width="77" height="82" viewBox="0 0 77 82" fill="none" xmlns="http://www.w3.org/2000/svg">
<path d="M74.0754 74.085L-2.28882e-05 77.6255L-1.61019e-05 -6.6802e-06L76.4126 -2.28882e-05L74.0754 74.085Z" fill="#977FB8"/>
<path d="M68.7401 30.0562C70.6598 40.6462 66.3286 52.4949 57.5573 58.8606C53.851 61.5515 49.5464 63.4316 45.061 64.341C43.1972 64.717 41.3042 64.9597 39.4058 65.0557C40.0971 66.9651 40.7007 69.0079 40.3736 71.0347C45.3881 71.8748 51.1842 72.8935 55.3904 75.995C55.7919 76.2937 56.2332 76.7337 56.4672 77.2138L55.7706 77.5311C54.7098 75.715 51.6123 74.8003 49.7751 74.1256C46.6643 72.9815 43.4392 72.3601 40.1795 71.8108C40.1343 71.8428 40.0785 71.8668 40.0094 71.8774C39.0309 72.0188 38.0658 72.0294 37.1033 71.9841L37.1326 71.1974C37.9355 71.2347 38.7385 71.2321 39.5441 71.1334C39.9642 69.0933 39.2729 66.9998 38.571 65.0877C37.7281 65.1117 36.8853 65.109 36.0425 65.0717C35.9361 65.069 35.8271 65.0637 35.7181 65.0583C35.5001 66.0877 34.9338 67.2078 34.6014 68.3226L33.8357 68.1919C34.1574 67.1171 34.6652 66.0477 34.9125 65.0183C34.2345 64.9837 33.5512 64.9383 32.8652 64.8717L32.9344 64.1116C34.2637 64.237 35.5905 64.2796 36.8561 64.2956C39.6478 64.3276 42.4501 64.1063 45.178 63.4983C54.0238 61.5275 61.7874 56.1378 65.5602 47.7133C68.9183 40.2195 69.3357 32.0377 66.2329 24.3812C64.728 20.6743 62.8323 17.0314 60.0698 14.0979C59.7375 13.7459 59.3972 13.4098 59.0489 13.0845L59.578 12.5298C60.7053 13.5752 61.7475 14.7326 62.6754 16.0367C65.5948 20.1276 67.8388 25.0906 68.7401 30.0562Z" fill="#FFD62B" stroke="#FFD62B" stroke-width="0.843756"/>
<path d="M65.0283 34.8133C65.0283 34.9173 65.0203 35.0213 65.0176 35.128C64.7704 34.472 64.438 33.8559 63.9408 33.2559C63.3479 32.5359 62.5556 32.0452 62.0079 31.2745C61.407 30.4317 60.9523 29.5277 60.4578 28.621C60.0537 27.8742 59.2693 26.5568 58.3521 26.3248C57.4933 26.1088 57.0307 26.7062 56.9908 27.5249C56.9456 28.5543 57.8921 29.6477 58.4584 30.4131C58.8918 31.0024 59.3172 31.6371 59.5804 32.3225C60.1547 33.8106 57.5863 34.0906 56.8259 34.1413C54.8558 34.2693 55.1403 32.3839 55.1615 31.0131C55.1801 29.781 55.0499 28.1836 54.5048 27.0689C54.1751 26.3915 53.436 25.5594 52.6091 26.0448C52.0189 26.3942 51.9285 27.1275 52.0109 27.8236C52.0614 28.2423 52.1731 28.645 52.2794 28.9463C52.5267 29.6504 52.8909 30.3091 53.1648 31.0024C53.4998 31.8425 53.4174 32.6959 53.444 33.5813C53.4945 35.32 55.3636 36.1974 55.3716 37.8429C55.3822 40.1843 51.6732 40.5764 50.2375 41.7364C49.384 42.4271 49.1075 43.1845 49.1155 44.2779C49.1341 46.6461 47.1506 47.4168 45.2895 48.2595C43.5958 49.0249 42.1176 49.8943 40.6313 51.0063C39.3737 51.9451 37.7811 52.8251 36.1513 52.5984C34.0801 52.3104 34.2396 49.4969 34.4151 47.9741C34.6491 45.9554 35.3031 43.9526 36.2284 42.1498C36.5102 41.6004 36.8213 40.9497 36.8691 40.3203C36.9383 39.3976 36.6352 38.5336 36.675 37.6162C36.6963 37.1575 36.8 36.7041 36.9436 36.2534C37.26 35.2667 37.7598 34.296 37.9353 33.2959C38.4378 30.4371 35.5291 29.5863 33.3223 29.1597C31.5994 28.8263 29.6665 28.4449 29.0045 26.5728C28.3797 24.8021 29.4777 22.7913 30.5572 21.4605C32.655 18.879 36.013 16.7989 39.3418 16.4362C42.8381 16.0548 44.2074 19.5884 46.6827 21.3138C48.5305 22.6019 50.7586 23.2633 52.7341 24.3194C52.9122 24.4154 53.0797 24.3674 53.194 24.258C53.8454 24.202 54.5686 23.8553 54.5314 23.0873C54.4756 21.9885 53.6673 21.5325 52.7527 21.1405C52.4629 21.0178 52.1917 20.8845 51.9444 20.6845C51.9949 20.4498 52.0454 20.2178 52.096 19.9858C52.2821 20.0578 52.4549 20.1538 52.6144 20.2684C52.992 20.5111 53.3163 20.8898 53.6806 21.1645C54.4889 21.7779 55.2599 21.5485 55.6614 20.6525C56.4191 18.9537 53.2897 17.5963 52.1199 17.4149C51.846 17.3749 51.519 17.3643 51.2611 17.4896C50.4635 17.8843 50.07 18.6817 49.3548 17.5083C49.1554 17.1829 49.0038 16.8629 48.8655 16.5482C48.4455 15.6068 48.1344 14.7454 47.031 14.1667C46.0047 13.6254 44.9066 13.9694 43.9787 14.5161C43.2449 14.9481 42.7477 15.0681 41.8916 14.8334C41.2508 14.6574 40.0251 14.5908 39.7459 13.8627C39.5146 13.2547 42.0298 13.8974 42.3276 13.9614C42.979 14.1001 43.7846 13.9907 44.1037 13.324C44.234 13.0547 44.1568 12.7346 44.0957 12.4573C44.0638 12.316 43.8165 11.2786 44.444 11.5666C44.7604 11.7106 45.021 11.9879 45.2868 12.2066C46.2918 13.0387 47.8499 13.54 49.1447 13.5027C49.844 13.484 50.2056 12.9987 50.0035 12.3506C49.9158 12.0679 49.6339 11.7026 49.3494 11.5906C49.1155 11.4946 49.0171 11.4839 48.7645 11.4572C48.722 11.4519 47.6133 11.4279 47.7356 11.3506C48.1716 11.0785 48.8071 11.0545 49.3016 10.9452C49.3521 10.9345 49.392 10.9159 49.4265 10.8945C51.5004 11.8599 53.4705 13.076 55.2785 14.5428C56.2277 15.3135 57.1184 16.1482 57.9453 17.0362C62.404 21.8312 64.9804 28.1916 65.0283 34.8133Z" fill="#B6998E" stroke="#FFD62B" stroke-width="0.843756"/>
<path d="M65.0176 35.1282C65.0202 35.0216 65.0282 34.9175 65.0282 34.8135C64.9804 28.1918 62.404 21.8314 57.9452 17.0364L58.4451 16.5244C62.9916 21.3967 65.7753 27.8104 65.8259 34.8135C65.7328 48.0544 55.7012 59.3671 42.8195 61.7619C40.626 62.1699 38.3979 62.3272 36.1885 62.2472L36.2124 61.5059C38.5787 61.5859 40.9716 61.3725 43.3299 60.8418C54.651 58.2923 63.5579 49.0438 64.8581 37.539C64.8288 37.499 64.8049 37.4457 64.7916 37.3817C64.4672 35.7389 64.0684 34.3922 62.7816 33.2321C61.9095 32.4481 61.165 31.624 60.6014 30.5813C60.3488 30.1146 60.0909 29.5199 59.7851 28.9465L60.4578 28.6212C60.9523 29.5279 61.407 30.4319 62.0079 31.2747C62.5556 32.0454 63.3479 32.5361 63.9408 33.2561C64.438 33.8561 64.7703 34.4722 65.0176 35.1282Z" fill="#FFD62B" stroke="#FFD62B" stroke-width="0.843756"/>
<path d="M60.4584 28.6217L59.7857 28.947C59.3949 28.211 58.9216 27.5149 58.2755 27.1762C57.2838 26.6616 58.1772 28.5683 58.1054 28.4457C58.2091 28.6403 58.3234 28.8297 58.443 29.0164C58.669 29.3524 58.9057 29.6804 59.1476 30.0111C59.8442 30.9658 60.687 32.0859 60.3254 33.3206C60.0489 34.2593 58.6903 34.6994 57.8528 34.8274C56.986 34.958 55.6221 35.1794 54.968 34.39C54.4389 33.7526 54.3432 32.9846 54.3432 32.1872C54.3432 32.0859 54.3432 31.9872 54.3459 31.8859C54.3804 30.4431 54.4815 28.4297 53.6705 27.1709C53.0138 27.1656 52.7107 27.3709 52.7612 27.7816L52.0115 27.8243C51.929 27.1282 52.0194 26.3949 52.6097 26.0455C53.4366 25.5602 54.1757 26.3922 54.5054 27.0696C55.0504 28.1843 55.1807 29.7817 55.1621 31.0138C55.1408 32.3846 54.8563 34.27 56.8265 34.142C57.5869 34.0913 60.1553 33.8113 59.581 32.3232C59.3178 31.6379 58.8924 31.0031 58.459 30.4138C57.8927 29.6484 56.9461 28.555 56.9913 27.5256C57.0312 26.7069 57.4938 26.1095 58.3526 26.3255C59.2699 26.5575 60.0542 27.875 60.4584 28.6217Z" fill="#FFD62B" stroke="#FFD62B" stroke-width="0.843756"/>
<path d="M59.5778 12.5294L59.0487 13.0841C56.608 10.8093 53.7444 9.15056 50.7586 7.64114C50.405 8.48919 49.7297 9.35058 49.3016 9.93728C52.7899 11.5374 55.8927 13.7882 58.4452 16.5244L57.9453 17.0364C57.1184 16.1483 56.2277 15.3136 55.2786 14.5429C53.4706 13.0761 51.5004 11.8601 49.4266 10.8947C49.392 10.916 49.3521 10.9347 49.3016 10.9453C48.8071 11.0547 48.1717 11.0787 47.7356 11.3507C47.6133 11.428 48.722 11.452 48.7646 11.4574C49.0171 11.484 49.1155 11.4947 49.3495 11.5907C49.634 11.7027 49.9158 12.0681 50.0035 12.3508C50.2056 12.9988 49.844 13.4842 49.1448 13.5028C47.8499 13.5402 46.2919 13.0388 45.2869 12.2068C45.021 11.9881 44.7604 11.7107 44.444 11.5667C43.8166 11.2787 44.0638 12.3161 44.0957 12.4574C44.1569 12.7348 44.234 13.0548 44.1037 13.3242C43.7847 13.9909 42.9791 14.1002 42.3277 13.9615C42.0299 13.8975 39.5147 13.2548 39.746 13.8629C40.0252 14.5909 41.2509 14.6576 41.8916 14.8336C42.7477 15.0683 43.2449 14.9483 43.9788 14.5162C44.9067 13.9695 46.0047 13.6255 47.031 14.1669C48.1344 14.7456 48.4455 15.607 48.8656 16.5484L48.1796 16.559C47.9935 16.1297 47.7702 15.7243 47.4112 15.3989C46.3132 14.4042 45.2789 14.6736 44.125 15.3696C43.7607 15.5883 43.3274 15.8416 42.8833 15.8256C42.3596 15.807 41.756 15.703 41.1764 15.5456C40.7297 15.4229 40.2937 15.2683 39.9268 15.0923C38.616 14.4656 38.5655 12.5854 40.2937 12.7561C41.1232 12.8361 42.0458 13.2842 42.8674 13.2361C43.7634 13.1801 43.1492 12.3534 43.2104 11.8547C43.2635 11.4334 43.3566 11.1294 43.6757 10.8333C44.4414 10.124 45.59 11.5267 46.159 11.8441C46.9247 12.2708 47.9909 12.7348 48.8975 12.7108C48.94 12.3134 48.8018 12.1667 48.488 12.2681C48.3923 12.2788 48.2993 12.2868 48.2036 12.2974C48.0041 12.3108 47.7649 12.3481 47.5655 12.2921C47.0443 12.1401 46.4222 11.4787 46.9593 10.948C47.2996 10.6147 47.7409 10.46 48.1982 10.356C40.5064 7.20111 31.5623 7.41179 24.0805 11.172L23.7561 10.5106C30.762 6.99843 39.1079 6.27305 46.6615 8.88121C46.6694 8.84388 46.6801 8.80654 46.6987 8.76654C47.4059 7.36912 47.717 4.07825 50.1418 5.34766C50.8544 5.72102 51.0538 6.27305 50.9767 6.88109C51.0165 6.88642 51.0564 6.89709 51.0963 6.91843C54.1938 8.47852 57.0972 10.2306 59.5778 12.5294ZM48.5598 9.61193C49.166 8.78521 51.2771 6.31039 49.4293 5.94503C48.0361 5.66768 47.8473 8.22251 47.3979 9.14523C47.7888 9.29191 48.177 9.44925 48.5598 9.61193Z" fill="#FFD62B" stroke="#FFD62B" stroke-width="0.843756"/>
<path d="M56.4672 77.2128C56.7278 77.7462 56.7384 78.3302 56.1641 78.8209C55.1698 79.6769 53.6277 79.8983 52.386 80.1063C47.5018 80.9223 42.4502 81.061 37.5102 80.9784C32.6871 80.8984 27.787 80.685 23.0039 80.0263C21.8127 79.861 19.4012 79.7596 18.6488 78.5942C17.8591 77.3701 20.3983 75.7034 21.1853 75.1727C23.3708 73.7006 25.9099 72.8285 28.4517 72.2072C30.1985 71.7831 32.0304 71.5778 33.756 71.0684C33.7507 71.0551 33.7427 71.0444 33.7374 71.0284C33.4156 70.095 33.5512 69.1403 33.8357 68.1909L34.6015 68.3216C34.3489 69.1696 34.2319 70.0177 34.5084 70.8177C34.5323 70.8871 34.535 70.9511 34.5244 71.0071C35.3964 71.0738 36.2632 71.1591 37.1326 71.1964L37.1034 71.9831C36.1276 71.9431 35.1545 71.8471 34.1681 71.7805C32.384 72.3352 30.475 72.5245 28.6644 72.9805C26.1173 73.6206 23.4559 74.4446 21.3288 76.0474C21.0098 76.2901 18.8801 77.9222 19.4597 78.2875C20.1351 78.7142 20.9805 78.8796 21.7569 79.0236C23.4638 79.3383 25.1867 79.4476 26.9096 79.6103C32.5117 80.1383 38.1908 80.3276 43.8141 80.0876C46.4304 79.9783 49.0705 79.829 51.6602 79.4183C52.2212 79.3276 56.4938 78.7676 55.7706 77.5301L56.4672 77.2128Z" fill="#FFD62B" stroke="#FFD62B" stroke-width="0.843756"/>
<path d="M55.7679 36.3711C56.196 37.1738 56.3529 38.1552 55.9168 39.0006C54.9331 40.9074 52.5216 41.0807 50.9183 42.2248C49.4268 43.2915 50.3919 44.9743 49.4906 46.3291C48.7435 47.4545 47.6321 48.0678 46.4277 48.6172C44.625 49.4359 42.958 50.26 41.3654 51.4494C40.2221 52.3054 38.9964 53.1108 37.5553 53.3375C36.0505 53.5722 34.5562 53.2361 33.9208 51.7054C33.2454 50.0706 33.5087 48.1078 33.8782 46.4277C34.0883 45.4703 34.3515 44.5209 34.6971 43.6036C35.1332 42.4462 36.1967 41.1287 36.1036 39.8887C36.0372 38.9926 35.75 38.1446 35.9202 37.2405C35.9946 36.8431 36.1063 36.4618 36.2339 36.0804L36.9438 36.2538C36.8002 36.7045 36.6965 37.1578 36.6753 37.6165C36.6354 38.5339 36.9385 39.398 36.8694 40.3207C36.8215 40.9501 36.5104 41.6008 36.2286 42.1501C35.3033 43.9529 34.6493 45.9557 34.4153 47.9745C34.2398 49.4973 34.0803 52.3108 36.1515 52.5988C37.7813 52.8255 39.3739 51.9454 40.6315 51.0067C42.1178 49.8946 43.5961 49.0252 45.2897 48.2598C47.1509 47.4171 49.1343 46.6464 49.1157 44.2783C49.1077 43.1849 49.3842 42.4275 50.2377 41.7368C51.6734 40.5767 55.3824 40.1847 55.3718 37.8432C55.3638 36.1978 53.4947 35.3204 53.4442 33.5816C53.4176 32.6962 53.5 31.8428 53.165 31.0028C52.8911 30.3094 52.5269 29.6507 52.2796 28.9467C52.1733 28.6453 52.0616 28.2426 52.0111 27.8239L52.7609 27.7812C52.7715 27.8693 52.7981 27.9679 52.8406 28.0746C52.8699 28.1839 52.9018 28.2933 52.931 28.4026C53.0826 28.832 53.2634 29.2427 53.4522 29.656C53.7127 30.2347 54.0371 30.8508 54.1461 31.4801C54.186 31.7068 54.1993 31.9468 54.2019 32.1895C54.2072 32.9176 54.1168 33.6803 54.3854 34.3363C54.7071 35.123 55.3771 35.6377 55.7679 36.3711Z" fill="#FFD62B" stroke="#FFD62B" stroke-width="0.843756"/>
<path d="M52.1201 17.4146C53.2899 17.596 56.4193 18.9534 55.6616 20.6522C55.2601 21.5482 54.489 21.7776 53.6808 21.1642C53.3165 20.8895 52.9921 20.5108 52.6146 20.2682C52.4551 20.1535 52.2822 20.0575 52.0961 19.9855C52.0456 20.2175 51.9951 20.4495 51.9446 20.6842C52.1918 20.8842 52.463 21.0175 52.7528 21.1402C53.6675 21.5322 54.4757 21.9883 54.5316 23.087C54.5688 23.855 53.8456 24.2017 53.1942 24.2577C53.0799 24.3671 52.9124 24.4151 52.7342 24.3191C50.7588 23.263 48.5307 22.6016 46.6829 21.3136C44.2075 19.5881 42.8383 16.0546 39.342 16.4359C36.0132 16.7986 32.6552 18.8787 30.5574 21.4602C29.4779 22.791 28.3798 24.8018 29.0047 26.5725C29.6667 28.4447 31.5996 28.826 33.3225 29.1594C35.5293 29.5861 38.438 30.4368 37.9355 33.2956C37.76 34.2957 37.2602 35.2664 36.9438 36.2531L36.2339 36.0798C36.311 35.8531 36.3934 35.6264 36.4758 35.3998C37.0262 33.9117 37.8903 31.8422 36.0823 30.8448C33.8489 29.6127 29.8448 30.2234 28.5447 27.5299C25.9869 22.2176 33.4953 16.8866 37.8318 15.8892C38.9272 15.6385 40.0439 15.5025 41.1313 15.7345C41.36 15.7825 41.5886 15.8465 41.8173 15.9319C42.9313 16.3452 43.8167 17.292 44.5745 18.1667C45.7496 19.5241 46.9089 20.6495 48.536 21.4602C49.9452 22.1616 51.4102 22.7403 52.8113 23.4604C52.8167 23.4604 52.8193 23.4604 52.822 23.4604C53.6169 22.855 53.7047 22.423 53.0852 22.1669C53.0081 22.1269 52.9283 22.0896 52.8512 22.0496C52.128 21.7296 50.9422 21.3296 50.9502 20.3375C50.9582 19.6361 51.2294 19.0974 52.0004 19.1481C53.0028 19.2121 53.484 20.2282 54.3109 20.6202C55.385 21.1322 54.7336 19.6975 54.598 19.5588C54.3614 19.3214 54.1115 19.0974 53.8217 18.9241C53.3059 18.6147 52.7396 18.3134 52.1334 18.2227C51.2187 18.0814 50.4743 19.5908 49.5304 18.8707C48.7567 18.2814 48.536 17.3773 48.1798 16.5586L48.8657 16.5479C49.004 16.8626 49.1555 17.1826 49.3549 17.508C50.0701 18.6814 50.4636 17.884 51.2613 17.4893C51.5192 17.364 51.8462 17.3746 52.1201 17.4146Z" fill="#FFD62B" stroke="#FFD62B" stroke-width="0.843756"/>
<path d="M49.8017 49.5082C49.9958 49.5135 50.1793 49.6415 50.1607 49.8922C50.0915 50.9536 49.1291 52.023 48.4431 52.7564C47.8316 53.4098 46.6511 54.6818 45.6088 54.3805C44.1811 53.9645 45.1409 52.4044 45.6992 51.6736C46.0794 51.183 46.449 50.3989 47.0313 50.1269C47.7624 49.7882 48.6 50.0229 49.254 49.4975C49.4375 49.3482 49.6555 49.3908 49.8017 49.5082ZM48.1267 51.9137C48.4404 51.5403 48.9403 51.0016 49.1982 50.4602C48.9589 50.5722 48.701 50.6443 48.4112 50.6656C47.6747 50.7189 47.3344 50.7936 46.8744 51.439C46.7043 51.6763 45.1436 53.6898 45.9146 53.6098C46.776 53.5164 47.6056 52.527 48.1267 51.9137Z" fill="#FFD62B" stroke="#FFD62B" stroke-width="0.843756"/>
<path d="M49.198 50.46C48.9401 51.0013 48.4403 51.54 48.1266 51.9134C47.6054 52.5268 46.7759 53.5162 45.9145 53.6095C45.1434 53.6895 46.7041 51.676 46.8743 51.4387C47.3342 50.7933 47.6746 50.7186 48.411 50.6653C48.7008 50.644 48.9587 50.572 49.198 50.46Z" fill="#FFD62B" stroke="#FFD62B" stroke-width="0.843756"/>
<path d="M36.2126 61.5058L36.1887 62.2472C33.1763 62.1405 30.1958 61.5911 27.3642 60.6257C27.1728 61.0951 26.9016 61.8285 26.5559 62.5778C28.4995 63.4739 30.7196 63.9059 32.9343 64.1113L32.8652 64.8713C30.568 64.658 28.2629 64.2393 26.205 63.2952C25.4286 64.754 24.3678 65.9701 23.0543 65.0047C21.3394 63.7406 24.3651 60.9244 24.865 59.6497C19.8877 57.4362 15.53 53.8653 12.5282 49.0837C11.5604 47.5423 10.7655 45.9235 10.1433 44.2567L10.8452 43.998C11.1377 44.7608 11.4727 45.5155 11.8502 46.2595C16.5244 55.4841 26.1465 61.1591 36.2126 61.5058ZM26.6144 60.3617C26.2741 60.2337 25.9338 60.1004 25.5961 59.9617C25.3462 60.5884 24.865 61.1458 24.5034 61.6978C24.1923 62.1752 23.0331 63.6552 23.4478 64.2686C24.3704 65.6314 26.08 61.6418 26.6144 60.3617Z" fill="#FFD62B" stroke="#FFD62B" stroke-width="0.843756"/>
<path d="M23.7562 10.5112L24.0806 11.1726C22.7405 11.8473 21.4484 12.634 20.2174 13.5354C18.2472 14.9782 16.5084 16.6716 15.0274 18.5411C15.0168 19.4985 15.2401 20.4265 15.2534 21.3786L14.4797 21.3892C14.4797 21.3332 14.4771 21.2772 14.4744 21.2212C14.4345 20.6479 14.3415 20.0905 14.283 19.5278C9.82154 25.7122 8.06674 33.6193 9.92257 41.0811L9.218 41.2571C7.19467 33.0166 9.11696 24.0294 14.8626 17.3917C17.3671 14.5008 20.4088 12.186 23.7562 10.5112Z" fill="#FFD62B" stroke="#FFD62B" stroke-width="0.843756"/>
<path d="M16.7876 30.1811C17.3087 31.0372 16.6413 32.1599 16.0484 32.7946C15.2003 33.6987 15.0514 34.4427 14.9769 35.5921C14.9397 36.1388 14.8998 36.6669 14.735 37.1896C14.5329 37.8296 13.9108 38.1896 13.2753 38.0189C12.9882 37.9443 12.7356 37.6909 12.5255 37.4963C11.7332 36.7655 11.7066 38.4963 11.7704 39.051C11.8449 39.7177 11.9645 40.4351 11.7678 41.0938C11.5046 41.9925 11.026 42.8059 10.9489 43.7553C10.9382 43.8566 10.901 43.9366 10.8452 43.998L10.1433 44.2567C9.7737 43.2726 9.46528 42.2699 9.21802 41.2565L9.92259 41.0805C10.0555 41.6112 10.2044 42.1392 10.3746 42.6646C10.4783 42.3365 10.6059 42.0139 10.7335 41.6725C11.0792 40.7605 11.0552 39.9977 10.9728 39.051C10.8904 38.1363 10.9569 37.0349 11.8183 36.4909C12.3421 36.1575 12.8738 36.7575 13.2248 37.0562C14.0916 37.7816 14.1633 35.7841 14.2006 35.3308C14.2537 34.6801 14.2484 34.0614 14.4186 33.4293C14.5489 32.9413 14.8972 32.6693 15.2774 32.3813C15.7719 32.0106 16.4738 30.9652 15.8756 30.3945C15.7267 30.2558 15.5379 29.9731 15.4529 29.7971C15.3252 29.5224 15.2189 29.2531 15.3093 28.9464C15.6097 27.9437 15.397 27.0769 14.275 26.7543C13.3046 26.4769 13.2221 25.0608 13.5146 24.2954C13.8682 23.3727 14.4797 22.4047 14.4797 21.3886L15.2534 21.3779C15.2588 21.4846 15.2588 21.5939 15.2534 21.7006C15.2295 22.3913 14.8786 23.0874 14.61 23.7114C14.3016 24.4181 13.8416 25.7435 14.9344 26.0956C15.1817 26.1729 15.2827 26.2209 15.5113 26.3569C15.9474 26.6209 16.1335 27.0129 16.2718 27.4796C16.4074 27.925 16.2638 28.541 16.1335 28.9757C15.966 29.5304 16.5376 29.7731 16.7876 30.1811Z" fill="#FFD62B" stroke="#FFD62B" stroke-width="0.843756"/>
<path d="M15.8755 30.3937C16.4737 30.9644 15.7718 32.0098 15.2772 32.3805C14.897 32.6685 14.5487 32.9405 14.4185 33.4286C14.2483 34.0606 14.2536 34.6793 14.2004 35.33C14.1632 35.7834 14.0914 37.7808 13.2247 37.0554C12.8737 36.7568 12.342 36.1567 11.8182 36.4901C10.9567 37.0341 10.8903 38.1355 10.9727 39.0502C11.0551 39.997 11.079 40.7597 10.7334 41.6717C10.6058 42.0131 10.4781 42.3358 10.3745 42.6638C10.2043 42.1384 10.0554 41.6104 9.92246 41.0797C8.06664 33.6179 9.82143 25.7107 14.2829 19.5264C14.3414 20.0891 14.4344 20.6464 14.4743 21.2198C14.477 21.2758 14.4796 21.3318 14.4796 21.3878C14.4796 22.4039 13.8681 23.3719 13.5145 24.2947C13.222 25.06 13.3044 26.4761 14.2749 26.7535C15.3969 27.0762 15.6096 27.9429 15.3091 28.9456C15.2188 29.2523 15.3251 29.5216 15.4527 29.7963C15.5378 29.9723 15.7266 30.255 15.8755 30.3937Z" fill="#B6998E" stroke="#FFD62B" stroke-width="0.843756"/>
</svg>
