<svg width="47" height="46" viewBox="0 0 47 46" fill="none" xmlns="http://www.w3.org/2000/svg">
<g clip-path="url(#clip0)">
<path d="M23.7026 45.9895C36.4787 45.9895 46.8358 35.6944 46.8358 22.9948C46.8358 10.2951 36.4787 0 23.7026 0C10.9264 0 0.569336 10.2951 0.569336 22.9948C0.569336 35.6944 10.9264 45.9895 23.7026 45.9895Z" fill="#FC7E1E"/>
<path d="M9.77319 20.3535C9.77319 21.3382 10.5767 22.1415 11.572 22.1415H12.1427C13.1334 22.1415 13.9415 21.3428 13.9415 20.3535C13.9415 19.3687 13.1379 18.5654 12.1427 18.5654H11.572C10.5767 18.57 9.77319 19.3687 9.77319 20.3535Z" fill="#63320A"/>
<path d="M34.1851 20.3535C34.1851 21.3382 34.9886 22.1415 35.9838 22.1415H36.5545C37.5452 22.1415 38.3533 21.3428 38.3533 20.3535C38.3533 19.3687 37.5498 18.5654 36.5545 18.5654H35.9838C34.9886 18.57 34.1851 19.3687 34.1851 20.3535Z" fill="#63320A"/>
<path d="M30.5509 31.8804C30.1034 31.8804 29.6743 31.6172 29.4962 31.177C29.4369 31.0408 27.944 27.669 23.7163 27.669C20.0366 27.6735 17.8634 31.2813 17.8406 31.3176C17.521 31.8577 16.8271 32.0392 16.2792 31.7261C15.7359 31.4129 15.5487 30.7186 15.8637 30.1786C15.9779 29.9834 18.6989 25.409 23.6981 25.3999C29.5008 25.3999 31.5187 30.115 31.6055 30.3147C31.8474 30.8956 31.569 31.5582 30.9846 31.7941C30.843 31.8486 30.6969 31.8804 30.5509 31.8804Z" fill="#63320A"/>
</g>
<defs>
<clipPath id="clip0">
<rect width="46.2665" height="45.9895" fill="white" transform="translate(0.569336)"/>
</clipPath>
</defs>
</svg>
