<svg width="47" height="46" viewBox="0 0 47 46" fill="none" xmlns="http://www.w3.org/2000/svg">
<g clip-path="url(#clip0)">
<path d="M23.1332 45.9895C35.9094 45.9895 46.2665 35.6944 46.2665 22.9948C46.2665 10.2951 35.9094 0 23.1332 0C10.3571 0 0 10.2951 0 22.9948C0 35.6944 10.3571 45.9895 23.1332 45.9895Z" fill="#FFCE2B"/>
<path d="M8.84326 20.2402C8.84326 21.225 9.64679 22.0282 10.6421 22.0282H11.2127C12.2035 22.0282 13.0116 21.2295 13.0116 20.2402C13.0116 19.2554 12.208 18.4521 11.2127 18.4521H10.6421C9.65135 18.4567 8.84326 19.2554 8.84326 20.2402Z" fill="#594208"/>
<path d="M33.2549 20.2402C33.2549 21.225 34.0584 22.0282 35.0537 22.0282H35.6244C36.6151 22.0282 37.4232 21.2295 37.4232 20.2402C37.4232 19.2554 36.6196 18.4521 35.6244 18.4521H35.0537C34.063 18.4567 33.2549 19.2554 33.2549 20.2402Z" fill="#594208"/>
<path d="M26.224 30.9137C26.0916 30.9137 25.9592 30.891 25.8268 30.841L17.4309 27.737C16.842 27.5191 16.5406 26.8656 16.7598 26.2802C16.9789 25.6948 17.6363 25.3953 18.2253 25.6131L26.6212 28.7172C27.2102 28.935 27.5115 29.5885 27.2923 30.1739C27.1188 30.6323 26.6851 30.9137 26.224 30.9137Z" fill="#594208"/>
</g>
<defs>
<clipPath id="clip0">
<rect width="46.2665" height="45.9895" fill="white"/>
</clipPath>
</defs>
</svg>
