<svg width="47" height="46" viewBox="0 0 47 46" fill="none" xmlns="http://www.w3.org/2000/svg">
<path d="M23.2719 45.9895C36.048 45.9895 46.4052 35.6944 46.4052 22.9948C46.4052 10.2951 36.048 0 23.2719 0C10.4958 0 0.138672 10.2951 0.138672 22.9948C0.138672 35.6944 10.4958 45.9895 23.2719 45.9895Z" fill="#FFEEB3"/>
<path d="M8.98193 20.2402C8.98193 21.225 9.78546 22.0282 10.7807 22.0282H11.3514C12.3421 22.0282 13.1502 21.2295 13.1502 20.2402C13.1502 19.2554 12.3467 18.4521 11.3514 18.4521H10.7807C9.79003 18.4567 8.98193 19.2554 8.98193 20.2402Z" fill="#594208"/>
<path d="M33.3936 20.2402C33.3936 21.225 34.1971 22.0282 35.1924 22.0282H35.763C36.7538 22.0282 37.5618 21.2295 37.5618 20.2402C37.5618 19.2554 36.7583 18.4521 35.763 18.4521H35.1924C34.2016 18.4567 33.3936 19.2554 33.3936 20.2402Z" fill="#594208"/>
<path d="M26.3627 30.9137C26.2303 30.9137 26.0979 30.891 25.9655 30.841L17.5696 27.737C16.9806 27.5191 16.6793 26.8656 16.8984 26.2802C17.1176 25.6948 17.775 25.3953 18.364 25.6131L26.7599 28.7172C27.3488 28.935 27.6501 29.5885 27.431 30.1739C27.2575 30.6323 26.8238 30.9137 26.3627 30.9137Z" fill="#594208"/>
</svg>
