<svg width="47" height="46" viewBox="0 0 47 46" fill="none" xmlns="http://www.w3.org/2000/svg">
<path d="M23.7026 45.9895C36.4787 45.9895 46.8358 35.6944 46.8358 22.9948C46.8358 10.2951 36.4787 0 23.7026 0C10.9264 0 0.569336 10.2951 0.569336 22.9948C0.569336 35.6944 10.9264 45.9895 23.7026 45.9895Z" fill="#FED1AE"/>
<path d="M9.77332 20.3535C9.77332 21.3382 10.5768 22.1415 11.5721 22.1415H12.1428C13.1335 22.1415 13.9416 21.3428 13.9416 20.3535C13.9416 19.3687 13.1381 18.5654 12.1428 18.5654H11.5721C10.5768 18.57 9.77332 19.3687 9.77332 20.3535Z" fill="#63320A"/>
<path d="M34.1849 20.3535C34.1849 21.3382 34.9885 22.1415 35.9837 22.1415H36.5544C37.5451 22.1415 38.3532 21.3428 38.3532 20.3535C38.3532 19.3687 37.5497 18.5654 36.5544 18.5654H35.9837C34.9885 18.57 34.1849 19.3687 34.1849 20.3535Z" fill="#63320A"/>
<path d="M30.5507 31.8804C30.1033 31.8804 29.6742 31.6172 29.4961 31.177C29.4368 31.0408 27.9438 27.669 23.7162 27.669C20.0365 27.6735 17.8633 31.2813 17.8405 31.3176C17.5209 31.8577 16.8269 32.0392 16.2791 31.7261C15.7358 31.4129 15.5486 30.7186 15.8636 30.1786C15.9778 29.9834 18.6988 25.409 23.698 25.3999C29.5007 25.3999 31.5186 30.115 31.6054 30.3147C31.8473 30.8956 31.5688 31.5582 30.9845 31.7941C30.8429 31.8486 30.6968 31.8804 30.5507 31.8804Z" fill="#63320A"/>
</svg>
