<svg width="47" height="46" viewBox="0 0 47 46" fill="none" xmlns="http://www.w3.org/2000/svg">
<path d="M23.4106 45.9895C36.1867 45.9895 46.5439 35.6944 46.5439 22.9948C46.5439 10.2951 36.1867 0 23.4106 0C10.6344 0 0.277344 10.2951 0.277344 22.9948C0.277344 35.6944 10.6344 45.9895 23.4106 45.9895Z" fill="#BFECC3"/>
<path d="M9.12085 20.3535C9.12085 21.3382 9.92437 22.1415 10.9196 22.1415H11.4903C12.481 22.1415 13.2891 21.3428 13.2891 20.3535C13.2891 19.3687 12.4856 18.5654 11.4903 18.5654H10.9196C9.92437 18.57 9.12085 19.3687 9.12085 20.3535Z" fill="#1F5223"/>
<path d="M33.5322 20.3535C33.5322 21.3382 34.3357 22.1415 35.331 22.1415H35.9017C36.8924 22.1415 37.7005 21.3428 37.7005 20.3535C37.7005 19.3687 36.897 18.5654 35.9017 18.5654H35.331C34.3357 18.57 33.5322 19.3687 33.5322 20.3535Z" fill="#1F5223"/>
<path d="M14.6128 25.7993C14.6128 25.7993 17.7584 33.0785 23.4059 33.0876C29.9573 33.1012 32.1989 25.7993 32.1989 25.7993L14.6128 25.7993Z" fill="#1F5223"/>
</svg>
