<svg width="47" height="46" viewBox="0 0 47 46" fill="none" xmlns="http://www.w3.org/2000/svg">
<g clip-path="url(#clip0)">
<path d="M23.8413 45.9895C36.6174 45.9895 46.9745 35.6944 46.9745 22.9948C46.9745 10.2951 36.6174 0 23.8413 0C11.0651 0 0.708008 10.2951 0.708008 22.9948C0.708008 35.6944 11.0651 45.9895 23.8413 45.9895Z" fill="#ACD91A"/>
<path d="M9.55127 20.3535C9.55127 21.3382 10.3548 22.1415 11.3501 22.1415H11.9207C12.9114 22.1415 13.7195 21.3428 13.7195 20.3535C13.7195 19.3687 12.916 18.5654 11.9207 18.5654H11.3501C10.3594 18.57 9.55127 19.3687 9.55127 20.3535Z" fill="#495C0B"/>
<path d="M33.9629 20.3535C33.9629 21.3382 34.7664 22.1415 35.7617 22.1415H36.3324C37.3231 22.1415 38.1312 21.3428 38.1312 20.3535C38.1312 19.3687 37.3277 18.5654 36.3324 18.5654H35.7617C34.7664 18.57 33.9629 19.3687 33.9629 20.3535Z" fill="#495C0B"/>
<path d="M23.8549 33.0195C18.842 33.0104 16.1164 28.436 16.0068 28.2408C15.6918 27.7008 15.879 27.0064 16.4223 26.6888C16.9656 26.3756 17.6641 26.5572 17.9791 27.1017C18.0202 27.1698 20.1888 30.7459 23.8412 30.7504C28.0825 30.7504 29.5709 27.3786 29.6348 27.2333C29.8813 26.657 30.5479 26.3847 31.1277 26.6298C31.7075 26.8703 31.9814 27.5283 31.744 28.1047C31.6618 28.3044 29.6439 33.0195 23.8549 33.0195Z" fill="#495C0B"/>
</g>
<defs>
<clipPath id="clip0">
<rect width="46.2665" height="45.9895" fill="white" transform="translate(0.708008)"/>
</clipPath>
</defs>
</svg>
