<svg width="79" height="94" viewBox="0 0 79 94" fill="none" xmlns="http://www.w3.org/2000/svg">
<path d="M75.9807 77.9905L-5.34058e-05 81.6221L-4.6445e-05 2.00001L78.3779 1.99999L75.9807 77.9905Z" fill="#977FB8"/>
<rect x="22.502" y="19.3091" width="43.2729" height="43.2729" fill="#B6998E"/>
<path d="M65.9205 63.3937C66.1368 63.1909 66.1128 62.9738 66.1128 62.7065C66.1128 61.2653 66.1128 59.8242 66.1128 58.383C66.1128 55.763 66.1128 53.1407 66.1128 50.5208C66.1128 47.3139 66.1128 44.1071 66.1128 40.9002C66.1128 37.7219 66.1128 34.546 66.1128 31.3678C66.1128 28.829 66.1128 26.2902 66.1128 23.7514C66.1128 22.4606 66.1128 21.1673 66.1128 19.8764C66.1128 19.8192 66.1128 19.7619 66.1128 19.707C66.1128 19.6784 66.108 19.6498 66.1032 19.6211C66.0887 19.5472 66.0527 19.478 65.9974 19.4279C65.983 19.4135 65.9662 19.404 65.9517 19.3921C65.8844 19.342 65.8051 19.3133 65.7186 19.3133C64.8341 19.3133 63.9496 19.3133 63.0676 19.3133C60.7987 19.3133 58.5322 19.3133 56.2633 19.3133C53.2157 19.3133 50.1657 19.3133 47.1181 19.3133C43.8638 19.3133 40.6071 19.3133 37.3527 19.3133C34.4998 19.3133 31.6469 19.3133 28.794 19.3133C26.9217 19.3133 25.0517 19.3133 23.1794 19.3133C22.7949 19.3133 22.4103 19.3038 22.0282 19.3133C21.6965 19.3205 21.5282 19.5662 21.3143 19.7882C19.7689 21.3701 18.2259 22.9545 16.6804 24.5364C14.4644 26.808 12.246 29.0819 10.03 31.3535C8.58311 32.8376 7.13381 34.3217 5.68692 35.8059C5.61481 35.8799 5.54031 35.9562 5.4682 36.0302C5.44417 36.054 5.42494 36.0803 5.40812 36.1065C5.40812 36.1089 5.40571 36.1089 5.40571 36.1113C5.40331 36.1161 5.4009 36.1209 5.3985 36.1256C5.3961 36.1328 5.39129 36.1376 5.38889 36.1447C5.30957 36.2974 5.31678 36.5002 5.30477 36.6625C5.28554 36.956 5.27592 37.2519 5.26631 37.5453C5.23506 38.5976 5.22545 39.6499 5.21584 40.7021C5.20142 42.2388 5.19661 43.773 5.19421 45.3096C5.1918 47.166 5.1918 49.02 5.19661 50.8764C5.20142 52.9093 5.20622 54.9422 5.21584 56.9752C5.22305 59.0153 5.23266 61.0577 5.24468 63.0978C5.25429 65.0043 5.26631 66.9132 5.27833 68.8197C5.28794 70.4303 5.29996 72.0385 5.31198 73.6491C5.31919 74.8063 5.3288 75.9612 5.33841 77.1184C5.34322 77.6648 5.33841 78.2113 5.35043 78.7577C5.35043 78.7815 5.35043 78.803 5.35043 78.8269C5.35284 79.0392 5.53069 79.2206 5.74701 79.2206C6.12195 79.2206 6.49929 79.2206 6.87424 79.2206C7.89331 79.2206 8.91239 79.2206 9.92906 79.2206C11.4336 79.2206 12.9406 79.2206 14.4452 79.2206C16.2815 79.2206 18.1177 79.2206 19.954 79.2206C21.9657 79.2206 23.975 79.2206 25.9867 79.2206C28.0224 79.2206 30.0606 79.2206 32.0963 79.2206C33.9831 79.2206 35.8674 79.2206 37.7541 79.2206C39.3596 79.2206 40.9652 79.2206 42.5707 79.2206C43.7196 79.2206 44.8708 79.2206 46.0197 79.2206C46.5629 79.2206 47.1085 79.2301 47.6541 79.2206C47.6781 79.2206 47.6997 79.2206 47.7238 79.2206C47.8055 79.2206 47.8824 79.1943 47.9473 79.149C48.0458 79.0917 48.1348 79.0082 48.2261 78.9319C48.4472 78.7481 48.6659 78.5596 48.8822 78.3711C49.6802 77.6839 50.4733 76.9896 51.2665 76.2976C53.6099 74.248 55.9485 72.1912 58.2846 70.132C60.3636 68.3019 62.4403 66.467 64.5169 64.6345C64.9855 64.2217 65.4662 63.8208 65.9205 63.3937ZM11.5009 30.9765C13.0632 29.3754 14.6255 27.7744 16.1877 26.1709C17.5337 24.7918 18.8772 23.4126 20.2232 22.0335C20.6678 21.5777 21.1148 21.1196 21.5595 20.6638C21.6965 20.5255 21.8551 20.3871 21.9993 20.2391C21.9993 20.5278 21.9993 20.8142 21.9993 21.1029C21.9993 21.845 21.9993 22.5846 21.9993 23.3267C21.9993 23.4961 21.9993 23.6655 21.9993 23.8349C21.9993 24.0401 22.182 24.2382 22.3959 24.2286C22.6098 24.2191 22.7925 24.0568 22.7925 23.8349C22.7925 23.3697 22.7925 22.9044 22.7925 22.4391C22.7925 21.697 22.7925 20.9573 22.7925 20.2153C22.7925 20.1771 22.7925 20.1389 22.7925 20.1007C22.9006 20.1007 23.0064 20.1007 23.1145 20.1007C24.1769 20.1007 25.2416 20.1007 26.304 20.1007C27.8686 20.1007 29.4333 20.1007 30.998 20.1007C32.9159 20.1007 34.8315 20.1007 36.7495 20.1007C38.8501 20.1007 40.9508 20.1007 43.0514 20.1007C45.1713 20.1007 47.2911 20.1007 49.4134 20.1007C51.3818 20.1007 53.3503 20.1007 55.3187 20.1007C56.9916 20.1007 58.662 20.1007 60.3348 20.1007C61.5365 20.1007 62.7383 20.1007 63.9424 20.1007C64.19 20.1007 64.4448 20.1103 64.6971 20.1174C64.3486 20.4396 64.0001 20.7593 63.6516 21.0814C63.0051 21.6779 62.3561 22.2768 61.7096 22.8734C60.9237 23.5987 60.1377 24.3241 59.3542 25.0471C58.4889 25.8464 57.6237 26.6434 56.7584 27.4427C55.8908 28.2444 55.0207 29.0461 54.1531 29.8455C53.3383 30.5971 52.5259 31.3487 51.7111 32.0979C51.0261 32.7279 50.3435 33.3602 49.6586 33.9901C49.1658 34.4458 48.6731 34.8992 48.178 35.3549C47.9761 35.541 47.7742 35.7271 47.5723 35.9133C47.2479 35.9133 46.9234 35.9133 46.5989 35.9133C45.5799 35.9133 44.5608 35.9133 43.5441 35.9133C42.0395 35.9133 40.5326 35.9133 39.028 35.9133C37.1917 35.9133 35.3555 35.9133 33.5192 35.9133C31.5075 35.9133 29.4982 35.9133 27.4865 35.9133C25.9218 35.9133 24.3571 35.9133 22.7949 35.9133C22.7949 35.689 22.7949 35.4647 22.7949 35.2404C22.7949 35.071 22.7949 34.9016 22.7949 34.7322C22.7949 34.527 22.6122 34.3289 22.3983 34.3385C22.1844 34.348 22.0017 34.5126 22.0017 34.7322C22.0017 35.1259 22.0017 35.5172 22.0017 35.9109C21.7926 35.9109 21.5859 35.9109 21.3768 35.9109C19.4901 35.9109 17.6058 35.9109 15.719 35.9109C14.1135 35.9109 12.508 35.9109 10.9025 35.9109C9.7536 35.9109 8.60234 35.9109 7.45348 35.9109C7.19871 35.9109 6.94394 35.9085 6.68917 35.9085C7.00883 35.5816 7.32609 35.2547 7.64575 34.9278C8.92921 33.6131 10.2151 32.296 11.5009 30.9765ZM46.5965 78.4332C45.5774 78.4332 44.5584 78.4332 43.5417 78.4332C42.0371 78.4332 40.5301 78.4332 39.0256 78.4332C37.1893 78.4332 35.3531 78.4332 33.5168 78.4332C31.5051 78.4332 29.4958 78.4332 27.4841 78.4332C25.4483 78.4332 23.4102 78.4332 21.3744 78.4332C19.4877 78.4332 17.6034 78.4332 15.7166 78.4332C14.1111 78.4332 12.5056 78.4332 10.9001 78.4332C9.7512 78.4332 8.59993 78.4332 7.45107 78.4332C7.01604 78.4332 6.57621 78.4188 6.14118 78.4236C6.13877 78.2685 6.13877 78.111 6.13637 77.956C6.14118 77.9607 6.14358 77.9655 6.14839 77.9703C6.31182 78.1206 6.54496 78.1182 6.7084 77.9703C7.0545 77.6553 7.3982 77.3403 7.7443 77.0254C8.29469 76.5243 8.84509 76.0232 9.39308 75.5221C9.51806 75.4076 9.64304 75.2931 9.77043 75.1786C9.92425 75.0378 9.92425 74.761 9.77043 74.6226C9.60699 74.4723 9.37385 74.4747 9.21042 74.6226C8.86432 74.9376 8.52062 75.2525 8.17452 75.5675C7.62412 76.0686 7.07373 76.5696 6.52573 77.0707C6.40075 77.1852 6.27577 77.2998 6.14839 77.4143C6.14118 77.4215 6.13637 77.4286 6.13156 77.4334C6.12435 76.5076 6.11714 75.5818 6.10993 74.6536C6.09791 73.148 6.0883 71.6424 6.07869 70.1344C6.06667 68.2947 6.05465 66.4527 6.04504 64.613C6.03302 62.592 6.02341 60.5734 6.01379 58.5524C6.00418 56.5075 5.99697 54.4626 5.99216 52.4178C5.98735 50.5041 5.98495 48.5881 5.98495 46.6745C5.98495 45.0448 5.98976 43.4151 5.99937 41.7854C6.00658 40.5947 6.0162 39.4041 6.04023 38.2134C6.04984 37.7076 6.08109 37.2065 6.10272 36.7031C6.35989 36.7031 6.61466 36.7031 6.87183 36.7031C7.89091 36.7031 8.90998 36.7031 9.92665 36.7031C11.4312 36.7031 12.9382 36.7031 14.4428 36.7031C16.279 36.7031 18.1153 36.7031 19.9516 36.7031C20.6342 36.7031 21.3143 36.7031 21.9969 36.7031C21.9969 37.2542 21.9969 37.8054 21.9969 38.3566C21.9969 38.526 21.9969 38.6954 21.9969 38.8648C21.9969 39.07 22.1796 39.2681 22.3935 39.2585C22.6074 39.249 22.7901 39.0844 22.7901 38.8648C22.7901 38.3996 22.7901 37.9343 22.7901 37.469C22.7901 37.2137 22.7901 36.9584 22.7901 36.7054C23.8548 36.7054 24.9196 36.7054 25.9843 36.7054C28.02 36.7054 30.0582 36.7054 32.0939 36.7054C33.9807 36.7054 35.865 36.7054 37.7517 36.7054C39.3573 36.7054 40.9628 36.7054 42.5683 36.7054C43.7172 36.7054 44.8684 36.7054 46.0173 36.7054C46.4523 36.7054 46.8897 36.7198 47.3248 36.715C47.3248 36.9631 47.3248 37.2089 47.3248 37.4571C47.3248 38.4855 47.3248 39.5162 47.3248 40.5446C47.3248 42.0717 47.3248 43.5964 47.3248 45.1235C47.3248 46.9847 47.3248 48.8482 47.3248 50.7093C47.3248 52.7423 47.3248 54.7728 47.3248 56.8058C47.3248 58.8721 47.3248 60.9361 47.3248 63.0024C47.3248 64.916 47.3248 66.8273 47.3248 68.7409C47.3248 70.3635 47.3248 71.986 47.3248 73.6061C47.3248 74.7729 47.3248 75.9373 47.3248 77.1041C47.3248 77.5455 47.3104 77.9917 47.3176 78.4355C47.0796 78.4332 46.8393 78.4332 46.5965 78.4332ZM59.4263 68.0728C57.7078 69.588 55.9893 71.1007 54.2684 72.6135C52.7711 73.9306 51.2713 75.2454 49.7691 76.5577C49.2211 77.0349 48.6755 77.5145 48.1227 77.987C48.1227 77.8844 48.1227 77.7818 48.1227 77.6816C48.1227 76.6532 48.1227 75.6224 48.1227 74.594C48.1227 73.0669 48.1227 71.5422 48.1227 70.0151C48.1227 68.1539 48.1227 66.2904 48.1227 64.4293C48.1227 62.3963 48.1227 60.3658 48.1227 58.3328C48.1227 56.2665 48.1227 54.2025 48.1227 52.1362C48.1227 50.2226 48.1227 48.3113 48.1227 46.3977C48.1227 44.7752 48.1227 43.1526 48.1227 41.5325C48.1227 40.3657 48.1227 39.2013 48.1227 38.0345C48.1227 37.5167 48.1299 36.9965 48.1227 36.4788C48.2453 36.3666 48.3679 36.2545 48.4881 36.1399C48.9231 35.7391 49.3581 35.3358 49.7956 34.935C50.4421 34.3385 51.091 33.7395 51.7376 33.143C52.5235 32.4177 53.3094 31.6923 54.093 30.9693C54.9582 30.17 55.8235 29.373 56.6887 28.5737C57.5564 27.772 58.4264 26.9702 59.2941 26.1709C60.1089 25.4193 60.9213 24.6677 61.736 23.9185C62.421 23.2885 63.1036 22.6562 63.7886 22.0263C64.2813 21.5706 64.774 21.1172 65.2691 20.6615C65.286 20.6448 65.3052 20.6281 65.322 20.6113C65.322 20.6949 65.322 20.7808 65.322 20.8643C65.322 21.9141 65.322 22.9616 65.322 24.0115C65.322 25.572 65.322 27.1325 65.322 28.693C65.322 30.5875 65.322 32.4845 65.322 34.379C65.322 36.4549 65.322 38.5308 65.322 40.6067C65.322 42.7017 65.322 44.7966 65.322 46.8916C65.322 48.8458 65.322 50.8 65.322 52.7542C65.322 54.4125 65.322 56.0708 65.322 57.7316C65.322 58.9174 65.322 60.1057 65.322 61.2916C65.322 61.8165 65.286 62.3558 65.3172 62.8807C64.7692 63.3651 64.2212 63.8471 63.6756 64.3314C62.2576 65.577 60.8419 66.8249 59.4263 68.0728Z" fill="#FFD62B" stroke="#FFD62B" stroke-width="2.00633"/>
<path d="M22.396 31.7418C22.6099 31.7323 22.7925 31.57 22.7925 31.3481C22.7925 30.8828 22.7925 30.4176 22.7925 29.9523C22.7925 29.2102 22.7925 28.4705 22.7925 27.7284C22.7925 27.559 22.7925 27.3896 22.7925 27.2202C22.7925 27.015 22.6099 26.817 22.396 26.8265C22.1821 26.836 21.9994 26.9983 21.9994 27.2202C21.9994 27.6855 21.9994 28.1508 21.9994 28.6161C21.9994 29.3581 21.9994 30.0978 21.9994 30.8399C21.9994 31.0093 21.9994 31.1787 21.9994 31.3481C21.9994 31.5557 22.1821 31.7514 22.396 31.7418Z" fill="#FFD62B" stroke="#FFD62B" stroke-width="2.00633"/>
<path d="M22.396 41.8568C22.1821 41.8663 21.9994 42.0286 21.9994 42.2505C21.9994 42.7158 21.9994 43.181 21.9994 43.6463C21.9994 44.3884 21.9994 45.1281 21.9994 45.8702C21.9994 46.0396 21.9994 46.209 21.9994 46.3784C21.9994 46.5836 22.1821 46.7816 22.396 46.7721C22.6099 46.7626 22.7925 46.6003 22.7925 46.3784C22.7925 45.9131 22.7925 45.4478 22.7925 44.9825C22.7925 44.2405 22.7925 43.5008 22.7925 42.7587C22.7925 42.5893 22.7925 42.4199 22.7925 42.2505C22.7925 42.0453 22.6099 41.8472 22.396 41.8568Z" fill="#FFD62B" stroke="#FFD62B" stroke-width="2.00633"/>
<path d="M22.396 49.5472C22.1821 49.5568 21.9994 49.719 21.9994 49.9409C21.9994 50.4062 21.9994 50.8715 21.9994 51.3368C21.9994 52.0788 21.9994 52.8185 21.9994 53.5606C21.9994 53.73 21.9994 53.8994 21.9994 54.0688C21.9994 54.2741 22.1821 54.4721 22.396 54.4626C22.6099 54.453 22.7925 54.2908 22.7925 54.0688C22.7925 53.6036 22.7925 53.1383 22.7925 52.673C22.7925 51.9309 22.7925 51.1912 22.7925 50.4492C22.7925 50.2797 22.7925 50.1103 22.7925 49.9409C22.7925 49.7357 22.6099 49.5377 22.396 49.5472Z" fill="#FFD62B" stroke="#FFD62B" stroke-width="2.00633"/>
<path d="M22.396 57.2376C22.1821 57.2472 21.9994 57.4094 21.9994 57.6313C21.9994 58.0966 21.9994 58.5619 21.9994 59.0272C21.9994 59.7693 21.9994 60.5089 21.9994 61.251C21.9994 61.4204 21.9994 61.5898 21.9994 61.7592C21.9994 61.9644 22.1821 62.1625 22.396 62.1529C22.6099 62.1434 22.7925 61.9811 22.7925 61.7592C22.7925 61.294 22.7925 60.8287 22.7925 60.3634C22.7925 59.6213 22.7925 58.8816 22.7925 58.1396C22.7925 57.9702 22.7925 57.8008 22.7925 57.6313C22.7925 57.4238 22.6099 57.2281 22.396 57.2376Z" fill="#FFD62B" stroke="#FFD62B" stroke-width="2.00633"/>
<path d="M20.6534 63.6105C20.3072 63.9254 19.9636 64.2404 19.6175 64.5554C19.0671 65.0564 18.5167 65.5575 17.9687 66.0586C17.8437 66.1731 17.7187 66.2876 17.5913 66.4022C17.4375 66.543 17.4375 66.8197 17.5913 66.9581C17.7548 67.1085 17.9879 67.1061 18.1513 66.9581C18.4974 66.6432 18.8411 66.3282 19.1872 66.0132C19.7376 65.5122 20.288 65.0111 20.836 64.51C20.961 64.3955 21.086 64.281 21.2134 64.1664C21.3672 64.0256 21.3672 63.7489 21.2134 63.6105C21.0523 63.4625 20.8168 63.4625 20.6534 63.6105Z" fill="#FFD62B" stroke="#FFD62B" stroke-width="2.00633"/>
<path d="M15.1973 68.8564C14.8512 69.1714 14.5075 69.4863 14.1614 69.8013C13.611 70.3024 13.0606 70.8034 12.5126 71.3045C12.3876 71.419 12.2626 71.5336 12.1353 71.6481C11.9814 71.7889 11.9814 72.0657 12.1353 72.2041C12.2987 72.3544 12.5318 72.352 12.6953 72.2041C13.0414 71.8891 13.3851 71.5741 13.7312 71.2592C14.2816 70.7581 14.832 70.257 15.38 69.756C15.5049 69.6414 15.6299 69.5269 15.7573 69.4124C15.9111 69.2716 15.9111 68.9948 15.7573 68.8564C15.5939 68.7061 15.3607 68.7061 15.1973 68.8564Z" fill="#FFD62B" stroke="#FFD62B" stroke-width="2.00633"/>
<path d="M29.0511 61.748C28.5825 61.748 28.1138 61.748 27.6451 61.748C26.8976 61.748 26.1525 61.748 25.4051 61.748C25.2344 61.748 25.0638 61.748 24.8931 61.748C24.6864 61.748 24.4869 61.9294 24.4965 62.1418C24.5062 62.3542 24.6696 62.5355 24.8931 62.5355C25.3618 62.5355 25.8305 62.5355 26.2992 62.5355C27.0466 62.5355 27.7917 62.5355 28.5392 62.5355C28.7099 62.5355 28.8805 62.5355 29.0511 62.5355C29.2578 62.5355 29.4573 62.3542 29.4477 62.1418C29.4381 61.927 29.2747 61.748 29.0511 61.748Z" fill="#FFD62B" stroke="#FFD62B" stroke-width="2.00633"/>
<path d="M36.6223 61.748C36.1536 61.748 35.685 61.748 35.2163 61.748C34.4688 61.748 33.7237 61.748 32.9762 61.748C32.8056 61.748 32.6349 61.748 32.4643 61.748C32.2576 61.748 32.0581 61.9294 32.0677 62.1418C32.0773 62.3542 32.2408 62.5355 32.4643 62.5355C32.933 62.5355 33.4016 62.5355 33.8703 62.5355C34.6178 62.5355 35.3629 62.5355 36.1104 62.5355C36.281 62.5355 36.4517 62.5355 36.6223 62.5355C36.829 62.5355 37.0285 62.3542 37.0189 62.1418C37.0093 61.927 36.8434 61.748 36.6223 61.748Z" fill="#FFD62B" stroke="#FFD62B" stroke-width="2.00633"/>
<path d="M45.0702 61.748C44.6015 61.748 44.1328 61.748 43.6641 61.748C42.9167 61.748 42.1716 61.748 41.4241 61.748C41.2535 61.748 41.0828 61.748 40.9122 61.748C40.7055 61.748 40.506 61.9294 40.5156 62.1418C40.5252 62.3542 40.6886 62.5355 40.9122 62.5355C41.3808 62.5355 41.8495 62.5355 42.3182 62.5355C43.0657 62.5355 43.8108 62.5355 44.5582 62.5355C44.7289 62.5355 44.8995 62.5355 45.0702 62.5355C45.2769 62.5355 45.4764 62.3542 45.4668 62.1418C45.4571 61.927 45.2937 61.748 45.0702 61.748Z" fill="#FFD62B" stroke="#FFD62B" stroke-width="2.00633"/>
<path d="M52.8165 61.748C52.3478 61.748 51.8792 61.748 51.4105 61.748C50.663 61.748 49.9179 61.748 49.1704 61.748C48.9998 61.748 48.8292 61.748 48.6585 61.748C48.4518 61.748 48.2523 61.9294 48.2619 62.1418C48.2715 62.3542 48.4374 62.5355 48.6585 62.5355C49.1272 62.5355 49.5959 62.5355 50.0645 62.5355C50.812 62.5355 51.5571 62.5355 52.3046 62.5355C52.4752 62.5355 52.6459 62.5355 52.8165 62.5355C53.0232 62.5355 53.2227 62.3542 53.2131 62.1418C53.2035 61.927 53.0376 61.748 52.8165 61.748Z" fill="#FFD62B" stroke="#FFD62B" stroke-width="2.00633"/>
<path d="M60.9143 61.748C60.4456 61.748 59.9769 61.748 59.5083 61.748C58.7608 61.748 58.0157 61.748 57.2682 61.748C57.0976 61.748 56.9269 61.748 56.7563 61.748C56.5496 61.748 56.3501 61.9294 56.3597 62.1418C56.3693 62.3542 56.5328 62.5355 56.7563 62.5355C57.225 62.5355 57.6936 62.5355 58.1623 62.5355C58.9098 62.5355 59.6549 62.5355 60.4024 62.5355C60.573 62.5355 60.7437 62.5355 60.9143 62.5355C61.121 62.5355 61.3205 62.3542 61.3109 62.1418C61.3013 61.927 61.1354 61.748 60.9143 61.748Z" fill="#FFD62B" stroke="#FFD62B" stroke-width="2.00633"/>
<path d="M30.2411 90.764C29.9695 90.0911 29.8061 89.6425 29.7556 89.4182C29.6643 89.0508 29.6186 88.5521 29.6258 87.9198C29.6306 87.2254 29.6474 86.6575 29.6763 86.2137C29.7051 85.7699 29.7436 85.4526 29.7964 85.2569C29.8998 85.1495 29.9503 85.0279 29.9503 84.8895C29.9503 84.4862 29.6018 84.1426 28.9024 83.8563C28.3471 83.6272 27.8472 83.5127 27.4002 83.5127C26.2153 83.5127 25.1938 83.9517 24.3381 84.8274C23.4825 85.7031 23.0547 86.7601 23.0547 87.9937C23.0547 89.2989 23.3143 90.2677 23.8334 90.9C24.3838 91.5729 25.2587 91.9093 26.4604 91.9093C26.7128 91.9093 27.0252 91.8425 27.4002 91.7065C27.7751 91.5705 28.2077 91.3724 28.7029 91.1052C28.8158 91.2674 28.9889 91.4535 29.2196 91.6635C29.4768 91.8878 29.6546 92 29.7508 92C29.9407 92 30.1065 91.9332 30.2507 91.8019C30.3949 91.6683 30.467 91.5013 30.467 91.2985L30.4214 91.1696C30.3348 90.9907 30.2771 90.8546 30.2411 90.764ZM27.6141 90.3058C27.2704 90.4848 26.8522 90.5731 26.3595 90.5731C25.7634 90.5731 25.3164 90.3631 25.0183 89.9456C24.7203 89.528 24.5713 88.9004 24.5713 88.0653C24.5713 87.2254 24.8597 86.481 25.4365 85.8367C26.0134 85.1925 26.7008 84.8704 27.4963 84.8704C27.578 84.8704 27.6886 84.8942 27.8232 84.9396C27.9602 84.9849 28.1212 85.0565 28.3111 85.1543C28.2534 85.4454 28.2126 85.7198 28.1837 85.9751C28.1549 86.2328 28.1404 86.4714 28.1404 86.6909C28.1404 87.3638 28.2222 88.3755 28.388 89.726C28.0587 90.0147 27.7992 90.208 27.6141 90.3058Z" fill="#FFD62B" stroke="#FFD62B" stroke-width="2.00633"/>
<path d="M64.8774 73.3886C64.5626 73.3886 64.2261 73.4554 63.868 73.589C63.5099 73.7226 63.1325 73.9231 62.7359 74.1903L62.7504 72.4604L62.772 70.9739C62.772 70.9094 62.784 70.8188 62.8056 70.6947C62.8273 70.573 62.8393 70.48 62.8393 70.4155C62.8393 70.0218 62.6686 69.8262 62.3273 69.8262C62.063 69.8262 61.8563 69.9646 61.7048 70.2413C61.5919 70.4585 61.5342 70.7019 61.5342 70.9739C61.5342 71.3079 61.5318 71.9355 61.527 72.8565C61.5222 73.7775 61.5198 74.4027 61.5198 74.7343C61.5198 75.2139 61.5318 75.9321 61.5582 76.889C61.5823 77.8458 61.5967 78.564 61.5967 79.0436C61.5967 79.1605 61.5919 79.3347 61.5799 79.5661C61.5678 79.7976 61.563 79.9718 61.563 80.0887C61.563 80.27 61.6231 80.4203 61.7433 80.5396C61.8635 80.659 62.0101 80.7186 62.1831 80.7186C62.3922 80.7186 62.5701 80.6088 62.7167 80.3917C63.2863 80.6637 63.9208 80.7997 64.6179 80.7997C65.6153 80.7997 66.4493 80.4394 67.1199 79.7212C67.7904 79.0006 68.1245 78.1273 68.1245 77.0942C68.1245 76.0705 67.8385 75.2092 67.2641 74.5077C66.6512 73.7608 65.8556 73.3886 64.8774 73.3886ZM66.245 78.8169C65.822 79.2774 65.2788 79.5089 64.6179 79.5089C64.267 79.5089 63.9497 79.4659 63.6685 79.38C63.2719 79.2273 62.9643 79.0985 62.7455 79.0006L62.7383 77.8863L62.7311 76.8269L62.7455 75.653C63.2094 75.3094 63.5387 75.0851 63.731 74.9801C64.1227 74.7725 64.5049 74.6675 64.8798 74.6675C65.5047 74.6675 66.0023 74.9109 66.37 75.4C66.7113 75.8534 66.8819 76.4165 66.8819 77.0894C66.8795 77.7813 66.668 78.3564 66.245 78.8169Z" fill="#FFD62B" stroke="#FFD62B" stroke-width="2.00633"/>
<path d="M75.9528 42.1363C75.8134 41.986 75.6475 41.9097 75.4553 41.9097C75.388 41.9097 75.2774 41.9502 75.1212 42.0337L74.2199 42.511C73.869 42.6756 73.5373 42.7567 73.2272 42.7567C72.5447 42.7567 71.9846 42.5754 71.552 42.2103C71.0857 41.819 70.8526 41.2869 70.8526 40.6069C70.8526 39.9793 71.0881 39.2373 71.5592 38.3807C72.076 37.4453 72.5999 36.9776 73.1263 36.9776C73.8185 36.9776 74.3184 37.0993 74.6237 37.3403C74.727 37.4286 74.8352 37.5169 74.9457 37.6052C75.0563 37.6959 75.1885 37.7412 75.3375 37.7412C75.5298 37.7412 75.6884 37.6648 75.8182 37.5145C75.948 37.3642 76.0129 37.19 76.0129 36.9943C76.0129 36.5577 75.6163 36.1879 74.8256 35.8848C74.2007 35.6486 73.6334 35.5293 73.1263 35.5293C72.1529 35.5293 71.2804 36.1449 70.5041 37.3785C69.8047 38.488 69.4562 39.5642 69.4562 40.6069C69.4562 41.7021 69.8287 42.5825 70.5738 43.2506C71.2828 43.8877 72.1673 44.2051 73.2272 44.2051C73.6887 44.2051 74.268 44.05 74.965 43.7422C75.7605 43.3938 76.1595 43.0311 76.1595 42.6565C76.1619 42.4609 76.0922 42.2891 75.9528 42.1363Z" fill="#FFD62B" stroke="#FFD62B" stroke-width="2.00633"/>
<path d="M38.7204 13.4651C39.1146 13.4651 39.4943 13.4031 39.8572 13.2766C40.2202 13.1501 40.5735 12.964 40.91 12.7183C41.047 13.1382 41.2609 13.3482 41.5517 13.3482C41.7247 13.3482 41.8786 13.2885 42.0108 13.1668C42.1429 13.0451 42.2078 12.8924 42.2078 12.7063C42.2078 12.6634 42.203 12.6109 42.1934 12.5465C42.0468 11.7543 41.9747 10.5803 41.9747 9.02938C41.9747 8.34458 42.0035 7.65739 42.0588 6.97258C42.2463 4.7583 42.34 3.32666 42.34 2.67765C42.34 2.22429 42.1261 2 41.6983 2C41.333 2 41.1191 2.20759 41.0566 2.62277C40.9676 3.3028 40.8907 4.62468 40.8234 6.58842L40.1601 6.10644C39.8644 5.93941 39.4438 5.85351 38.8982 5.85351C37.8359 5.85351 36.9731 6.22813 36.3097 6.97974C35.6439 7.73136 35.3123 8.72873 35.3123 9.97427C35.3123 11.0051 35.6415 11.8497 36.2977 12.5059C36.9418 13.143 37.747 13.4651 38.7204 13.4651ZM37.1557 7.84589C37.5499 7.38299 38.1411 7.14915 38.9319 7.14915C39.3453 7.14915 39.701 7.2446 39.9966 7.4331C40.2923 7.6216 40.5302 7.90554 40.7081 8.28254L40.6936 9.10812L40.6864 9.91939L40.7081 11.1291C40.6432 11.2126 40.5735 11.2866 40.5038 11.3463C40.1408 11.6493 39.8813 11.8426 39.7226 11.9261C39.451 12.0716 39.117 12.1432 38.7228 12.1432C38.146 12.1432 37.6412 11.9261 37.211 11.4918C36.7808 11.0575 36.5669 10.5398 36.5669 9.93848C36.5645 9.00791 36.7616 8.30879 37.1557 7.84589Z" fill="#FFD62B" stroke="#FFD62B" stroke-width="2.00633"/>
</svg>
