<svg width="47" height="46" viewBox="0 0 47 46" fill="none" xmlns="http://www.w3.org/2000/svg">
<g clip-path="url(#clip0)">
<path d="M23.1332 45.9895C35.9094 45.9895 46.2665 35.6944 46.2665 22.9948C46.2665 10.2951 35.9094 0 23.1332 0C10.3571 0 0 10.2951 0 22.9948C0 35.6944 10.3571 45.9895 23.1332 45.9895Z" fill="#E8354D"/>
<path d="M8.8479 20.3535C8.8479 21.3382 9.65142 22.1415 10.6467 22.1415H11.2174C12.2081 22.1415 13.0162 21.3428 13.0162 20.3535C13.0162 19.3687 12.2127 18.5654 11.2174 18.5654H10.6467C9.65142 18.57 8.8479 19.3687 8.8479 20.3535Z" fill="#701A25"/>
<path d="M9.07156 16.4191C8.74285 17.0136 8.77937 17.6626 9.14918 17.8668L13.1759 20.0723C13.5503 20.2766 14.121 19.9589 14.4497 19.3689C14.7784 18.7744 14.7419 18.1255 14.3721 17.9213L10.3453 15.7157C9.97096 15.5115 9.40028 15.8246 9.07156 16.4191Z" fill="#701A25"/>
<path d="M36.8844 16.4191C37.2131 17.0136 37.1766 17.6626 36.8068 17.8668L32.78 20.0723C32.4057 20.2766 31.835 19.9589 31.5063 19.3689C31.1775 18.7744 31.2141 18.1255 31.5839 17.9213L35.6106 15.7157C35.985 15.5115 36.5557 15.8246 36.8844 16.4191Z" fill="#701A25"/>
<path d="M33.2595 20.3535C33.2595 21.3382 34.063 22.1415 35.0583 22.1415H35.629C36.6197 22.1415 37.4278 21.3428 37.4278 20.3535C37.4278 19.3687 36.6243 18.5654 35.629 18.5654H35.0583C34.063 18.57 33.2595 19.3687 33.2595 20.3535Z" fill="#701A25"/>
<path d="M29.9951 31.8804C29.5477 31.8804 29.1185 31.6172 28.9404 31.177C28.8811 31.0408 27.3882 27.669 23.1606 27.669C19.4808 27.6735 17.3076 31.2813 17.2848 31.3176C16.9652 31.8577 16.2667 32.0392 15.7234 31.7261C15.1801 31.4129 14.9929 30.7186 15.308 30.1786C15.4221 29.9834 18.1431 25.409 23.1423 25.3999C28.945 25.3999 30.963 30.115 31.0497 30.3147C31.2917 30.8956 31.0132 31.5582 30.4288 31.7941C30.2873 31.8486 30.1412 31.8804 29.9951 31.8804Z" fill="#701A25"/>
</g>
<defs>
<clipPath id="clip0">
<rect width="46.2665" height="45.9895" fill="white"/>
</clipPath>
</defs>
</svg>
