<svg width="76" height="80" viewBox="0 0 76 80" fill="none" xmlns="http://www.w3.org/2000/svg">
<path d="M73.1605 76.5032L7.62939e-06 80L1.43318e-05 3.33336L75.4688 3.33334L73.1605 76.5032Z" fill="#977FB8"/>
<path d="M15.2346 70.7368C16.3897 67.841 17.7148 65.0145 18.9878 62.1706C19.6137 60.7698 20.2801 59.3787 20.8557 57.9568C21.0914 57.3738 21.2865 56.6965 21.8254 56.3136C22.1248 56.1 22.4957 56.0596 22.853 56.0596C23.2452 56.0596 23.6392 56.075 24.0313 56.0923C27.2495 56.2385 30.4405 56.7927 33.6664 56.8273C35.2677 56.8446 36.8459 56.6888 38.4279 56.4463C40.0176 56.2039 41.6016 55.9365 43.2049 55.7902C46.4249 55.4958 49.6913 55.5343 52.9075 55.8653C53.3055 55.9057 53.7034 55.9499 54.1013 55.998C54.2713 56.0173 54.4123 56.1269 54.4142 56.3097C54.4161 56.4579 54.2867 56.6157 54.1322 56.6214C56.3246 60.3119 58.5074 64.0293 60.269 67.9488C60.6322 68.7588 61.0301 69.5669 61.316 70.4097C61.428 70.7426 61.4126 71.1082 61.0745 71.3044C60.8041 71.4622 60.4564 71.4353 60.157 71.4064C59.875 71.3795 59.5949 71.3275 59.3129 71.366C58.7566 71.441 58.2002 71.5276 57.6439 71.6104C56.541 71.772 55.4399 71.9355 54.3408 72.1222C49.9907 72.861 45.6697 73.7731 41.2732 74.2214C36.8633 74.6716 32.3838 74.5485 27.9719 74.1598C26.8651 74.0617 25.7602 73.9405 24.6572 73.7981C23.6489 73.6692 22.6367 73.548 21.6361 73.3632C19.8648 73.0381 18.0838 72.559 16.4631 71.7604C16.1 71.5815 15.7465 71.3814 15.4065 71.162C15.281 71.0793 15.1728 70.8946 15.2346 70.7368Z" fill="#B6998E"/>
<path d="M44.7791 14.8262C44.7791 14.8281 44.7791 14.8281 44.7772 14.83C44.7752 14.8337 44.7753 14.8356 44.7733 14.8394C44.7733 14.8413 44.7714 14.8432 44.7714 14.8451C44.7676 14.8527 44.7638 14.8584 44.76 14.8659C44.76 14.8659 44.7638 14.8546 44.7791 14.8262Z" fill="black"/>
<path d="M31.8913 13.9722C31.8933 13.9703 31.8933 13.9703 31.8952 13.9684C31.899 13.9665 31.9029 13.9626 31.9048 13.9607C31.9086 13.9569 31.9144 13.955 31.9182 13.9512C31.8741 13.9913 31.8779 13.9837 31.8913 13.9722Z" fill="black"/>
<path d="M32.7853 15.7874C32.7814 15.7855 32.7756 15.7835 32.7718 15.7816C32.7679 15.7797 32.7641 15.7778 32.7602 15.7759C32.818 15.797 32.8026 15.7951 32.7853 15.7874Z" fill="black"/>
<path d="M31.5062 14.8491C31.5024 14.8434 31.5004 14.8357 31.4966 14.8299C31.4966 14.828 31.4947 14.8242 31.4947 14.8223C31.5255 14.874 31.5178 14.8702 31.5062 14.8491Z" fill="black"/>
<path d="M43.5193 15.7759C43.5154 15.7778 43.5135 15.7778 43.5097 15.7797C43.5077 15.7797 43.5058 15.7816 43.5058 15.7816C43.4846 15.7912 43.45 15.8008 43.5193 15.7759Z" fill="black"/>
<path d="M15.1456 69.9729C15.2036 69.8459 15.2654 69.7189 15.3253 69.5938C15.6073 68.9954 15.8912 68.397 16.1733 67.7986C17.2415 65.5397 18.3097 63.2808 19.3779 61.0218C20.7976 58.0221 22.2155 55.0224 23.6352 52.0227C25.0492 49.0307 26.4651 46.0387 27.879 43.0486C28.9086 40.8724 29.9363 38.6982 30.9658 36.522C31.2266 35.9717 31.4854 35.4214 31.7462 34.8711C31.8737 34.5998 31.9355 34.3766 31.9355 34.0706C31.9413 31.6116 31.9471 29.1507 31.9529 26.6916C31.9606 23.6304 31.9664 20.5672 31.9741 17.5059C31.9761 17.0402 31.9761 16.5727 31.978 16.107C31.8756 16.0512 31.7771 15.9897 31.6825 15.9242C31.3869 15.7241 31.0914 15.4701 30.9426 15.1392C30.8692 14.9776 30.8248 14.814 30.8229 14.6351C30.8287 13.8462 31.611 13.3286 32.2484 13.0265C33.3282 12.5147 34.5278 12.2819 35.708 12.1376C37.1567 11.9586 38.6325 11.9452 40.0851 12.0837C41.2943 12.1991 42.5325 12.4031 43.6625 12.8649C44.0933 13.04 44.5047 13.2478 44.864 13.5441C45.1209 13.7558 45.3547 14.0444 45.4281 14.3753C45.6038 15.1604 44.9374 15.7511 44.3174 16.0974C44.3077 16.1032 44.298 16.107 44.2903 16.1128C44.2845 16.2379 44.2807 16.3629 44.2768 16.4861C44.2613 16.9652 44.2517 17.4443 44.2401 17.9253C44.2053 19.4492 44.1764 20.9731 44.1474 22.499C44.0817 25.922 44.0218 29.345 43.9639 32.768C43.9542 33.2952 43.9465 33.8224 43.9368 34.3516C43.931 34.644 43.8808 34.9923 44.0044 35.2636C44.1628 35.6119 44.3521 35.9486 44.526 36.2892C45.4918 38.1902 46.4557 40.0893 47.4215 41.9903C48.8645 44.8342 50.3093 47.6761 51.7542 50.52C53.2918 53.5466 54.8275 56.5733 56.365 59.598C57.5801 61.9916 58.7951 64.3833 60.0101 66.7769C60.5142 67.7697 61.0435 68.7568 61.5264 69.7612C61.7486 70.223 61.7234 70.754 61.4105 71.1697C61.1459 71.5179 60.7808 71.6372 60.3713 71.72C59.8517 71.8239 59.3321 71.9258 58.8124 72.024C57.3618 72.2991 55.9072 72.5512 54.4489 72.7859C50.3499 73.4459 46.2258 73.9616 42.0863 74.2867C37.4117 74.6542 32.6985 74.7928 28.0162 74.4484C25.7832 74.2829 23.5541 74.0077 21.3617 73.5459C20.3495 73.3324 19.345 73.0784 18.358 72.7705C17.8905 72.6243 17.4288 72.4665 16.971 72.2953C16.5132 72.124 15.955 71.9682 15.5532 71.6853C14.9795 71.2832 14.8675 70.5751 15.1456 69.9729ZM43.5022 13.4806C43.5003 13.4787 43.5003 13.4787 43.5022 13.4806C43.4694 13.4671 43.4848 13.4729 43.5022 13.4806ZM43.5138 13.4845C43.5196 13.4864 43.5235 13.4883 43.5254 13.4883C43.5196 13.4883 43.5177 13.4864 43.5138 13.4845ZM44.3212 15.3393C44.3367 15.3278 44.3521 15.3162 44.3676 15.3047C44.3695 15.3047 44.3695 15.3028 44.3715 15.3028C44.4371 15.2489 44.5009 15.195 44.5608 15.1334C44.5878 15.1065 44.6129 15.0796 44.6361 15.0507C44.6457 15.0411 44.6535 15.0295 44.6631 15.0199C44.6979 14.9699 44.7307 14.9179 44.7597 14.8641C44.7616 14.8641 44.7674 14.8506 44.7732 14.8371C44.779 14.8256 44.7829 14.814 44.7887 14.8044C44.7848 14.8121 44.7829 14.8179 44.779 14.8236C44.7887 14.7948 44.7983 14.7659 44.8061 14.7351C44.808 14.7236 44.8119 14.712 44.8138 14.6986C44.8157 14.6736 44.8177 14.6505 44.8177 14.6255C44.8177 14.5947 44.8138 14.5658 44.8119 14.535C44.8196 14.6505 44.8157 14.562 44.8041 14.5158C44.7964 14.4869 44.7868 14.46 44.779 14.433C44.7752 14.4234 44.7694 14.4119 44.7655 14.4023C44.7365 14.3426 44.6998 14.2907 44.6612 14.2368C44.6515 14.2252 44.6399 14.2118 44.6303 14.2002C44.6032 14.1714 44.5762 14.1425 44.5492 14.1136C44.4912 14.0578 44.4313 14.0059 44.3695 13.9559C44.3502 13.9424 44.3309 13.927 44.3116 13.9135C44.2749 13.8866 44.2362 13.8616 44.1995 13.8385C44.1145 13.7827 44.0257 13.7327 43.9349 13.6846C43.8422 13.6345 43.7495 13.5884 43.6529 13.546C43.6046 13.5249 43.5563 13.5037 43.508 13.4825C43.4983 13.4787 43.4906 13.4748 43.481 13.471C43.4481 13.4575 43.4153 13.444 43.3824 13.4325C43.1468 13.3401 42.9073 13.2613 42.6658 13.192C42.0979 13.0265 41.5184 12.9091 40.935 12.8206C40.8578 12.8091 40.7786 12.7975 40.6994 12.7879C40.7805 12.7975 40.653 12.7822 40.6376 12.7802C40.5893 12.7745 40.5391 12.7687 40.4908 12.7629C40.3266 12.7437 40.1624 12.7264 39.9982 12.711C39.6466 12.6782 39.2951 12.6571 38.9416 12.6436C38.2134 12.6167 37.4832 12.6263 36.7569 12.6744C36.415 12.6975 36.0731 12.7283 35.7331 12.7706C35.6984 12.7745 35.6617 12.7802 35.6269 12.7841C35.6056 12.786 35.5825 12.7898 35.5612 12.7918C35.5593 12.7918 35.5573 12.7918 35.5535 12.7937C35.4762 12.8052 35.397 12.8149 35.3198 12.8283C35.1594 12.8533 34.9991 12.8803 34.8407 12.9091C34.2883 13.0111 33.7397 13.142 33.2085 13.3228C33.0926 13.3632 32.9767 13.4056 32.8608 13.4498C32.8337 13.4614 32.8067 13.471 32.7816 13.4825C32.7777 13.4845 32.7758 13.4845 32.7719 13.4864C32.768 13.4883 32.7661 13.4883 32.7603 13.4902C32.7062 13.5133 32.6541 13.5364 32.6019 13.5614C32.4184 13.6461 32.2388 13.7423 32.0688 13.852C32.0302 13.877 31.9935 13.902 31.9568 13.927C31.9452 13.9366 31.9316 13.9443 31.92 13.9539C31.9239 13.952 31.9258 13.9501 31.9278 13.9462C31.9201 13.952 31.9123 13.9578 31.9046 13.9636L31.9027 13.9655C31.8988 13.9693 31.8949 13.9713 31.8911 13.9751C31.8293 14.0251 31.7713 14.0771 31.7153 14.131C31.6883 14.1579 31.6631 14.1848 31.64 14.2137C31.6303 14.2252 31.6206 14.2368 31.611 14.2483C31.611 14.2503 31.6091 14.2503 31.6091 14.2522C31.5704 14.3061 31.5357 14.3638 31.5067 14.4234C31.5067 14.4254 31.5047 14.4273 31.5028 14.4311C31.5009 14.4369 31.499 14.4407 31.497 14.4446C31.4874 14.4735 31.4777 14.5023 31.47 14.5331C31.468 14.5446 31.4642 14.5562 31.4623 14.5677C31.4603 14.5908 31.4584 14.6139 31.4584 14.637C31.4584 14.6601 31.4603 14.6813 31.4623 14.7043C31.4661 14.7197 31.468 14.7351 31.4719 14.7505C31.4777 14.7755 31.4854 14.8006 31.4951 14.8256C31.4932 14.8217 31.4893 14.8159 31.4874 14.8102C31.4912 14.8179 31.4951 14.8236 31.499 14.8313C31.5009 14.839 31.5047 14.8448 31.5086 14.8506C31.5086 14.8525 31.5105 14.8544 31.5105 14.8564C31.5395 14.916 31.5762 14.9699 31.6148 15.0257C31.6245 15.0372 31.6342 15.0488 31.6438 15.0603C31.6689 15.0892 31.6979 15.118 31.725 15.1469C31.7829 15.2046 31.8447 15.2566 31.9085 15.3085C31.9239 15.3201 31.9394 15.3316 31.9548 15.3432C31.9954 15.372 32.0379 15.4009 32.0804 15.4278C32.2542 15.5394 32.4377 15.6356 32.6251 15.7222C32.6695 15.7434 32.714 15.7626 32.7584 15.7819C32.7565 15.7819 32.7545 15.7799 32.7526 15.7799C32.7584 15.7819 32.7642 15.7857 32.7719 15.7876C32.7738 15.7876 32.7758 15.7896 32.7777 15.7896C32.7796 15.7915 32.7835 15.7915 32.7854 15.7934C32.7874 15.7934 32.7874 15.7934 32.7874 15.7953C32.8163 15.8069 32.8472 15.8203 32.8762 15.8319C32.994 15.8781 33.1138 15.9223 33.2355 15.9627C33.4886 16.0474 33.7435 16.1224 34.0024 16.1859C34.2902 16.259 34.5819 16.3206 34.8755 16.3726C35.0319 16.4014 35.1865 16.4264 35.3429 16.4495C35.4202 16.4611 35.4994 16.4726 35.5786 16.4822C35.5091 16.4745 35.6018 16.4842 35.6269 16.488C35.6752 16.4938 35.7254 16.4996 35.7737 16.5053C37.1819 16.6727 38.6151 16.6862 40.0272 16.5554C40.1952 16.54 40.3633 16.5226 40.5313 16.5015C40.5719 16.4957 40.6125 16.4919 40.6511 16.4861C40.6762 16.4822 40.7689 16.4707 40.6994 16.4803C40.7863 16.4688 40.8732 16.4553 40.9602 16.4438C41.2654 16.3976 41.5706 16.3418 41.8738 16.2764C42.3954 16.1628 42.9131 16.0204 43.4095 15.8242C43.4365 15.8126 43.4636 15.803 43.4906 15.7915C43.4964 15.7896 43.5022 15.7876 43.5061 15.7838C43.508 15.7838 43.508 15.7838 43.5099 15.7819C43.5099 15.7819 43.5099 15.7819 43.5119 15.7819C43.5157 15.7799 43.5215 15.778 43.5254 15.7761C43.5235 15.7761 43.5215 15.778 43.5215 15.778C43.5717 15.7568 43.62 15.7338 43.6703 15.7126C43.7668 15.6683 43.8634 15.6202 43.9581 15.5683C44.045 15.5202 44.13 15.4701 44.2131 15.4163C44.2478 15.3913 44.2845 15.3662 44.3212 15.3393ZM16.0632 71.2466C16.9247 71.6565 17.8577 71.9566 18.7694 72.2318C19.7642 72.5319 20.7744 72.7801 21.7924 72.9879C26.2642 73.8981 30.875 74.077 35.4279 73.9866C39.9422 73.8981 44.4487 73.5094 48.9263 72.9418C52.2391 72.5223 55.5402 71.999 58.8202 71.3736C59.3147 71.2793 59.8072 71.1831 60.2998 71.0831C60.7113 71.0003 61.0957 70.7579 61.0242 70.273C61.0126 70.1884 60.9778 70.1152 60.9431 70.0383C60.7711 69.6708 60.576 69.3148 60.3925 68.9531C59.419 67.0366 58.4474 65.1221 57.4738 63.2057C56.0328 60.3696 54.5937 57.5353 53.1527 54.6992C51.6248 51.6898 50.0969 48.6824 48.5689 45.6731C47.3616 43.2949 46.1544 40.9186 44.9471 38.5404C44.4429 37.5475 43.9137 36.5624 43.4327 35.5561C43.2202 35.1135 43.2859 34.6036 43.2936 34.1264C43.3032 33.5665 43.3129 33.0066 43.3226 32.4486C43.3496 30.8246 43.3786 29.2007 43.4076 27.5767C43.4655 24.2769 43.5235 20.9789 43.6007 17.679C43.6104 17.2577 43.62 16.8344 43.6336 16.413C43.394 16.5092 43.1487 16.59 42.9034 16.665C42.322 16.8401 41.7251 16.9613 41.1244 17.0537C39.666 17.275 38.1805 17.3269 36.7086 17.2269C35.4395 17.1403 34.1472 16.9556 32.9438 16.5303C32.8318 16.4899 32.7198 16.4495 32.6096 16.4053C32.6058 18.1774 32.6019 19.9476 32.5981 21.7197C32.5903 24.9368 32.5826 28.154 32.5749 31.3711C32.5729 32.2774 32.571 33.1817 32.5691 34.088C32.5691 34.3766 32.5517 34.6344 32.4281 34.9096C32.3894 34.9961 32.3469 35.0789 32.3083 35.1635C31.6264 36.6047 30.9465 38.044 30.2646 39.4851C29.011 42.1346 27.7574 44.7842 26.5056 47.4356C25.055 50.5027 23.6043 53.5697 22.1536 56.6387C20.8536 59.3882 19.5536 62.1378 18.2536 64.8874C17.4791 66.5248 16.7045 68.1642 15.9299 69.8016C15.6942 70.2942 15.3407 70.9022 16.0632 71.2466Z" fill="#FFD62B" stroke="#FFD62B" stroke-width="1.7834"/>
<mask id="path-9-inside-1" fill="white">
<path d="M43.7164 55.9586C43.6816 55.8085 43.7627 55.593 43.9385 55.568C44.6861 55.4641 45.4317 55.3602 46.1792 55.2563C46.2855 55.2409 46.3936 55.2274 46.4999 55.212C46.5404 55.2063 46.5791 55.2024 46.6158 55.2044C46.3125 54.3193 46.0112 53.4342 45.7079 52.551C44.9642 52.6549 44.2205 52.7569 43.4749 52.8608C43.3687 52.8762 43.2605 52.8896 43.1543 52.905C43.0654 52.9166 42.9901 52.9204 42.9089 52.8723C42.8433 52.8338 42.7795 52.7588 42.7621 52.6818C42.7274 52.5317 42.8085 52.3162 42.9843 52.2912C43.7318 52.1873 44.4774 52.0834 45.225 51.9795C45.3158 51.9661 45.4085 51.9545 45.4993 51.941C45.1883 51.0329 44.8754 50.1247 44.5644 49.2165C44.5315 49.2453 44.491 49.2665 44.4427 49.2723C43.6951 49.3762 42.9495 49.4801 42.202 49.584C42.0957 49.5994 41.9875 49.6128 41.8813 49.6282C41.7924 49.6398 41.7171 49.6436 41.636 49.5955C41.5703 49.557 41.5066 49.482 41.4892 49.405C41.4544 49.255 41.5355 49.0395 41.7113 49.0144C42.4589 48.9105 43.2045 48.8066 43.952 48.7027C44.0583 48.6873 44.1664 48.6739 44.2727 48.6585C44.3075 48.6546 44.3384 48.6508 44.3693 48.6508C44.3017 48.4526 44.234 48.2544 44.1664 48.0582C43.9173 47.3328 43.6661 46.6093 43.417 45.8839C43.4054 45.8877 43.3957 45.8897 43.3822 45.8916C42.6346 45.9955 41.889 46.0994 41.1415 46.2033C41.0352 46.2187 40.9271 46.2322 40.8208 46.2476C40.732 46.2591 40.6566 46.2629 40.5755 46.2148C40.5098 46.1764 40.4461 46.1013 40.4287 46.0244C40.3939 45.8743 40.4751 45.6588 40.6508 45.6338C41.3984 45.5299 42.144 45.426 42.8916 45.3221C42.9959 45.3067 43.1021 45.2932 43.2064 45.2778C43.0886 44.9353 42.9708 44.5928 42.851 44.2503C42.7235 43.8847 42.5979 43.5191 42.4705 43.1536C41.7442 43.2536 41.0179 43.3556 40.2916 43.4557C40.1853 43.471 40.0771 43.4845 39.9709 43.4999C39.882 43.5114 39.8067 43.5153 39.7256 43.4672C39.6599 43.4287 39.5962 43.3537 39.5788 43.2767C39.544 43.1266 39.6251 42.9111 39.8009 42.8861C40.5485 42.7822 41.2941 42.6783 42.0416 42.5744C42.115 42.5648 42.1865 42.5552 42.258 42.5436C42.0803 42.0356 41.9045 41.5277 41.7248 41.0178C41.6823 40.8946 41.6379 40.7715 41.5954 40.6484C40.9483 40.7388 40.3012 40.8273 39.6541 40.9177C39.5479 40.9331 39.4397 40.9466 39.3335 40.962C39.2446 40.9735 39.1693 40.9774 39.0881 40.9293C39.0225 40.8908 38.9587 40.8158 38.9413 40.7388C38.9066 40.5887 38.9877 40.3732 39.1635 40.3482C39.9033 40.2462 40.6412 40.1423 41.381 40.0403C41.2187 39.5824 41.0565 39.1244 40.8923 38.6684C40.8034 38.4202 40.7127 38.1739 40.6199 37.9276C40.589 37.8468 40.5581 37.766 40.5253 37.6852C40.5156 37.6602 40.506 37.6371 40.4963 37.6121C40.4944 37.6082 40.4924 37.6044 40.4924 37.6005C40.4886 37.5928 40.4847 37.5851 40.4809 37.5775C40.2896 37.3408 40.5774 36.9271 40.8962 37.108C41.0314 37.1849 41.0797 37.36 41.1338 37.4947C41.2072 37.6794 41.2767 37.8661 41.3462 38.0527C41.5973 38.7358 41.8407 39.4208 42.0822 40.1077C42.0899 40.1288 42.0976 40.15 42.1054 40.1712C42.1131 40.1866 42.117 40.202 42.1208 40.2154C42.4627 41.1871 42.8027 42.1607 43.1407 43.1343C43.5696 44.3696 43.9965 45.6049 44.4214 46.8402C44.8869 48.1928 45.3525 49.5474 45.8161 50.9001C46.2835 52.2624 46.7491 53.6227 47.2146 54.985C47.6492 56.2588 48.0858 57.5325 48.5204 58.8063C48.8874 59.8819 49.2544 60.9594 49.6214 62.035C49.8841 62.8066 50.1468 63.5781 50.4095 64.3497C50.5332 64.7153 50.6684 65.0809 50.7843 65.4503C50.7901 65.4657 50.7939 65.4811 50.7997 65.4965C50.8557 65.6581 50.736 65.8428 50.5776 65.8871C50.4037 65.9352 50.2415 65.8274 50.1855 65.6658C50.1603 65.5908 50.1352 65.5177 50.1101 65.4426C50.0715 65.4888 50.0213 65.5234 49.9575 65.5311C49.21 65.635 48.4644 65.7389 47.7168 65.8428C47.6106 65.8582 47.5024 65.8717 47.3962 65.8871C47.3073 65.8986 47.232 65.9025 47.1508 65.8544C47.0852 65.8159 47.0214 65.7409 47.004 65.6639C46.9693 65.5138 47.0504 65.2983 47.2262 65.2733C47.9737 65.1694 48.7193 65.0655 49.4669 64.9616C49.5731 64.9462 49.6813 64.9327 49.7875 64.9173C49.8378 64.9096 49.8841 64.9077 49.9305 64.9135C49.6987 64.2323 49.4669 63.5512 49.2351 62.8701C49.1288 62.5584 49.0226 62.2466 48.9164 61.9349C48.9106 61.9369 48.9028 61.9388 48.897 61.9388C48.1495 62.0427 47.4039 62.1466 46.6563 62.2505C46.5501 62.2659 46.4419 62.2794 46.3357 62.2947C46.2468 62.3063 46.1715 62.3101 46.0904 62.262C46.0247 62.2236 45.9609 62.1485 45.9436 62.0715C45.9088 61.9215 45.9899 61.706 46.1657 61.681C46.9132 61.577 47.6589 61.4731 48.4064 61.3692C48.5069 61.3558 48.6092 61.3404 48.7097 61.3269C48.5436 60.8363 48.3755 60.3456 48.2094 59.855C48.0645 59.4297 47.9177 59.0026 47.7728 58.5773C47.7361 58.6216 47.6859 58.6524 47.6241 58.662C46.8765 58.7659 46.1309 58.8698 45.3834 58.9737C45.2771 58.9891 45.169 59.0026 45.0627 59.018C44.9739 59.0295 44.8985 59.0334 44.8174 58.9853C44.7517 58.9468 44.688 58.8717 44.6706 58.7948C44.6358 58.6447 44.717 58.4292 44.8927 58.4042C45.6403 58.3003 46.3859 58.1964 47.1335 58.0925C47.2397 58.0771 47.3479 58.0636 47.4541 58.0482C47.5024 58.0424 47.5468 58.0386 47.5893 58.0424C47.3768 57.4209 47.1644 56.7995 46.9519 56.176C46.9017 56.0298 46.8514 55.8836 46.8012 55.7393C46.7664 55.7758 46.722 55.8008 46.6679 55.8085C45.9204 55.9124 45.1748 56.0163 44.4272 56.1202C44.321 56.1356 44.2128 56.1491 44.1066 56.1645C44.0177 56.176 43.9424 56.1799 43.8612 56.1318C43.7956 56.1106 43.7338 56.0336 43.7164 55.9586ZM40.4673 37.5582C40.4673 37.564 40.4731 37.5717 40.4789 37.5813C40.477 37.5775 40.4751 37.5736 40.4751 37.5717C40.4731 37.5678 40.4673 37.5621 40.4673 37.5582Z"/>
</mask>
<path d="M43.7164 55.9586C43.6816 55.8085 43.7627 55.593 43.9385 55.568C44.6861 55.4641 45.4317 55.3602 46.1792 55.2563C46.2855 55.2409 46.3936 55.2274 46.4999 55.212C46.5404 55.2063 46.5791 55.2024 46.6158 55.2044C46.3125 54.3193 46.0112 53.4342 45.7079 52.551C44.9642 52.6549 44.2205 52.7569 43.4749 52.8608C43.3687 52.8762 43.2605 52.8896 43.1543 52.905C43.0654 52.9166 42.9901 52.9204 42.9089 52.8723C42.8433 52.8338 42.7795 52.7588 42.7621 52.6818C42.7274 52.5317 42.8085 52.3162 42.9843 52.2912C43.7318 52.1873 44.4774 52.0834 45.225 51.9795C45.3158 51.9661 45.4085 51.9545 45.4993 51.941C45.1883 51.0329 44.8754 50.1247 44.5644 49.2165C44.5315 49.2453 44.491 49.2665 44.4427 49.2723C43.6951 49.3762 42.9495 49.4801 42.202 49.584C42.0957 49.5994 41.9875 49.6128 41.8813 49.6282C41.7924 49.6398 41.7171 49.6436 41.636 49.5955C41.5703 49.557 41.5066 49.482 41.4892 49.405C41.4544 49.255 41.5355 49.0395 41.7113 49.0144C42.4589 48.9105 43.2045 48.8066 43.952 48.7027C44.0583 48.6873 44.1664 48.6739 44.2727 48.6585C44.3075 48.6546 44.3384 48.6508 44.3693 48.6508C44.3017 48.4526 44.234 48.2544 44.1664 48.0582C43.9173 47.3328 43.6661 46.6093 43.417 45.8839C43.4054 45.8877 43.3957 45.8897 43.3822 45.8916C42.6346 45.9955 41.889 46.0994 41.1415 46.2033C41.0352 46.2187 40.9271 46.2322 40.8208 46.2476C40.732 46.2591 40.6566 46.2629 40.5755 46.2148C40.5098 46.1764 40.4461 46.1013 40.4287 46.0244C40.3939 45.8743 40.4751 45.6588 40.6508 45.6338C41.3984 45.5299 42.144 45.426 42.8916 45.3221C42.9959 45.3067 43.1021 45.2932 43.2064 45.2778C43.0886 44.9353 42.9708 44.5928 42.851 44.2503C42.7235 43.8847 42.5979 43.5191 42.4705 43.1536C41.7442 43.2536 41.0179 43.3556 40.2916 43.4557C40.1853 43.471 40.0771 43.4845 39.9709 43.4999C39.882 43.5114 39.8067 43.5153 39.7256 43.4672C39.6599 43.4287 39.5962 43.3537 39.5788 43.2767C39.544 43.1266 39.6251 42.9111 39.8009 42.8861C40.5485 42.7822 41.2941 42.6783 42.0416 42.5744C42.115 42.5648 42.1865 42.5552 42.258 42.5436C42.0803 42.0356 41.9045 41.5277 41.7248 41.0178C41.6823 40.8946 41.6379 40.7715 41.5954 40.6484C40.9483 40.7388 40.3012 40.8273 39.6541 40.9177C39.5479 40.9331 39.4397 40.9466 39.3335 40.962C39.2446 40.9735 39.1693 40.9774 39.0881 40.9293C39.0225 40.8908 38.9587 40.8158 38.9413 40.7388C38.9066 40.5887 38.9877 40.3732 39.1635 40.3482C39.9033 40.2462 40.6412 40.1423 41.381 40.0403C41.2187 39.5824 41.0565 39.1244 40.8923 38.6684C40.8034 38.4202 40.7127 38.1739 40.6199 37.9276C40.589 37.8468 40.5581 37.766 40.5253 37.6852C40.5156 37.6602 40.506 37.6371 40.4963 37.6121C40.4944 37.6082 40.4924 37.6044 40.4924 37.6005C40.4886 37.5928 40.4847 37.5851 40.4809 37.5775C40.2896 37.3408 40.5774 36.9271 40.8962 37.108C41.0314 37.1849 41.0797 37.36 41.1338 37.4947C41.2072 37.6794 41.2767 37.8661 41.3462 38.0527C41.5973 38.7358 41.8407 39.4208 42.0822 40.1077C42.0899 40.1288 42.0976 40.15 42.1054 40.1712C42.1131 40.1866 42.117 40.202 42.1208 40.2154C42.4627 41.1871 42.8027 42.1607 43.1407 43.1343C43.5696 44.3696 43.9965 45.6049 44.4214 46.8402C44.8869 48.1928 45.3525 49.5474 45.8161 50.9001C46.2835 52.2624 46.7491 53.6227 47.2146 54.985C47.6492 56.2588 48.0858 57.5325 48.5204 58.8063C48.8874 59.8819 49.2544 60.9594 49.6214 62.035C49.8841 62.8066 50.1468 63.5781 50.4095 64.3497C50.5332 64.7153 50.6684 65.0809 50.7843 65.4503C50.7901 65.4657 50.7939 65.4811 50.7997 65.4965C50.8557 65.6581 50.736 65.8428 50.5776 65.8871C50.4037 65.9352 50.2415 65.8274 50.1855 65.6658C50.1603 65.5908 50.1352 65.5177 50.1101 65.4426C50.0715 65.4888 50.0213 65.5234 49.9575 65.5311C49.21 65.635 48.4644 65.7389 47.7168 65.8428C47.6106 65.8582 47.5024 65.8717 47.3962 65.8871C47.3073 65.8986 47.232 65.9025 47.1508 65.8544C47.0852 65.8159 47.0214 65.7409 47.004 65.6639C46.9693 65.5138 47.0504 65.2983 47.2262 65.2733C47.9737 65.1694 48.7193 65.0655 49.4669 64.9616C49.5731 64.9462 49.6813 64.9327 49.7875 64.9173C49.8378 64.9096 49.8841 64.9077 49.9305 64.9135C49.6987 64.2323 49.4669 63.5512 49.2351 62.8701C49.1288 62.5584 49.0226 62.2466 48.9164 61.9349C48.9106 61.9369 48.9028 61.9388 48.897 61.9388C48.1495 62.0427 47.4039 62.1466 46.6563 62.2505C46.5501 62.2659 46.4419 62.2794 46.3357 62.2947C46.2468 62.3063 46.1715 62.3101 46.0904 62.262C46.0247 62.2236 45.9609 62.1485 45.9436 62.0715C45.9088 61.9215 45.9899 61.706 46.1657 61.681C46.9132 61.577 47.6589 61.4731 48.4064 61.3692C48.5069 61.3558 48.6092 61.3404 48.7097 61.3269C48.5436 60.8363 48.3755 60.3456 48.2094 59.855C48.0645 59.4297 47.9177 59.0026 47.7728 58.5773C47.7361 58.6216 47.6859 58.6524 47.6241 58.662C46.8765 58.7659 46.1309 58.8698 45.3834 58.9737C45.2771 58.9891 45.169 59.0026 45.0627 59.018C44.9739 59.0295 44.8985 59.0334 44.8174 58.9853C44.7517 58.9468 44.688 58.8717 44.6706 58.7948C44.6358 58.6447 44.717 58.4292 44.8927 58.4042C45.6403 58.3003 46.3859 58.1964 47.1335 58.0925C47.2397 58.0771 47.3479 58.0636 47.4541 58.0482C47.5024 58.0424 47.5468 58.0386 47.5893 58.0424C47.3768 57.4209 47.1644 56.7995 46.9519 56.176C46.9017 56.0298 46.8514 55.8836 46.8012 55.7393C46.7664 55.7758 46.722 55.8008 46.6679 55.8085C45.9204 55.9124 45.1748 56.0163 44.4272 56.1202C44.321 56.1356 44.2128 56.1491 44.1066 56.1645C44.0177 56.176 43.9424 56.1799 43.8612 56.1318C43.7956 56.1106 43.7338 56.0336 43.7164 55.9586ZM40.4673 37.5582C40.4673 37.564 40.4731 37.5717 40.4789 37.5813C40.477 37.5775 40.4751 37.5736 40.4751 37.5717C40.4731 37.5678 40.4673 37.5621 40.4673 37.5582Z" fill="#FFD62B" stroke="#FFD62B" stroke-width="3.56681" mask="url(#path-9-inside-1)"/>
<path d="M22.3022 68.8508C23.6795 68.5564 25.1147 68.6757 26.4958 68.8796C27.8905 69.0874 29.2677 69.4068 30.6643 69.605C32.0339 69.7994 33.4131 69.8378 34.771 69.5415C36.2081 69.226 37.6202 68.6853 39.1153 68.7969C40.5756 68.9066 41.978 69.4742 43.278 70.1149C43.4422 70.1957 43.6006 70.2785 43.759 70.3708C43.9289 70.4709 43.8169 70.771 43.6199 70.6979C42.9419 70.4459 42.3006 70.1091 41.6245 69.8532C40.9639 69.6031 40.2781 69.3914 39.575 69.3068C38.8603 69.2202 38.1437 69.2625 37.4386 69.3991C36.7258 69.5377 36.0285 69.7474 35.3235 69.9225C34.6261 70.0957 33.9211 70.2188 33.2044 70.2554C32.5206 70.2919 31.833 70.2573 31.1511 70.1861C29.7487 70.0379 28.3715 69.732 26.9826 69.4992C25.644 69.276 24.2764 69.1259 22.9223 69.2914C22.7619 69.3106 22.6016 69.3299 22.4413 69.3549C22.3022 69.376 22.1593 69.3183 22.1187 69.1721C22.0839 69.0413 22.1631 68.8816 22.3022 68.8508Z" fill="#977FB8"/>
<path d="M35.2367 66.8448C34.5413 67.1969 33.7841 67.3816 33.0057 67.397C32.2253 67.4105 31.4623 67.2527 30.7398 66.9602C30.3728 66.8121 30.0097 66.6466 29.6311 66.5254C29.436 66.4638 29.239 66.4157 29.0381 66.3772C28.9376 66.358 28.8372 66.3426 28.7348 66.3272C28.673 66.3176 28.5494 66.3041 28.4547 66.2945C27.6569 66.2137 26.8514 66.2137 26.0537 66.2926C25.8141 66.3157 25.6364 66.3387 25.4143 66.3734C25.1979 66.408 24.9835 66.4465 24.7691 66.4927C24.321 66.5889 23.8728 66.6774 23.4266 66.7794C23.3358 66.8005 23.2393 66.7601 23.2045 66.6697C23.1716 66.5908 23.1948 66.4734 23.2817 66.4349C23.6604 66.2656 24.0486 66.1117 24.4543 66.0193C24.856 65.927 25.2617 65.8577 25.6693 65.8058C26.467 65.7019 27.2764 65.6768 28.08 65.7307C28.4991 65.7596 28.9202 65.8058 29.3297 65.8962C29.7277 65.9828 30.1063 66.1252 30.481 66.2829C30.8461 66.4349 31.2092 66.5908 31.5917 66.6966C31.7694 66.7467 31.951 66.7851 32.1326 66.8159C32.177 66.8236 32.2233 66.8294 32.2678 66.8371C32.2716 66.8371 32.2755 66.839 32.2813 66.839C32.3083 66.8429 32.3373 66.8448 32.3644 66.8486C32.4571 66.8583 32.5479 66.8659 32.6406 66.8717C32.8531 66.8833 33.0655 66.8833 33.278 66.8698C33.3804 66.864 33.4809 66.8544 33.5813 66.8429C33.5755 66.8429 33.618 66.839 33.6315 66.8371C33.6354 66.8371 33.6412 66.8352 33.6489 66.8352C33.6817 66.8294 33.7127 66.8255 33.7455 66.8217C33.7339 66.8236 33.7049 66.8275 33.759 66.8198C33.7861 66.8159 33.815 66.8121 33.8421 66.8063C34.2612 66.739 34.6746 66.6254 35.0687 66.4677C35.1633 66.4292 35.2811 66.5023 35.3159 66.5889C35.3584 66.6755 35.3314 66.7967 35.2367 66.8448ZM32.2658 66.8332C32.2543 66.8313 32.2427 66.8294 32.2658 66.8332V66.8332Z" fill="#977FB8"/>
<path d="M47.416 8.62402C47.4083 8.65853 47.4025 8.66812 47.4006 8.66429C47.4064 8.65278 47.4102 8.63936 47.4141 8.62786C47.4141 8.62786 47.4141 8.62594 47.416 8.62402Z" fill="black"/>
<path d="M40.609 0.0408545C40.6109 0.0370565 40.6109 0.0275615 40.6128 0.0180664C40.6109 0.0275615 40.6109 0.0370565 40.609 0.0408545Z" fill="black"/>
<path d="M40.6128 0.000237065C40.6128 -0.00161418 40.6128 0.00764196 40.6109 0.0187495C40.6109 0.0131957 40.6109 0.00579072 40.6128 0.00393947C40.6128 0.00208822 40.6128 0.000237065 40.6128 0.000237065Z" fill="black"/>
<path d="M40.6084 0.0410156V0.0440412C40.6053 0.0440412 40.6053 0.0440415 40.6084 0.0410156C40.6053 0.0440415 40.6053 0.0440415 40.6084 0.0410156Z" fill="black"/>
<path d="M32.7063 6.53223C32.7214 6.54535 32.7233 6.56223 32.7195 6.56036C32.7158 6.55098 32.712 6.5416 32.7082 6.5341C32.7063 6.5341 32.7063 6.53223 32.7063 6.53223Z" fill="black"/>
<path d="M26.6794 9.52775C26.6585 9.51446 26.6394 9.48597 26.6794 9.52775V9.52775Z" fill="black"/>
<path d="M28.4288 10.7734C28.4495 10.7809 28.4872 10.8053 28.4288 10.7734V10.7734Z" fill="black"/>
<path d="M26.4865 9.3372C26.4752 9.31844 26.4827 9.31282 26.4978 9.3522L26.4959 9.35032C26.4922 9.34657 26.4903 9.34282 26.4865 9.3372Z" fill="black"/>
</svg>
