<svg width="139" height="10" viewBox="0 0 139 10" fill="none" xmlns="http://www.w3.org/2000/svg">
<g opacity="0.8">
<path d="M122.774 7.83058C122.216 7.89071 121.494 7.70173 121.228 8.34596C120.781 9.41107 119.854 9.19633 119.029 9.37671C118.101 9.58287 117.577 9.28223 117.174 8.44903C116.985 8.0625 116.538 8.09686 116.229 8.44903C115.044 9.81479 113.6 10.1154 111.9 9.56569C110.714 9.18774 109.512 8.94723 108.232 9.31659C107.725 9.46261 107.004 9.56569 106.557 9.11903C105.835 8.41467 105.217 8.54352 104.538 9.1362C103.989 9.61722 103.456 9.17915 102.906 9.09326C101.807 8.92146 100.69 8.32019 99.6337 9.40248C99.3073 9.73748 98.3796 9.76325 98.0102 9.29941C97.2372 8.32019 96.3696 8.8098 95.4505 8.75826C94.4541 8.70672 93.4062 9.03313 92.3325 8.44044C91.6281 8.04532 90.4685 7.82199 89.6267 8.48339C88.5616 9.31659 87.6597 9.07608 86.7664 8.27724C86.105 7.68455 85.4436 7.46981 84.7221 8.14839C83.9919 8.82698 83.322 8.60365 82.6348 8.07109C82.3256 7.83058 82.0077 7.60725 81.6727 7.40969C81.0543 7.02315 80.4616 6.94584 79.7744 7.37533C79.0099 7.84776 78.1768 7.9766 77.3178 7.45263C76.811 7.14341 76.2183 7.05751 75.6342 7.24648C74.4746 7.63302 73.3751 7.60725 72.2928 6.93725C72.0094 6.75687 71.4682 6.69674 71.202 6.85136C70.3945 7.32379 69.5012 7.57289 68.6938 7.22071C68.0324 6.92866 67.5599 6.2329 66.9501 5.67458C66.3488 6.17278 66.1427 6.99738 65.3524 7.23789C64.5622 7.4784 63.8664 7.20353 63.1019 7.04892C61.8822 6.80841 60.5937 6.87713 59.374 6.50777C59.2795 6.482 59.1507 6.43905 59.0906 6.47341C57.2266 7.65878 55.0878 6.29303 53.1895 7.09187C52.5882 7.34956 52.0986 7.13482 51.5746 6.77405C50.8531 6.27585 50.0457 6.44764 49.3585 6.85136C48.5768 7.3152 47.9412 8.25147 46.919 7.27225C46.8245 7.17776 46.5325 7.19494 46.3693 7.26366C44.2562 8.12263 42.1088 8.05391 39.9356 7.52994C39.6694 7.46981 39.2742 7.4784 39.0853 7.63302C37.9257 8.58647 36.852 8.6466 35.7267 7.5643C35.4175 7.26366 34.988 7.50417 34.6788 7.74468C33.9487 8.32878 33.0725 8.70672 32.2565 8.26865C31.2945 7.75327 30.4613 7.88212 29.5078 8.13122C28.6059 8.36314 27.6782 8.68954 26.7162 8.19993C26.3984 8.03673 25.9345 8.04532 25.5652 8.10545C21.7857 8.74967 18.0406 8.03673 14.3213 7.67596C10.5934 7.3152 6.81396 6.82559 3.42105 4.91869C2.84555 4.59228 2.15838 4.44626 1.50556 4.26587C1.04172 4.13703 0.380319 4.08549 0.483395 3.5014C0.577881 3.01179 1.24787 3.02038 1.72889 2.99461C2.60504 2.93448 3.48118 2.90012 4.35733 2.83999C13.1961 2.2559 22.0434 1.79206 30.8564 1.02758C37.6508 0.443482 44.4538 0.280279 51.2568 0.0225891C53.576 -0.0633074 55.921 0.108486 58.2402 0.323227C59.2108 0.417713 60.1728 0.426302 61.1435 0.443482C67.6544 0.555147 74.1654 0.598095 80.6677 0.804247C85.0313 0.941681 89.3948 1.31963 93.7498 1.57732C95.7855 1.69757 97.8299 1.78347 99.8656 1.90372C105.002 2.22154 110.139 2.65961 115.275 2.84858C120.532 3.03755 125.755 3.50999 130.969 4.05972C133.657 4.34318 136.38 4.46344 139 5.2365C138.914 5.4083 138.906 5.58868 138.983 5.76906C138.897 6.04393 138.828 6.32739 138.717 6.59367C138.459 7.18635 138.029 7.50417 137.351 7.3152C137.256 7.28943 137.17 7.25507 137.085 7.21212C136.303 6.85995 135.547 6.31021 134.731 6.18996C133.769 6.05252 133.589 7.32379 132.764 7.71032C131.948 8.08827 131.063 8.62941 130.333 8.18275C128.993 7.37533 127.842 8.87852 126.579 8.26865C126.451 8.20852 126.021 8.49198 125.909 8.70672C125.377 9.78902 124.664 9.25646 123.968 8.98159C123.96 8.43185 123.968 7.88212 123.925 7.34097C123.917 7.20353 123.771 7.00597 123.642 6.97161C123.521 6.93725 123.324 7.05751 123.221 7.16059C123.058 7.35815 122.92 7.60725 122.774 7.83058ZM105.964 7.10905C105.921 7.25507 105.861 7.39251 105.861 7.53853C105.861 7.59007 105.99 7.6502 106.059 7.71032C106.153 7.58148 106.239 7.44404 106.334 7.3152C106.205 7.24648 106.085 7.17776 105.964 7.10905Z" fill="#977FB8"/>
</g>
</svg>
