<svg width="61" height="46" viewBox="0 0 61 46" fill="none" xmlns="http://www.w3.org/2000/svg">
<path d="M60.9919 12.7127C60.9407 11.5815 60.673 10.9108 60.177 10.0456C60.0982 9.84315 59.8778 9.61692 59.7085 9.39863L59.4447 9.06921C59.3463 8.96205 59.2951 8.85092 59.1416 8.74376L58.3543 8.09286C58.2125 7.9857 58.1141 7.8706 57.937 7.77137L57.4409 7.46577C57.1063 7.26335 56.7835 7.05697 56.441 6.85456L55.3545 6.26716L54.8072 5.97346L54.2246 5.6996L53.0593 5.14792L51.8547 4.65181C51.4531 4.48115 51.0516 4.31842 50.6579 4.18348L49.4729 3.75484L49.3233 3.70324L49.2328 3.67546L49.0635 3.61989L48.721 3.50876C47.8077 3.2111 46.8944 2.95312 45.981 2.70705C44.1544 2.23078 42.3317 1.84182 40.5247 1.51637C36.9108 0.86944 33.2693 0.416984 29.612 0.159005C25.3564 -0.146601 21.1323 0.0518441 16.9042 0.226476C15.8137 0.266165 14.8177 0.492393 13.9162 0.857533C12.558 1.42112 12.1958 2.24665 12.9792 3.00868C13.9713 3.97313 15.4633 4.62403 17.3175 4.93757C19.715 5.33446 22.1479 5.71945 24.5809 6.09649C27.0256 6.47354 29.549 6.62833 32.0056 7.00934C34.9699 7.4618 37.9383 7.98967 40.8396 8.68025C42.3356 9.04143 43.808 9.4661 45.2488 9.91062L47.2014 10.5298C47.4849 10.6131 47.662 10.6488 47.9415 10.7044C48.1069 10.7322 48.2565 10.8155 48.2722 10.9187C48.2959 11.1251 48.3667 11.2362 48.5124 11.3474C48.6423 11.4585 48.8785 11.5458 48.9533 11.7244C48.9887 11.8117 48.973 11.9268 48.9021 12.0062C48.8312 12.0895 48.725 12.1372 48.6187 12.1689C48.3982 12.2285 48.1541 12.2126 47.914 12.2007C47.6227 12.1808 47.3432 12.1094 47.1739 12.0776C47.0833 12.0618 47.0164 12.0618 46.9495 12.0856C46.9298 12.0895 46.9101 12.0975 46.8904 12.1094C46.9062 12.1134 46.8038 12.1253 46.7369 12.1372L46.5243 12.1729C46.2409 12.2245 45.9614 12.284 45.6779 12.3515C45.1189 12.4904 44.4339 12.3912 43.8001 12.4071C42.6584 12.4348 41.5168 12.415 40.3751 12.5142C36.3202 12.8873 32.2221 13.2643 28.1042 13.7287C27.1397 13.8438 26.1792 13.9272 25.2147 14.0661C24.7344 14.1335 24.2502 14.201 23.7699 14.2804L23.0455 14.4074C22.6755 14.4788 22.3015 14.5463 21.9275 14.6177C20.9512 14.8083 19.967 14.9869 18.9828 15.1575C18.4907 15.2369 17.9947 15.3202 17.4986 15.3996L16.0735 15.6774C14.1878 16.0426 12.1328 16.3125 10.3101 16.6379C9.58576 16.753 8.86927 16.88 8.16853 17.0189L7.12529 17.2293C7.04262 17.2491 6.9442 17.265 6.87727 17.2849L6.67256 17.3484L6.27101 17.4793C5.20415 17.8286 4.18453 18.1937 3.16098 18.5589C3.00351 18.6025 2.97989 18.6541 2.9169 18.7018L2.74368 18.8486L2.38937 19.1423C2.14923 19.3368 1.90515 19.5313 1.64533 19.7257L1.23984 20.0036C1.16111 20.0552 1.13355 20.0948 1.09025 20.1345L0.96427 20.2615C0.791053 20.4282 0.609963 20.5949 0.420999 20.7656C0.354074 20.9799 0.251718 21.1942 0.16511 21.4046C0.129679 21.5078 0.094248 21.6348 0.0706275 21.8213C0.0509437 21.9999 -0.0238546 22.2738 0.0076394 22.5794C0.0115762 22.881 0.0312599 23.1509 0.0745642 23.3295C0.109995 23.5121 0.145426 23.643 0.172983 23.7462C0.235971 23.9407 0.32258 24.1352 0.381631 24.3297L0.476113 24.6234L0.519417 24.7702C0.535164 24.8218 0.539101 24.8655 0.590279 24.925L1.06269 25.6037L1.3107 25.945L1.37369 26.0284L1.40519 26.072L1.47998 26.1157L1.79493 26.2903C2.21616 26.5205 2.65707 26.7467 3.12161 26.965L3.5271 27.1913C3.60189 27.227 3.64126 27.2706 3.74755 27.3024L4.13336 27.3857C4.64907 27.4969 5.16872 27.604 5.70412 27.7032L7.38905 28.0168C7.68037 28.0684 7.92839 28.1239 8.2512 28.1676L9.18815 28.2986L12.9084 28.8185C15.5263 29.0924 18.1128 29.3861 20.6244 29.5885L22.5062 29.7552L23.2502 29.8187L23.7502 29.8544L25.7579 30.0092C27.0886 30.1203 28.4192 30.2433 29.738 30.3981C32.7339 30.7474 35.7061 31.0848 38.6154 31.6087L40.7806 32.0452C41.0247 32.0968 40.9735 32.0889 41.0247 32.1008L41.1191 32.1286C41.1821 32.1484 41.2412 32.1683 41.3002 32.1921C41.5128 32.2834 41.6309 32.3707 41.5837 32.4897C41.5325 32.6088 41.375 32.7477 41.2373 32.7517C41.1113 32.7676 41.064 32.7755 41.0168 32.7914L40.7491 32.8787L39.8869 33.1406C39.5444 33.2478 39.1901 33.3431 38.8358 33.4423C37.4225 33.8352 35.9699 34.1924 34.47 34.5258C33.8519 34.6647 33.226 34.883 32.6473 35.137C31.6946 35.5537 30.7104 35.8713 29.6475 36.1134C29.2183 36.2046 28.7932 36.3237 28.3759 36.4547C27.9586 36.5817 27.5452 36.7285 27.1358 36.8913L26.5256 37.1373L26.3563 37.2048C26.2343 37.2524 26.1083 37.304 25.9745 37.3675C25.7107 37.4906 25.4194 37.6454 25.069 37.8994C24.7304 38.1574 24.2738 38.5225 23.8368 39.2647C23.6282 39.6219 23.4392 40.1061 23.3565 40.6062C23.2738 41.1261 23.2857 41.6063 23.388 42.0985C23.4904 42.5906 23.6872 43.0351 23.8998 43.3765C24.1124 43.7218 24.3368 43.9718 24.5336 44.1623C24.9312 44.5394 25.2462 44.7219 25.4784 44.8489C26.8602 45.5435 28.1121 45.6824 29.0412 45.7578C29.9978 45.8293 30.7419 45.857 31.2182 45.9801C31.4702 46.0475 31.6788 45.9285 31.8481 45.8491C31.8953 45.8253 31.9583 45.7896 32.0213 45.7499C32.0961 45.7022 32.1591 45.6626 32.2103 45.6268C32.3481 45.5316 32.5016 45.4244 32.6276 45.2815C32.9228 44.968 33.1157 44.452 32.8795 43.8805C32.663 43.309 32.0095 42.7891 31.2891 42.5509C30.3797 42.2453 29.4585 42.0032 28.6829 41.646C28.6357 41.6262 28.5924 41.5984 28.5491 41.5786L28.6042 41.5666C28.9073 41.4992 29.2105 41.4277 29.5175 41.3682C30.1277 41.2412 30.7419 41.1182 31.3599 41.0031C32.604 40.7768 33.848 40.5506 35.092 40.3244C36.3439 40.0981 37.6115 39.86 38.8831 39.5862C39.5169 39.4512 40.1546 39.3044 40.7963 39.1456C41.1152 39.0702 41.4341 38.9829 41.7569 38.8956L42.2372 38.7646L42.4773 38.6971L42.7962 38.5979C43.5678 38.3518 44.3315 38.1216 45.1622 37.8041C45.5637 37.6533 45.9929 37.5184 46.3865 37.3596C46.7881 37.2008 47.1896 37.0461 47.5872 36.8913C48.0557 36.7365 48.414 36.5261 48.7998 36.3277L49.3745 36.0221L49.6619 35.8673C49.7603 35.8157 49.8115 35.7562 49.8902 35.7006C50.4453 35.2442 51.0634 34.8036 51.4256 34.3035C51.6224 34.0456 51.7996 33.7558 51.9216 33.4026C52.0476 33.0533 52.1027 32.6406 52.0909 32.2357C52.0594 31.4261 51.7563 30.664 51.3626 30.1005C50.961 29.5289 50.4965 29.1003 49.9335 28.6836C49.8115 28.5724 49.5871 28.4931 49.3942 28.4018L48.7998 28.1319L47.6069 27.5842L46.4101 27.0285L44.9654 26.6118C44.0205 26.33 43.0797 26.0482 42.1348 25.7664C39.0366 24.8059 35.7258 24.2662 32.4977 23.7939C30.1671 23.4486 27.8484 23.143 25.5454 22.8532L23.8171 22.6389L23.4274 22.5714L23.1321 22.5198L22.8802 22.4841C22.3526 22.4167 21.8291 22.3492 21.2976 22.246L20.9039 22.1626C20.8409 22.1428 20.7701 22.115 20.7465 22.0515C20.7268 21.9801 20.7937 21.9245 20.8527 21.9007C21.1126 21.8213 21.3763 21.7459 21.644 21.6903C22.1794 21.5673 22.7345 21.4879 23.2463 21.4443L23.6242 21.4205L26.1713 21.1664C27.9389 21.0037 29.7065 20.8608 31.4938 20.7418C36.0762 20.4243 40.7058 20.1107 45.3787 19.7376L48.5478 19.4638C50.276 19.2812 51.9728 19.059 53.701 18.8565L54.9923 18.7018C55.0986 18.6898 55.2127 18.6779 55.3111 18.6621L55.5159 18.5708L55.9253 18.3882L57.5708 17.646L58.3936 17.2729L58.807 17.0864L59.0117 16.9912C59.0432 16.9753 59.0826 16.9594 59.114 16.9435L59.1731 16.8919C59.4998 16.6101 59.7872 16.2887 60.0549 15.9156C60.3187 15.5385 60.5549 15.102 60.7439 14.5384C60.8265 14.2566 60.9131 13.947 60.9407 13.6335C60.9958 13.304 61.0116 12.9945 60.9919 12.7127Z" fill="#977FB8"/>
</svg>
