<svg width="107" height="47" viewBox="0 0 107 47" fill="none" xmlns="http://www.w3.org/2000/svg">
<g opacity="0.8">
<path d="M62.0947 33.1459C62.1 33.1531 62.0991 33.1594 62.1044 33.1666L62.1688 33.1637C62.1583 33.1493 62.1313 33.1579 62.1207 33.1435L62.0947 33.1459Z" fill="#F27173"/>
<path d="M101.808 34.97C101.561 34.9574 101.309 34.9761 101.059 34.9823C100.651 34.7725 100.276 34.8809 99.9048 35.0536L98.7043 35.1754C98.0573 34.8968 97.4669 34.4993 96.6115 34.7444C96.4512 34.79 96.2347 34.7439 96.0528 34.7223C94.0704 34.4872 92.0616 34.2992 90.1191 33.9297C88.5303 33.6275 86.8474 33.7708 85.3259 33.1979C84.7576 32.989 84.0654 33.2529 83.4707 33.174C82.8083 33.0784 82.2204 32.6237 81.5123 32.6999C80.0238 32.8667 78.9305 32.0851 77.7113 32.2039C77.5807 32.2221 77.4276 32.0964 77.3196 32.0095C76.8762 31.6537 76.4519 31.5053 75.9786 31.5091C75.7875 31.5052 75.5907 31.4557 75.4722 31.3544C75.333 31.2627 75.2586 31.1235 75.2534 30.9502C75.2252 30.4285 75.0677 30.4553 74.9184 30.4706C74.8925 30.473 74.8522 30.486 74.8119 30.4989C74.785 30.5076 74.7509 30.5215 74.7115 30.5282C74.6309 30.5541 74.616 30.5263 74.6683 30.4768C74.6909 30.4548 74.7144 30.4264 74.738 30.3981C74.7543 30.3751 74.7634 30.3573 74.7648 30.3065C74.7644 30.2681 74.762 30.2421 74.7486 30.1634L74.6732 29.8644C74.467 29.0469 74.2545 28.2284 73.9978 27.4479C73.6538 26.4048 73.1625 25.4476 72.5415 24.5854C71.9143 23.7222 71.1358 22.9699 70.3415 22.2791C69.7205 21.749 68.869 21.554 68.0348 21.4127C66.9385 21.2311 65.8109 21.2108 64.6872 21.2485C64.1251 21.2897 63.565 21.3184 63.0024 21.3212C62.7211 21.3226 62.4418 21.3115 62.1552 21.3057L61.7741 21.2917C61.667 21.2816 61.5931 21.2638 61.4995 21.2494C61.1511 21.1893 60.8631 21.1514 60.527 21.3424C60.1468 21.5712 59.7451 21.5669 59.3404 21.4982C59.0731 21.4506 58.7899 21.4645 58.5551 21.6199C58.0218 21.9722 57.4693 22.034 56.8385 22.0646C56.1766 22.0904 55.5156 22.2761 54.9616 22.6379C54.3491 23.0482 53.654 23.1647 52.9561 23.2169C52.5164 23.2514 51.9749 23.2 51.6845 23.3852C51.1396 23.7293 50.6299 23.721 50.1076 23.7108C49.4692 23.7083 48.9431 23.8062 48.4319 24.181C48.0944 24.4228 47.6609 24.5413 47.2923 24.3632C46.8003 24.1149 46.3899 24.2497 45.8657 24.4181C45.5638 24.5122 45.2566 24.599 44.9546 24.693C44.8005 24.7396 44.6474 24.7799 44.4952 24.8139L44.3824 24.8412C44.3431 24.848 44.2965 24.86 44.309 24.8619L44.2927 24.8849C44.2269 24.9387 44.1347 24.9564 44.0719 24.9084C43.9931 24.8388 43.9212 24.8085 43.8818 24.7322C43.8626 24.6909 43.7556 24.7639 43.7373 24.7163C43.7277 24.6957 43.7253 24.6698 43.7229 24.6439C43.7302 24.4725 43.8344 24.3352 43.8406 24.2532L43.8425 24.2407L43.8435 24.2344L43.8397 24.1763L43.8277 24.0467L43.7798 23.5283L43.6777 22.4905L43.4673 20.414L43.0399 16.2216L42.9757 15.6432L42.8596 14.8204C42.7781 14.2713 42.6635 13.7298 42.5407 13.1999C42.2898 12.1328 41.9574 11.0978 41.5639 10.0854C41.3562 9.56795 40.9944 9.01396 40.6056 8.55165C38.9164 6.49646 36.5041 5.15396 33.9045 4.61303C32.4016 4.29214 30.9108 4.18388 29.3018 4.26185L28.7656 4.30064L28.3249 4.34136C28.0273 4.36579 27.7456 4.41183 27.4513 4.45594C26.8815 4.54704 26.306 4.67559 25.7775 4.83054C23.7777 5.45517 21.7342 6.15611 19.8577 7.01692C17.9442 7.82732 16.3807 9.06211 14.7696 10.149C11.2906 12.6219 8.52573 15.5178 5.98559 18.1161C5.35715 18.7539 4.76904 19.3788 4.14733 19.9729C3.51843 20.5724 2.88569 21.1137 2.25199 21.6613C1.88425 21.9751 1.66339 22.3308 1.49243 22.7772C1.09386 23.7889 0.964098 24.7144 0.982663 25.6307C0.998832 26.5211 1.1758 27.4044 1.39838 28.2818C1.77349 29.745 2.80582 30.7152 3.92312 31.59C4.66223 32.1829 5.77392 32.1817 6.97643 31.6323C7.73297 31.2825 8.56008 30.9308 9.20962 30.4048C10.6983 29.2415 12.2388 28.4056 13.6607 27.3023C15.3016 26.0219 16.7198 24.5284 18.3971 23.5922C19.6664 22.4846 20.9319 21.4849 22.1853 20.6048C22.5002 20.385 22.8156 20.2036 23.1286 19.9963C23.4416 19.789 23.7527 19.5942 24.0715 19.4325L25.0076 18.9123L25.9489 18.4824C26.1203 18.4066 26.3066 18.2756 26.3963 18.1489C26.6734 17.7188 27.0517 17.5024 27.5734 17.5572C27.9147 17.6225 28.2066 17.4695 28.4931 17.3092C28.7303 17.1796 29.0097 16.9416 29.1887 16.982C29.5079 17.0247 29.795 16.9859 30.058 16.937L30.1564 16.9202C30.1699 16.9159 30.144 16.9183 30.1387 16.9111C30.1147 16.901 30.1478 16.8933 30.1497 16.8808C30.1713 16.865 30.1939 16.8429 30.2136 16.8396C30.2342 16.83 30.2669 16.7839 30.2697 16.8482C30.2649 17.1285 30.3196 16.9389 30.6082 16.6832C30.7642 16.5411 30.8607 16.5368 30.8218 16.6649C30.7949 16.7566 30.7977 16.8209 30.8107 16.8613C30.8601 16.9966 30.658 17.106 31.3391 17.0385C31.5964 17.027 31.4346 17.1235 31.2839 17.1897C31.1822 17.1868 31.1279 17.4148 31.0899 17.5367C31.0544 17.6845 31.0457 17.8237 31.0673 17.974C31.1114 18.2682 31.2674 18.5414 31.5544 18.8347C31.9013 19.1948 31.8749 19.574 31.8719 20.0079C31.6794 20.1379 31.4552 20.2248 31.4139 20.5761C31.3783 20.89 31.4268 21.1977 31.5947 21.4344C31.8515 21.7997 32.1471 22.1199 32.1518 22.67C32.0447 23.1582 32.4239 23.2677 32.5563 23.5692C32.6566 23.789 32.5442 24.0208 32.3306 24.039C31.7748 24.0812 31.7503 24.1157 32.0152 24.5526C32.1274 24.736 32.2148 24.9155 32.2867 25.1118C32.3222 25.2131 32.3544 25.2947 32.3861 25.421C32.4215 25.6053 32.4561 25.7959 32.4906 25.9864C32.6297 26.8255 32.7203 27.4399 32.3352 27.8661C32.0741 28.1517 32.0058 28.8438 32.1626 29.609C32.3914 30.7366 32.7431 31.7297 33.2565 32.6265C33.4264 33.0168 33.6735 33.2784 33.9356 33.4848C34.0162 33.542 34.1031 33.6001 34.1909 33.6519C34.9031 34.5857 35.861 35.4167 36.9818 35.7299C37.7742 35.935 38.1966 36.1789 38.7807 36.5755C39.5481 37.1089 40.7822 37.4331 41.9079 36.8846C42.291 36.7201 42.8435 36.6582 43.0282 36.8272C43.6113 37.3131 44.5978 37.3372 45.9001 36.8863C46.3489 36.751 46.4872 36.6828 46.7425 36.6008C46.9782 36.5221 47.2077 36.4425 47.4319 36.3556C47.8399 36.1949 48.2988 36.1187 48.6477 36.2171C49.4906 36.4683 50.3032 36.7085 51.1702 35.9732C51.2576 35.9036 51.548 35.9675 51.7385 35.933C52.3952 35.817 53.0701 35.7484 53.6706 35.5407C54.2164 35.3565 54.7224 35.0575 54.5747 34.5237C54.5032 34.2827 54.6175 34.0384 54.9972 33.9372C55.3169 33.8523 55.6202 33.8735 55.8362 34.0473C55.9955 34.174 56.0973 34.343 56.2657 34.452C56.6444 34.6892 57.0927 34.5985 57.3208 34.2376C57.438 34.0576 57.5177 33.8719 57.6223 33.69C57.8941 33.2527 57.896 33.2403 58.6976 33.3446C59.2112 33.4109 59.0701 33.0825 59.1979 32.917C59.5631 32.9924 59.7378 33.1854 59.7934 33.4878C59.8236 33.6649 59.946 33.9073 60.2172 33.6808C60.7732 33.2235 61.4879 33.2697 62.0961 33.0951C61.836 32.7931 61.9748 32.4312 61.9955 32.0894C62.4453 31.8649 62.5105 32.271 62.7629 32.3737C62.8286 32.6521 62.6726 32.8772 62.4729 33.0956L62.169 33.1191C62.2482 33.2271 62.3529 33.2943 62.5146 33.2809C62.8885 33.3002 63.166 33.2407 63.3801 33.0948C63.4872 33.0218 63.5784 32.9273 63.6528 32.8174C63.7147 32.7056 63.7008 32.5884 63.7095 32.4492L63.6956 32.3321C63.6913 32.3187 63.6601 32.3139 63.6433 32.2985C63.7863 32.2822 63.747 32.2889 63.7207 31.6716C63.7726 31.3347 63.9065 31.2531 63.9583 31.5805C63.9909 31.7835 63.9625 32.0922 64.0408 32.0403L64.0557 31.9851C63.998 32.2765 64.0143 32.3365 64.0556 32.3173C64.0969 32.2981 64.1824 32.158 64.2942 31.8877C64.4148 31.6444 64.5415 31.402 64.686 31.1688C64.8094 31.1558 64.9505 31.069 65.1454 30.9648C65.4652 30.7969 65.4963 31.0508 65.2428 31.4525C65.0767 31.7016 64.8117 31.9291 64.6796 32.1643C64.731 32.2041 64.9749 31.9478 65.104 31.8975C65.2744 31.8279 65.391 31.8586 65.5691 31.8222C65.681 31.8011 65.8634 31.695 66.0194 31.636C66.0184 31.7253 66.0112 31.8136 66.004 31.9019C65.9421 31.9307 65.8979 31.9686 65.8662 32.0085C65.4371 32.2235 65.0885 32.4956 64.7299 32.7086C64.8927 32.689 65.126 32.6674 65.1816 32.7207C65.3625 33.1638 65.5693 33.7705 65.982 34.2429C66.1379 34.6822 66.3697 35.1267 66.6116 35.5472C67.1879 36.4089 67.3521 36.4214 67.5345 35.9832C67.5941 35.8455 67.6315 35.6851 67.6858 35.5402C68.5373 35.9843 69.2903 36.6113 70.1148 37.3963L70.1978 37.3963C69.9722 37.534 70.1071 37.7784 70.5001 38.088C71.1615 38.5221 71.8094 38.8774 72.4665 39.1319C73.701 39.5776 74.5137 39.4025 74.8013 38.7377C75.0841 38.7685 75.3668 38.7993 75.6452 38.8166L75.995 39.241C75.8923 39.4935 76.1154 39.662 76.4961 39.7206C76.7581 39.761 77.0231 39.7826 77.2828 39.7971C77.9471 39.8802 78.6023 39.9811 79.2445 40.0417C79.892 40.1095 80.5348 40.1254 81.1103 40.0799L81.5012 39.2842L82.0825 39.2012C82.4627 38.7232 83.0588 38.8342 83.6003 38.9687C84.4374 39.1743 85.215 39.1854 85.9398 38.7924C86.3176 38.9528 86.6843 39.1434 87.0884 39.2568C87.4311 39.3543 87.9236 39.4749 88.1631 39.3712C88.8549 39.0689 89.6056 39.1718 90.3227 39.0778C90.531 39.0524 90.5541 38.9027 90.4154 38.7663L89.9907 38.3304L89.6294 37.5657L91.4654 37.7143C92.1235 37.6304 92.7729 37.6857 93.4228 37.7795L94.1625 37.7465L94.6958 37.8925C95.2166 37.7874 95.3847 37.1937 96.1479 37.3815C96.4498 37.4536 96.661 37.1603 96.855 36.9794C97.1675 36.9828 97.4833 37.0059 97.7924 36.9896C97.9273 36.9848 98.1947 37.0324 98.1309 36.8246C98.1136 36.7708 97.9552 36.7208 97.8438 36.6973C97.6638 36.6632 97.4747 36.6468 97.2928 36.6252C97.2319 36.4817 97.0888 36.4149 96.9007 36.3923L96.6636 36.0237C97.3736 35.8519 98.0489 36.237 98.7559 36.084C99.8042 36.4116 100.897 36.369 102.41 36.3338C101.481 36.0182 101.093 35.6327 100.457 35.5347L101.045 35.242C101.29 35.267 101.554 35.3395 101.783 35.3045C102.254 35.2302 102.674 35.7804 103.14 35.3667C103.341 35.2251 102.784 35.0244 101.808 34.97ZM39.5425 33.4541C39.4403 33.4128 39.3904 33.3221 39.3251 33.2482C39.3904 33.239 39.4854 33.2026 39.5272 33.2218C39.6419 33.265 39.7393 33.3375 39.8761 33.4033C39.7499 33.4349 39.6083 33.4834 39.5425 33.4541ZM51.6952 30.9054C51.6535 30.8862 51.6127 30.8608 51.5719 30.8353C51.6127 30.8608 51.6535 30.8862 51.6952 30.9054ZM52.8162 35.5305C52.5248 35.6389 52.1298 35.4247 52.068 35.1214C52.0205 34.8905 52.2653 34.794 52.5144 34.711C52.8783 34.6713 53.113 34.7649 53.135 35.0366C53.1508 35.2243 53.1138 35.423 52.8162 35.5305ZM62.51 23.6472C62.5633 23.5915 62.5686 23.5157 62.548 23.4422C62.4774 23.3611 62.3728 23.2939 62.2562 23.2631C62.1885 23.2463 62.1251 23.243 62.0608 23.2458C62.1251 23.243 62.1947 23.2473 62.2562 23.2631C62.3728 23.2939 62.4774 23.3611 62.548 23.4422C62.5686 23.5157 62.5571 23.5906 62.51 23.6472ZM70.2065 37.4232C70.4306 37.4194 70.6558 37.4093 70.8694 37.3911C70.7124 37.2073 70.6285 37.0474 70.6491 36.9548C70.6285 37.0474 70.7124 37.2073 70.8694 37.3911C70.6558 37.4093 70.4369 37.4204 70.2065 37.4232ZM80.833 39.309C80.1431 39.8479 80.0673 39.8426 79.5024 39.1552C79.6815 39.0295 79.827 38.873 80.0343 38.7708C80.5038 38.5429 80.8465 38.7234 80.9741 39.2222C80.9319 39.2476 80.8762 39.2773 80.833 39.309ZM81.7855 37.8524C81.7995 37.8034 81.8091 37.741 81.8221 37.6983C81.8106 37.6071 81.8163 37.4866 81.7069 37.4506C81.8163 37.4866 81.8053 37.5999 81.8221 37.6983C81.8091 37.741 81.7995 37.8034 81.7855 37.8524ZM88.4375 37.4652C88.1763 37.8338 87.6776 37.7122 87.2629 37.7506C87.4612 37.2509 88.0218 37.5097 88.4375 37.4652ZM87.4005 38.4744C87.102 38.4221 86.8082 38.3385 86.5126 38.2674C86.5625 37.9429 86.9461 37.9828 87.237 37.919C87.6493 38.0209 88.1288 38.0181 88.4139 38.3239C88.1378 38.5816 87.7668 38.5436 87.4005 38.4744Z" fill="#DF0634"/>
<path d="M69.1855 38.2049C69.1807 38.2361 69.2968 38.3946 69.3155 38.3974C69.4552 38.4445 69.5882 38.4522 69.7192 38.4724L69.557 38.2813C69.3559 38.1354 69.21 38.0873 69.1855 38.2049Z" fill="#F27173"/>
</g>
</svg>
