<svg width="124" height="55" viewBox="0 0 124 55" fill="none" xmlns="http://www.w3.org/2000/svg">
<path d="M118.525 40.5935C118.237 40.5789 117.944 40.6007 117.652 40.6079C117.177 40.3636 116.741 40.4898 116.308 40.6909L114.911 40.8326C114.158 40.5084 113.47 40.0456 112.474 40.331C112.288 40.384 112.036 40.3303 111.824 40.3052C109.516 40.0315 107.177 39.8126 104.916 39.3825C103.066 39.0307 101.107 39.1974 99.3358 38.5305C98.6742 38.2873 97.8683 38.5945 97.176 38.5027C96.4048 38.3914 95.7203 37.8621 94.8961 37.9508C93.1631 38.145 91.8903 37.235 90.4709 37.3733C90.3189 37.3945 90.1407 37.2481 90.0149 37.1469C89.4987 36.7328 89.0047 36.56 88.4537 36.5644C88.2313 36.5599 88.0022 36.5023 87.8642 36.3843C87.7021 36.2776 87.6156 36.1155 87.6094 35.9138C87.5766 35.3063 87.3933 35.3376 87.2195 35.3554C87.1893 35.3582 87.1424 35.3733 87.0954 35.3884C87.0641 35.3984 87.0244 35.4146 86.9786 35.4225C86.8847 35.4526 86.8674 35.4202 86.9283 35.3627C86.9546 35.337 86.982 35.304 87.0094 35.271C87.0284 35.2442 87.039 35.2235 87.0407 35.1643C87.0401 35.1196 87.0373 35.0894 87.0217 34.9978L86.934 34.6496C86.6939 33.6979 86.4465 32.7451 86.1477 31.8364C85.7472 30.622 85.1752 29.5076 84.4522 28.5039C83.722 27.499 82.8158 26.6232 81.8911 25.8189C81.1681 25.2018 80.1768 24.9748 79.2056 24.8103C77.9293 24.5989 76.6166 24.5752 75.3084 24.6191C74.654 24.667 74.0019 24.7005 73.347 24.7037C73.0195 24.7053 72.6943 24.6924 72.3606 24.6857L71.9169 24.6694C71.7923 24.6576 71.7063 24.6369 71.5973 24.6201C71.1916 24.5502 70.8563 24.506 70.4651 24.7284C70.0225 24.9948 69.5548 24.9897 69.0837 24.9097C68.7724 24.8544 68.4427 24.8705 68.1694 25.0515C67.5485 25.4616 66.9053 25.5336 66.171 25.5692C65.4004 25.5993 64.6309 25.8154 63.9859 26.2366C63.2728 26.7143 62.4636 26.85 61.6511 26.9107C61.1392 26.9509 60.5089 26.891 60.1707 27.1066C59.5364 27.5072 58.9429 27.4976 58.335 27.4857C57.5917 27.4828 56.9792 27.5967 56.384 28.0331C55.9911 28.3146 55.4865 28.4526 55.0574 28.2452C54.4846 27.9562 54.0068 28.1131 53.3965 28.3092C53.045 28.4186 52.6874 28.5197 52.3359 28.6292C52.1565 28.6834 51.9782 28.7303 51.801 28.7699L51.6697 28.8018C51.6239 28.8096 51.5697 28.8235 51.5842 28.8258L51.5652 28.8526C51.4886 28.9152 51.3813 28.9358 51.3081 28.8799C51.2165 28.7989 51.1327 28.7637 51.0869 28.6748C51.0645 28.6267 50.9399 28.7117 50.9187 28.6563C50.9075 28.6323 50.9047 28.6021 50.9019 28.5719C50.9103 28.3725 51.0316 28.2126 51.0389 28.1171L51.0412 28.1026L51.0423 28.0953L51.0378 28.0277L51.0239 27.8768L50.9681 27.2733L50.8493 26.0651L50.6044 23.6476L50.1067 18.7668L50.032 18.0934L49.8969 17.1356C49.802 16.4963 49.6685 15.8659 49.5256 15.2489C49.2335 14.0066 48.8465 12.8018 48.3885 11.6231C48.1466 11.0207 47.7253 10.3757 47.2728 9.83752C45.3062 7.44489 42.4978 5.88196 39.4714 5.25222C37.7218 4.87863 35.9861 4.7526 34.1129 4.84337L33.4887 4.88853L32.9757 4.93594C32.6292 4.96439 32.3012 5.01798 31.9586 5.06933C31.2953 5.17539 30.6253 5.32504 30.01 5.50544C27.6818 6.23262 25.3028 7.04865 23.1182 8.0508C20.8906 8.99427 19.0703 10.4318 17.1947 11.6972C13.1444 14.5761 9.92562 17.9475 6.9684 20.9724C6.23679 21.7149 5.55211 22.4424 4.82832 23.1341C4.09616 23.8319 3.35953 24.4622 2.62178 25.0997C2.19366 25.465 1.93654 25.8791 1.73751 26.3988C1.27349 27.5767 1.12243 28.654 1.14404 29.7208C1.16286 30.7574 1.36889 31.7857 1.62801 32.8073C2.06472 34.5106 3.26654 35.6402 4.5673 36.6586C5.42776 37.3489 6.72198 37.3474 8.12193 36.7078C9.0027 36.3006 9.96561 35.8911 10.7218 35.2788C12.4549 33.9245 14.2483 32.9513 15.9038 31.6669C17.8141 30.1763 19.4651 28.4375 21.4178 27.3476C22.8955 26.0581 24.3688 24.8943 25.828 23.8697C26.1946 23.6138 26.5618 23.4027 26.9262 23.1613C27.2906 22.92 27.6528 22.6932 28.0238 22.5049L29.1136 21.8993L30.2096 21.3988C30.4091 21.3105 30.6259 21.158 30.7305 21.0105C31.053 20.5099 31.4934 20.2579 32.1008 20.3217C32.4981 20.3978 32.8379 20.2196 33.1715 20.033C33.4476 19.8822 33.7729 19.605 33.9813 19.652C34.3529 19.7018 34.6871 19.6566 34.9933 19.5997L35.1079 19.5801C35.1236 19.5751 35.0934 19.5779 35.0872 19.5695C35.0593 19.5578 35.0979 19.5488 35.1001 19.5343C35.1252 19.5159 35.1515 19.4902 35.1744 19.4863C35.1985 19.4751 35.2365 19.4214 35.2398 19.4963C35.2342 19.8227 35.2979 19.602 35.6338 19.3042C35.8155 19.1388 35.9278 19.1338 35.8825 19.283C35.8512 19.3897 35.8545 19.4646 35.8696 19.5115C35.9271 19.6691 35.6918 19.7965 36.4848 19.7178C36.7843 19.7045 36.596 19.8168 36.4205 19.8938C36.3021 19.8905 36.2389 20.1559 36.1947 20.2978C36.1533 20.4699 36.1432 20.632 36.1683 20.8069C36.2197 21.1495 36.4013 21.4675 36.7354 21.809C37.1393 22.2282 37.1085 22.6696 37.1051 23.1748C36.881 23.3262 36.62 23.4273 36.5719 23.8363C36.5304 24.2018 36.5868 24.56 36.7824 24.8355C37.0813 25.2608 37.4254 25.6336 37.4309 26.274C37.3062 26.8423 37.7476 26.9698 37.9018 27.3208C38.0186 27.5767 37.8877 27.8466 37.6391 27.8678C36.992 27.9169 36.9634 27.9571 37.2718 28.4657C37.4026 28.6792 37.5042 28.8882 37.588 29.1168C37.6293 29.2347 37.6668 29.3297 37.7036 29.4767C37.7449 29.6913 37.7851 29.9131 37.8253 30.135C37.9872 31.1118 38.0927 31.8271 37.6445 32.3233C37.3404 32.6557 37.2609 33.4615 37.4435 34.3523C37.7098 35.665 38.1193 36.8213 38.717 37.8653C38.9148 38.3196 39.2025 38.6242 39.5076 38.8646C39.6014 38.9311 39.7026 38.9987 39.8048 39.0591C40.6339 40.1461 41.7492 41.1136 43.0539 41.4782C43.9765 41.717 44.4682 42.0009 45.1482 42.4626C46.0417 43.0836 47.4783 43.4611 48.7889 42.8226C49.2348 42.631 49.878 42.559 50.0932 42.7557C50.772 43.3214 51.9204 43.3495 53.4365 42.8245C53.9591 42.667 54.12 42.5876 54.4173 42.4921C54.6917 42.4005 54.9589 42.3078 55.2198 42.2067C55.6949 42.0196 56.2291 41.9308 56.6354 42.0455C57.6166 42.3379 58.5626 42.6175 59.572 41.7615C59.6737 41.6805 60.0118 41.7549 60.2336 41.7147C60.9981 41.5796 61.7838 41.4998 62.483 41.258C63.1184 41.0435 63.7074 40.6954 63.5354 40.074C63.4522 39.7935 63.5852 39.509 64.0273 39.3912C64.3995 39.2924 64.7526 39.317 65.0041 39.5193C65.1896 39.6669 65.308 39.8636 65.5041 39.9905C65.945 40.2666 66.467 40.1611 66.7325 39.7409C66.8689 39.5314 66.9617 39.3151 67.0835 39.1034C67.3999 38.5943 67.4021 38.5798 68.3353 38.7012C68.9333 38.7785 68.769 38.3962 68.9177 38.2034C69.343 38.2912 69.5463 38.5159 69.6111 38.868C69.6463 39.0742 69.7887 39.3564 70.1045 39.0927C70.7517 38.5603 71.5838 38.6141 72.2918 38.4108C71.989 38.0592 72.1506 37.6379 72.1747 37.24C72.6983 36.9786 72.7742 37.4514 73.0681 37.571C73.1447 37.8951 72.963 38.1572 72.7305 38.4114L72.3767 38.4387C72.4689 38.5645 72.5907 38.6427 72.7791 38.6271C73.2144 38.6495 73.5374 38.5803 73.7867 38.4105C73.9113 38.3255 74.0175 38.2155 74.1041 38.0875C74.1762 37.9573 74.16 37.821 74.1701 37.6589L74.1539 37.5226C74.1489 37.5069 74.1126 37.5013 74.093 37.4834C74.2596 37.4645 74.2137 37.4723 74.1831 36.7536C74.2436 36.3614 74.3995 36.2664 74.4598 36.6475C74.4977 36.8839 74.4647 37.2432 74.5558 37.1829L74.5731 37.1186C74.506 37.4578 74.525 37.5277 74.5731 37.5053C74.6211 37.483 74.7206 37.3198 74.8509 37.0052C74.9912 36.7219 75.1388 36.4397 75.307 36.1682C75.4506 36.1531 75.6149 36.052 75.8418 35.9308C76.2141 35.7353 76.2503 36.0309 75.9552 36.4986C75.7618 36.7885 75.4533 37.0534 75.2996 37.3272C75.3593 37.3736 75.6433 37.0752 75.7936 37.0166C75.992 36.9356 76.1278 36.9713 76.3351 36.9289C76.4653 36.9043 76.6777 36.7809 76.8593 36.7122C76.8582 36.8161 76.8498 36.9189 76.8414 37.0218C76.7693 37.0553 76.7179 37.0994 76.681 37.1458C76.1814 37.3961 75.7756 37.7128 75.3581 37.9609C75.5476 37.938 75.8192 37.9129 75.884 37.9749C76.0946 38.4908 76.3353 39.1971 76.8158 39.7471C76.9973 40.2585 77.2671 40.776 77.5487 41.2655C78.2197 42.2687 78.4108 42.2833 78.6232 41.7731C78.6925 41.6128 78.7361 41.4261 78.7993 41.2574C79.7906 41.7744 80.6672 42.5044 81.6271 43.4182L81.7238 43.4183C81.4611 43.5786 81.6181 43.8631 82.0757 44.2236C82.8457 44.7289 83.6 45.1425 84.365 45.4388C85.8022 45.9577 86.7483 45.7538 87.0832 44.9799C87.4123 45.0158 87.7414 45.0516 88.0656 45.0718L88.4728 45.5658C88.3532 45.8597 88.613 46.0559 89.0562 46.1242C89.3613 46.1712 89.6697 46.1964 89.972 46.2132C90.7454 46.31 91.5082 46.4275 92.2559 46.498C93.0097 46.5769 93.758 46.5955 94.428 46.5425L94.883 45.6161L95.5598 45.5195C96.0025 44.963 96.6965 45.0922 97.3268 45.2488C98.3013 45.4881 99.2066 45.5011 100.051 45.0436C100.49 45.2303 100.917 45.4523 101.388 45.5842C101.787 45.6977 102.36 45.8381 102.639 45.7174C103.444 45.3655 104.318 45.4852 105.153 45.3759C105.396 45.3463 105.422 45.1719 105.261 45.0132L104.766 44.5057L104.346 43.6154L106.483 43.7885C107.249 43.6908 108.006 43.7552 108.762 43.8643L109.623 43.8259L110.244 43.9959C110.85 43.8736 111.046 43.1824 111.935 43.401C112.286 43.4849 112.532 43.1435 112.758 42.9329C113.122 42.9368 113.489 42.9637 113.849 42.9448C114.006 42.9392 114.317 42.9946 114.243 42.7526C114.223 42.69 114.039 42.6319 113.909 42.6045C113.7 42.5648 113.479 42.5457 113.268 42.5206C113.197 42.3535 113.03 42.2757 112.811 42.2494L112.535 41.8202C113.362 41.6203 114.148 42.0686 114.971 41.8905C116.191 42.2718 117.463 42.2223 119.225 42.1812C118.143 41.8139 117.692 41.3651 116.951 41.251L117.636 40.9102C117.921 40.9393 118.228 41.0238 118.494 40.983C119.043 40.8965 119.532 41.537 120.075 41.0554C120.308 40.8906 119.66 40.6569 118.525 40.5935ZM46.0351 38.8288C45.9161 38.7807 45.858 38.6751 45.782 38.589C45.858 38.5784 45.9687 38.536 46.0173 38.5583C46.1508 38.6086 46.2643 38.693 46.4235 38.7696C46.2765 38.8065 46.1117 38.8629 46.0351 38.8288ZM60.1832 35.8616C60.1346 35.8393 60.0871 35.8096 60.0396 35.78C60.0871 35.8096 60.1346 35.8393 60.1832 35.8616ZM61.4883 41.2461C61.149 41.3723 60.6892 41.123 60.6172 40.7698C60.5619 40.501 60.8469 40.3887 61.1369 40.2921C61.5605 40.2458 61.8338 40.3548 61.8594 40.6711C61.8778 40.8896 61.8348 41.1209 61.4883 41.2461ZM72.7737 27.4116C72.8357 27.3468 72.8419 27.2585 72.8179 27.173C72.7358 27.0786 72.614 27.0003 72.4782 26.9645C72.3994 26.945 72.3256 26.941 72.2507 26.9444C72.3256 26.941 72.4066 26.9461 72.4782 26.9645C72.614 27.0003 72.7358 27.0786 72.8179 27.173C72.8419 27.2585 72.8285 27.3457 72.7737 27.4116ZM81.7339 43.4496C81.9948 43.4451 82.2569 43.4334 82.5056 43.4122C82.3229 43.1982 82.2251 43.0121 82.2492 42.9042C82.2251 43.0121 82.3229 43.1982 82.5056 43.4122C82.2569 43.4334 82.0021 43.4462 81.7339 43.4496ZM94.1051 45.645C93.302 46.2724 93.2137 46.2663 92.5561 45.4659C92.7646 45.3195 92.934 45.1374 93.1754 45.0184C93.722 44.7531 94.1209 44.9633 94.2695 45.5439C94.2203 45.5735 94.1554 45.6081 94.1051 45.645ZM95.2141 43.9492C95.2303 43.8922 95.2415 43.8195 95.2566 43.7698C95.2432 43.6636 95.25 43.5234 95.1226 43.4814C95.25 43.5234 95.2371 43.6552 95.2566 43.7698C95.2415 43.8195 95.2303 43.8922 95.2141 43.9492ZM102.958 43.4984C102.654 43.9275 102.074 43.7861 101.591 43.8307C101.822 43.249 102.474 43.5503 102.958 43.4984ZM101.751 44.6734C101.403 44.6124 101.062 44.5151 100.717 44.4324C100.775 44.0546 101.222 44.1011 101.561 44.0268C102.041 44.1454 102.599 44.1421 102.931 44.4981C102.609 44.7982 102.177 44.7539 101.751 44.6734Z" fill="#FFD62B"/>
</svg>
