<svg width="891" height="735" viewBox="0 0 891 735" fill="none" xmlns="http://www.w3.org/2000/svg">
<path d="M801.619 29.9661C801.485 31.1122 801.417 32.3257 801.282 33.4718C802.967 34.0785 804.18 33.6066 805.326 32.6628C809.033 29.6291 812.807 26.5954 816.513 23.6291C817.12 23.1572 817.726 22.7527 818.333 22.3482C818.872 22.5504 819.478 22.5504 819.748 22.8201C820.557 23.6291 821.365 23.7639 822.241 23.2246C823.724 22.4156 825.341 21.7414 826.689 20.7302C829.183 18.8426 831.946 17.6291 834.776 16.2808C835.181 18.4381 833.631 19.8538 833.294 21.6066C833.226 21.9437 833.563 22.4156 833.833 22.7527C833.968 22.8875 834.507 22.9549 834.709 22.8201C835.72 22.1459 836.731 21.4044 837.742 20.6628C839.427 19.3819 841.314 18.91 843.403 18.8426C844.211 18.8426 845.087 19.1122 845.155 19.9886C845.222 20.6628 845.02 21.5392 844.683 22.1459C844.414 22.6178 843.74 23.0223 843.201 23.1572C840.1 23.9662 838.011 26.3931 835.113 27.5392C833.631 28.1459 832.822 29.6291 832.552 31.5167C833.294 31.5167 834.035 31.5841 834.709 31.5167C835.45 31.4493 836.394 30.9774 836.933 31.247C838.887 32.2583 840.774 31.9212 842.661 30.9774C842.864 32.4605 842.998 33.5392 843.066 34.5504C842.055 35.7639 841.044 36.91 840.1 38.1234C839.494 38.865 839.157 39.8088 838.416 40.2807C835.383 42.1684 834.979 45.3369 834.372 48.3032C833.968 50.1234 834.103 52.0111 836.596 52.6852C837.27 52.8875 837.607 54.101 838.281 55.1796C839.966 55.6515 841.853 55.247 843.537 53.9661C844.818 53.0897 846.098 52.2133 847.446 51.4717C848.322 50.9998 849.333 50.5953 850.681 51.0673C849.872 52.8201 848.39 53.4268 847.042 54.101C844.009 55.5167 841.651 57.6066 839.831 60.438C838.483 62.5279 836.529 64.1459 836.057 67.1122C837 66.9774 837.944 67.1796 838.618 66.7751C839.966 65.9661 841.044 64.8875 842.324 63.9437C843.335 63.2021 844.279 62.865 845.694 63.2695C848.592 64.0785 850.748 62.7302 852.366 60.3032C853.579 58.483 853.646 58.483 855.735 57.2695C856.477 58.2133 857.218 59.1571 857.959 60.101C857.757 60.3706 857.622 60.7077 857.353 60.8425C856.544 61.3144 855.668 61.7189 854.927 62.1908C853.309 63.1347 851.962 64.4156 851.355 66.3032C850.883 67.7863 850.277 69.4043 848.861 70.1459C846.301 71.4268 844.885 73.8538 842.931 75.674C841.448 77.0223 840.977 78.7077 841.718 80.9998C842.594 80.4605 843.403 80.1234 844.077 79.5841C846.974 77.2245 849.738 74.7302 852.635 72.438C853.444 71.8313 854.59 71.629 855.601 71.2245L855.466 71.0897C855.735 71.8313 856.207 72.5054 856.207 73.247C856.207 75.0672 856.679 76.483 858.229 77.5616C858.701 77.8987 858.701 78.9099 858.97 79.9212C860.116 79.7863 861.262 79.7189 862.407 79.5841C862.609 79.9212 862.879 80.2582 862.812 80.4605C862.609 81.3369 862.273 82.2133 862.003 83.0897C860.116 83.629 858.229 84.1684 856.275 84.7751C855.87 84.438 855.398 84.1009 854.927 83.6964C852.972 85.0448 850.951 86.4605 849.064 87.8762C848.929 87.9436 849.131 88.4155 849.131 88.7526C849.872 88.82 850.546 88.8875 851.288 89.0223C851.355 89.0223 851.422 89.2919 851.692 89.629C851.22 90.3032 850.748 91.0448 850.209 91.7863C849.738 92.3931 849.266 92.9998 848.929 93.674C848.592 94.3481 847.514 94.7526 847.851 95.8313C848.255 95.7638 848.592 95.7639 848.861 95.629C853.714 92.7976 856.949 88.1459 861.127 84.5728C861.531 84.2358 861.733 83.5616 862.003 83.0897C865.305 82.2807 868.54 81.4043 871.842 80.5953C872.718 80.3931 873.325 80.865 873.527 81.8762C870.023 85.8537 866.451 89.8987 861.666 92.6627C858.431 94.5504 856.14 97.5841 853.579 100.213C850.479 103.382 847.109 106.416 844.75 110.258C843.942 111.607 842.392 112.887 840.909 113.427C834.776 115.584 831.003 120.573 826.555 124.82C825.476 125.899 824.465 127.045 823.252 127.989C820.22 130.348 817.12 132.708 814.828 135.876C813.952 137.09 812.739 138.033 811.122 138.303C809.1 138.64 807.28 139.517 806.269 141.539C805.663 142.685 804.585 143.224 803.439 143.831C802.226 144.438 801.215 145.449 800.137 146.326C799.395 146.932 798.924 147.674 799.53 148.753C799.665 149.022 799.395 149.629 799.058 149.831C798.048 150.573 798.587 150.91 799.261 151.517C799.53 151.786 799.598 152.326 799.867 153.067C798.519 153.741 797.172 154.415 795.689 155.157C794.813 153.472 797.441 152.865 796.632 151.449C792.454 152.932 791.982 153.269 789.354 156.236C788.41 157.247 787.467 158.191 786.187 158.865C783.356 160.415 781.334 162.91 779.178 165.202C778.773 165.606 778.639 166.281 778.369 166.887C779.245 167.831 780.054 168.708 780.863 169.517C780.391 171.876 778.571 173.022 777.223 174.371C775.808 175.786 776.078 178.213 777.897 179.022C778.706 179.359 779.784 179.427 780.593 179.157C782.952 178.415 785.31 177.606 786.995 175.584C787.467 175.045 788.006 174.573 789.017 173.562C788.882 177.674 787.332 180.371 785.31 182.932C782.682 186.236 781.873 190.078 783.086 194.123C783.558 195.606 783.356 196.55 782.345 197.427C780.66 198.775 778.908 200.056 777.156 201.337C776.078 202.146 774.999 203.022 773.921 203.899C773.584 204.168 773.112 204.64 773.18 205.045C773.517 207.674 771.63 210.101 772.506 213C773.988 214.348 775.673 215.831 777.56 217.584C778.976 217.988 780.526 217.382 782.076 216.573C783.356 215.831 784.839 215.494 786.321 214.955C786.793 218.528 785.108 220.82 782.817 222.91C783.019 224.326 783.154 225.674 783.356 227.224C782.413 227.359 781.671 227.427 780.93 227.562C780.526 227.629 779.919 227.696 779.649 227.966C777.223 230.46 774.73 233.022 772.438 235.651C771.091 237.135 771.495 238.955 773.112 240.438C773.315 240.64 773.584 240.842 773.786 241.045C773.921 241.179 773.988 241.314 774.191 241.584C773.786 243.202 773.247 244.955 772.91 246.708C772.708 247.584 772.371 248.73 772.708 249.404C774.123 252.033 774.595 255.337 777.695 256.82C777.493 258.303 777.156 259.786 777.156 261.269C777.156 261.943 777.83 262.618 778.302 263.561C779.515 263.427 780.728 263.224 781.873 263.09C782.008 263.359 782.345 263.629 782.278 263.831C781.873 265.314 781.469 266.865 782.076 268.415C782.547 269.561 782.817 270.91 784.434 270.91C786.187 270.91 786.254 273.741 788.141 273.202C789.421 272.797 790.634 271.988 791.78 271.247C793.6 270.101 795.352 271.179 797.441 271.247C799.058 270.303 800.878 269.224 802.967 268.011C802.226 267.269 801.754 266.73 801.215 266.191C801.619 264.91 802.024 263.629 802.495 262.348L802.361 262.415C802.63 262.82 802.967 263.157 803.102 263.561C803.304 264.303 803.169 265.112 804.18 265.314C805.124 265.517 806.067 265.921 806.876 265.247C807.954 264.37 809.167 263.494 809.774 262.348C810.785 260.663 812.065 259.449 813.75 258.573C815.367 257.696 816.311 256.011 818.467 255.876C820.354 255.809 821.163 254.056 822.376 252.573C821.837 251.831 821.365 251.224 820.961 250.685C821.77 249.539 822.983 249.472 824.263 249.404C826.218 249.337 827.498 248.528 827.498 246.303C827.498 245.764 827.835 245.09 828.172 244.618C828.846 243.809 829.655 243.606 830.733 244.415C830.261 245.899 829.992 247.584 829.25 249C828.846 249.876 827.7 250.415 827.026 251.157C826.824 251.427 826.689 252.101 826.892 252.37C827.094 252.708 827.768 252.977 828.037 252.91C829.318 252.505 830.531 251.899 831.879 251.359C832.62 252.303 833.294 253.112 834.035 253.921C835.585 253.112 837.068 252.37 838.55 251.629C838.55 249.876 836.866 250.078 835.922 249.539C834.642 248.797 834.102 247.921 834.574 246.236C836.461 245.427 837.539 243.674 838.213 241.584C838.82 239.764 840.505 239.629 841.853 241.112C843.335 242.663 844.751 244.348 846.233 245.899C847.446 247.179 845.559 249.809 848.39 250.618C847.648 251.629 846.974 252.64 846.166 253.786C846.772 254.797 847.379 255.741 848.12 256.887C849.805 256.078 851.22 255.067 851.422 253.584C851.759 251.764 852.972 251.629 854.051 251.696C856.072 251.764 858.027 252.168 860.049 252.438C860.655 253.449 861.127 254.595 861.868 255.472C862.879 256.685 864.159 255.472 865.305 255.472C866.316 256.011 865.575 256.82 865.642 257.427C865.71 258.101 866.047 258.842 866.383 259.786C865.238 260.056 864.227 260.393 863.216 260.528C860.925 260.797 858.633 261.067 856.342 261.269C854.994 261.404 853.512 261.606 852.231 261.269C848.053 260.258 843.807 261.067 839.763 261.741C836.394 262.281 833.024 262.483 829.655 262.685C828.711 262.752 827.633 262.55 826.892 262.955C823.724 264.708 820.085 264.977 816.715 266.056C816.109 266.258 815.502 266.326 814.963 266.663C811.324 269.022 807.078 270.101 803.035 271.584C801.619 272.123 800.002 272.663 798.991 273.674C797.037 275.494 794.813 276.168 792.252 276.101C791.51 276.101 790.634 276.033 790.028 276.303C787.669 277.517 785.243 278.46 783.221 280.281C782.143 281.224 781.873 282.236 781.873 283.517C781.806 285.202 783.154 285.404 784.232 286.078C783.828 287.022 783.019 287.966 783.086 288.842C783.289 290.258 781.941 290.595 781.671 291.606C781.334 292.887 780.526 294.101 779.852 295.314C778.504 297.472 778.436 298.146 779.649 301.112C780.054 302.191 779.986 303.134 779.447 304.213C778.639 305.696 777.965 307.247 777.156 309C778.436 310.078 779.649 311.022 781.065 312.168C779.38 313.719 777.965 315.067 776.347 316.55C776.347 317.494 776.415 318.573 776.347 319.651C776.28 320.528 776.145 321.404 776.01 322.55C777.223 322.82 778.234 323.022 779.11 323.224C780.863 321.404 782.48 319.786 783.963 318.303C787.063 318.37 786.658 321.134 787.669 322.752C788.478 322.685 789.287 322.752 790.028 322.618C790.769 322.483 791.443 322.281 792.252 322.078C792.454 323.359 792.589 324.303 792.724 325.314C791.645 327.539 789.287 327.876 787.534 329.022C787.4 329.359 787.197 329.696 787.197 329.966C786.86 333 787.602 334.011 790.567 334.078C791.915 334.078 793.398 334.011 794.678 333.606C796.767 333.067 798.452 333.134 800.406 334.348C803.035 336.033 804.382 335.561 806.269 333.067C806.943 332.123 807.685 331.112 808.696 329.764C809.033 330.775 809.504 331.449 809.302 331.786C808.291 333.809 808.493 335.629 810.043 337.314C805.124 338.797 802.563 341.831 802.495 347.09C803.304 347.292 804.113 347.494 804.989 347.696C804.922 347.898 804.922 348.236 804.787 348.438C803.911 349.314 802.967 350.123 802.159 351C801.215 352.146 800.676 353.494 801.552 354.842C802.361 356.191 801.822 357.202 801.08 358.281C800.743 358.752 800.339 359.292 799.8 359.629C796.161 361.651 794.88 365.359 793.128 368.73C792.319 370.213 791.308 371.09 789.826 371.696C787.265 372.775 784.637 373.719 782.278 375.067C780.66 375.943 779.245 377.224 778.032 378.573C776.078 380.73 773.989 382.685 771.225 383.898C770.686 384.168 770.08 384.438 769.675 384.842C766.036 388.483 761.656 391.112 757.41 393.943C756.13 394.752 754.849 395.898 754.175 397.179C753.366 398.663 752.221 399.539 750.805 400.213C748.245 401.292 746.155 403.179 743.594 404.325C741.573 405.269 740.023 407.224 738.203 408.64C737.26 409.382 736.181 410.191 735.036 410.393C732.744 410.797 731.06 412.146 729.442 413.561C726.14 416.393 722.972 419.292 719.805 422.325C718.592 423.471 717.244 424.213 715.761 424.415C713.807 424.618 712.324 425.629 710.64 426.303C708.079 427.382 706.057 429.337 703.294 430.078C701.946 430.483 700.8 431.898 699.924 433.112C698.644 434.797 697.633 436.752 696.42 438.707C693.792 439.247 691.028 439.853 688.333 440.46C686.176 440.932 684.289 442.415 684.154 444.303C683.952 446.325 683.009 446.865 681.594 447.539C677.28 449.629 672.967 451.719 668.722 453.809C667.508 454.415 666.363 455.292 665.15 455.966C663.195 457.179 661.174 458.393 659.219 459.606C658.95 459.741 658.68 459.943 658.411 460.078C653.221 464.325 646.886 466.618 641.225 470.123C638.732 471.674 635.969 472.752 633.408 474.168C629.769 476.123 626.399 478.415 623.703 481.584C622.895 482.46 621.884 483.269 620.469 483.134C619.188 483 618.11 483.606 617.032 484.213C614.942 485.426 612.651 486.438 610.495 487.651C608.607 488.662 606.788 489.808 604.968 490.955C601.801 493.044 598.162 494.19 594.657 495.067C591.557 495.808 588.727 496.887 586.031 498.438C582.796 500.325 579.494 501.876 575.99 502.955C575.72 503.022 575.316 503.089 575.113 503.224C570.396 506.797 564.331 507.808 559.478 511.179C559.074 511.449 558.67 511.584 558.198 511.786C548.494 516.235 538.924 520.887 529.489 525.741C520.526 530.325 511.495 534.707 502.532 539.224C498.96 541.044 495.321 542.797 491.749 544.617C487.908 546.505 484.134 548.73 480.292 550.617C469.914 555.741 460.007 561.808 449.292 566.325C447.472 567.067 446.057 568.617 444.44 569.831C443.227 570.707 441.946 571.651 440.666 572.46C440.059 572.865 439.25 573.067 438.711 573.606C437.026 575.494 434.803 576.573 432.646 577.853C429.748 579.606 426.985 581.629 424.02 583.314C422.268 584.258 420.313 584.797 418.426 585.336C417.954 585.471 417.281 585.067 416.741 584.932C414.517 584.325 414.585 584.325 413.237 586.415C412.563 587.426 411.957 588.438 410.609 588.91C409.665 589.247 408.856 590.123 408.115 590.73C407.778 590.73 407.576 590.797 407.509 590.73C404.476 588.572 401.982 589.786 399.624 591.876C398.343 592.954 397.13 594.168 395.782 595.112C394.771 595.786 393.828 596.46 393.154 597.539C392.615 598.415 391.671 599.157 390.728 599.629C386.887 601.651 383.045 603.471 379.204 605.426C378.799 605.629 378.328 605.898 377.923 605.898C374.352 605.831 371.925 607.988 369.365 610.078C369.028 610.348 368.556 610.483 368.151 610.685C366.467 610.483 364.917 609.269 362.895 610.28C362.288 611.224 361.48 612.37 360.738 613.449C360.806 614.123 360.806 614.73 360.94 615.336C361.277 616.55 360.873 617.696 360.064 618.303C357.571 620.056 355.616 622.617 352.786 623.966C350.832 624.91 349.012 625.921 346.788 626.258C344.699 626.595 342.61 627.471 340.925 628.954C340.251 629.561 339.442 630.101 338.566 630.438C336.544 631.179 335.197 632.595 333.849 634.078C332.905 635.157 331.894 636.101 330.344 636.033C326.503 635.763 323.403 637.988 320.707 640.078C317.877 642.303 314.709 643.853 311.946 646.348C311.205 646.011 310.531 645.674 309.857 645.404C308.711 644.932 307.633 645.067 306.892 646.011C305.409 648.101 303.118 648.505 300.894 649.044C300.152 649.247 299.276 649.179 298.67 649.516C297.726 649.988 296.783 650.662 297.187 652.078C297.322 652.483 297.457 653.089 297.255 653.426C296.985 653.898 296.379 654.303 295.907 654.438C295.637 654.505 295.098 654.033 294.896 653.696C294.626 653.157 294.492 652.55 294.222 651.741C291.526 652.348 288.763 652.415 286.472 654.101C286.135 654.37 285.798 654.909 285.394 654.977C282.428 655.247 280.946 657.269 279.396 659.494C279.059 659.966 278.183 659.966 277.104 660.303C277.306 657.404 277.441 654.977 277.576 652.55C277.576 652.213 277.643 651.876 277.509 651.606C277.239 651.067 276.97 650.46 276.498 650.19C275.689 649.786 274.88 650.258 274.543 650.999C273.263 653.629 272.05 656.258 270.702 659.089C269.691 659.089 268.613 659.022 267.602 659.089C266.726 659.157 265.782 659.292 264.906 659.359C264.637 659.089 264.367 658.887 264.3 658.685C264.098 657.808 264.435 656.662 263.289 656.325C262.413 656.123 261.402 656.123 260.593 656.46C259.784 656.73 259.178 657.539 258.369 658.145C257.897 657.674 257.561 656.932 257.156 656.865C255.741 656.662 255.134 657.943 254.191 659.157C254.191 660.572 254.191 662.19 254.191 663.808C253.652 663.808 253.315 663.943 253.045 663.808C252.237 663.336 251.495 662.865 250.686 662.325C250.821 661.112 251.091 660.033 251.023 659.022C250.956 657.471 249.81 656.393 248.328 656.46C247.586 656.46 246.778 656.528 246.036 656.797C242.397 658.078 238.758 659.359 235.119 660.707C234.512 660.909 233.973 661.247 233.367 661.314C230.132 661.584 227.571 663.404 224.74 664.685C222.449 665.763 222.449 665.831 222.786 668.595C222.853 668.932 222.786 669.202 222.786 669.539C222.786 669.674 222.719 669.808 222.584 670.28C221.977 670.348 221.169 670.617 220.562 670.348C218.001 669.269 217.192 668.999 215.036 669.134C215.103 667.786 215.912 666.909 216.923 666.235C217.664 665.696 218.608 665.359 219.282 664.752C219.686 664.415 220.023 663.741 220.09 663.202C220.158 662.662 219.753 662.123 219.484 661.314C216.249 662.393 213.284 663.404 209.981 664.483C209.24 663.606 208.499 662.662 207.623 661.651C207.488 660.505 207.286 659.157 207.151 657.876C205.668 657.404 204.455 657.269 203.444 658.213C202.434 659.157 201.49 659.561 200.142 658.887C199.333 658.483 198.727 659.089 198.053 659.494C197.042 660.1 195.896 660.64 194.683 660.91C194.279 661.044 193.673 660.37 193.133 660.101C193.47 659.629 193.74 658.82 194.077 658.82C196.436 658.82 198.188 657.539 199.94 656.325C200.479 655.988 201.153 655.853 201.557 655.449C202.838 654.101 205.129 655.651 206.207 653.831C207.084 652.28 208.431 651.404 209.981 650.662C210.521 650.393 210.925 649.651 210.386 649.112C209.981 648.707 209.308 648.505 208.768 648.438C208.364 648.37 207.96 648.775 207.488 648.977C205.466 649.786 203.512 650.797 201.49 651.269C198.929 651.876 196.436 652.617 194.144 654.033C193.673 654.37 192.999 654.438 192.19 654.775C191.314 653.696 190.505 652.617 189.629 651.539C189.427 651.471 189.157 651.269 188.82 651.202C185.046 650.662 181.407 651.269 177.835 652.415C174.735 653.426 171.635 654.438 168.468 655.179C165.637 655.853 162.739 656.123 159.842 656.662C158.763 656.865 157.685 656.999 156.741 657.471C153.507 659.359 150.137 660.775 146.296 660.572C145.622 660.572 144.813 660.977 144.139 661.381C142.454 662.46 140.769 663.606 139.219 664.887C137.872 665.966 136.726 667.044 134.704 666.572C134.098 666.438 133.154 667.381 132.413 667.853C131.469 668.393 131.132 669.471 131.469 670.213C131.806 670.887 132.817 671.629 133.558 671.696C136.659 671.898 139.691 671.831 142.387 669.808C143.937 668.595 145.959 667.988 147.778 667.247C148.183 667.112 148.991 667.381 149.328 667.718C149.733 668.123 149.194 669.606 148.654 669.674C147.307 669.876 145.891 670.011 144.274 670.145C143.802 671.561 143.263 673.179 142.656 674.932C141.78 675.067 140.904 675.134 140.028 675.336C139.354 675.539 138.546 675.741 138.006 676.145C135.109 678.235 134.3 678.505 130.593 678.37C129.245 678.303 128.1 678.707 127.224 679.651C126.28 680.595 125.269 680.932 123.989 681.134C122.506 681.404 121.091 682.145 119.676 682.685C115.834 684.235 111.723 685.112 108.152 687.404C107.141 688.078 105.928 688.145 104.58 688.011C102.558 687.808 101.749 688.752 101.682 690.707C101.614 692.258 101.682 693.808 101.682 695.494C99.8623 696.235 98.0427 696.909 96.3579 697.584C95.4144 696.775 95.1448 696.1 95.9535 695.426C96.2905 695.157 96.8296 695.022 97.0992 694.685C97.3688 694.348 97.6383 693.808 97.5035 693.471C97.4361 693.202 96.7622 692.932 96.4253 692.932C95.8187 692.999 95.2796 693.336 94.6731 693.471C91.1013 694.348 90.023 693.808 88.0686 690.303C88.0012 690.168 88.0012 690.033 87.8664 689.629C90.1578 688.55 92.3817 687.067 95.2122 687.471C95.8187 687.539 96.4927 687.539 96.9644 687.269C97.4361 686.999 97.9079 686.325 97.9079 685.853C97.9079 685.449 97.1666 684.842 96.6948 684.775C95.6165 684.572 94.5383 684.707 93.46 684.64C92.1795 684.572 91.1013 684.101 90.2926 683.022C90.1578 682.145 90.6969 681.539 91.4382 681.202C94.7405 679.516 98.0427 677.966 101.278 676.28C102.221 675.808 103.03 676.078 103.973 676.078C104.58 676.078 105.186 675.471 105.928 674.999C102.019 672.64 99.5253 672.64 96.897 675.067C95.5492 676.348 94.2013 677.022 92.3143 676.685C91.91 676.617 91.3708 676.685 90.9665 676.887C89.0795 677.763 87.1251 677.696 85.1033 677.763C83.149 677.831 80.9924 677.763 79.2402 679.516C79.7793 681.539 79.7793 683.561 77.6228 685.044C77.2184 685.314 77.0836 686.123 76.8141 686.662L76.9489 686.797C75.264 685.112 73.1749 685.044 70.9509 685.179C67.3117 685.314 63.6052 685.179 59.7638 685.112C59.6964 684.235 59.8312 683.561 59.4942 683.157C58.8877 682.348 57.8094 681.741 57.4725 680.865C57.2029 680.19 57.742 679.112 57.6746 678.235C57.6746 677.966 57.0007 677.763 56.529 677.494C57.4725 676.011 58.4833 675.404 59.8312 675.808C61.9203 676.415 64.0095 676.55 66.7726 675.336C65.9639 677.561 65.4921 678.977 64.8856 680.595C67.7161 681.471 69.8727 679.449 72.3662 679.112C73.714 678.909 74.5901 678.101 75.264 676.685C74.5901 675.674 73.8488 674.595 72.9053 673.179C74.7923 672.775 76.2749 672.64 77.6902 672.168C79.4424 671.561 80.9924 670.752 81.3294 668.46C81.6663 666.235 84.6316 665.426 86.5186 666.775C87.2599 667.314 87.8664 668.056 88.6077 668.527C89.0795 668.865 89.7534 668.932 90.4947 669.134C89.7534 670.213 89.0121 671.157 88.2034 672.303C91.3034 673.381 93.3926 671.763 95.8187 670.415C95.0774 669.202 94.2687 668.258 93.9317 667.179C93.5948 666.033 93.7296 664.752 93.7296 663.674C94.5383 662.325 95.5492 661.718 96.8296 661.449C97.9079 661.179 98.9188 660.842 99.9971 660.707C101.951 660.37 103.367 659.292 104.378 657.606C105.658 655.516 107.006 653.426 108.219 651.269C109.297 649.381 108.556 647.224 106.534 646.145C105.86 645.808 105.051 645.741 104.378 645.336C103.906 645.067 103.569 644.46 103.165 643.988C104.378 642.438 105.321 641.157 107.478 640.82C110.645 640.348 113.543 638.662 116.373 637.112C117.384 636.572 117.991 635.359 118.732 634.55C118.193 633.134 117.789 631.988 117.317 630.64C116.643 630.64 115.902 630.64 115.026 630.64C114.823 631.651 114.823 632.73 114.419 633.674C114.149 634.348 113.341 634.752 112.734 635.292C112.397 635.561 111.993 635.831 111.521 635.966C109.432 636.505 107.343 636.977 105.186 637.381C104.917 637.449 104.58 637.179 104.041 637.044C104.108 635.224 104.378 633.269 103.299 631.584C102.962 631.044 102.625 630.303 102.154 630.235C99.3231 629.696 98.2449 626.999 95.7513 625.381C98.3796 623.898 100.401 622.146 102.962 621.404C104.378 620.999 106.062 620.123 106.062 618.91C106.062 616.685 107.006 615.674 108.758 614.73C110.308 613.921 111.723 613.381 113.476 613.247C116.104 613.044 117.923 611.292 118.53 608.662C118.597 608.393 118.53 608.056 118.597 607.719C118.665 607.449 118.8 607.112 118.867 606.842C122.439 608.123 123.382 608.056 126.347 605.763C127.291 605.022 128.032 604.213 129.515 604.752C129.987 604.954 130.998 603.808 131.537 603.404C133.424 603.404 135.108 603.741 136.659 603.337C137.939 602.999 138.748 601.651 139.152 600.168C138.478 598.617 137.198 597.876 135.85 598.685C134.165 599.629 132.548 599.224 130.93 599.359C130.526 599.426 129.987 599.359 129.582 599.224C128.774 598.887 128.032 598.146 127.224 598.011C125.741 597.741 124.191 597.539 122.641 597.606C120.484 597.741 118.395 598.078 116.036 598.348C116.508 600.91 116.441 603.202 115.295 605.292C114.621 606.573 113.678 607.516 112.128 607.786C110.106 608.19 108.152 608.595 106.197 607.853C104.715 607.314 103.367 606.707 102.423 605.359C101.345 603.876 100.132 602.393 98.1101 602.123C99.2557 600.64 100.334 599.089 101.48 597.741C103.501 595.314 103.501 595.381 106.467 594.235L106.602 594.438L106.399 594.303C105.119 590.73 107.141 588.101 109.162 585.269C111.049 585.134 112.936 584.662 114.352 582.977C119.002 581.292 122.978 578.258 127.695 576.842C128.976 576.438 129.919 575.898 130.661 574.82C130.863 574.483 130.795 573.943 130.795 573.539C129.987 572.325 128.774 572.528 127.83 572.797C125.269 573.404 122.776 574.213 120.215 574.955C118.597 575.426 117.047 576.168 115.43 576.64C113.071 577.381 110.712 577.584 108.219 576.91C105.051 576.033 101.884 577.516 98.7166 577.921C92.3817 578.797 86.5186 581.494 80.3185 582.707C77.0162 583.381 73.7814 584.528 70.277 584.056C68.5248 583.786 66.6378 584.662 64.8182 585.067C62.1225 585.606 59.292 585.943 56.6637 586.752C53.2941 587.898 49.8571 588.707 46.3527 589.247C42.9831 589.786 39.7482 590.865 36.446 591.674C35.5699 591.876 34.6938 592.213 33.7503 592.28C31.3916 592.078 29.5046 592.415 27.8872 593.898C27.2807 594.438 26.135 594.775 25.3263 594.707C22.9001 594.438 20.474 594.775 18.1153 593.494C16.7 592.685 14.8804 592.617 13.1956 592.146C12.5217 591.943 11.9152 591.539 10.9043 591.067C11.6456 590.393 12.1174 589.719 12.5217 589.719C15.15 589.584 17.1718 588.168 19.3283 586.955C20.2718 586.415 21.3501 586.146 22.2936 585.674C23.7089 585.067 23.8436 583.921 22.9001 582.707C21.8893 581.494 20.5414 581.426 18.8566 581.561C19.1262 580.415 19.1262 579.674 19.4631 579.067C19.9349 577.921 20.6762 576.91 21.1479 575.763C21.9567 573.741 21.6871 572.932 20.0023 571.853C19.4631 571.516 18.8566 571.314 18.3849 570.977C16.5653 569.763 15.6218 568.146 15.8913 565.853C16.0935 563.966 16.6327 563.022 18.5196 562.55C23.1023 561.337 27.7524 560.258 32.3351 559.179C35.1656 558.505 38.0634 557.629 40.9613 557.561C45.544 557.426 49.5875 555.404 53.8333 554.325C57.5398 553.381 57.6072 551.157 54.4398 548.528C54.7768 544.617 57.9442 543.269 60.9095 542.056C64.8856 540.438 69.1313 539.292 73.1749 537.808C75.0619 537.134 76.8815 536.19 78.5663 535.179C79.7793 534.438 79.5772 532.617 78.2293 532.213C76.4771 531.674 74.6575 531.134 72.8379 531.067C70.277 531 67.6487 531.337 64.7508 531.539C64.1443 530.595 63.6052 529.584 62.9312 528.505C62.5943 528.37 62.1225 528.168 61.7182 528.101C58.8877 527.966 56.2594 528.505 53.5637 529.382C50.0593 530.528 46.4201 531.202 42.7135 531.404C40.6917 531.539 38.7374 531.876 36.783 532.011C34.559 532.146 32.2677 532.28 29.9763 532.348C29.7068 532.348 29.5046 532.011 29.0329 531.741C29.8416 530.123 31.1894 529.314 32.8742 528.91C36.7156 527.898 40.6243 526.887 44.4657 525.809C45.207 525.606 45.9483 525.337 46.5549 524.865C47.9027 523.853 49.1158 522.64 50.4636 521.426C49.9919 520.685 49.6549 520.011 49.1158 519.471C48.5767 518.999 47.7679 518.73 47.094 518.325C45.7462 517.382 45.544 516.101 46.4201 514.752C46.6897 514.348 47.094 514.078 47.2962 513.674C47.5658 513.269 47.7006 512.797 47.9701 512.056C47.2962 510.775 46.3527 509.359 45.3418 507.808C45.4092 507.134 45.6114 506.191 45.544 505.314C45.4766 503.831 45.0049 502.685 43.2527 502.28C42.4439 502.078 41.77 501.269 40.9613 500.662C41.2309 499.786 41.4331 499.112 41.77 498.438C43.5896 494.258 43.3874 495.404 40.3548 492.37C39.7482 491.764 38.8721 491.359 38.1308 490.887C37.4569 490.483 36.8504 490.011 36.2438 489.539C36.7156 488.595 36.9852 488.056 37.2547 487.516L37.3895 487.786L37.1873 487.584C37.1873 487.382 37.1873 487.112 37.1199 486.91L37.0526 487.044C39.3439 487.179 41.5005 486.235 43.7918 486.573C45.3418 485.427 47.4984 485.292 48.7788 483.674C50.1267 481.988 52.2158 481.382 53.7659 479.966C54.1702 479.561 54.9115 479.292 55.4507 479.426C58.3486 479.966 60.5051 478.685 62.5943 476.932C62.9312 476.662 63.403 476.528 63.9421 476.258C64.1443 475.651 64.5487 474.842 64.4813 474.168C64.2791 472.483 65.4921 471.606 66.503 471.471C68.0531 471.269 69.0639 470.528 70.0074 469.516C71.0857 468.37 72.164 467.494 73.7814 467.022C75.8032 466.348 76.5445 464.191 77.5554 462.505C78.0271 461.764 78.0945 461.224 79.1054 460.685C81.5315 459.471 83.7555 457.719 86.586 457.247C86.8555 457.179 87.1251 456.977 87.3273 456.707C88.9447 454.82 90.8317 453.674 93.5274 454.415C94.2687 452.932 94.8752 451.786 95.4144 450.707C96.5601 450.37 97.234 452.056 98.447 450.977C99.9971 449.561 98.3122 448.415 98.3796 446.932C99.4579 446.325 100.671 445.651 101.817 445.044C102.288 445.449 102.693 445.651 102.962 446.056C104.175 447.606 105.591 448.011 107.41 447C108.286 446.528 109.365 446.393 110.645 445.988C109.971 444.842 109.432 444.033 108.96 443.157C109.971 441.067 111.319 439.921 113.678 440.932C114.823 439.988 115.902 439.044 116.98 438.168C117.654 436.55 117.317 435.134 116.036 433.584C114.352 433.584 112.532 433.516 110.712 433.584C110.106 433.584 109.432 433.719 108.96 434.056C106.938 435.674 104.445 436.146 102.019 436.415C99.7949 436.685 97.8405 437.561 96.0209 438.775C95.4818 439.112 95.0774 439.719 94.5383 439.853C91.0339 440.865 89.1469 443.764 86.6534 446.056C86.1816 446.46 85.8447 447.067 85.3055 447.269C82.8794 448.146 80.3859 449.022 77.8923 449.561C75.8706 449.966 74.051 450.573 72.501 451.921C71.827 452.528 71.0857 453.134 70.1422 453.943C68.0531 453.741 65.7617 453.606 63.1334 453.337C62.8638 453.539 62.3247 453.809 61.853 454.213C60.6399 455.224 59.3594 455.292 57.9442 454.685C53.8333 452.932 49.9245 453.404 46.0157 455.427C44.6679 456.101 43.1179 456.438 41.6352 456.707C41.0287 456.775 40.2874 456.236 39.6135 455.966C41.8374 454.82 43.8592 453.741 45.881 452.73C47.094 452.123 48.5093 451.786 49.7223 451.247C51.0702 450.64 51.7441 449.494 51.5419 448.348C51.205 446.662 50.3962 445.853 48.7788 445.719C46.2853 445.516 43.8592 445.382 41.3657 445.314C40.8265 445.314 40.1526 445.584 39.7482 445.988C39.0069 446.797 38.0634 447.876 37.3221 448.685C35.3003 449.089 33.5481 449.426 31.7286 449.831C30.3807 450.101 28.9655 450.64 27.685 450.505C25.7306 450.235 24.7871 450.977 24.0458 452.595C23.8436 453.134 23.3719 453.539 23.0349 454.011L23.1697 454.146C22.4284 452.932 21.3501 452.46 20.0023 453.067C18.3175 453.809 16.7 453.539 14.9478 453.269C14.6109 451.853 14.3413 450.573 14.0717 449.292C16.9022 446.73 16.9022 446.73 21.6197 447.269C22.5632 446.865 22.361 446.123 22.361 445.314C22.4284 444.101 23.2371 443.427 24.3828 443.089C27.1459 442.213 29.909 441.269 32.672 440.325C34.1547 439.853 35.4351 439.112 36.3112 437.629C37.5917 435.404 39.6809 434.595 42.2418 434.73C44.3983 434.865 46.5549 434.797 47.9027 432.707C48.5093 433.449 48.9136 433.921 49.3854 434.528C50.3289 434.393 51.3397 434.056 52.3506 434.123C53.9007 434.191 55.3833 434.595 57.2703 434.932C57.8094 435.943 58.4833 437.157 59.1573 438.37C60.6399 441.202 62.6617 442.213 65.5595 441.404C66.4356 441.134 67.177 440.662 68.1878 440.865C69.3335 441.134 70.3444 440.528 70.8835 439.516C71.5575 438.303 72.7705 438.168 73.7814 437.561C76.5445 435.876 79.5772 434.932 82.475 433.584C83.8229 432.977 84.7664 432.101 85.3055 430.685C85.7099 429.539 86.3838 428.46 87.0577 427.449C87.3273 427.044 88.0012 426.91 88.6077 426.573C89.2817 430.415 90.1578 430.955 92.8535 428.932C96.0209 426.573 99.5927 425.292 103.232 424.146C104.378 423.741 105.658 423.539 106.197 421.921C105.793 421.584 105.186 420.91 104.849 420.977C102.895 421.449 100.806 421.853 99.1884 422.865C97.0992 424.213 95.0774 424.82 92.7861 423.809C90.6969 422.932 88.4056 423 86.3164 421.988C84.9012 421.314 83.0816 421.247 81.4641 422.393C79.7793 423.539 77.8923 423.674 75.3988 423.606C74.7923 423.606 73.9836 423.471 73.6466 423.809C72.0966 425.224 70.0748 425.494 68.2552 426.303C67.3791 426.707 66.7726 427.651 66.0987 428.258C66.84 430.887 67.7835 433.112 67.4465 435.674C63.4704 434.393 63.7399 435.337 63.403 429.876C61.9204 428.528 59.8986 429 58.2138 428.46C57.6072 428.258 56.7985 429.067 56.0572 428.46C55.4507 427.988 54.8441 427.516 54.1028 427.044C55.3833 426.168 56.0572 425.292 57.3377 425.629C57.8768 425.764 58.6181 425.764 59.0899 425.427C60.3703 424.483 61.853 424.618 63.066 425.022C64.7508 425.629 66.1661 425.089 67.4465 424.28C69.4009 423.067 71.2205 421.584 73.7814 421.786C74.051 421.786 74.3879 421.651 74.6575 421.449C78.0271 418.55 82.6098 418.28 86.3164 416.056C87.3947 415.449 88.4056 414.842 89.4838 414.236C90.8991 413.427 92.3817 412.618 94.2013 411.539C94.7405 410.123 95.4144 408.236 96.2231 406.078C93.123 405.269 90.4273 405.674 88.2034 407.427C85.4403 409.651 82.1381 410.258 78.9032 411.337C78.2293 411.539 77.4206 411.337 76.5445 411.337C76.6793 410.662 76.6119 410.056 76.8815 409.854C79.7793 407.629 81.7337 404.191 85.1033 402.842C86.7881 402.842 86.9903 405 88.8099 404.73C90.4273 404.46 91.236 403.516 92.1121 402.438C91.9774 400.55 89.3491 400.887 89.2817 399.134C89.2143 397.516 87.5295 397.045 86.9229 395.696C86.6534 394.078 86.8555 392.528 87.3947 390.775C88.2708 388.213 89.2817 385.584 88.7425 382.618C88.5403 381.741 89.2817 380.663 89.6186 379.584C88.6077 378.033 86.8555 377.898 85.1707 378.033C83.8903 378.168 82.812 378.033 81.5989 377.494C79.8467 376.685 77.9597 377.089 76.2075 377.898C74.6575 378.64 73.1075 379.382 72.9053 381.337C70.3444 380.123 67.7835 378.91 65.4921 377.831C63.8073 378.303 63.066 380.191 61.3812 379.179L61.4486 379.247C60.9095 378.91 60.3703 378.303 59.8986 378.37C57.5398 378.775 55.0463 378.64 52.8224 379.786C49.6549 381.471 46.0831 381.539 42.3092 382.146C42.5787 381.202 42.7135 380.595 42.8483 380.191C43.2527 379.988 43.5222 379.651 43.7244 379.651C47.7006 379.988 50.1267 378.033 51.4071 374.258C52.4854 373.988 53.4963 373.719 54.5072 373.382C56.3268 372.775 57.8094 371.696 59.0225 370.28C59.8986 369.269 59.292 367.651 57.9442 367.449C57.2703 367.516 56.4616 367.516 55.7876 367.786C54.9789 368.123 54.305 368.73 53.2267 369.404C52.8898 368.595 52.418 368.056 52.5528 367.584C52.9572 365.898 53.2941 364.281 51.6767 363.134C53.3615 360.168 56.4616 358.483 56.2594 355.179C59.8986 352.55 64.1443 351.606 67.1096 348.505C66.84 346.955 66.5704 345.472 66.3008 343.854C67.5139 343.247 68.5922 342.707 69.6705 342.168C71.0857 341.494 71.9618 340.55 71.2205 338.865C70.8835 338.056 71.3553 337.382 71.8944 336.842C72.5683 336.236 73.3097 335.696 74.1184 334.955C74.6575 332.932 74.8597 330.91 72.164 329.157C71.0857 329.157 69.5357 329.157 67.9857 329.157C67.9857 329.09 67.9183 329.022 67.9183 328.955C67.9857 329.022 68.0531 329.09 68.1204 329.157C67.8509 329.292 62.9986 330.168 62.7291 330.168C60.0334 329.764 57.2703 330.168 54.5746 329.224C53.0919 328.685 51.6093 329.696 50.1941 330.033L50.3289 330.236C50.1941 330.033 50.1267 329.831 49.9919 329.561C49.7223 329.764 49.4528 329.966 49.2506 330.236L49.318 330.101C48.4419 330.101 47.4984 330.101 46.6223 330.101C46.4201 328.415 47.4984 327.876 48.4419 327.606C50.3962 327.134 52.418 327.134 54.305 328.281C55.7876 327 57.2703 325.988 58.4159 324.573C59.4268 323.292 60.0334 321.674 60.8421 320.191C60.3029 318.37 58.3485 318.64 57.0007 317.696C58.3485 315.674 59.7638 313.651 61.1116 311.561C61.5834 310.685 62.3921 309.809 62.6617 308.797C63.2008 306.775 64.6834 305.494 65.9639 304.146L65.8965 304.281C66.7726 303.202 67.9857 303 69.2661 303.337C71.0183 303.876 72.7031 304.55 74.5227 305.157C77.9597 303.943 81.5315 302.46 85.1707 301.516C87.799 300.842 89.0121 298.483 91.1013 297.337C91.3708 297.202 91.236 296.46 91.3708 296.056C92.0448 293.561 92.7187 291.067 93.5274 288.573C94.4035 286.078 94.2013 284.932 92.1795 283.314C91.573 282.842 90.8991 282.505 90.0904 282.033C90.8317 280.078 91.5056 278.326 92.1795 276.438C92.9882 276.438 93.1904 278.056 94.6057 277.517C96.6948 276.842 98.9862 276.573 101.21 276.101C101.345 276.101 101.48 276.236 101.749 276.303C102.625 277.382 101.345 278.191 101.278 279.202C101.21 280.752 101.817 281.629 103.367 281.629C104.445 281.629 105.523 281.494 106.602 281.494C108.623 281.561 110.645 281.629 111.858 282.977C116.98 282.438 120.552 279.943 123.247 275.899C126.415 277.179 129.38 275.696 132.413 276.033C132.682 276.977 132.952 277.854 133.222 278.73C132.952 278.73 132.615 278.663 132.345 278.73C132.076 278.797 131.941 279.067 131.739 279.202C132.008 279.337 132.345 279.606 132.48 279.539C132.75 279.337 132.952 278.932 133.154 278.663C136.322 280.078 139.556 279.134 142.656 278.46C145.959 277.719 149.261 277.179 152.563 276.573C155.528 276.033 158.291 274.55 161.122 273.404C161.526 273.269 161.796 272.797 162.065 272.46C162.2 272.258 162.268 271.854 162.2 271.584C162.133 271.179 161.931 270.708 161.661 270.101C159.235 269.696 156.876 269.696 154.585 270.842C152.226 271.988 150.474 271.179 148.924 269.292L149.059 269.427C149.328 268.415 150.137 268.011 151.081 267.809C153.035 267.337 154.922 266.865 156.607 265.651C157.213 265.247 158.022 265.045 158.763 264.977C162.335 264.64 165.839 263.292 169.546 263.696C170.085 263.764 171.029 263.359 171.096 263.09C171.298 261.135 172.916 260.932 174.263 260.258C174.533 260.326 174.803 260.393 175.14 260.528C174.937 260.393 174.735 260.191 174.466 260.056C175.814 258.842 176.016 257.224 176.285 255.606L176.42 255.269L176.083 255.337C175.948 254.932 175.611 254.258 175.814 254.123C176.353 253.584 176.959 253.112 177.633 252.775C178.577 252.37 179.587 252.303 180.531 251.899C181.34 251.494 182.014 250.82 182.822 250.348C183.631 249.876 184.507 249.337 185.383 249.269C188.416 249.135 191.044 247.719 193.807 246.977C196.503 246.236 199.064 245.292 201.76 244.618C204.253 244.011 206.342 242.797 208.297 241.314C209.442 240.505 210.588 239.966 212.071 239.764C213.553 239.629 215.103 239.157 216.451 238.483C217.462 238.011 218.203 238.618 218.945 238.685C219.147 238.348 219.349 238.146 219.484 237.876C221.101 234.168 222.786 233.359 226.627 234.842C227.638 235.247 228.38 234.775 229.256 235.112L229.188 234.977C229.525 235.584 229.93 235.786 230.267 234.977L230.199 235.112C234.445 234.505 238.758 233.966 242.128 231C243.071 230.191 244.689 230.797 245.295 229.382L245.228 229.314C246.576 229.449 247.991 229.584 249.473 229.719C250.821 228.573 251.563 226.618 253.584 226.281C253.719 226.281 253.921 226.146 253.989 226.078C255.404 222.842 258.437 222.64 261.334 222.168C262.076 222.033 262.817 221.831 263.558 221.494C264.839 220.887 266.187 220.415 267.198 219.472C268.343 218.393 269.354 220.618 270.365 219.337C270.837 218.797 271.646 218.595 272.252 218.191L272.185 218.258C272.656 218.258 273.128 218.191 273.6 218.258C276.296 219.067 278.991 219.135 281.754 218.46C282.159 218.326 282.765 218.932 283.439 219.269C284.18 217.786 284.922 216.236 285.865 214.348C286.27 214.415 287.146 214.483 288.022 214.483C288.965 214.55 289.841 214.483 290.852 214.483C291.594 215.359 292.268 216.371 293.144 217.112C293.885 217.719 294.761 218.258 295.772 216.91C296.581 215.831 297.592 216.236 298.266 217.382C299.816 219.876 301.298 220.618 303.926 219.944C304.668 219.741 305.342 219.404 306.083 219.202C306.824 219 307.498 218.797 308.442 218.528C309.25 219.472 310.127 220.55 310.868 221.494C312.62 220.82 314.238 220.213 315.788 219.606C316.394 219.404 317.068 219.337 317.54 218.932C320.505 216.37 324.212 215.224 327.783 213.741C329.199 213.135 330.479 212.258 332.096 212.326C332.838 212.326 333.579 211.921 334.253 211.584C336.881 210.303 339.375 208.887 342.003 207.606C344.429 206.393 346.451 204.37 349.214 203.696C350.09 203.494 350.966 202.415 351.506 201.472C352.786 199.18 354.875 198.168 357.166 197.899C360.401 197.494 362.356 195.404 363.838 192.977C364.58 191.696 365.186 190.887 366.669 190.887C366.871 190.887 367.073 190.483 367.275 190.281L367.141 190.348C367.343 190.146 367.612 189.944 367.747 189.674C369.162 187.651 370.847 185.899 373.408 185.157C375.228 185.831 374.352 187.854 375.228 189.202C376.239 189.674 377.452 190.55 378.597 189.809C379.81 189 381.293 188.326 381.63 186.573C381.765 185.696 382.169 184.685 382.776 184.078C383.652 183.202 383.921 182.46 383.652 181.247C383.517 180.573 383.921 179.764 384.123 179.022C384.393 177.809 385.202 177.135 386.482 177.337C388.706 177.674 389.515 175.989 390.526 174.573C390.593 174.505 390.256 174.101 389.987 173.629C392.48 172.348 394.704 170.528 397.804 170.865C398.748 171 399.758 170.123 400.769 169.719L400.702 169.651C401.713 170.46 402.724 171.067 404.004 170.056C405.082 169.247 406.296 168.505 407.441 167.764L407.374 167.899C408.25 167.764 409.193 167.764 410.07 167.427C412.563 166.415 415.057 166.078 417.617 166.887C418.898 167.292 419.639 166.55 420.448 165.876C420.515 165.944 420.583 166.011 420.65 166.078C420.515 166.078 420.448 166.011 420.313 166.011C420.92 165.404 421.526 164.865 422.133 164.258L422.065 164.393C424.289 164.123 426.378 163.584 427.052 161.09C427.389 159.809 428.468 160.213 429.479 159.876C429.613 159.067 429.748 158.191 429.883 157.18C432.713 155.764 435.544 154.348 438.711 152.73C438.846 151.382 440.666 150.303 440.666 148.348C440.666 148.146 441.003 147.741 441.272 147.674C443.024 147.337 442.62 146.056 442.553 144.775C443.9 143.899 445.181 142.483 446.731 142.146C450.303 141.269 452.864 138.708 455.762 136.887C457.312 135.876 458.862 134.865 460.479 134.123C461.625 133.584 462.703 133.382 463.175 132.101C463.309 131.764 463.781 131.292 464.118 131.292C466.814 131.022 468.431 129.135 470.184 127.449C470.723 126.91 471.262 126.438 471.868 125.966L471.734 126.101C473.216 126.438 474.092 126.168 474.294 124.416C474.362 123.944 475.036 123.607 475.44 123.202L475.305 123.067C477.934 124.416 480.023 123.067 481.977 121.584C482.382 121.247 482.719 120.775 483.123 120.438C484.74 118.82 486.425 117.674 488.784 117.337C489.795 117.202 490.671 116.595 490.806 115.247C490.873 114.64 491.547 113.966 492.153 113.494C492.827 112.955 493.569 113.022 494.108 113.831C494.04 113.899 493.906 113.899 493.838 113.966C493.906 113.899 494.04 113.831 494.108 113.764C494.58 113.022 495.051 112.281 495.59 111.404C496.197 111.876 496.736 112.55 497.41 112.753C498.354 112.955 499.162 112.55 499.836 111.741C500.443 111 501.117 110.393 501.791 109.719C502.936 108.438 504.149 107.562 505.969 107.157C507.317 106.82 508.934 106.55 510.08 105.202C510.956 104.191 512.304 103.517 513.854 104.191C514.056 104.258 514.595 104.056 514.595 103.921C514.999 101.562 517.965 103.382 518.841 101.157C519.313 99.8762 520.997 99.0672 522.143 97.9886C522.547 98.865 523.356 99.202 523.895 98.4605C525.108 96.7077 527.332 96.5728 528.747 95.1571C530.095 93.8088 531.78 92.7301 533.398 91.6515C533.6 91.5167 534.004 91.6515 534.274 91.7189V91.6515C534.611 91.7863 535.082 92.1908 535.352 92.056C536.43 91.5167 537.441 90.8425 538.587 90.3032C539.261 89.9661 540.002 89.8987 540.743 89.7639L540.676 89.629C541.08 89.629 541.417 89.629 541.822 89.629L541.754 89.6964C543.304 89.629 544.787 89.4942 546.472 89.4268C546.607 89.2919 546.943 89.2245 547.078 88.9549C548.022 87.4717 548.965 86.1234 550.92 85.5167C553.615 84.7751 555.839 83.0897 557.861 81.1346H557.726C559.209 81.6066 560.085 79.9212 561.5 80.056C562.848 77.4942 565.679 77.5616 567.835 76.4156C567.903 76.6178 568.105 76.82 567.7 76.5504C569.318 75.4717 570.935 74.3931 572.62 73.247C572.62 71.6965 574.035 70.0111 572.957 68.056C571.744 67.5167 570.666 67.8538 569.52 68.4605C566.622 69.9436 563.589 71.0223 560.759 72.5729C558.872 73.6515 556.85 73.9212 554.896 74.5279C552.874 75.1347 550.852 75.7414 548.763 75.9436C547.415 76.0785 546 76.4156 544.787 77.0897C542.361 78.3706 540.002 79.7863 537.643 81.2021C532.387 84.3706 527.332 87.8762 522.345 91.5167C521.267 92.3257 519.919 92.865 518.841 93.4043C516.954 92.9998 515.269 92.7301 513.854 92.3931C508.193 94.6852 503.341 97.8537 499.432 102.236C496.467 101.899 493.771 101.629 491.21 101.359C490.132 99.1346 492.086 97.247 491.075 95.2919L490.94 95.3594C493.03 95.4942 495.119 95.629 497.275 95.7638C497.612 95.0897 497.949 94.5504 498.084 94.011C498.421 92.5953 499.432 91.6515 500.645 91.7863C502.195 92.056 502.869 91.1122 503.745 90.3706C505.025 89.3594 506.373 88.2807 507.654 87.2021C508.395 86.5279 509.069 85.7863 509.945 84.8425C510.147 85.247 510.282 85.5841 510.417 85.8538C510.552 86.1234 510.754 86.3257 511.091 86.7302C511.765 86.3257 512.506 85.8537 513.18 85.4492C513.045 84.7751 512.91 84.3706 512.843 83.8987L512.776 83.9661C513.315 83.7639 514.258 83.5616 514.258 83.3594C514.258 82.483 514.46 81.8088 515.202 81.4717C516.819 80.7302 518.032 79.0448 520.121 79.3144C520.121 79.3818 520.189 79.4493 520.189 79.5167C520.121 79.4493 520.054 79.3818 519.986 79.247C520.93 78.7077 521.806 78.0335 522.817 77.629C523.491 77.3594 524.502 77.1571 525.041 77.4942C526.658 78.438 527.939 77.9661 529.421 77.1571C533.869 74.5953 538.317 72.1684 543.035 70.2807C544.18 69.8088 545.057 68.865 546.202 68.3257C548.359 67.1796 550.65 66.1684 552.739 64.8875C554.694 63.674 556.446 62.1234 558.333 60.7751C559.478 60.0335 560.759 59.4268 561.972 58.8201C563.792 57.9437 565.544 57.0672 567.7 55.9886C568.105 56.2583 568.711 56.6628 569.318 57.0672C570.194 57.674 571.07 57.4717 571.946 57.1347C573.631 56.3931 575.316 55.6515 576.933 54.91C579.427 53.7639 579.427 53.7639 581.516 55.7864C585.559 54.91 589.535 53.6965 592.299 50.1234C593.309 50.4605 594.186 50.7302 594.994 51.0673C597.353 52.0785 599.51 51.8088 601.531 50.3257C603.081 49.247 604.699 48.3706 606.653 48.6403C607.462 49.5167 606.384 51.2695 608.136 51.7414C609.484 52.1459 610.629 51.8762 611.64 51.1347C612.516 50.5279 613.19 49.5841 614.066 48.9774C614.471 48.7077 615.212 48.6403 615.684 48.7751C616.223 48.9774 616.29 50.3931 615.818 50.865C614.605 51.8088 613.46 52.9549 612.112 53.5616C609.214 54.91 606.181 56.1234 603.553 58.0785C603.216 58.3482 602.677 58.6178 602.273 58.5504C600.453 58.2807 599.442 59.6965 598.297 60.5729C596.679 61.7864 595.466 63.2695 593.175 63.5392C592.231 63.674 591.422 64.6852 590.546 65.3594C591.827 66.9099 591.827 66.9099 594.455 67.8538C596.612 66.5729 598.903 65.292 601.599 64.9549C602.475 64.8201 603.216 64.1459 604.092 63.7414C605.373 63.2021 606.518 62.4605 608.068 62.5953C609.888 62.7302 611.371 62.056 612.045 60.1684C612.516 58.9549 613.595 58.2807 614.875 58.0111C615.482 59.2246 616.088 60.3706 616.762 61.7189C617.773 61.3819 618.649 61.0448 619.525 60.8425C620.94 60.5055 622.693 61.1122 623.029 62.3257C623.636 65.0897 625.793 65.8313 628.017 66.7077C630.038 66.1684 631.925 64.6852 634.217 65.4268C634.351 66.7751 633.475 67.3144 632.397 67.6515C631.656 67.8538 630.847 67.9886 630.106 67.9886C627.612 68.1234 625.59 68.9998 624.108 71.0223C622.76 72.8425 620.536 73.3818 618.716 74.5279C617.166 75.5391 616.695 76.8875 617.301 78.5054C617.773 79.8538 619.188 80.7302 620.603 80.3931C621.345 80.2582 622.019 79.8537 622.693 79.5167C623.097 79.3144 623.434 78.9773 623.771 78.6403C624.31 78.1009 624.782 77.4942 625.456 76.6852C625.995 76.6178 626.736 76.3481 627.545 76.3481C631.117 76.483 634.621 75.8088 637.991 74.9324C639.878 74.4605 641.495 74.4605 643.247 75.7414C644.46 76.6852 646.078 75.6066 646.078 73.9212C646.145 72.3706 645.943 70.8875 645.875 69.3369C647.763 68.7302 649.582 68.056 651.469 67.4493C652.076 67.247 652.682 67.1122 653.289 67.1122C657.737 67.1796 661.713 65.3594 665.689 63.674C667.576 62.865 669.328 61.9886 671.417 62.9998C672.024 63.2695 672.9 62.9998 673.641 62.865C674.719 62.7302 675.798 62.4605 676.809 62.3257L676.741 62.2583C677.011 62.3257 677.483 62.6628 677.617 62.5279C679.37 61.1122 681.122 61.1796 683.076 62.5279C682.402 63.7414 681.459 64.483 680.313 64.8201C677.685 65.4942 675.596 66.6403 673.776 68.865C672.563 70.3481 670.676 71.7639 668.25 71.6965C666.565 71.629 665.285 72.6403 664.678 74.1908C664.476 74.6627 664.745 75.3369 664.813 76.1459C665.958 75.8088 666.835 75.5391 667.643 75.2695C667.643 75.4717 667.845 75.8088 667.711 75.9436C666.835 77.292 665.352 77.8987 664.004 78.5729C661.645 79.8538 661.376 80.7976 662.05 83.4942C662.521 85.3818 662.252 86.1234 660.769 86.7976C658.815 87.674 656.86 88.5504 654.906 89.4268C653.491 90.1009 653.019 90.7751 653.154 92.2582C653.221 92.7301 653.221 93.2021 653.423 93.6066C654.367 95.4268 653.963 97.1796 653.423 98.9998C652.75 101.629 652.884 101.764 655.58 104.73C657.467 104.326 659.287 103.584 660.904 102.303C661.713 101.629 662.656 101.09 663.532 100.483L663.398 100.348C662.791 102.708 661.915 104.663 659.017 105.337C656.726 105.876 656.591 108.101 656.995 110.123C658.747 111.539 660.163 110.46 661.645 109.786L661.511 109.651C661.78 110.326 662.252 111 662.387 111.741C662.521 112.753 662.454 113.831 662.454 114.708C664.408 116.123 666.093 116.528 667.913 115.314C668.182 115.112 668.519 114.842 668.722 114.91C671.552 115.719 672.428 113.562 673.709 111.809C674.315 111 675.259 110.528 676.269 109.651C676.539 110.595 676.607 111.472 676.876 111.607C677.483 111.876 678.291 111.741 679.033 111.674C679.302 111.674 679.706 111.472 679.841 111.269C681.459 109.045 683.885 109.517 686.244 109.517C688.602 106.55 691.433 104.191 694.533 102.168C694.668 102.101 694.802 102.034 694.87 101.899C695.409 101.022 696.285 100.146 696.42 99.202C696.555 98.4605 695.813 97.5841 695.409 96.5728C696.15 95.4268 697.026 94.2133 697.835 92.9324C698.576 91.8537 700.396 91.7863 700.531 89.7639C697.902 89.8987 696.218 92.5279 693.252 91.7189C693.724 90.9773 694.263 90.3706 694.533 89.629C694.87 88.82 695.005 87.8762 695.207 86.9998C692.309 85.4493 689.95 86.7976 687.659 88.011C683.481 90.3032 679.167 92.3257 674.383 93.6066C674.248 92.4605 675.124 92.056 675.663 91.4492C676.404 90.6403 677.213 89.8987 677.954 89.1571C678.628 88.5504 679.302 87.9436 679.909 87.4043C679.774 86.056 678.763 86.4605 678.156 86.1908C678.224 85.9886 678.291 85.5841 678.426 85.5167C679.706 84.6403 680.987 83.8313 682.267 83.0223C682.672 82.7526 683.009 82.483 683.346 82.1459C683.817 81.674 684.02 80.9998 683.48 80.5279C683.076 80.1908 682.133 79.8537 681.863 80.056C679.37 82.483 676.269 83.7639 673.372 85.4492C670.609 87.0672 668.048 89.0897 665.352 90.9773C664.745 91.3818 664.071 91.7189 663.465 91.9886C662.319 90.9099 662.724 90.1009 663.532 89.4942C664.88 88.483 666.363 87.6066 667.778 86.6627C670.474 84.9099 672.428 82.7526 673.035 79.4493C673.439 77.0897 675.191 75.6066 677.213 74.7302C678.696 74.056 679.639 72.9099 680.92 71.7639C685.3 73.5167 687.996 70.3481 691.163 68.2583C691.096 66.438 689.276 67.1796 688.265 66.3032C690.557 65.0897 692.039 63.2021 694.6 62.9998C695.409 62.9324 695.409 62.6628 696.824 60.2358C696.083 60.0335 695.342 59.8987 694.398 59.629C694.735 58.7526 695.072 57.9437 695.342 57.1347C695.611 56.3931 695.948 55.7189 696.285 54.8425C698.105 54.2358 700.126 53.7639 701.879 52.8201C703.631 51.9437 705.181 50.5953 706.866 49.3819C707.742 50.1908 708.55 50.9324 709.494 51.8762C713.537 51.4043 717.648 52.483 721.827 51.9437C722.77 51.8088 723.781 52.483 724.994 52.8201C724.32 54.9099 723.714 56.7302 723.175 58.4156C725.601 60.5729 728.229 60.3032 730.79 60.5055L730.857 60.3706C731.868 61.7863 730.857 63.3369 730.992 65.0897C732.205 64.6852 733.149 64.3481 734.092 64.0785C734.699 63.9436 735.305 63.8088 735.912 63.8762C736.653 63.9436 737.597 64.0111 738.068 64.4156C740.562 66.9774 743.46 65.9661 745.751 64.8201C748.582 63.4717 751.277 62.1908 754.377 61.6515C757.545 61.1122 759.499 58.9549 761.251 56.4605C761.588 55.9886 761.656 55.3819 761.79 54.7751C761.993 53.6965 762.127 52.6852 762.262 51.6066L762.127 51.4717C762.262 51.8762 762.397 52.3482 762.599 52.8875C763.88 53.0897 764.823 52.0785 765.969 51.8762C767.182 51.674 768.395 51.5392 769.608 51.2021C770.754 50.865 771.899 50.3931 772.978 49.8538C774.46 49.1122 776.078 48.438 777.426 47.4268C781.132 44.6628 784.771 41.8313 788.343 38.9324C789.489 37.9886 790.904 37.1122 791.039 35.3594C791.106 34.9549 791.51 34.5504 791.847 34.3482C794.476 32.7976 797.104 31.1796 799.8 29.6965C800.272 29.4268 800.945 29.6291 801.552 29.5617L801.619 29.9661ZM704.574 131.292C704.642 131.224 704.776 131.09 704.844 131.022C704.776 131.157 704.709 131.292 704.642 131.427L704.44 131.629L704.574 131.292ZM126.684 279.741C125.539 279.741 125.539 280.55 125.539 281.359C125.337 281.157 125.134 280.887 124.865 280.752C124.663 280.618 124.258 280.618 124.124 280.685C123.921 280.82 123.787 281.224 123.854 281.427C124.056 282.505 124.865 282.573 125.943 281.629C126.617 281.09 127.021 280.483 126.617 279.539C127.021 279.539 127.561 279.674 127.089 278.932C126.954 279.269 126.819 279.472 126.684 279.741ZM701.676 97.9212C701.542 98.1908 701.272 98.3931 701.205 98.6627C701.137 98.9324 701.205 99.202 701.205 99.4717C701.474 99.4717 701.811 99.5391 701.879 99.4043C702.013 99.202 702.013 98.865 701.946 98.6627C701.879 98.3931 701.676 98.1234 701.542 97.8537L701.811 97.7863L701.676 97.9212ZM776.347 150.977C777.762 150.371 779.11 149.764 780.458 149.09C780.526 149.022 780.458 148.618 780.458 147.607C778.773 148.82 776.752 148.753 776.415 151.112C776.28 151.112 776.145 151.112 776.078 151.112C776.01 151.112 776.01 151.247 775.943 151.314C776.078 151.247 776.212 151.112 776.347 150.977ZM682.941 136.955C682.672 137.09 682.133 137.157 682.133 137.292C681.863 139.517 682.267 141.472 684.626 142.415C686.176 142.281 686.985 141.404 687.254 139.989C686.378 137.831 684.154 137.966 682.739 136.82C683.009 136.82 683.211 136.753 683.48 136.753C683.413 136.82 683.211 136.887 682.941 136.955ZM705.518 96.0335C705.181 95.8313 704.911 95.629 704.574 95.4268C704.44 95.7639 704.237 96.0335 704.103 96.3706C704.372 96.3706 704.574 96.3706 704.844 96.3032C705.113 96.2358 705.383 96.1009 705.653 95.9661C705.518 96.8425 705.922 97.5167 706.798 97.5841C707.54 97.6515 708.416 97.6515 709.022 97.3144C710.909 96.3032 712.796 95.3594 714.953 94.9549C715.627 94.82 716.301 94.2807 716.233 93.3369C710.64 91.3818 709.966 91.5167 706.394 95.5616C706.057 95.6964 705.787 95.8313 705.518 96.0335ZM827.565 116.326C828.374 115.921 829.25 115.584 829.924 115.045C831.744 113.629 833.429 111.944 835.248 110.595C837.337 109.045 838.887 107.292 838.887 104.798C840.505 103.045 842.796 102.303 843.335 99.674C842.594 98.9998 841.853 98.056 840.909 97.7863C839.696 97.4492 838.483 98.1908 837.607 99.1346C836.866 99.8762 836.192 100.753 835.653 101.696C835.113 102.64 834.776 103.651 834.439 104.663C833.361 107.764 832.216 110.73 829.587 112.887C828.509 113.764 827.7 114.977 827.633 116.46L827.498 116.595L827.565 116.326ZM102.356 663.808C100.941 663.606 99.9971 661.516 98.0427 662.932C98.3122 663.674 98.784 664.483 98.8514 665.359C98.9862 666.37 98.784 667.381 98.7166 668.258C99.9971 669.741 101.345 670.213 103.03 669.606C104.445 669.067 105.928 668.527 107.343 668.056C108.96 667.584 110.982 666.775 112.128 668.258C113.408 669.876 114.621 669.606 116.171 669.269C117.654 668.932 119.204 668.73 120.687 668.595C121.967 668.46 123.045 667.718 122.776 666.707C122.237 664.55 123.18 663.202 124.528 661.786C125 661.314 125.134 660.438 125.606 659.898C126.011 659.426 127.156 659.696 126.684 658.213C123.787 659.089 121.023 658.887 118.193 657.741C116.778 657.202 115.16 657.134 113.61 657.067C112.599 656.999 111.252 657.067 110.578 657.606C109.297 658.685 108.219 659.157 106.467 658.82C104.917 658.55 103.501 659.426 103.097 661.314C102.895 662.19 102.491 663.067 102.154 663.876L102.356 663.808ZM736.316 105.337C739.416 105.067 741.842 103.584 743.797 101.292C744.403 100.618 744.942 99.8088 745.616 99.202C746.155 98.6627 746.829 98.1234 747.503 97.9886C749.053 97.6515 750.738 97.5167 752.423 97.247C752.221 98.1908 752.49 99.0672 753.164 98.5953C755.253 97.0447 757.275 95.3594 759.162 93.6066C760.038 92.7976 761.184 91.7189 761.251 90.7077C761.386 89.2245 762.262 88.483 763.138 87.674C764.621 86.3257 766.171 85.0448 767.923 83.5616C767.047 83.2245 766.508 83.0223 765.969 82.82L766.104 82.9549C767.451 81.674 766.036 79.9212 766.98 78.3706C771.293 76.0785 774.393 72.1684 777.56 68.4605C777.897 68.4605 778.234 68.3257 778.504 68.4605C781.267 70.0111 783.558 69.1347 785.58 67.0448C786.523 66.0335 787.534 65.0223 788.343 63.9437C788.882 63.2695 789.624 62.5279 789.152 61.3819C788.141 60.438 786.86 59.8987 785.378 60.2358C783.693 60.6403 782.21 61.4493 781.199 62.9998C780.391 64.2807 779.852 65.7639 777.965 66.5054C777.56 65.9661 777.156 65.4268 776.752 64.8201C776.28 64.1459 775.808 63.4043 775.269 62.5953C777.021 60.3706 778.841 58.0785 780.795 55.5841C780.189 55.1796 779.717 54.6403 779.245 54.5729C777.83 54.3032 776.482 54.7751 775.336 55.6515C773.989 56.6628 772.641 57.7414 771.428 58.8875C769.406 60.7751 767.249 62.4605 764.891 64.0111C762.734 65.4268 760.577 66.8425 758.758 68.7976C756.736 70.9549 754.377 72.9774 751.479 74.3257C749.727 75.1347 748.312 76.7526 746.762 78.0335C745.01 79.5841 743.325 81.1347 741.64 82.7526C738.742 85.5841 735.912 88.3481 733.149 91.247C732.542 91.8537 732.273 92.7301 731.329 94.483C734.968 92.6627 738.203 93.0672 741.034 90.5728C741.034 91.7863 740.764 92.5953 741.101 93.2021C742.112 95.1571 741.505 96.8425 740.292 98.3256C739.349 99.4717 738.136 100.483 736.923 101.696C736.788 102.775 736.586 104.123 736.451 105.472C736.384 105.607 736.384 105.674 736.316 105.809C736.181 105.539 736.249 105.472 736.316 105.337ZM281.215 221.831C280.272 222.573 279.598 223.247 278.789 223.719C277.778 224.393 276.767 225.135 275.689 225.606C271.174 227.427 266.456 228.708 262.143 231.202C261.267 231.741 260.121 231.809 259.043 232.078C255.471 233.022 252.102 234.505 249.204 236.797C248.328 237.472 247.115 238.281 247.519 240.101C249.136 240.91 250.889 241.651 252.978 240.775C253.787 240.438 254.932 239.966 255.606 240.236C259.447 241.854 262.076 239.764 264.569 237.404C265.985 236.056 267.669 235.382 269.422 235.045C271.376 234.708 273.398 234.775 275.352 234.573C276.093 234.505 276.835 234.303 277.441 233.899C278.048 233.494 278.385 232.618 279.059 232.281C279.665 231.944 280.541 232.213 281.283 232.011C283.035 231.606 284.383 230.663 285.057 228.977C284.922 227.561 284.787 226.213 284.652 224.797C283.574 223.786 282.496 222.91 281.215 221.831ZM487.638 126.438C484.538 125.562 484.538 125.562 483.797 125.899C481.303 127.045 478.675 128.123 476.316 129.472C474.497 130.483 472.812 131.359 470.655 131.359C469.375 131.359 468.297 131.831 467.488 132.91C466.949 133.651 466.14 134.123 465.331 134.663C462.164 136.753 459.131 139.112 455.762 140.932C454.953 141.337 454.212 141.944 453.47 142.483C452.729 143.022 452.392 143.696 452.998 144.438C453.335 144.842 454.009 145.247 454.548 145.18C458.592 144.91 462.164 142.887 466.005 141.809C466.41 141.674 466.881 141.337 467.083 140.932C468.499 138.505 471.599 137.764 472.947 135.135C473.149 134.73 473.957 134.528 474.497 134.326C478.54 132.842 482.314 130.82 485.886 128.46C486.627 128.056 487.032 127.247 487.638 126.438ZM678.493 124.685C680.583 123.202 683.009 121.921 684.828 120.101C687.928 117 691.096 113.899 694.128 110.798C693.792 109.719 693.455 108.775 693.05 107.494C691.433 108.303 690.018 108.91 688.805 109.719C687.389 110.663 686.109 111.809 684.694 112.753C683.076 113.899 681.594 115.449 679.437 115.382C677.348 115.314 675.933 116.393 674.652 117.809C673.911 118.618 673.169 119.359 672.293 120.303C670.676 119.562 669.126 118.82 667.441 119.764C665.958 120.64 663.937 120.977 663.532 123.539C666.228 123.337 668.722 123.607 670.474 121.584C671.417 121.989 672.428 122.191 673.102 122.798C673.911 123.539 674.652 124.146 675.865 124.146C676.606 124.011 677.483 124.483 678.493 124.685ZM363.636 603.808C364.512 604.348 365.254 605.157 365.995 605.157C367.208 605.224 368.623 605.089 369.567 604.483C371.925 602.932 374.554 602.123 377.182 601.112C378.597 600.572 379.945 599.831 381.226 598.954C382.641 598.011 383.18 596.662 382.236 594.775C381.428 594.91 380.484 594.91 379.676 595.179C376.239 596.528 372.936 598.28 369.432 599.359C367.073 600.101 365.254 601.044 363.636 603.808ZM742.044 68.9998C739.147 68.7976 736.855 68.4605 734.631 68.4605C732.812 68.4605 731.396 69.3369 730.79 71.2245C730.655 71.629 730.588 72.1684 730.386 72.5729C728.903 75.5391 729.307 77.1571 732.475 78.3032C732.744 78.438 733.081 78.3706 733.418 78.3706C737.597 76.7526 740.36 73.7189 742.044 68.9998ZM763.138 99.3369C759.701 98.5953 757.343 99.6065 755.186 101.764C753.434 103.517 751.479 105.067 749.39 106.416C746.762 108.168 745.549 110.258 746.56 113.696C747.84 112.955 749.121 112.416 750.199 111.607C752.76 109.584 755.253 107.494 757.747 105.404C759.634 103.651 761.79 102.101 763.138 99.3369ZM490.266 123.674C491.547 126.034 492.221 126.438 493.906 125.09C496.669 123.067 499.567 121.382 502.734 120.168C504.217 119.629 505.497 118.753 505.767 117.067C504.823 115.584 503.543 115.382 502.128 115.921C501.251 116.258 500.106 116.46 499.701 117.135C498.623 118.753 497.073 119.09 495.456 119.494C493.232 120.168 491.277 121.382 490.266 123.674ZM812.47 39.0673C813.009 38.865 813.48 38.865 813.817 38.5954C818.333 34.483 822.848 30.3032 827.363 26.1235C827.7 25.7864 827.835 25.1122 828.105 24.5729C826.555 23.8987 825.544 24.4381 824.533 25.247C823.32 26.1909 822.174 27.1347 820.826 27.9437C819.209 28.8875 817.524 29.5617 815.839 30.3706C814.896 33.2695 811.661 35.292 812.47 39.0673ZM687.12 144.236C688.063 145.18 688.805 144.573 689.546 144.033C692.376 141.944 695.274 139.989 698.105 137.831C699.924 136.415 701.542 134.865 702.755 132.842C702.89 132.64 702.755 132.236 702.687 131.764C700.531 131.224 698.576 131.359 696.892 133.247C695.948 134.258 695.072 135.539 693.926 136.078C692.242 136.82 691.365 138.236 690.355 139.517C689.074 140.865 688.131 142.618 687.12 144.236ZM105.793 390.573C104.108 390.707 102.828 390.775 101.682 390.977C100.199 391.247 99.1883 393.067 99.5253 394.55C99.8623 395.696 100.267 396.842 100.604 398.056C100.806 399 101.48 399.202 102.288 399.269C105.321 399.539 106.871 397.314 108.691 395.427C109.567 394.483 109.365 392.46 108.286 391.786C107.343 391.247 106.332 390.842 105.793 390.573ZM89.4838 334.82C87.7316 332.797 85.6425 332.932 83.5533 333.337C82.3403 333.606 81.262 334.213 80.1163 334.483C79.1728 334.685 78.1619 334.887 77.9597 335.898C77.7576 336.842 77.3532 338.056 78.6337 338.73C82.6772 339 86.1816 337.651 89.4838 334.82ZM716.84 105.202C720.883 104.528 724.185 103.584 726.814 101.09C727.286 100.618 727.353 99.8088 727.623 99.1346C724.725 97.6515 724.725 97.6515 723.175 98.1908C720.142 99.2695 717.851 101.157 716.84 105.202ZM62.4595 496.483C62.1899 497.022 61.7182 497.696 61.4486 498.37C61.0442 499.516 61.9203 500.73 62.9986 500.595C65.6269 500.258 68.1205 499.382 70.1422 497.629C70.7488 497.089 70.5466 496.078 69.6705 495.741C68.9965 495.471 68.1878 495.202 67.5139 495.269C65.8965 495.539 64.2791 496.011 62.4595 496.483ZM118.597 647.561C116.306 646.415 114.217 647.292 112.734 645.876C112.195 645.336 111.252 645.471 110.645 646.145C110.039 646.82 110.308 647.561 110.578 648.303C111.049 649.584 111.858 650.258 113.273 650.393C114.891 650.527 116.373 650.325 117.654 649.516C118.126 649.179 118.26 648.303 118.597 647.561ZM776.954 156.708C775.606 158.326 774.191 159.809 772.978 161.359C772.708 161.764 772.708 162.708 772.978 163.045C773.247 163.382 774.123 163.517 774.595 163.382C775.269 163.18 776.078 162.775 776.549 162.236C778.032 160.618 779.38 158.932 780.728 157.247C780.795 157.112 780.593 156.708 780.391 156.236C779.245 156.371 778.099 156.505 776.954 156.708ZM172.174 593.089C168.131 592.55 165.502 593.696 163.009 595.449C162.739 595.651 162.672 596.325 162.739 596.662C162.807 596.999 163.211 597.539 163.548 597.606C167.12 598.348 169.546 596.662 172.174 593.089ZM110.847 631.314C110.578 630.775 110.241 630.101 109.836 629.426C109.634 629.022 109.297 628.685 108.96 628.348C108.152 627.539 106.736 627.404 105.995 628.011C105.186 628.685 104.849 630.101 105.456 630.977C106.062 631.786 106.804 632.797 107.747 633.067C109.028 633.471 110.173 632.865 110.847 631.314ZM239.162 244.146C240.847 243.472 242.532 242.865 244.149 242.056C244.823 241.719 245.362 241.045 244.958 240.168C244.554 239.359 243.88 239.224 243.071 239.359C242.33 239.494 241.521 239.561 240.847 239.764C238.691 240.303 238.286 241.314 239.162 244.146ZM132.211 661.921C134.232 663.269 135.917 663.336 137.737 662.999C138.613 662.797 138.95 662.258 138.95 661.381C138.95 660.37 138.343 659.629 137.332 659.629C135.445 659.494 133.761 659.831 132.211 661.921ZM387.358 589.651C387.224 590.999 387.493 592.011 388.841 592.213C390.121 592.415 390.728 591.404 391.402 590.595C392.211 589.651 392.48 588.573 391.537 587.224C390.054 588.101 388.639 588.91 387.358 589.651ZM216.519 660.91C217.125 660.101 217.664 659.359 218.069 658.55C218.473 657.674 217.664 656.662 216.653 656.73C215.305 656.73 214.16 657.202 213.486 658.28C213.216 658.685 213.284 659.359 213.149 660.168C214.362 660.438 215.373 660.707 216.519 660.91ZM114.015 675.471C114.352 676.82 115.16 677.426 116.373 676.752C117.856 675.876 119.271 674.73 120.821 673.651C117.654 672.033 116.036 674.325 114.015 675.471ZM109.23 403.853C109.162 403.584 109.162 403.247 109.095 402.977C108.96 402.168 108.017 401.764 107.41 402.303C107.073 402.573 106.736 402.91 106.467 403.314C105.86 404.191 106.197 405.067 106.871 405.809C107.141 406.078 107.68 406.213 108.084 406.078C108.96 405.876 109.162 405.134 109.297 404.325C109.23 404.123 109.23 403.988 109.23 403.853ZM107.41 618.101C109.634 619.179 109.634 619.179 111.454 617.763C109.904 615.134 109.769 615.134 107.41 618.101ZM817.457 127.112C816.244 127.18 815.704 127.18 815.165 127.314C814.087 127.584 813.211 128.123 812.941 129.269C812.874 129.472 813.076 129.876 813.278 130.078C814.491 131.022 815.165 129.741 815.974 129.269C816.513 128.932 816.715 128.191 817.457 127.112ZM102.154 327.134C102.962 327.741 103.434 328.415 103.838 328.415C104.512 328.415 105.388 328.146 105.928 327.741C106.534 327.202 106.602 326.325 106.062 325.651C105.523 325.045 104.782 324.842 104.041 325.584C103.636 325.988 103.097 326.393 102.154 327.134ZM105.995 601.179C107.006 601.516 107.815 601.853 108.691 602.056C109.365 602.19 109.836 601.786 110.039 601.112C110.241 600.37 109.702 599.494 108.96 599.359C107.882 599.224 106.871 599.359 105.995 601.179ZM128.1 672.033C126.482 671.157 126.482 671.157 124.797 671.359C124.393 672.438 124.191 673.449 125.606 673.853C126.145 673.988 126.887 673.853 127.291 673.516C127.695 673.247 127.83 672.505 128.1 672.033ZM820.961 123.674C819.815 122.258 819.815 122.258 819.276 122.528C817.322 123.472 817.12 123.876 817.659 126.033C818.804 125.224 819.883 124.483 820.961 123.674ZM722.299 117.472C722.164 117.202 722.164 116.865 721.962 116.73C720.883 116.191 718.929 117.337 718.996 118.416C718.996 118.55 719.064 118.685 719.198 118.753C720.209 119.562 721.962 118.82 722.299 117.472ZM268.074 245.899C268.208 245.157 268.411 244.483 268.411 243.809C268.411 243.606 268.074 243.135 267.939 243.135C267.535 243.202 266.995 243.269 266.793 243.606C266.187 244.348 266.524 244.955 268.074 245.899ZM148.991 581.224C148.991 581.494 148.924 581.831 148.991 582.033C149.194 582.572 149.53 583.247 150.272 582.775C150.541 582.572 150.811 581.966 150.744 581.561C150.609 580.82 149.935 580.82 149.328 580.955C149.194 581.022 149.126 581.157 148.991 581.224ZM344.699 610.954C344.227 611.022 343.688 610.954 343.351 611.089C342.879 611.359 342.003 611.359 342.34 612.303C343.621 613.044 344.227 612.303 344.699 610.954ZM713.268 124.618C712.527 124.618 712.055 124.483 711.718 124.618C711.314 124.753 711.044 125.157 710.707 125.427C711.179 125.562 711.718 125.831 712.19 125.764C712.527 125.764 712.729 125.225 713.268 124.618ZM139.759 585.067C140.028 584.932 140.365 584.865 140.5 584.662C140.567 584.46 140.433 584.123 140.365 583.853C140.028 584.056 139.691 584.19 139.354 584.393C139.422 584.595 139.556 584.865 139.759 585.067ZM516.954 82.8875C516.954 82.7526 517.089 82.5504 517.021 82.483C516.954 82.4156 516.752 82.3481 516.684 82.2807C516.684 82.483 516.617 82.7526 516.617 82.9549C516.684 82.9549 516.819 82.8875 516.954 82.8875ZM776.752 220.82C776.684 220.955 776.617 221.09 776.617 221.157C776.617 221.224 776.819 221.224 776.886 221.292C776.954 221.157 777.021 221.022 776.954 220.955C776.954 220.887 776.819 220.887 776.752 220.82ZM267.872 656.999L268.074 656.73L267.804 656.662L267.872 656.999ZM417.954 169.045L417.82 169.247L418.022 169.314L417.954 169.045Z" fill="white"/>
<path d="M853.577 217.18C853.577 218.595 854.453 219.337 855.734 219.809C858.969 221.022 859.104 221.359 858.564 224.932C858.497 225.404 858.497 225.809 858.43 226.416C859.98 228.101 862.878 229.045 861.934 232.213C860.721 232.955 859.373 233.696 858.16 234.505C856.947 235.247 856.071 234.842 856.071 233.359C856.071 232.753 856.273 232.078 855.532 231.876C855.195 231.809 854.656 232.078 854.386 232.281C853.78 232.887 852.769 233.09 852.836 234.371C852.904 237.067 850.949 238.213 848.725 239.629C848.658 238.348 848.388 237.404 848.59 236.595C848.86 235.449 849.197 234.505 848.051 233.764C847.445 230.73 845.423 229.18 842.66 228.168C841.11 227.629 839.627 227.494 839.29 228.775C838.616 231.337 836.392 232.618 835.179 234.775C834.438 236.191 832.955 237.337 831.54 238.146C830.394 238.82 828.844 238.955 827.294 237.944C827.429 237.269 827.699 236.393 827.699 235.584C827.699 233.157 826.957 232.213 824.396 232.078C821.768 231.944 819.746 230.73 817.725 229.517C817.388 227.427 818.87 226.955 820.151 226.55C821.162 226.213 822.307 226.348 823.386 226.348C824.733 226.281 825.677 225.404 826.553 224.528C827.025 224.056 826.957 223.719 826.351 220.82C824.194 220.618 821.768 221.022 819.948 219.067C820.285 217.584 821.97 217.989 822.712 217.112C822.981 216.775 823.251 216.236 823.183 215.966C823.116 215.629 822.509 215.292 822.172 215.292C821.296 215.359 820.42 215.629 819.544 215.764C818.601 214.82 817.657 213.876 816.444 212.73C817.051 212.326 817.59 211.719 818.196 211.584C819.612 211.314 820.959 211.112 821.97 209.899C822.375 208.011 820.757 207.067 819.814 206.123C820.622 202.955 823.386 203.629 825.138 202.618C827.429 201.337 828.777 203.562 830.125 204.168C832.416 203.899 833.562 202.618 834.91 201.539C835.718 200.932 836.258 200.258 836.19 199.18C835.988 197.629 834.91 196.55 833.629 196.213C832.079 195.876 830.394 195.337 828.777 196.483C827.631 197.292 826.283 197.831 824.531 197.022C825.003 196.483 825.34 195.876 825.879 195.539C827.564 194.46 829.249 193.449 831.001 192.371C832.753 192.708 834.505 193.045 836.527 193.382C836.46 193.989 836.258 194.73 836.392 195.337C836.662 196.348 838.01 197.022 839.021 196.618C840.166 196.146 841.177 195.472 842.592 194.798C843.603 196.685 844.749 198.371 846.097 200.528C843.94 200.865 842.458 201.067 840.773 201.337C840.436 202.55 840.031 203.831 839.695 204.977C839.897 205.382 839.964 205.786 840.234 205.921C841.514 206.73 842.862 207.539 844.479 208.483C844.884 210.775 846.164 212.798 848.456 214.078C848.86 214.281 849.13 214.685 849.399 215.022C849.534 215.225 849.534 215.629 849.601 216.034C851.016 216.371 852.499 216.775 853.982 217.112L853.577 217.18ZM840.234 210.168C839.964 209.629 839.762 209.225 839.695 209.225C838.818 209.359 837.942 209.494 837.134 209.764C837.066 209.764 836.999 210.438 837.134 210.573C837.471 210.843 837.942 211.18 838.279 211.112C838.953 210.91 839.56 210.505 840.234 210.168ZM853.24 223.921C853.173 224.056 853.038 224.123 852.971 224.258C853.173 224.393 853.443 224.528 853.645 224.528C853.712 224.528 853.847 224.326 853.914 224.258C853.712 224.123 853.443 223.989 853.24 223.921Z" fill="white"/>
<path d="M483.458 106.011C480.358 108.371 477.393 110.461 473.956 112.011C469.912 113.832 466.004 116.056 462.027 118.011C459.13 119.427 456.164 120.708 453.199 121.989C452.525 122.326 451.716 122.393 451.042 122.798C446.932 125.427 442.416 126.91 437.699 127.787C437.16 127.921 436.62 128.191 435.879 128.528C435.947 126.101 437.227 125.023 439.047 124.483C439.923 124.214 440.866 124.146 441.742 123.742C443.629 122.933 445.045 121.921 445.179 119.36C445.314 116.933 447.673 115.989 449.964 117.27C450.908 117.809 451.649 118.011 452.525 117.674C455.356 116.461 458.253 115.449 461.084 114.236C464.454 112.82 467.351 110.393 471.193 109.921C472.743 109.719 473.686 108.169 474.36 106.753C475.438 104.528 477.258 103.652 479.549 103.45C481.234 103.315 482.515 103.921 483.458 106.011Z" fill="white"/>
<path d="M58.2802 665.157C59.0889 665.022 60.0324 664.82 60.9759 664.82C63.402 664.82 65.4238 664.28 66.9738 662.056C67.8499 660.775 72.9044 659.224 75.0609 659.157C76.611 659.157 78.0936 659.089 79.5762 658.483C81.5306 657.741 83.2154 658.415 84.4285 660.505C83.0132 661.179 81.3284 661.651 80.1828 662.662C78.7001 663.876 76.8805 663.134 75.4653 664.011C74.7914 665.224 75.3305 666.033 76.0044 666.977C76.6783 667.921 75.8022 669.269 74.6566 669.134C73.7131 669 72.837 668.663 71.9609 668.595C69.9391 668.393 67.9847 669.067 66.0977 669.809C63.8738 670.685 61.6498 671.022 59.3585 669.809C57.5389 668.865 57.3367 668.393 57.8759 666.101C57.8759 665.831 58.078 665.561 58.2802 665.157Z" fill="white"/>
<path d="M54.8408 658.618C55.7169 655.584 56.5256 653.022 57.2669 650.46C60.6366 649.112 63.7366 647.966 66.8367 646.685C69.2628 645.741 71.6889 644.663 74.115 643.719C74.6542 643.517 75.3281 643.517 75.9346 643.449C75.6651 645.202 75.6651 645.202 74.789 646.348C72.9694 646.82 71.352 647.224 69.8019 647.629C69.6672 647.696 69.5998 648.168 69.465 648.64C70.6106 649.719 71.8911 650.865 73.3063 652.146C70.4085 653.831 67.6454 655.449 64.3432 656.326C62.4562 656.797 60.704 657.944 58.817 658.685C58.143 658.955 57.3343 659.022 56.5256 659.022C56.1887 659.022 55.7843 658.82 54.8408 658.618Z" fill="white"/>
<path d="M795.08 11.2922C795.148 14.1237 793.665 16.2136 791.913 18.1686C791.509 18.5731 790.97 19.1124 790.43 19.1799C786.32 19.854 783.691 22.7529 781.063 25.5169C779.648 26.9327 778.165 28.281 776.682 29.6293C776.278 29.9664 775.604 30.0338 774.526 30.3709C775.267 28.618 776.345 27.8091 777.424 27.0001C778.906 25.854 780.322 24.6405 780.928 22.8203C781.13 22.2136 781.602 21.472 781.4 21.0675C780.187 18.7754 782.141 17.2922 782.68 15.5394C784.702 14.4608 786.589 13.3147 788.678 14.4608C789.959 13.3821 791.037 12.5057 792.115 11.6293C793.059 10.9551 794.07 10.8203 795.148 11.3596L795.08 11.2922Z" fill="white"/>
<path d="M828.103 169.921C828.911 169.854 829.787 169.584 830.596 169.786C832.955 170.258 835.044 169.921 837.268 168.978C842.12 166.955 845.827 170.393 846.905 173.494C847.107 174.169 846.298 175.18 845.624 175.045C842.929 174.371 840.301 173.562 837.605 172.955C835.044 172.348 832.483 171.944 829.922 171.337C829.248 171.202 828.642 170.798 827.968 170.528C828.035 170.326 828.035 170.124 828.103 169.921Z" fill="white"/>
<path d="M129.041 696.505C129.378 696.1 129.783 695.561 130.187 695.156C130.389 694.954 130.726 695.022 131.063 694.954C131.67 698.527 131.67 698.527 133.961 700.752C138.005 699.875 142.116 698.932 146.496 697.988C146.698 698.527 146.9 698.999 147.17 699.538C144.205 701.359 141.172 702.302 138.005 702.707C134.905 703.044 131.939 703.651 129.109 704.932C128.772 705.067 128.233 704.999 127.424 705.067C128.907 703.449 130.187 702.033 131.535 700.482C130.726 699.201 129.985 698.055 129.041 696.505Z" fill="white"/>
<path d="M109.362 265.786C108.081 266.46 107.003 267.067 106.06 267.539C105.588 267.471 105.251 267.471 105.049 267.336C103.499 266.325 102.016 265.179 99.9942 265.314C99.792 265.314 99.4551 264.91 99.4551 264.64C99.4551 264.235 99.6573 263.629 99.9268 263.494C101.409 262.685 102.892 261.876 104.51 261.337C107.138 260.46 109.834 259.853 112.529 259.179C112.799 259.112 113.136 259.314 113.675 259.516C111.384 261.269 109.968 263.359 109.362 265.786Z" fill="white"/>
<path d="M128.704 267.539C130.591 265.719 132.748 264.438 135.444 263.899C137.465 263.494 139.285 261.876 141.307 261.472C143.126 261.067 144.811 260.528 146.496 259.247C147.102 261 146.429 261.944 145.35 262.55C143.733 263.427 142.048 264.034 140.363 264.775C139.083 265.314 137.87 265.921 136.589 266.461C136.05 266.73 135.444 267.337 134.972 267.27C133.017 266.865 131.535 268.416 129.715 268.281C129.378 268.281 129.109 267.741 128.772 267.472L128.704 267.539Z" fill="white"/>
<path d="M699.72 39.4043C700.663 41.0897 700.866 42.7077 700.866 44.3931C700.866 44.865 700.866 45.4717 700.596 45.7414C699.181 46.82 699.046 48.7077 697.968 49.9211C697.698 50.2582 697.226 50.3931 696.822 50.6627C695.002 48.3706 695.137 45.9436 696.081 43.4492C696.822 41.6964 697.631 40.1459 699.72 39.4043Z" fill="white"/>
<path d="M80.1128 705C80.3823 705.134 80.6519 705.337 80.9215 705.404C81.3932 705.472 81.7976 705.472 82.3367 705.539C82.2693 707.966 81.2584 709.651 79.0345 710.123C77.1475 708.708 75.3279 707.292 73.5083 705.944C74.1148 704.865 74.4518 703.314 76.1366 703.179C77.6192 703.045 79.3041 703.045 80.0454 704.865L79.9106 705.135L80.1128 705Z" fill="white"/>
<path d="M44.599 425.157C44.1273 425.696 43.7229 426.37 43.1164 426.775C42.1055 427.449 40.7577 427.786 39.949 428.662C37.725 431.089 34.8271 431.157 31.8619 431.224C31.7945 431.224 31.6597 431.022 31.4575 430.752C31.6597 429.539 32.6032 428.73 33.6815 428.191C35.9054 427.112 38.1968 426.101 40.5555 425.359C41.836 424.955 43.3186 425.224 44.6664 425.224L44.599 425.157Z" fill="white"/>
<path d="M124.728 267.539C124.728 268.011 124.795 268.483 124.795 268.955C121.425 270.371 118.258 272.258 114.417 272.326C113.473 272.326 112.53 273.269 111.721 273.944C110.373 275.022 108.89 275.09 107.408 274.753C107.206 274.685 107.071 274.281 106.734 273.876C107.745 272.528 109.295 271.786 110.912 271.584C113.945 271.247 116.708 269.696 119.808 269.696C120.617 269.696 121.425 268.955 122.302 268.618C123.11 268.281 123.986 268.011 124.795 267.741L124.728 267.539Z" fill="white"/>
<path d="M166.646 664.753C165.163 667.382 162.602 668.326 159.839 669.135C158.559 667.517 158.559 665.899 160.109 664.079C161.591 663.674 163.411 663.607 164.961 662.393C165.905 661.652 166.511 662.798 166.578 663.809L166.646 663.674C166.646 664.079 166.646 664.416 166.646 664.82V664.753Z" fill="white"/>
<path d="M9.21749 455.966C9.48705 456.64 9.75662 457.382 10.0262 457.988C9.48705 459.606 8.13921 460.348 6.92615 461.224C5.64569 462.168 4.09567 463.112 4.29785 465.134L4.43263 465.067C3.01739 465.134 1.80433 464.662 0.86084 463.719C3.01739 461.494 5.10655 459.337 7.26311 457.179C7.80225 456.64 8.47617 456.37 9.0827 455.966H9.21749Z" fill="white"/>
<path d="M880.736 86.2579C885.184 83.359 887.206 79.3141 890.239 76.0781C890.845 78.0332 890.98 78.3703 890.441 78.9096C888.15 81.3365 886.465 84.3703 883.634 86.1905C883.162 86.5276 882.286 86.2579 880.736 86.2579Z" fill="white"/>
<path d="M802.493 164.123C803.841 162.775 804.178 161.022 804.515 159.269C805.054 156.775 805.795 156.303 808.356 156.64C809.098 156.708 809.906 156.708 810.378 157.921C807.548 159.674 805.863 162.977 802.358 164.056L802.493 164.123Z" fill="white"/>
<path d="M671.887 95.1572C671.82 95.8987 671.753 96.6403 671.685 97.0448C669.327 98.2583 667.237 99.4043 665.081 100.416C664.609 100.618 663.935 100.416 663.329 100.416L663.463 100.55C664.003 100.011 664.542 99.4718 665.081 98.9324C665.418 98.5954 665.957 98.2583 665.957 97.9212C665.89 96.3032 666.159 94.6178 667.979 94.4156C669.259 94.2807 670.607 94.9549 671.955 95.2246L671.887 95.1572Z" fill="white"/>
<path d="M830.26 12.91C830.327 10.8875 831.54 9.5392 833.023 8.39314C834.304 7.44932 834.708 7.44932 836.123 8.86505C836.46 9.20212 836.73 9.5392 837.067 9.9437C836.932 10.6853 836.797 11.4268 836.662 12.1684C833.63 12.0336 833.63 12.0336 830.395 13.1796L830.26 12.91Z" fill="white"/>
<path d="M605.573 18.8428C605.371 19.9888 605.169 20.7978 605.034 21.7416C603.214 22.9551 601.192 22.9551 598.901 22.3484C599.103 21.4046 599.305 20.3933 599.575 19.3821C600.047 19.1799 600.451 18.9102 600.855 18.9102C602.271 18.8428 603.821 18.8428 605.573 18.8428Z" fill="white"/>
<path d="M176.89 670.415C176.688 670.819 176.62 671.224 176.418 671.291C174.464 672.168 172.577 673.044 170.555 673.786C170.151 673.921 169.409 673.584 168.937 673.246C168.466 672.909 168.668 671.426 169.14 671.157C171.364 670.213 173.588 669.134 176.081 669.539C176.485 669.539 176.688 670.145 176.89 670.415Z" fill="white"/>
<path d="M802.426 164.056C800.472 165.944 798.518 167.831 796.563 169.786C795.62 169.854 795.755 168.168 794.407 168.505C793.733 168.708 792.857 168.505 792.789 167.427C797.507 166.618 797.507 166.618 800.203 162.64C801.213 162.842 801.213 164.46 802.494 164.191L802.426 164.056Z" fill="white"/>
<path d="M789.082 28.4159C788.678 28.2137 788.274 28.0788 787.869 27.8092C787.667 27.6743 787.532 27.3373 787.263 27.0002C787.532 25.7867 788.139 24.9103 789.554 24.6406C790.632 24.4384 791.711 24.2361 792.721 23.8991C793.53 23.6294 794.271 23.0901 795.282 22.6182C793.53 25.7193 793.53 25.7193 789.082 28.4159Z" fill="white"/>
<path d="M14.5405 464.73C15.2818 462.101 17.9102 462.303 19.1232 460.887C20.4037 461.224 20.3363 462.101 20.2689 462.775C20.0667 463.988 19.0558 464.662 18.1123 464.865C16.9667 465.067 15.821 464.797 14.5405 464.73Z" fill="white"/>
<path d="M870.896 106.686C871.57 109.719 869.616 110.798 867.459 112.011C867.055 111.472 866.718 111 866.246 110.461C867.594 108.978 868.74 107.36 870.896 106.686Z" fill="white"/>
<path d="M54.0342 388.348C55.7864 388.146 57.1342 388.011 58.4821 387.876C58.4821 390.303 58.2125 390.707 56.6625 390.91C55.2472 391.044 54.9777 390.842 54.0342 388.348Z" fill="white"/>
<path d="M153.438 677.022C152.225 679.584 150.27 679.786 148.383 680.326C147.844 678.842 148.72 678.101 149.462 677.427C150.472 676.55 151.685 676.82 153.438 677.022Z" fill="white"/>
<path d="M802.763 22.2811C803.168 19.3822 805.054 18.371 806.537 17.1575C806.672 17.0226 807.278 17.0901 807.346 17.2249C807.481 17.6294 807.615 18.2361 807.413 18.4384C806.2 19.7867 804.987 21.2024 802.763 22.2811Z" fill="white"/>
<path d="M100.534 701.561C97.9732 703.044 96.221 703.516 94.1318 703.853C95.3449 701.292 95.3449 701.292 100.534 701.561Z" fill="white"/>
<path d="M609.01 45.8091C610.56 43.3822 610.56 43.3822 614.603 42.708C612.312 45.2698 612.312 45.2698 609.01 45.8091Z" fill="white"/>
<path d="M855.667 71.0898C855.667 70.7527 855.734 70.4831 855.734 70.146C855.599 66.4381 855.734 66.3033 859.913 66.9775C858.43 68.3258 857.015 69.6067 855.532 70.955L855.667 71.0898Z" fill="white"/>
<path d="M174.599 658.887C175.138 659.965 175.744 660.572 175.744 661.179C175.812 662.257 174.868 662.932 173.992 662.864C173.251 662.797 172.509 661.92 172.846 661.246C173.183 660.505 173.79 659.898 174.599 658.887Z" fill="white"/>
<path d="M28.9629 465.876C29.839 463.516 29.839 463.516 33.1412 463.044C32.7369 465.134 30.8499 465.067 28.9629 465.876Z" fill="white"/>
<path d="M866.854 71.9664C865.775 72.9776 864.832 74.1911 863.147 74.3933C862.945 74.3933 862.541 74.1911 862.406 73.9888C862.271 73.7866 862.338 73.3821 862.473 73.1798C863.619 71.6293 865.169 71.4944 866.921 72.0338L866.854 71.9664Z" fill="white"/>
<path d="M851.084 245.427C850.006 244.55 849.467 244.078 848.928 243.606C848.658 242.46 849.467 242.258 850.343 241.854C851.152 242.663 850.815 243.809 851.084 245.427Z" fill="white"/>
<path d="M404.339 164.933C404.339 165.27 404.339 165.674 404.272 166.011L404.407 165.876C403.463 165.809 403.396 166.551 403.126 167.225C402.722 168.438 402.318 169.787 400.565 169.652L400.633 169.719C401.037 168.775 401.576 167.899 401.778 166.955C402.115 165.472 403.194 165.27 404.339 165.067V164.933Z" fill="white"/>
<path d="M165.702 679.516C166.443 678.1 167.926 677.628 169.678 677.021C169.543 677.763 169.678 678.437 169.341 678.707C168.869 679.179 168.195 679.516 167.521 679.651C166.982 679.786 166.376 679.516 165.769 679.381L165.702 679.516Z" fill="white"/>
<path d="M790.7 6.10087C792.856 4.88739 792.856 4.88739 794.608 5.42671C793.328 6.43795 793.328 6.43795 790.7 6.10087Z" fill="white"/>
<path d="M28.5581 522.977C26.7385 522.37 25.2559 522.033 25.0537 519.674C25.9298 520.213 26.469 520.618 27.0081 520.955C27.6146 521.292 28.5581 521.292 28.5581 522.977Z" fill="white"/>
<path d="M788.543 197.157C786.791 197.966 785.51 198.573 783.96 199.314C784.702 197.292 785.376 197.022 788.543 197.157Z" fill="white"/>
<path d="M224.401 674.595C223.862 673.988 223.188 673.516 223.255 673.179C223.323 672.775 223.862 672.101 224.266 672.101C224.671 672.101 225.412 672.64 225.479 673.044C225.547 673.381 224.94 673.853 224.401 674.595Z" fill="white"/>
<path d="M826.283 131.966C826.688 131.225 827.092 130.483 827.631 129.809C827.698 129.674 828.237 129.741 828.44 129.876C828.574 130.011 828.642 130.483 828.574 130.618C827.968 131.225 827.294 131.696 826.62 132.236C826.485 132.168 826.418 132.101 826.283 131.966Z" fill="white"/>
<path d="M228.715 676.415C229.389 676.28 230.13 676.146 230.804 676.146C230.939 676.146 231.276 676.55 231.276 676.752C231.276 677.022 231.006 677.494 230.871 677.494C230.13 677.561 229.389 677.427 228.715 677.427C228.715 677.089 228.715 676.752 228.715 676.415Z" fill="white"/>
<path d="M183.157 654.033C183.899 654.505 184.977 654.977 183.966 656.056C183.696 656.325 182.618 656.325 182.349 656.056C181.405 655.044 182.416 654.505 183.157 654.033Z" fill="white"/>
<path d="M61.3794 381.336C60.9076 382.82 59.8967 383.291 58.1445 383.157C58.9532 381.539 60.0989 381.202 61.5141 381.471L61.3794 381.336Z" fill="white"/>
<path d="M162.939 682.011C161.928 683.224 161.928 683.224 160.648 682.078C161.052 681.943 161.389 681.741 161.659 681.741C162.063 681.741 162.467 681.943 162.939 682.011Z" fill="white"/>
<path d="M75.2622 700.483C74.7231 700.955 74.4535 701.224 74.1839 701.494C73.847 701.022 73.51 700.618 73.3078 700.146C73.2404 700.078 73.7122 699.606 73.7796 699.606C74.1839 699.809 74.5883 700.078 75.2622 700.483Z" fill="white"/>
<path d="M872.448 117C873.256 116.326 873.796 115.854 874.469 115.314C874.335 116.528 874.335 116.528 872.448 117Z" fill="white"/>
<path d="M587.108 31.1797C585.76 33.2022 585.76 33.2022 584.615 32.0561C585.221 31.8538 585.76 31.6516 587.108 31.1797Z" fill="white"/>
<path d="M181.676 688.955C182.012 688.078 182.349 687.202 182.889 685.786C183.293 687.674 182.552 688.348 181.676 688.955Z" fill="white"/>
<path d="M490.804 95.2246C490.602 94.6853 490.332 94.2134 489.995 93.4044C490.804 93.3369 491.478 93.2695 492.152 93.2695C492.354 94.7527 491.141 94.6853 490.602 95.292L490.804 95.2246Z" fill="white"/>
<path d="M64.7498 733.315C64.6824 733.449 64.6824 733.652 64.615 733.719C64.1433 733.989 63.6715 734.191 63.1324 734.393C62.9976 734.056 62.8628 733.652 62.728 733.315C63.2672 733.247 63.8063 733.112 64.3454 733.045C64.5476 733.045 64.615 733.247 64.7498 733.315Z" fill="white"/>
<path d="M853.645 217.247C854.521 215.966 855.599 216.505 856.745 217.112C855.667 217.112 854.589 217.112 853.578 217.112L853.645 217.247Z" fill="white"/>
<path d="M830.461 13.1124C830.057 13.7192 829.652 14.2585 829.113 15.0675C828.237 12.9776 829.248 12.9776 830.259 12.8428C830.259 12.9102 830.461 13.1124 830.461 13.1124Z" fill="white"/>
<path d="M404.34 166.011C405.957 165.674 406.699 166.618 407.305 167.899L407.373 167.764C405.957 167.832 405.283 166.753 404.475 165.876L404.34 166.011Z" fill="white"/>
<path d="M462.364 109.045C462.633 108.708 462.903 108.371 463.172 108.034C463.307 107.899 463.712 107.832 463.846 107.899C464.049 108.034 464.183 108.371 464.183 108.573C464.116 108.775 463.779 108.978 463.577 108.978C463.172 109.045 462.701 108.91 462.296 108.91L462.364 109.045Z" fill="white"/>
<path d="M178.035 657.269C177.9 657.674 177.9 658.011 177.766 658.146C177.226 658.551 176.418 658.281 176.485 657.741C176.485 657.539 176.755 657.135 176.957 657.135C177.226 657.067 177.631 657.202 178.035 657.269Z" fill="white"/>
<path d="M92.9181 626.191C92.6485 626.124 92.4463 625.989 92.1768 625.921C92.3115 625.719 92.3789 625.449 92.5137 625.247C92.7159 625.382 93.0529 625.449 93.1203 625.584C93.1877 625.719 92.9855 625.989 92.9181 626.191Z" fill="white"/>
<path d="M128.771 267.404C127.423 267.472 126.075 267.539 124.727 267.539L124.862 267.674C125.131 267.404 125.468 266.865 125.738 266.865C126.749 266.932 127.76 267.269 128.703 267.471L128.771 267.404Z" fill="white"/>
<path d="M5.57959 466.28C5.91655 466.55 6.25351 466.752 6.59047 467.022C6.59047 467.022 6.3883 467.426 6.18612 467.629C6.11873 467.696 5.84916 467.561 5.84916 467.494C5.78177 467.089 5.71437 466.617 5.71437 466.213L5.57959 466.28Z" fill="white"/>
<path d="M592.229 26.7979C592.094 26.5957 592.027 26.3934 591.892 26.1238C592.162 25.9889 592.431 25.8541 592.768 25.6519C592.836 25.9215 593.038 26.2586 592.97 26.3934C592.835 26.6631 592.499 26.6631 592.229 26.7979Z" fill="white"/>
<path d="M135.646 273.741C135.579 273.674 135.377 273.471 135.444 273.471C135.646 273.269 135.849 273.134 136.051 272.932C136.186 273.067 136.253 273.269 136.388 273.404C136.118 273.539 135.916 273.674 135.646 273.741Z" fill="white"/>
<path d="M309.047 209.966C308.845 210.101 308.71 210.303 308.508 210.438C308.44 210.505 308.171 210.303 308.171 210.236C308.171 209.966 308.305 209.764 308.305 209.494C308.575 209.696 308.777 209.831 309.047 209.966Z" fill="white"/>
<path d="M828.709 134.865C828.844 135.067 828.979 135.202 829.046 135.405C828.844 135.539 828.642 135.674 828.372 135.809C828.305 135.809 828.103 135.607 828.103 135.539C828.305 135.27 828.507 135.067 828.709 134.865Z" fill="white"/>
<path d="M404.474 165.067C404.743 164.73 404.945 164.393 405.282 164.191C405.417 164.056 405.754 164.258 406.024 164.326C405.889 164.528 405.822 164.932 405.687 165C405.282 165.067 404.811 165 404.406 165L404.474 165.067Z" fill="white"/>
<path d="M762.26 52.1462C762.53 51.944 762.732 51.8091 763.002 51.6743C763.069 51.6743 763.204 51.7417 763.271 51.8091C762.867 51.8766 762.53 51.944 762.125 52.0114L762.26 52.1462Z" fill="white"/>
<path d="M802.494 261.067C802.628 260.865 802.763 260.663 802.898 260.46C802.965 260.595 803.1 260.798 803.168 260.932C802.898 260.932 802.628 261 802.426 261L802.494 261.067Z" fill="white"/>
<path d="M479.954 102.303V101.966L480.359 102.101L479.954 102.303Z" fill="white"/>
<path d="M459.669 111.067C460.208 110.73 460.68 110.461 461.219 110.124L461.151 110.056C460.612 110.326 460.073 110.663 459.534 110.933L459.669 111.067Z" fill="white"/>
<path d="M52.4161 384.438C52.3485 384.506 52.3485 384.641 52.281 384.708C52.2134 384.573 52.1459 384.438 52.0107 384.303C52.1459 384.371 52.281 384.438 52.4161 384.438Z" fill="white"/>
<path d="M375.832 186.573H376.169L375.966 186.91L375.832 186.573Z" fill="white"/>
<path d="M815.501 228.371C815.366 228.573 815.231 228.843 815.096 229.045C814.961 228.843 814.827 228.708 814.759 228.505C814.961 228.505 815.231 228.505 815.501 228.371Z" fill="white"/>
<path d="M166.647 663.876C167.186 663.943 167.658 664.011 168.197 664.011C168.197 664.146 168.197 664.348 168.197 664.483C167.658 664.55 167.118 664.618 166.647 664.685L166.782 664.82C166.782 664.415 166.782 664.078 166.782 663.674L166.647 663.876Z" fill="white"/>
<path d="M215.709 675.876C215.777 676.011 215.844 676.078 215.844 676.213C215.844 676.281 215.709 676.416 215.641 676.484C215.574 676.349 215.506 676.281 215.506 676.146C215.506 676.078 215.641 676.011 215.709 675.876Z" fill="white"/>
<path d="M76.4059 686.258C76.2038 686.46 76.069 686.73 75.8668 686.864C75.6646 686.932 75.395 686.73 75.1929 686.662C75.395 686.527 75.5298 686.325 75.732 686.258C76.0016 686.19 76.2711 686.325 76.5407 686.393L76.4059 686.258Z" fill="white"/>
<path d="M62.3888 695.898V696.168L61.9844 696.033L62.3888 695.898Z" fill="white"/>
<path d="M459.533 110.933C459.331 111.067 459.129 111.27 458.927 111.405C458.859 111.405 458.724 111.337 458.657 111.337C458.994 111.27 459.331 111.135 459.668 111.067L459.533 110.933Z" fill="white"/>
<path d="M44.667 425.224C44.667 424.955 44.7344 424.685 44.7344 424.415C44.7344 424.28 44.8692 424.213 45.004 424.078C45.0714 424.28 45.3409 424.617 45.2735 424.752C45.1387 424.955 44.8018 425.022 44.5996 425.157L44.667 425.224Z" fill="white"/>
<path d="M48.441 422.46C48.1715 422.527 47.9693 422.662 47.6997 422.73C47.7671 422.662 47.9019 422.527 47.9693 422.527C48.1041 422.527 48.3062 422.527 48.441 422.527V422.46Z" fill="white"/>
<path d="M48.4399 422.595C48.5076 422.528 48.5752 422.46 48.6429 422.393C48.5752 422.393 48.5076 422.46 48.4399 422.46V422.595Z" fill="white"/>
<path d="M61.5152 381.404C61.4478 381.135 61.3804 380.865 61.313 380.595L61.1782 380.73C61.4478 380.797 61.65 380.797 61.9196 380.865C61.7174 381 61.5826 381.202 61.3804 381.337L61.5152 381.404Z" fill="white"/>
<path d="M61.2442 380.595C61.3116 380.19 61.379 379.853 61.379 379.449L61.3116 379.381C61.2442 379.853 61.1768 380.258 61.1094 380.73L61.2442 380.595Z" fill="white"/>
<path d="M165.769 679.449C165.702 679.516 165.567 679.584 165.5 679.651C165.567 679.651 165.634 679.584 165.702 679.584L165.769 679.449Z" fill="white"/>
<path d="M181.675 688.887C181.607 688.954 181.473 689.021 181.406 689.089C181.473 689.089 181.607 689.021 181.675 688.887Z" fill="white"/>
<path d="M795.149 11.4278C795.081 11.4278 795.217 11.1569 795.013 11.2923L795.149 11.4278Z" fill="white"/>
<path d="M801.551 30.1008C801.618 30.0335 801.752 29.9662 801.82 29.8989C801.752 29.8989 801.685 29.9662 801.618 29.9662L801.551 30.1008Z" fill="white"/>
<path d="M50.193 329.966C49.9234 331.112 49.5865 330.505 49.3169 329.966L49.2495 330.101C49.5865 330.101 49.9908 330.101 50.3278 330.101L50.193 329.966Z" fill="white"/>
<path d="M730.721 60.8425C730.788 60.7752 730.856 60.7079 730.99 60.6406C730.923 60.6406 730.856 60.7079 730.788 60.7079L730.721 60.8425Z" fill="white"/>
<path d="M676.605 62.4607C676.739 62.3258 676.874 62.2584 677.009 62.1235C676.942 62.191 676.942 62.3258 676.874 62.3932C676.807 62.4607 676.672 62.3932 676.537 62.3932L676.605 62.4607Z" fill="white"/>
<path d="M866.921 72.1013V71.7642L866.853 71.9664L866.921 72.1013Z" fill="white"/>
<path d="M557.59 81.0001L557.253 80.9326L557.455 81.0001H557.59Z" fill="white"/>
<path d="M512.571 83.8986C512.436 83.8311 512.301 83.7637 512.234 83.6963C512.301 83.7637 512.436 83.8986 512.503 83.966L512.571 83.8986Z" fill="white"/>
<path d="M540.472 89.562C540.809 89.0227 541.079 88.6856 541.483 89.4946L541.551 89.4272C541.146 89.4272 540.809 89.4272 540.405 89.4272L540.472 89.562Z" fill="white"/>
<path d="M534.003 91.5838C534.07 91.5165 534.137 91.4492 534.272 91.4492C534.205 91.4492 534.137 91.5165 534.07 91.5165L534.003 91.5838Z" fill="white"/>
<path d="M671.955 95.2253L672.023 95.0225L671.887 95.1577L671.955 95.2253Z" fill="white"/>
<path d="M521.872 97.9216C522.007 97.9216 522.074 97.9216 522.209 97.9216C522.074 97.7867 522.007 97.7193 521.872 97.5845C521.872 97.7193 521.872 97.7867 521.872 97.9216Z" fill="white"/>
<path d="M462.297 108.978C461.893 109.315 461.556 109.719 461.151 110.056L461.219 110.124C461.623 109.787 462.027 109.382 462.364 109.045L462.297 108.978Z" fill="white"/>
<path d="M661.577 109.989L661.846 109.854H661.509L661.577 109.989Z" fill="white"/>
<path d="M455.692 112.752C455.557 112.752 455.49 112.752 455.355 112.752C455.49 112.887 455.625 112.955 455.692 113.09C455.692 112.955 455.692 112.887 455.692 112.752Z" fill="white"/>
<path d="M475.235 123.067C475.37 122.932 475.505 122.797 475.64 122.663C475.572 122.73 475.572 122.865 475.505 122.865C475.37 122.932 475.303 122.932 475.168 122.932L475.235 123.067Z" fill="white"/>
<path d="M65.9608 304.146V303.944L65.8936 304.213L65.9608 304.146Z" fill="white"/>
<path d="M471.664 125.831C471.53 125.696 471.327 125.562 471.193 125.494C471.26 125.562 471.327 125.562 471.395 125.629C471.462 125.764 471.462 125.899 471.53 125.966L471.664 125.831Z" fill="white"/>
<path d="M407.844 163.651L407.507 163.719L407.575 163.517L407.844 163.651Z" fill="white"/>
<path d="M422.063 164.258L421.996 164.056V164.393L422.063 164.258Z" fill="white"/>
<path d="M385.74 175.315L385.672 175.247L385.74 175.315Z" fill="white"/>
<path d="M385.605 175.247C385.672 175.382 385.74 175.449 385.807 175.584C385.74 175.517 385.74 175.449 385.672 175.314L385.605 175.247Z" fill="white"/>
<path d="M367.139 190.214L367.072 190.079V190.281L367.139 190.214Z" fill="white"/>
<path d="M272.182 218.191L271.913 218.056L272.115 218.258L272.182 218.191Z" fill="white"/>
<path d="M145.215 270.438L145.08 270.641L145.283 270.506L145.215 270.438Z" fill="white"/>
<path d="M815.5 228.439C815.635 228.304 815.77 228.169 815.905 227.966C815.905 228.101 815.905 228.236 815.837 228.304C815.77 228.371 815.635 228.371 815.5 228.439Z" fill="white"/>
<path d="M245.225 229.314C245.158 229.247 245.09 229.112 245.023 229.045C245.023 229.112 245.09 229.18 245.09 229.247L245.225 229.314Z" fill="white"/>
<path d="M148.922 269.292C148.854 269.495 148.787 269.63 148.719 269.832C148.719 269.765 148.719 269.63 148.719 269.63C148.787 269.562 148.922 269.495 148.989 269.427L148.922 269.292Z" fill="white"/>
<path d="M229.187 235.045C229.524 234.303 229.793 234.371 230.063 235.045L230.13 234.91C229.793 234.91 229.389 234.91 229.052 234.91L229.187 235.045Z" fill="white"/>
<path d="M23.0991 453.876V454.213L23.2339 454.011L23.0991 453.876Z" fill="white"/>
<path d="M9.21924 456.1C9.28651 456.033 9.42104 455.966 9.48831 455.966C9.42104 455.966 9.35378 456.033 9.21924 456.033V456.1Z" fill="white"/>
<path d="M5.64376 466.213C5.2394 465.876 4.83504 465.539 4.43068 465.135L4.2959 465.202C4.70026 465.539 5.10461 465.944 5.50897 466.281L5.64376 466.213Z" fill="white"/>
<path d="M145.282 270.505L145.417 270.235L145.215 270.437L145.282 270.505Z" fill="white"/>
<path d="M33.411 470.73L33.208 470.595L33.3433 470.798L33.411 470.73Z" fill="white"/>
<path d="M33.3428 470.798L33.5457 470.933L33.4104 470.73L33.3428 470.798Z" fill="white"/>
<path d="M37.1187 486.842L37.0513 486.64L37.1187 486.977V486.842Z" fill="white"/>
<path d="M802.495 261.944C802.292 261.809 802.023 261.674 801.82 261.539C802.023 261.405 802.292 261.27 802.495 261.067L802.427 261C802.427 261.337 802.427 261.674 802.427 262.079L802.495 261.944Z" fill="white"/>
<path d="M746.086 90.6406C747.502 89.3597 748.715 88.2811 750.332 87.6743C750.4 90.1687 750.4 90.1687 746.086 90.6406Z" fill="white"/>
<path d="M765.967 82.7529C765.967 82.888 765.967 83.023 765.9 83.1581C765.967 83.023 766.035 82.9555 766.035 82.8204L765.967 82.7529Z" fill="white"/>
<path d="M110.375 661.18C109.903 661.517 109.633 661.989 109.297 661.989C108.96 661.989 108.69 661.584 108.353 661.382C108.623 661.045 108.825 660.573 109.229 660.438C109.431 660.303 109.836 660.843 110.375 661.18Z" fill="white"/>
<path d="M102.219 663.943L102.354 663.876L102.219 663.943Z" fill="white"/>
</svg>
