<svg width="162" height="12" viewBox="0 0 162 12" fill="none" xmlns="http://www.w3.org/2000/svg">
<g opacity="0.8">
<path d="M142.383 9.1163C141.733 9.1863 140.893 8.9663 140.583 9.7163C140.062 10.9563 138.983 10.7063 138.023 10.9163C136.943 11.1563 136.333 10.8063 135.863 9.8363C135.643 9.3863 135.122 9.4263 134.762 9.8363C133.382 11.4263 131.702 11.7763 129.723 11.1363C128.342 10.6963 126.942 10.4163 125.452 10.8463C124.863 11.0163 124.022 11.1363 123.503 10.6163C122.663 9.7963 121.943 9.9463 121.153 10.6363C120.513 11.1963 119.893 10.6863 119.253 10.5863C117.973 10.3863 116.673 9.6863 115.443 10.9463C115.063 11.3363 113.983 11.3663 113.553 10.8263C112.653 9.6863 111.643 10.2563 110.573 10.1963C109.412 10.1363 108.193 10.5163 106.943 9.8263C106.123 9.3663 104.773 9.1063 103.793 9.8763C102.553 10.8463 101.503 10.5663 100.463 9.6363C99.6925 8.9463 98.9225 8.6963 98.0825 9.4863C97.2325 10.2763 96.4525 10.0163 95.6525 9.3963C95.2925 9.1163 94.9225 8.8563 94.5325 8.6263C93.8125 8.1763 93.1225 8.0863 92.3225 8.5863C91.4325 9.1363 90.4625 9.2863 89.4625 8.6763C88.8725 8.3163 88.1825 8.2163 87.5025 8.4363C86.1525 8.8863 84.8725 8.8563 83.6125 8.0763C83.2825 7.8663 82.6525 7.7963 82.3425 7.9763C81.4025 8.5263 80.3625 8.8163 79.4225 8.4063C78.6525 8.0663 78.1025 7.2563 77.3925 6.6063C76.6925 7.1863 76.4525 8.1463 75.5325 8.4263C74.6125 8.7063 73.8025 8.3863 72.9125 8.2063C71.4925 7.9263 69.9925 8.0063 68.5725 7.5763C68.4625 7.5463 68.3125 7.4963 68.2425 7.5363C66.0725 8.9163 63.5825 7.3263 61.3725 8.2563C60.6725 8.5563 60.1025 8.3063 59.4925 7.8863C58.6525 7.3063 57.7125 7.5063 56.9125 7.9763C56.0025 8.5163 55.2625 9.6063 54.0725 8.4663C53.9625 8.3563 53.6225 8.3763 53.4325 8.4563C50.9725 9.4563 48.4725 9.3763 45.9425 8.7663C45.6325 8.6963 45.1725 8.7063 44.9525 8.8863C43.6025 9.9963 42.3525 10.0663 41.0425 8.8063C40.6825 8.4563 40.1825 8.7363 39.8225 9.0163C38.9725 9.6963 37.9525 10.1363 37.0025 9.6263C35.8825 9.0263 34.9125 9.1763 33.8025 9.4663C32.7525 9.7363 31.6725 10.1163 30.5525 9.5463C30.1825 9.3563 29.6425 9.3663 29.2125 9.4363C24.8125 10.1863 20.4525 9.3563 16.1225 8.9363C11.7825 8.5163 7.3825 7.9463 3.4325 5.7263C2.7625 5.3463 1.9625 5.1763 1.2025 4.9663C0.662502 4.8163 -0.107498 4.7563 0.0125019 4.0763C0.122502 3.5063 0.902502 3.5163 1.4625 3.4863C2.4825 3.4163 3.5025 3.3763 4.5225 3.3063C14.8125 2.6263 25.1125 2.0863 35.3725 1.1963C43.2825 0.516298 51.2025 0.326298 59.1225 0.026298C61.8225 -0.073702 64.5525 0.126298 67.2525 0.376298C68.3825 0.486298 69.5025 0.496298 70.6325 0.516298C78.2125 0.646298 85.7925 0.696298 93.3625 0.936298C98.4425 1.0963 103.522 1.5363 108.592 1.8363C110.963 1.9763 113.342 2.0763 115.713 2.2163C121.693 2.5863 127.672 3.0963 133.652 3.3163C139.772 3.5363 145.852 4.0863 151.923 4.7263C155.053 5.0563 158.223 5.1963 161.273 6.0963C161.173 6.2963 161.163 6.5063 161.253 6.7163C161.152 7.0363 161.073 7.3663 160.943 7.6763C160.643 8.3663 160.143 8.7363 159.353 8.5163C159.243 8.4863 159.143 8.4463 159.042 8.3963C158.132 7.9863 157.253 7.3463 156.303 7.2063C155.183 7.0463 154.973 8.5263 154.012 8.9763C153.062 9.4163 152.033 10.0463 151.182 9.5263C149.622 8.5863 148.283 10.3363 146.812 9.6263C146.663 9.5563 146.163 9.8863 146.033 10.1363C145.413 11.3963 144.583 10.7763 143.773 10.4563C143.763 9.8163 143.773 9.1763 143.723 8.5463C143.713 8.3863 143.542 8.1563 143.393 8.1163C143.253 8.0763 143.022 8.2163 142.902 8.3363C142.712 8.5663 142.553 8.8563 142.383 9.1163ZM122.812 8.2763C122.762 8.4463 122.693 8.6063 122.693 8.7763C122.693 8.8363 122.842 8.9063 122.923 8.9763C123.033 8.8263 123.132 8.6663 123.243 8.5163C123.092 8.4363 122.952 8.3563 122.812 8.2763Z" fill="#977FB8"/>
</g>
</svg>
