<svg width="114" height="150" viewBox="0 0 114 150" fill="none" xmlns="http://www.w3.org/2000/svg">
<path d="M113.28 42.0635C113.081 40.3052 112.928 38.5316 112.561 36.7733C111.779 33.3025 110.937 29.7859 109.374 26.5292C110.064 30.2293 110.263 33.9141 110.661 37.4002C110.784 39.1738 110.814 40.9168 110.906 42.6445C110.952 43.5008 110.983 44.357 111.029 45.2132C111.059 46.0694 111.013 46.9257 111.013 47.7819C110.998 49.479 110.998 51.1762 110.983 52.8581C110.952 54.5399 110.784 56.2218 110.707 57.9037C110.63 61.2674 110.094 64.6464 109.757 68.1019C105.759 83.1623 98.7591 97.0912 89.1854 109.247L86.5047 109.445C91.7588 103.054 96.2316 96.0209 99.816 88.4831C103.446 80.9759 105.958 72.8417 107.291 64.4324C108.608 56.0536 108.854 47.522 107.751 39.1891C106.678 30.8562 104.534 22.722 101.47 15.0007C100.276 12.2486 99.1267 9.63403 97.6409 7.43231C96.2163 5.20001 94.8071 3.18177 93.214 1.59164C87.8068 -4.20317 82.7825 -11.1141 75.7669 -17.8263C63.7883 -29.3395 48.2712 -37.6724 32.218 -40.9138C16.1649 -44.2775 -0.286591 -43.4825 -15.2216 -39.186C-17.2129 -38.6356 -19.1889 -38.1311 -21.0883 -37.5195C-22.9877 -36.9079 -24.9178 -36.4798 -26.7713 -35.8223C-28.6247 -35.2107 -30.4782 -34.5991 -32.3164 -33.9875C-34.1239 -33.2689 -35.9314 -32.5503 -37.7389 -31.8317C-42.3343 -29.7982 -45.3366 -27.4588 -48.0479 -25.0278C-49.4265 -23.8352 -50.7744 -22.6731 -52.1684 -21.4041C-53.5776 -20.1503 -55.2166 -19.0342 -57.0548 -17.7346C-66.5059 -11.267 -72.1276 -4.08085 -76.0796 3.68633C-77.5808 6.59138 -80.1236 11.1783 -82.0383 13.8846C-85.3623 18.288 -87.2005 22.8596 -88.6557 27.2478C-89.299 29.4954 -89.9883 31.6512 -90.4785 33.8835C-90.7695 34.9844 -91.0453 36.0852 -91.3363 37.2014C-91.5814 38.3328 -91.8571 39.449 -92.1788 40.5957C-92.5617 41.8648 -92.8221 43.1185 -93.0213 44.3723C-93.2357 45.6107 -93.4808 46.8339 -93.6033 48.0418C-93.8025 50.4729 -94.0629 52.8122 -93.9863 55.1515C-93.971 56.3135 -93.9863 57.4603 -93.925 58.607L-93.634 62.0319L-93.4961 63.7443L-93.251 65.4415C-93.0979 66.5729 -92.9447 67.7197 -92.7762 68.8664C-93.7259 83.2846 -88.1961 98.8037 -77.5042 109.996C-72.6331 116.433 -66.7204 122.228 -59.7354 126.524C-57.4684 127.839 -55.2779 128.557 -55.186 127.686C-55.1554 127.365 -56.488 126.111 -57.4837 125.484C-64.7597 120.913 -70.6265 114.72 -76.2481 108.085C-83.6467 97.7181 -88.1655 85.5016 -89.6054 73.0711L-88.288 72.2301C-87.5221 73.2851 -86.649 73.6062 -85.7912 74.6C-84.9181 75.5939 -84.2594 77.2757 -83.2484 80.9759C-83.0033 82.0767 -82.6204 83.1164 -82.2068 84.0644C-81.7932 85.0276 -81.3796 85.9297 -80.9354 86.7401C-79.9244 88.3149 -78.8828 89.5687 -77.8412 90.3637C-78.025 89.2782 -78.025 88.2691 -78.3773 87.1988C-80.338 81.0676 -81.5022 74.6918 -81.8085 68.3313C-81.8698 66.7411 -81.8392 65.151 -81.8698 63.5609L-81.5941 58.821C-81.3796 57.2309 -81.2265 55.6408 -80.9967 54.066C-80.675 52.4911 -80.4606 50.901 -80.0929 49.3414C-77.2744 36.7886 -71.2392 24.7403 -62.9828 14.4809C-57.6062 7.67695 -51.1574 1.98917 -44.1265 -2.24608C-42.6406 -3.05644 -41.1395 -3.85151 -39.6383 -4.66186C-38.1218 -5.45692 -36.5441 -6.14496 -35.0583 -6.9859C-30.4322 -9.32523 -25.6684 -11.4811 -20.6901 -13.01C-18.2392 -13.9121 -15.6811 -14.4473 -13.1843 -15.1506L-9.37012 -15.9151L-7.45538 -16.2973L-5.52531 -16.542C-0.409134 -17.3523 4.76833 -17.4135 9.83857 -17.1994C14.9088 -16.9089 19.8565 -15.9915 24.605 -14.6919C27.0253 -13.851 29.8284 -13.3006 32.2487 -12.5514C33.7192 -12.1844 35.1591 -11.7869 36.4917 -11.1753C37.1657 -10.8848 37.8397 -10.6096 38.4984 -10.3191C39.1724 -10.0438 39.8157 -9.73804 40.4131 -9.3558C41.6386 -8.63718 42.8487 -7.91857 44.0282 -7.16937C45.1464 -6.29786 46.2646 -5.44164 47.3828 -4.57012C48.5623 -3.65274 49.7417 -2.41427 51.0438 -1.40515C51.7024 -0.915878 52.2845 -0.350159 52.8819 0.1544C53.4793 0.658962 54.0614 1.11766 54.6282 1.4999C60.066 5.30704 64.018 10.6584 66.9284 16.2086C69.1955 20.3521 71.2481 24.6485 72.9484 29.0673L74.0972 32.4157C74.4342 33.5471 74.664 34.6939 74.9397 35.8253L75.3227 37.5225C75.4146 38.0882 75.4605 38.6692 75.5218 39.2502C75.6137 40.1523 75.675 41.0391 75.7516 41.9259C74.5108 37.1861 72.8259 32.5533 70.5588 28.0887C69.8848 26.7891 69.1649 25.5048 68.3683 24.2357C67.5871 22.9972 66.8519 21.8352 66.0247 20.6426C64.401 18.288 62.6701 15.964 60.7553 13.7317C59.1623 11.8969 56.9412 9.92453 54.7967 8.41085C48.7767 4.14502 42.3279 0.842442 35.7258 -1.52747C29.1544 -3.8515 22.3993 -5.51808 15.3683 -6.05322C8.06169 -6.60365 0.157631 -5.59453 -7.19497 -3.72919C-14.5782 -1.86384 -21.3334 0.918888 -27.4299 3.02887C-28.4256 3.4264 -30.6161 4.7719 -32.0406 5.99508C-33.1435 6.91246 -34.3077 7.7534 -35.3646 8.71665L-38.5354 11.6064C-40.5421 13.6705 -42.5487 15.7193 -44.3256 17.9669C-47.9406 22.4009 -51.0961 27.2019 -53.6083 32.3087C-58.5713 42.5222 -61.3744 53.9131 -60.8536 65.4568L-62.5692 67.6279C-63.4577 66.787 -64.3461 65.9155 -65.2192 65.0134C-63.6262 56.1453 -61.2366 48.4852 -57.6675 36.7274C-55.0635 28.7003 -50.2996 20.7497 -44.5401 13.9457C-39.0103 7.41703 -32.6687 2.14207 -26.5262 -2.24608C-26.9704 -2.78122 -27.9201 -2.6742 -29.0843 -2.27666C-30.2178 -1.83326 -31.5198 -1.0229 -32.684 -0.258419C-38.321 3.56401 -43.4525 8.13564 -47.9253 13.3647C-52.3828 18.5785 -56.1204 24.3427 -59.1074 30.4433C-64.9895 42.6751 -67.8999 56.2371 -67.425 70.0437C-67.3791 71.0987 -67.088 72.2607 -66.7357 73.4227C-66.3375 74.5848 -65.832 75.7621 -65.4643 76.8782C-65.786 82.673 -63.9785 90.0427 -61.0834 96.7549C-58.2343 103.528 -54.4814 109.721 -51.908 115.041C-51.0349 116.815 -48.5687 118.65 -46.6692 120.026C-42.5181 123.16 -37.8921 126.967 -34.4455 131.019C-33.4192 132.166 -32.3317 133.45 -31.0603 134.627C-29.7429 135.759 -28.2724 136.829 -26.5415 137.609C-20.2612 140.331 -14.2106 143.603 -7.66982 146.018C-6.06145 146.676 -4.37647 147.15 -2.70682 147.639C-1.02184 148.128 0.632492 148.526 2.30214 148.786C5.64145 149.336 9.02672 149.443 12.3048 148.969C25.1718 151.66 40.0455 147.532 52.8206 142.593C66.2391 137.334 78.8458 127.869 88.4501 116.891C91.1308 114.048 93.4284 110.898 95.7568 107.748C96.8903 106.158 97.9013 104.476 98.9582 102.825L100.521 100.333L101.915 97.7334C105.79 90.8989 108.7 83.4528 111.09 75.7621C111.779 73.1628 112.178 70.1966 112.315 67.3221C112.453 65.732 112.637 64.1266 112.852 62.5059C113.066 60.8852 113.097 59.2339 113.25 57.5673C113.342 55.9007 113.587 54.2036 113.587 52.4911C113.602 50.7787 113.602 49.0509 113.617 47.3079C113.648 45.5649 113.449 43.8218 113.28 42.0635ZM57.9675 93.3911C54.429 95.654 50.2626 99.4458 46.4943 102.748C45.1464 103.819 43.5074 105.317 42.1747 105.883C36.2313 108.13 30.2727 110.026 24.2834 110.837C18.1562 111.723 11.692 111.479 6.19289 109.629C1.56689 108.1 -2.67619 106.342 -6.7048 104.247C-10.7334 102.152 -14.5322 99.6599 -17.9635 96.6172C-19.051 95.6081 -20.2305 94.6907 -21.1343 93.6205C-22.1146 92.6113 -22.7886 91.4646 -23.1409 90.272C-23.8455 87.4128 -24.9791 84.8136 -26.0207 82.1379C-27.1236 79.4775 -28.3184 76.8629 -29.2068 74.019C-30.6314 69.7532 -31.0296 65.3039 -29.7889 60.8699C-28.8545 57.7202 -28.4562 54.2494 -27.5525 50.8704C-26.8019 48.103 -25.7909 45.412 -24.5655 42.8433C-23.2481 40.3511 -21.8236 37.8589 -19.9854 35.8406C-19.1889 34.7856 -18.1932 33.96 -17.3201 32.9814C-16.8453 32.5227 -16.3244 32.1099 -15.8496 31.6665C-15.3594 31.2231 -14.8846 30.7797 -14.3484 30.3975L-12.8013 29.2049C-12.2805 28.8073 -11.7138 28.5015 -11.1776 28.1346C-10.1207 27.3701 -8.94122 26.8197 -7.83833 26.1622C-5.49468 25.0461 -3.15104 23.9299 -0.608261 23.2266L0.326126 22.9208L1.29116 22.6915L3.2059 22.2175C4.52324 22.034 5.79463 21.6823 7.12729 21.5753C9.76197 21.1778 12.4732 21.1625 15.1845 21.1931C17.8958 21.3154 20.6377 21.5906 23.349 22.0952C28.9706 23.1348 33.612 24.7556 37.8857 27.1713C39.6319 28.1652 41.3322 29.6941 42.7568 31.3454C44.6255 33.4707 46.525 35.7947 48.5623 38.3328C50.0175 40.137 51.5033 42.2623 52.9585 44.7086C54.6281 47.5372 56.1293 51.2679 56.4816 54.4482C56.7573 56.7264 56.9105 58.9281 56.9105 60.8546C56.9258 61.3438 56.9105 61.8026 56.8952 62.2459C56.9105 62.7352 56.8493 63.0716 56.8033 63.408C56.8033 64.096 56.6042 64.7993 56.5276 65.518C56.1906 66.9552 55.6851 68.4842 54.9651 70.059C54.1992 71.6338 53.1576 73.2393 51.9322 74.7835C48.8073 78.6671 44.2732 82.1226 39.5094 84.3702C34.5617 86.6789 28.8175 88.1314 23.0579 88.3149C17.2984 88.529 11.4469 87.6728 6.23885 85.6239C4.95214 85.1041 3.66544 84.5536 2.45532 83.9115C2.1796 83.7586 1.76601 83.5904 1.61283 83.4681C1.42902 83.3458 1.2452 83.2387 1.06139 83.1317C0.709076 82.8871 0.341446 82.673 0.00445557 82.3825C-1.35884 81.3275 -2.59959 79.9056 -3.76376 78.0097C-4.89729 76.1596 -5.87762 73.8203 -6.67416 71.1904C-6.87329 70.5177 -7.05711 69.8449 -7.24092 69.1569L-7.50133 68.1019C-7.54728 67.842 -7.53197 67.8114 -7.5626 67.6585C-7.65451 67.3986 -7.57791 67.2304 -7.6545 67.0316C-7.60855 66.8634 -7.70046 66.6953 -7.63919 66.5271C-7.65451 66.206 -7.57792 65.8849 -7.45538 65.3956C-7.34815 64.9216 -7.1337 64.2795 -6.73544 63.4997C-6.03081 61.9554 -4.56029 59.8149 -2.76809 57.5673C0.724396 55.0139 4.75301 53.225 8.38335 52.4911C11.9984 51.7113 15.2151 51.9713 17.5894 52.5981C17.6813 52.5981 17.7732 52.5829 17.8958 52.5981C18.0336 52.6287 18.4166 52.7969 18.7995 52.9957C19.5808 53.4085 20.5611 54.0354 21.5721 54.754C23.6094 56.1759 25.7845 57.9342 27.7912 59.6008C25.7692 57.3991 23.6553 55.335 21.8019 53.7449C20.8828 52.9498 20.0097 52.2771 19.3357 51.8031C18.5545 51.2832 18.5085 51.2832 18.2328 51.1303C13.9284 49.2803 7.84723 49.4026 2.07237 51.9865C-0.179359 52.9651 -2.23196 54.7693 -4.03947 56.6193C-8.09872 59.6926 -10.5496 62.6588 -11.5606 64.8452C-12.1273 65.9613 -12.4031 67.0316 -12.4643 68.4994L-12.4797 69.0652C-12.495 69.1416 -12.4797 69.2792 -12.449 69.4627L-12.3877 69.9367C-12.3111 70.5788 -12.2346 71.221 -12.1273 71.8479C-11.9588 73.1169 -11.7291 74.3401 -11.4993 75.5327C-10.81 79.0188 -9.82965 82.3519 -8.16 85.3029C-7.33283 86.7707 -6.35249 88.1773 -5.14236 89.3852C-4.52965 89.9815 -3.90162 90.5778 -3.18168 91.0824L-2.64555 91.4799L-1.98687 91.8927L-0.623581 92.7031C8.49058 97.7334 18.9221 100.501 29.7059 100.164C40.4438 99.8892 51.6258 96.2809 60.2958 88.1161C63.1296 85.4252 65.3813 83.254 67.005 82.8106C64.7839 86.893 62.1799 90.5778 57.9675 93.3911Z" fill="#2063AC"/>
</svg>
