<svg width="144" height="108" viewBox="0 0 144 108" fill="none" xmlns="http://www.w3.org/2000/svg">
<path d="M143.937 29.6904C143.816 27.0487 143.186 25.4821 142.018 23.4614C141.833 22.9887 141.314 22.4603 140.915 21.9505L140.294 21.1811C140.062 20.9309 139.942 20.6713 139.58 20.421L137.726 18.9009C137.393 18.6506 137.161 18.3818 136.744 18.15L135.576 17.4363C134.788 16.9636 134.028 16.4816 133.221 16.0088L130.663 14.6369L129.375 13.951L128.003 13.3114L125.259 12.023L122.423 10.8643C121.477 10.4657 120.532 10.0857 119.605 9.77051L116.815 8.76942L116.462 8.64892L116.249 8.58403L115.851 8.45426L115.044 8.19472C112.894 7.49951 110.743 6.897 108.593 6.3223C104.292 5.20998 99.9999 4.30158 95.7452 3.54149C87.2359 2.03058 78.6617 0.973865 70.0505 0.371355C60.0303 -0.342388 50.0842 0.121082 40.1289 0.528935C37.5613 0.621629 35.2161 1.14998 33.0934 2.00277C29.8955 3.31902 29.0427 5.24705 30.8873 7.02678C33.2232 9.27924 36.7363 10.7994 41.1022 11.5317C46.7472 12.4586 52.4757 13.3578 58.2042 14.2384C63.9605 15.1189 69.9022 15.4805 75.6863 16.3703C82.6661 17.427 89.6552 18.6599 96.4868 20.2727C100.009 21.1162 103.476 22.1081 106.868 23.1462L111.466 24.5923C112.134 24.7869 112.551 24.8703 113.209 25.0001C113.598 25.065 113.95 25.2597 113.987 25.5007C114.043 25.9827 114.21 26.2422 114.553 26.5018C114.859 26.7613 115.415 26.9652 115.591 27.3824C115.674 27.5863 115.637 27.8551 115.47 28.0405C115.304 28.2351 115.053 28.3464 114.803 28.4205C114.284 28.5596 113.709 28.5225 113.144 28.4947C112.458 28.4483 111.8 28.2815 111.401 28.2073C111.188 28.1702 111.03 28.1702 110.873 28.2259C110.827 28.2351 110.78 28.2537 110.734 28.2815C110.771 28.2908 110.53 28.3186 110.372 28.3464L109.872 28.4298C109.204 28.5503 108.546 28.6893 107.879 28.8469C106.563 29.1713 104.95 28.9396 103.457 28.9767C100.769 29.0416 98.0811 28.9952 95.393 29.227C85.8455 30.0983 76.1961 30.9789 66.5003 32.0634C64.2293 32.3322 61.9676 32.5269 59.6966 32.8513C58.5657 33.0089 57.4256 33.1664 56.2947 33.3518L54.5891 33.6485C53.7178 33.8153 52.8372 33.9729 51.9566 34.1397C49.6578 34.5847 47.3405 35.0018 45.0231 35.4004C43.8644 35.5858 42.6965 35.7804 41.5286 35.9658L38.173 36.6147C33.733 37.4674 28.8944 38.0978 24.6026 38.8578C22.8971 39.1267 21.21 39.4233 19.5601 39.7477L17.1037 40.239C16.9091 40.2853 16.6773 40.3224 16.5197 40.3688L16.0377 40.5171L15.0922 40.823C12.5802 41.6387 10.1795 42.4914 7.76943 43.3442C7.39865 43.4462 7.34304 43.5667 7.19473 43.6779L6.78687 44.0209L5.95263 44.7068C5.3872 45.161 4.81249 45.6152 4.20071 46.0694L3.24597 46.7183C3.06058 46.8388 2.99569 46.9315 2.89373 47.0242L2.59711 47.3208C2.18926 47.7101 1.76286 48.0994 1.31793 48.498C1.16035 48.9986 0.91935 49.4991 0.715423 49.9904C0.631999 50.2314 0.548574 50.528 0.492958 50.9637C0.446611 51.3808 0.270493 52.0204 0.344648 52.7341C0.353917 53.4386 0.400264 54.0689 0.502227 54.486C0.585652 54.9124 0.669076 55.2183 0.733962 55.4593C0.882272 55.9135 1.0862 56.3677 1.22524 56.8219L1.44771 57.5079L1.54967 57.8508C1.58675 57.9713 1.59602 58.0733 1.71652 58.2123L2.82884 59.7974L3.41282 60.5946L3.56113 60.7892L3.63528 60.8912L3.8114 60.9931L4.55295 61.401C5.54478 61.9386 6.58295 62.467 7.67674 62.9768L8.63148 63.5052C8.8076 63.5886 8.9003 63.6905 9.15057 63.7647L10.059 63.9594C11.2733 64.2189 12.4968 64.4692 13.7575 64.7009L17.7248 65.4332C18.4107 65.5537 18.9947 65.6835 19.7548 65.7854L21.9609 66.0913L30.7204 67.3056C36.8846 67.9452 42.9746 68.6311 48.8885 69.1039L53.3192 69.4932L55.0711 69.6415L56.2484 69.7249L60.9757 70.0864C64.1088 70.346 67.2419 70.6333 70.3471 70.9948C77.4011 71.8105 84.3995 72.5984 91.2496 73.822L96.3477 74.8416C96.9224 74.9621 96.8019 74.9436 96.9224 74.9714L97.1449 75.0363C97.2932 75.0826 97.4323 75.129 97.5713 75.1846C98.0719 75.3978 98.3499 75.6017 98.2387 75.8798C98.1182 76.1579 97.7474 76.4823 97.423 76.4916C97.1264 76.5286 97.0151 76.5472 96.9039 76.5843L96.2736 76.7882L94.2436 77.4C93.4371 77.6502 92.6029 77.8727 91.7687 78.1044C88.4409 79.0221 85.0205 79.8564 81.4889 80.635C80.0336 80.9594 78.5598 81.4692 77.1972 82.0625C74.954 83.0357 72.6366 83.7773 70.1339 84.3427C69.1235 84.5559 68.1224 84.834 67.1399 85.1399C66.1573 85.4365 65.184 85.7795 64.22 86.1595L62.7833 86.7342L62.3847 86.8918C62.0973 87.003 61.8007 87.1236 61.4856 87.2719C60.8645 87.5592 60.1786 87.9207 59.3536 88.514C58.5564 89.1165 57.4812 89.9693 56.4523 91.7026C55.961 92.5369 55.5161 93.6677 55.3214 94.8357C55.1268 96.05 55.1546 97.1716 55.3956 98.321C55.6366 99.4704 56.1 100.509 56.6006 101.306C57.1011 102.112 57.6295 102.696 58.093 103.141C59.0292 104.022 59.7707 104.448 60.3176 104.745C63.5712 106.367 66.5188 106.691 68.7064 106.867C70.9589 107.034 72.7108 107.099 73.8324 107.386C74.4256 107.544 74.9169 107.266 75.3155 107.081C75.4267 107.025 75.575 106.941 75.7233 106.849C75.8995 106.738 76.0478 106.645 76.1683 106.561C76.4927 106.339 76.8542 106.089 77.1508 105.755C77.846 105.023 78.3002 103.818 77.7441 102.483C77.2342 101.148 75.6955 99.9338 73.9992 99.3777C71.858 98.6639 69.689 98.0985 67.8629 97.2643C67.7517 97.2179 67.6497 97.153 67.5477 97.1067L67.6775 97.0789C68.3913 96.9213 69.105 96.7544 69.828 96.6154C71.2648 96.3188 72.7108 96.0314 74.1661 95.7626C77.0952 95.2343 80.0243 94.7059 82.9535 94.1776C85.9011 93.6492 88.8859 93.093 91.8799 92.4534C93.3723 92.1383 94.8739 91.7953 96.3848 91.4245C97.1356 91.2484 97.8865 91.0445 98.6465 90.8406L99.7774 90.5347L100.343 90.3771L101.094 90.1454C102.91 89.5707 104.709 89.033 106.665 88.2915C107.61 87.9393 108.62 87.6241 109.547 87.2533C110.493 86.8825 111.438 86.521 112.375 86.1595C113.478 85.798 114.321 85.3067 115.229 84.8433L116.583 84.1295L117.259 83.768C117.491 83.6475 117.612 83.5085 117.797 83.3787C119.104 82.3127 120.559 81.2838 121.412 80.1159C121.876 79.5134 122.293 78.8367 122.58 78.0117C122.877 77.196 123.007 76.232 122.979 75.2865C122.905 73.3956 122.191 71.6159 121.264 70.2996C120.318 68.9648 119.225 67.9637 117.899 66.9904C117.612 66.7309 117.083 66.5455 116.629 66.3323L115.229 65.702L112.421 64.4228L109.603 63.1251L106.201 62.1518C103.976 61.4937 101.761 60.8356 99.5364 60.1774C92.2414 57.9342 84.4458 56.6736 76.8449 55.5706C71.3575 54.7641 65.8978 54.0504 60.4752 53.3737L56.4059 52.8732L55.4883 52.7156L54.7931 52.5951L54.1998 52.5117C52.9577 52.3541 51.7249 52.1965 50.4735 51.9555L49.5466 51.7608C49.3983 51.7145 49.2314 51.6496 49.1758 51.5013C49.1295 51.3344 49.287 51.2047 49.4261 51.1491C50.0379 50.9637 50.6589 50.7876 51.2892 50.6578C52.5499 50.3704 53.8568 50.185 55.0619 50.0831L55.9517 50.0275L61.949 49.4342C66.111 49.0542 70.2729 48.7205 74.4812 48.4424C85.2708 47.7008 96.1716 46.9686 107.174 46.0972L114.636 45.4577C118.706 45.0313 122.701 44.5122 126.77 44.0394L129.81 43.6779C130.061 43.6501 130.329 43.6223 130.561 43.5852L131.043 43.372L132.007 42.9457L135.882 41.2123L137.819 40.341L138.792 39.9053L139.274 39.6828C139.348 39.6457 139.441 39.6087 139.515 39.5716L139.654 39.4511C140.424 38.793 141.1 38.0421 141.731 37.1708C142.352 36.2902 142.908 35.2706 143.353 33.9543C143.547 33.2962 143.751 32.5732 143.816 31.8409C143.946 31.0716 143.983 30.3486 143.937 29.6904Z" fill="#977FB8"/>
</svg>
