<svg width="399" height="197" viewBox="0 0 399 197" fill="none" xmlns="http://www.w3.org/2000/svg">
<path d="M209.632 59.3679C221.525 68.4427 224.862 86.3975 230.164 99.9493C237.885 119.702 244.541 140.577 258.853 156.761C272.896 172.631 288.654 181.576 308.759 188.277C318.409 191.494 348.97 199.002 398.543 196.434V0.470215H0.487061C17.8301 15.1529 54.8613 37.7702 120.016 39.9115C148.315 40.8477 185.819 41.1907 209.632 59.3679Z" fill="url(#paint0_linear)"/>
<path d="M263.042 161.22C262.681 159.969 249.667 114.206 249.685 72.4748C249.695 30.16 224.491 3.13045 159.374 13.7439C94.2654 24.3574 77.0614 30.9479 33.0688 20.9091C53.6098 30.4473 82.0205 38.66 120.016 39.9114C148.315 40.8383 185.819 41.1906 209.632 59.3586C221.525 68.4333 224.862 86.3881 230.164 99.94C237.885 119.693 244.541 140.568 258.853 156.752C260.234 158.319 261.634 159.792 263.042 161.22Z" fill="url(#paint1_linear)"/>
<defs>
<linearGradient id="paint0_linear" x1="398.546" y1="98.715" x2="17.7067" y2="98.715" gradientUnits="userSpaceOnUse">
<stop stop-color="#76648E"/>
<stop offset="1" stop-color="#977FB8"/>
</linearGradient>
<linearGradient id="paint1_linear" x1="207.652" y1="5.11521" x2="157.447" y2="77.5264" gradientUnits="userSpaceOnUse">
<stop stop-color="#67577D"/>
<stop offset="1" stop-color="#977FB8"/>
</linearGradient>
</defs>
</svg>
