<svg width="466" height="221" viewBox="0 0 466 221" fill="none" xmlns="http://www.w3.org/2000/svg">
<path d="M9.81738 36.1504V220.954H465.853C432.9 191.468 393.811 177.193 303.453 181.235C222.67 184.841 256.244 120.168 210.342 73.3485C166.044 28.1694 115.266 39.9138 58.4446 49.4705C37.1528 53.0485 21.2929 46.1057 9.81738 36.1504Z" fill="url(#paint0_linear)"/>
<path d="M215.227 151.647C211.241 202.406 239.142 226.674 279.001 213.344C313.807 201.711 340.021 181.865 368.691 182.116C350.347 180.41 328.935 180.095 303.444 181.226C222.661 184.832 256.235 120.159 210.333 73.3394C201.657 64.4871 192.721 57.8224 183.544 52.9004C183.554 52.9097 219.213 100.879 215.227 151.647Z" fill="url(#paint1_linear)"/>
<path d="M381.427 183.599C382.178 183.765 382.809 183.858 383.337 183.867C382.707 183.775 382.067 183.682 381.427 183.599Z" fill="url(#paint2_linear)"/>
<g style="mix-blend-mode:multiply">
<path d="M42.9575 100.248C42.0769 100.776 41.1036 101.138 40.1766 101.583L38.7677 102.213C38.295 102.417 37.7944 102.565 37.3124 102.732C36.3298 103.057 35.3658 103.418 34.374 103.705L31.3522 104.41C30.3511 104.679 29.3129 104.753 28.284 104.901C27.2551 105.022 26.2262 105.189 25.2066 105.226C23.1581 105.328 21.1095 105.309 19.0795 105.151C10.9503 104.567 2.97858 101.731 -3.87151 97.3837C-9.22921 93.4442 -14.1327 88.6427 -17.8034 82.8308C-19.6387 79.9387 -21.1682 76.8149 -22.262 73.5336C-23.365 70.243 -23.9861 66.8225 -24.1159 63.4207C-24.5515 54.5499 -22.3454 44.5111 -17.2658 36.7156C-15.106 33.323 -12.3159 30.2919 -9.10871 27.8633C-5.9015 25.4347 -2.32352 23.5716 1.43986 22.2553C9.49496 19.456 18.4492 19.2335 26.6897 21.9309C30.8331 23.2842 34.6243 25.3698 38.0076 27.8633C41.3909 30.3568 44.3757 33.2395 47.0545 36.2984C50.0115 39.7281 52.644 43.4637 54.7945 47.7091C55.9902 50.0542 56.8986 52.7887 57.6309 55.1895C58.3725 57.5902 58.8267 60.1671 58.7525 62.7811C58.734 65.4136 58.1685 68.009 57.2879 70.4098C55.4989 75.2484 52.3381 79.2621 48.6303 82.3951C45.5529 85.0369 42.0027 87.0854 38.2208 88.5222C34.476 89.9033 30.5458 90.7376 26.597 90.9415C18.718 91.4235 10.6166 89.6623 4.04456 85.5282C2.35753 84.4807 0.466568 83.1737 -1.16484 81.839C-3.74173 79.6977 -6.10543 77.1023 -7.70903 73.8395C-8.5062 72.2173 -9.10871 70.4283 -9.40533 68.5559C-9.71122 66.6835 -9.67414 64.7277 -9.31264 62.8738C-8.5989 59.1382 -6.75429 55.9774 -4.62233 53.3727C-2.49037 50.7587 -0.0154381 48.6082 2.7283 46.7358C5.38861 44.9839 8.28994 43.5378 11.4601 42.6572C13.0359 42.2123 14.6858 41.925 16.3636 41.7952C18.0506 41.721 19.7654 41.7303 21.471 42.0733C24.8914 42.6202 28.1357 44.2979 30.6477 46.3372C31.9269 47.3568 33.0763 48.4599 34.1237 49.6093C35.1712 50.7587 36.1445 51.9081 37.0899 53.2151C38.6194 55.347 40.0469 57.8498 40.6679 60.8067C41.2982 63.7451 41.0294 66.804 40.0098 69.5848C39.0087 72.3564 37.0807 74.8962 34.6243 76.5832C32.1864 78.2702 29.3315 79.1694 26.4765 79.2806C23.6401 79.4011 20.748 78.641 18.3658 77.2135C15.9835 75.786 13.9721 73.7097 12.8041 71.1421C11.5806 68.593 11.4415 65.6268 12.2294 63.0314C12.628 61.7244 13.2676 60.4915 14.1389 59.4256C15.0102 58.3781 16.1318 57.4975 17.3832 56.9506C21.2856 55.31 25.2066 56.6911 27.0141 58.9158C27.4683 59.4626 27.8391 60.0652 28.0059 60.6862C28.1821 61.298 28.2191 61.8912 28.1542 62.4196C28.0152 63.4856 27.4868 64.3198 26.7453 64.6628C26.1613 64.9409 25.6793 64.8204 25.4383 64.7369C25.188 64.635 25.1046 64.4867 25.1139 64.3291C25.1046 64.1622 25.1788 63.9119 25.1139 63.5783C25.0861 63.4114 25.0212 63.2446 24.9378 63.0777C24.8543 62.9201 24.7524 62.7904 24.6319 62.642C24.5392 62.5586 24.465 62.4845 24.4001 62.4752C24.3909 62.4659 24.3723 62.4752 24.3631 62.4845H24.3538L24.4094 62.4381L24.465 62.3825L24.4743 62.3732C24.4187 62.4289 24.6133 62.2527 24.3445 62.4937H24.3353L24.3167 62.4845C24.2333 62.4381 24.1591 62.3918 24.0943 62.3454C23.7791 62.1693 23.4269 62.0303 23.0283 61.9376C22.2311 61.7429 21.2115 61.7615 20.4236 62.0488C20.025 62.1971 19.7654 62.3547 19.4874 62.605C19.2093 62.8645 18.9497 63.1982 18.7458 63.6061C18.3287 64.4125 18.1618 65.5156 18.3194 66.5074C18.4028 67.0172 18.5326 67.4436 18.7644 67.9071C18.9961 68.3705 19.2927 68.8247 19.6728 69.2419C20.4143 70.0854 21.4432 70.7898 22.5463 71.2255C23.6493 71.6612 24.7895 71.8095 25.9852 71.7168C27.1717 71.6241 28.3489 71.2348 29.35 70.6508C30.3604 70.0576 31.139 69.3067 31.723 68.3613C32.3162 67.4158 32.7148 66.2664 32.8446 65.0984C32.9465 64.0881 32.8724 63.087 32.6036 62.16C32.3255 61.1867 31.8157 60.1578 31.1205 59.1011C30.4252 58.0444 29.5354 56.9599 28.5621 55.8847C27.5981 54.828 26.6155 53.8732 25.6052 53.0853C24.5948 52.2881 23.5752 51.6578 22.5463 51.2129C21.5081 50.7958 20.4328 50.5177 19.302 50.3786C17.031 50.1654 14.5375 50.5826 12.1182 51.5559C9.68962 52.5291 7.34446 54.003 5.30519 55.792C3.22885 57.5902 1.44913 59.7129 0.410954 61.7985C-0.636486 63.9212 -0.89603 65.84 -0.43256 67.8329C0.0309105 69.8351 1.31009 71.9485 3.10835 73.8024C6.76976 77.6121 12.3036 80.1705 17.9208 81.3106C23.5844 82.4137 29.5632 82.0429 34.8745 80.0685C37.4978 79.123 39.9264 77.6955 42.0954 75.9622C44.2088 74.1917 46.0812 72.1246 47.3326 69.8073C48.6396 67.5177 49.3255 65.0243 49.4275 62.5215C49.5017 59.991 48.9269 57.3492 47.8702 54.726C46.4984 51.3427 44.3757 48.0428 41.9007 44.9004C39.4258 41.7488 36.7192 38.8383 33.7252 36.4097C30.7404 33.9996 27.4776 32.0067 24.0386 30.8295C20.5719 29.643 16.8456 29.0683 13.1193 29.2166C7.31665 29.4206 1.52328 31.3022 -3.1763 34.6114C-7.87588 37.8742 -11.4261 42.7129 -13.4653 48.2096C-15.5139 53.7064 -16.0793 59.8149 -15.0967 65.6175C-14.1327 71.4109 -11.5188 76.8984 -7.73684 81.5423C-3.9642 86.1863 0.939308 89.9775 6.38971 92.4524C9.11491 93.7038 11.9606 94.5936 14.8897 95.1869C17.8281 95.7523 20.8407 95.9655 23.8254 95.8357C25.3271 95.7987 26.7731 95.5113 28.2469 95.3352C28.9792 95.261 29.693 95.0107 30.416 94.8624C31.1297 94.6771 31.8713 94.5658 32.5665 94.2877L34.6799 93.574C35.3936 93.3515 36.0518 92.9808 36.7377 92.7027C38.1281 92.1558 39.4073 91.3586 40.7143 90.6449C43.2448 89.0505 45.7105 87.2894 47.8424 85.1481C48.9733 84.147 49.928 82.9698 50.9477 81.8575C51.4575 81.3013 51.8653 80.6617 52.3381 80.0685C52.783 79.4567 53.2743 78.882 53.6543 78.2332C55.8419 75.0352 57.5104 71.485 58.6598 67.8144C59.8092 64.1344 60.421 60.3432 60.4673 56.4594C60.4581 52.5848 59.8926 48.6916 58.8637 44.9097C57.8348 41.1278 56.3425 37.4293 54.3588 33.9996C51.6985 29.1888 48.1669 24.8044 44.1069 21.1059C40.0376 17.3889 35.4585 14.3671 30.5736 12.1424C22.7317 8.62004 13.8238 7.30379 5.11053 8.05461C-3.62123 8.78689 -12.1398 11.6326 -19.6017 16.1004C-23.0499 18.1397 -26.2385 20.8 -29.0842 23.7106C-35.4431 30.1992 -40.1426 38.2914 -42.4229 47.0324C-44.7773 55.7734 -44.2953 65.1541 -41.2457 73.7839C-38.9376 80.189 -35.545 86.1956 -30.7898 91.1176C-28.9545 93.1013 -27.0543 94.9181 -25.6268 96.4568C-24.1807 97.9399 -23.1796 99.1264 -23.2167 99.7752C-23.2445 100.313 -24.3569 100.165 -26.5537 99.182C-28.0832 98.3755 -29.8814 97.4764 -31.3182 96.2436L-32.3007 95.4557C-32.6159 95.1869 -32.9218 94.8903 -33.2277 94.6122C-33.8394 94.0467 -34.4698 93.4998 -35.063 92.9159C-36.2124 91.7201 -37.3896 90.5614 -38.4278 89.2823C-39.5309 88.0587 -40.4763 86.7147 -41.4682 85.4077C-41.9316 84.731 -42.3673 84.0451 -42.8215 83.3591C-43.285 82.6825 -43.7021 81.978 -44.0914 81.255C-47.3728 75.5821 -49.5881 69.1677 -50.1814 62.3083C-50.5429 58.0815 -50.5151 53.9474 -50.1072 49.8596C-49.9867 48.6175 -49.7735 47.3383 -49.5603 46.0498C-49.2637 44.7799 -48.9949 43.4822 -48.6056 42.2587C-44.9534 30.2733 -37.4082 19.7526 -27.5548 12.2166C-22.5957 8.47173 -17.0711 5.50553 -11.2592 3.44772C-5.43803 1.40846 0.670498 0.268324 6.7883 0.0458584C12.8783 -0.176607 19.0054 0.407365 24.9563 1.86266C30.9073 3.29941 36.645 5.70945 41.8822 8.98155C47.1102 12.2536 51.7727 16.3414 55.7307 21.0225C59.6794 25.7128 62.9608 30.9778 65.2596 36.7063C67.3082 41.7303 68.6707 47.0602 69.162 52.5291C69.6626 57.9703 69.264 63.6061 67.8365 68.9638C65.0186 79.6699 58.5671 89.2545 49.7612 96.0118C48.7045 96.7998 47.5829 97.532 46.4798 98.2736C45.3119 98.9873 44.1161 99.5898 42.9575 100.248Z" fill="#DF0634"/>
</g>
<defs>
<linearGradient id="paint0_linear" x1="418.581" y1="108.189" x2="47.459" y2="150.005" gradientUnits="userSpaceOnUse">
<stop stop-color="#FFD62B"/>
<stop offset="1" stop-color="#E2BE28"/>
</linearGradient>
<linearGradient id="paint1_linear" x1="256.387" y1="143.836" x2="211.645" y2="203.492" gradientUnits="userSpaceOnUse">
<stop stop-color="#FFD62B"/>
<stop offset="1" stop-color="#CCAB22"/>
</linearGradient>
<linearGradient id="paint2_linear" x1="356.176" y1="218.675" x2="311.44" y2="278.331" gradientUnits="userSpaceOnUse">
<stop stop-color="#FFD62B" stop-opacity="0.19"/>
<stop offset="1" stop-color="#DF0634"/>
</linearGradient>
</defs>
</svg>
