<svg width="592" height="154" viewBox="0 0 592 154" fill="none" xmlns="http://www.w3.org/2000/svg">
<path d="M591.515 145.116L2.76698 153.291L0.932129 0L591.515 2.71171V145.116Z" fill="#2063AC"/>
<path d="M94.5483 118.997L93.5112 118.797C93.2718 118.797 93.0325 118.718 92.7134 118.558C91.5566 117.88 90.0808 117.561 88.2459 117.601C87.7274 117.601 87.2886 117.561 86.9695 117.481L84.8156 117.521C84.4965 117.521 84.2172 117.601 83.8981 117.761C83.0605 118 82.0633 118.199 80.8268 118.359C78.9121 118.439 76.1599 118.518 72.53 118.558L69.0997 118.598C66.5069 118.558 62.5979 118.558 57.3726 118.598C56.9737 118.598 55.9765 118.518 54.3012 118.399L48.4775 118C48.318 118 48.1584 118 48.0388 117.96C47.8792 117.92 47.7197 117.92 47.5601 117.92C46.9618 117.92 46.4831 118.04 46.2039 118.279C45.8848 118.439 45.5258 118.518 45.0472 118.518C44.4488 118.518 43.8505 118.399 43.2123 118.199C40.8589 117.083 39.4628 115.807 39.064 114.371C38.7449 112.417 38.5853 110.941 38.5454 109.944L38.7847 101.291C38.7847 100.453 38.8645 99.5762 39.1038 98.659C39.4628 95.389 39.6224 93.3951 39.6224 92.6374C39.6224 91.7202 39.5825 91.0422 39.5027 90.6036L39.4628 86.6158C39.4628 85.9378 39.3432 85.1802 39.1038 84.3427C39.0241 84.1035 38.9842 83.8243 38.9842 83.4255C38.9842 83.3458 39.064 83.1065 39.2235 82.628C39.9016 81.3917 40.2207 80.2752 40.2207 79.1985C40.1409 78.2015 40.0612 76.6861 40.0612 74.6523C39.6224 69.5081 39.3831 66.1583 39.3831 64.6429C39.3831 64.1245 39.4229 63.1674 39.5825 61.8116L39.5426 59.06C39.8218 55.1121 39.9016 50.7654 39.8617 45.98V44.3849C39.8617 43.1885 40.1409 42.3112 40.7393 41.7529C41.0982 41.3541 41.6168 41.1149 42.2151 40.9553C44.2095 40.8756 47.0017 40.5566 50.6315 40.078C52.3068 39.9185 53.5433 39.8388 54.381 39.7989C55.1388 39.7989 56.2956 39.8388 57.8113 39.9983C58.649 40.1578 59.8456 40.1977 61.4412 40.1977C63.0367 40.1977 64.1934 40.078 64.9513 39.9185C66.0283 39.759 66.7862 39.6792 67.3446 39.6792L69.6182 39.6394C70.8149 39.6394 71.8519 39.4001 72.6896 38.9216L89.8814 38.7222C90.4797 38.7222 91.3173 38.8817 92.3943 39.1608C93.3915 39.759 94.628 40.3173 96.1837 40.8357C97.3404 41.4339 97.9387 42.3511 98.0185 43.6671C98.1781 44.5842 98.2578 45.2223 98.2578 45.5812C98.2578 46.0199 98.218 47.0168 98.0584 48.5322C98.0584 49.1304 97.7792 49.9678 97.1809 51.0445C96.9415 51.4832 96.5825 51.7224 96.064 51.7224C94.987 51.7224 94.1494 51.1641 93.5511 50.0476L93.1921 49.25C92.873 47.8941 91.8758 47.2162 90.2005 47.2561C89.5224 47.2561 89.0038 47.2162 88.7246 47.1763H88.2858C87.8471 47.1763 87.4482 47.2162 87.169 47.296C86.6504 47.296 85.5336 47.3757 83.8583 47.5751L77.7155 47.6549C76.7183 47.7346 75.2823 47.8144 73.4076 47.8144C71.493 47.8543 70.0969 47.8144 69.1794 47.7346C67.8232 47.6947 65.789 47.6549 63.1563 47.6947L56.5349 47.7745C56.136 47.8543 55.8169 47.9739 55.5776 48.1334C55.2984 48.2929 55.099 48.5322 54.9394 48.8113C54.7799 49.1304 54.6602 49.3696 54.6203 49.569C54.5405 49.7684 54.4607 50.0476 54.3411 50.4065C54.2214 50.8052 54.1815 51.0046 54.1815 51.0844L53.7428 52.9188C53.5832 53.158 53.4237 53.2777 53.1843 53.2777C53.0248 53.2777 52.8652 53.1979 52.7057 53.0384C52.3866 52.7194 52.1472 52.5997 51.9079 52.5997C51.6686 52.5997 51.4691 52.7194 51.2298 52.9587C51.0703 53.1182 50.8708 53.2378 50.6714 53.3176C50.5916 54.6734 50.5916 56.7471 50.6315 59.4588L50.7113 65.4804C50.7113 67.4743 50.791 68.9099 50.8708 69.7872L50.9107 74.0941C50.9107 74.772 50.9506 75.2505 51.0304 75.5695V77.2843C51.2697 78.4806 51.9877 79.1187 53.2242 79.1985L65.3103 79.8764C65.6294 79.8764 66.1081 79.8764 66.7463 79.9163C67.3845 79.9561 67.8631 79.9561 68.1822 79.9561C69.8575 79.9561 71.4531 79.7966 72.9688 79.5574C74.1655 79.3978 75.1228 78.9991 75.8009 78.4009C76.12 78.0819 76.4391 77.9224 76.7981 77.9224C77.1172 77.9224 77.3166 77.9622 77.4762 78.042L78.3936 78.2414C78.7925 78.4009 79.1913 78.7199 79.5902 79.1985C80.029 79.677 80.2284 80.1157 80.2284 80.5144C80.2284 80.5942 80.2683 80.6739 80.3481 80.7936C80.4279 80.9132 80.4678 80.993 80.4678 81.0727C80.4678 81.2322 80.5475 81.3918 80.7071 81.5114C81.2655 83.1065 81.5846 84.3427 81.6644 85.2599L82.0234 88.3305C82.0234 89.0882 81.5846 90.0453 80.7071 91.2018C80.7071 91.2815 80.6273 91.4011 80.4678 91.5607C80.2683 92.0791 79.8694 92.3582 79.3509 92.3582C79.1116 92.3582 78.8722 92.2785 78.5531 92.1588C77.1172 91.4809 76.1997 90.7232 75.8009 89.9257C75.5615 89.3275 74.6441 88.9686 73.0486 88.8091H71.6924L68.7407 88.6097C68.1424 88.6097 67.1452 88.5698 65.789 88.4103C65.2704 88.3305 64.5125 88.3305 63.5153 88.3305C61.3215 88.3704 59.4069 88.6894 57.8512 89.2876C57.5321 89.4471 56.2557 89.806 53.9821 90.3643C53.663 90.5238 53.4635 90.6036 53.304 90.6036C52.6259 90.7631 52.1074 91.0821 51.7085 91.5208C51.3894 91.8398 51.2697 92.119 51.2697 92.438C51.3495 92.5177 51.3894 92.6773 51.3894 92.8766V93.3153C51.3894 93.4748 51.4293 93.5944 51.509 93.6343C51.7484 94.5515 51.868 95.5086 51.868 96.4657V97.3829C51.5888 98.978 51.3894 100.254 51.3495 101.251C51.1899 101.849 51.0703 102.368 50.9107 102.727L50.2326 104.202C49.9933 104.88 49.9135 105.558 49.9135 106.236C49.9135 107.153 50.1528 108.07 50.6315 108.948C50.7113 109.386 51.0703 109.625 51.6686 109.625C58.8085 110.383 64.712 110.742 69.339 110.662H71.0542C74.7638 110.463 77.5559 110.224 79.4706 109.865C80.5475 109.705 81.9835 109.546 83.7785 109.346C85.6133 109.187 86.9695 109.027 87.8869 108.868C87.9667 108.868 88.0864 108.828 88.2459 108.788C88.4055 108.748 88.5252 108.708 88.565 108.708C88.6448 108.708 88.7246 108.708 88.8443 108.748C88.9639 108.788 89.0437 108.788 89.1235 108.788C89.3628 108.868 89.6819 108.908 90.1606 108.908C90.3999 108.908 90.5196 108.868 90.5993 108.788C90.9583 108.628 91.1578 108.429 91.1578 108.19C91.5168 107.193 92.3943 106.435 93.7505 105.877L93.8702 105.757C93.9499 105.757 94.0297 105.757 94.1095 105.757C94.1893 105.678 94.3089 105.638 94.4685 105.638C94.9072 105.638 95.1865 105.837 95.2662 106.316C95.7449 107.073 96.1837 107.671 96.6623 108.11C97.141 108.629 97.3404 109.346 97.3803 110.263C97.4202 112.457 97.2606 114.371 96.9814 115.966C96.9017 116.724 96.4629 117.521 95.6651 118.359C95.2662 118.837 94.9072 118.997 94.5483 118.997Z" fill="#FFD62B"/>
<path d="M155.338 119.675C153.982 119.675 152.985 119.595 152.386 119.356C151.23 118.997 150.033 118.837 148.717 118.837L146.563 118.877C146.044 118.957 145.286 118.997 144.289 119.037C143.452 119.037 142.853 118.997 142.454 118.957H140.54C139.941 118.957 139.463 118.718 139.184 118.16C139.104 117.641 138.904 117.043 138.585 116.365C138.186 115.767 137.947 115.209 137.867 114.65C137.787 114.571 137.748 114.411 137.748 114.212C137.748 113.893 137.947 113.574 138.306 113.175C138.466 112.936 138.625 112.736 138.864 112.616C139.303 112.138 139.543 111.62 139.543 111.021C139.383 110.583 139.303 110.184 139.303 109.865C139.303 109.705 139.383 109.466 139.543 109.187C140.34 106.356 141.377 103.803 142.654 101.53C143.412 100.095 144.289 97.7021 145.326 94.3523V94.1131C145.406 94.0333 145.446 93.9535 145.446 93.8738C145.645 92.7173 146.004 91.6406 146.443 90.5639L147.56 87.3737C148.278 85.3 148.757 84.0239 148.996 83.5055C149.355 82.668 149.834 81.3919 150.432 79.7171C151.589 76.2875 152.825 73.4961 154.102 71.3825C154.78 70.2261 155.418 68.7506 156.096 66.9162C157.492 63.048 158.649 59.6584 159.606 56.7473L163.116 46.5784L163.435 45.1029C163.435 44.7838 163.276 44.5047 162.957 44.1857L160.803 43.1887C160.324 42.7501 160.125 42.1519 160.085 41.3942C160.085 40.796 160.244 40.3574 160.524 40.1181L162.319 38.6027L163.356 38.1242C163.515 38.0444 163.755 38.0046 164.153 38.0046C166.427 37.9647 168.142 37.9248 169.259 37.8451L174.604 37.8052C175.043 37.8052 175.522 37.9248 175.96 38.1242C177.476 38.5629 178.234 39.5598 178.274 41.1549C178.194 41.474 178.154 41.9126 178.194 42.5108C178.194 43.7869 179.112 46.7778 180.906 51.4834C181.864 53.9159 182.502 55.7503 182.901 57.0264C183.699 59.2995 184.975 62.1707 186.77 65.6401C188.246 68.7905 189.443 72.1003 190.28 75.49C190.679 77.1649 191.277 78.8397 192.035 80.5944C192.793 82.2693 193.391 83.984 193.79 85.8184C193.87 86.1374 194.229 86.8552 194.827 87.9718C195.745 89.9259 197.979 94.8707 201.489 102.806C202.286 104.761 202.925 106.276 203.483 107.353C203.722 107.791 203.842 108.23 203.842 108.589C203.842 109.187 203.563 109.745 202.965 110.184C203.363 110.782 203.922 111.34 204.68 111.859C205.278 112.457 205.597 112.856 205.597 113.095C205.358 113.334 205.238 113.574 205.158 113.773C204.799 114.411 204.401 114.85 204.042 115.169C203.722 115.488 203.523 115.647 203.363 115.647C201.768 115.966 200.172 116.206 198.577 116.365C196.463 116.564 194.867 116.724 193.79 116.883C193.471 116.963 193.032 117.003 192.434 117.003C191.437 117.003 189.961 116.804 187.967 116.365C187.568 116.206 187.408 116.006 187.408 115.687V113.972C187.408 112.696 187.807 111.899 188.645 111.58C188.804 111.5 189.004 111.46 189.323 111.46C189.682 111.46 190.161 111.261 190.679 110.862L191.596 110.383C192.035 110.144 192.275 109.705 192.275 109.027V108.589C191.557 106.236 190.759 103.843 189.802 101.331C188.485 98.699 187.049 95.3892 185.494 91.3615L184.816 90.0056C184.496 89.4074 184.177 88.9289 183.898 88.5301C183.659 88.5301 183.499 88.4902 183.459 88.4105C183.22 88.3307 182.901 88.2909 182.422 88.2909C181.983 88.3706 181.305 88.4105 180.468 88.4105C179.55 88.4105 178.872 88.4105 178.433 88.3307C176.918 88.3307 175.601 88.5301 174.445 88.8093C173.846 89.0485 172.889 89.1682 171.613 89.1682C170.416 89.1682 169.498 89.1682 168.9 89.0884C168.661 89.0884 168.302 89.0884 167.743 89.0485C167.225 89.0087 166.786 89.0087 166.507 89.0087C166.228 89.0087 165.789 89.0485 165.31 89.0884C164.832 89.1283 164.473 89.1682 164.233 89.1682L159.447 89.5669C157.412 89.6068 156.096 90.4841 155.498 92.2388C155.059 94.2726 154.501 96.1867 153.862 97.9414C153.144 99.7757 152.466 101.61 151.868 103.445L150.99 105.598C149.953 107.871 149.315 109.785 149.116 111.301C149.116 112.138 149.634 112.537 150.592 112.537C152.107 112.377 153.144 112.258 153.663 112.258C154.022 112.258 154.78 112.337 155.817 112.457C156.655 112.736 157.213 113.454 157.532 114.61L157.891 116.325C157.971 116.485 158.011 116.644 158.011 116.883C158.011 117.282 157.851 117.601 157.572 117.92L157.253 118.399C156.974 118.837 156.575 119.236 156.136 119.555C155.857 119.635 155.657 119.675 155.338 119.675ZM160.404 85.1405H160.962C162.718 84.7417 164.273 84.5423 165.749 84.5024C166.946 84.5024 168.063 84.6221 169.06 84.9012H170.536C170.775 84.9012 170.974 84.8613 171.214 84.7816H172.131C173.966 84.4626 175.282 84.2632 176.12 84.1834L179.869 83.7846L180.787 83.5454C180.946 83.5454 181.106 83.4257 181.345 83.1466C181.585 82.8674 181.664 82.668 181.664 82.5085C181.505 82.1895 181.425 81.9502 181.425 81.711C180.188 78.4808 179.151 75.2108 178.354 71.9408C177.715 69.7475 176.958 67.6739 176 65.7198C174.205 62.4897 172.969 59.5786 172.251 56.9865C172.091 56.7074 172.011 56.4681 172.011 56.3086L171.652 55.87C171.652 55.7104 171.613 55.5509 171.533 55.3515C171.453 55.1522 171.373 54.9926 171.293 54.8331C171.214 54.6736 171.174 54.554 171.174 54.5141C170.934 54.2748 170.815 54.1951 170.815 54.2748C170.376 54.2748 170.097 54.3945 170.017 54.6337C168.102 58.3025 166.387 62.2106 164.911 66.3978C163.595 69.8273 162.159 72.9777 160.683 75.8888C159.806 77.3244 158.848 79.8766 157.931 83.5454C157.931 84.1435 158.09 84.5822 158.41 84.7816C158.569 84.9411 158.689 85.0208 158.769 85.0208C159.207 85.1006 159.726 85.1405 160.404 85.1405Z" fill="#FFD62B"/>
<path d="M242.933 116.206C242.773 116.206 242.494 116.246 242.015 116.286C241.576 116.325 241.257 116.365 241.098 116.365C238.824 116.405 235.833 116.006 232.083 115.209C232.003 115.209 231.884 115.169 231.724 115.089C230.129 114.81 228.533 114.252 226.938 113.454C223.826 112.138 221.513 109.706 220.037 106.236L219.678 105.12L219.199 104.123C218.641 102.528 218.003 101.331 217.205 100.494C216.607 99.8159 216.048 98.6993 215.569 97.1042C215.011 95.0704 214.732 92.7574 214.692 90.1654V88.6899C214.692 87.2543 214.532 85.7389 214.293 84.1438C214.213 83.7849 214.173 83.2266 214.173 82.5487C214.173 81.8707 214.133 81.3523 214.054 80.9535L213.296 73.0975C213.136 71.1435 213.017 69.6281 213.017 68.6711C213.017 67.395 213.176 65.9195 213.535 64.2446C213.695 63.7661 213.735 63.4072 213.735 63.0881C213.735 62.5697 213.774 62.1709 213.854 61.9317L214.492 57.8242C214.931 55.5512 215.889 53.637 217.404 52.0818C218.282 51.2443 219.159 50.1676 219.997 48.8517C220.835 47.6154 222.51 45.781 225.063 43.3485C225.422 42.9497 225.861 42.6706 226.299 42.4313C227.895 41.5938 228.932 40.7963 229.45 40.1184C229.809 39.7196 230.248 39.5202 230.687 39.4404C232.123 39.3607 233.639 39.1214 235.234 38.6827C236.072 38.4435 236.83 38.3238 237.508 38.3238C237.747 38.4036 238.106 38.4435 238.665 38.4435C239.103 38.4435 239.502 38.4036 239.821 38.3238C240.18 38.2441 240.858 38.2042 241.736 38.2042C242.175 38.2042 242.813 38.1245 243.571 37.9649C245.605 37.5662 247.48 37.3668 249.155 37.3269C251.588 37.287 253.423 37.2471 254.74 37.1674H255.178C257.372 37.1275 260.005 37.9649 263.076 39.5999C266.427 41.5141 269.219 43.7074 271.453 46.1001C272.968 47.7351 273.886 49.1707 274.125 50.4069C274.763 52.8395 275.122 56.5481 275.162 61.5329L275.202 66.1986C275.202 66.717 274.963 67.1956 274.404 67.6342C273.886 68.0729 273.287 68.2723 272.609 68.2723C271.931 68.1128 271.413 67.8336 271.133 67.395L270.774 66.4778C270.376 65.7201 270.136 65.0023 270.056 64.3244L269.817 62.9685C269.737 62.2906 269.698 61.174 269.658 59.6586V58.0635C269.618 55.6309 269.179 53.4376 268.341 51.4836C267.384 49.051 265.948 47.5357 263.954 46.8578C262.278 45.7412 259.925 45.1829 256.893 45.2228H256.215C255.378 45.2228 254.739 45.2228 254.301 45.143L246.443 45.2228C242.494 45.2626 237.907 46.2995 232.681 48.3332C231.006 49.0511 229.331 50.0879 227.576 51.4836C225.94 52.8793 225.063 54.4745 225.023 56.3089L224.823 59.2598C224.744 59.9378 224.744 60.9746 224.744 62.3305C224.784 64.9225 224.744 66.8367 224.704 68.1527L225.103 73.935L225.143 77.6835C225.302 79.9566 225.422 81.6713 225.422 82.7879C225.741 85.8984 225.94 89.4077 225.98 93.3556C226.06 93.7544 226.1 94.3127 226.1 95.0704C226.02 95.3096 225.98 95.5489 225.98 95.8679C225.98 96.2667 226.02 96.506 226.1 96.6655C226.18 96.9048 226.22 97.1839 226.22 97.5827C226.22 97.7422 226.299 98.0214 226.459 98.4999C226.938 100.334 227.576 101.69 228.334 102.567C229.091 103.485 230.368 104.362 232.123 105.239C233.439 105.917 234.875 106.436 236.471 106.795C237.149 107.034 237.867 107.114 238.625 107.114C238.944 107.114 239.462 107.034 240.22 106.874L255.777 104.202C259.087 103.325 261.879 101.491 264.153 98.6594C266.865 95.4293 268.182 92.3985 268.142 89.5273C268.142 88.4506 267.982 87.7727 267.703 87.4935C267.424 87.1745 266.786 87.0549 265.709 87.0549H264.552C264.313 87.1346 263.954 87.1745 263.435 87.1745C261.84 87.1745 260.723 86.7359 260.124 85.8585L259.327 84.8616C258.649 84.3432 258.29 83.8247 258.29 83.2665C258.29 82.9474 258.329 82.748 258.409 82.5885C258.489 81.9904 258.728 81.5118 259.207 81.2327L259.646 80.9934C259.726 80.9136 259.845 80.8738 259.965 80.8738C261.161 80.3952 262.079 80.156 262.677 80.156L266.187 79.7572C267.703 79.5977 268.86 79.4382 269.618 79.2786C269.777 79.1989 269.977 79.159 270.296 79.159C270.376 79.2388 270.495 79.2786 270.655 79.2786C270.814 79.2786 270.934 79.2388 270.974 79.159H271.532C273.208 79.159 274.604 79.5977 275.76 80.475C276.518 80.9934 276.917 81.5118 276.917 82.0701C276.917 82.2296 276.837 82.5885 276.718 83.2266C276.518 83.5855 276.399 83.9045 276.399 84.1438C276.399 84.2235 276.399 84.3033 276.439 84.383C276.479 84.4628 276.478 84.5426 276.478 84.6223C276.798 85.2205 276.957 85.9782 276.957 86.8954C276.957 87.4935 276.917 87.9721 276.837 88.2512C276.558 90.285 276.439 92.6378 276.478 95.19C276.518 97.3036 276.638 99.457 276.877 101.65C277.037 103.006 277.117 104.083 277.157 104.841L277.196 108.35C277.196 109.107 276.837 109.865 276.08 110.623L275.282 111.101C275.043 111.181 274.763 111.221 274.364 111.221H273.447C273.008 111.301 272.49 111.341 271.971 111.341C271.373 111.341 270.934 111.181 270.695 110.902C270.455 110.583 270.096 109.905 269.658 108.868C269.658 108.629 269.458 108.43 269.099 108.19C268.7 107.951 268.501 107.871 268.421 107.871L268.102 107.991C267.942 108.15 267.783 108.27 267.663 108.35C267.424 108.43 267.185 108.629 266.865 108.948C264.472 110.862 262.358 112.178 260.523 112.896C257.811 114.132 255.019 114.89 252.107 115.169C250.073 115.249 248.038 115.528 246.084 115.927C245.206 116.006 244.169 116.166 242.933 116.206Z" fill="#FFD62B"/>
<path d="M322.707 115.527L321.91 115.328C321.83 115.328 321.75 115.288 321.67 115.208H321.431H321.192L320.952 115.328C320.514 115.407 319.835 115.447 318.998 115.447C318.32 115.447 317.203 115.407 315.647 115.328C314.092 115.248 312.815 115.168 311.818 115.208C310.462 115.367 309.425 115.447 308.747 115.487C307.829 115.487 306.473 115.447 304.638 115.288C301.806 114.809 300.131 114.291 299.493 113.772C297.059 113.055 295.065 111.38 293.509 108.708C293.19 108.189 292.632 107.511 291.794 106.674C290.877 105.757 290.119 104.441 289.6 102.726C288.803 100.373 288.404 97.7414 288.364 94.7904L288.284 87.054C288.244 84.5417 288.324 81.9895 288.523 79.4373C288.523 78.7594 288.563 78.2809 288.603 78.0815C288.803 76.5661 288.922 75.1305 288.882 73.7746C288.882 72.5783 288.723 71.2224 288.483 69.7868C288.324 68.5905 288.244 67.6733 288.204 67.0751C288.164 64.9616 288.404 62.9278 288.922 61.0136C289.521 58.9799 289.8 57.0258 289.76 55.1914C289.88 52.9981 290.518 50.8447 291.635 48.8109C291.954 48.3324 292.153 47.814 292.313 47.2158C292.951 44.863 294.507 42.6298 296.9 40.5562C297.139 40.3169 297.777 39.958 298.814 39.5193C299.253 39.3598 299.572 39.2801 299.732 39.2801C299.812 39.2801 300.091 39.2003 300.53 39.0408C301.048 38.961 301.567 38.7218 302.005 38.3629C303.043 37.8843 303.88 37.6451 304.479 37.6451H304.917C305.316 37.7248 305.835 37.7647 306.513 37.7248C306.952 37.6451 307.67 37.6052 308.547 37.6052C309.465 37.6052 310.103 37.5653 310.462 37.4856C310.781 37.4058 311.22 37.3659 311.818 37.3659C312.137 37.3659 312.576 37.2862 313.174 37.1267C313.852 36.8076 314.77 36.6481 315.887 36.6481C316.246 36.6481 317.003 36.7279 318.041 36.8475C318.719 37.007 319.756 37.0469 321.112 37.0469C322.309 37.0469 323.984 36.9273 326.098 36.7678C326.417 36.7678 326.616 36.7279 326.776 36.6481C326.936 36.5684 327.135 36.5285 327.454 36.5285C328.052 36.4487 328.93 36.4089 330.087 36.369C332.44 36.3291 334.514 36.6082 336.349 37.2064C338.184 37.8046 339.899 38.0837 341.495 38.0439C343.17 38.0439 344.765 39.1206 346.321 41.274C346.401 41.4335 346.76 42.3906 347.398 44.225L348.435 47.1759C348.595 47.6146 348.675 48.0134 348.675 48.2925V49.449C348.595 50.2067 348.595 51.3233 348.595 52.7589C348.635 55.2712 348.794 57.4645 349.113 59.3388C349.432 61.6118 349.672 63.3266 349.751 64.4432L350.15 70.4647C350.071 70.704 350.031 70.9832 350.031 71.3819L349.273 96.1861C349.273 97.6217 349.153 98.858 348.874 99.815C348.635 100.732 348.395 101.889 348.116 103.364C347.957 103.843 347.797 104.241 347.558 104.64L344.965 108.309C341.894 110.861 340.019 112.337 339.341 112.815C337.825 113.892 336.19 114.45 334.474 114.45C333.796 114.45 333.278 114.41 332.999 114.371C332.6 114.371 332.36 114.331 332.201 114.251C331.961 114.171 331.642 114.131 331.164 114.131H330.486C329.728 114.131 329.089 114.251 328.571 114.49C328.132 114.65 327.853 114.729 327.773 114.729L326.856 115.088C325.859 115.487 324.901 115.687 323.904 115.687C323.505 115.647 323.027 115.607 322.707 115.527ZM309.664 107.153C310.422 107.312 310.98 107.352 311.379 107.352C312.137 107.352 312.975 107.232 313.892 106.993C314.81 106.834 315.488 106.754 315.926 106.754C316.086 106.754 316.285 106.754 316.605 106.794C316.924 106.834 317.163 106.834 317.402 106.834C318.838 107.033 320.234 107.153 321.511 107.153C323.266 107.153 325.18 106.913 327.295 106.515C328.372 106.275 329.847 106.076 331.842 105.876C332.081 105.876 332.48 105.797 333.078 105.637C333.437 105.478 333.637 105.238 333.637 104.959V104.042C333.637 103.524 333.876 103.245 334.434 103.245H336.03C336.349 103.324 336.828 103.364 337.506 103.324C339.022 103.324 339.979 102.646 340.338 101.37C340.418 100.932 340.577 100.214 340.896 99.3365C341.176 98.2598 341.415 96.5051 341.614 94.0726L341.933 90.6431V89.2872C341.933 87.9314 341.774 86.6154 341.535 85.2994C341.295 84.2626 341.176 83.1859 341.176 82.1091C341.215 80.3545 341.255 77.8023 341.215 74.3728C341.215 73.8544 341.136 72.658 340.936 70.8635L340.896 66.7561C340.657 59.259 340.418 53.5166 340.138 49.5686C340.138 48.7312 339.859 47.8937 339.301 47.0962L338.383 46.0992C338.064 45.6606 337.586 45.3415 336.908 45.2219C332.959 44.4243 329.209 44.0654 325.619 44.1053C322.827 44.1452 320.115 44.3845 317.562 44.863C316.206 45.0225 315.169 45.1023 314.49 45.1422C313.972 45.2219 313.134 45.2618 311.978 45.3017L309.465 45.3415C306.872 45.3814 304.399 46.2986 301.966 48.1729C300.609 49.2496 299.891 50.5656 299.852 52.0809V53.6761C299.852 54.0748 299.772 54.5534 299.652 55.1516C299.213 56.2283 298.974 57.4645 299.014 58.9001V60.0566C298.974 62.1701 298.974 65.2806 299.014 69.388L299.134 78.5999C299.173 80.514 299.213 81.9098 299.293 82.827L299.333 87.1338C299.373 89.7259 299.532 91.959 299.852 93.8333C300.091 96.1064 300.25 98.3794 300.29 100.652V101.091L300.649 101.889C300.809 102.248 301.008 102.527 301.208 102.686L303.402 104.241C305.595 105.757 307.67 106.794 309.664 107.153Z" fill="#FFD62B"/>
<path d="M324.024 117.602C323.226 117.602 322.707 117.562 322.229 117.442L321.231 117.282C320.713 117.362 319.995 117.402 319.077 117.442C318.32 117.442 317.203 117.402 315.567 117.322C314.052 117.243 312.855 117.163 311.898 117.203C310.661 117.362 309.544 117.442 308.826 117.482C307.829 117.482 306.433 117.442 304.558 117.282C300.888 116.644 299.413 116.046 298.655 115.568C295.863 114.651 293.589 112.657 291.874 109.706C291.754 109.506 291.395 109.028 290.478 108.111C289.321 106.954 288.403 105.359 287.765 103.325C286.928 100.813 286.489 97.9416 286.449 94.7912L286.369 87.0549C286.329 84.5027 286.449 81.8707 286.648 79.2388C286.648 78.4412 286.688 77.8829 286.848 77.4044C286.968 76.3277 287.047 74.9718 287.047 73.6957C287.047 72.5791 286.928 71.3429 286.688 70.0269C286.489 68.6312 286.409 67.6342 286.409 66.9962C286.369 64.7231 286.648 62.49 287.207 60.4163C287.765 58.542 288.005 56.7475 288.005 55.1524C288.164 52.5603 288.842 50.0879 290.119 47.7749C290.358 47.3762 290.518 47.0571 290.597 46.6583C291.355 43.8669 293.11 41.3147 295.823 38.9619C296.062 38.7226 296.62 38.3238 298.256 37.606C299.054 37.3269 299.492 37.2072 299.891 37.2072C299.772 37.2072 299.891 37.1674 300.091 37.0876L300.49 37.0078C300.529 37.0078 300.729 36.968 300.968 36.7686L301.447 36.4496C302.763 35.8514 303.84 35.5722 304.718 35.5722H305.196C305.874 35.652 306.273 35.6919 306.792 35.652C306.991 35.5722 307.789 35.5324 308.826 35.5324C309.544 35.5324 310.063 35.4925 310.382 35.4526C310.741 35.333 311.339 35.2931 312.137 35.2931C312.137 35.2931 312.336 35.2931 313.014 35.1336C313.653 34.8146 314.809 34.6152 316.205 34.5753C316.525 34.5753 317.442 34.655 318.639 34.7747C319.157 34.8943 319.955 34.9741 321.431 34.9342C322.588 34.9342 324.223 34.8146 326.297 34.655C326.696 34.5354 327.175 34.4158 327.813 34.4158C328.252 34.336 329.209 34.2961 330.446 34.2563C332.958 34.2164 335.312 34.5354 337.346 35.1735C338.942 35.6919 340.457 35.9311 341.853 35.9311C341.893 35.9311 341.893 35.9311 341.933 35.9311C344.247 35.9311 346.401 37.287 348.315 40.0386C348.555 40.4374 348.954 41.5141 349.632 43.4681L350.669 46.4191C350.908 47.0571 351.028 47.6553 351.028 48.2136V49.3701C350.948 50.2873 350.948 51.3241 350.948 52.6799C350.988 55.0726 351.147 57.1862 351.466 58.9408C351.825 61.3335 352.025 63.0881 352.105 64.2446L352.543 70.665L352.424 71.0239L351.666 96.187C351.706 97.7023 351.506 99.1379 351.187 100.334C350.988 101.132 350.749 102.288 350.469 103.684C350.23 104.521 349.991 105.08 349.672 105.558L346.64 109.746C342.412 113.215 341.335 114.052 340.856 114.371C339.061 115.647 337.027 116.325 334.873 116.365C334.115 116.365 333.597 116.325 333.158 116.286C332.759 116.286 332.32 116.246 331.881 116.046C331.921 116.086 331.802 116.046 331.642 116.086C331.642 116.086 331.602 116.086 331.562 116.086H330.884C330.406 116.086 330.007 116.166 329.728 116.286C329.249 116.445 328.93 116.565 328.69 116.605L327.933 116.884C326.776 117.362 325.539 117.602 324.303 117.641C324.143 117.602 324.063 117.602 324.024 117.602ZM321.471 115.209L321.431 115.488L321.471 115.448V115.209ZM323.226 113.574C323.266 113.574 323.505 113.614 324.183 113.614C324.941 113.614 325.659 113.454 326.417 113.135L327.933 112.657C327.853 112.657 327.972 112.617 328.172 112.537C328.81 112.258 329.728 112.058 330.765 112.058H331.443C332.121 112.098 332.639 112.098 333.078 112.258H333.317L333.756 112.338C333.756 112.338 333.996 112.377 334.753 112.377C336.11 112.377 337.306 111.939 338.503 111.101C338.942 110.782 340.218 109.825 343.808 106.874L346.241 103.445C346.281 103.325 346.401 103.046 346.52 102.727C346.76 101.491 346.999 100.255 347.238 99.3373C347.478 98.4201 347.597 97.4232 347.597 96.187L348.355 71.2631C348.355 70.9042 348.395 70.5453 348.435 70.2263L348.036 64.5237C347.956 63.447 347.757 61.7722 347.438 59.5789C347.119 57.6647 346.919 55.3518 346.879 52.7198C346.879 51.2045 346.879 50.0081 346.959 49.2106V48.2535C346.959 48.2535 346.959 48.094 346.839 47.7749L345.802 44.824C345.244 43.2288 344.925 42.3116 344.805 42.0325C344.207 41.2349 342.97 39.7993 341.814 39.9588C339.979 39.919 338.064 39.6797 336.03 39.0018C334.434 38.4833 332.52 38.2042 330.406 38.2441C329.369 38.2441 328.571 38.2839 328.012 38.3637C327.454 38.5631 326.816 38.603 326.417 38.603C324.383 38.7625 322.667 38.8821 321.431 38.8821C319.875 38.8821 318.758 38.8422 317.921 38.6428C317.163 38.5631 316.604 38.4833 316.205 38.4833C315.168 38.4833 314.57 38.6428 314.291 38.8024C313.174 39.1214 312.616 39.2011 312.137 39.241C311.499 39.241 311.259 39.3208 311.259 39.3208C310.621 39.4005 309.863 39.4803 308.786 39.4803C308.028 39.4803 307.43 39.5202 307.031 39.5999C305.874 39.6398 305.236 39.5999 304.758 39.5202L304.678 39.56C304.598 39.56 304.199 39.5999 303.202 39.9987C302.604 40.4772 301.926 40.7564 301.208 40.9159C300.49 41.1552 300.21 41.195 300.011 41.195C300.011 41.195 299.851 41.2349 299.652 41.3147C298.695 41.7533 298.415 41.9527 298.415 41.9527C296.301 43.7871 294.945 45.7013 294.387 47.6553C294.187 48.4529 293.908 49.1707 293.469 49.8087C292.592 51.4836 292.033 53.318 291.914 55.2321C291.954 57.1064 291.634 59.2598 290.996 61.493C290.557 63.1679 290.318 65.0422 290.358 66.9563C290.358 67.5146 290.438 68.3122 290.597 69.4288C290.837 70.9042 290.996 72.3399 290.996 73.6558C290.996 75.1313 290.916 76.6866 290.677 78.2817C290.597 78.6805 290.597 78.9596 290.597 79.3584C290.398 82.0302 290.318 84.5426 290.358 86.9751L290.438 94.7115C290.478 97.4631 290.837 99.9355 291.555 102.049C291.993 103.485 292.592 104.561 293.27 105.199C294.267 106.156 294.905 106.954 295.304 107.632C296.581 109.825 298.176 111.181 300.131 111.779L300.849 112.178C300.888 112.218 301.606 112.657 305.037 113.255C306.592 113.374 307.869 113.454 308.746 113.414C309.385 113.414 310.342 113.335 311.618 113.175C312.855 113.135 314.171 113.175 315.807 113.295C317.282 113.374 318.399 113.454 318.998 113.414C319.556 113.414 319.995 113.374 320.354 113.335L321.63 113.135H322.468L322.787 113.414L323.226 113.574ZM311.339 109.347C310.86 109.347 310.182 109.267 309.305 109.107C307.031 108.709 304.638 107.552 302.165 105.758L300.011 104.202C299.532 103.883 299.054 103.325 298.774 102.567L298.256 100.574C298.216 98.4201 298.096 96.187 297.857 93.9538C297.538 92.0795 297.338 89.7267 297.299 87.0549L297.259 82.748C297.179 81.9505 297.139 80.5149 297.099 78.521L296.979 69.3091C296.94 65.2017 296.94 62.0513 296.979 59.8979V58.8212C296.979 57.1064 297.219 55.591 297.777 54.2751C297.817 53.956 297.817 53.6769 297.817 53.5573V51.9621C297.897 49.7688 298.894 47.9344 300.689 46.4988C303.441 44.3853 306.353 43.2687 309.385 43.2687L311.898 43.2288C312.895 43.2288 313.653 43.189 314.091 43.1092C315.009 43.0693 315.966 42.9896 317.243 42.8301C319.795 42.3515 322.627 42.0724 325.539 42.0325C329.249 41.9926 333.158 42.3914 337.226 43.189C338.742 43.508 339.54 44.3055 339.979 44.9037L340.737 45.7013C341.694 47.097 342.053 48.2934 342.093 49.5296C342.372 53.2781 342.611 58.9408 342.851 66.6772L342.891 70.8245C343.05 72.5392 343.17 73.7755 343.17 74.3338C343.21 77.8032 343.21 80.3952 343.13 82.1499C343.13 82.9873 343.25 83.9045 343.449 84.8217C343.728 86.2972 343.888 87.7328 343.888 89.2083V90.5641L343.569 94.1931C343.369 96.7453 343.09 98.5797 342.771 99.776C342.492 100.653 342.332 101.212 342.292 101.61C341.614 104.003 339.899 105.239 337.506 105.279C336.788 105.279 336.229 105.239 335.79 105.199H335.591C335.511 106.196 334.833 107.034 333.796 107.472C332.56 107.831 332.121 107.871 331.842 107.871C330.126 108.031 328.69 108.23 327.693 108.43C325.42 108.868 323.345 109.107 321.471 109.107C320.035 109.107 318.559 109.028 317.043 108.788C317.083 108.828 316.684 108.788 316.325 108.749C316.166 108.749 316.006 108.709 315.926 108.709C315.527 108.709 314.969 108.788 314.211 108.948C313.254 109.187 312.296 109.347 311.379 109.347H311.339ZM302.245 100.574L302.444 100.972L304.558 102.528C306.553 104.003 308.387 104.88 310.063 105.199C310.621 105.319 311.06 105.359 311.379 105.359C311.977 105.359 312.655 105.239 313.413 105.04C314.65 104.801 315.328 104.761 316.006 104.721C316.205 104.721 316.485 104.721 316.884 104.801C317.083 104.841 317.282 104.841 317.402 104.841C319.038 105.04 320.314 105.16 321.511 105.16C323.146 105.16 324.981 104.92 326.975 104.561C328.052 104.322 329.648 104.083 331.722 103.923C331.762 103.006 332.161 102.408 332.48 102.089C332.839 101.73 333.477 101.291 334.474 101.291H336.309L336.548 101.331C336.548 101.331 336.828 101.411 337.546 101.371C338.343 101.371 338.383 101.172 338.463 100.853C338.503 100.574 338.702 99.776 339.021 98.7392C339.181 98.1809 339.42 96.7851 339.66 93.9538L339.979 90.5243L339.939 89.3678C339.939 88.1316 339.819 86.8954 339.58 85.7389C339.341 84.6223 339.181 83.426 339.181 82.1898C339.221 80.3952 339.261 77.843 339.221 74.4534C339.221 73.9749 339.141 72.8184 338.942 71.1036L338.902 66.8367C338.662 59.1801 338.423 53.5971 338.144 49.7688C338.144 49.2105 337.984 48.732 337.625 48.2136L336.907 47.4559V45.2227L336.508 47.1768C332.719 46.4191 328.97 46.0203 325.659 46.1001C322.986 46.1399 320.394 46.3792 317.921 46.8179C316.325 47.0173 315.248 47.097 314.49 47.097C314.211 47.1768 313.254 47.2166 311.977 47.2565L309.464 47.2964C307.31 47.3363 305.236 48.094 303.162 49.6891C302.005 50.6063 301.846 51.4836 301.806 52.0818V53.5971C301.806 54.1554 301.726 54.7935 301.527 55.5512C301.088 56.6678 300.928 57.6647 300.928 58.8212V59.9378C300.888 62.1311 300.888 65.2017 300.928 69.2692L301.048 78.4811C301.088 80.3155 301.128 81.6713 301.208 82.5487L301.247 87.015C301.287 89.4874 301.447 91.6409 301.766 93.3955C302.045 95.8679 302.205 98.2207 302.205 100.534V100.574H302.245Z" fill="#FFD62B"/>
<path d="M411.738 115.21C410.621 115.608 409.624 115.808 408.786 115.808C407.35 115.808 405.994 115.449 404.797 114.731C402.125 113.176 399.851 112.259 398.056 111.979C397.657 111.979 397.378 111.86 397.139 111.66C396.221 110.783 395.344 110.065 394.506 109.547C393.509 109.028 392.592 108.351 391.754 107.513C390.278 105.918 388.443 104.323 386.249 102.688C384.415 101.332 382.46 99.2583 380.386 96.3871C379.149 94.5926 377.195 92.9576 374.522 91.5618C374.123 91.3226 373.685 91.2428 373.166 91.2428C372.727 91.2428 372.488 91.4422 372.488 91.8011C372.328 92.3993 372.289 92.8379 372.289 93.0373C372.289 93.476 372.289 94.1938 372.249 95.1907C372.209 96.1877 372.209 96.9055 372.209 97.3442C372.249 100.534 372.488 103.166 372.967 105.32C373.126 105.758 373.206 106.117 373.206 106.357C373.206 106.955 373.046 107.553 372.648 108.071C372.408 108.47 372.249 108.989 372.089 109.666L371.65 111.501C371.65 111.94 371.491 112.657 371.092 113.654C371.092 114.173 370.494 114.452 369.297 114.492C368.22 114.492 367.502 114.651 367.143 114.97C366.624 115.369 366.186 115.568 365.907 115.568C365.508 115.568 365.029 115.449 364.431 115.249C364.112 115.09 363.633 114.93 362.955 114.771C362.277 114.611 361.758 114.452 361.479 114.372C361.04 114.213 360.561 114.013 360.123 113.694L358.647 112.897C358.328 112.657 358.168 112.418 358.168 112.099C358.168 111.78 358.288 111.581 358.487 111.421L360.841 110.025C361.439 109.706 361.758 109.108 361.718 108.191V107.154C361.678 103.725 362.117 99.2184 363.035 93.5956L363.234 91.5618C363.234 91.4023 363.234 91.2029 363.274 91.0035C363.314 90.7643 363.314 90.6446 363.314 90.5649C363.314 90.4851 363.274 90.3256 363.234 90.1262C363.194 89.8869 363.154 89.7274 363.154 89.5679C363.114 85.7795 362.955 79.9972 362.715 72.2608C362.715 72.1013 362.676 71.862 362.636 71.4633C362.596 71.1044 362.556 70.8252 362.556 70.6657C362.556 70.227 362.636 69.4694 362.755 68.3926L362.077 56.7881C362.077 55.7912 362.037 55.0734 361.918 54.6347L361.559 52.7205C361.479 52.4813 361.439 52.1623 361.439 51.6837C361.599 50.607 361.638 49.8094 361.638 49.291C361.638 48.2941 361.479 46.8186 361.12 44.8646L361.24 44.067C361.319 43.8277 361.479 43.5087 361.798 43.0302C362.237 42.5118 362.476 41.8338 362.476 41.0761C362.396 40.8369 362.356 40.5577 362.356 40.1589C362.636 39.2417 363.114 38.7233 363.713 38.5638C364.55 38.4841 365.787 38.2847 367.462 37.9656C368.06 37.8061 370.613 37.4472 375.081 36.8491C376.916 36.6098 380.147 36.4503 384.853 36.4104H385.89C386.728 36.4104 387.805 36.2509 389.201 35.9319H390.557C395.583 35.7325 399.373 35.6128 401.925 35.573L404.638 35.5331C409.704 35.4932 414.131 36.8491 417.881 39.6007C418.399 39.9596 419.077 40.1589 419.915 40.1589C420.274 40.1589 420.912 40.478 421.75 41.1559L422.548 41.8338C423.066 42.5118 423.345 43.2296 423.385 43.9872C423.186 45.1437 423.066 46.1805 423.066 47.1775V48.334C423.066 48.653 423.106 49.0119 423.146 49.4904C423.186 49.9291 423.226 50.288 423.226 50.5273C423.226 50.7665 423.226 51.1254 423.186 51.604C423.146 52.0825 423.146 52.4414 423.146 52.6807C423.066 52.8402 423.026 53.1193 423.026 53.4782C423.026 53.9169 423.146 54.4353 423.385 54.9537C423.784 56.9077 424.023 59.3802 424.023 62.3312C424.063 64.9232 423.944 67.3159 423.664 69.5092L423.026 74.8529C423.026 75.3713 422.986 76.4879 422.827 78.1628C422.667 79.08 422.348 79.8775 421.83 80.5555C421.67 80.7947 421.112 81.2733 420.154 82.0708C419.795 82.4696 419.357 82.6291 418.918 82.669L415.846 83.0279C414.57 83.3469 413.493 83.5463 412.655 83.6261C408.188 84.3439 404.359 84.7427 401.168 84.7825L390.916 84.9022C390.597 84.9022 389.48 84.9819 387.486 85.1813H386.13C385.731 85.2611 385.571 85.62 385.571 86.2182C385.651 86.3777 385.691 86.6169 385.691 86.8961C385.691 87.4943 385.93 88.0127 386.369 88.3716C387.366 90.4851 388.364 92.0404 389.281 92.9974C389.879 93.6754 390.597 94.2337 391.355 94.6723C393.27 95.7091 394.546 96.5067 395.264 97.0251C395.743 97.4638 396.102 97.9822 396.421 98.5006L397.219 99.4178C397.538 99.8565 397.697 100.215 397.817 100.455C399.971 103.685 403.122 105.28 407.31 105.24C409.424 105.2 411.459 104.801 413.333 104.044C414.929 103.485 416.126 102.648 416.963 101.491L418.319 99.7767C418.559 99.3779 418.958 98.8994 419.556 98.2613C419.795 97.8227 420.114 97.5834 420.553 97.5834C421.072 97.5834 421.63 97.8227 422.149 98.381C422.468 98.7 422.627 98.9792 422.627 99.2982C422.707 99.6172 422.747 100.056 422.747 100.654C422.747 101.093 422.627 102.169 422.308 103.844L422.109 105.439C422.029 105.758 421.989 106.277 422.029 107.035C422.029 108.39 421.311 109.866 419.795 111.381C419.636 111.541 419.516 111.621 419.476 111.621L419.037 111.86C416.245 113.216 413.772 114.412 411.738 115.21ZM391.275 78.5616L393.988 78.5217C394.347 78.5217 394.905 78.5217 395.623 78.5616C396.341 78.6014 396.86 78.6014 397.179 78.6014C399.532 78.5616 401.646 78.4021 403.561 78.083C406.273 77.764 409.026 77.4849 411.738 77.3253C411.897 77.2456 412.097 77.2057 412.416 77.2057C412.576 77.2057 412.815 77.1259 413.094 76.9664C414.211 76.4879 414.809 75.8897 414.889 75.132L415.527 71.0246C415.767 70.1074 415.846 69.1503 415.846 68.1933C415.846 67.5153 415.807 66.9969 415.727 66.5981C415.487 64.7637 415.328 62.9692 415.328 61.1348L415.009 54.3157C415.009 53.9966 414.929 53.558 414.769 52.9598C414.769 52.8801 414.73 52.6009 414.61 52.1224C414.49 51.6438 414.41 51.2451 414.291 50.926C414.211 50.3279 414.012 49.6898 413.692 49.0119C413.373 48.334 413.174 47.6959 413.094 47.0977L412.376 45.3032C412.296 44.9842 412.057 44.7848 411.698 44.6253C410.023 44.1866 408.228 43.9872 406.353 43.9872C405.276 43.9872 404.478 43.9872 403.96 43.9075L398.375 43.9872C397.378 43.9872 396.022 43.9872 394.267 43.9075C392.512 43.8676 391.235 43.8277 390.398 43.8277C388.044 43.8676 385.731 43.9872 383.457 44.2265L376.636 44.7449C375.958 44.7449 374.802 44.8247 373.126 45.0241C372.129 45.1038 371.531 45.7419 371.331 46.8585C371.331 47.2572 371.291 47.5364 371.212 47.7757C371.132 47.9352 371.092 48.0947 371.092 48.2143C371.092 48.4536 371.132 48.5732 371.212 48.653C371.531 52.2819 371.73 55.7912 371.77 59.2207L371.93 74.813C371.93 75.9695 372.368 76.6075 373.206 76.7272C376.716 77.445 379.349 77.8039 381.184 77.764C381.622 77.764 382.38 77.8438 383.457 77.9634C384.893 78.3223 386.569 78.4818 388.483 78.4818C389.161 78.5616 390.079 78.6014 391.275 78.5616Z" fill="#FFD62B"/>
<path d="M408.708 117.801C406.953 117.801 405.277 117.322 403.762 116.405C401.368 115.009 399.334 114.132 397.738 113.893C396.901 113.893 396.143 113.414 395.704 112.975C394.906 112.218 394.149 111.58 393.431 111.141C392.393 110.623 391.317 109.825 390.319 108.868C388.883 107.313 387.128 105.797 385.014 104.202C383.02 102.727 380.946 100.533 378.712 97.4629C377.715 96.0272 376.239 94.7511 374.205 93.5947C374.205 93.9935 374.205 94.5518 374.165 95.1898C374.125 96.1469 374.125 96.8248 374.125 97.2635C374.165 100.334 374.404 102.846 374.843 104.8C375.002 105.279 375.122 105.797 375.122 106.236C375.122 107.273 374.803 108.27 374.205 109.147C374.205 109.147 374.085 109.426 373.965 110.024L373.566 111.699C373.526 112.337 373.367 113.055 373.008 114.052C372.928 114.571 372.689 115.009 372.33 115.408C371.492 116.285 370.176 116.405 369.298 116.405C368.501 116.405 368.261 116.525 368.221 116.525C367.344 117.163 366.466 117.402 365.828 117.482C365.23 117.482 364.512 117.322 363.714 117.043C363.275 116.844 362.916 116.724 362.398 116.604L360.962 116.245C360.164 116.006 359.526 115.687 358.928 115.288L357.611 114.61C356.534 113.853 356.095 113.015 356.095 112.058C356.095 111.101 356.534 110.224 357.332 109.705L359.805 108.27L359.685 107.153C359.645 103.604 360.124 98.9383 361.042 93.2358L361.241 91.3216C361.241 91.3216 361.241 91.0026 361.321 90.6437C361.241 90.0057 361.241 89.7265 361.241 89.4872C361.201 85.7387 361.042 79.9564 360.802 72.2599C360.802 72.1004 360.762 71.901 360.762 71.6218C360.722 71.1832 360.683 70.8243 360.683 70.6648C360.683 70.1065 360.762 69.269 360.922 68.0727L360.204 56.8669C360.204 55.9498 360.164 55.3117 360.084 54.9528L359.725 53.0386C359.645 52.919 359.566 52.3607 359.566 51.6828C359.725 50.4466 359.765 49.7686 359.765 49.2901C359.765 48.6919 359.685 47.4956 359.286 45.1827L359.247 44.9035L359.406 43.7869C359.606 43.0292 359.845 42.5507 360.284 41.9127C360.483 41.6734 360.563 41.5139 360.603 41.2746C360.523 40.9556 360.483 40.5967 360.483 40.158V39.839L360.563 39.52C361.201 37.5261 362.398 36.8083 363.315 36.569C364.432 36.4494 365.629 36.25 367.184 35.9309C367.543 35.8512 368.86 35.572 374.923 34.8143C376.797 34.5751 380.068 34.4156 384.934 34.3358H385.972C386.45 34.3358 387.328 34.2561 388.843 33.8972L389.282 33.8573H390.638C395.624 33.6579 399.414 33.5382 402.007 33.4984L404.719 33.4585C404.839 33.4585 404.918 33.4585 405.038 33.4585C410.423 33.4585 415.17 34.9739 419.198 37.9248C419.398 38.0445 419.836 38.0844 420.036 38.0844C420.993 38.0445 421.871 38.523 423.147 39.52L424.264 40.5169C425.102 41.5538 425.501 42.6703 425.501 43.9066C425.261 45.3023 425.181 46.2594 425.181 47.0968V48.2533C425.181 48.4925 425.181 48.8514 425.221 49.2103C425.261 49.7288 425.301 50.1275 425.301 50.4067C425.301 50.6858 425.301 51.0846 425.261 51.6429C425.221 52.0417 425.221 52.4006 425.221 52.6L425.022 53.4374C425.102 53.4773 425.142 53.7166 425.301 54.0356L425.421 54.4344C425.86 56.508 426.099 59.14 426.099 62.2106C426.139 64.8426 425.979 67.3549 425.7 69.6678L425.062 75.0115C425.062 75.3305 425.022 76.487 424.862 78.2416C424.663 79.6374 424.184 80.7539 423.466 81.711C423.307 81.9902 422.868 82.4288 421.432 83.5853C420.674 84.3828 419.677 84.5822 418.999 84.5822L416.127 84.9411C414.97 85.2602 413.813 85.4596 412.936 85.5393C408.508 86.2571 404.519 86.6559 401.249 86.6958L390.997 86.8154C390.718 86.8154 389.761 86.8952 388.086 87.0547L388.285 87.4535C389.202 89.3676 390.04 90.7633 390.838 91.5609C391.317 92.1192 391.875 92.5579 392.473 92.8769C394.428 93.9536 395.784 94.791 396.582 95.3493C397.3 96.0272 397.778 96.5855 398.137 97.2236L398.815 97.9813C399.254 98.6193 399.533 99.058 399.693 99.377C401.448 101.929 404.041 103.126 407.391 103.126C409.266 103.126 411.021 102.767 412.657 102.089C413.973 101.65 414.811 101.052 415.409 100.214L416.805 98.4199C416.925 98.1408 417.363 97.6224 418.002 96.9444C418.56 96.0272 419.517 95.469 420.594 95.469C421.631 95.3892 422.708 95.9076 423.626 96.8248C424.384 97.5825 424.623 98.3003 424.663 98.8586C424.743 99.2973 424.783 99.8157 424.822 100.494C424.822 100.892 424.783 101.69 424.384 104.043L424.184 105.558C424.144 105.757 424.104 106.037 424.104 106.874C424.144 108.788 423.187 110.742 421.312 112.656C421.153 112.816 420.834 113.135 420.315 113.334L420.036 113.494C417.204 115.129 414.611 116.365 412.497 117.203L412.417 117.242C411.061 117.721 409.904 117.96 408.827 117.96C408.748 117.801 408.708 117.801 408.708 117.801ZM398.337 109.985C400.65 110.383 403.004 111.34 405.796 112.975C406.713 113.534 407.631 113.813 408.708 113.813C408.748 113.813 408.748 113.813 408.787 113.813C409.386 113.813 410.144 113.653 411.101 113.334C413.055 112.577 415.409 111.42 418.161 109.865L418.64 109.626C419.637 108.549 420.195 107.592 420.195 106.794C420.195 105.877 420.235 105.199 420.355 104.721L420.515 103.325C420.913 101.012 420.913 100.454 420.913 100.414C420.913 100.055 420.874 99.8157 420.874 99.696C420.395 100.214 420.235 100.454 420.195 100.533L418.68 102.488C417.643 103.923 416.127 105 414.132 105.678C412.138 106.515 409.864 106.954 407.471 106.994C402.445 106.954 398.815 105.119 396.303 101.331L396.103 100.892C396.063 100.773 395.904 100.573 395.744 100.334L394.867 99.3371C394.667 98.9782 394.388 98.6193 394.029 98.3003C393.829 98.1408 392.832 97.5027 390.559 96.2665C389.561 95.6683 388.724 94.9904 387.966 94.1929C386.969 93.156 385.972 91.5609 384.895 89.4075C384.216 88.6897 383.857 87.7725 383.857 86.7356L383.658 86.3369L383.738 86.0577C383.698 84.1835 384.815 83.2663 385.892 83.0669L387.647 82.9871C389.561 82.8276 390.758 82.708 391.037 82.708L401.289 82.5883C404.36 82.5484 408.109 82.1895 412.457 81.4717C413.335 81.392 414.292 81.1926 415.489 80.8736L418.799 80.4748C419.757 79.757 420.195 79.3981 420.395 79.1588C420.714 78.7202 420.913 78.2416 420.993 77.6434C421.113 76.2078 421.153 75.171 421.153 74.6925L421.791 69.0696C422.07 66.9162 422.19 64.6033 422.15 62.1309C422.11 59.4191 421.911 57.1062 421.592 55.3117C421.312 54.5939 421.153 53.916 421.153 53.2779C421.153 52.8393 421.193 52.4405 421.272 52.1214C421.272 51.8822 421.272 51.603 421.312 51.2441C421.352 50.8055 421.352 50.5263 421.352 50.3269C421.352 50.1275 421.352 49.8484 421.312 49.4895C421.272 48.9711 421.233 48.5324 421.233 48.1735V47.0171C421.233 45.9005 421.312 44.7041 421.552 43.428C421.552 43.5875 421.512 43.3881 421.233 43.0292L420.594 42.5108C419.996 42.0323 419.757 41.9127 419.717 41.9127C418.839 41.9525 417.722 41.6734 416.845 41.0353C413.414 38.4831 409.505 37.207 404.759 37.3267L402.046 37.3665C399.494 37.4064 395.704 37.5261 390.718 37.7255H389.522C388.125 38.0445 386.969 38.204 386.011 38.204H384.974C380.347 38.2439 377.156 38.4034 375.441 38.6426C369.418 39.52 368.261 39.7194 368.022 39.7991C366.506 40.0783 365.349 40.2777 364.512 40.3973V40.9556C364.512 42.1519 364.153 43.3084 363.395 44.1857C363.355 44.2655 363.235 44.425 363.196 44.5845V44.6244C363.515 46.6183 363.674 48.0938 363.714 49.1705C363.714 49.7686 363.674 50.646 363.515 51.8423C363.515 51.8024 363.515 51.8024 363.515 51.8024C363.515 51.8024 363.515 51.9221 363.554 52.0018L363.993 54.1552C364.073 54.6736 364.153 55.5111 364.153 56.6676L364.831 68.1525C364.711 69.4684 364.631 70.1464 364.631 70.5451C364.631 70.6249 364.671 70.8243 364.671 71.1433C364.711 71.6218 364.751 71.9808 364.751 72.1801C364.99 79.8766 365.11 85.6589 365.19 89.4474C365.27 90.0455 365.31 90.2848 365.31 90.4044C365.31 90.6437 365.31 90.883 365.23 91.2419V91.3615L364.99 93.7941C364.073 99.377 363.634 103.843 363.674 107.153V108.19C363.714 110.463 362.438 111.42 361.68 111.819L361.201 112.098C361.52 112.298 361.76 112.377 361.999 112.457C362.119 112.457 362.557 112.577 363.156 112.736C364.233 113.015 364.831 113.255 365.23 113.414C365.429 113.494 365.549 113.494 365.669 113.534C365.708 113.494 365.788 113.454 365.908 113.374C366.586 112.816 367.663 112.537 369.219 112.497C369.258 112.497 369.298 112.497 369.338 112.497C369.578 111.779 369.578 111.54 369.578 111.54L369.617 111.061L370.056 109.227C370.216 108.389 370.495 107.672 370.814 107.073C371.093 106.675 371.093 106.515 371.093 106.396C371.093 106.356 371.014 106.196 370.974 105.997C370.415 103.564 370.136 100.733 370.096 97.423C370.096 96.9445 370.096 96.2266 370.136 95.1898C370.176 94.2327 370.176 93.5548 370.176 93.1161C370.176 92.837 370.216 92.3983 370.415 91.521C370.455 90.9229 370.734 90.4044 371.093 90.0057C371.412 89.6468 372.051 89.248 373.048 89.248C373.925 89.2081 374.723 89.4474 375.441 89.8461C378.313 91.3615 380.547 93.1959 381.943 95.2696C383.857 97.9015 385.692 99.8954 387.368 101.092C389.681 102.807 391.636 104.521 393.191 106.196C393.829 106.794 394.587 107.393 395.385 107.791C396.422 108.35 397.38 109.107 398.337 109.985ZM398.496 110.144C398.496 110.184 398.496 110.184 398.496 110.144C398.496 110.184 398.496 110.184 398.496 110.144ZM398.018 109.945C398.058 109.945 398.097 109.945 398.137 109.945C398.097 109.945 398.058 109.945 398.018 109.945ZM397.14 80.5944C396.821 80.5944 396.303 80.5944 395.624 80.5545C394.946 80.5147 394.428 80.5147 394.069 80.5147L391.356 80.5545C390.04 80.5944 389.043 80.5147 388.365 80.4748C386.53 80.5147 384.695 80.3153 383.1 79.9165C382.422 79.8367 381.783 79.7969 381.345 79.7969C381.305 79.7969 381.225 79.7969 381.145 79.7969C379.151 79.7969 376.478 79.438 372.928 78.7201C372.33 78.6005 370.096 78.0023 370.056 74.852L369.897 59.2596C369.857 56.0295 369.697 52.6797 369.378 49.2103C369.258 48.9312 369.219 48.6122 369.219 48.2533C369.219 47.7349 369.338 47.2962 369.538 46.8575C369.857 44.4649 371.133 43.1888 373.048 43.0292C374.763 42.8697 376 42.7501 376.718 42.7501L383.419 42.2317C385.692 41.9924 388.086 41.8329 390.479 41.793C391.317 41.793 392.633 41.793 394.428 41.8728C396.143 41.9127 397.459 41.9525 398.456 41.9525L404.041 41.8728C404.799 41.9525 405.517 41.9924 406.434 41.9525C408.508 41.9127 410.463 42.1519 412.338 42.6305C413.853 43.2286 414.292 44.1857 414.452 44.7041L415.209 46.7778C415.249 47.1766 415.409 47.6551 415.648 48.1336C416.047 49.011 416.286 49.8484 416.406 50.646L416.645 51.5632C416.765 52.0816 416.845 52.4006 416.885 52.6C417.084 53.3178 417.164 53.8362 417.164 54.3147L417.483 61.094C417.523 62.9284 417.643 64.6432 417.882 66.3579C417.962 66.7168 418.002 67.3549 418.041 68.1923C418.041 69.3488 417.922 70.4654 417.682 71.5421L417.084 75.49C417.004 76.4471 416.406 77.9226 414.093 78.8797C413.654 79.1189 413.135 79.2784 412.657 79.2784L412.298 79.4778L412.098 79.3981C409.426 79.5576 406.713 79.8367 404.001 80.1558C402.126 80.4748 399.853 80.6742 397.419 80.7141C397.18 80.5944 397.18 80.5944 397.14 80.5944ZM394.149 76.5269C394.547 76.5269 395.066 76.5269 395.744 76.5667C396.422 76.6066 396.901 76.6066 397.18 76.6066C399.414 76.5667 401.448 76.4072 403.243 76.1281C405.995 75.7692 408.668 75.5299 411.34 75.3305C411.659 75.2508 412.018 75.171 412.417 75.171C412.856 74.8919 413.016 74.7323 413.016 74.7323L413.614 70.7046C413.813 69.7875 413.933 69.0298 413.893 68.1923C413.893 67.6739 413.853 67.2751 413.813 66.996C413.534 65.0021 413.375 63.0879 413.375 61.1738L413.056 54.4344C413.056 54.3546 413.055 54.1552 412.856 53.4773L412.776 52.9589C412.776 53.0785 412.736 52.8791 412.657 52.5601L412.377 51.4036C412.258 50.7257 412.138 50.2871 411.899 49.8085C411.54 49.0508 411.3 48.2932 411.181 47.5753L410.702 46.379C409.466 46.0999 407.91 45.9005 406.394 45.9802C405.198 45.9802 404.28 45.9403 403.722 45.8606L398.456 45.9403C397.419 45.9403 396.063 45.9403 394.268 45.8606C392.553 45.8207 391.317 45.7808 390.479 45.7808C388.205 45.8207 385.972 45.9403 383.738 46.1796L376.837 46.7379C376.039 46.7379 374.962 46.8575 373.367 47.0171C373.367 47.376 373.327 47.7747 373.207 48.1735L373.247 48.5324C373.606 52.2411 373.766 55.8301 373.806 59.2596L373.965 74.852C373.965 74.8919 373.965 74.8919 373.965 74.8919C377.196 75.5299 379.669 75.8489 381.225 75.8489C381.704 75.8888 382.581 75.9287 383.778 76.0483C385.254 76.4072 386.809 76.5667 388.524 76.5269C389.322 76.6066 390.16 76.6066 391.237 76.6066L393.989 76.5667C394.029 76.5269 394.069 76.5269 394.149 76.5269ZM373.606 74.7722C373.606 74.7722 373.646 74.7722 373.606 74.7722C373.646 74.7722 373.606 74.7722 373.606 74.7722ZM410.582 45.9403C410.582 45.9802 410.582 46.0201 410.622 46.0201L410.582 45.9403Z" fill="#FFD62B"/>
<path d="M449.633 116.365C448.277 116.365 447.28 116.285 446.682 116.046C445.525 115.687 444.328 115.488 443.012 115.528L440.858 115.568C440.339 115.647 439.582 115.687 438.584 115.687C437.747 115.687 437.148 115.647 436.75 115.608H434.835C434.237 115.608 433.758 115.368 433.479 114.81C433.399 114.292 433.2 113.693 432.88 113.015C432.482 112.417 432.242 111.859 432.162 111.301C432.083 111.221 432.043 111.061 432.043 110.862C432.043 110.543 432.242 110.224 432.601 109.825C432.761 109.586 432.92 109.387 433.16 109.267C433.598 108.788 433.838 108.27 433.838 107.672C433.678 107.233 433.598 106.834 433.598 106.515C433.598 106.356 433.678 106.156 433.838 105.837C434.635 103.006 435.673 100.454 436.949 98.1808C437.707 96.7452 438.584 94.3525 439.621 91.0027V90.7635C439.701 90.6837 439.741 90.6039 439.741 90.5242C439.941 89.3677 440.3 88.291 440.738 87.2143L441.855 84.0241C442.573 81.9504 443.052 80.6743 443.291 80.1559C443.65 79.3184 444.129 78.0423 444.727 76.3675C445.884 72.9379 447.12 70.1465 448.397 68.0329C449.075 66.8765 449.713 65.401 450.391 63.5666C451.787 59.6984 452.944 56.3088 453.901 53.3977L457.412 43.2288L457.731 41.7533C457.731 41.4342 457.571 41.1551 457.252 40.8361L455.098 39.8391C454.619 39.4004 454.42 38.8023 454.38 38.0047C454.38 37.4065 454.54 36.9679 454.819 36.7685L456.614 35.2531L457.651 34.7746C457.81 34.6948 458.05 34.655 458.449 34.655C460.722 34.6151 462.437 34.5752 463.554 34.4954L468.899 34.4556C469.338 34.4556 469.817 34.5752 470.256 34.7746C471.771 35.2133 472.529 36.2102 472.569 37.8053C472.489 38.1243 472.449 38.563 472.489 39.1612C472.489 40.4373 473.407 43.4281 475.202 48.1338C476.159 50.5663 476.797 52.4007 477.196 53.6768C477.994 55.9499 479.27 58.8211 481.065 62.2905C482.541 65.4409 483.698 68.7507 484.575 72.1404C484.974 73.8153 485.573 75.4901 486.33 77.2448C487.088 78.9197 487.687 80.6344 488.085 82.4688C488.165 82.7878 488.524 83.5056 489.123 84.6222C490.04 86.5763 492.274 91.5211 495.784 99.4569C496.582 101.411 497.22 102.926 497.778 104.003C498.018 104.442 498.137 104.88 498.137 105.239C498.137 105.837 497.858 106.396 497.26 106.834C497.659 107.433 498.217 107.991 498.975 108.509C499.573 109.107 499.892 109.506 499.892 109.745C499.653 109.985 499.533 110.224 499.454 110.423C499.095 111.022 498.696 111.5 498.337 111.819C498.018 112.138 497.818 112.298 497.659 112.298C496.063 112.617 494.468 112.856 492.872 113.015C490.758 113.175 489.162 113.374 488.085 113.534C487.766 113.614 487.328 113.653 486.729 113.653C485.732 113.653 484.256 113.454 482.302 113.015C481.903 112.856 481.743 112.657 481.743 112.338V110.623C481.743 109.347 482.142 108.549 482.98 108.23C483.139 108.15 483.339 108.11 483.658 108.11C484.017 108.11 484.496 107.911 485.014 107.512L485.932 107.034C486.37 106.794 486.61 106.356 486.61 105.678V105.239C485.892 102.886 485.094 100.494 484.137 97.9814C482.82 95.3494 481.384 92.0396 479.829 88.0119L479.151 86.656C478.831 86.0578 478.512 85.5793 478.233 85.1805C477.994 85.1805 477.834 85.1406 477.794 85.0609C477.555 84.9811 477.236 84.9412 476.757 84.9412C476.319 85.021 475.64 85.0609 474.803 85.0609C473.885 85.0609 473.207 85.0609 472.768 84.9811C471.253 84.9811 469.936 85.1805 468.78 85.4995C468.181 85.7388 467.224 85.8585 465.948 85.8585C464.751 85.8585 463.834 85.8585 463.235 85.7787C462.996 85.7787 462.637 85.7787 462.078 85.7388C461.56 85.6989 461.121 85.6989 460.842 85.6989C460.563 85.6989 460.124 85.7388 459.645 85.7787C459.167 85.8186 458.808 85.8585 458.568 85.8585L453.782 86.2572C451.747 86.2971 450.431 87.1744 449.833 88.9291C449.394 90.9628 448.836 92.877 448.197 94.6316C447.479 96.466 446.801 98.3004 446.203 100.135L445.325 102.328C444.288 104.601 443.65 106.515 443.451 108.031C443.451 108.868 443.969 109.267 444.927 109.267C446.442 109.107 447.479 109.028 447.998 108.988C448.357 108.988 449.115 109.068 450.152 109.187C450.99 109.466 451.548 110.184 451.867 111.341L452.226 113.055C452.306 113.215 452.346 113.414 452.346 113.614C452.346 114.012 452.186 114.331 451.907 114.65L451.588 115.129C451.309 115.608 450.91 115.966 450.471 116.285C450.192 116.325 449.952 116.365 449.633 116.365ZM454.739 81.8308H455.297C457.053 81.432 458.608 81.2326 460.084 81.1927C461.281 81.1927 462.398 81.3123 463.395 81.6314H464.871C465.11 81.6314 465.309 81.5915 465.549 81.5117H466.466C468.301 81.1927 469.617 80.9933 470.455 80.9136L474.204 80.5148L475.122 80.2755C475.281 80.2755 475.441 80.1559 475.68 79.8767C475.92 79.5976 475.999 79.3982 475.999 79.2387C475.84 78.9197 475.76 78.6804 475.76 78.4411C474.524 75.211 473.486 71.941 472.689 68.671C472.05 66.4777 471.293 64.404 470.335 62.45C468.54 59.2199 467.304 56.3088 466.586 53.7167C466.426 53.3977 466.346 53.1983 466.346 53.0388L465.987 52.6001C465.987 52.4406 465.948 52.2811 465.868 52.0817C465.788 51.8823 465.708 51.7228 465.629 51.5633C465.549 51.4038 465.509 51.2841 465.509 51.2443C465.269 51.005 465.15 50.9252 465.15 51.005C464.711 51.005 464.432 51.1246 464.352 51.3639C462.437 55.0327 460.722 58.9407 459.246 63.1279C457.93 66.5574 456.494 69.7078 455.018 72.6189C454.141 74.0545 453.183 76.6067 452.266 80.2755C452.266 80.8737 452.426 81.3123 452.745 81.5117C452.904 81.6712 453.024 81.751 453.104 81.751C453.503 81.8308 454.061 81.8308 454.739 81.8308Z" fill="#FFD62B"/>
<path d="M520.036 99.656C519.438 99.8953 518.919 100.015 518.56 100.015C517.643 100.015 516.645 99.6959 515.568 99.018C515.409 98.8585 515.329 98.6989 515.329 98.4597C515.329 98.3002 515.369 98.1805 515.449 98.1008C515.608 97.9413 515.768 97.7419 516.007 97.5425C516.247 97.3032 516.446 97.0639 516.685 96.8645C516.925 96.6253 517.124 96.386 517.363 96.1866C518.361 95.4289 518.839 94.6314 518.799 93.7939C518.799 93.3553 518.64 92.8369 518.321 92.3184C518.002 91.7203 517.762 90.6436 517.603 89.1282C517.603 88.9687 517.563 88.7693 517.523 88.4901C517.483 88.211 517.443 88.0515 517.443 87.9717C517.443 87.2938 517.603 86.6956 517.882 86.1373C519.119 81.7906 520.834 77.8028 522.988 74.134C523.426 73.4561 523.945 72.7383 524.503 72.0604C525.062 71.3824 525.54 70.8241 525.899 70.3855C526.258 69.9468 526.897 69.4284 527.814 68.8302C528.732 68.1922 529.29 67.7934 529.489 67.6339C529.729 67.4345 530.407 67.0357 531.524 66.3578C532.641 65.6799 533.239 65.321 533.319 65.2412C535.512 64.005 537.507 63.1277 539.302 62.5694C539.741 62.4896 540.179 62.2902 540.538 61.9712L541.655 61.4927C543.849 60.6951 545.205 57.784 545.764 52.6796C545.844 52.2011 545.883 51.563 545.843 50.7256C545.804 47.5353 545.006 45.342 543.49 44.1457C543.011 43.707 542.453 43.2285 541.775 42.7898C539.262 40.8358 536.39 39.8388 533.199 39.799C532.68 39.799 531.962 39.799 531.045 39.7591C530.128 39.7192 529.449 39.7192 529.011 39.7192C527.655 39.7192 526.338 39.8787 525.022 40.118C522.669 40.3573 520.834 40.9953 519.477 41.9923L516.207 44.6641C516.127 44.8236 515.888 45.1426 515.489 45.5813C515.09 46.0598 514.811 46.3788 514.651 46.6181C514.492 46.8574 514.292 47.1764 514.053 47.6549C513.773 48.1335 513.614 48.612 513.574 49.1304C513.415 50.0476 513.295 50.8053 513.135 51.4035L512.377 53.5569V55.3913C512.377 55.6306 512.537 55.83 512.896 56.0692C513.215 56.3085 513.534 56.3883 513.734 56.3883C514.771 56.0692 515.927 55.8698 517.124 55.7901C517.802 55.7901 518.44 56.1889 519.079 57.0263C519.238 57.465 519.318 57.8239 519.318 58.0631C519.318 59.4988 518.879 60.9344 518.002 62.4098C517.563 63.7258 516.685 64.3639 515.409 64.3639C515.09 64.3639 514.85 64.324 514.611 64.2442C514.372 64.2442 514.212 64.1645 514.053 64.005C510.782 62.689 508.708 61.1337 507.87 59.419C507.391 58.422 507.152 57.1858 507.152 55.6705C507.152 54.514 507.232 53.1581 507.471 51.563C507.551 50.8851 507.79 49.7685 508.229 48.2531C508.389 47.7347 508.628 46.658 508.987 45.0629C509.865 42.8696 510.862 41.2346 512.018 40.2376C516.207 36.3296 520.874 34.0964 525.939 33.578C527.296 33.4185 528.373 33.3387 529.13 33.2988C530.287 33.2988 531.284 33.4185 532.202 33.7375C535.991 33.8571 539.661 34.8541 543.171 36.8081C546.163 38.0443 548.476 40.2775 550.191 43.4279C550.949 44.6242 551.388 45.9402 551.468 47.3758C551.707 48.8912 551.827 50.3268 551.867 51.6826C551.907 55.3913 551.228 59.2196 549.832 63.2074C549.394 64.643 548.476 65.6799 547.16 66.3179L542.293 68.5511C538.504 69.6677 535.034 71.5021 531.883 74.134C529.689 75.769 528.253 77.6832 527.495 79.9961C525.541 83.5851 524.623 86.2968 524.623 88.0914C524.623 88.6098 524.663 89.0484 524.743 89.3276L525.102 90.5638C525.181 91.3215 525.58 92.3184 526.259 93.5148C526.498 94.113 526.897 94.5915 527.415 94.8706C528.173 95.1099 528.652 95.6283 528.811 96.4658C528.811 96.705 528.612 96.9443 528.253 97.1437C528.173 97.4627 527.934 97.6222 527.455 97.6222L524.264 97.9811C522.828 98.3002 521.392 98.8186 520.036 99.656ZM525.899 113.374C525.54 113.773 525.062 113.972 524.543 113.972C523.546 113.972 522.469 113.454 521.233 112.417C520.594 111.899 520.116 111.101 519.717 110.024C519.557 109.586 519.477 109.227 519.477 108.987C519.477 108.668 519.637 108.389 519.916 108.07C520.834 107.153 521.711 106.356 522.629 105.638C523.466 105.04 524.424 104.681 525.461 104.601C526.139 104.601 526.817 104.84 527.535 105.359C528.213 105.877 528.572 106.356 528.572 106.834C528.572 109.586 527.694 111.739 525.899 113.374Z" fill="#FFD62B"/>
</svg>
