<svg width="628" height="107" viewBox="0 0 628 107" fill="none" xmlns="http://www.w3.org/2000/svg">
<path d="M287.117 1.13698L286.143 103.544L627.026 106.784L628 4.37712L287.117 1.13698Z" fill="#DF0634"/>
<path d="M282.751 0.275391H0.503418V104.716H282.751V0.275391Z" fill="#FFD62B"/>
<path d="M31.456 85.2952C30.7779 85.2952 30.2993 85.2553 29.9801 85.2154C28.7436 85.0559 27.5869 84.9761 26.47 84.9761C25.4329 84.9761 24.5155 85.0559 23.7975 85.1755C23.2391 85.1755 22.8402 84.9362 22.6009 84.4577L22.3216 83.8994L21.9626 83.5405C21.4042 82.9822 21.125 82.5436 21.125 82.1448C21.125 81.8257 21.4042 81.3871 21.9626 80.8288C22.2818 80.5098 22.4413 80.0711 22.4014 79.4331C22.2818 78.9545 22.202 78.5557 22.202 78.2367C22.202 77.9177 22.2419 77.3594 22.3615 76.4821L22.5211 74.6477C22.6009 74.2888 22.6009 73.6507 22.6009 72.8133L22.5211 63.402C22.4413 63.0431 22.4014 62.4848 22.4014 61.7271C22.4014 61.2486 22.2419 60.5308 21.9228 59.6136C21.7233 59.2547 21.6435 58.816 21.6435 58.2976C21.6435 57.859 21.7233 57.4203 21.9228 57.0215C22.1621 56.2638 22.3216 55.3068 22.4413 54.1503C22.7205 51.1993 23.0396 44.3004 23.3587 33.5333V32.2572C23.3587 29.9841 23.1194 27.9504 22.6806 26.1559C22.6009 26.0362 22.6009 25.8368 22.561 25.5178C22.561 25.1589 22.6407 24.7601 22.8402 24.4012L23.9172 22.4472C24.1565 22.0883 24.4756 21.8889 24.8346 21.8889C25.034 21.8889 25.1537 21.9288 25.1936 21.9686C26.7492 22.3674 28.3846 22.6067 30.0998 22.5668C31.6953 22.5668 33.3307 22.4472 35.006 22.2478C35.0459 22.2478 35.1257 22.2478 35.2454 22.2079C35.365 22.168 35.4049 22.168 35.4847 22.168C37.2797 21.8889 39.5134 21.7693 42.2258 21.7294C43.941 21.7294 45.2972 21.7294 46.2146 21.8091L50.3629 21.7693C54.5113 21.7294 58.6995 21.6097 62.9277 21.3705C63.9249 21.3705 64.8822 21.2508 65.7996 21.0515C67.2356 20.8521 68.5519 20.7324 69.8682 20.7324C70.8654 20.7324 71.5834 20.7324 72.1019 20.8122C73.0991 20.9318 73.5778 21.4103 73.5778 22.2877L73.498 22.4871V22.6864C73.4581 23.0055 73.3385 23.484 73.139 24.0822C73.139 24.122 73.139 24.2018 73.0991 24.3215C73.0592 24.4012 73.0194 24.481 72.9795 24.5607C72.8997 24.6405 72.8997 24.7202 72.8997 24.8399C72.8997 25.0393 72.9396 25.1589 72.9795 25.1988C72.9795 25.3184 72.9795 25.438 73.0194 25.5577C73.0592 25.6773 73.0592 25.7571 73.0592 25.8368C73.0592 25.9166 73.0592 25.9963 73.0194 26.1559C72.9795 26.3154 72.9795 26.435 72.9795 26.4749C72.9396 26.7939 72.8997 27.2326 72.8997 27.8706C72.8997 28.4688 72.6604 29.0271 72.1817 29.5056C71.703 29.9841 71.2244 30.2234 70.7856 30.2234C70.666 30.3032 70.4266 30.3032 70.0278 30.3032C68.5918 30.2633 66.4777 30.2234 63.6457 30.2633H61.1327C60.1355 30.3431 58.6597 30.3829 56.7051 30.3829C54.7107 30.3829 53.2349 30.3829 52.2776 30.343L47.6506 30.3829C46.8927 30.3829 45.8556 30.4228 44.4994 30.4627C43.1432 30.5026 42.1061 30.5424 41.3482 30.5424H38.7555C37.7184 30.5424 36.1229 30.5026 34.0487 30.3829H33.2111C32.3335 30.3829 31.6953 30.6222 31.1768 31.1406C30.738 31.5793 30.5386 32.3768 30.5386 33.5333V34.291C30.4987 34.7297 30.4588 35.4076 30.4588 36.3248L30.4987 41.9476C30.5386 44.42 30.5785 46.2146 30.6582 47.4109C30.6582 48.7668 30.6981 49.7637 30.7779 50.3619V51.2791C30.7779 52.1963 30.7779 52.9141 30.6981 53.3926C30.6981 54.27 30.8577 54.7884 31.1768 55.0675C31.3762 55.2669 31.5757 55.3467 31.815 55.3467C34.1684 55.1871 36.0032 55.1473 37.3594 55.1074H38.3566C39.3538 55.1074 40.8297 54.9479 42.7842 54.7086C44.1404 54.589 45.1775 54.5092 45.8556 54.5092C46.0949 54.5092 46.9725 54.5491 48.4483 54.6687L53.6338 54.908C54.631 54.908 55.3888 54.4693 55.9473 53.592L56.5057 53.1135C56.8248 52.8742 57.2237 52.7546 57.7023 52.7147C57.9018 52.7147 58.2209 52.7546 58.6995 52.8742C59.4973 53.2331 59.8962 53.9509 59.9361 54.9877C59.8563 55.0675 59.8563 55.1074 59.8563 55.1871C59.7765 55.3068 59.7765 55.3865 59.7765 55.4663L59.5771 56.0246C59.4574 56.3835 59.4175 56.9418 59.4175 57.6995C59.4175 58.816 59.6967 59.6535 60.2552 60.2915C60.8934 61.2885 61.2125 62.3253 61.2125 63.4419C61.2125 63.6812 61.1327 63.9205 60.9333 64.08L59.8164 64.9972C59.617 65.0769 59.3776 65.0769 59.0585 65.0769C58.5001 65.0769 57.8619 64.8775 57.104 64.4389C56.6254 64.1198 56.2265 63.721 55.9872 63.2425C55.7478 62.4449 55.0697 62.0462 53.9529 62.0462H52.477C51.7989 62.0462 51.3203 62.0462 51.0011 61.9664H49.6051C49.2461 61.9664 48.7275 61.9266 48.1292 61.8069C47.5708 61.6873 46.7331 61.6474 45.6163 61.6474C43.941 61.6474 42.1859 61.9265 40.351 62.445C39.3538 62.6444 37.878 63.0033 35.9235 63.4818L31.4161 64.718C30.738 64.9174 30.4189 65.4757 30.4189 66.3929L30.9375 74.7274C30.9375 75.9637 30.9773 76.8809 31.0571 77.479C31.2566 77.9576 31.4959 78.1968 31.815 78.1968C31.9347 78.2367 32.1341 78.2766 32.3734 78.2766C32.4532 78.3165 32.4931 78.3563 32.5729 78.3563C32.6128 78.3563 32.6925 78.3563 32.6925 78.3962C32.6925 78.4361 32.7723 78.4361 32.8521 78.4361L34.3279 78.7153C34.647 78.7551 34.9263 78.9944 35.1656 79.3533C35.2454 79.6723 35.4448 80.111 35.8437 80.749C36.1628 81.2276 36.3223 81.6662 36.3223 82.0251C36.3223 82.5037 36.083 83.062 35.6044 83.7L34.9662 84.6172C34.6072 84.9761 34.2881 85.1755 34.0487 85.1755L31.456 85.2952Z" fill="#2063AC"/>
<path d="M111.355 84.3388L110.717 84.1394C110.637 84.1394 110.598 84.0995 110.518 84.0597H110.318H110.119L109.919 84.1394C109.56 84.2192 109.042 84.2591 108.364 84.2591C107.805 84.2591 106.888 84.2192 105.651 84.1394C104.375 84.0597 103.338 84.0198 102.54 84.0198C101.423 84.1394 100.586 84.2192 100.027 84.2192C99.2693 84.2192 98.1923 84.1793 96.7165 84.0597C94.4429 83.6609 93.0468 83.2222 92.5282 82.7836C90.5338 82.1854 88.9383 80.8295 87.7018 78.6761C87.4624 78.2375 86.9838 77.6792 86.3057 77.0411C85.5478 76.3233 84.9495 75.2466 84.5107 73.811C83.8725 71.8968 83.5534 69.7434 83.5135 67.3508L83.4736 61.05C83.4736 59.0162 83.5135 56.9426 83.713 54.8689C83.713 54.3106 83.7528 53.9517 83.7927 53.7523C83.9523 52.5161 84.0321 51.3596 84.0321 50.2431C84.0321 49.2461 83.9124 48.1694 83.713 47.0129C83.5933 46.016 83.5135 45.2982 83.5135 44.7798C83.5135 43.065 83.713 41.43 84.1118 39.8748C84.5905 38.1999 84.8298 36.6446 84.7899 35.1692C84.9096 33.3746 85.3883 31.6599 86.3057 29.985C86.545 29.6261 86.7445 29.1874 86.8641 28.669C87.3827 26.7549 88.6591 24.9604 90.6136 23.2855C90.7732 23.0861 91.3316 22.8069 92.1692 22.448C92.5282 22.3284 92.7676 22.2486 92.8872 22.2486C92.967 22.2486 93.1664 22.1689 93.5254 22.0493C93.9642 21.9695 94.3631 21.81 94.7221 21.491C95.5996 21.1321 96.2378 20.9327 96.7564 20.9327H97.1153C97.5142 21.0124 97.953 21.0124 98.5114 21.0124C98.8704 20.9327 99.4289 20.9327 100.187 20.8928C100.945 20.8928 101.463 20.8529 101.742 20.7732C101.982 20.6934 102.341 20.6934 102.859 20.6535C103.099 20.6535 103.458 20.5738 103.976 20.4541C104.535 20.2149 105.253 20.0554 106.21 20.0554C106.529 20.0554 107.087 20.0952 107.965 20.2149C108.523 20.3345 109.361 20.3744 110.478 20.3744C111.475 20.3744 112.831 20.2946 114.546 20.1351C114.786 20.1351 114.985 20.0952 115.105 20.0554C115.225 20.0155 115.424 19.9756 115.663 19.9756C116.142 19.8958 116.86 19.856 117.777 19.856C119.692 19.856 121.367 20.0553 122.883 20.5339C124.359 21.0124 125.755 21.2517 127.071 21.2517C128.427 21.2517 129.744 22.129 130.98 23.8837C131.02 24.0033 131.339 24.8008 131.818 26.2763L132.656 28.669C132.775 29.0279 132.855 29.3469 132.855 29.5862V30.5034C132.815 31.1414 132.775 32.0188 132.775 33.1753C132.775 35.209 132.935 37.0035 133.174 38.5189C133.453 40.3533 133.613 41.749 133.653 42.6662L133.972 47.5712C133.932 47.7706 133.892 48.0099 133.892 48.3289L133.214 68.5072C133.214 69.6637 133.094 70.6606 132.855 71.4582C132.696 72.2159 132.456 73.173 132.217 74.3294C132.097 74.6883 131.938 75.0472 131.778 75.3662L129.664 78.3571C127.151 80.3909 125.635 81.6271 125.077 81.986C123.84 82.8633 122.524 83.302 121.128 83.302C120.57 83.302 120.171 83.2621 119.931 83.2222C119.612 83.2222 119.413 83.2222 119.293 83.1425C119.094 83.0627 118.814 83.0627 118.455 83.0627H117.897C117.259 83.0627 116.74 83.1823 116.341 83.3418C115.982 83.4615 115.743 83.5412 115.703 83.5412L114.985 83.8204C114.187 84.1394 113.39 84.2989 112.592 84.2989C111.994 84.4186 111.595 84.3787 111.355 84.3388ZM100.745 77.4798C101.383 77.5994 101.822 77.6393 102.141 77.6393C102.74 77.6393 103.418 77.5196 104.176 77.3601C104.933 77.2405 105.492 77.1608 105.851 77.1608C105.971 77.1608 106.17 77.1607 106.409 77.2006C106.649 77.2405 106.888 77.2405 107.047 77.2405C108.204 77.4 109.321 77.4798 110.398 77.4798C111.834 77.4798 113.39 77.3203 115.105 76.9614C115.982 76.762 117.219 76.6025 118.814 76.4828C119.014 76.4828 119.333 76.4031 119.812 76.2834C120.131 76.1638 120.29 75.9644 120.29 75.7251V74.9675C120.29 74.5288 120.49 74.3294 120.929 74.3294H122.205C122.444 74.4092 122.843 74.4092 123.402 74.4092C124.638 74.4092 125.396 73.8509 125.715 72.814C125.755 72.4551 125.915 71.8968 126.154 71.1392C126.393 70.2618 126.593 68.8661 126.752 66.8722L126.992 64.0808V62.9641C126.992 61.8476 126.872 60.7709 126.672 59.734C126.473 58.8567 126.393 58.0193 126.353 57.142C126.393 55.7063 126.433 53.6327 126.393 50.8412C126.393 50.4026 126.313 49.4455 126.194 47.97L126.154 44.6601C125.994 38.5588 125.795 33.893 125.556 30.7028C125.556 30.0249 125.316 29.3469 124.877 28.669L124.159 27.9113C123.92 27.5524 123.481 27.3132 122.963 27.1935C119.732 26.5555 116.7 26.2364 113.789 26.2364C111.515 26.2364 109.321 26.4757 107.207 26.8346C106.09 26.9543 105.253 27.034 104.694 27.034C104.255 27.1138 103.577 27.1537 102.66 27.1537H100.626C98.5114 27.1537 96.4771 27.9512 94.5226 29.4267C93.4058 30.304 92.8473 31.3409 92.8074 32.5771V33.8532C92.8074 34.1722 92.7676 34.571 92.6479 35.0495C92.2889 35.9268 92.1293 36.9238 92.1293 38.1201V39.0373C92.0895 40.7521 92.0895 43.3043 92.0895 46.6141L92.1692 54.1112C92.1692 55.6665 92.2091 56.7831 92.2889 57.5408L92.3288 61.05C92.3288 63.1636 92.4883 64.9581 92.7676 66.5133C92.967 68.3477 93.0867 70.222 93.0867 72.0564V72.4153L93.3659 73.0533C93.4855 73.3723 93.6451 73.5717 93.8445 73.6914L95.5996 74.9675C97.4345 76.3632 99.1496 77.2006 100.745 77.4798Z" fill="#2063AC"/>
<path d="M112.471 86.4122C111.793 86.4122 111.314 86.3723 110.915 86.2926L110.197 86.1729C109.718 86.2527 109.12 86.2926 108.282 86.2926C107.684 86.2926 106.767 86.2527 105.57 86.1729C104.373 86.0932 103.496 86.0533 102.618 86.0533C101.541 86.2128 100.664 86.2527 99.9458 86.2527C99.1879 86.2527 98.071 86.2128 96.6351 86.0932C93.6435 85.5748 92.367 85.0962 91.6889 84.6576C89.3754 83.86 87.4608 82.225 86.0248 79.7526C85.9451 79.6329 85.7057 79.274 84.9479 78.5163C83.9507 77.5592 83.1928 76.1635 82.6742 74.4488C81.9961 72.3751 81.6372 70.0223 81.5973 67.3903L81.5574 61.0896C81.5574 59.0159 81.6371 56.8625 81.7967 54.7091C81.7967 54.0311 81.8366 53.5526 81.9563 53.114C82.036 52.3563 82.1158 51.2796 82.1158 50.2427C82.1158 49.3654 81.9961 48.3684 81.8366 47.3316C81.677 46.1751 81.5973 45.3776 81.5973 44.8193C81.5973 42.9051 81.7967 41.0707 82.2754 39.3959C82.7141 37.8805 82.9136 36.4847 82.9136 35.2086C83.0332 33.0153 83.6316 30.9816 84.6686 29.0276C84.8681 28.7085 84.9479 28.4693 85.0276 28.1901C85.7057 25.8373 87.1417 23.6839 89.4153 21.7697C89.6148 21.5703 90.0934 21.2114 91.4496 20.6133C92.2075 20.374 92.6064 20.2543 93.0052 20.2543V20.1746L93.2047 19.9752L94.0423 19.6562C95.1991 19.1777 96.0766 18.9384 96.8744 18.8985H97.0738L97.6323 18.9384C97.8317 18.9783 98.1508 19.0181 98.5497 18.9782C98.6693 18.9384 99.3474 18.8985 100.225 18.8586C100.783 18.8586 101.182 18.8586 101.382 18.7789C101.701 18.6991 102.179 18.6592 102.897 18.6194C102.897 18.6194 103.057 18.6194 103.496 18.4997C104.014 18.2605 105.012 18.0611 106.208 18.0611C106.487 18.0611 107.245 18.1009 108.242 18.2604C108.681 18.3402 109.28 18.4199 110.476 18.4199C111.434 18.4199 112.75 18.3402 114.385 18.1807C114.664 18.0611 115.103 17.9813 115.662 17.9813C115.941 17.9414 116.739 17.8617 117.776 17.8617C119.85 17.8218 121.804 18.1009 123.48 18.6592C124.756 19.058 126.072 19.2574 127.03 19.2574C128.984 19.2175 130.939 20.4139 132.574 22.7667C132.814 23.2053 133.133 24.0826 133.691 25.6778L134.529 28.0705C134.728 28.6287 134.848 29.1472 134.848 29.6257V30.5429C134.808 31.3006 134.768 32.138 134.768 33.2147C134.768 35.1688 134.928 36.8437 135.167 38.2394C135.446 40.1934 135.606 41.6291 135.685 42.5861L136.044 47.8899L135.925 48.2488L135.287 68.6266C135.287 69.9027 135.167 71.099 134.848 72.0959C134.688 72.734 134.489 73.6512 134.249 74.8077C134.01 75.5653 133.811 76.0439 133.531 76.4826L130.979 79.9918C127.548 82.7833 126.631 83.4612 126.232 83.7404C124.716 84.8171 123.001 85.4153 121.166 85.4153C120.568 85.4153 120.129 85.3754 119.73 85.3355C119.411 85.3355 119.052 85.2956 118.733 85.176H117.935C117.616 85.176 117.337 85.2159 117.138 85.2956C116.739 85.4153 116.499 85.5349 116.26 85.5748L115.662 85.814C114.625 86.2128 113.587 86.4122 112.55 86.4122C112.55 86.4122 112.51 86.4122 112.471 86.4122ZM111.832 82.3845C111.992 82.4244 112.231 82.4244 112.55 82.4244C113.109 82.4244 113.667 82.3047 114.226 82.0655L115.702 81.5471C116.22 81.3078 117.018 81.1483 117.895 81.1483H118.454C119.132 81.1483 119.531 81.1882 119.93 81.3477H120.209L120.448 81.3876C120.608 81.4274 120.847 81.4274 121.126 81.4274C122.124 81.4274 123.041 81.1084 123.958 80.4704C124.317 80.2311 125.315 79.4734 128.226 77.0807L130.181 74.3291C130.181 74.2893 130.301 74.0899 130.38 73.8506C130.54 72.8935 130.779 71.8966 130.979 71.1389C131.178 70.4211 131.258 69.6235 131.258 68.6664L131.936 48.4083C131.936 48.1292 131.936 47.85 132.016 47.5709L131.697 42.9849C131.617 42.1076 131.457 40.7517 131.218 38.9971C130.939 37.4418 130.779 35.5277 130.779 33.3743C130.779 32.138 130.779 31.181 130.859 30.503V29.7852L129.942 27.1134C129.583 26.0367 129.343 25.3588 129.224 24.9999C128.745 24.3219 127.907 23.3648 127.11 23.3648C127.07 23.3648 127.03 23.3648 126.99 23.3648C125.514 23.3648 123.958 23.0857 122.283 22.5673C121.007 22.1685 119.491 21.9691 117.816 21.9691C116.978 21.9691 116.38 22.009 115.941 22.0489C115.582 22.1685 115.103 22.2482 114.585 22.2482C112.949 22.3679 111.553 22.4477 110.556 22.4875C109.24 22.4875 108.322 22.4476 107.604 22.2881C107.046 22.2084 106.527 22.1286 106.288 22.1685C105.45 22.1685 105.051 22.2881 104.852 22.3679C103.895 22.647 103.376 22.7268 102.977 22.7268C102.698 22.7268 102.499 22.7268 102.339 22.7667C101.86 22.8863 101.222 22.9262 100.265 22.9262C99.6665 22.9262 99.2278 22.9661 98.9087 23.0059C97.8716 23.0458 97.3132 23.006 96.9143 22.9262C96.9143 22.9661 96.6351 22.9661 95.9171 23.2851C95.3187 23.7237 94.6805 24.0029 94.0024 24.0826C93.7631 24.2023 93.444 24.282 93.0451 24.282C92.6064 24.5213 92.2474 24.6808 92.0479 24.8403C90.4125 26.2759 89.3355 27.7514 88.9367 29.2668C88.7771 29.9049 88.4979 30.5429 88.1389 31.1012C87.4209 32.4172 87.022 33.8129 86.9423 35.3283C86.9423 36.8436 86.7029 38.5983 86.1844 40.4726C85.8254 41.8284 85.626 43.264 85.6658 44.8193C85.6658 45.258 85.7456 45.896 85.8653 46.7733C86.0647 48.0095 86.1844 49.166 86.1844 50.2427C86.1844 51.4391 86.1046 52.7152 85.9052 54.0311C85.8254 54.39 85.8254 54.5894 85.8254 54.8686C85.6658 57.0619 85.5861 59.0957 85.5861 61.0497L85.626 67.3505C85.626 69.5438 85.9451 71.4978 86.5035 73.2125C86.8625 74.3291 87.3012 75.1267 87.7799 75.6451C88.5777 76.4427 89.1361 77.1206 89.4951 77.7188C90.4923 79.4335 91.6889 80.4704 93.2047 80.9489L93.9227 81.3477C93.9227 81.3477 94.5609 81.7066 97.1536 82.1452C98.3502 82.225 99.4272 82.2649 100.105 82.2649C100.624 82.2649 101.382 82.1851 102.379 82.0655C103.416 82.0655 104.533 82.0655 105.849 82.1452C107.046 82.225 107.844 82.225 108.442 82.2649C108.841 82.2649 109.16 82.2649 109.439 82.225L109.559 82.1452L110.995 82.0655L111.832 82.3845ZM102.1 79.6728C101.661 79.6728 101.103 79.5931 100.385 79.4734C98.4699 79.1145 96.4755 78.1973 94.4412 76.642L92.6861 75.3659C92.2075 75.0469 91.8086 74.5285 91.5294 73.8905L91.0906 72.4947C91.0906 70.3413 90.9709 68.5468 90.7715 66.7523C90.4923 65.2369 90.3726 63.2829 90.3327 61.1294L90.2929 57.6202C90.2131 57.022 90.1732 55.8257 90.1732 54.1907L90.0934 46.6936C90.0535 43.3438 90.0934 40.7916 90.1333 39.0369V38.1995C90.1333 36.7639 90.3327 35.4878 90.8114 34.3712C90.8114 34.2117 90.8114 34.0123 90.8114 33.9724V32.6564C90.8912 30.7423 91.7288 29.1472 93.2845 27.911C95.598 26.1165 98.071 25.2391 100.584 25.1993H102.618C103.416 25.1993 103.974 25.1594 104.373 25.1195C105.171 25.0796 105.929 25.0397 106.926 24.9201C109 24.5213 111.314 24.3219 113.707 24.282C116.619 24.282 119.97 24.6011 123.28 25.279C124.636 25.5581 125.354 26.2759 125.753 26.8342L126.312 27.4324C127.149 28.7085 127.469 29.7453 127.508 30.7822C127.708 33.8927 127.907 38.5584 128.107 44.6997L128.147 48.0494C128.266 49.4452 128.346 50.4421 128.346 50.9207C128.386 53.752 128.346 55.8655 128.306 57.3011C128.306 57.9392 128.386 58.657 128.545 59.3748C128.785 60.5712 128.904 61.8074 128.904 63.0037V64.1203L128.625 67.1112C128.466 69.1848 128.226 70.7002 127.947 71.6972C127.708 72.3751 127.588 72.8536 127.548 73.1328C126.95 75.2862 125.434 76.4028 123.28 76.4028C122.762 76.4028 122.363 76.4028 122.044 76.3629C121.844 77.1605 121.286 77.7985 120.408 78.1574C119.491 78.3967 119.052 78.4764 118.693 78.5163C117.337 78.636 116.18 78.7955 115.382 78.955C113.508 79.3139 111.793 79.5133 110.277 79.5133C109.08 79.5133 107.883 79.4335 106.647 79.2341C106.727 79.2341 106.448 79.2341 106.089 79.1942C105.49 79.1544 105.051 79.2341 104.453 79.3538C103.695 79.5532 102.858 79.6728 102.1 79.6728C102.1 79.6728 102.14 79.6728 102.1 79.6728ZM95.1193 72.0561L95.239 72.3352L96.8345 73.4119C98.3901 74.5684 99.8261 75.2862 101.142 75.5255H101.182C101.94 75.685 102.1 75.6451 102.179 75.6451C102.618 75.6451 103.137 75.5653 103.735 75.4058C104.772 75.2064 105.41 75.1267 105.889 75.1267C106.089 75.1267 106.368 75.1267 106.727 75.1666H106.886L107.405 75.2064C108.482 75.3659 109.479 75.4457 110.436 75.4457C111.753 75.4457 113.189 75.2862 114.784 74.9672C115.582 74.7678 116.818 74.6083 118.374 74.4887C118.494 73.8107 118.773 73.3322 119.052 73.053C119.371 72.6941 120.009 72.2953 120.927 72.2953H122.483L122.722 72.3751C122.841 72.415 123.121 72.3751 123.4 72.415C123.799 72.0561 123.998 71.418 124.277 70.5407C124.397 70.102 124.597 69.0253 124.796 66.7523L125.035 63.9608V63.0436C125.035 62.0467 124.956 61.0896 124.756 60.1724C124.557 59.2153 124.437 58.2184 124.437 57.2214C124.477 55.7459 124.517 53.6722 124.477 50.9207C124.477 50.5219 124.397 49.6047 124.277 48.2089L124.158 44.7395C123.998 38.7179 123.799 34.0921 123.599 30.9018C123.599 30.503 123.48 30.184 123.24 29.8251L122.682 29.2668C119.491 28.549 116.579 28.23 113.787 28.2699C111.633 28.2699 109.559 28.4693 107.564 28.868C106.208 29.0275 105.331 29.1073 104.732 29.1073C104.533 29.1472 103.775 29.2269 102.698 29.2269H100.664C98.9885 29.2269 97.3929 29.865 95.7575 31.1012C94.9598 31.7393 94.8401 32.3374 94.8002 32.7362V33.9325C94.8002 34.4111 94.7204 34.9295 94.5609 35.6075C94.2019 36.5247 94.0822 37.2823 94.0822 38.1597V39.0768C94.0423 40.8713 94.0423 43.3438 94.0423 46.6537L94.1221 54.1508C94.1221 55.6263 94.162 56.703 94.2418 57.4208L94.2817 61.0896C94.2817 63.0835 94.4412 64.7982 94.6805 66.2338C94.9996 68.2676 95.0794 70.1818 95.1193 72.0561Z" fill="#2063AC"/>
<path d="M189.215 84.2198C188.297 84.5388 187.499 84.6984 186.821 84.6984C185.665 84.6984 184.548 84.4192 183.59 83.821C181.436 82.5449 179.602 81.7873 178.126 81.548C177.807 81.548 177.567 81.4682 177.368 81.2688C176.61 80.551 175.892 79.9529 175.214 79.5142C174.416 79.0755 173.658 78.5571 172.98 77.8792C171.784 76.6031 170.308 75.2871 168.513 73.9313C167.037 72.8545 165.441 71.1398 163.766 68.787C162.769 67.3115 161.173 65.9955 159.019 64.839C158.7 64.6397 158.341 64.5599 157.902 64.5599C157.543 64.5599 157.344 64.7194 157.344 65.0384C157.224 65.517 157.184 65.8759 157.184 66.0753C157.184 66.4342 157.184 67.0323 157.145 67.8299C157.105 68.6275 157.105 69.2256 157.105 69.5845C157.145 72.1766 157.344 74.3301 157.703 76.0448C157.823 76.4037 157.902 76.6829 157.902 76.8823C157.902 77.3608 157.743 77.8393 157.464 78.278C157.304 78.597 157.145 79.0357 157.025 79.5541L156.666 81.0296C156.666 81.3885 156.506 81.9866 156.227 82.7842C156.227 83.2229 155.748 83.4223 154.751 83.4622C153.874 83.4622 153.315 83.5818 152.996 83.8609C152.557 84.18 152.238 84.3394 151.999 84.3394C151.68 84.3394 151.281 84.2597 150.802 84.0603C150.563 83.9407 150.164 83.821 149.606 83.6615C149.047 83.502 148.648 83.4222 148.409 83.3425C148.05 83.2229 147.651 83.0235 147.292 82.7842L146.096 82.1462C145.856 81.9867 145.737 81.7474 145.737 81.5081C145.737 81.2688 145.816 81.0694 146.016 80.9498L147.93 79.8332C148.409 79.594 148.648 79.0755 148.648 78.3577V77.5203C148.609 74.7288 149.007 71.0601 149.765 66.514L149.925 64.839C149.925 64.7194 149.925 64.5599 149.965 64.3605C150.005 64.1611 150.005 64.0415 150.005 64.0016C150.005 63.9617 150.005 63.8022 149.965 63.6427C149.925 63.4433 149.925 63.3237 149.925 63.1642C149.885 60.0936 149.805 55.388 149.606 49.1271C149.606 49.0075 149.606 48.808 149.566 48.489C149.526 48.17 149.526 47.9706 149.526 47.851C149.526 47.4921 149.566 46.854 149.685 46.0166L149.127 36.6054C149.127 35.8078 149.087 35.2096 149.007 34.8507L148.728 33.2955C148.648 33.0961 148.648 32.8169 148.609 32.458C148.728 31.5807 148.768 30.9426 148.768 30.504C148.768 29.7064 148.609 28.5101 148.369 26.915L148.449 26.2769C148.489 26.0775 148.648 25.7984 148.888 25.4395C149.247 25.0008 149.446 24.4824 149.446 23.8443C149.366 23.645 149.366 23.4057 149.327 23.0867C149.566 22.329 149.925 21.9302 150.443 21.7707C151.121 21.6909 152.119 21.5314 153.475 21.2921C153.954 21.1725 156.028 20.8535 159.658 20.4148C161.133 20.2154 163.806 20.0958 167.595 20.0559H168.433C169.111 20.0559 169.989 19.9363 171.105 19.6572H172.222C176.291 19.4976 179.362 19.4179 181.476 19.378H183.71C187.858 19.3381 191.408 20.4547 194.48 22.6879C194.919 23.0069 195.477 23.1265 196.155 23.1265C196.474 23.1265 196.953 23.4057 197.631 23.964L198.269 24.5223C198.708 25.0806 198.947 25.6389 198.947 26.2769C198.788 27.1941 198.668 28.0714 198.708 28.869V29.7862C198.708 30.0254 198.708 30.3445 198.748 30.7034C198.788 31.0623 198.788 31.3414 198.788 31.5408C198.788 31.7402 198.788 32.0194 198.748 32.4181C198.708 32.8169 198.708 33.0961 198.708 33.2955C198.628 33.4151 198.628 33.6544 198.628 33.9335C198.628 34.2924 198.708 34.6912 198.907 35.1299C199.227 36.725 199.386 38.7189 199.426 41.1515C199.426 43.265 199.346 45.1791 199.107 46.9737L198.588 51.3204C198.588 51.759 198.548 52.6363 198.429 53.9922C198.309 54.7499 198.03 55.3879 197.631 55.9462C197.511 56.1456 197.033 56.5444 196.275 57.1426C195.956 57.4616 195.637 57.6211 195.278 57.6211L192.765 57.9401C191.728 58.1794 190.85 58.3389 190.172 58.4187C186.542 59.0168 183.431 59.296 180.838 59.3359L172.501 59.4156C172.262 59.4156 171.345 59.4954 169.709 59.615H168.592C168.273 59.6948 168.114 59.9739 168.114 60.4525C168.194 60.5721 168.194 60.7715 168.233 61.0107C168.233 61.4893 168.433 61.8881 168.792 62.2071C169.63 63.9219 170.387 65.1979 171.145 65.9556C171.624 66.5139 172.182 66.9526 172.821 67.3115C174.376 68.1489 175.413 68.787 175.972 69.2256C176.331 69.5845 176.65 69.9833 176.889 70.422L177.567 71.1398C177.807 71.4987 177.966 71.7778 178.046 71.9772C179.801 74.6092 182.354 75.9252 185.744 75.8853C187.46 75.8853 189.095 75.5663 190.651 74.9282C191.927 74.4895 192.924 73.8116 193.602 72.8546L194.679 71.4588C194.879 71.1398 195.198 70.741 195.676 70.2625C195.836 69.9036 196.115 69.7042 196.514 69.7042C196.953 69.7042 197.392 69.9036 197.83 70.3422C198.07 70.5815 198.189 70.8208 198.189 71.0601C198.229 71.2993 198.269 71.6582 198.269 72.1766C198.269 72.5355 198.15 73.4129 197.91 74.7687L197.751 76.0448C197.711 76.2841 197.671 76.7227 197.671 77.3209C197.671 78.4375 197.073 79.594 195.836 80.8302C195.716 80.9498 195.637 81.0296 195.557 81.0296L195.198 81.229C192.884 82.5848 190.89 83.5818 189.215 84.2198ZM172.661 54.391H174.895C175.214 54.391 175.653 54.391 176.251 54.4309C176.849 54.4707 177.248 54.4707 177.487 54.4707C179.402 54.4707 181.117 54.3112 182.673 54.072C184.907 53.7928 187.101 53.5934 189.334 53.4738C189.454 53.394 189.653 53.394 189.893 53.394C190.012 53.394 190.212 53.3143 190.451 53.1946C191.369 52.8357 191.847 52.3173 191.927 51.7191L192.446 48.3694C192.605 47.6117 192.725 46.854 192.685 46.0565C192.685 45.4982 192.645 45.0595 192.565 44.7405C192.366 43.265 192.246 41.7895 192.246 40.314L192.007 34.7709C192.007 34.5317 191.927 34.1728 191.807 33.6544C191.807 33.5746 191.767 33.3752 191.648 32.9764C191.568 32.5777 191.488 32.2586 191.408 32.0194C191.329 31.5408 191.169 31.0224 190.93 30.4641C190.69 29.9058 190.531 29.3874 190.451 28.9089L189.893 27.4334C189.813 27.1941 189.653 26.9947 189.334 26.8751C187.978 26.5162 186.542 26.3567 184.986 26.3567C184.109 26.3567 183.471 26.3567 183.032 26.2769L178.485 26.3168C177.687 26.3168 176.57 26.3168 175.174 26.237C173.738 26.1971 172.701 26.1573 172.023 26.1573C170.108 26.1573 168.233 26.2769 166.399 26.4763L160.854 26.915C160.296 26.915 159.338 26.9947 157.982 27.1143C157.184 27.1941 156.706 27.6727 156.506 28.5899C156.506 28.9089 156.466 29.1481 156.427 29.3475C156.387 29.4671 156.347 29.5868 156.347 29.7064C156.347 29.9058 156.387 30.0254 156.427 30.0653C156.706 33.0163 156.865 35.8875 156.865 38.6391L156.985 51.3204C156.985 52.2376 157.344 52.756 158.022 52.8756C160.854 53.4738 163.008 53.7529 164.484 53.7529C164.843 53.7529 165.481 53.7928 166.319 53.9124C167.476 54.1916 168.832 54.3511 170.387 54.3511C170.946 54.391 171.704 54.391 172.661 54.391Z" fill="#2063AC"/>
<path d="M186.78 86.6914C185.224 86.6914 183.828 86.2926 182.512 85.495C180.597 84.3784 179.002 83.7005 177.765 83.5011C177.247 83.541 176.529 83.2618 175.97 82.7035C175.292 82.0655 174.694 81.5471 174.135 81.1882C173.298 80.7495 172.38 80.0716 171.543 79.274C170.386 78.0378 168.99 76.8016 167.275 75.5255C165.599 74.3291 163.924 72.4947 162.089 69.9425C161.411 68.9456 160.414 68.0682 159.098 67.2308C159.098 67.4302 159.098 67.6296 159.098 67.8689C159.058 68.6266 159.058 69.1848 159.058 69.5437C159.098 71.9763 159.257 74.0101 159.616 75.6052C159.776 76.004 159.856 76.4427 159.856 76.8813C159.856 77.7587 159.576 78.636 159.058 79.3937C159.058 79.3937 159.018 79.4734 158.898 79.9918L158.579 81.3477C158.539 81.906 158.38 82.5041 158.1 83.3416C157.941 84.1391 157.263 85.4551 154.71 85.495C154.191 85.495 153.992 85.5748 153.992 85.5748C153.633 85.8539 152.835 86.3325 151.958 86.3723C151.359 86.3723 150.761 86.2527 150.043 85.9735C149.684 85.814 149.365 85.7343 149.006 85.6146C148.487 85.4551 148.089 85.3754 147.849 85.3355C147.171 85.0962 146.613 84.857 146.094 84.498L145.057 83.9796C144.06 83.3017 143.621 82.5042 143.621 81.587C143.621 80.6698 144.02 79.8323 144.778 79.3538L146.573 78.317V77.5991C146.533 74.7279 146.932 70.8996 147.73 66.2338L147.889 64.7185C147.889 64.7185 147.889 64.4393 147.929 64.1203C147.889 63.7614 147.849 63.5222 147.849 63.3228C147.809 60.2123 147.73 55.5465 147.53 49.2856L147.49 48.8071C147.45 48.3685 147.41 48.0893 147.41 47.9298C147.41 47.531 147.45 46.8132 147.61 45.8163L147.051 36.7639C147.051 36.0062 147.012 35.5277 146.972 35.2485L146.692 33.6933C146.613 33.5737 146.573 33.0951 146.573 32.5368C146.692 31.5 146.732 30.9417 146.732 30.5828C146.732 29.9049 146.613 28.7883 146.373 27.2729L146.333 26.9938L146.453 26.0367C146.653 25.3189 146.852 24.9201 147.211 24.3618C147.41 24.1225 147.331 23.6839 147.331 23.1655V22.8464L147.45 22.5274C148.049 20.7728 149.126 20.1347 149.923 19.9353C150.881 19.8157 151.838 19.6562 153.114 19.4169C153.274 19.377 153.872 19.2175 159.417 18.4997C160.972 18.3003 163.645 18.1807 167.594 18.1408H168.431C168.79 18.1408 169.469 18.0611 170.665 17.7819L171.104 17.742H172.221C176.25 17.5825 179.361 17.5028 181.475 17.4629H183.709C183.788 17.4629 183.828 17.4629 183.908 17.4629C188.376 17.4629 192.324 18.6991 195.675 21.1716C195.675 21.1716 196.034 21.2513 196.154 21.2513H196.194C196.991 21.2513 197.829 21.6102 198.906 22.5274L199.584 23.1256C200.581 24.3219 200.94 25.3189 200.94 26.3956C200.741 27.5521 200.661 28.3097 200.701 28.9877V29.9049C200.701 30.1043 200.701 30.3435 200.741 30.6625C200.781 31.1012 200.821 31.4601 200.821 31.6994C200.821 31.8988 200.821 32.2178 200.781 32.6963C200.741 33.0552 200.741 33.2945 200.741 33.454L200.661 34.0921C200.661 34.2117 200.701 34.3313 200.781 34.4908L200.9 34.8897C201.259 36.6044 201.419 38.7179 201.459 41.2702C201.459 43.4634 201.379 45.4972 201.14 47.3715L200.621 51.7182C200.621 51.9176 200.581 52.8747 200.462 54.3103C200.262 55.5066 199.863 56.4637 199.265 57.3012C199.105 57.5404 198.746 57.9392 197.55 58.8564C196.872 59.5742 195.954 59.7337 195.316 59.7736L193.042 60.0528C192.125 60.292 191.168 60.4515 190.41 60.5313C186.78 61.1295 183.549 61.4485 180.877 61.4485L172.54 61.5283C172.341 61.5283 171.742 61.5681 170.745 61.6479C171.623 63.4424 172.261 64.3197 172.66 64.7185C173.058 65.1572 173.457 65.4762 173.896 65.7553C175.532 66.6327 176.609 67.3106 177.247 67.829C177.845 68.3873 178.244 68.9057 178.563 69.4241L179.082 70.0223C179.48 70.5806 179.68 70.9395 179.839 71.2186C181.196 73.2125 183.07 74.1297 185.783 74.0899C187.259 74.0899 188.655 73.8107 189.931 73.2524C190.928 72.8935 191.606 72.4549 192.005 71.8567L193.162 70.3812C193.282 70.1818 193.601 69.7431 194.119 69.1849C194.678 68.3474 195.476 67.829 196.592 67.829C197.231 67.829 198.268 68.0284 199.265 69.0253C199.943 69.6634 200.182 70.3812 200.222 70.8996C200.302 71.2585 200.342 71.737 200.342 72.2555C200.342 72.6144 200.302 73.2524 199.983 75.2064L199.823 76.4427C199.744 76.8016 199.744 77.0807 199.744 77.4795C199.744 79.1544 198.946 80.7894 197.35 82.4244L196.752 83.0226L196.194 83.1821C193.88 84.498 191.766 85.5349 190.011 86.1729L189.931 86.2128C188.814 86.6116 187.817 86.811 186.9 86.811C186.82 86.6914 186.78 86.6914 186.78 86.6914ZM178.523 79.5931C180.438 79.952 182.352 80.7495 184.586 82.0655C185.304 82.5041 186.142 82.7434 186.82 82.7035C187.139 82.7035 187.658 82.6238 188.535 82.3446C190.091 81.7465 192.005 80.8293 194.199 79.5532L194.518 79.3937C195.236 78.636 195.635 77.9182 195.635 77.3997C195.635 76.6022 195.675 76.0439 195.755 75.6451L195.954 74.5285C196.114 73.6911 196.194 73.0929 196.233 72.6941L195.117 74.1297C194.239 75.3261 192.923 76.2832 191.247 76.8415C189.612 77.5194 187.697 77.9181 185.743 77.9181C185.703 77.9181 185.663 77.9181 185.623 77.9181C181.595 77.9181 178.483 76.2832 176.369 73.1328L176.17 72.6941C176.13 72.6144 176.05 72.4947 175.93 72.2953L175.212 71.4579C175.053 71.1788 174.853 70.9395 174.614 70.7002C174.455 70.6205 173.697 70.102 171.902 69.1051C171.064 68.6265 170.346 68.0284 169.708 67.3106C168.87 66.4333 168.072 65.1571 167.195 63.4025C166.597 62.7645 166.278 61.927 166.278 61.0497L166.078 60.6509L166.198 60.4914C166.198 58.7368 167.235 57.8993 168.232 57.6999L168.631 57.6601H169.748C171.264 57.5006 172.261 57.4607 172.5 57.4607L180.837 57.3809C183.31 57.341 186.341 57.0619 189.851 56.5036C190.569 56.4238 191.327 56.2643 192.285 56.0649L194.957 55.7459C195.595 55.2275 195.914 54.9484 196.074 54.7888C196.273 54.5097 196.393 54.1907 196.473 53.752C196.553 52.6354 196.632 51.798 196.632 51.3992L197.151 46.8132C197.35 45.0984 197.47 43.2242 197.47 41.2303C197.47 39.037 197.31 37.2026 197.031 35.8068C196.792 35.2087 196.672 34.6105 196.672 34.0123C196.672 33.6534 196.712 33.3344 196.752 33.0552C196.752 32.8558 196.752 32.6565 196.792 32.3773C196.832 32.0583 196.832 31.819 196.832 31.6595C196.832 31.4601 196.832 31.2607 196.792 30.9816C196.752 30.5429 196.752 30.184 196.712 29.9049V28.9877C196.712 28.1104 196.792 27.1932 196.951 26.1563C196.912 26.1962 196.872 26.0367 196.712 25.8373L196.353 25.5582C196.114 25.3588 195.954 25.279 195.874 25.1993C194.877 25.1594 194.04 24.8802 193.322 24.4017C190.609 22.4078 187.538 21.4507 183.908 21.4507C183.868 21.4507 183.788 21.4507 183.748 21.4507H181.515C179.441 21.4507 176.369 21.5703 172.341 21.7299H171.383C170.266 21.9691 169.269 22.1286 168.511 22.1286H167.674C163.964 22.1685 161.371 22.2881 159.975 22.4477C155.069 23.0857 154.152 23.2452 153.992 23.2851C152.955 23.4845 152.117 23.644 151.439 23.7238V23.8833C151.439 24.96 151.08 25.9569 150.402 26.7545C150.402 26.7545 150.402 26.7944 150.362 26.8342V26.914C150.602 28.5091 150.721 29.6656 150.761 30.503C150.761 30.9816 150.721 31.7393 150.562 32.7362L150.921 34.4908C151 34.9694 151.04 35.6473 151.08 36.6044L151.639 45.9359C151.519 47.0525 151.479 47.5709 151.479 47.8899L151.519 48.3685C151.559 48.7274 151.559 49.0065 151.599 49.166C151.758 55.4668 151.878 60.1724 151.918 63.243L152.037 64.0805C152.037 64.2001 152.037 64.4394 151.958 64.7584L151.758 66.7523C151 71.2984 150.641 74.8874 150.641 77.5593V78.3967C150.641 80.1912 149.764 81.1084 149.086 81.5072C149.245 81.5471 149.644 81.6268 150.163 81.7863C150.881 81.9857 151.399 82.1851 151.718 82.3446C151.758 82.3446 151.758 82.3446 151.798 82.3446C152.596 81.7863 153.473 81.5471 154.63 81.5471C154.71 81.2281 154.75 81.1084 154.75 81.1084L154.79 80.6698L155.149 79.1942C155.308 78.4764 155.508 77.8783 155.827 77.3599L155.867 76.5623C155.468 74.688 155.229 72.4548 155.189 69.6634C155.189 69.2646 155.189 68.6664 155.229 67.829C155.268 67.0713 155.268 66.513 155.268 66.1541C155.268 65.8351 155.308 65.4762 155.428 64.878V64.2798L156.106 63.3626C156.425 63.0436 157.023 62.6448 157.941 62.605H157.981C158.779 62.605 159.457 62.8043 160.095 63.1632C162.488 64.4393 164.323 65.9547 165.48 67.7094C166.996 69.8229 168.471 71.3781 169.788 72.3751C171.702 73.7708 173.298 75.2064 174.534 76.5623C175.013 77.0408 175.571 77.4396 176.21 77.7985C177.007 78.2771 177.765 78.8752 178.523 79.5931ZM178.084 79.5133C178.164 79.5133 178.244 79.5532 178.284 79.5532C178.204 79.5532 178.124 79.5133 178.084 79.5133ZM196.154 71.1389V71.1788V71.1389ZM194.797 55.7459C194.758 55.7459 194.758 55.7459 194.797 55.7459C194.758 55.7459 194.758 55.7459 194.797 55.7459ZM177.486 56.4238C177.207 56.4238 176.768 56.4239 176.13 56.384C175.611 56.3441 175.173 56.3441 174.893 56.3441H172.66C171.543 56.3441 170.745 56.3042 170.187 56.2643C168.711 56.3042 167.195 56.1447 165.879 55.7858C165.36 55.7459 164.961 55.6662 164.522 55.6662C162.967 55.6263 160.613 55.387 157.622 54.749C156.425 54.5496 155.029 53.5127 154.989 51.2397L154.87 38.5584C154.87 36.086 154.71 33.4939 154.511 30.862L154.471 30.8221L154.351 29.6656C154.351 29.2269 154.431 28.7883 154.63 28.3895C154.909 26.3158 156.106 25.1594 157.821 24.9999C159.257 24.8403 160.254 24.8005 160.853 24.8005L166.278 24.4017C168.152 24.2023 170.107 24.0826 172.061 24.0826C172.779 24.0826 173.816 24.0827 175.292 24.1624C176.688 24.2023 177.765 24.2422 178.523 24.2422L183.07 24.2023C183.709 24.2821 184.267 24.2821 185.025 24.2821C186.78 24.3219 188.376 24.4814 189.891 24.8802C191.008 25.3189 191.646 25.9569 191.886 26.8342L192.484 28.549C192.524 28.868 192.644 29.1871 192.803 29.546C193.122 30.3036 193.362 31.0215 193.441 31.6994L193.601 32.3374C193.721 32.7761 193.76 33.0154 193.8 33.2147C193.96 33.8528 194.04 34.2915 194.04 34.6903L194.279 40.1536C194.279 41.6291 194.399 43.0248 194.598 44.3806C194.638 44.6598 194.718 45.2181 194.718 45.9359C194.718 46.9328 194.598 47.85 194.399 48.7273L193.92 51.9176C193.84 52.7551 193.322 54.1109 191.247 54.9484C191.048 55.068 190.529 55.2674 189.931 55.2674L189.572 55.4668L189.492 55.387C187.299 55.5465 185.145 55.7459 182.951 55.9852C181.395 56.2643 179.52 56.4238 177.486 56.4238ZM175.013 52.3962C175.332 52.3962 175.771 52.3961 176.329 52.436C176.888 52.4759 177.287 52.4759 177.486 52.4759C179.281 52.4759 180.916 52.3164 182.313 52.0771C184.586 51.798 186.74 51.5986 188.894 51.4391C189.173 51.3593 189.492 51.3194 189.811 51.3194C189.851 51.2796 189.891 51.2397 189.931 51.1998L190.41 48.0095C190.569 47.2917 190.649 46.6936 190.649 46.0156C190.649 45.6168 190.609 45.2978 190.569 45.0586C190.33 43.4236 190.21 41.8284 190.21 40.2732L189.971 34.8099C189.971 34.6105 189.931 34.4111 189.851 34.132L189.452 32.4571C189.373 31.8988 189.253 31.5797 189.093 31.2208C188.814 30.5828 188.615 29.9447 188.495 29.3466L188.216 28.5889C187.299 28.3895 186.142 28.2699 184.985 28.2699C184.028 28.2699 183.27 28.2699 182.751 28.1901L178.523 28.23C177.725 28.23 176.569 28.23 175.093 28.1502C173.737 28.1104 172.699 28.0705 172.061 28.0705C170.226 28.0705 168.392 28.1901 166.597 28.3895L160.972 28.8282C160.374 28.8282 159.576 28.9079 158.499 28.9877C158.499 29.1871 158.459 29.3865 158.38 29.6257V29.865C158.659 32.8559 158.818 35.8068 158.818 38.6382L158.938 51.0403C161.371 51.5188 163.286 51.7581 164.443 51.7581C164.881 51.7581 165.56 51.798 166.557 51.9575C167.793 52.2366 168.99 52.3563 170.346 52.3563C171.024 52.436 171.662 52.436 172.58 52.436H174.814C174.933 52.3961 174.973 52.3962 175.013 52.3962ZM189.931 51.3593C189.931 51.3992 189.931 51.4391 189.931 51.4391V51.3593ZM158.38 50.8808H158.42H158.38ZM188.056 28.0705C188.056 28.1103 188.096 28.1502 188.096 28.1901L188.056 28.0705Z" fill="#2063AC"/>
<path d="M257.742 83.9002C257.263 83.8603 256.585 83.1824 255.787 81.8664C255.548 81.5474 255.149 81.2682 254.671 80.9492C254.431 80.7099 254.312 80.4308 254.312 80.1118C254.312 79.6731 254.471 79.2743 254.87 78.9154C255.189 78.7958 255.588 78.5565 256.067 78.1577C257.463 77.4001 258.221 76.0841 258.34 74.2497L258.54 66.952C258.58 66.4734 258.619 65.7158 258.619 64.7188C258.619 63.7219 258.619 63.0041 258.699 62.4857L259.178 53.234C259.178 51.9977 259.178 51.1204 259.258 50.5621C259.377 49.6848 259.417 49.0866 259.417 48.7277C259.417 48.0498 259.337 47.0927 259.218 45.8565C259.138 45.1387 259.098 43.9822 259.098 42.427C259.098 40.8718 259.098 39.7552 259.178 38.9975C259.218 37.522 259.258 35.2489 259.218 32.2581V31.6998C259.218 31.2212 259.178 30.8225 259.098 30.5034C259.098 30.304 258.899 30.2243 258.54 30.2243C258.221 30.3439 258.021 30.5034 257.901 30.7028C256.785 32.2581 256.067 33.3348 255.708 33.9728C253.115 38.8778 251.599 41.6693 251.24 42.3472C250.083 44.6203 249.046 47.1725 248.089 49.9639C247.172 52.237 246.334 54.9886 245.576 58.1389L245.496 58.4979L245.417 58.5776C245.417 58.6574 245.417 58.6972 245.417 58.777C244.659 62.1666 244.26 64.9581 244.18 67.1115C244.18 67.1913 244.18 67.271 244.14 67.3508C244.1 67.4305 244.06 67.5103 244.02 67.59C243.901 68.0287 243.701 68.3477 243.462 68.5073C243.263 68.7066 243.143 68.7864 243.023 68.7864L239.792 68.268C239.354 68.268 239.154 68.0287 239.154 67.5502L238.835 65.0777V64.4397C238.835 64.2403 238.755 64.1206 238.636 63.9611C238.197 63.2433 237.918 62.4458 237.798 61.5685C237.718 60.4519 237.279 58.2586 236.442 54.9088C236.322 54.3505 235.963 53.0346 235.405 50.921C235.165 50.1235 234.846 49.3259 234.447 48.5283C234.208 47.8105 233.809 47.013 233.33 46.2154C232.812 45.4178 232.453 44.6601 232.214 43.9025C231.216 41.9883 229.98 40.6724 228.584 39.8748L227.946 39.5159C227.746 39.3165 227.666 39.0373 227.666 38.6784C227.666 38.4791 227.706 38.3195 227.746 38.1999C227.985 37.8809 228.105 37.5618 228.105 37.2029C228.105 36.7643 227.906 36.3655 227.547 36.0066C226.549 34.8502 225.233 33.7336 223.558 32.6967C223.478 32.6967 223.398 32.6569 223.279 32.617C223.079 32.617 222.88 33.0955 222.64 34.0127L222.361 35.0097C221.883 38.838 221.683 42.3472 221.723 45.5375C221.723 46.5743 221.803 48.1694 221.962 50.2431V50.7216C221.962 50.8014 221.962 50.8413 222.002 50.9609C222.042 51.0407 222.042 51.1204 222.042 51.2002C222.242 53.0345 222.361 54.7892 222.361 56.4641C222.361 57.0224 222.321 57.8598 222.202 58.9764V59.4549C222.082 61.5685 222.042 63.2035 222.042 64.3599L221.803 69.3447C221.763 69.903 221.723 70.7404 221.723 71.857C221.723 73.0135 221.723 73.8908 221.643 74.4491C221.643 75.2068 222.002 75.8049 222.68 76.2835C223.678 76.8816 224.156 77.5197 224.196 78.1976C224.316 78.5565 224.396 78.9154 224.396 79.1946C224.396 79.9522 224.196 80.5106 223.757 80.8695C223.079 81.5075 222.361 81.9063 221.563 82.1057L217.216 82.7038H216.737C215.939 82.7038 215.301 82.4646 214.783 81.986L212.828 79.8725C212.509 79.5535 212.349 79.2345 212.349 78.8756C212.349 78.7559 212.389 78.5166 212.509 78.1179L213.067 77.2007C213.745 76.5227 214.065 75.6454 214.065 74.6086V74.1301C213.985 73.2527 213.945 72.0165 213.945 70.3416C213.905 67.5502 214.025 65.0777 214.264 62.8446C214.304 62.5255 214.344 62.047 214.344 61.3691C214.344 60.7709 214.384 60.2924 214.424 59.9733C214.503 59.6543 214.503 59.1758 214.503 58.4979C214.503 58.1788 214.543 57.7402 214.663 57.1021C214.822 56.3444 215.062 54.7493 215.341 52.2769L215.301 45.697C215.301 45.2583 215.341 44.5006 215.461 43.3841L215.421 40.5926C215.461 39.9944 215.501 39.0772 215.501 37.9208C215.501 36.4851 215.421 35.4882 215.301 34.8502C215.221 34.4913 215.181 33.9728 215.181 33.2949V32.6568C215.181 31.6599 215.142 30.9421 215.062 30.4237L214.743 25.3193C214.743 24.6414 214.424 24.0033 213.785 23.4051C213.586 23.2057 213.466 23.0462 213.426 22.8468C213.426 22.807 213.386 22.7272 213.347 22.6076C213.267 22.5278 213.227 22.4481 213.147 22.3683C213.067 22.2885 213.067 22.2487 213.067 22.1689C212.948 21.9297 212.868 21.7303 212.868 21.6106C212.868 21.2916 212.948 21.0125 213.147 20.7732C213.147 20.6934 213.187 20.6137 213.307 20.4941C213.745 19.6167 214.543 19.1781 215.7 19.1781C216.817 19.2977 217.694 19.3376 218.293 19.3376L221.085 19.2977C221.643 19.2977 222.202 19.5768 222.76 20.1351C223.199 20.494 223.438 20.8928 223.438 21.3315V22.4481C223.398 22.6873 223.358 23.0462 223.358 23.5647L223.398 26.077C223.398 26.8745 223.797 27.6322 224.515 28.3899C225.313 29.1875 225.991 29.7458 226.47 30.0249C228.145 31.4206 230.1 33.4145 232.333 35.9667C233.65 37.4422 234.647 39.0772 235.325 40.9515C235.365 41.0711 235.484 41.1908 235.564 41.3104C235.644 41.43 235.724 41.5098 235.724 41.5896L235.843 42.2675C236.043 42.746 236.322 43.2644 236.681 43.7429C237.04 44.3411 237.279 44.8595 237.359 45.2184L238.117 47.97L239.433 51.7584C239.952 53.4732 240.351 54.7493 240.67 55.5469L240.949 55.826C241.388 55.7463 241.587 55.6665 241.587 55.5469L241.866 55.188C241.866 55.0683 241.906 54.9886 241.946 54.9088C242.545 53.3137 242.983 52.0775 243.223 51.2799C244.26 47.9301 245.377 44.8596 246.653 41.9883C247.491 40.2736 248.408 38.4791 249.365 36.6845L252.357 31.6599C253.953 29.1875 254.99 27.5525 255.548 26.8347C256.107 26.077 256.466 25.4788 256.625 24.9604C256.665 24.9205 256.705 24.761 256.705 24.6015C256.705 24.4021 256.585 24.123 256.386 23.7641C256.186 23.4052 256.067 23.1659 256.067 23.0462C255.947 22.807 255.867 22.6076 255.867 22.488C255.867 22.1291 255.987 21.7302 256.226 21.3713C256.466 21.0124 256.745 20.7333 257.064 20.6137L258.46 20.1351C259.337 19.8161 259.976 19.537 260.414 19.2977C260.734 19.0983 261.053 19.0186 261.412 19.0186C262.289 19.0186 263.526 19.537 265.121 20.5738C265.879 21.0125 266.238 21.5707 266.238 22.2487C266.238 22.4879 266.198 22.6873 266.158 22.807C265.999 23.6843 265.879 24.5217 265.919 25.399C265.919 25.9573 265.999 26.7948 266.118 27.9114C266.238 28.6292 266.318 29.1875 266.318 29.5863C266.318 30.2642 266.238 31.0219 266.039 31.8992C265.799 33.8532 265.72 36.1661 265.72 38.7582C265.72 44.4209 265.72 48.6878 265.72 51.5192V52.6358C265.48 54.5499 265.4 56.6635 265.4 59.0163L265.48 69.5441C265.44 70.4613 265.4 71.8969 265.44 73.811V74.9276C265.44 75.4061 265.56 75.8448 265.72 76.2037L265.999 76.4829L267.395 76.762C267.953 76.8019 268.272 77.1209 268.312 77.6792L268.591 78.397C268.591 79.1946 268.073 80.1118 267.036 81.1885C266.557 81.7069 265.999 82.1057 265.361 82.5044C263.685 83.5812 261.89 84.0996 259.936 84.1395C259.617 84.0597 258.859 83.9799 257.742 83.9002Z" fill="#2063AC"/>
<path d="M313.744 89.4826C312.627 89.4826 311.829 89.4028 311.351 89.2433C310.433 88.9642 309.436 88.8047 308.359 88.8047L306.604 88.8446C306.165 88.9243 305.567 88.9642 304.769 88.9642C304.091 88.9642 303.612 88.9642 303.293 88.8844H301.738C301.259 88.8844 300.86 88.685 300.621 88.2464C300.541 87.8077 300.381 87.3292 300.142 86.7709C299.823 86.2923 299.624 85.8138 299.584 85.3752C299.504 85.2954 299.504 85.1758 299.504 85.0163C299.504 84.777 299.663 84.4978 299.943 84.1788C300.062 83.9794 300.222 83.8199 300.421 83.7003C300.78 83.3414 300.98 82.9027 300.98 82.3843C300.86 82.0254 300.78 81.7064 300.78 81.4671C300.78 81.3475 300.82 81.1481 300.94 80.9088C301.578 78.6357 302.416 76.5621 303.453 74.6878C304.051 73.5314 304.769 71.5773 305.607 68.8257V68.6264C305.647 68.5865 305.687 68.5067 305.687 68.427C305.846 67.5098 306.125 66.5926 306.484 65.7551L307.362 63.1631C307.96 61.4882 308.359 60.4514 308.519 60.0127C308.838 59.3348 309.197 58.298 309.675 56.9421C310.633 54.1506 311.63 51.8776 312.667 50.1628C313.225 49.2456 313.744 48.0094 314.302 46.5339C315.419 43.3836 316.377 40.632 317.174 38.2792L320.046 30.0244L320.325 28.8281C320.325 28.5888 320.206 28.3495 319.966 28.1102L318.211 27.3127C317.852 26.9538 317.653 26.4752 317.653 25.8372C317.653 25.3587 317.773 24.9998 318.012 24.8004L319.488 23.5642L320.325 23.2053C320.445 23.1255 320.645 23.0856 320.964 23.0856C322.799 23.0856 324.195 23.0059 325.112 22.9261L329.46 22.8862C329.819 22.8862 330.218 22.966 330.577 23.1654C331.813 23.5243 332.451 24.3219 332.451 25.6378C332.372 25.8771 332.372 26.2759 332.372 26.7544C332.372 27.7912 333.13 30.2238 334.605 34.0122C335.363 35.9662 335.922 37.4816 336.241 38.5184C336.879 40.3528 337.916 42.7056 339.392 45.4971C340.589 48.0892 341.546 50.761 342.264 53.5126C342.583 54.8684 343.062 56.2642 343.7 57.6599C344.338 59.0158 344.817 60.4115 345.136 61.887C345.216 62.1262 345.495 62.7244 345.973 63.6416C346.731 65.2367 348.526 69.2644 351.398 75.6848C352.036 77.2799 352.555 78.5161 352.994 79.3536C353.193 79.7125 353.273 80.0714 353.273 80.3505C353.273 80.829 353.034 81.2677 352.555 81.6665C352.874 82.145 353.353 82.6236 353.951 83.0224C354.43 83.5009 354.709 83.8598 354.709 84.0193C354.51 84.2187 354.39 84.3782 354.35 84.5776C354.031 85.0561 353.752 85.4549 353.433 85.6942C353.193 85.9335 352.994 86.0531 352.874 86.0531C351.558 86.3322 350.281 86.5316 349.005 86.6512C347.29 86.8108 345.973 86.9304 345.136 87.0899C344.896 87.1697 344.498 87.2095 344.019 87.2095C343.221 87.2095 342.025 87.05 340.389 86.6911C340.07 86.5715 339.91 86.3721 339.91 86.1328V84.7371C339.91 83.7003 340.23 83.0223 340.908 82.7831C341.027 82.7033 341.227 82.7033 341.466 82.7033C341.785 82.7033 342.144 82.5438 342.583 82.2248L343.301 81.8659C343.66 81.6665 343.859 81.3076 343.82 80.7493V80.3904C343.261 78.4762 342.583 76.5222 341.825 74.4885C340.748 72.335 339.591 69.6632 338.315 66.3932L337.757 65.2766C337.517 64.7981 337.238 64.3993 336.999 64.0803C336.799 64.0803 336.68 64.0404 336.64 64.0005C336.44 63.9606 336.161 63.9208 335.802 63.9208C335.443 64.0005 334.924 64.0404 334.246 64.0404C333.489 64.0404 332.93 64.0404 332.571 63.9606C331.335 63.9606 330.258 64.1202 329.34 64.3594C328.862 64.5588 328.064 64.6385 327.027 64.6784C326.029 64.6784 325.311 64.6784 324.793 64.5987C324.593 64.5987 324.314 64.5987 323.875 64.5588C323.437 64.5189 323.118 64.5189 322.838 64.5189C322.559 64.5189 322.28 64.5588 321.881 64.5588C321.482 64.5987 321.203 64.5987 321.004 64.5987L317.134 64.9177C315.459 64.9177 314.382 65.6754 313.903 67.0711C313.544 68.746 313.106 70.3012 312.587 71.697C311.989 73.1725 311.43 74.6878 310.992 76.1633L310.274 77.9179C309.436 79.7922 308.917 81.3076 308.758 82.5438C308.758 83.2217 309.157 83.5408 309.955 83.5408C311.191 83.3813 312.029 83.3414 312.468 83.3414C312.787 83.3414 313.345 83.3812 314.223 83.5009C314.901 83.7401 315.379 84.3383 315.619 85.2555L315.898 86.6512C315.978 86.7709 315.978 86.9304 316.018 87.1298C316.018 87.4488 315.898 87.728 315.659 87.9672L315.379 88.3261C315.14 88.685 314.821 89.0041 314.462 89.2832C314.183 89.4427 313.983 89.4826 313.744 89.4826ZM317.852 61.4483H318.331C319.727 61.1293 321.043 60.9698 322.2 60.9299C323.197 60.9299 324.075 61.0495 324.873 61.2489H326.069C326.269 61.2489 326.428 61.209 326.628 61.1692H327.386C328.861 60.89 329.938 60.7305 330.617 60.6508L333.648 60.3317L334.406 60.1323C334.526 60.1323 334.685 60.0127 334.845 59.8133C335.004 59.6139 335.124 59.4145 335.124 59.2949C335.004 59.0556 334.924 58.8164 334.924 58.6569C333.927 56.0249 333.09 53.3929 332.412 50.7211C331.893 48.9266 331.255 47.2517 330.497 45.6566C329.061 43.0247 328.024 40.6718 327.465 38.5583C327.346 38.319 327.266 38.1197 327.266 38L326.987 37.6411C326.987 37.5215 326.947 37.4018 326.907 37.2423C326.827 37.0828 326.787 36.9632 326.708 36.8436C326.628 36.7239 326.628 36.6442 326.628 36.5644C326.428 36.365 326.349 36.3251 326.349 36.4049C325.99 36.4049 325.75 36.4846 325.71 36.684C324.155 39.6749 322.759 42.8651 321.562 46.2548C320.485 49.0462 319.368 51.5984 318.132 53.9911C317.414 55.1476 316.656 57.2611 315.898 60.2121C315.898 60.6906 316.018 61.0495 316.297 61.2091C316.416 61.3287 316.496 61.4084 316.576 61.4084C316.855 61.4084 317.294 61.4483 317.852 61.4483Z" fill="#A3A8AE"/>
<path d="M378.801 86.9312C378.323 86.8115 377.924 86.7717 377.684 86.7717C377.086 86.8913 376.647 86.9711 376.408 86.9711C375.929 86.9711 375.531 86.8115 375.291 86.5324C374.773 85.9741 374.533 85.2563 374.533 84.3391C374.533 83.9004 374.613 83.5814 374.813 83.3023C375.411 82.3851 375.77 81.3482 375.89 80.2316C375.929 79.5537 376.129 78.5169 376.488 77.161C376.647 76.5629 376.767 75.8849 376.727 75.207C376.727 75.0076 376.687 74.6886 376.687 74.2499C376.647 73.7714 376.647 73.4125 376.608 73.0935C376.528 72.8542 376.488 72.4156 376.488 71.7775C376.608 70.8603 376.687 69.4646 376.807 67.6302C376.807 66.7529 376.847 65.397 376.927 63.5626C377.166 57.8999 377.246 52.7557 377.206 48.2096C377.206 47.412 377.166 46.2157 377.126 44.7003C377.086 43.1451 377.046 42.0285 377.046 41.2708C377.046 39.7155 376.927 38.24 376.727 36.7645C376.528 35.4884 376.408 34.2124 376.408 32.9761V31.6602C376.408 30.9822 376.408 30.5037 376.488 30.1847C376.488 29.8657 376.408 29.427 376.288 28.7889C375.969 28.3503 375.57 28.1509 375.092 28.1509C374.852 28.1509 374.493 28.1509 374.015 28.111C373.536 28.0711 373.177 28.0711 372.938 28.0711C371.263 28.0711 369.827 28.2306 368.59 28.5098C368.231 28.6294 367.872 28.7092 367.593 28.7092C367.114 28.7092 366.755 28.7491 366.596 28.8288C365.479 28.9484 364.641 29.0282 364.123 29.0282H363.764C361.49 29.1877 360.214 29.7061 359.894 30.5436C359.735 31.1816 359.336 31.5804 358.817 31.8596C357.9 32.2583 357.461 33.016 357.461 34.1725C357.461 34.4118 357.501 34.6111 357.541 34.7308V35.2093C357.421 36.2461 356.823 36.8044 355.706 36.8044C355.267 36.8044 354.948 36.7645 354.789 36.6449C353.991 36.286 353.313 35.5682 352.834 34.5314C352.715 34.1725 352.635 33.9332 352.635 33.8933C352.595 31.5405 352.994 29.7061 353.752 28.3104C353.831 28.1908 353.951 27.9914 354.19 27.7521C354.43 27.5129 354.589 27.2736 354.629 27.1141C354.869 26.7552 355.068 26.476 355.267 26.2766C355.507 25.9177 355.706 25.6386 355.906 25.4392C356.584 24.522 357.501 24.0434 358.658 24.0036C359.216 24.0036 360.054 23.9238 361.131 23.8042L364.362 23.7643C365.239 23.7643 366.396 23.6845 367.872 23.525C368.191 23.4453 368.63 23.4054 369.148 23.4054L370.425 23.1262L385.104 22.9269C385.862 22.9269 386.3 22.887 386.5 22.8072C388.335 22.4882 390.01 22.2888 391.486 22.2888C393.719 22.2489 395.355 22.2091 396.472 22.1293C399.743 22.0894 402.295 23.4054 404.09 26.1171C404.768 27.3533 405.207 28.1509 405.327 28.5098C405.965 30.3442 406.284 31.5405 406.284 32.0988C406.284 32.7767 406.125 33.4148 405.845 33.9731C405.606 34.6111 405.127 34.8903 404.37 34.9302C403.931 34.9302 403.492 34.7706 403.053 34.4915C402.495 33.9332 402.056 33.2553 401.737 32.4577C401.657 32.1387 401.498 31.7 401.258 31.062C401.019 30.4638 400.859 29.9853 400.78 29.6663C400.341 28.43 399.543 27.5926 398.426 27.1141C398.107 26.9545 397.509 26.8349 396.591 26.8748C396.153 26.9546 395.475 26.9944 394.557 26.9944H393.72C391.127 27.0343 389.332 27.1539 388.374 27.3533C386.101 27.7521 384.864 28.3902 384.705 29.2276C384.027 33.0559 383.548 36.2462 383.349 38.8781C383.349 39.6757 383.349 40.1542 383.269 40.3536C382.99 42.0683 382.83 43.7432 382.87 45.3383L383.069 62.5258C383.109 65.0381 383.229 66.9522 383.508 68.2682C383.628 68.8664 383.708 69.4247 383.708 69.8235L383.747 73.891C383.747 75.0475 383.747 75.9248 383.668 76.4831C383.628 76.8022 383.588 77.2009 383.588 77.7592C383.588 78.3175 383.628 78.7163 383.708 78.9556V79.5936C383.708 79.9126 383.668 80.4709 383.548 81.3482L383.628 81.6274L383.827 81.9065L384.745 82.5446L385.503 82.8237C385.941 83.063 386.141 83.5017 386.181 84.0998C386.181 84.5784 386.021 84.9771 385.742 85.2164C385.702 85.2164 385.622 85.2563 385.503 85.2962C385.423 85.3759 385.343 85.4158 385.263 85.4956C385.183 85.5753 385.144 85.5753 385.064 85.5753C384.824 85.7747 384.625 85.8545 384.426 85.8545L382.112 86.1735C381.474 86.2532 380.756 86.4526 379.918 86.8514C379.719 86.8913 379.519 86.9312 379.28 86.9312C379.12 87.0109 378.961 87.0109 378.801 86.9312Z" fill="#A3A8AE"/>
<path d="M420.804 87.4486C419.767 87.4486 419.049 86.7707 418.65 85.4547V84.697C418.65 83.6602 418.81 82.9424 419.169 82.5436C419.528 81.9853 419.687 81.1479 419.687 80.0313L419.647 78.0772C419.647 77.1999 419.607 76.6017 419.528 76.2428C419.448 75.3256 419.408 73.8501 419.368 71.8164L419.169 54.1504C419.129 51.1994 419.129 49.0061 419.169 47.5705C419.169 46.8926 419.169 46.3741 419.248 46.0152C419.248 45.9753 419.248 45.8557 419.288 45.6962C419.328 45.5367 419.328 45.4171 419.328 45.3772C419.328 45.3373 419.328 45.2177 419.288 45.0581C419.248 44.8986 419.248 44.779 419.248 44.6594L418.929 40.2329C418.929 40.1133 418.85 39.5151 418.69 38.4384C418.53 37.3617 418.411 36.5243 418.331 35.8862L418.012 31.7389C417.972 31.6192 417.932 31.4198 417.932 31.1008C417.932 30.7818 417.972 30.5425 418.012 30.383C418.012 28.9474 417.693 27.9903 417.055 27.432L416.217 26.4351C415.978 26.1161 415.858 25.7173 415.818 25.159C415.818 24.9596 415.858 24.8001 415.898 24.6007C416.018 24.4013 416.217 24.2418 416.456 24.0424C416.576 23.9228 417.773 23.4841 420.046 22.8062C420.485 22.8062 420.724 22.846 420.804 22.8859C421.482 23.3246 422.32 23.524 423.317 23.4841H423.955C424.394 23.4841 424.793 23.6835 425.192 24.0823C425.591 24.481 425.79 24.9596 425.83 25.5179C425.75 25.7173 425.431 26.1958 424.833 26.9934C424.673 27.3124 424.554 27.6314 424.554 27.9903C424.633 28.3492 424.673 28.8278 424.673 29.386V29.9443C424.673 30.0241 424.673 30.1437 424.633 30.3033C424.593 30.5026 424.593 30.6223 424.593 30.7818C424.593 31.3401 424.713 31.7788 424.873 32.1775C425.072 32.9751 425.192 34.2512 425.192 35.9659C425.232 39.0366 425.192 42.0673 425.032 45.0183V46.2146C425.032 47.2514 425.072 48.8067 425.152 50.8405C425.192 52.8743 425.232 54.3896 425.272 55.3866C425.272 56.6228 425.391 58.4173 425.511 60.81C425.67 63.1628 425.75 64.9573 425.75 66.1138C425.79 68.1476 425.75 69.6629 425.71 70.6599C425.67 71.4575 425.631 72.6538 425.67 74.1692L425.71 77.4791C425.71 78.5159 425.87 79.2736 426.189 79.7122L426.947 81.8258C427.266 82.9822 427.705 83.8994 428.263 84.4976C428.503 84.8166 428.622 85.1357 428.662 85.4946C428.702 85.8535 428.423 86.2523 427.944 86.6909C427.465 87.1296 427.027 87.3688 426.668 87.3688C426.588 87.3688 426.508 87.3688 426.428 87.4087C426.349 87.4486 426.269 87.4486 426.189 87.4486C425.99 87.4486 425.71 87.4087 425.351 87.2891C424.992 87.1296 424.434 87.0099 423.676 87.0498C423.118 87.0498 422.679 87.0897 422.4 87.1694L420.804 87.4486Z" fill="#A3A8AE"/>
<path d="M420.803 89.4426C419.846 89.4426 417.652 89.0836 416.775 85.9732L416.695 84.6971C416.655 83.1418 417.014 82.0252 417.692 81.2277C417.652 81.2277 417.772 80.8289 417.732 80.0313L417.692 78.0773C417.692 77.3595 417.652 76.8411 417.612 76.522C417.532 75.4054 417.453 73.8901 417.453 71.7766L417.253 54.1106C417.213 51.1197 417.213 48.8865 417.253 47.4509C417.253 46.7331 417.293 46.0951 417.333 45.6564L417.413 45.2177C417.333 45.0582 417.333 44.819 417.333 44.5398L417.014 40.2729C417.014 40.0336 416.934 39.5152 416.775 38.6378C416.615 37.5212 416.495 36.6439 416.416 36.0059L416.097 32.0181C416.017 31.7389 415.977 31.38 415.977 31.0211C415.977 30.6622 415.977 30.3432 416.057 30.064C416.017 29.107 415.777 28.8278 415.777 28.8278L414.7 27.5916C414.142 26.9137 413.863 26.0762 413.863 25.0394C413.863 24.6008 413.943 24.2418 414.022 23.8431L414.262 23.3247C414.501 22.9259 414.86 22.6068 415.259 22.2878C415.379 22.0884 415.538 21.9688 419.447 20.7326L420.006 20.6528C420.524 20.6528 421.242 20.6528 421.88 21.0516C422.239 21.251 422.558 21.4105 423.236 21.3308H423.875C424.593 21.2909 425.55 21.4903 426.547 22.4872C427.305 23.2449 427.744 24.202 427.744 25.3186V25.6376L427.624 25.9566C427.504 26.3155 427.265 26.7143 426.467 27.791C426.507 28.1898 426.547 28.6285 426.547 29.1867V29.9046L426.467 30.423C426.467 30.9414 426.507 31.061 426.507 31.061L426.667 31.4997C426.906 32.4567 427.026 33.8126 427.066 35.7268C427.106 38.917 427.066 42.0275 426.906 44.8987V45.9754C426.906 47.0123 426.946 48.5276 427.026 50.5614C427.066 52.5952 427.106 54.1504 427.145 55.1075C427.145 56.3039 427.265 58.0983 427.385 60.4113C427.544 62.804 427.624 64.6384 427.624 65.8347C427.664 67.9084 427.624 69.4636 427.584 70.5005C427.544 71.298 427.504 72.4146 427.544 73.8901L427.584 77.2C427.584 78.0374 427.704 78.3166 427.704 78.3166L427.943 78.7552L428.701 80.8688C429.02 82.0651 429.379 82.6234 429.619 82.8627C430.217 83.6204 430.536 84.378 430.536 85.2155C430.536 86.1725 430.057 87.0897 429.14 87.9272C428.342 88.645 427.584 89.0039 426.787 89.0836C426.507 89.1634 426.268 89.2033 425.989 89.2033C425.63 89.2033 425.191 89.1235 424.593 88.9241C424.353 88.8444 424.234 88.7646 423.556 88.7646C423.197 88.7646 422.877 88.7646 422.678 88.8444L420.724 89.2831C420.803 89.4426 420.803 89.4426 420.803 89.4426ZM420.644 85.0958C420.684 85.2155 420.724 85.3351 420.763 85.375L421.88 85.0958C422.359 85.0161 422.917 84.9363 423.635 84.9363C424.633 84.9762 425.39 85.0559 426.029 85.3351L426.507 85.2952C425.909 84.7369 425.39 83.6203 424.992 82.2645L424.353 80.5098C423.915 79.7522 423.675 78.7552 423.675 77.3994L423.635 74.0895C423.635 72.4943 423.635 71.2581 423.675 70.4207C423.715 69.5035 423.715 68.028 423.715 66.0341C423.715 64.8776 423.635 63.1629 423.476 60.8101C423.316 58.3775 423.236 56.5431 423.236 55.3069C423.236 54.3099 423.197 52.8345 423.117 50.8007C423.077 48.7669 423.037 47.2116 422.997 46.1349V44.9386C423.157 41.9876 423.197 38.9968 423.157 35.8863C423.117 34.1316 423.037 33.2144 422.917 32.7359C422.678 32.1377 422.558 31.4997 422.519 30.742C422.519 30.5027 422.518 30.2236 422.598 29.9046V29.3462C422.598 28.9474 422.558 28.5886 422.519 28.3094C422.479 27.2327 422.638 26.5548 422.997 25.9167C423.117 25.7174 423.236 25.5578 423.356 25.4382H423.236C422 25.3983 421.043 25.2388 420.125 24.8001C419.248 25.0793 418.49 25.3186 417.971 25.4781L418.49 26.1161C419.327 26.8339 419.886 28.3094 419.926 30.3033V30.6224L419.846 30.9414L420.006 31.2604L419.966 31.5395L420.285 35.6869C420.325 36.2053 420.444 37.0427 420.604 38.0795C420.803 39.3158 420.883 40.0336 420.883 40.1931L421.322 45.3772C421.322 45.5766 421.282 45.8558 421.242 46.0951C421.162 46.6135 421.162 47.0123 421.162 47.5706C421.122 49.046 421.122 51.1994 421.162 54.1504L421.362 71.8164C421.402 73.7704 421.442 75.2061 421.521 76.1233C421.561 76.4024 421.641 77.1202 421.641 78.1172L421.681 80.0712C421.681 81.5866 421.442 82.7829 420.843 83.7001C420.724 83.8596 420.644 84.059 420.644 84.7369V85.0958ZM416.376 24.7204L417.014 24.9198L415.977 24.3615L416.376 24.7204Z" fill="#A3A8AE"/>
<path d="M464.082 85.8939C463.284 85.6148 462.606 85.4553 462.048 85.4553H461.489C460.572 85.4553 459.655 85.0565 458.777 84.1792C458.139 83.7006 457.7 83.3019 457.381 82.9828C457.181 82.7835 457.102 82.5043 457.102 82.0656V81.7067L457.66 80.6699C457.899 80.4306 458.019 80.1515 458.019 79.8325C458.019 79.6331 457.979 79.5134 457.899 79.3539L457.7 78.7956L457.421 78.3171C456.743 77.2803 455.865 75.1667 454.828 71.9765C454.748 71.4979 454.589 70.7403 454.349 69.7433C454.15 69.3046 453.951 68.6267 453.671 67.6298C453.592 67.0316 453.272 66.4334 452.714 65.8751C452.475 65.6359 452.315 65.3966 452.235 65.2371C452.235 65.1573 452.195 65.0776 452.156 64.9978C452.076 64.918 452.036 64.8383 451.956 64.7585C451.876 64.6788 451.876 64.6389 451.876 64.5591L450.161 60.1327C449.483 58.5375 448.925 57.102 448.526 55.8259C447.449 53.0743 446.491 50.3227 445.654 47.5312C444.816 44.7796 443.859 41.9881 442.782 39.2365C442.662 38.9973 442.503 38.5985 442.343 38.0402C442.184 37.4819 442.064 37.0831 442.024 36.8439C441.705 35.488 441.226 34.0923 440.588 32.6965C440.03 31.5799 439.431 30.264 438.793 28.7486C438.354 27.8314 437.756 26.9142 436.998 25.997L436.639 25.4387C436.519 25.2393 436.44 24.9602 436.44 24.6013C436.44 23.4448 436.958 22.7669 437.995 22.5276C438.235 22.4478 438.594 22.4478 438.993 22.408C441.146 22.3681 443.181 22.2485 445.095 21.9693C445.454 21.9693 445.813 22.1288 446.132 22.5276L446.89 23.365C447.01 23.6043 447.09 23.8436 447.09 24.0031C447.09 24.2025 447.05 24.4019 446.93 24.6412L446.372 25.4786C446.132 25.7179 446.013 25.9571 446.013 26.2363C446.013 26.4357 446.093 26.6351 446.212 26.8743C446.611 27.7915 447.13 29.3866 447.848 31.6597C448.286 32.8162 448.845 34.6506 449.483 37.0831C449.882 38.9175 450.361 40.7519 450.919 42.6262C451.158 43.5035 451.557 44.4606 452.076 45.5772C452.156 46.0557 452.315 46.5741 452.554 47.1324L453.033 48.6877C453.153 48.9269 453.233 49.1263 453.233 49.246C453.233 49.3656 453.312 49.565 453.432 49.8042C454.19 51.3994 454.908 53.3135 455.546 55.5068C456.065 57.6602 456.663 59.6143 457.301 61.4088C457.381 61.5284 457.461 61.6879 457.54 61.9272C457.62 62.1665 457.7 62.2861 457.7 62.326L458.099 63.1634C458.657 63.961 459.056 64.9579 459.256 66.1942C459.535 67.3506 459.974 68.6267 460.612 69.9826C461.37 71.5777 461.928 72.774 462.247 73.5716L462.447 73.8507C462.766 74.1698 462.965 74.3293 463.085 74.2894C463.165 74.2894 463.244 74.2096 463.364 74.09C463.683 73.7311 463.843 73.3323 463.923 72.8937C465.119 69.7433 465.718 67.6298 465.678 66.5929L466.755 63.4426C466.914 62.7646 467.313 61.7278 467.911 60.372C468.749 58.6173 469.307 57.3013 469.627 56.3841L470.983 52.3166L471.701 49.3257C471.82 48.568 472.06 47.6907 472.419 46.6539C474.573 39.5954 476.447 33.8929 478.123 29.4664C478.163 29.3468 478.203 29.1474 478.203 28.9081C478.203 28.5891 478.123 28.3099 477.923 28.0707L477.365 27.5124C476.687 27.0338 476.328 26.5553 476.328 26.0369C476.248 25.7179 476.208 25.2393 476.208 24.5614C476.208 23.9632 476.168 23.4847 476.088 23.1657C476.088 23.046 476.208 22.8865 476.408 22.6871C476.607 22.4877 476.806 22.408 477.006 22.408L478.402 22.4877C478.442 22.5675 478.681 22.5675 479.04 22.5675C479.918 22.5675 480.556 22.2883 481.074 21.73C481.433 21.3711 481.633 21.092 481.713 20.8926C481.952 20.5337 482.51 20.3343 483.388 20.2944C483.707 20.2944 483.907 20.3343 484.026 20.4539C484.385 20.773 484.824 20.8926 485.342 20.8926C485.781 20.8926 486.34 20.7331 487.098 20.4141C487.217 20.3343 487.377 20.3343 487.576 20.2944C487.895 20.2944 488.214 20.4141 488.494 20.6534C488.813 20.8926 488.972 21.1718 488.972 21.4908C489.052 22.4877 489.491 23.5644 490.289 24.8007C490.408 25 490.488 25.2792 490.488 25.7179C490.488 26.2762 490.129 26.7946 489.411 27.313C489.212 27.5124 488.813 27.7118 488.214 27.9909C487.656 28.3498 487.297 28.8682 487.137 29.5063C486.419 31.3805 486.021 32.537 485.901 33.0156C485.303 34.9297 484.904 36.1659 484.744 36.7242L480.636 49.5251C480.197 50.0834 479.958 51.0006 479.838 52.1969L479.599 53.8718L479.24 55.427C477.804 60.0529 476.767 63.2831 476.049 65.0776C474.373 69.3445 472.738 73.0133 471.182 76.0441C470.584 77.1208 470.265 77.7189 470.185 77.9183L469.108 79.8724C468.948 80.2313 468.829 80.63 468.829 80.9889V81.3478C468.829 81.4276 468.829 81.5074 468.869 81.5871C468.909 81.6669 468.909 81.7466 468.909 81.8264C468.909 82.3847 468.51 82.9828 467.712 83.7006C466.356 85.0565 465.438 85.7743 464.96 85.7743C464.401 85.9737 464.202 85.9338 464.082 85.8939Z" fill="#A3A8AE"/>
<path d="M464.681 87.9678C464.163 87.9678 463.724 87.8881 463.365 87.7286C462.647 87.4893 462.288 87.4096 462.088 87.4494H461.53C459.974 87.4494 458.698 86.8512 457.422 85.615C456.903 85.2162 456.384 84.7776 456.025 84.4187C455.427 83.8604 455.148 83.0628 455.148 82.1058V81.5874L455.387 80.7499L455.946 79.6732L455.786 79.394C455.028 78.2376 454.111 76.0044 452.994 72.6148C452.874 71.8571 452.715 71.1792 452.475 70.3018C452.356 70.1025 452.077 69.3049 451.797 68.1883C451.718 67.7496 451.598 67.5901 451.398 67.3509C450.96 66.9521 450.68 66.5134 450.481 66.0748L449.923 65.5563V64.998L448.327 60.9305C447.609 59.2955 447.051 57.82 446.652 56.4641C445.615 53.8322 444.617 51.0008 443.78 48.1695C442.942 45.4578 441.985 42.7062 440.948 40.0343C440.868 39.8748 440.669 39.3564 440.469 38.6386C440.31 38.0803 440.19 37.6417 440.11 37.4024C439.791 36.1662 439.352 34.8901 438.794 33.5741C438.235 32.5373 437.637 31.1814 436.959 29.5863C436.64 28.9084 436.121 28.1108 435.483 27.3531L435.004 26.6752C434.645 26.1568 434.486 25.5187 434.446 24.7212C434.406 22.5677 435.603 21.0922 437.597 20.6935C437.916 20.6137 438.395 20.5738 438.993 20.5738C441.067 20.534 443.022 20.4143 444.817 20.1352C445.934 20.1352 446.971 20.5339 447.649 21.3714L448.646 22.5677C448.925 23.0862 449.045 23.6444 449.045 24.123C449.045 24.6015 448.925 25.1199 448.646 25.6782L448.088 26.5954C448.487 27.4728 449.045 29.028 449.723 31.1814C450.162 32.3379 450.72 34.2122 451.398 36.7245C451.797 38.5988 452.276 40.3933 452.834 42.1479C453.074 42.9455 453.433 43.8627 453.872 44.8596L454.031 45.4179C454.071 45.6971 454.191 46.056 454.35 46.4149L454.948 48.2493C455.028 48.329 455.148 48.648 455.188 49.0468C456.025 50.8413 456.783 52.8352 457.422 55.1083C457.94 57.2617 458.499 59.1758 459.137 60.8906L459.336 61.2894C459.416 61.4888 459.496 61.6483 459.536 61.8477L459.815 62.4857C460.373 63.2035 460.852 64.5195 461.131 66.0349C461.331 66.9521 461.729 68.0687 462.328 69.3049C462.487 69.584 462.607 69.9031 462.727 70.1423C463.524 67.8294 463.564 66.992 463.564 66.7527V66.4337L464.761 62.9643C464.92 62.3262 465.359 61.2096 465.997 59.7341C466.995 57.6605 467.433 56.5439 467.633 55.9058L468.989 51.7984L469.627 49.0069C469.747 48.2891 469.986 47.2922 470.385 46.1357C472.459 39.2767 474.334 33.5741 475.969 29.2673L475.81 29.1077C474.813 28.4298 474.174 27.4329 474.174 26.2365C474.135 26.2365 474.055 25.5985 474.055 24.761C474.055 24.3224 474.055 24.0034 473.975 23.7641L473.935 23.3653C473.935 22.6475 474.254 22.0094 474.932 21.4113C475.531 20.8929 476.169 20.6137 476.807 20.6137L479.121 20.7333C479.32 20.6935 479.36 20.6536 479.4 20.6137C479.599 20.4143 479.679 20.2947 479.759 20.2149C480.477 19.0585 481.594 18.54 483.189 18.54C484.067 18.5799 484.864 18.9388 485.223 19.2578C485.144 19.1781 485.423 19.1382 486.101 18.8591C486.34 18.6996 486.779 18.6198 487.298 18.5799C487.856 18.6198 488.654 18.6996 489.491 19.3376C490.289 19.9757 490.728 20.8131 490.728 21.7303C490.768 22.0493 490.967 22.807 491.725 23.9635C492.044 24.442 492.244 25.1199 492.244 25.9574C492.244 26.8347 491.925 28.1108 490.289 29.2274C490.209 29.347 489.731 29.6262 488.973 29.9851C488.853 30.0648 488.813 30.1845 488.774 30.3041C488.056 32.2183 487.657 33.2949 487.537 33.7735L481.953 51.0407C481.913 51.0806 481.673 51.4395 481.554 52.6757L480.916 56.185C479.44 60.9704 478.363 64.2802 477.605 66.1545C475.93 70.4614 474.254 74.2099 472.659 77.2805C472.14 78.1977 471.861 78.7161 471.741 78.9155L470.545 81.4278L470.624 82.1058C470.624 83.2622 470.026 84.3788 468.75 85.4555C466.995 87.2899 465.838 88.0077 464.721 88.0077C464.721 87.9679 464.681 87.9678 464.681 87.9678ZM462.088 83.4616C462.806 83.4616 463.604 83.6211 464.482 83.9401C464.721 83.7806 465.2 83.3819 466.037 82.5444C466.317 82.3052 466.516 82.1058 466.596 81.9861C466.596 81.8665 466.556 81.707 466.556 81.5874C466.556 80.5904 466.676 79.9125 466.995 79.2345L468.151 77.1609C468.111 77.2008 468.151 77.0412 469.149 75.2866C470.624 72.4154 472.26 68.7865 473.895 64.5993C474.613 62.8446 475.65 59.6544 477.046 55.0684L477.605 52.1174C477.725 50.8015 478.044 49.6849 478.562 48.8474L483.708 32.617C483.827 32.2183 484.226 30.9421 485.024 28.9482C485.263 28.0709 485.902 27.1537 486.859 26.5157L487.218 26.3163C487.697 26.1169 487.856 25.9973 487.856 25.9973C488.016 25.8776 488.095 25.7979 488.175 25.758C487.497 24.6813 487.058 23.6843 486.859 22.7273C486.141 22.9665 485.503 23.0861 485.064 23.0861C484.306 23.0861 483.588 22.8868 482.95 22.488C482.79 22.7273 482.551 22.9665 482.272 23.2457C481.713 23.8837 480.636 24.6813 478.841 24.7212C478.602 24.7212 478.283 24.7212 477.964 24.6813C477.964 25.1997 477.964 25.5586 478.044 25.758L479.081 26.755C479.719 27.5525 479.958 28.2304 479.958 28.9881C479.958 29.5065 479.878 29.9851 479.719 30.3838C478.123 34.6109 476.209 40.3135 474.095 47.332C473.776 48.329 473.536 49.0867 473.456 49.7646L472.739 52.8751L471.342 57.1022C471.023 58.1789 470.385 59.5746 469.547 61.3692C469.029 62.5256 468.67 63.4428 468.51 64.041L467.513 67.0717C467.473 68.0288 467.114 69.7435 465.678 73.5718C465.559 74.2897 465.24 74.9277 464.761 75.5259L464.163 76.2437L462.926 76.4431C462.009 76.4032 461.41 75.9247 460.892 75.4062L460.254 74.4492C459.934 73.6915 459.416 72.535 458.698 70.9798C458.02 69.5043 457.501 68.0687 457.222 66.7926C457.063 65.7557 456.783 64.9981 456.384 64.4796L455.467 62.4857C454.709 60.4121 454.111 58.3783 453.592 56.1451C452.994 54.1512 452.316 52.3168 451.638 50.8413C451.398 50.4027 451.279 49.9241 451.239 49.4855L450.641 47.8903C450.441 47.4916 450.242 46.8934 450.122 46.3351C449.643 45.2185 449.244 44.2614 448.965 43.3841C448.367 41.5098 447.888 39.5957 447.489 37.7214C446.891 35.4484 446.373 33.6937 445.934 32.5772C445.216 30.2642 444.697 28.7489 444.338 27.8715C444.139 27.5126 444.019 26.9942 443.979 26.5157C443.979 25.9574 444.139 25.2396 444.737 24.5218L444.857 24.3622L444.777 24.2825C443.102 24.5218 441.107 24.6414 438.993 24.6813C438.594 24.6813 438.435 24.7212 438.435 24.7212L438.594 25.08C439.352 25.9574 440.03 27.0341 440.549 28.1108C441.227 29.7059 441.785 30.9422 442.344 32.0189C443.062 33.614 443.58 35.1294 443.939 36.6049C443.979 36.8042 444.099 37.203 444.258 37.7214C444.378 38.1202 444.458 38.3994 444.538 38.5589C445.694 41.5098 446.692 44.3412 447.529 47.1725C448.327 49.8842 449.284 52.596 450.361 55.3077C450.76 56.6635 451.279 58.0194 451.957 59.5746L453.632 63.8815C453.672 63.9213 453.712 64.0011 453.752 64.041L454.151 64.7987C454.988 65.5165 455.507 66.5134 455.627 67.5901C455.786 68.1484 455.986 68.7865 456.145 69.1454C456.544 70.5411 456.704 71.3387 456.783 71.897C457.98 75.486 458.698 76.9216 459.057 77.4001L459.735 78.8756C459.815 79.0352 459.934 79.4738 459.934 79.9523C459.934 80.6701 459.695 81.388 459.256 81.9462L459.216 81.9861C459.416 82.1855 459.695 82.3849 460.014 82.6242C460.652 83.2223 461.131 83.3819 461.45 83.4616H462.009C462.049 83.4616 462.049 83.4616 462.088 83.4616ZM456.025 80.072C456.025 80.1517 456.065 80.2315 456.105 80.3113L456.025 80.072ZM445.176 23.6843V23.7242V23.6843ZM487.776 22.3683C487.736 22.4082 487.657 22.4082 487.617 22.4481C487.697 22.4481 487.736 22.4082 487.776 22.3683ZM482.551 22.2088C482.591 22.2487 482.631 22.2886 482.671 22.2886C482.631 22.2487 482.591 22.2487 482.551 22.2088ZM486.739 21.8499C486.739 21.8898 486.739 21.9297 486.739 21.9297C486.739 21.9297 486.739 21.8898 486.739 21.8499Z" fill="#A3A8AE"/>
<path d="M529.738 84.9764L529.06 84.8169C528.981 84.8169 528.941 84.7771 528.861 84.7372H528.661H528.462L528.342 84.8169C527.983 84.8967 527.465 84.9365 526.787 84.9365C526.228 84.9365 525.311 84.8967 524.074 84.8169C522.798 84.7372 521.761 84.6973 520.963 84.6973C519.846 84.8568 519.009 84.8967 518.45 84.8967C517.732 84.8967 516.615 84.8568 515.139 84.7372C512.866 84.3384 511.47 83.8997 510.951 83.5009C508.957 82.9028 507.361 81.5469 506.085 79.3935C505.845 78.9548 505.367 78.3966 504.689 77.7585C503.931 77.0407 503.333 75.964 502.894 74.5284C502.256 72.6142 501.936 70.4608 501.897 68.0681L501.817 61.7674C501.777 59.7336 501.857 57.6599 502.016 55.5863C502.016 55.028 502.016 54.6691 502.096 54.4697C502.256 53.2335 502.335 52.077 502.335 50.9604C502.335 49.9635 502.216 48.8867 502.016 47.7303C501.897 46.7333 501.817 46.0155 501.817 45.4971C501.817 43.7823 501.976 42.1474 502.415 40.5921C502.894 38.9172 503.133 37.362 503.093 35.8865C503.173 34.092 503.692 32.3772 504.609 30.7023C504.848 30.3434 505.048 29.9048 505.167 29.3863C505.686 27.4722 506.922 25.6777 508.877 23.9629C509.076 23.7635 509.595 23.4844 510.433 23.1255C510.792 23.0059 511.031 22.9261 511.151 22.9261C511.23 22.9261 511.43 22.8463 511.789 22.7267C512.228 22.647 512.626 22.4476 512.985 22.1684C513.863 21.8095 514.501 21.6101 515.02 21.6101H515.379C515.698 21.65 516.137 21.6899 516.695 21.6899C517.054 21.6101 517.612 21.5702 518.37 21.5702C519.128 21.5702 519.647 21.5304 519.926 21.4506C520.165 21.3709 520.524 21.331 521.043 21.331C521.282 21.331 521.641 21.2512 522.16 21.1316C522.718 20.8923 523.436 20.7328 524.393 20.7328C524.713 20.7328 525.271 20.7727 526.149 20.8923C526.707 21.012 527.545 21.0518 528.661 21.0518C529.659 21.0518 531.015 20.9721 532.73 20.8125C532.969 20.8125 533.169 20.7727 533.289 20.6929C533.408 20.653 533.608 20.6132 533.847 20.6132C534.326 20.5334 535.044 20.4935 535.961 20.4935C537.876 20.4537 539.551 20.6929 541.067 21.1715C542.543 21.65 543.939 21.8893 545.255 21.8494C546.611 21.8494 547.927 22.6868 549.164 24.4814C549.204 24.601 549.523 25.3985 550.002 26.874L550.879 29.2667C550.999 29.6256 551.079 29.9447 551.079 30.1839V31.1011C551.039 31.7392 550.999 32.6165 551.039 33.7729C551.079 35.8067 551.198 37.6012 551.477 39.1166C551.757 40.951 551.916 42.3467 551.996 43.2639L552.355 48.1689C552.275 48.3683 552.275 48.6076 552.275 48.9266L551.677 69.1049C551.677 70.2614 551.597 71.2584 551.358 72.0559C551.198 72.8136 550.999 73.7707 550.759 74.9271C550.64 75.286 550.48 75.6449 550.321 75.964L548.247 78.9548C545.734 81.0285 544.218 82.2248 543.659 82.6236C542.423 83.5009 541.107 83.9396 539.71 83.9795C539.152 83.9795 538.753 83.9795 538.514 83.8997C538.195 83.8997 537.995 83.8997 537.876 83.82C537.676 83.7402 537.397 83.7402 537.038 83.7402H536.48C535.841 83.7402 535.323 83.8599 534.924 84.0194C534.565 84.139 534.326 84.2187 534.286 84.2187L533.568 84.4979C532.77 84.8169 531.972 84.9764 531.174 84.9764C530.377 85.0562 529.978 85.0562 529.738 84.9764ZM519.088 78.1971C519.687 78.3168 520.165 78.3567 520.484 78.3567C521.083 78.3567 521.761 78.237 522.519 78.0376C523.237 77.918 523.795 77.8382 524.194 77.8382C524.314 77.8382 524.513 77.8383 524.752 77.8781C524.992 77.918 525.231 77.918 525.391 77.918C526.547 78.0775 527.664 78.1573 528.741 78.1573C530.177 78.1573 531.733 77.9579 533.448 77.6388C534.326 77.4395 535.522 77.28 537.158 77.1204C537.357 77.1204 537.676 77.0407 538.155 76.921C538.474 76.8014 538.633 76.602 538.594 76.3627V75.6051C538.594 75.1664 538.793 74.967 539.232 74.967H540.508C540.748 75.0069 541.146 75.0468 541.705 75.0468C542.941 75.0468 543.699 74.4885 544.018 73.4517C544.058 73.0928 544.218 72.5345 544.457 71.7768C544.696 70.8995 544.896 69.5037 545.056 67.5098L545.295 64.7183V63.6018C545.295 62.4852 545.175 61.4085 544.976 60.3716C544.776 59.4943 544.657 58.6569 544.657 57.7796C544.696 56.344 544.696 54.2703 544.657 51.4788C544.657 51.0402 544.577 50.0831 544.417 48.6076L544.377 45.2977C544.178 39.1964 543.979 34.5306 543.739 31.3404C543.739 30.6624 543.5 29.9845 543.061 29.3066L542.303 28.4692C542.064 28.1103 541.625 27.871 541.107 27.7514C537.876 27.1133 534.844 26.7943 531.932 26.8341C529.659 26.874 527.465 27.0734 525.391 27.4722C524.274 27.6317 523.436 27.6716 522.918 27.6716C522.479 27.7513 521.801 27.7912 520.883 27.7912L518.849 27.8311C516.775 27.871 514.741 28.6287 512.786 30.144C511.669 31.0214 511.111 32.0582 511.071 33.2944V34.5705C511.071 34.8895 511.031 35.2883 510.911 35.7668C510.552 36.6442 510.393 37.6411 510.393 38.8375V39.7546C510.353 41.4694 510.353 44.0216 510.393 47.3315L510.473 54.8286C510.473 56.3838 510.552 57.5004 510.592 58.2581L510.632 61.7674C510.672 63.8809 510.792 65.6754 511.071 67.2307C511.27 69.065 511.39 70.9393 511.43 72.7737V73.1326L511.709 73.7707C511.829 74.0897 511.988 74.2891 512.188 74.4087L513.943 75.6848C515.778 77.0806 517.493 77.8781 519.088 78.1971Z" fill="#A3A8AE"/>
<path d="M530.734 87.0501C530.096 87.0501 529.618 87.0102 529.259 86.9305L528.541 86.8109C528.102 86.8906 527.503 86.9305 526.785 86.9305C526.227 86.9305 525.23 86.8906 523.914 86.8109C522.717 86.7311 521.68 86.6912 520.962 86.7311C519.845 86.8906 518.967 86.9704 518.21 86.9305C517.452 86.9305 516.375 86.8906 514.979 86.771C511.947 86.2526 510.711 85.774 510.032 85.3354C507.719 84.5378 505.804 82.9028 504.368 80.4304C504.289 80.3107 504.049 79.9518 503.291 79.1941C502.294 78.2371 501.536 76.8812 500.978 75.1665C500.3 73.0928 499.901 70.74 499.901 68.108L499.821 61.8073C499.781 59.7735 499.861 57.6201 500.021 55.4268C500.021 54.7887 500.06 54.2704 500.18 53.8317C500.26 53.074 500.34 51.9973 500.3 50.9605C500.3 50.0831 500.18 49.0862 500.021 48.0493C499.861 46.8929 499.781 46.0953 499.781 45.537C499.781 43.6229 499.981 41.7885 500.459 40.0737C500.898 38.5584 501.098 37.1626 501.058 35.8865C501.177 33.6933 501.776 31.6595 502.813 29.7054C503.012 29.3864 503.092 29.1472 503.172 28.9079C503.81 26.5551 505.286 24.4016 507.52 22.4476C507.679 22.2482 508.158 21.9292 509.594 21.2912C510.312 21.0519 510.711 20.9323 511.149 20.9323L511.389 20.6531L512.186 20.3341C513.343 19.8157 514.221 19.5764 515.019 19.5764H515.218L515.776 19.6163C515.976 19.6562 516.295 19.6562 516.694 19.6562C516.774 19.6163 517.452 19.5764 518.329 19.5365C518.888 19.5365 519.287 19.5365 519.526 19.4568C519.885 19.377 520.403 19.2972 521.042 19.2972C521.042 19.2972 521.201 19.2973 521.64 19.1776C522.158 18.9384 523.156 18.7389 524.352 18.6991C524.791 18.6991 525.389 18.739 526.387 18.8985C526.825 18.9782 527.464 19.058 528.62 19.0181C529.578 19.0181 530.894 18.9384 532.529 18.7788C532.609 18.7788 532.609 18.7788 532.569 18.7788C532.968 18.6193 533.327 18.5794 533.766 18.5794C534.085 18.5396 534.843 18.4598 535.88 18.4598C537.914 18.4199 539.949 18.6991 541.624 19.2175C542.9 19.6163 543.977 19.8555 545.174 19.8157C547.328 19.8157 549.083 20.9721 550.758 23.2851C550.998 23.7237 551.317 24.601 551.875 26.1962L552.713 28.549C552.912 29.187 553.032 29.6655 553.032 30.1042V31.0214C552.992 31.7791 552.952 32.6165 552.992 33.6932C553.032 35.6871 553.152 37.3222 553.391 38.7179C553.67 40.6719 553.87 42.1075 553.909 43.0646L554.268 48.3684L554.109 48.9267L553.55 69.2645C553.55 70.5805 553.431 71.7369 553.152 72.7339C552.992 73.3321 552.832 74.2891 552.593 75.4456C552.354 76.2033 552.154 76.6419 551.915 77.0806L549.362 80.5899C545.972 83.3814 545.054 84.0593 544.655 84.3783C543.14 85.455 541.424 86.0532 539.59 86.0532C538.951 86.0532 538.513 86.0133 538.154 85.9734C537.755 85.9734 537.276 85.8937 536.837 85.6943L536.359 85.8139C536.04 85.8139 535.76 85.8538 535.561 85.9335C535.202 86.0532 534.923 86.1728 534.723 86.2127L534.125 86.452C533.128 86.8508 532.091 87.0501 531.053 87.09C530.894 87.0501 530.814 87.0501 530.734 87.0501ZM530.176 83.0623C530.335 83.1022 530.575 83.1022 530.894 83.1022C531.452 83.1022 532.011 82.9826 532.569 82.7433L534.045 82.2249C534.604 81.9856 535.361 81.8261 536.239 81.8261H536.797C537.396 81.7862 537.874 81.866 538.273 82.0255H538.552L538.792 82.0654C538.911 82.1052 539.191 82.1052 539.47 82.0654C540.467 82.0654 541.385 81.7463 542.262 81.1083C542.821 80.7095 544.217 79.5929 546.53 77.7187L548.445 74.9671C548.485 74.9272 548.564 74.7278 548.644 74.4885C548.804 73.5315 549.043 72.5345 549.203 71.7768C549.402 71.059 549.482 70.2615 549.482 69.3044L550.08 49.0463C550.08 48.7672 550.08 48.488 550.16 48.2089L549.841 43.6229C549.761 42.7456 549.601 41.3897 549.362 39.6351C549.083 38.0399 548.923 36.2056 548.923 34.0123C548.923 32.7761 548.923 31.7791 549.003 31.141V30.4232L548.046 27.7514C547.687 26.6747 547.408 25.9968 547.288 25.6379C546.769 24.96 545.932 24.0428 545.174 24.0428C545.134 24.0428 545.054 24.0428 545.014 24.0428C543.538 24.0428 541.983 23.7636 540.347 23.2452C539.071 22.8464 537.635 22.647 535.88 22.647C535.042 22.647 534.444 22.6869 534.005 22.7268C533.726 22.8464 533.247 22.9262 532.649 22.9262C531.014 23.0857 529.578 23.1654 528.58 23.1654C527.264 23.1654 526.347 23.1255 525.669 22.966C525.11 22.8863 524.592 22.8065 524.352 22.8464C523.515 22.8464 523.116 23.0059 522.916 23.0857C521.959 23.3648 521.44 23.4446 521.042 23.4446C520.563 23.4446 520.403 23.4845 520.403 23.4845C519.925 23.5642 519.287 23.644 518.369 23.644C517.771 23.644 517.332 23.6838 517.053 23.7237C515.976 23.7636 515.417 23.7237 515.019 23.644C515.019 23.6839 514.739 23.6838 514.021 24.0029C513.423 24.4415 512.785 24.7207 512.107 24.8004C511.827 24.92 511.508 24.9998 511.149 24.9998C510.711 25.2391 510.352 25.4385 510.152 25.5581C508.517 26.9937 507.48 28.4692 507.041 29.9846C506.881 30.6226 506.642 31.2607 506.243 31.819C505.565 33.0951 505.126 34.5705 505.046 36.046C505.086 37.5614 504.807 39.316 504.289 41.1903C503.93 42.5462 503.77 44.0217 503.77 45.537C503.77 45.9757 503.85 46.6137 503.97 47.4911C504.169 48.6874 504.289 49.8838 504.289 50.9605C504.289 52.1568 504.209 53.4329 504.049 54.7888C503.969 55.1477 503.97 55.347 503.97 55.5863C503.81 57.8594 503.73 59.8533 503.77 61.7674L503.85 68.0682C503.89 70.2615 504.169 72.2155 504.727 73.9302C505.086 75.0468 505.525 75.8444 506.044 76.3628C506.841 77.1604 507.4 77.7984 507.759 78.3966C508.756 80.1113 509.993 81.1482 511.468 81.6267L512.186 82.0255C512.186 82.0255 512.186 82.2648 515.417 82.8231C516.614 82.9028 517.651 82.9427 518.369 82.9427C518.888 82.9427 519.645 82.8629 520.643 82.7433C521.72 82.7433 522.797 82.7433 524.113 82.8231C525.31 82.9028 526.187 82.9028 526.706 82.9427C527.105 82.9427 527.424 82.9427 527.703 82.9028L527.823 82.8231L529.298 82.7433L530.176 83.0623ZM532.489 18.8985C532.45 18.8985 532.33 18.9383 532.25 19.0181C532.33 18.9782 532.41 18.9384 532.489 18.8985ZM520.483 80.3506C520.084 80.3506 519.486 80.2709 518.768 80.1512C516.853 79.7923 514.859 78.8751 512.825 77.3597L511.07 76.1235C510.591 75.8045 510.192 75.2861 509.913 74.6082L509.474 73.2124C509.434 71.0989 509.314 69.2645 509.155 67.5099C508.876 65.9945 508.716 64.0803 508.716 61.8472L508.676 58.3379C508.597 57.7397 508.557 56.5434 508.557 54.9084L508.477 47.4113C508.437 44.0616 508.437 41.5093 508.477 39.7547V38.9173C508.477 37.4817 508.676 36.1657 509.155 35.089C509.155 34.9295 509.155 34.7301 509.155 34.6902V33.4141C509.235 31.4999 510.072 29.9048 511.628 28.6686C513.942 26.8741 516.415 25.9569 518.928 25.917L520.962 25.8771C521.76 25.8771 522.358 25.8372 522.717 25.7974C523.515 25.7575 524.273 25.7176 525.27 25.5581C527.344 25.1593 529.657 24.9201 532.051 24.9201C535.082 24.9201 538.273 25.1992 541.624 25.8771C542.98 26.1962 543.738 26.8741 544.097 27.4324L544.655 28.0306C545.493 29.3067 545.852 30.3435 545.852 31.3803C546.051 34.4908 546.291 39.1565 546.49 45.2978L546.53 48.6475C546.69 50.0433 546.73 51.0402 546.769 51.5188C546.809 54.3501 546.809 56.4636 546.769 57.8992C546.769 58.5373 546.849 59.2551 547.009 59.9729C547.248 61.1692 547.368 62.3656 547.368 63.6018V64.7184L547.128 67.7092C546.969 69.8228 546.73 71.2983 546.49 72.2952C546.291 72.9732 546.131 73.4517 546.091 73.7309C545.493 75.8843 543.977 77.0009 541.823 77.0407C541.345 77.0407 540.946 77.0407 540.587 77.0009C540.387 77.7984 539.789 78.4365 538.951 78.7954C537.994 79.0745 537.595 79.1543 537.236 79.1543C535.88 79.2739 534.723 79.4334 533.925 79.5929C532.051 79.9518 530.336 80.1512 528.82 80.1512C527.663 80.1512 526.466 80.0714 525.19 79.9119C525.23 79.9518 524.951 79.912 524.592 79.8721C523.993 79.8322 523.555 79.912 522.956 80.0316C522.198 80.231 521.401 80.3506 520.603 80.3506C520.483 80.3506 520.483 80.3506 520.483 80.3506ZM513.423 72.7738L513.543 73.0529L515.138 74.1296C516.694 75.2861 518.13 76.0039 519.446 76.2033C519.885 76.283 520.244 76.3628 520.443 76.3229C520.882 76.3229 521.401 76.2432 521.999 76.0836C523.036 75.8843 523.714 75.8045 524.153 75.8045C524.352 75.8045 524.592 75.8045 524.951 75.8444H525.11L525.669 75.8843C526.746 76.0438 527.743 76.1235 528.7 76.0836C530.016 76.0836 531.492 75.8843 533.048 75.6051C533.846 75.4057 535.042 75.2462 536.598 75.0867C536.678 74.4088 537.037 73.9302 537.276 73.6511C537.595 73.2922 538.193 72.8934 539.151 72.8934H540.706L540.946 72.9333C541.105 72.9731 541.345 72.9731 541.664 72.9333C542.063 72.6142 542.262 71.9363 542.541 71.059C542.661 70.6204 542.86 69.5436 543.06 67.2307L543.299 64.4392V63.5221C543.299 62.5251 543.179 61.568 543.02 60.6508C542.82 59.6938 542.701 58.6968 542.661 57.6998C542.701 56.2243 542.701 54.1507 542.661 51.3991C542.661 51.0003 542.581 50.0831 542.461 48.6874L542.422 45.1781C542.222 39.1565 542.023 34.5307 541.783 31.3404C541.783 30.9416 541.664 30.6226 541.424 30.2637L540.866 29.7054C537.675 28.9876 534.723 28.6686 531.971 28.7085C529.817 28.7484 527.703 28.9478 525.748 29.3067C524.432 29.4662 523.515 29.5459 522.916 29.5459C522.717 29.5858 521.919 29.6655 520.882 29.6655L518.848 29.7054C517.172 29.7054 515.577 30.3435 513.981 31.5797C513.184 32.2178 513.064 32.8159 513.024 33.2546V34.4509C513.024 34.9295 512.944 35.4479 512.785 36.1258C512.426 37.043 512.306 37.8007 512.306 38.7179V39.6351C512.266 41.4296 512.266 43.902 512.306 47.2119L512.386 54.709C512.386 56.1845 512.466 57.2612 512.506 57.979L512.545 61.6478C512.585 63.6417 512.705 65.3565 512.944 66.7921C513.303 68.9455 513.423 70.8995 513.423 72.7738Z" fill="#A3A8AE"/>
<path d="M589.45 84.6174C589.33 84.6174 589.131 84.6174 588.812 84.6573C588.493 84.6972 588.254 84.6972 588.054 84.6972C585.701 84.737 582.988 84.2186 579.917 83.1419C577.364 82.1848 575.489 81.3474 574.253 80.6296C571.54 79.4332 569.666 77.6786 568.748 75.3258L567.99 73.5712C567.99 73.1325 567.751 72.9331 567.232 72.9331C565.876 72.8932 564.919 72.2153 564.361 70.9392C564.281 70.8594 564.281 70.7398 564.281 70.5803C564.281 70.4607 564.48 70.1815 564.919 69.7429C565.278 69.384 565.637 69.1048 565.916 68.9852C566.834 68.1876 567.392 67.4299 567.631 66.752C567.671 66.5526 567.831 66.2735 568.07 65.9146C568.549 65.2366 568.988 64.8379 569.347 64.798C569.706 64.798 570.144 64.9575 570.663 65.3563L571.979 67.1907L572.817 68.6661L575.449 72.2552C576.088 72.973 576.925 73.4914 577.962 73.8104L582.789 75.4056L583.706 75.5651C584.065 75.6847 584.384 75.7246 584.624 75.7246C585.741 75.7645 587.416 75.924 589.61 76.1234C590.647 76.2829 592.282 76.4424 594.516 76.5221C595.992 76.5221 597.069 76.5221 597.747 76.562H598.505C599.382 76.562 600.18 76.4424 600.898 76.243C601.496 76.243 602.095 76.1234 602.653 75.8442C603.491 75.6448 604.089 75.3657 604.368 75.0068C604.647 74.6479 604.807 73.9699 604.847 72.973C604.847 72.7337 604.847 72.3748 604.887 71.8564C604.927 71.3779 604.927 70.9791 604.927 70.7398C604.927 70.5006 604.887 70.1417 604.847 69.6232C604.807 69.1447 604.807 68.7459 604.767 68.4269C604.767 68.068 604.687 67.749 604.488 67.5097C603.291 65.436 602.015 64.1599 600.659 63.6814C597.308 62.6047 594.316 61.8869 591.644 61.4881C590.208 61.3286 588.134 61.2488 585.342 61.2887C583.985 61.2887 583.028 61.0893 582.47 60.6905C582.151 60.4512 581.712 60.2917 581.074 60.2519C578.162 59.7334 575.529 58.7365 573.176 57.2211C572.179 56.6628 571.381 55.7457 570.822 54.3898C569.506 51.6382 568.828 49.2056 568.788 47.0921L568.748 44.5798C568.748 44.1012 568.668 43.4233 568.549 42.546V40.9907C568.549 40.4324 568.589 39.595 568.708 38.4784V36.9232C569.227 33.0151 570.144 29.9445 571.461 27.6316C572.179 26.3156 572.857 25.3984 573.455 24.8401C573.774 24.4812 574.173 24.1622 574.652 23.883L576.486 22.7664C577.723 21.9689 579.319 21.3707 581.353 21.0517C582.47 20.932 583.547 20.7326 584.664 20.4535C585.701 20.2541 586.818 20.1345 587.974 20.1345C588.652 20.1345 589.37 20.0148 590.088 19.8154C591.764 19.4167 593.399 19.2173 595.074 19.2173C596.351 19.2173 597.667 19.297 598.943 19.4565C600.938 19.7357 602.733 19.8553 604.408 19.8553C607.001 19.8154 609.354 20.0946 611.468 20.6928C612.466 20.932 613.383 21.4903 614.26 22.3278C614.38 22.4474 614.46 22.567 614.46 22.6867V23.1652C614.46 23.6437 614.58 24.0824 614.739 24.4413L615.497 26.196L616.175 29.0672C616.175 29.4261 616.255 29.9445 616.375 30.5427C616.494 31.5396 616.574 32.2574 616.574 32.7758C616.574 34.1317 616.375 35.4477 615.976 36.7636C615.657 37.5213 615.337 38.0796 614.979 38.4385C614.42 39.0766 614.141 39.6747 614.101 40.3128L614.021 40.9509C613.902 41.3895 613.782 41.7883 613.662 42.1472L613.582 42.7852C613.622 42.865 613.662 42.9847 613.662 43.1442C613.662 43.3436 613.503 43.4632 613.223 43.6227C613.104 43.6227 612.984 43.5828 612.864 43.5429L612.505 42.9049C612.067 42.1871 611.349 41.8282 610.351 41.8282H609.035C608.716 41.9079 608.317 41.9478 607.759 41.9478C607.2 41.9478 606.682 41.7484 606.163 41.2699C605.685 40.8312 605.405 40.2729 605.405 39.6748C605.445 39.3159 605.844 38.9569 606.602 38.6379C606.961 38.5183 607.2 38.4385 607.36 38.4385C607.958 38.2392 608.517 37.8005 608.995 37.1226C609.354 36.5643 609.554 36.2452 609.634 36.2053C609.833 36.006 610.032 35.7268 610.272 35.3679C610.511 34.9292 610.631 34.4507 610.631 33.8924C610.631 32.7759 610.192 31.8985 609.314 31.2206L607.081 28.8279C604.767 26.9935 602.414 26.0364 600.02 25.8769L595.194 25.6775C594.835 25.6376 594.237 25.5978 593.439 25.5978C591.524 25.6377 589.171 25.9966 586.339 26.7144C585.541 26.9138 584.025 27.9905 581.752 29.9046C581.193 30.4629 580.316 31.2605 579.079 32.2574C578.72 32.6163 578.361 33.1348 578.002 33.7329L577.205 35.4875C577.085 35.9661 577.045 36.325 577.045 36.4845C577.045 36.7238 577.085 36.9231 577.165 37.0428L577.244 37.1226C577.244 37.2023 577.244 37.2422 577.244 37.3219V37.4017C577.204 37.5213 577.165 37.641 577.165 37.7606C577.045 38.8772 577.005 39.7146 577.005 40.2729C577.045 42.1073 577.284 44.2607 577.723 46.7332C578.002 48.5676 578.641 50.2823 579.717 51.8775C579.837 52.1167 579.997 52.356 580.156 52.5155C580.316 52.7149 580.515 52.8345 580.794 52.9542C581.074 53.0738 581.273 53.1536 581.433 53.1934C581.592 53.2333 581.832 53.2732 582.191 53.353C582.55 53.4327 582.749 53.4726 582.869 53.4726C583.068 53.5523 583.347 53.5524 583.786 53.5524C584.025 53.5524 584.344 53.5922 584.703 53.7118C586.139 54.1106 588.214 54.31 591.006 54.2701L593.519 54.2303C595.234 54.1904 596.47 54.2701 597.228 54.4695C598.106 54.5892 598.585 54.6291 598.704 54.6291C600.938 54.7886 604.009 55.626 607.998 57.1813C608.118 57.1813 608.198 57.2211 608.277 57.261C608.955 57.6997 609.474 58.2181 609.793 58.896C610.032 60.0126 610.272 60.8501 610.471 61.3685L611.548 64.8777C611.827 67.1109 611.987 69.6232 612.027 72.4546C612.027 73.1325 611.708 74.0098 611.03 75.1663V75.246C610.99 75.3258 610.95 75.3657 610.95 75.4454C610.95 75.5252 610.87 75.605 610.79 75.7246L608.517 79.194C607.48 80.6695 605.485 81.8658 602.533 82.783C601.177 83.2217 600.02 83.5008 599.023 83.5806L589.45 84.6174Z" fill="#A3A8AE"/>
</svg>
