<svg width="618" height="107" viewBox="0 0 618 107" fill="none" xmlns="http://www.w3.org/2000/svg">
<path d="M257.481 3.94815L0.613281 9.18799L2.55888 104.518L259.427 99.2777L257.481 3.94815Z" fill="#C9A795"/>
<path d="M617.835 0.850586H262.193V106.647H617.835V0.850586Z" fill="#977FB8"/>
<path d="M312.017 85.3528C311.059 85.632 310.262 85.7915 309.544 85.7915C308.347 85.7915 307.23 85.5123 306.233 84.9141C304.039 83.6779 302.164 82.9202 300.648 82.681C300.329 82.681 300.09 82.6012 299.891 82.4018C299.133 81.684 298.415 81.1257 297.737 80.7269C296.899 80.3281 296.141 79.7699 295.463 79.1318C294.266 77.8956 292.751 76.6195 290.916 75.3035C289.4 74.2268 287.804 72.5519 286.089 70.3188C285.092 68.8831 283.457 67.607 281.263 66.4905C280.944 66.3309 280.585 66.2113 280.146 66.2113C279.787 66.2113 279.588 66.3708 279.588 66.65C279.468 67.1285 279.388 67.4475 279.388 67.6469C279.388 68.0058 279.388 68.5641 279.348 69.3617C279.308 70.1194 279.308 70.6777 279.308 71.0366C279.308 73.5489 279.508 75.6225 279.867 77.2974C279.986 77.6563 280.066 77.9355 280.066 78.095C280.066 78.5735 279.907 79.0122 279.588 79.411C279.388 79.73 279.229 80.1288 279.109 80.6472L278.75 82.0828C278.75 82.4417 278.59 83 278.271 83.7577C278.271 84.1565 277.753 84.3957 276.756 84.3957C275.878 84.3957 275.28 84.5154 274.961 84.7546C274.522 85.0737 274.163 85.1933 273.923 85.1933C273.604 85.1933 273.205 85.1135 272.687 84.9141C272.448 84.7945 272.009 84.6749 271.45 84.5154C270.892 84.3559 270.453 84.2761 270.214 84.1963C269.855 84.0767 269.456 83.9172 269.097 83.6779L267.86 83.0399C267.621 82.8804 267.501 82.6411 267.501 82.4018C267.501 82.1626 267.581 82.003 267.781 81.8834L269.775 80.8067C270.294 80.5674 270.533 80.0889 270.533 79.3711V78.5735C270.533 75.9017 270.932 72.3525 271.769 67.9659L271.969 66.3708C271.969 66.2512 271.969 66.0917 272.009 65.9321C272.049 65.7726 272.049 65.653 272.049 65.5733C272.049 65.5334 272.049 65.4137 272.009 65.2144C271.969 65.0548 271.969 64.8953 271.969 64.7757C271.969 61.7848 271.889 57.2786 271.769 51.2171C271.769 51.0975 271.769 50.8981 271.73 50.5791C271.69 50.2999 271.69 50.0607 271.69 49.941C271.69 49.5821 271.769 48.9839 271.889 48.1465L271.41 39.0543C271.41 38.2966 271.371 37.6984 271.331 37.3395L271.052 35.8242C270.972 35.6646 270.972 35.3855 270.972 35.0266C271.091 34.1892 271.171 33.5511 271.171 33.1523C271.171 32.3947 271.051 31.2382 270.812 29.6829L270.892 29.0449C270.972 28.8854 271.131 28.6062 271.371 28.2473C271.73 27.8485 271.929 27.3301 271.929 26.732C271.849 26.5724 271.849 26.3332 271.849 26.0141C272.089 25.2963 272.487 24.8976 272.966 24.7779C273.644 24.738 274.681 24.5785 276.077 24.3393C276.596 24.2196 278.67 23.9405 282.42 23.5417C283.935 23.3822 286.648 23.2626 290.557 23.2626H291.394C292.073 23.2626 292.99 23.1429 294.147 22.9037H295.264C299.412 22.784 302.563 22.7441 304.717 22.7441H306.991C311.219 22.7441 314.849 23.8607 317.96 26.054C318.399 26.3332 318.957 26.4927 319.675 26.4927C319.994 26.4927 320.513 26.7718 321.191 27.2902L321.869 27.8087C322.308 28.3271 322.547 28.9253 322.547 29.5234C322.348 30.4007 322.268 31.2382 322.268 32.0357V32.9131C322.268 33.1523 322.268 33.4315 322.308 33.7904C322.348 34.1493 322.348 34.4284 322.348 34.5879C322.348 34.7475 322.348 35.0665 322.308 35.4254C322.268 35.8242 322.268 36.1033 322.268 36.2628C322.188 36.3825 322.188 36.5818 322.188 36.9009C322.188 37.2598 322.268 37.6586 322.467 38.0573C322.786 39.6126 322.946 41.5267 322.946 43.8397C322.946 45.8735 322.826 47.7477 322.587 49.4625L322.029 53.6497C322.029 54.0485 321.949 54.9258 321.829 56.2418C321.709 56.9596 321.43 57.5976 320.991 58.116C320.872 58.2756 320.393 58.6743 319.555 59.2725C319.236 59.5915 318.877 59.7112 318.518 59.7112L315.965 59.9903C314.889 60.2296 314.011 60.3891 313.333 60.429C309.623 60.9474 306.432 61.2265 303.8 61.2265H295.303C295.064 61.2265 294.107 61.3063 292.471 61.386H291.355C290.836 61.5057 290.676 61.7848 290.676 62.2634C290.756 62.383 290.756 62.5824 290.756 62.7818C290.756 63.2603 290.956 63.6591 291.315 63.9382C292.152 65.6131 292.91 66.8095 293.668 67.607C294.187 68.1255 294.745 68.604 295.383 68.9629C296.939 69.8003 298.016 70.4384 298.614 70.8372C298.973 71.1961 299.292 71.5948 299.572 71.9936L300.25 72.7114C300.489 73.0703 300.648 73.3495 300.728 73.509C302.483 76.0612 305.116 77.3373 308.586 77.3373C310.341 77.3373 312.017 77.0581 313.612 76.46C314.928 76.0612 315.926 75.3833 316.644 74.506L317.76 73.1501C317.96 72.8709 318.279 72.4722 318.798 71.9936C318.997 71.6347 319.276 71.4752 319.635 71.4752C320.074 71.4752 320.513 71.6746 320.952 72.1133C321.191 72.3525 321.311 72.5918 321.311 72.8311C321.39 73.0703 321.39 73.4292 321.39 73.9078C321.39 74.2667 321.271 75.1041 321.031 76.4201L320.832 77.6563C320.752 77.8956 320.752 78.2944 320.752 78.8925C320.752 79.9692 320.114 81.0858 318.877 82.2822C318.758 82.4018 318.638 82.4417 318.598 82.4417L318.239 82.6012C315.766 83.8374 313.732 84.7546 312.017 85.3528ZM295.383 56.4412H297.657C297.976 56.4412 298.415 56.4412 299.013 56.481C299.611 56.5209 300.05 56.5209 300.289 56.5209C302.244 56.5209 303.999 56.4013 305.595 56.162C307.868 55.9227 310.142 55.7632 312.415 55.6436C312.535 55.6037 312.735 55.5638 312.974 55.5638C313.094 55.5638 313.293 55.524 313.532 55.4043C314.49 55.0454 314.968 54.5669 315.048 53.9687L315.607 50.7386C315.806 50.0208 315.886 49.2631 315.886 48.5054C315.886 47.987 315.846 47.5483 315.806 47.2692C315.607 45.8336 315.527 44.398 315.527 43.0022L315.327 37.6586C315.327 37.4193 315.248 37.0604 315.128 36.5819C315.128 36.542 315.088 36.3027 314.968 35.9039C314.889 35.5051 314.809 35.226 314.729 34.9867C314.649 34.5082 314.49 33.9898 314.25 33.4714C314.011 32.9529 313.851 32.4345 313.772 31.956L313.213 30.5204C313.133 30.2811 312.974 30.1216 312.655 30.002C311.259 29.6431 309.783 29.4835 308.227 29.4835C307.35 29.4835 306.672 29.4437 306.233 29.4038H301.606C300.768 29.4038 299.651 29.3639 298.215 29.324C296.779 29.2842 295.702 29.2443 294.984 29.2443C293.03 29.2443 291.115 29.324 289.24 29.5234L283.576 29.8823C283.018 29.8823 282.021 29.9621 280.665 30.0418C279.827 30.1216 279.348 30.5602 279.149 31.4774C279.149 31.7965 279.109 31.9959 279.069 32.1953C278.989 32.3149 278.989 32.4345 278.989 32.5542C278.989 32.7137 279.029 32.8732 279.069 32.9131C279.308 35.7843 279.428 38.5359 279.428 41.2077V53.4503C279.428 54.3276 279.787 54.846 280.465 54.9657C283.377 55.5638 285.571 55.843 287.087 55.843C287.446 55.843 288.084 55.9227 288.961 56.0025C290.158 56.3215 291.554 56.4412 293.11 56.4412C293.628 56.4412 294.386 56.4412 295.383 56.4412Z" fill="#FFD62B"/>
<path d="M309.583 87.8247C308.027 87.8247 306.551 87.4259 305.275 86.6682C303.32 85.5516 301.685 84.8737 300.408 84.6743C299.73 84.6344 298.972 84.2356 298.573 83.8767C297.935 83.2786 297.337 82.8 296.739 82.4411C295.861 82.0025 294.944 81.3644 294.146 80.5668C292.949 79.3306 291.513 78.1343 289.838 76.8981C288.163 75.7017 286.408 73.9072 284.573 71.4746C283.895 70.4777 282.818 69.6004 281.422 68.7629C281.422 68.9623 281.422 69.1617 281.422 69.3611C281.382 70.1188 281.382 70.6372 281.382 70.9562C281.382 73.309 281.541 75.2631 281.9 76.7784C282.06 77.1772 282.14 77.6159 282.14 78.0146C282.14 78.892 281.86 79.7693 281.302 80.527C281.302 80.527 281.222 80.7264 281.142 81.0853L280.783 82.3614C280.743 82.8798 280.584 83.5178 280.265 84.2755C280.065 85.0731 279.387 86.3492 276.834 86.3492C276.236 86.3492 276.037 86.4289 276.037 86.4289C274.8 87.3062 273.723 87.3461 272.088 86.7878C271.729 86.6283 271.45 86.5486 271.011 86.4289L269.814 86.1099C269.096 85.9105 268.578 85.6314 268.059 85.3123L267.022 84.7939C265.985 84.0761 265.546 83.2786 265.546 82.4013C265.546 81.4841 265.985 80.6865 266.743 80.208L268.578 79.211V78.5729C268.578 75.7815 269.016 72.1127 269.854 67.6065L270.014 66.131C270.014 66.131 270.014 65.8518 270.093 65.5328C270.014 65.2537 270.014 64.9745 270.014 64.7751C270.014 61.8241 269.934 57.3179 269.814 51.2564L269.774 50.8178C269.734 50.419 269.734 50.1398 269.734 49.9803C269.734 49.5815 269.814 48.8638 269.934 47.9067L269.455 39.2133C269.455 38.4954 269.455 38.0568 269.375 37.7377L269.096 36.2623C269.016 36.1426 268.977 35.6641 268.977 35.1058C269.096 34.1088 269.176 33.5904 269.176 33.2315C269.176 32.753 269.096 31.8358 268.817 30.0812L268.777 29.7621L268.937 28.8449C269.136 28.1271 269.375 27.7284 269.774 27.1701L269.974 27.1302C269.894 26.8111 269.854 26.4921 269.854 26.0933L269.974 25.4154C270.612 23.581 271.848 23.0626 272.527 22.9031C273.484 22.7835 274.441 22.6638 275.758 22.4246C275.917 22.3847 276.555 22.2252 282.219 21.5871C283.815 21.3877 286.527 21.308 290.556 21.308H291.394C291.792 21.308 292.51 21.2681 293.707 20.989L294.106 20.9491H295.223C299.331 20.8294 302.522 20.7896 304.676 20.7896H306.95C311.577 20.7896 315.646 22.0258 319.076 24.4583C319.116 24.4583 319.315 24.5381 319.634 24.5381C320.432 24.5381 321.27 24.897 322.387 25.7743L323.384 26.6118C324.142 27.529 324.501 28.5259 324.501 29.5627L324.461 29.9615C324.301 30.7192 324.222 31.3971 324.222 32.0352V32.9125C324.222 33.1119 324.221 33.3512 324.261 33.6303C324.301 34.069 324.301 34.388 324.301 34.5874C324.301 34.7868 324.301 35.1457 324.261 35.5843C324.221 35.9034 324.222 36.1426 324.222 36.2623L324.381 37.658C324.7 39.3329 324.9 41.4065 324.9 43.8391C324.9 45.9128 324.78 47.9067 324.501 49.7411L323.942 53.9283C323.942 54.0878 323.902 55.0449 323.783 56.4406C323.583 57.6768 323.145 58.594 322.466 59.3916C322.307 59.6308 321.908 59.9897 320.671 60.9069C320.193 61.3855 319.355 61.7444 318.478 61.7444L316.124 61.9837C315.167 62.2229 314.21 62.3824 313.452 62.4223C309.782 62.9407 306.471 63.2199 303.759 63.2199H295.263C295.063 63.2199 294.425 63.2598 293.428 63.3395C294.266 64.9745 294.864 65.7721 295.263 66.1708C295.662 66.6095 296.061 66.9285 296.539 67.1678C298.175 68.0451 299.291 68.6832 299.93 69.1617C300.648 69.7998 301.047 70.3182 301.406 70.9163L301.844 71.3151C302.203 71.8335 302.443 72.1925 302.602 72.4716C303.958 74.3857 305.993 75.3029 308.705 75.3029C310.221 75.3029 311.657 75.0637 313.013 74.5453C314.05 74.2262 314.728 73.7876 315.167 73.2293L316.364 71.8335C316.483 71.6342 316.842 71.1955 317.361 70.6771C317.919 69.8795 318.797 69.401 319.754 69.401C320.432 69.401 321.429 69.6004 322.466 70.5575C323.145 71.2354 323.384 71.9133 323.464 72.4317C323.543 72.7906 323.583 73.2293 323.583 73.7876C323.583 74.1465 323.543 74.7845 323.184 76.6588L323.025 77.8153C322.945 78.1742 322.945 78.4533 322.945 78.7723C322.945 80.4073 322.107 82.0423 320.432 83.5976L319.874 84.1559L319.275 84.3154C316.882 85.5516 314.728 86.5486 312.933 87.1467L312.853 87.1866C311.457 87.6253 310.46 87.8247 309.583 87.8247ZM301.086 80.7662C303.041 81.1251 304.956 81.8828 307.269 83.1988C308.426 83.8767 309.383 84.116 311.417 83.478C313.013 82.9197 314.967 82.0424 317.241 80.846L317.6 80.6865C318.318 79.9687 318.717 79.3306 318.717 78.892C318.717 78.0545 318.757 77.5361 318.876 77.0975L318.996 76.1005C319.156 75.2631 319.275 74.6649 319.315 74.306L318.039 75.8214C317.161 76.9778 315.805 77.8552 314.09 78.4134C312.415 79.0515 310.46 79.4104 308.466 79.4104C304.317 79.4104 301.126 77.8153 298.972 74.7048L298.733 74.2661C298.693 74.2262 298.613 74.1066 298.494 73.9471L297.975 73.4287C297.576 72.8305 297.377 72.5912 297.138 72.352C296.978 72.2722 296.22 71.7538 294.345 70.7967C293.508 70.3182 292.75 69.72 292.112 69.0421C291.274 68.2046 290.436 66.9285 289.559 65.2138C289 64.6156 288.681 63.818 288.641 62.9806L288.522 62.7812V62.2628C288.522 60.5082 289.639 59.6707 290.636 59.5112L292.152 59.4713C293.747 59.3517 294.704 59.3118 294.984 59.3118H303.48C305.993 59.3118 309.104 59.0327 312.734 58.5143C313.492 58.4345 314.249 58.3149 315.207 58.1155L317.999 57.7965C318.597 57.3179 318.996 57.0388 319.156 56.8793C319.355 56.64 319.475 56.321 319.555 55.9222C319.634 54.8853 319.714 54.0878 319.714 53.689L320.312 49.2227C320.552 47.5478 320.671 45.7533 320.671 43.879C320.671 41.8053 320.552 40.0507 320.273 38.655C320.033 38.0568 319.914 37.4586 319.914 36.9003C319.914 36.5414 319.953 36.2224 320.033 35.9432C320.033 35.7439 320.073 35.5445 320.073 35.2653C320.113 34.9463 320.113 34.707 320.113 34.5874C320.113 34.4279 320.113 34.2285 320.073 33.9493C320.033 33.5107 320.033 33.1518 320.033 32.8726V31.9953C320.033 31.1579 320.113 30.2805 320.312 29.4032C320.312 29.3633 320.273 29.2836 320.233 29.2038L319.754 28.8051C319.315 28.486 319.116 28.4063 319.116 28.3664C318.358 28.4063 317.441 28.167 316.683 27.6486C313.851 25.6547 310.66 24.6976 306.83 24.6976H304.557C302.443 24.6976 299.291 24.7375 295.183 24.8571H294.266C293.069 25.0964 292.112 25.216 291.314 25.216H290.476C286.647 25.216 284.014 25.2958 282.578 25.4553C277.552 26.0136 276.635 26.1731 276.475 26.213C275.399 26.4124 274.521 26.532 273.843 26.6118V26.6915C273.843 27.7682 273.484 28.7652 272.766 29.5627C272.766 29.5627 272.766 29.6026 272.726 29.6425C272.965 31.1579 273.085 32.3143 273.085 33.1518C273.085 33.6303 273.005 34.3481 272.886 35.3052L273.245 36.9801C273.324 37.4187 273.364 38.0967 273.364 39.0537L273.843 48.0662C273.723 49.1429 273.643 49.6613 273.643 49.9405L273.683 50.3392C273.723 50.738 273.723 51.0172 273.723 51.1767C273.843 57.2382 273.923 61.7444 273.923 64.7352L274.002 65.5328C274.002 65.6524 274.002 65.8917 273.923 66.2506L273.723 68.2046C272.925 72.5912 272.527 76.0606 272.527 78.6128V79.4104C272.527 80.6865 272.008 81.7632 271.091 82.4013L272.008 82.6405C272.726 82.8399 273.245 82.9994 273.564 83.1589C273.803 83.2387 273.963 83.2387 273.963 83.2387C274.481 82.6804 275.359 82.4411 276.675 82.4411C276.755 82.162 276.755 82.0822 276.795 82.0423L276.874 81.6037L277.233 80.1681C277.393 79.4901 277.632 78.8521 277.951 78.3736L277.911 78.2539L277.991 77.6956C277.592 75.8612 277.393 73.7078 277.393 70.9961C277.393 70.6372 277.393 70.039 277.433 69.2016C277.473 68.4838 277.473 67.9255 277.473 67.6065C277.473 67.2874 277.552 66.8887 277.672 66.2905C277.832 65.2138 278.669 64.1769 280.225 64.1769C281.023 64.1769 281.741 64.3365 282.339 64.6954C284.772 65.9316 286.607 67.4071 287.804 69.1218C289.319 71.1556 290.795 72.7109 292.152 73.6281C294.066 74.9839 295.702 76.3797 296.978 77.6956C297.457 78.1343 298.055 78.5729 298.693 78.892C299.531 79.4503 300.289 80.0484 301.086 80.7662ZM300.688 80.6865C300.727 80.6865 300.807 80.6865 300.847 80.7264C300.807 80.6865 300.727 80.6865 300.688 80.6865ZM268.857 79.0515C268.857 79.0515 268.817 79.0515 268.857 79.0515V79.0515ZM319.315 72.7906C319.315 72.8305 319.315 72.9103 319.315 72.9501V72.7906ZM300.329 58.5541C300.049 58.5541 299.611 58.5541 298.932 58.5143C298.374 58.4744 297.975 58.4744 297.656 58.4744H295.382C294.266 58.4744 293.428 58.4345 292.869 58.3547C291.354 58.3547 289.798 58.1952 288.442 57.8762C287.923 57.8363 287.365 57.7566 287.046 57.7566C285.371 57.7566 283.057 57.4375 280.026 56.8394C278.789 56.64 277.393 55.6032 277.393 53.37V41.1274C277.393 38.7746 277.273 36.342 277.074 33.7898L276.994 33.7101L276.914 32.434C276.914 32.1149 276.994 31.756 277.074 31.4769L277.114 30.9585C277.473 29.2038 278.709 28.0873 280.424 27.9676C281.86 27.848 282.897 27.7682 283.496 27.7682L289.04 27.4093C290.915 27.2498 292.909 27.1302 294.944 27.1302C295.662 27.1302 296.739 27.1701 298.254 27.2099C299.65 27.2498 300.767 27.2897 301.565 27.2897H306.192C308.306 27.529 310.899 27.4093 313.093 27.9676C314.569 28.5259 314.967 29.4431 315.087 29.9216L315.725 31.5965C315.765 31.8358 315.845 32.1548 316.005 32.5137C316.364 33.2315 316.563 33.9493 316.643 34.6273L316.842 35.3451C316.922 35.704 316.962 35.9432 317.002 36.1027C317.161 36.7009 317.241 37.1396 317.241 37.5384L317.441 42.8422C317.441 44.2379 317.52 45.5937 317.72 46.9496C317.8 47.2686 317.839 47.787 317.839 48.465C317.839 49.422 317.72 50.3392 317.48 51.2166L317.002 54.2872C316.922 55.1246 316.364 56.4406 314.249 57.2382C313.851 57.4376 313.412 57.5572 312.973 57.5572L312.614 57.7167L312.494 57.6369C310.261 57.7566 308.027 57.9161 305.793 58.1554C304.238 58.3946 302.363 58.5541 300.329 58.5541ZM281.422 53.0111C283.935 53.4896 285.809 53.7688 287.086 53.7688C287.524 53.7688 288.242 53.8485 289.24 53.9681C290.476 54.2872 291.713 54.4068 293.149 54.4068C293.827 54.4866 294.505 54.4866 295.422 54.4866H297.696C298.015 54.4866 298.534 54.4866 299.172 54.5264C299.73 54.5663 300.129 54.5663 300.368 54.5663C302.203 54.5663 303.879 54.4467 305.354 54.2473C307.668 54.008 309.862 53.8086 312.096 53.689C312.375 53.6092 312.694 53.5694 313.013 53.5694C313.053 53.5295 313.133 53.4497 313.172 53.4497L313.691 50.419C313.851 49.7012 313.93 49.1429 313.93 48.5447C313.93 48.0263 313.89 47.787 313.89 47.7073C313.651 46.0723 313.571 44.517 313.571 43.0017L313.372 37.6979C313.372 37.4985 313.332 37.2991 313.252 37.0598L312.893 35.4647C312.814 34.9463 312.694 34.6273 312.534 34.2684C312.215 33.6303 312.056 33.0321 311.936 32.434L311.657 31.7162C309.942 31.3573 307.189 31.437 306.072 31.2775H301.685C300.847 31.2775 299.69 31.2376 298.214 31.1977C296.818 31.1579 295.741 31.118 295.063 31.118C293.189 31.118 291.314 31.1977 289.479 31.3573L283.735 31.7162C283.137 31.7162 282.299 31.756 281.142 31.8757C281.142 32.0352 281.102 32.2346 281.063 32.434V32.6334C281.302 35.5445 281.461 38.4157 281.461 41.0875V53.0111H281.422ZM313.093 53.6491C313.093 53.689 313.093 53.7289 313.093 53.7688V53.6491ZM311.417 31.2376C311.417 31.2775 311.457 31.3174 311.457 31.3573L311.417 31.2376Z" fill="#FFD62B"/>
<path d="M349.153 86.628C348.036 86.628 347.198 86.5482 346.68 86.3488C345.722 86.0298 344.725 85.9102 343.648 85.9102H341.853C341.414 85.9501 340.776 85.9899 339.978 85.9899C339.3 85.9899 338.782 85.9501 338.463 85.9102H336.867C336.349 85.9102 335.99 85.7108 335.75 85.2721C335.67 84.8733 335.511 84.3948 335.272 83.8365C334.952 83.358 334.753 82.9193 334.713 82.4807C334.633 82.4408 334.633 82.3212 334.633 82.1218C334.633 81.8825 334.793 81.6033 335.112 81.3242C335.232 81.1647 335.391 81.0052 335.591 80.8855C335.95 80.5266 336.149 80.1279 336.149 79.6493C336.029 79.2904 335.95 79.0113 335.95 78.772C335.95 78.6524 336.029 78.4929 336.149 78.2536C336.827 76.0603 337.705 74.0664 338.782 72.2719C339.42 71.1553 340.178 69.281 341.055 66.649V66.4895C341.135 66.4497 341.135 66.3699 341.135 66.33C341.335 65.4527 341.614 64.5754 341.973 63.7379L342.93 61.2256C343.568 59.6305 343.967 58.5937 344.167 58.1949C344.486 57.5568 344.885 56.5599 345.403 55.2439C346.4 52.5721 347.437 50.3788 348.514 48.7438C349.073 47.8665 349.631 46.71 350.23 45.2744C351.426 42.2437 352.423 39.6117 353.261 37.3386L356.293 29.4029L356.572 28.2464C356.572 28.0072 356.452 27.7679 356.213 27.5286L354.418 26.7311C354.059 26.3722 353.859 25.8936 353.859 25.2955C353.859 24.8169 353.979 24.4979 354.218 24.2985L355.734 23.142L356.572 22.7831C356.691 22.7433 356.931 22.7034 357.25 22.7034C359.125 22.7034 360.561 22.6635 361.518 22.6236H365.945C366.304 22.6236 366.703 22.7034 367.062 22.9028C368.339 23.2617 368.937 24.0592 368.937 25.2955C368.857 25.5347 368.857 25.8936 368.857 26.3722C368.857 27.3691 369.575 29.7219 371.011 33.4306C371.769 35.3447 372.288 36.7803 372.607 37.8172C373.245 39.6117 374.282 41.8449 375.718 44.5965C376.915 47.1088 377.872 49.7009 378.55 52.3727C378.869 53.6887 379.348 55.0046 379.986 56.4004C380.624 57.7164 381.103 59.0722 381.422 60.5078C381.502 60.7471 381.781 61.3054 382.26 62.1827C383.018 63.7379 384.812 67.646 387.645 73.867C388.283 75.4222 388.801 76.6186 389.24 77.4162C389.439 77.7751 389.519 78.0941 389.519 78.4131C389.519 78.8916 389.28 79.2904 388.761 79.6493C389.08 80.1279 389.559 80.5665 390.197 81.0052C390.716 81.4837 390.955 81.8027 390.955 82.0021C390.756 82.1616 390.636 82.361 390.596 82.5205C390.277 82.9991 389.958 83.358 389.639 83.5972C389.4 83.8365 389.2 83.9562 389.08 83.9562C387.764 84.1954 386.448 84.3549 385.092 84.4746C383.337 84.5942 382.02 84.7138 381.103 84.8335C380.864 84.9132 380.465 84.9132 379.986 84.9132C379.148 84.9132 377.952 84.7537 376.316 84.3948C375.997 84.2752 375.838 84.0758 375.838 83.8764V82.5205C375.838 81.5236 376.197 80.8855 376.875 80.6463C376.994 80.6064 377.194 80.5665 377.433 80.5665C377.752 80.5665 378.111 80.407 378.55 80.1279L379.308 79.7689C379.667 79.6094 379.866 79.2505 379.866 78.6922V78.2137C379.308 76.3793 378.63 74.4652 377.872 72.5111C376.795 70.4375 375.638 67.8055 374.362 64.6551L373.803 63.5784C373.564 63.0999 373.285 62.7011 373.046 62.422C372.846 62.422 372.726 62.3821 372.687 62.3422C372.487 62.3023 372.208 62.2625 371.849 62.2625C371.49 62.3422 370.931 62.3422 370.253 62.3422C369.495 62.3422 368.937 62.3023 368.538 62.2625C367.262 62.2625 366.185 62.3821 365.227 62.6214C364.709 62.7809 363.951 62.9005 362.874 62.9005C361.877 62.9005 361.119 62.8606 360.6 62.8208C360.401 62.8208 360.082 62.8208 359.643 62.7809C359.204 62.741 358.845 62.741 358.606 62.741C358.367 62.741 358.008 62.741 357.609 62.7809C357.21 62.8208 356.891 62.8208 356.691 62.8208L352.742 63.0999C351.027 63.0999 349.95 63.7778 349.432 65.1736C349.073 66.7687 348.594 68.284 347.996 69.6399C347.358 71.0755 346.799 72.5111 346.281 73.9069L345.523 75.6216C344.645 77.4161 344.087 78.8916 343.927 80.088C343.927 80.726 344.326 81.0849 345.164 81.0849C346.44 80.9653 347.278 80.9254 347.717 80.9254C348.036 80.9254 348.634 80.9653 349.512 81.0849C350.19 81.3242 350.668 81.8825 350.948 82.7598L351.227 84.1157C351.307 84.2353 351.307 84.3948 351.307 84.5543C351.307 84.8335 351.187 85.1126 350.948 85.3519L350.668 85.7108C350.429 86.0697 350.11 86.3488 349.711 86.5881C349.591 86.5881 349.432 86.628 349.153 86.628ZM353.7 59.5906H354.178C355.614 59.2716 356.971 59.152 358.167 59.152C359.164 59.152 360.082 59.2716 360.92 59.5109H362.156C362.356 59.5109 362.515 59.471 362.714 59.4311H363.472C364.988 59.1919 366.105 59.0323 366.783 58.9925L369.894 58.7133L370.652 58.5538C370.772 58.5538 370.931 58.4342 371.131 58.2348C371.33 58.0354 371.41 57.8759 371.41 57.7562C371.29 57.517 371.211 57.3176 371.211 57.1182C370.213 54.566 369.376 52.0138 368.738 49.4616C368.219 47.7468 367.621 46.1118 366.863 44.5566C365.427 42.0044 364.39 39.6915 363.831 37.6976C363.712 37.4583 363.632 37.2988 363.632 37.1791L363.353 36.8202C363.353 36.7006 363.313 36.581 363.273 36.4215C363.233 36.2619 363.153 36.1423 363.074 36.0227C362.994 35.903 362.994 35.8233 362.994 35.7435C362.794 35.584 362.714 35.5043 362.714 35.584C362.356 35.584 362.116 35.6638 362.036 35.8632C360.401 38.7344 358.965 41.7651 357.689 45.0351C356.572 47.707 355.375 50.1794 354.099 52.4525C353.341 53.569 352.543 55.5629 351.745 58.4342C351.745 58.9127 351.865 59.2317 352.104 59.4311C352.224 59.5508 352.304 59.5906 352.384 59.5906C352.703 59.5508 353.141 59.5906 353.7 59.5906ZM359.763 17.28C359.683 17.2401 359.683 17.1205 359.683 16.9211C359.683 16.6818 359.962 16.1634 360.481 15.3259C360.999 14.4885 361.358 13.9302 361.478 13.6112L364.988 7.90861C366.943 4.2797 368.219 2.44531 368.857 2.44531C369.615 2.44531 370.533 2.56494 371.57 2.84409C372.607 3.12323 373.165 3.44227 373.205 3.88093C373.285 4.39934 372.088 6.71227 369.615 10.7001C367.142 14.7278 365.626 16.8014 364.988 16.8812C364.589 16.9609 362.834 17.0806 359.763 17.28Z" fill="#FFD62B"/>
<path d="M444.243 85.3528C443.286 85.632 442.488 85.7915 441.77 85.7915C440.574 85.7915 439.457 85.5123 438.46 84.9141C436.266 83.6779 434.391 82.9202 432.875 82.681C432.556 82.681 432.317 82.6012 432.117 82.4018C431.36 81.684 430.642 81.1257 429.963 80.7269C429.126 80.3281 428.368 79.7699 427.69 79.1318C426.493 77.8956 424.977 76.6195 423.143 75.3035C421.627 74.2268 420.031 72.5519 418.316 70.3188C417.319 68.8831 415.684 67.607 413.49 66.4905C413.171 66.3309 412.812 66.2113 412.373 66.2113C412.014 66.2113 411.814 66.3708 411.814 66.65C411.695 67.1285 411.615 67.4475 411.615 67.6469C411.615 68.0058 411.615 68.5641 411.575 69.3617C411.535 70.1194 411.535 70.6777 411.535 71.0366C411.535 73.5489 411.735 75.6225 412.094 77.2974C412.213 77.6563 412.293 77.9355 412.293 78.095C412.293 78.5735 412.133 79.0122 411.814 79.411C411.615 79.73 411.455 80.1288 411.336 80.6472L410.977 82.0828C410.977 82.4417 410.817 83 410.498 83.7577C410.498 84.1565 409.98 84.3957 408.982 84.3957C408.105 84.3957 407.506 84.5154 407.187 84.7546C406.749 85.0737 406.39 85.1933 406.15 85.1933C405.831 85.1933 405.432 85.1135 404.914 84.9141C404.674 84.7945 404.236 84.6749 403.677 84.5154C403.119 84.3559 402.68 84.2761 402.441 84.1963C402.082 84.0767 401.683 83.9172 401.324 83.6779L400.087 83.0399C399.848 82.8804 399.728 82.6411 399.728 82.4018C399.728 82.1626 399.808 82.003 400.008 81.8834L402.002 80.8067C402.52 80.5674 402.76 80.0889 402.76 79.3711V78.5735C402.76 75.9017 403.159 72.3525 403.996 67.9659L404.196 66.3708C404.196 66.2512 404.196 66.0917 404.236 65.9321C404.276 65.7726 404.276 65.653 404.276 65.5733C404.276 65.5334 404.276 65.4137 404.236 65.2144C404.196 65.0548 404.196 64.8953 404.196 64.7757C404.196 61.7848 404.116 57.2786 403.996 51.2171C403.996 51.0975 403.996 50.8981 403.956 50.5791C403.917 50.2999 403.917 50.0607 403.917 49.941C403.917 49.5821 403.996 48.9839 404.116 48.1465L403.637 39.0543C403.637 38.2966 403.597 37.6984 403.558 37.3395L403.278 35.8242C403.199 35.6646 403.199 35.3855 403.199 35.0266C403.318 34.1892 403.398 33.5511 403.398 33.1523C403.398 32.3947 403.278 31.2382 403.039 29.6829L403.119 29.0449C403.199 28.8854 403.358 28.6062 403.597 28.2473C403.956 27.8485 404.156 27.3301 404.156 26.732C404.076 26.5724 404.076 26.3332 404.076 26.0141C404.315 25.2963 404.714 24.8976 405.193 24.7779C405.871 24.738 406.908 24.5785 408.304 24.3393C408.823 24.2196 410.897 23.9405 414.646 23.5417C416.162 23.3822 418.875 23.2626 422.784 23.2626H423.621C424.299 23.2626 425.217 23.1429 426.373 22.9037H427.49C431.639 22.784 434.79 22.7441 436.944 22.7441H439.217C443.446 22.7441 447.075 23.8607 450.187 26.054C450.625 26.3332 451.184 26.4927 451.902 26.4927C452.221 26.4927 452.74 26.7718 453.418 27.2902L454.096 27.8087C454.534 28.3271 454.774 28.9253 454.774 29.5234C454.574 30.4007 454.495 31.2382 454.495 32.0357V32.9131C454.495 33.1523 454.495 33.4315 454.534 33.7904C454.574 34.1493 454.574 34.4284 454.574 34.5879C454.574 34.7475 454.574 35.0665 454.534 35.4254C454.495 35.8242 454.495 36.1033 454.495 36.2628C454.415 36.3825 454.415 36.5818 454.415 36.9009C454.415 37.2598 454.495 37.6586 454.694 38.0573C455.013 39.6126 455.173 41.5267 455.173 43.8397C455.173 45.8735 455.053 47.7477 454.814 49.4625L454.255 53.6497C454.255 54.0485 454.175 54.9258 454.056 56.2418C453.936 56.9596 453.657 57.5976 453.218 58.116C453.098 58.2756 452.62 58.6743 451.782 59.2725C451.463 59.5915 451.104 59.7112 450.745 59.7112L448.192 59.9903C447.115 60.2296 446.238 60.3891 445.56 60.429C441.85 60.9474 438.659 61.2265 436.026 61.2265H427.53C427.291 61.2265 426.334 61.3063 424.698 61.386H423.581C423.262 61.4259 423.103 61.7051 423.103 62.1836C423.182 62.3032 423.182 62.5026 423.182 62.702C423.182 63.1806 423.382 63.5793 423.741 63.8585C424.579 65.5334 425.336 66.7297 426.094 67.5273C426.613 68.0457 427.171 68.5242 427.809 68.8831C429.365 69.7206 430.442 70.3586 431.04 70.7574C431.399 71.1163 431.719 71.5151 431.998 71.9139L432.676 72.6317C432.915 72.9906 433.075 73.2697 433.154 73.4292C434.91 75.9814 437.542 77.2576 441.012 77.2576C442.768 77.2576 444.443 76.9784 446.038 76.3802C447.355 75.9814 448.352 75.3035 449.07 74.4262L450.187 73.0703C450.386 72.7912 450.705 72.3924 451.224 71.9139C451.423 71.555 451.702 71.3955 452.061 71.3955C452.5 71.3955 452.939 71.5949 453.378 72.0335C453.617 72.2728 453.737 72.5121 453.737 72.7513C453.816 72.9906 453.816 73.3495 453.816 73.828C453.816 74.1869 453.697 75.0244 453.457 76.3403L453.258 77.5766C453.178 77.8158 453.178 78.2146 453.178 78.8128C453.178 79.8895 452.54 81.0061 451.304 82.2024C451.184 82.3221 451.064 82.3619 451.024 82.3619L450.665 82.5215C447.953 83.8374 445.919 84.7546 444.243 85.3528ZM427.61 56.4412H429.884C430.203 56.4412 430.642 56.4412 431.24 56.481C431.838 56.5209 432.277 56.5209 432.516 56.5209C434.471 56.5209 436.226 56.4013 437.821 56.162C440.095 55.9227 442.369 55.7632 444.642 55.6436C444.762 55.6037 444.961 55.5638 445.201 55.5638C445.32 55.5638 445.52 55.524 445.759 55.4043C446.716 55.0454 447.195 54.5669 447.275 53.9687L447.833 50.7386C448.033 50.0208 448.112 49.2631 448.112 48.5054C448.112 47.987 448.073 47.5483 448.033 47.2692C447.833 45.8336 447.753 44.398 447.753 43.0022L447.554 37.6586C447.554 37.4193 447.474 37.0604 447.355 36.5819C447.355 36.542 447.315 36.3027 447.195 35.9039C447.115 35.5051 447.036 35.226 446.956 34.9867C446.876 34.5082 446.716 33.9898 446.477 33.4714C446.238 32.9529 446.078 32.4345 445.998 31.956L445.44 30.5204C445.36 30.2811 445.201 30.1216 444.882 30.002C443.485 29.6431 442.01 29.4835 440.454 29.4835C439.576 29.4835 438.898 29.4437 438.46 29.4038H433.833C432.995 29.4038 431.878 29.3639 430.442 29.324C429.006 29.2842 427.929 29.2443 427.211 29.2443C425.257 29.2443 423.342 29.324 421.467 29.5234L415.803 29.8823C415.245 29.8823 414.248 29.9621 412.891 30.0418C412.054 30.1216 411.575 30.5602 411.376 31.4774C411.376 31.7965 411.336 31.9959 411.296 32.1953C411.216 32.3149 411.216 32.4345 411.216 32.5542C411.216 32.7137 411.256 32.8732 411.296 32.9131C411.535 35.7843 411.655 38.5359 411.655 41.2077V53.4503C411.655 54.3276 412.014 54.846 412.692 54.9657C415.604 55.5638 417.798 55.843 419.313 55.843C419.672 55.843 420.311 55.9227 421.188 56.0025C422.385 56.3215 423.781 56.4412 425.336 56.4412C425.815 56.4412 426.573 56.4412 427.61 56.4412Z" fill="#FFD62B"/>
<path d="M441.771 87.8247C440.215 87.8247 438.739 87.4259 437.463 86.6682C435.508 85.5516 433.873 84.8737 432.596 84.6743C431.998 84.6344 431.16 84.2356 430.761 83.8767C430.123 83.2786 429.525 82.8 428.927 82.4411C428.049 82.0025 427.132 81.3644 426.334 80.5668C425.137 79.3306 423.701 78.1343 422.026 76.8981C420.351 75.7017 418.596 73.9072 416.761 71.4746C416.083 70.4777 415.006 69.6004 413.61 68.7629C413.61 68.9623 413.61 69.1617 413.61 69.3611C413.57 70.1188 413.57 70.6372 413.57 70.9562C413.57 73.309 413.729 75.2631 414.088 76.7784C414.248 77.1772 414.328 77.6159 414.328 78.0146C414.328 78.892 414.048 79.7693 413.49 80.527C413.49 80.527 413.41 80.7264 413.33 81.0853L412.971 82.3614C412.932 82.8798 412.772 83.5178 412.453 84.2755C412.253 85.0731 411.575 86.3492 409.022 86.3492C408.424 86.3492 408.225 86.4289 408.225 86.4289C406.988 87.3062 405.911 87.3461 404.276 86.7878C403.917 86.6283 403.638 86.5486 403.199 86.4289L402.002 86.1099C401.284 85.9105 400.766 85.6314 400.247 85.3123L399.21 84.7939C398.173 84.0761 397.734 83.2786 397.734 82.4013C397.734 81.4841 398.173 80.6865 398.931 80.208L400.766 79.211V78.5729C400.766 75.7815 401.204 72.1127 402.042 67.6065L402.202 66.131C402.202 66.131 402.202 65.8518 402.281 65.5328C402.202 65.2537 402.202 64.9745 402.202 64.7751C402.202 61.8241 402.122 57.3179 402.002 51.2564L401.962 50.8178C401.922 50.419 401.922 50.1398 401.922 49.9803C401.922 49.5815 402.002 48.8638 402.122 47.9067L401.643 39.2133C401.643 38.4954 401.643 38.0568 401.563 37.7377L401.284 36.2623C401.204 36.1426 401.165 35.6641 401.165 35.1058C401.284 34.1088 401.364 33.5904 401.364 33.2315C401.364 32.753 401.284 31.8358 401.005 30.0812L400.965 29.7621L401.125 28.8449C401.324 28.1271 401.563 27.7284 401.962 27.1701L402.162 27.1302C402.082 26.8111 402.042 26.4921 402.042 26.0933L402.162 25.4154C402.8 23.581 404.036 23.0626 404.715 22.9031C405.672 22.7835 406.629 22.6638 407.945 22.4246C408.105 22.3847 408.743 22.2252 414.407 21.5871C416.003 21.3877 418.715 21.308 422.744 21.308H423.582C423.98 21.308 424.698 21.2681 425.895 20.989L426.294 20.9491H427.411C431.519 20.8294 434.71 20.7896 436.864 20.7896H439.138C443.765 20.7896 447.834 22.0258 451.264 24.4583C451.304 24.4583 451.503 24.5381 451.822 24.5381C452.62 24.5381 453.458 24.897 454.575 25.7743L455.572 26.6118C456.33 27.529 456.689 28.5259 456.689 29.5627L456.649 29.9615C456.489 30.7192 456.409 31.3971 456.409 32.0352V32.9125C456.409 33.1119 456.409 33.3512 456.449 33.6303C456.489 34.069 456.489 34.388 456.489 34.5874C456.489 34.7868 456.489 35.1457 456.449 35.5843C456.409 35.9034 456.409 36.1426 456.409 36.2623L456.569 37.658C456.888 39.3329 457.088 41.4065 457.088 43.8391C457.088 45.9128 456.968 47.9067 456.689 49.7411L456.13 53.9283C456.13 54.0878 456.09 55.0449 455.971 56.4406C455.771 57.6768 455.333 58.594 454.654 59.3916C454.495 59.6308 454.096 59.9897 452.859 60.9069C452.381 61.3855 451.543 61.7444 450.666 61.7444L448.312 61.9837C447.355 62.2229 446.398 62.3824 445.64 62.4223C441.97 62.9407 438.659 63.2199 435.947 63.2199H427.451C427.251 63.2199 426.613 63.2598 425.616 63.3395C426.454 64.9745 427.052 65.7721 427.451 66.1708C427.85 66.6095 428.249 66.9285 428.727 67.1678C430.363 68.0451 431.479 68.6832 432.118 69.1617C432.836 69.7998 433.235 70.3182 433.594 70.9163L434.032 71.3151C434.391 71.8335 434.631 72.1925 434.79 72.4716C436.146 74.3857 438.181 75.3029 440.893 75.3029C442.409 75.3029 443.845 75.0637 445.201 74.5453C446.238 74.2262 446.916 73.7876 447.355 73.2293L448.552 71.8335C448.671 71.6342 449.03 71.1955 449.549 70.6771C450.107 69.8795 450.985 69.401 451.942 69.401C452.62 69.401 453.617 69.6004 454.654 70.5575C455.333 71.2354 455.572 71.9133 455.652 72.4317C455.731 72.7906 455.771 73.2293 455.771 73.7876C455.771 74.1465 455.731 74.7845 455.372 76.6588L455.213 77.8153C455.133 78.1742 455.133 78.4533 455.133 78.7723C455.133 80.4073 454.295 82.0423 452.62 83.5976L452.062 84.1559L451.463 84.3154C449.07 85.5516 446.916 86.5486 445.121 87.1467L445.041 87.1866C443.685 87.6253 442.688 87.8247 441.771 87.8247ZM433.274 80.7662C435.229 81.1251 437.144 81.8828 439.457 83.1988C440.614 83.8767 441.571 84.116 443.605 83.478C445.201 82.9197 447.155 82.0424 449.429 80.846L449.788 80.6865C450.506 79.9687 450.905 79.3306 450.905 78.892C450.905 78.0545 450.945 77.5361 451.064 77.0975L451.184 76.1005C451.344 75.2631 451.463 74.6649 451.503 74.306L450.227 75.8214C449.349 76.9778 447.993 77.8552 446.278 78.4134C444.603 79.0515 442.648 79.4104 440.654 79.4104C436.505 79.4104 433.314 77.8153 431.16 74.7048L430.921 74.2661C430.881 74.2262 430.801 74.1066 430.682 73.9471L430.283 73.309C429.884 72.7109 429.684 72.4716 429.445 72.2323C429.286 72.1526 428.528 71.6342 426.653 70.6771C425.815 70.1985 425.057 69.6004 424.419 68.9224C423.582 68.085 422.744 66.8089 421.866 65.0941C421.308 64.496 420.989 63.6984 420.949 62.861L420.829 62.6616V62.2628C420.829 60.5082 421.946 59.6707 422.943 59.5112L424.459 59.4713C426.055 59.3517 427.012 59.3118 427.291 59.3118H435.787C438.3 59.3118 441.412 59.0327 445.041 58.5143C445.799 58.4345 446.557 58.3149 447.514 58.1155L450.307 57.7965C450.905 57.3179 451.304 57.0388 451.463 56.8793C451.663 56.64 451.782 56.321 451.862 55.9222C451.942 54.8853 452.022 54.0878 452.022 53.689L452.62 49.2227C452.859 47.5478 452.979 45.7533 452.979 43.879C452.979 41.8053 452.859 40.0507 452.58 38.655C452.341 38.0568 452.221 37.4586 452.221 36.9003C452.221 36.5414 452.261 36.2224 452.341 35.9432C452.341 35.7439 452.381 35.5445 452.381 35.2653C452.421 34.9463 452.421 34.707 452.421 34.5874C452.421 34.4279 452.421 34.2285 452.381 33.9493C452.341 33.5107 452.341 33.1518 452.341 32.8726V31.9953C452.341 31.1579 452.421 30.2805 452.62 29.4032C452.62 29.3633 452.58 29.2836 452.54 29.2038L452.062 28.8051C451.623 28.486 451.423 28.4063 451.423 28.3664C450.666 28.4063 449.748 28.167 448.99 27.6486C446.158 25.6547 442.967 24.6976 439.138 24.6976H436.864C434.75 24.6976 431.599 24.7375 427.491 24.8571H426.493C425.297 25.0964 424.339 25.216 423.542 25.216H422.704C418.875 25.216 416.242 25.2958 414.806 25.4553C409.78 26.0136 408.863 26.1731 408.703 26.213C407.626 26.4124 406.749 26.532 406.071 26.6118V26.6915C406.071 27.7682 405.712 28.7652 404.994 29.5627C404.994 29.5627 404.994 29.6026 404.954 29.6425C405.193 31.1579 405.313 32.3143 405.313 33.1518C405.313 33.6303 405.233 34.3481 405.113 35.3052L405.472 36.9801C405.552 37.4187 405.592 38.0967 405.592 39.0537L406.071 48.0662C405.951 49.1429 405.871 49.6613 405.871 49.9405L405.911 50.3392C405.951 50.738 405.951 51.0172 405.951 51.1767C406.071 57.2382 406.151 61.7444 406.151 64.7352L406.23 65.5328C406.23 65.6524 406.23 65.8917 406.151 66.2506L405.951 68.2046C405.153 72.5912 404.754 76.0606 404.754 78.6128V79.4104C404.754 80.6865 404.236 81.7632 403.318 82.4013L404.236 82.6405C404.954 82.8399 405.472 82.9994 405.792 83.1589C406.031 83.2387 406.19 83.2387 406.19 83.2387C406.709 82.6804 407.586 82.4411 408.903 82.4411C408.983 82.162 408.983 82.0822 409.022 82.0423L409.102 81.6037L409.461 80.1681C409.621 79.4901 409.86 78.8521 410.179 78.3736L410.139 78.2539L410.219 77.6956C409.82 75.8612 409.621 73.7078 409.621 70.9961C409.621 70.6372 409.621 70.039 409.661 69.2016C409.701 68.4838 409.701 67.9255 409.701 67.6065C409.701 67.2874 409.78 66.8887 409.9 66.2905C410.06 65.2138 410.897 64.1769 412.453 64.1769C413.251 64.1769 413.969 64.3365 414.567 64.6954C417 65.9316 418.835 67.4071 420.032 69.1218C421.547 71.1556 423.023 72.7109 424.379 73.6281C426.294 74.9839 427.929 76.3797 429.206 77.6956C429.684 78.1343 430.283 78.5729 430.921 78.892C431.719 79.4503 432.477 80.0484 433.274 80.7662ZM432.876 80.6865C432.915 80.6865 432.995 80.6865 433.035 80.7264C432.995 80.6865 432.915 80.6865 432.876 80.6865ZM401.045 79.0515C401.045 79.0515 401.005 79.0515 401.045 79.0515V79.0515ZM451.503 72.7906C451.503 72.8305 451.503 72.9103 451.503 72.9501V72.7906ZM432.517 58.5541C432.237 58.5541 431.799 58.5541 431.12 58.5143C430.562 58.4744 430.163 58.4744 429.844 58.4744H427.57C426.454 58.4744 425.616 58.4345 425.057 58.3547C423.542 58.3547 421.986 58.1952 420.63 57.8762C420.111 57.8363 419.553 57.7566 419.234 57.7566C417.559 57.7566 415.245 57.4375 412.214 56.8394C410.977 56.64 409.581 55.6032 409.581 53.37V41.1274C409.581 38.7746 409.461 36.342 409.262 33.7898L409.182 33.7101L409.102 32.434C409.102 32.1149 409.182 31.756 409.262 31.4769L409.302 30.9585C409.661 29.2038 410.897 28.0873 412.612 27.9676C414.048 27.848 415.085 27.7682 415.684 27.7682L421.228 27.4093C423.103 27.2498 425.097 27.1302 427.132 27.1302C427.85 27.1302 428.927 27.1701 430.442 27.2099C431.838 27.2498 432.955 27.2897 433.753 27.2897H438.38C440.494 27.529 443.087 27.4093 445.281 27.9676C446.757 28.5259 447.155 29.4431 447.275 29.9216L447.913 31.5965C447.953 31.8358 448.033 32.1548 448.193 32.5137C448.552 33.2315 448.751 33.9493 448.831 34.6273L449.03 35.3451C449.11 35.704 449.15 35.9432 449.19 36.1027C449.349 36.7009 449.429 37.1396 449.429 37.5384L449.629 42.8422C449.629 44.2379 449.708 45.5937 449.908 46.9496C449.987 47.2686 450.027 47.787 450.027 48.465C450.027 49.422 449.908 50.3392 449.668 51.2166L449.15 54.2473C449.07 55.0847 448.512 56.4007 446.398 57.1983C445.999 57.3977 445.56 57.5173 445.121 57.5173L444.762 57.6768L444.642 57.5971C442.409 57.7167 440.175 57.8762 437.941 58.1155C436.426 58.3946 434.551 58.5541 432.517 58.5541ZM413.61 53.0111C416.123 53.4896 417.997 53.7688 419.274 53.7688C419.712 53.7688 420.43 53.8485 421.428 53.9681C422.664 54.2872 423.901 54.4068 425.337 54.4068C426.015 54.4866 426.693 54.4866 427.61 54.4866H429.884C430.203 54.4866 430.722 54.4866 431.36 54.5264C431.918 54.5663 432.317 54.5663 432.556 54.5663C434.391 54.5663 436.067 54.4467 437.542 54.2473C439.856 54.008 442.05 53.8086 444.284 53.689C444.563 53.6092 444.882 53.5694 445.201 53.5694C445.241 53.5295 445.321 53.4497 445.36 53.4497L445.879 50.419C446.039 49.7012 446.118 49.1429 446.118 48.5447C446.118 48.0263 446.078 47.787 446.078 47.7073C445.839 46.0723 445.759 44.517 445.759 43.0017L445.56 37.6979C445.56 37.4985 445.52 37.2991 445.44 37.0598L445.081 35.4647C445.001 34.9463 444.882 34.6273 444.722 34.2684C444.403 33.6303 444.244 33.0321 444.124 32.434L443.845 31.7162C442.13 31.3573 439.377 31.437 438.26 31.2775H433.873C433.035 31.2775 431.878 31.2376 430.402 31.1977C429.006 31.1579 427.929 31.118 427.251 31.118C425.377 31.118 423.502 31.1977 421.667 31.3573L415.923 31.7162C415.325 31.7162 414.487 31.756 413.33 31.8757C413.33 32.0352 413.291 32.2346 413.251 32.434V32.6334C413.49 35.5445 413.649 38.4157 413.649 41.0875V53.0111H413.61ZM445.281 53.6491C445.281 53.689 445.281 53.7289 445.281 53.7688V53.6491ZM443.605 31.2376C443.605 31.2775 443.645 31.3174 443.645 31.3573L443.605 31.2376Z" fill="#FFD62B"/>
<path d="M472.005 85.9081C470.928 85.9081 470.21 85.27 469.851 83.9541V83.2363C469.851 82.2393 470.051 81.5215 470.41 81.2025C470.769 80.684 470.968 79.8466 470.968 78.8098V76.9355C470.968 76.0981 470.928 75.4999 470.889 75.141C470.809 74.2637 470.809 72.8281 470.809 70.874V53.8461C470.809 50.9749 470.849 48.8613 470.889 47.5055C470.889 46.8674 470.928 46.349 470.968 45.9901C470.968 45.9502 470.968 45.8306 471.008 45.6711C471.048 45.5116 471.048 45.4318 471.048 45.352C471.048 45.2723 471.048 45.1925 471.008 45.033C470.968 44.8735 470.968 44.7539 470.968 44.6343L470.689 40.3673C470.689 40.2477 470.609 39.6495 470.45 38.6127C470.29 37.5758 470.171 36.7384 470.131 36.1402L469.851 32.1125C469.772 31.9929 469.772 31.7935 469.772 31.4745C469.772 31.1554 469.812 30.9561 469.851 30.7567C469.851 29.4008 469.532 28.4437 468.894 27.8855L468.057 26.8885C467.817 26.6094 467.698 26.1707 467.698 25.6523C467.698 25.4928 467.737 25.2934 467.777 25.1339C467.897 24.9743 468.096 24.775 468.336 24.6155C468.455 24.4958 469.692 24.097 472.005 23.459C472.444 23.459 472.684 23.4989 472.763 23.5387C473.441 23.9375 474.319 24.1768 475.316 24.1768H475.994C476.433 24.1768 476.872 24.3762 477.271 24.775C477.67 25.1737 477.869 25.6124 477.869 26.1707C477.789 26.3302 477.47 26.8087 476.832 27.6063C476.632 27.9253 476.553 28.2444 476.553 28.6033C476.632 28.9622 476.632 29.4008 476.632 29.9192V30.4377C476.632 30.4775 476.632 30.5972 476.593 30.7966C476.553 30.9561 476.553 31.1156 476.553 31.2352C476.553 31.7536 476.632 32.2322 476.832 32.5911C477.031 33.3488 477.111 34.585 477.111 36.2598C477.111 39.2507 477.031 42.1618 476.832 44.9931V46.1496C476.832 47.1466 476.832 48.6619 476.872 50.616C476.912 52.57 476.912 54.0455 476.912 55.0026C476.912 56.1989 476.991 57.9535 477.111 60.2266C477.231 62.4996 477.311 64.2144 477.311 65.3709C477.311 67.3249 477.271 68.8004 477.231 69.7575C477.151 70.5151 477.151 71.6716 477.151 73.1471V76.3772C477.151 77.3742 477.311 78.092 477.63 78.5306L478.388 80.5644C478.707 81.681 479.145 82.5583 479.704 83.1565C479.943 83.4755 480.063 83.7945 480.063 84.1534C480.063 84.5123 479.824 84.9111 479.305 85.3099C478.786 85.7087 478.348 85.948 477.989 85.948C477.909 85.948 477.829 85.9479 477.749 85.9878C477.67 86.0277 477.59 86.0277 477.51 86.0277C477.311 86.0277 477.031 85.9878 476.672 85.8682C476.313 85.7087 475.715 85.589 474.957 85.589C474.399 85.589 473.96 85.6289 473.641 85.6688L472.005 85.9081Z" fill="#FFD62B"/>
<path d="M477.47 87.9031C477.071 87.9031 476.592 87.8233 475.994 87.6239C475.755 87.5442 475.555 87.4644 474.917 87.4644C474.518 87.4644 474.199 87.4644 474 87.5043L472.005 87.9031C471.088 87.9031 468.814 87.5841 467.897 84.5134L467.817 83.2373C467.817 81.8017 468.136 80.725 468.774 79.9673C468.814 79.8477 468.934 79.4888 468.934 78.771V76.8967C468.934 76.2188 468.934 75.7403 468.854 75.4611C468.774 74.3445 468.734 72.869 468.734 70.8352V53.8073C468.734 50.8962 468.774 48.7827 468.814 47.3869C468.814 46.6691 468.854 46.0709 468.934 45.6323L469.013 45.1936C469.053 45.2335 468.894 44.9145 468.894 44.6353L468.615 40.488C468.615 40.2886 468.535 39.7702 468.415 38.8929C468.256 37.8162 468.136 36.9787 468.056 36.3407L467.777 32.5124C467.697 32.2332 467.657 31.8743 467.657 31.4756C467.657 31.1166 467.697 30.7976 467.737 30.5185C467.697 29.6412 467.498 29.4019 467.498 29.4019L466.421 28.2055C465.822 27.5276 465.543 26.6503 465.543 25.6534C465.543 25.2546 465.623 24.8159 465.783 24.4171L466.022 23.9785C466.301 23.6196 466.62 23.2607 467.059 22.9416C467.258 22.7423 467.378 22.6226 471.367 21.506L471.925 21.4263C472.564 21.4263 473.202 21.4662 473.76 21.8251C474.119 22.0245 474.638 22.1441 475.236 22.1441H475.914C476.592 22.1441 477.589 22.3435 478.547 23.2607C479.345 24.0184 479.783 25.0153 479.783 26.092L479.664 26.7301C479.544 27.089 479.305 27.4878 478.467 28.5246C478.507 28.8835 478.547 29.3221 478.547 29.8406L478.467 31.0768C478.467 31.4756 478.507 31.5952 478.507 31.5952L478.666 32.0338C478.906 32.951 479.025 34.3069 479.025 36.1812C479.025 39.2119 478.946 42.2028 478.746 45.074V46.1108C478.746 47.1078 478.746 48.5833 478.786 50.5373C478.826 52.5312 478.826 54.0067 478.826 54.9637C478.826 56.1202 478.906 57.835 479.025 60.0682C479.145 62.421 479.225 64.1357 479.225 65.2922C479.225 67.326 479.185 68.8015 479.105 69.7984C479.025 70.5561 479.025 71.6328 479.025 73.0684V76.2985C479.025 77.0562 479.145 77.2955 479.145 77.2955L479.384 77.7341L480.142 79.7679C480.461 80.9244 480.82 81.4428 481.06 81.6821C481.698 82.4398 481.977 83.1974 481.977 84.0349C481.977 84.992 481.498 85.9092 480.501 86.7466C479.624 87.4644 478.786 87.8233 477.909 87.8233C477.988 87.8632 477.749 87.9031 477.47 87.9031ZM474.917 83.4766C475.954 83.4766 476.792 83.6361 477.47 83.9153L477.709 83.8355C477.151 83.0778 476.712 82.1208 476.393 80.9643L475.794 79.2894C475.316 78.5317 475.116 77.5348 475.116 76.2188V72.9887C475.116 71.4334 475.156 70.2371 475.236 69.4395C475.276 68.5622 475.316 67.1266 475.316 65.2124C475.316 64.0958 475.236 62.421 475.116 60.1878C474.997 57.835 474.917 56.0803 474.917 54.8441C474.917 53.887 474.917 52.4514 474.877 50.4974C474.837 48.5035 474.837 47.028 474.837 45.9912V44.8347C475.037 41.9236 475.116 39.0125 475.116 36.1014C475.116 34.4664 475.037 33.5492 474.917 33.0707C474.678 32.4725 474.558 31.8345 474.558 31.0768C474.558 30.8774 474.558 30.5982 474.638 30.2393V29.7209C474.638 29.3221 474.638 29.0031 474.558 28.724C474.518 27.6473 474.717 26.9693 475.116 26.3313C475.196 26.2117 475.316 26.092 475.396 25.9724H475.316C474.159 25.9724 473.082 25.7331 472.165 25.2945C471.207 25.5736 470.449 25.773 469.931 25.9325L470.41 26.411C471.287 27.1288 471.846 28.6043 471.846 30.5584V31.7547L472.125 35.7824C472.165 36.3008 472.284 37.0984 472.444 38.0953C472.643 39.2917 472.723 40.0095 472.723 40.1291L473.082 45.1139C473.082 45.3133 473.042 45.5525 473.002 45.8317C472.923 46.3501 472.883 46.7489 472.883 47.2673C472.803 48.7029 472.803 50.7766 472.803 53.6079V70.6358C472.803 72.55 472.843 73.9059 472.883 74.7832C472.923 75.0224 472.962 75.7004 472.962 76.6973V78.5716C472.962 80.0869 472.643 81.2434 472.045 82.1208L471.846 82.36C471.885 82.36 471.846 82.5993 471.846 83.0379V83.4367C471.885 83.5563 471.925 83.6361 471.965 83.676L473.202 83.3969C473.641 83.5165 474.199 83.4766 474.917 83.4766ZM478.188 83.4766C478.188 83.4766 478.188 83.5165 478.188 83.4766V83.4766ZM468.335 25.3343L468.894 25.5337L467.897 24.8957L468.335 25.3343Z" fill="#FFD62B"/>
<path d="M520.753 84.8335L520.075 84.674C519.995 84.674 519.955 84.6341 519.875 84.5942H519.676H519.476L519.277 84.674C518.918 84.7538 518.359 84.7538 517.681 84.7538C517.123 84.7538 516.166 84.7139 514.889 84.6341C513.613 84.5544 512.536 84.5145 511.738 84.5145C510.621 84.6341 509.744 84.674 509.185 84.674C508.427 84.674 507.31 84.6341 505.795 84.5145C503.481 84.1157 502.045 83.677 501.527 83.2783C499.492 82.6801 497.857 81.3243 496.62 79.2506C496.381 78.8518 495.902 78.2935 495.184 77.6555C494.427 76.9377 493.828 75.9008 493.389 74.545C492.751 72.7106 492.432 70.6369 492.432 68.2841V62.2226C492.432 60.2686 492.512 58.2747 492.711 56.2409C492.711 55.7225 492.751 55.3636 492.791 55.1642C492.991 53.9679 493.07 52.8513 493.07 51.7746C493.07 50.8175 492.991 49.7807 492.791 48.6641C492.671 47.707 492.592 46.9892 492.592 46.5107C492.592 44.8358 492.831 43.2805 493.27 41.7652C493.788 40.17 494.028 38.6547 494.028 37.2191C494.147 35.5043 494.706 33.8294 495.623 32.2343C495.862 31.8754 496.062 31.4766 496.182 30.9981C496.74 29.1637 498.056 27.4489 500.051 25.8139C500.25 25.6544 500.769 25.3753 501.646 25.0164C502.005 24.8967 502.284 24.8569 502.404 24.8569C502.484 24.8569 502.683 24.817 503.082 24.6973C503.521 24.6575 503.92 24.4581 504.319 24.1789C505.196 23.82 505.874 23.6605 506.393 23.6605H506.752C507.071 23.7403 507.51 23.7403 508.068 23.7403C508.427 23.7004 509.026 23.6605 509.783 23.6605C510.541 23.6605 511.06 23.6206 511.379 23.5808C511.618 23.5409 512.017 23.501 512.496 23.501C512.735 23.501 513.134 23.4611 513.613 23.3415C514.171 23.1022 514.929 22.9826 515.886 22.9826C516.205 22.9826 516.804 23.0225 517.681 23.1421C518.24 23.2617 519.117 23.3016 520.234 23.3016C521.231 23.3016 522.627 23.2218 524.382 23.1421C524.622 23.1421 524.821 23.1022 524.941 23.0623C525.061 23.0225 525.26 22.9826 525.499 22.9826C526.018 22.9427 526.736 22.9028 527.653 22.9028C529.608 22.9028 531.323 23.1421 532.839 23.6206C534.355 24.0992 535.751 24.3384 537.107 24.3384C538.503 24.3384 539.819 25.2158 541.096 26.9305C541.175 27.0501 541.455 27.8078 541.933 29.2435L542.771 31.5564C542.891 31.9153 542.97 32.1944 542.97 32.4337V33.311C542.891 33.9092 542.891 34.7865 542.891 35.9031C542.891 37.8571 543.01 39.5719 543.25 41.0872C543.489 42.8818 543.648 44.1977 543.728 45.1149L544.007 49.8604C543.928 50.0199 543.928 50.2592 543.928 50.5782L543.09 70.0387C543.09 71.1553 542.97 72.1124 542.731 72.91C542.532 73.6278 542.332 74.545 542.053 75.6616C541.933 76.0205 541.774 76.3395 541.574 76.6585L539.42 79.5297C536.828 81.4838 535.272 82.6402 534.713 82.9991C533.437 83.8366 532.081 84.2354 530.645 84.2354C530.086 84.2354 529.648 84.1955 529.408 84.1556C529.089 84.1556 528.89 84.1157 528.73 84.0758C528.531 84.036 528.252 83.9961 527.893 83.9961H527.334C526.696 83.9961 526.177 84.0758 525.739 84.2752C525.38 84.3948 525.14 84.4347 525.061 84.4347L524.303 84.7139C523.465 84.993 522.667 85.1525 521.83 85.1525C521.431 84.9133 521.032 84.8734 520.753 84.8335ZM509.983 78.134C510.621 78.2536 511.1 78.2935 511.379 78.2935C512.017 78.2935 512.695 78.2137 513.453 78.0144C514.211 77.8947 514.769 77.8549 515.168 77.8549C515.288 77.8549 515.487 77.8548 515.727 77.8947C515.966 77.9346 516.205 77.9346 516.405 77.9346C517.601 78.0941 518.718 78.2138 519.795 78.2138C521.231 78.2138 522.867 78.0542 524.622 77.7751C525.499 77.6156 526.776 77.4561 528.411 77.3364C528.611 77.3364 528.93 77.2966 529.448 77.1769C529.767 77.0573 529.927 76.8978 529.927 76.6585V75.9407C529.927 75.5419 530.126 75.3027 530.605 75.3027H531.921C532.161 75.3824 532.599 75.3824 533.158 75.3824C534.434 75.3824 535.192 74.864 535.511 73.867C535.591 73.5081 535.751 72.9897 535.99 72.2719C536.229 71.4345 536.469 70.0786 536.668 68.1645L536.947 65.4926V64.4159C536.947 63.3392 536.867 62.3024 536.668 61.3054C536.469 60.468 536.389 59.6306 536.389 58.7931C536.469 57.4373 536.469 55.4035 536.469 52.7316C536.469 52.3329 536.389 51.3758 536.269 49.9801V46.71C536.149 40.8081 535.99 36.3418 535.79 33.2313C535.79 32.5932 535.551 31.9153 535.112 31.2772L534.354 30.4797C534.115 30.1208 533.676 29.8815 533.118 29.7619C529.847 29.1238 526.736 28.7649 523.744 28.7649C521.431 28.7649 519.157 28.9244 517.043 29.2833C515.926 29.403 515.049 29.4428 514.49 29.4428C514.051 29.4827 513.373 29.5226 512.416 29.5226H510.342C508.188 29.5226 506.114 30.2404 504.119 31.676C502.963 32.5135 502.404 33.5104 502.324 34.7067V35.943C502.324 36.2221 502.245 36.6209 502.125 37.0994C501.766 37.9369 501.567 38.9338 501.567 40.0504V40.9277C501.487 42.6026 501.487 45.0352 501.487 48.2254V55.4434C501.487 56.9189 501.527 58.0354 501.567 58.7532V62.1429C501.567 64.1767 501.686 65.9313 501.925 67.4068C502.125 69.2013 502.205 70.9958 502.205 72.7505V73.1094L502.484 73.7474C502.604 74.0664 502.763 74.2658 502.963 74.3855L504.758 75.6217C506.632 77.0573 508.347 77.8549 509.983 78.134Z" fill="#FFD62B"/>
<path d="M521.988 86.9076C521.23 86.9076 520.672 86.8677 520.273 86.7481L519.475 86.6284C518.677 86.7481 517.8 86.7879 514.808 86.5886C513.572 86.5088 512.574 86.4689 511.777 86.4689C509.463 86.7481 508.466 86.6683 505.674 86.4689C502.602 85.9505 501.366 85.472 500.688 85.0333C498.334 84.2357 496.42 82.6406 494.944 80.248C494.904 80.1682 494.625 79.8093 493.867 79.0516C492.87 78.0945 492.072 76.7786 491.553 75.1037C490.875 73.0699 490.516 70.757 490.516 68.2446V62.1832C490.516 60.1494 490.596 58.0757 490.796 56.0021C490.796 55.364 490.835 54.8855 490.995 54.4468C491.075 53.6891 491.155 52.6922 491.155 51.6952C491.155 50.8578 491.075 49.9007 490.915 48.9038C490.756 47.7872 490.716 46.9896 490.716 46.4313C490.716 44.5969 490.955 42.8024 491.474 41.1275C491.912 39.6919 492.152 38.3759 492.152 37.1397C492.311 34.9863 492.95 32.9924 494.027 31.1181C494.226 30.7991 494.306 30.5997 494.386 30.3605C495.103 28.0475 496.619 25.9739 498.933 24.1395C499.212 23.8603 499.81 23.5413 501.047 23.0628C501.805 22.8235 502.204 22.7437 502.563 22.7437L502.842 22.5045L503.719 22.1854C504.876 21.7069 505.754 21.5075 506.551 21.5075L507.309 21.5474C507.549 21.5873 507.828 21.5873 508.267 21.5873C508.506 21.5075 510.58 21.5873 511.178 21.4278C511.537 21.348 512.016 21.3081 512.694 21.3081C512.854 21.3081 513.093 21.2682 513.372 21.1885C513.851 20.9492 514.848 20.7897 516.085 20.7897C516.444 20.7897 517.122 20.8296 518.159 20.9891C518.837 21.1087 520.512 21.2284 524.461 20.9891C524.7 20.9094 525.179 20.7897 525.738 20.7897C526.057 20.7498 526.854 20.71 527.892 20.71C530.045 20.71 532 20.9891 533.675 21.5075C534.992 21.9063 536.228 22.1456 537.345 22.1456C539.379 22.1456 541.254 23.302 542.929 25.5352C543.169 25.934 543.488 26.7714 544.046 28.3665L544.884 30.6795C545.083 31.2777 545.203 31.7961 545.203 32.2746V33.1519C545.123 33.9096 545.123 34.7072 545.123 35.744C545.123 37.5784 545.243 39.2134 545.482 40.5692C545.761 42.4834 545.921 43.8392 545.961 44.7963L546.28 49.9805L546.12 50.3793L545.283 69.9594C545.283 71.2355 545.123 72.3521 544.804 73.349C544.645 73.9472 544.445 74.8245 544.206 75.9411C543.966 76.6589 543.727 77.1374 543.448 77.5761L540.815 80.9259C536.906 83.9167 536.188 84.3554 535.949 84.5149C534.393 85.5517 532.678 86.0701 530.803 86.0701C530.205 86.0701 529.726 86.0303 529.367 85.9904C528.968 85.9904 528.49 85.9106 528.011 85.7112L527.493 85.8309C527.014 85.8309 526.775 85.9106 526.655 85.9505C526.256 86.0702 525.977 86.1499 525.777 86.2297L525.179 86.4689C524.102 86.7082 523.025 86.9076 521.988 86.9076ZM521.23 82.8799C521.709 82.9596 522.826 82.9198 523.743 82.6007L525.219 82.1222C525.738 81.883 526.535 81.7633 527.413 81.7633H527.971C528.57 81.7633 529.008 81.8032 529.407 81.9627L529.926 82.0026C530.085 82.0424 530.365 82.0424 530.684 82.0424C531.761 82.0424 532.718 81.7234 533.635 81.1253C534.194 80.7664 535.67 79.6896 538.023 77.8951L540.017 75.2632C540.017 75.2233 540.137 75.0638 540.177 74.8245C540.376 73.8675 540.616 72.9503 540.815 72.1926C541.015 71.5146 541.134 70.757 541.134 69.8398L541.972 50.2995C541.972 50.0203 542.012 49.7412 542.052 49.4621L541.773 45.0356C541.733 44.1981 541.573 42.8822 541.334 41.1674C541.055 39.652 540.935 37.7778 540.935 35.7041C540.935 34.4679 540.975 33.5507 541.055 32.9126V32.2347L540.137 29.7224C539.778 28.6856 539.539 28.0475 539.419 27.7285C538.821 26.9708 538.023 26.1334 537.185 26.1334C535.67 26.1334 534.034 25.8542 532.319 25.3358C531.003 24.937 529.487 24.6978 527.732 24.6978C526.894 24.6978 526.256 24.7376 525.777 24.7775C525.418 24.8971 524.94 24.9769 524.421 24.9769C520.672 25.2561 518.598 25.2162 517.321 24.937C516.723 24.8573 516.204 24.8174 515.925 24.8174C515.048 24.8174 514.609 24.937 514.449 25.0168C512.255 25.5751 511.856 25.3757 511.856 25.3757C511.418 25.4554 510.74 25.5352 509.782 25.5352C509.144 25.5352 508.705 25.5352 508.386 25.615C507.389 25.6548 506.791 25.5751 506.392 25.4953C506.352 25.5352 506.073 25.5352 505.275 25.8542C504.677 26.253 504.038 26.4923 503.36 26.6119C503.041 26.7316 502.762 26.8113 502.443 26.8113C501.884 27.0506 501.525 27.2101 501.326 27.3297C499.651 28.6856 498.574 30.0813 498.095 31.5568C497.936 32.155 497.656 32.793 497.257 33.3513C496.539 34.5477 496.101 35.9434 496.021 37.3391C496.021 38.8146 495.742 40.5294 495.183 42.3239C494.824 43.6 494.625 44.9957 494.625 46.4712C494.625 46.87 494.665 47.508 494.784 48.3455C494.984 49.5418 495.103 50.6983 495.103 51.7351C495.103 52.8916 494.984 54.1278 494.784 55.4438C494.705 55.7628 494.705 55.9622 494.705 56.2015C494.505 58.315 494.425 60.269 494.425 62.1832V68.2446C494.425 70.3183 494.705 72.2324 495.263 73.8674C495.622 74.9442 496.021 75.7018 496.539 76.1804C497.377 76.9381 497.936 77.616 498.295 78.1743C499.292 79.8492 500.528 80.886 502.084 81.3246L502.802 81.6836C502.802 81.6836 503.44 82.0425 506.113 82.521C507.349 82.6008 508.426 82.6805 509.144 82.6805C509.663 82.6805 510.46 82.6406 511.497 82.521C512.574 82.521 513.651 82.5609 515.008 82.6406C517.162 82.8001 518.079 82.8001 518.717 82.7204L519.475 82.5609L521.23 82.8799ZM511.418 80.3277C511.019 80.3277 510.421 80.248 509.623 80.1283C507.708 79.7694 505.674 78.8522 503.64 77.3767L501.845 76.1405C501.366 75.8215 500.967 75.3031 500.688 74.6251L500.249 73.2294C500.249 71.1557 500.169 69.441 499.97 67.7262C499.731 66.2906 499.571 64.3765 499.571 62.2629V58.8733C499.491 58.315 499.491 57.1585 499.491 55.5634V48.3455C499.491 45.1153 499.531 42.6429 499.571 40.968V40.1705C499.571 38.7747 499.81 37.4986 500.329 36.4219C500.329 36.2624 500.329 36.1029 500.329 36.1029V34.747C500.409 33.3912 500.887 31.5967 502.922 30.1212C505.275 28.4463 507.788 27.6089 510.341 27.6089H512.415C513.253 27.6089 513.851 27.569 514.25 27.5291C515.048 27.5291 515.805 27.4494 516.842 27.3297C521.629 26.5322 527.453 26.572 533.516 27.8083C534.872 28.0874 535.59 28.8052 535.989 29.3236L536.587 29.9218C537.465 31.158 537.784 32.1948 537.784 33.2317C537.983 36.2225 538.143 40.7288 538.262 46.6706V49.9406C538.382 51.2964 538.462 52.2535 538.462 52.6922C538.462 55.4039 538.422 57.4776 538.342 58.8334C538.342 59.4316 538.422 60.1095 538.581 60.7874C538.821 61.9838 538.901 63.1402 538.901 64.3366V65.4133L538.621 68.2845C538.422 70.3183 538.183 71.7938 537.903 72.7509C537.664 73.3889 537.544 73.8276 537.505 74.1067C536.866 76.2203 535.311 77.2571 533.197 77.2571C532.638 77.2571 532.239 77.2172 531.88 77.1773C531.681 77.935 531.043 78.5731 530.205 78.8921C529.288 79.1313 528.849 79.2111 528.45 79.2111C527.054 79.3307 525.897 79.4504 525.059 79.6099C521.709 80.1682 519.196 80.2479 516.164 79.8093C516.204 79.8093 515.885 79.8093 515.526 79.7694C514.888 79.7694 514.449 79.8093 513.811 79.889C513.013 80.2081 512.176 80.3277 511.418 80.3277ZM504.318 72.9503L505.953 74.0668C507.549 75.2233 509.024 75.9012 510.381 76.1405H510.421C511.817 76.4196 512.176 76.3 513.093 76.0607C514.13 75.9012 514.808 75.8215 515.247 75.8215C515.407 75.8215 515.686 75.8215 516.045 75.8614C516.244 75.9012 516.364 75.9012 516.484 75.9012C517.88 76.1006 518.917 76.1804 519.874 76.1804C521.19 76.1804 522.706 76.0209 524.341 75.7816C525.179 75.6221 526.416 75.4626 528.011 75.3429C528.25 74.1067 529.288 73.2693 530.604 73.2693L532.399 73.3092C532.678 73.349 533.556 73.3091 533.595 73.2693C533.595 73.03 533.795 72.392 534.074 71.5545C534.194 71.1557 534.433 70.1189 534.633 67.9256L534.912 65.2139V64.3366C534.912 63.3795 534.832 62.4623 534.672 61.585C534.473 60.6678 534.353 59.6708 534.353 58.7138C534.433 57.2782 534.433 55.2843 534.433 52.6523C534.433 52.2535 534.353 51.4161 534.234 50.0602V46.6706C534.114 40.8484 533.954 36.382 533.755 33.3114C533.755 32.9525 533.635 32.6734 533.436 32.3544L532.878 31.7961C526.974 30.4402 521.948 30.4801 517.361 31.2378C516.005 31.3973 515.087 31.4372 514.489 31.4372C514.25 31.477 513.492 31.5169 512.415 31.5169H510.341C508.586 31.5169 506.95 32.1151 505.275 33.2716C504.477 33.8697 504.358 34.3881 504.318 34.7869V35.9434C504.318 36.4219 504.238 36.9403 504.078 37.6183C503.719 38.4956 503.56 39.2134 503.56 40.0508V40.9282C503.48 42.6429 503.48 45.0755 503.48 48.2258V55.4438C503.48 56.8395 503.52 57.8763 503.56 58.5543V62.1433C503.56 64.0574 503.679 65.7323 503.919 67.0882C504.118 69.0422 504.238 70.8766 504.238 72.711L504.318 72.9503Z" fill="#FFD62B"/>
<path d="M581.78 85.1925C581.66 85.1925 581.421 85.1925 581.102 85.2324C580.783 85.2723 580.543 85.2723 580.344 85.2723C577.951 85.2723 575.198 84.7539 572.047 83.6772C569.454 82.7201 567.54 81.8826 566.263 81.1648C563.471 79.9685 561.636 78.2537 560.679 75.9807L559.921 74.3058C559.921 73.907 559.682 73.6678 559.163 73.6678C557.767 73.6279 556.81 72.9499 556.251 71.7137C556.172 71.6738 556.172 71.5542 556.172 71.3548C556.172 71.2352 556.411 70.956 556.85 70.5573C557.209 70.1984 557.568 69.9591 557.887 69.8395C558.844 69.0818 559.442 68.364 559.682 67.686C559.762 67.5265 559.881 67.2474 560.16 66.8885C560.679 66.2504 561.118 65.8915 561.477 65.8118C561.836 65.8118 562.314 65.9713 562.793 66.3302L564.109 68.1247L564.947 69.5603L567.58 73.0297C568.218 73.7475 569.055 74.2659 570.132 74.5451L575.039 76.1402L575.996 76.2997C576.355 76.4193 576.674 76.4592 576.953 76.4592C578.07 76.4991 579.785 76.6586 582.059 76.8979C583.136 77.0574 584.811 77.2169 587.085 77.3365C588.601 77.3365 589.678 77.3764 590.396 77.4163H591.153C592.031 77.4163 592.869 77.3366 593.627 77.1372C594.265 77.1372 594.863 77.0175 595.421 76.7782C596.299 76.6187 596.897 76.3396 597.177 75.9807C597.456 75.6218 597.615 74.9837 597.695 74.0267C597.695 73.7874 597.695 73.4285 597.735 72.9499C597.775 72.4714 597.775 72.1125 597.775 71.8732C597.775 71.634 597.775 71.2751 597.735 70.7965C597.695 70.318 597.695 69.9192 597.695 69.6401C597.695 69.2811 597.615 69.002 597.416 68.7627C596.219 66.729 594.943 65.4927 593.547 65.0142C590.156 63.9375 587.085 63.1798 584.373 62.781C582.937 62.6215 580.783 62.5019 577.951 62.5019C576.554 62.5019 575.597 62.3025 575.039 61.8638C574.72 61.6246 574.241 61.465 573.603 61.4252C570.651 60.9067 567.979 59.8699 565.585 58.3944C564.588 57.876 563.79 56.9189 563.232 55.6428C561.916 52.971 561.237 50.6182 561.237 48.5844V46.1917C561.237 45.7132 561.158 45.0751 561.038 44.2377V42.7223C561.038 42.2039 561.078 41.4063 561.237 40.3296V38.8143C561.796 35.0657 562.793 32.0749 564.149 29.8816C564.907 28.6453 565.585 27.7281 566.223 27.2097C566.543 26.8508 566.941 26.5717 567.46 26.3324L569.335 25.2557C570.611 24.498 572.247 23.9397 574.361 23.6606C575.477 23.5409 576.634 23.3814 577.751 23.1421C578.828 22.9826 579.945 22.863 581.142 22.863C581.82 22.863 582.578 22.7832 583.296 22.5838C585.011 22.2249 586.686 22.0654 588.401 22.0654C589.718 22.0654 591.034 22.1452 592.39 22.3446C594.384 22.6636 596.259 22.7832 597.974 22.7832C600.607 22.7832 603 23.0624 605.154 23.6606C606.151 23.8998 607.109 24.4183 607.986 25.2557C608.106 25.3753 608.186 25.495 608.186 25.6146V26.0532C608.186 26.5318 608.265 26.9306 608.465 27.2895L609.223 28.9644L609.901 31.7159C609.901 32.0749 609.981 32.5534 610.1 33.1516C610.22 34.1086 610.3 34.8264 610.3 35.305C610.3 36.621 610.06 37.8971 609.622 39.1333C609.303 39.8511 608.944 40.3695 608.585 40.7284C608.026 41.3266 607.707 41.9247 607.627 42.5229L607.548 43.161C607.428 43.5597 607.308 43.9585 607.189 44.3174L607.109 44.9555C607.189 45.0352 607.189 45.115 607.189 45.3144C607.189 45.5138 607.029 45.6334 606.71 45.7531C606.59 45.7531 606.471 45.7132 606.351 45.6733L605.992 45.0352C605.553 44.3174 604.835 43.9585 603.838 43.9585H602.522C602.202 44.0383 601.764 44.0383 601.205 44.0383C600.647 44.0383 600.088 43.799 599.61 43.3604C599.091 42.9217 598.852 42.4033 598.852 41.8051C598.932 41.4462 599.331 41.1272 600.088 40.8082C600.447 40.6885 600.727 40.6487 600.846 40.6487C601.484 40.4891 602.043 40.0505 602.561 39.4124C602.92 38.894 603.16 38.575 603.24 38.5351C603.439 38.3756 603.638 38.0964 603.918 37.7375C604.157 37.3388 604.277 36.8602 604.277 36.3019C604.277 35.2252 603.838 34.3878 602.96 33.7099L600.687 31.3969C598.373 29.6024 595.98 28.6453 593.507 28.4459L588.601 28.1668C588.242 28.1269 587.603 28.087 586.806 28.087C584.851 28.087 582.418 28.4061 579.546 29.084C578.708 29.2435 577.153 30.2803 574.839 32.1147C574.281 32.6331 573.363 33.3908 572.087 34.3479C571.728 34.7068 571.329 35.1853 570.97 35.7835L569.893 37.5382C569.773 38.0167 569.694 38.3357 569.694 38.5351C569.694 38.7744 569.734 38.9339 569.773 39.0535L569.893 39.1333C569.893 39.1732 569.893 39.2529 569.893 39.2928V39.3725C569.813 39.4922 569.813 39.6118 569.813 39.7314C569.694 40.8082 569.614 41.6057 569.614 42.1241C569.614 43.9187 569.813 45.9923 570.292 48.385C570.531 50.1795 571.209 51.8544 572.286 53.3698C572.406 53.609 572.566 53.8084 572.725 54.0078C572.885 54.2072 573.084 54.3269 573.403 54.4465C573.683 54.5661 573.922 54.6459 574.081 54.6857C574.241 54.7256 574.48 54.7655 574.839 54.8453C575.198 54.925 575.438 54.9649 575.557 54.9649C575.757 55.0048 576.076 55.0447 576.515 55.0447C576.754 55.0447 577.073 55.0845 577.472 55.2042C578.908 55.603 581.062 55.8422 583.894 55.8422H586.447C588.202 55.8422 589.478 55.922 590.236 56.1214C591.114 56.241 591.632 56.2809 591.752 56.2809C594.025 56.4404 597.177 57.3177 601.205 58.873C601.325 58.873 601.405 58.9128 601.485 58.9527C602.163 59.3515 602.681 59.9098 603 60.5478C603.24 61.6245 603.479 62.4221 603.678 62.9405L604.715 66.3302C604.955 68.4836 605.074 70.9162 605.074 73.6678C605.074 74.3058 604.715 75.1831 604.037 76.2598V76.3396C603.958 76.3795 603.958 76.4592 603.958 76.4991C603.958 76.539 603.878 76.6586 603.758 76.7782L601.245 80.2078C600.168 81.6434 598.134 82.76 595.102 83.5974C593.706 83.9962 592.51 84.2753 591.512 84.3152L581.78 85.1925Z" fill="#FFD62B"/>
<path d="M23.784 83.9552C22.7469 83.9552 22.029 83.2773 21.67 81.9214V81.1637C21.67 80.1269 21.8694 79.4091 22.2284 79.0502C22.5874 78.4919 22.7868 77.6545 22.7868 76.5379V74.6237C22.7868 73.7464 22.7469 73.1483 22.7071 72.7894C22.6273 71.8722 22.6273 70.3967 22.6273 68.3629V50.6969C22.6273 47.7459 22.6672 45.5526 22.7071 44.117C22.7071 43.4391 22.7469 42.9207 22.7868 42.5618C22.7868 42.5219 22.7868 42.4022 22.8267 42.2427C22.8666 42.0832 22.8666 41.9636 22.8666 41.9237C22.8666 41.8838 22.8666 41.7642 22.8267 41.6047C22.7868 41.4452 22.7868 41.3255 22.7868 41.2059L22.5076 36.7395C22.5076 36.6199 22.4278 36.0218 22.2683 34.945C22.1087 33.8683 21.9891 33.0309 21.9492 32.3928L21.67 28.2455C21.6301 28.1259 21.5902 27.9265 21.5902 27.6075C21.5902 27.2884 21.6301 27.0492 21.67 26.8498C21.67 25.454 21.3509 24.4571 20.7525 23.8988L19.9149 22.9019C19.6756 22.5828 19.5559 22.1442 19.5559 21.5859C19.5559 21.3865 19.5958 21.227 19.6357 21.0276C19.7553 20.8282 19.9548 20.6687 20.1941 20.4693C20.3138 20.3497 21.5104 19.9509 23.784 19.2729C24.2228 19.2729 24.4621 19.3128 24.5419 19.3527C25.22 19.7914 26.0576 19.9908 27.0548 19.9908H27.693C28.1318 19.9908 28.5307 20.1901 28.9296 20.5889C29.3285 20.9877 29.5279 21.4662 29.5279 22.0245C29.4481 22.2239 29.129 22.7025 28.5307 23.5C28.3313 23.819 28.2515 24.1381 28.2515 24.497C28.3313 24.8559 28.3313 25.3344 28.3313 25.8927V26.451C28.3313 26.4909 28.3313 26.6504 28.2914 26.8099C28.2515 27.0093 28.2116 27.1688 28.2116 27.2884C28.2116 27.8467 28.2914 28.2854 28.4908 28.6842C28.6902 29.4817 28.77 30.7578 28.77 32.4726C28.77 35.5432 28.6902 38.5739 28.4908 41.5249V42.7213C28.4908 43.7581 28.4908 45.3133 28.5307 47.3471C28.5706 49.3809 28.5706 50.8963 28.5706 51.8932C28.5706 53.1295 28.6504 54.924 28.77 57.3166C28.8897 59.6695 28.9695 61.464 28.9695 62.6204C28.9695 64.6542 28.9296 66.1696 28.8897 67.1665C28.8099 67.9641 28.8099 69.1604 28.8099 70.6758V73.9857C28.8099 75.0225 28.9695 75.7802 29.2886 76.2189L30.0464 78.3324C30.3655 79.4889 30.8043 80.4061 31.3228 81.0042C31.5622 81.3233 31.6818 81.6423 31.6818 82.0012C31.6818 82.3601 31.4026 82.7988 30.924 83.2374C30.4453 83.6761 30.0065 83.8755 29.6476 83.8755C29.5678 83.8755 29.488 83.8755 29.4082 83.9153C29.3285 83.9552 29.2487 83.9552 29.1689 83.9552C28.9695 83.9552 28.6902 83.8755 28.3313 83.7558C27.9324 83.5963 27.4138 83.5166 26.656 83.5166C26.0975 83.5166 25.6588 83.5564 25.3795 83.5963L23.784 83.9552Z" fill="#DF0634"/>
<path d="M29.1685 85.9497C28.7696 85.9497 28.291 85.87 27.6926 85.6706C27.4533 85.5908 27.2539 85.5111 26.6556 85.5111C26.2567 85.5111 25.9775 85.5111 25.778 85.5509L23.8235 85.9497C22.9061 85.9497 20.6325 85.5908 19.7549 82.4405L19.6751 81.1644C19.6751 79.6091 20.0341 78.4925 20.7122 77.7348C20.6723 77.7348 20.792 77.3759 20.792 76.5385V74.6243C20.792 73.9065 20.792 73.3881 20.7122 73.0691C20.6325 71.9525 20.5926 70.3973 20.5926 68.3236V50.6975C20.5926 47.7066 20.6325 45.4735 20.6723 44.0378C20.6723 43.32 20.7122 42.682 20.792 42.2035L22.8263 42.004L20.8319 41.7249C20.7521 41.685 20.7122 41.4059 20.7122 41.1267L20.433 36.8199C20.433 36.5806 20.3532 36.0622 20.2336 35.1849C20.074 34.0683 19.9544 33.191 19.9145 32.5529L19.6353 28.5651C19.5555 28.286 19.5156 27.9271 19.5156 27.5283C19.5156 27.1694 19.5555 26.8504 19.5954 26.5712C19.5555 25.5743 19.356 25.335 19.3161 25.335L18.2791 24.0988C17.7206 23.4209 17.4414 22.5435 17.4414 21.5466C17.4414 21.1478 17.5212 20.749 17.6408 20.3502L17.8802 19.8717C18.1195 19.5128 18.4785 19.1539 18.9173 18.8349C19.0768 18.6355 19.2364 18.476 23.1454 17.3195L23.7038 17.2397C24.1825 17.2397 24.9404 17.2397 25.5387 17.6784C25.8977 17.8778 26.3763 17.9974 26.9348 17.9974H27.573C28.2511 17.9974 29.2483 18.1968 30.2455 19.1938C31.0034 19.9515 31.4421 20.9484 31.4421 22.0251L31.4022 22.6632C31.2826 23.0221 31.0432 23.4209 30.2455 24.4976C30.2854 24.8963 30.3253 25.3749 30.3253 25.8933L30.2455 27.1694C30.2455 27.6479 30.2854 27.7676 30.2854 27.8075L30.4449 28.2461C30.6842 29.2032 30.764 30.559 30.764 32.4732C30.764 35.6236 30.6842 38.6942 30.4848 41.6452V42.7219C30.4848 43.7587 30.4848 45.2741 30.5247 47.3078C30.5646 49.3416 30.5646 50.8969 30.5646 51.8539C30.5646 53.0503 30.6444 54.8448 30.7241 57.1577C30.8438 59.5903 30.9236 61.3848 30.9236 62.5812C30.9236 64.6548 30.8837 66.2101 30.8438 67.2469C30.764 68.0445 30.764 69.161 30.764 70.6365V73.9464C30.764 74.7839 30.8837 75.063 30.8837 75.063L31.123 75.5017L31.8809 77.6152C32.2 78.8115 32.559 79.3698 32.7584 79.6091C33.3567 80.3668 33.636 81.1245 33.636 81.9619C33.636 82.919 33.1573 83.8362 32.2 84.6736C31.4022 85.3516 30.6444 85.7504 29.8466 85.7902C29.6073 85.9497 29.3679 85.9497 29.1685 85.9497ZM26.6556 81.5233C27.6528 81.5233 28.4505 81.6429 29.0488 81.9221L29.4876 81.8822C28.9292 81.3239 28.4106 80.2073 28.0516 78.8514L27.4134 77.0968C26.9747 76.3391 26.7752 75.3422 26.7752 73.9863V70.6764C26.7752 69.0813 26.8151 67.8451 26.8949 67.0076C26.9348 66.0904 26.9747 64.6149 26.9747 62.621C26.9747 61.4646 26.8949 59.7498 26.7752 57.397C26.6556 55.0043 26.6157 53.1301 26.6157 51.8938C26.6157 50.8969 26.6157 49.4214 26.5758 47.3876C26.5359 45.3538 26.5359 43.7986 26.5359 42.7219V41.5255C26.7353 38.5347 26.8151 35.5438 26.8151 32.4732C26.8151 30.7185 26.7353 29.8014 26.6157 29.2829C26.3763 28.6848 26.2567 28.0068 26.2567 27.289C26.2567 27.0896 26.2567 26.8105 26.3364 26.4915V25.8933C26.3364 25.4546 26.3364 25.1356 26.2567 24.8565C26.2168 23.7798 26.4162 23.1018 26.7752 22.5037C26.8949 22.3043 27.0145 22.1448 27.1342 22.0251H27.0145C25.8578 22.0251 24.8207 21.7859 23.9033 21.3472C22.9858 21.6263 22.2679 21.8257 21.7493 22.0251L22.2679 22.6632C23.1055 23.381 23.6241 24.8964 23.6241 26.8903V28.1265L23.9033 32.2738C23.9432 32.7922 24.0628 33.6297 24.2224 34.6665C24.3819 35.9027 24.4617 36.6205 24.4617 36.7401L24.8207 41.9243C24.8207 42.1237 24.7808 42.363 24.7409 42.6421C24.6611 43.2004 24.6611 43.5992 24.6611 44.1575C24.5814 45.633 24.5814 47.7864 24.5814 50.7374V68.4034C24.5814 70.3574 24.6213 71.793 24.6611 72.7102C24.701 72.9495 24.7409 73.6673 24.7409 74.7041V76.6581C24.7409 78.1735 24.4617 79.3699 23.8634 80.2472C23.7437 80.4067 23.6241 80.6061 23.6241 81.284V81.7226C23.6639 81.8423 23.7038 81.9619 23.7437 82.0018L24.8606 81.7226C25.3791 81.5631 25.9376 81.5233 26.6556 81.5233ZM20.1937 21.2276L20.7521 21.4269L19.7549 20.8288L20.1937 21.2276Z" fill="#DF0634"/>
<path d="M66.1445 82.9585C65.6658 82.8389 65.267 82.7591 65.0276 82.7591C64.4293 82.8787 63.9905 82.9585 63.7512 82.9585C63.2726 82.9585 62.8737 82.799 62.6344 82.4799C62.1557 81.9216 61.8765 81.164 61.8765 80.2468C61.8765 79.8081 61.9563 79.4891 62.1557 79.2498C62.754 78.3326 63.1529 77.2958 63.2726 76.2191C63.3523 75.5411 63.5518 74.5043 63.9108 73.1485C64.1102 72.5503 64.19 71.8724 64.19 71.1944C64.19 70.9951 64.19 70.676 64.1501 70.2374C64.1102 69.7588 64.1102 69.3999 64.1102 69.0809C64.0304 68.8416 64.0304 68.403 64.0304 67.7649C64.1501 66.8477 64.2698 65.452 64.3894 63.6176C64.3894 62.7403 64.4692 61.3844 64.5889 59.55C64.908 53.8873 65.0675 48.7829 65.0675 44.197C65.0675 43.3994 65.0675 42.2031 65.0276 40.6877C64.9877 39.1324 64.9877 38.0159 64.9877 37.2582C64.9877 35.7029 64.908 34.2274 64.7085 32.7121C64.5091 31.3961 64.4293 30.1599 64.4293 28.9236V27.6077C64.4293 26.9297 64.4692 26.4512 64.5091 26.1322C64.5091 25.8131 64.4293 25.3745 64.3097 24.7364C63.9905 24.2978 63.5917 24.0984 63.113 24.0984C62.8737 24.0984 62.5147 24.0984 62.036 24.0585C61.5574 24.0186 61.1984 24.0186 60.9591 24.0186C59.2838 24.0186 57.8478 24.1383 56.6113 24.3775C56.2523 24.4972 55.8933 24.5769 55.6141 24.5769C55.1354 24.5769 54.7764 24.6168 54.6169 24.6567C53.5 24.7763 52.6623 24.8561 52.1039 24.8561H51.7449C49.4713 24.9757 48.155 25.4543 47.8758 26.3316C47.6763 26.9297 47.3173 27.3684 46.7589 27.6077C45.8415 27.9666 45.3628 28.7641 45.3628 29.9206C45.3628 30.1599 45.4027 30.3593 45.4426 30.4789V30.9574C45.3229 31.9943 44.6847 32.5127 43.6078 32.5127C43.169 32.5127 42.8499 32.4728 42.6903 32.3133C41.8926 31.9544 41.2544 31.2366 40.7358 30.1997C40.6162 29.8408 40.5364 29.6016 40.5364 29.5617C40.5364 27.2089 40.9353 25.3745 41.733 24.0186C41.8128 23.899 41.9325 23.6996 42.2117 23.4603C42.451 23.2211 42.6106 22.9818 42.6903 22.8223C42.9297 22.4634 43.169 22.1843 43.3285 21.9849C43.5679 21.626 43.8072 21.3468 43.9667 21.1474C44.6448 20.2302 45.5623 19.7517 46.7589 19.7517C47.3173 19.7517 48.155 19.7118 49.2719 19.5523H52.5028C53.3803 19.5523 54.5371 19.4725 56.0129 19.3529C56.332 19.313 56.7708 19.2732 57.2894 19.2732L58.6057 18.994H73.3243C74.0822 18.994 74.521 18.9541 74.7204 18.9142C76.5553 18.5952 78.2306 18.4357 79.7064 18.4357C81.9402 18.4357 83.5756 18.3958 84.6924 18.356C87.9633 18.356 90.4762 19.7118 92.2712 22.4235C92.9493 23.6597 93.3481 24.4573 93.4678 24.8162C94.106 26.6506 94.3852 27.8469 94.3852 28.4052C94.3852 29.0832 94.2257 29.6813 93.9066 30.2396C93.6672 30.8378 93.1487 31.1568 92.4307 31.1568C91.9919 31.1568 91.5532 30.9973 91.1543 30.6783C90.5959 30.12 90.1571 29.4421 89.8779 28.6445C89.7981 28.3255 89.6784 27.8868 89.3992 27.2488C89.12 26.6107 89.0003 26.1721 88.9206 25.853C88.4818 24.6168 87.7239 23.7395 86.6071 23.261C86.288 23.0616 85.6896 22.9818 84.7722 22.9818C84.3334 23.0616 83.6554 23.0616 82.7379 23.0616H81.9003C79.3076 23.0616 77.5126 23.1413 76.5553 23.3407C74.2817 23.6996 73.0451 24.3377 72.8457 25.1751C72.0878 29.0034 71.6092 32.1937 71.3698 34.7857C71.3698 35.5833 71.3299 36.0618 71.2901 36.2612C70.971 37.976 70.8114 39.6509 70.8114 41.246V58.4334C70.8114 60.9458 70.9311 62.8599 71.1704 64.1759C71.2901 64.7741 71.3698 65.3323 71.3698 65.7311V69.7987C71.3698 70.9552 71.3299 71.8325 71.2901 72.3908C71.2103 72.7098 71.2103 73.1485 71.2103 73.6669C71.2103 74.1853 71.2502 74.624 71.2901 74.8632V75.5013C71.2901 75.8203 71.2103 76.3786 71.0906 77.2559L71.1704 77.5351L71.3698 77.8142L72.2873 78.4522L73.0451 78.7314C73.4839 78.9707 73.6833 79.4093 73.6833 80.0075C73.6833 80.486 73.5238 80.8848 73.2047 81.1241C73.1648 81.1241 73.085 81.164 72.9654 81.2038C72.8457 81.2437 72.8058 81.3235 72.726 81.4032C72.6463 81.483 72.6064 81.483 72.5266 81.483C72.2873 81.6824 72.0479 81.7621 71.8884 81.7621L69.5749 82.0413C68.9367 82.121 68.2187 82.3204 67.3411 82.6793C67.1417 82.7192 66.9423 82.7591 66.7029 82.7591C66.4636 83.0382 66.2642 82.9984 66.1445 82.9585Z" fill="#DF0634"/>
<path d="M108.107 83.9549C107.069 83.9549 106.351 83.277 105.992 81.9211V81.1634C105.992 80.1266 106.192 79.4088 106.551 79.0499C106.91 78.4916 107.109 77.6542 107.109 76.5376V74.6234C107.109 73.7461 107.069 73.1479 107.03 72.789C106.95 71.8718 106.95 70.3963 106.95 68.3626V50.6966C106.95 47.7456 106.99 45.5523 107.03 44.1167C107.03 43.4388 107.069 42.9203 107.109 42.5614C107.109 42.5216 107.109 42.4019 107.149 42.2424C107.189 42.0829 107.189 41.9633 107.189 41.9234C107.189 41.8835 107.189 41.7639 107.149 41.6044C107.109 41.4448 107.109 41.3252 107.109 41.2056L106.83 36.7791C106.83 36.6595 106.75 36.0613 106.591 34.9846C106.431 33.9079 106.312 33.0704 106.272 32.4324L105.992 28.2851C105.953 28.1654 105.913 27.966 105.913 27.647C105.913 27.328 105.953 27.0887 105.992 26.8893C105.992 25.4936 105.673 24.4967 105.075 23.9384L104.237 22.9414C103.998 22.6224 103.878 22.1837 103.878 21.6254C103.878 21.426 103.918 21.2665 103.958 21.0671C104.078 20.8677 104.277 20.7082 104.517 20.5088C104.636 20.3892 105.833 19.9904 108.107 19.3125C108.545 19.3125 108.785 19.3524 108.864 19.3923C109.543 19.8309 110.38 20.0303 111.377 20.0303H112.016C112.454 20.0303 112.853 20.2297 113.252 20.6285C113.651 21.0273 113.85 21.5058 113.85 22.0641C113.771 22.2635 113.452 22.742 112.853 23.5396C112.654 23.8586 112.574 24.1776 112.574 24.5365C112.654 24.8954 112.654 25.374 112.654 25.9323V26.4906C112.654 26.5304 112.654 26.6899 112.614 26.8495C112.574 27.0488 112.574 27.2084 112.574 27.328C112.574 27.8863 112.654 28.325 112.853 28.7237C113.053 29.5213 113.132 30.7974 113.132 32.5122C113.132 35.5828 113.053 38.6135 112.853 41.5645V42.7608C112.853 43.7977 112.853 45.3529 112.893 47.3867C112.933 49.4205 112.933 50.9358 112.933 51.9328C112.933 53.169 113.013 54.9635 113.132 57.3562C113.252 59.709 113.332 61.5035 113.332 62.66C113.332 64.6938 113.292 66.2092 113.252 67.2061C113.172 68.0037 113.172 69.2 113.172 70.7154V74.0253C113.172 75.0621 113.332 75.8198 113.651 76.2584L114.409 78.372C114.728 79.5284 115.167 80.4456 115.685 81.0438C115.925 81.3628 116.044 81.6818 116.044 82.0407C116.044 82.3997 115.805 82.7984 115.286 83.2371C114.808 83.6758 114.369 83.8751 114.01 83.8751C113.93 83.8751 113.85 83.8751 113.771 83.915C113.691 83.9549 113.611 83.9549 113.531 83.9549C113.332 83.9549 113.053 83.8751 112.694 83.7555C112.335 83.5561 111.776 83.4764 111.018 83.4764C110.46 83.4764 110.021 83.5162 109.742 83.5561L108.107 83.9549Z" fill="#DF0634"/>
<path d="M113.492 85.9494C113.093 85.9494 112.615 85.8696 112.017 85.6702C111.777 85.5905 111.578 85.5107 110.979 85.5107C110.581 85.5107 110.301 85.5107 110.102 85.5506L108.147 85.9494C107.23 85.9494 104.956 85.5905 104.079 82.4401L103.999 81.164C103.999 79.6087 104.358 78.4922 105.036 77.7345C104.996 77.7345 105.116 77.3756 105.116 76.5381V74.624C105.116 73.9062 105.116 73.3878 105.036 73.0687C104.956 71.9522 104.916 70.3969 104.916 68.3233V50.6971C104.916 47.7063 104.956 45.4731 104.996 44.0375C104.996 43.3197 105.036 42.6816 105.116 42.2031L107.19 42.0436L105.196 41.7644C105.116 41.7246 105.076 41.4454 105.076 41.1663L104.797 36.8594C104.797 36.6202 104.717 36.1018 104.597 35.2244C104.438 34.1079 104.318 33.2305 104.278 32.5925L103.999 28.6047C103.919 28.3255 103.879 27.9666 103.879 27.5678C103.879 27.2089 103.919 26.8899 103.959 26.6108C103.919 25.6138 103.72 25.3745 103.68 25.3745L102.643 24.1383C102.084 23.4604 101.805 22.5831 101.805 21.5861C101.805 21.1873 101.885 20.7886 102.005 20.3898L102.244 19.9113C102.483 19.5523 102.842 19.1934 103.281 18.8744C103.441 18.675 103.6 18.5155 107.509 17.3591L108.068 17.2793C108.546 17.2793 109.304 17.2793 109.902 17.718C110.261 17.9173 110.74 18.037 111.299 18.037H111.937C112.615 18.037 113.612 18.2364 114.609 19.2333C115.367 19.991 115.806 20.9879 115.806 22.0647L115.686 22.7027C115.567 23.0616 115.327 23.4604 114.529 24.5371C114.569 24.9359 114.609 25.4144 114.609 25.9328L114.529 27.2089C114.529 27.6875 114.569 27.8071 114.569 27.847L114.729 28.2856C114.968 29.2427 115.048 30.5986 115.048 32.5127C115.048 35.6631 114.968 38.7337 114.769 41.6847V42.7614C114.769 43.7982 114.769 45.3136 114.809 47.3474C114.849 49.3811 114.849 50.9364 114.849 51.8935C114.849 53.0898 114.928 54.8843 115.008 57.1973C115.128 59.6298 115.208 61.4243 115.208 62.6207C115.208 64.6943 115.168 66.2496 115.128 67.2864C115.048 68.084 115.048 69.2006 115.048 70.6761V73.9859C115.048 74.8234 115.168 75.1025 115.168 75.1025L115.407 75.5412L116.165 77.6547C116.484 78.8511 116.843 79.4094 117.042 79.6486C117.641 80.4063 117.92 81.164 117.92 82.0014C117.92 82.9585 117.441 83.8757 116.484 84.7131C115.686 85.3911 114.928 85.7899 114.131 85.8298C113.931 85.9494 113.732 85.9494 113.492 85.9494ZM110.979 81.5229C111.977 81.5229 112.774 81.6425 113.373 81.9217L113.811 81.8818C113.253 81.2836 112.734 80.2069 112.376 78.8112L111.737 77.0566C111.299 76.2989 111.099 75.3019 111.099 73.9461V70.6362C111.099 69.0411 111.139 67.8048 111.219 66.9674C111.259 66.0502 111.299 64.5747 111.299 62.5808C111.299 61.4244 111.219 59.7096 111.099 57.3568C110.979 54.9242 110.9 53.0898 110.9 51.8536C110.9 50.8566 110.9 49.3811 110.86 47.3474C110.82 45.3136 110.82 43.7583 110.82 42.6816V41.4853C111.019 38.4944 111.099 35.5036 111.099 32.433C111.099 30.6783 111.019 29.7611 110.9 29.2427C110.66 28.6446 110.541 27.9666 110.541 27.2488C110.541 27.0494 110.541 26.7703 110.62 26.4513V25.8531C110.62 25.4144 110.62 25.0954 110.541 24.8163C110.501 23.7395 110.7 23.0616 111.059 22.4634C111.179 22.2641 111.299 22.1045 111.418 21.9849H111.299C110.142 21.9849 109.105 21.7456 108.187 21.307C107.27 21.5861 106.552 21.7855 106.033 21.9849L106.552 22.623C107.39 23.3408 107.908 24.8561 107.908 26.85V28.0863L108.187 32.2336C108.227 32.752 108.347 33.5894 108.506 34.6263C108.666 35.8625 108.746 36.5803 108.746 36.6999L109.105 41.8841C109.105 42.0835 109.065 42.3227 109.025 42.6019C108.945 43.1602 108.945 43.559 108.945 44.1173C108.865 45.5927 108.865 47.7461 108.865 50.6971V68.3631C108.865 70.3172 108.905 71.7528 108.945 72.67C108.985 72.9092 109.025 73.627 109.025 74.6639V76.6179C109.025 78.1333 108.746 79.3296 108.147 80.2069C108.028 80.3664 107.908 80.5658 107.908 81.2438V81.6824C107.948 81.8021 107.988 81.9217 108.028 81.9616L109.145 81.6824C109.703 81.5628 110.261 81.5229 110.979 81.5229ZM104.557 21.2272L105.116 21.4266L104.119 20.8284L104.557 21.2272Z" fill="#DF0634"/>
<path d="M132.718 83.517C131.123 83.198 129.407 82.9986 127.652 82.879H126.615C126.296 82.879 126.137 82.7992 126.057 82.5998C125.299 81.4832 124.94 80.566 124.94 79.8084C125.02 79.5691 125.139 79.4494 125.419 79.4494C125.538 79.4494 125.658 79.29 125.778 78.9709L125.977 78.2132L126.615 77.296C127.413 76.977 127.892 76.339 128.011 75.342L128.49 71.753C128.929 65.7314 129.128 60.7466 129.128 56.8784C129.128 55.8815 129.168 54.406 129.288 52.4121C129.368 50.4182 129.447 48.8629 129.447 47.7463C129.447 46.8292 129.487 45.4334 129.527 43.6389C129.607 41.8045 129.607 40.4885 129.607 39.6112C129.607 38.7339 129.607 37.378 129.567 35.5436C129.527 33.7092 129.527 32.3135 129.527 31.3963C129.527 28.2459 129.607 25.8134 129.806 24.0986C129.806 23.66 129.527 23.2612 128.969 22.9023C128.889 22.9023 128.809 22.8624 128.729 22.8225C128.65 22.7428 128.57 22.7029 128.49 22.6231C128.41 22.5833 128.37 22.5434 128.291 22.5434L127.652 22.2642C127.293 21.9053 127.094 21.4667 127.094 20.9881C127.094 20.5495 127.253 20.1906 127.573 19.8715C128.33 19.1138 129.048 18.7151 129.806 18.6752C131.043 18.6752 131.96 18.6353 132.598 18.5954C133.197 18.5157 134.154 18.5157 135.391 18.5157H135.75C136.507 18.7549 137.305 18.8746 138.263 18.8746C139.02 18.8746 139.938 18.7948 141.055 18.5954C141.533 18.5954 141.813 18.9145 141.813 19.5924C141.813 19.9513 141.733 20.3102 141.533 20.5893L140.696 21.347L139.778 21.9053C139.22 22.2642 138.901 22.5035 138.861 22.5434C138.661 22.663 138.582 22.8624 138.582 23.1814C138.582 23.3808 138.622 23.5005 138.661 23.5403C138.781 23.8594 139.02 24.2581 139.419 24.7367C139.978 25.4146 140.855 26.4514 142.092 27.8073L144.764 30.9577C144.804 31.0374 145.203 31.4362 145.881 32.2338C146.559 33.0313 147.038 33.6694 147.357 34.0682L148.913 36.3412C149.671 37.4578 150.229 38.2952 150.668 38.8535L152.064 40.8075C152.542 41.4456 153.061 42.0438 153.619 42.642L154.896 44.3168C156.491 46.231 158.486 48.7832 160.799 51.9734C161.717 53.2096 162.674 54.5256 163.671 55.9612C163.99 56.5195 164.469 57.2772 165.107 58.2343C165.745 59.1914 166.144 59.7497 166.264 59.949C167.022 61.0656 167.54 61.9031 167.82 62.4614C168.498 63.897 169.136 64.5749 169.654 64.5749L169.934 63.8172C169.934 63.578 169.894 63.4184 169.854 63.3387C169.535 62.3019 169.375 61.3448 169.375 60.5472C169.375 59.8693 169.495 58.8723 169.734 57.5165C169.974 56.4797 170.093 55.2833 170.093 54.0072C170.093 53.4489 170.013 52.6115 169.894 51.4949V50.4979C169.694 49.1421 169.615 47.8261 169.615 46.5101C169.615 46.2709 169.615 45.8721 169.654 45.3537C169.694 44.8352 169.694 44.4365 169.694 44.1972C169.734 44.0776 169.774 43.8782 169.774 43.5591C169.694 43.4395 169.694 43.28 169.694 43.0806C169.575 41.2462 169.455 39.8505 169.335 38.9333C169.335 38.8934 169.335 38.8136 169.295 38.694C169.256 38.5744 169.256 38.5345 169.256 38.4547C168.817 34.9853 168.617 32.2338 168.617 30.1202C168.617 29.0036 168.777 27.7674 169.096 26.4115C169.216 25.5342 169.295 24.8962 169.295 24.4575V23.8195C169.216 23.2612 168.976 22.9023 168.458 22.7029L167.54 22.1446L166.902 21.2274C166.822 21.1078 166.822 20.9084 166.822 20.6691C166.822 19.9912 167.142 19.5924 167.74 19.4728C169.535 19.0341 170.692 18.6752 171.25 18.3562C171.489 18.1169 171.968 17.9973 172.646 17.9973L174.042 17.7979C174.401 17.7979 174.8 17.7181 175.239 17.5187C175.598 17.3991 175.837 17.3193 175.957 17.3193C176.555 17.5586 177.034 17.7181 177.353 17.7979C177.592 17.8776 177.991 18.1169 178.549 18.5556L178.629 18.6353C178.669 18.7151 178.749 18.755 178.829 18.8347C179.068 19.1537 179.188 19.5525 179.188 20.031C179.188 20.5096 178.988 21.028 178.629 21.5065C178.31 21.9851 178.151 22.4636 178.151 22.9023V25.5741C178.151 27.4085 178.151 29.4024 178.111 31.5558C178.071 33.7092 178.031 36.0222 177.991 38.5744C177.911 41.1266 177.911 43.1604 177.911 44.6359C177.792 45.6328 177.712 46.3506 177.712 46.869C177.592 48.9826 177.512 50.2587 177.512 50.7372C177.433 51.0562 177.433 51.4949 177.433 52.1329C177.353 53.4489 177.353 55.3232 177.353 57.7557C177.353 58.3938 177.353 59.311 177.313 60.5472C177.273 61.7834 177.273 62.7006 177.273 63.3387V72.6702C177.273 73.4279 177.552 74.0659 178.111 74.6242C178.47 74.8635 178.869 75.5015 179.228 76.5782C179.347 76.9371 179.427 77.2163 179.427 77.4157C179.427 78.293 178.829 79.1304 177.672 79.928C176.794 80.5262 175.558 80.8452 173.962 80.8452L171.848 81.0446C171.649 81.1243 171.37 81.1243 170.931 81.1243C170.731 81.1243 170.452 81.0446 170.093 80.9249C169.734 80.8053 169.495 80.7255 169.335 80.7255C168.657 80.4065 168.179 79.8482 167.939 78.9709C167.859 78.7317 167.859 78.3728 167.859 77.974C167.859 76.9371 168.179 75.9003 168.777 74.9033C169.016 74.5444 169.535 74.3052 170.253 74.1457C170.452 74.1457 170.532 73.9463 170.532 73.5874C170.532 73.388 170.492 73.2683 170.452 73.2285C169.974 72.7499 169.176 71.6732 168.059 69.9983L164.629 64.2559C161.717 59.5901 159.523 56.2005 157.967 54.1667C154.696 49.7801 152.742 47.1881 152.064 46.3905L149.072 43.1205C148.075 42.0837 147.197 41.0069 146.4 39.8904L141.573 33.9884C140.815 33.0712 140.018 32.3135 139.18 31.6755C139.1 31.5957 138.981 31.5957 138.821 31.5957C138.502 31.5957 138.342 31.7552 138.342 32.0742C138.263 32.5528 138.263 33.2706 138.263 34.1878C138.263 34.6264 138.263 35.3044 138.302 36.2216C138.342 37.1388 138.342 37.8964 138.342 38.4547C138.422 38.8136 138.422 39.3321 138.422 39.9302V40.4885C138.342 40.8076 138.342 41.2861 138.342 41.964V42.5223C138.342 44.3567 138.263 45.7126 138.063 46.5899L137.704 48.6237C137.505 49.501 137.425 50.2587 137.425 50.9366L136.866 58.2343C136.667 61.3847 136.587 62.9798 136.587 63.0595V65.6516C136.507 66.2099 136.507 67.0872 136.507 68.2437C136.507 70.4769 136.388 72.5107 136.148 74.4248C136.069 74.5046 136.069 74.6242 136.069 74.7837C136.069 75.3819 136.388 75.7807 137.066 75.9003C137.385 75.98 137.824 75.98 138.342 75.98C139.34 76.0997 139.978 76.2991 140.297 76.6181L140.656 77.1764C140.975 77.6549 141.134 78.3329 141.134 79.1304V79.7685C141.134 80.0875 141.015 80.247 140.775 80.3268L138.741 82.5599C138.422 82.879 137.983 83.0385 137.465 83.1183C136.547 83.5569 135.51 83.7563 134.433 83.7563C134.034 83.6765 133.476 83.6367 132.718 83.517Z" fill="#DF0634"/>
<path d="M239.339 83.5965L238.501 83.3972C238.302 83.3972 238.103 83.3174 237.863 83.1978C236.946 82.6395 235.749 82.3603 234.273 82.3603C233.835 82.3603 233.515 82.3204 233.276 82.2806H231.521C231.282 82.2806 231.042 82.3603 230.763 82.48C230.085 82.6794 229.247 82.799 228.25 82.9585C226.695 82.9984 224.461 83.0383 221.509 83.0383H218.717C216.603 82.9984 213.452 82.9585 209.184 82.9585C208.865 82.9585 208.027 82.8787 206.671 82.7591L201.964 82.4002C201.844 82.4002 201.725 82.4002 201.605 82.3603C201.485 82.3205 201.366 82.3204 201.246 82.3204C200.767 82.3204 200.368 82.4002 200.129 82.5996C199.89 82.7192 199.571 82.799 199.212 82.799C198.733 82.799 198.215 82.7192 197.736 82.5199C195.821 81.6027 194.704 80.5259 194.425 79.3695C194.186 77.7744 194.066 76.578 194.066 75.7804L194.345 68.7619C194.345 68.084 194.425 67.3662 194.625 66.6483C194.944 63.9765 195.103 62.3814 195.103 61.7433C195.103 60.9857 195.063 60.4672 195.023 60.0685V56.8383C195.023 56.28 194.944 55.6819 194.744 55.0039C194.664 54.8046 194.664 54.5653 194.664 54.2463C194.664 54.2064 194.704 53.9671 194.864 53.6082C195.422 52.6113 195.702 51.6941 195.702 50.8167C195.622 50.0192 195.622 48.783 195.622 47.1081C195.303 42.9209 195.143 40.2092 195.143 38.9729C195.143 38.5343 195.183 37.7766 195.343 36.66V34.4268C195.582 31.2366 195.702 27.6874 195.702 23.7794V22.5033C195.702 21.5063 195.941 20.8284 196.459 20.3897C196.779 20.0707 197.177 19.8713 197.656 19.7517C199.252 19.6719 201.525 19.4725 204.517 19.1136C205.873 18.994 206.87 18.9142 207.588 18.9142C208.187 18.9142 209.144 18.994 210.38 19.1136C211.058 19.2333 212.056 19.313 213.332 19.313C214.609 19.313 215.566 19.2333 216.204 19.1136C217.082 18.994 217.72 18.9142 218.159 18.9142H219.993C220.991 18.9142 221.828 18.7149 222.506 18.356H236.467C236.946 18.356 237.624 18.4756 238.501 18.7149C239.299 19.1934 240.336 19.6719 241.533 20.1106C242.45 20.5891 242.969 21.3867 243.009 22.4235C243.128 23.1812 243.208 23.6996 243.208 23.9788C243.208 24.3377 243.168 25.1352 243.009 26.3715C243.009 26.85 242.769 27.5279 242.251 28.4052C242.051 28.7641 241.772 28.9635 241.334 28.9635C240.456 28.9635 239.778 28.485 239.299 27.5678L239.02 26.9297C238.781 25.8132 237.983 25.2549 236.627 25.2549C236.068 25.2549 235.669 25.215 235.43 25.1751H235.071C234.712 25.1751 234.393 25.215 234.154 25.2549C233.715 25.2549 232.837 25.3346 231.481 25.4543H226.495C225.697 25.534 224.501 25.534 222.985 25.534C221.429 25.534 220.312 25.4941 219.555 25.4543C218.438 25.4144 216.802 25.3745 214.648 25.3745H209.303C208.984 25.4543 208.745 25.534 208.506 25.6536C208.266 25.7733 208.107 25.9727 207.987 26.2119C207.867 26.4512 207.788 26.6506 207.708 26.8101C207.628 26.9696 207.588 27.2089 207.469 27.488C207.349 27.7672 207.309 27.9666 207.309 28.0463L206.95 29.5218C206.83 29.7212 206.671 29.801 206.471 29.801C206.352 29.801 206.232 29.7611 206.112 29.6016C205.873 29.3623 205.634 29.2427 205.474 29.2427C205.275 29.2427 205.115 29.3224 204.916 29.5218C204.796 29.6415 204.637 29.7212 204.437 29.801C204.397 30.9176 204.357 32.5924 204.357 34.7857V39.6907C204.357 41.2859 204.397 42.4822 204.437 43.2V46.7093C204.437 47.2676 204.477 47.6664 204.517 47.9056V49.3014C204.716 50.2983 205.275 50.8167 206.272 50.8566L216.084 51.4947C216.324 51.4947 216.723 51.4947 217.241 51.5346C217.76 51.5744 218.159 51.5744 218.398 51.5744C219.754 51.5744 221.03 51.4947 222.267 51.2953C223.264 51.1756 224.022 50.8566 224.581 50.3781C224.82 50.1388 225.099 50.0192 225.418 50.0192C225.657 50.0192 225.857 50.0591 225.977 50.0989L226.734 50.2983C227.054 50.418 227.373 50.6971 227.692 51.0959C228.011 51.4947 228.21 51.8536 228.21 52.1726C228.21 52.2524 228.25 52.3321 228.29 52.4119C228.37 52.4916 228.37 52.5714 228.37 52.6511C228.37 52.7708 228.45 52.8904 228.569 53.01C229.008 54.2861 229.247 55.323 229.287 56.0408L229.567 58.5531C229.567 59.1911 229.208 59.9488 228.45 60.866C228.45 60.9458 228.37 61.0255 228.25 61.1452C228.051 61.5838 227.772 61.7832 227.333 61.7832C227.133 61.7832 226.934 61.7434 226.695 61.5838C225.538 61.0255 224.78 60.4274 224.461 59.7494C224.261 59.2709 223.543 58.9519 222.227 58.8322H221.11L218.717 58.6329C218.238 58.6329 217.441 58.5531 216.324 58.4335C215.885 58.3936 215.287 58.3537 214.489 58.3537C212.694 58.3537 211.178 58.593 209.862 59.1114C209.623 59.231 208.585 59.5102 206.711 59.9488C206.471 60.0685 206.272 60.1482 206.152 60.1482C205.594 60.2679 205.155 60.5071 204.836 60.9059C204.597 61.1452 204.477 61.3844 204.477 61.6636C204.557 61.7433 204.557 61.863 204.557 62.0225V62.3814C204.557 62.501 204.597 62.5808 204.637 62.6605C204.836 63.4182 204.916 64.1759 204.916 64.9735V65.7312C204.676 67.0471 204.517 68.084 204.437 68.8815C204.317 69.3601 204.198 69.7588 204.078 70.0779L203.52 71.2742C203.32 71.8325 203.24 72.3908 203.24 72.9491C203.24 73.7068 203.44 74.4246 203.799 75.1823C203.879 75.5412 204.118 75.7406 204.637 75.7406C210.42 76.4185 215.207 76.7375 218.956 76.7375H220.352C223.384 76.6179 225.658 76.4185 227.213 76.1792C228.091 76.0596 229.247 75.94 230.723 75.8203C232.199 75.7007 233.316 75.5811 234.034 75.4614C234.114 75.4614 234.194 75.4614 234.313 75.4215C234.433 75.3817 234.513 75.3817 234.592 75.3817C234.672 75.3817 234.752 75.3817 234.832 75.4215C234.912 75.4614 234.991 75.4614 235.071 75.4614C235.271 75.5412 235.55 75.5412 235.909 75.5412C236.108 75.5412 236.228 75.5013 236.268 75.4614C236.587 75.3418 236.746 75.1823 236.746 74.9829C237.065 74.1853 237.783 73.5473 238.86 73.1485L238.94 73.0687C239.02 73.0687 239.06 73.0687 239.14 73.0687C239.18 72.989 239.299 72.989 239.419 72.989C239.778 72.989 240.017 73.1884 240.057 73.5473C240.416 74.1853 240.815 74.6639 241.174 75.0228C241.533 75.4614 241.732 76.0197 241.732 76.7774C241.732 78.5719 241.613 80.0873 241.373 81.4033C241.294 82.0413 240.935 82.6794 240.257 83.3573C239.937 83.4769 239.658 83.5965 239.339 83.5965Z" fill="#DF0634"/>
</svg>
