<svg width="23" height="18" viewBox="0 0 23 18" fill="none" xmlns="http://www.w3.org/2000/svg">
<path d="M17.6954 11.5321C17.5154 9.62212 17.3954 7.71212 17.2554 5.80212C17.0854 3.37212 16.3954 1.25212 13.7754 0.732118C10.8754 0.152118 6.73538 0.302118 3.87538 1.13212C1.52538 1.81212 0.515375 4.01212 0.905375 6.28212C1.02538 6.97212 1.48538 7.13212 1.99538 6.99212C0.965375 9.75212 0.525375 12.9121 1.61538 15.3121C2.69538 17.6921 5.88538 17.3721 8.02538 17.2921C10.6754 17.2021 15.3854 16.8521 17.0754 14.5021C17.7254 13.6121 17.7954 12.5921 17.6954 11.5321ZM5.22538 12.1421C5.28538 12.1321 5.34538 12.1021 5.39538 12.0821C5.53538 12.2021 5.68538 12.3221 5.87538 12.4121C5.97538 12.4621 6.08538 12.4721 6.18538 12.5021C6.23538 12.7621 6.33538 13.0021 6.46538 13.2121C5.91538 12.9921 5.49538 12.6321 5.22538 12.1421Z" fill="#ACE26D"/>
<path d="M6.72563 9.25224C6.83563 10.1122 6.77563 10.9722 6.91563 11.8322C7.04563 12.6222 7.24563 13.5222 7.91563 14.0322C8.16563 14.2222 8.49563 14.0322 8.68563 13.8422C12.0856 10.4122 15.8556 7.37224 19.6156 4.35224C20.1456 3.93224 20.6756 3.51224 21.1956 3.08224C21.7456 2.63224 22.3756 2.20224 22.7956 1.61224C23.0256 1.28224 22.8756 0.93224 22.4656 1.09224C21.9056 1.30224 21.4256 1.75224 20.9656 2.12224C20.4956 2.49224 20.0256 2.86224 19.5656 3.24224C18.6156 4.01224 17.6556 4.77224 16.7156 5.55224C14.8056 7.12224 12.9256 8.74224 11.1056 10.4122C10.0956 11.3422 9.09562 12.2922 8.13563 13.2722C8.39562 13.2122 8.64563 13.1422 8.90563 13.0822C8.30563 12.6322 8.11563 11.8222 7.99563 11.1222C7.86563 10.3422 7.76562 9.54224 7.58562 8.77224C7.45562 8.35224 6.68563 8.94224 6.72563 9.25224Z" fill="#2063AC"/>
</svg>
