<svg width="78" height="95" viewBox="0 0 78 95" fill="none" xmlns="http://www.w3.org/2000/svg">
<path d="M73.4145 76.654L7.6294e-06 80.3169L1.46509e-05 6.18456e-05L78 0.000480652L73.4145 76.654Z" fill="#FFD62B"/>
<path d="M45.0846 11.9912C37.5304 6.20281 26.4394 5.38664 18.8002 11.6444C12.3112 16.4339 8.65241 25.2067 11.0878 33.0998C13.5523 41.056 21.035 47.0391 29.3475 47.6433C31.9092 47.828 34.4785 47.5327 36.9525 46.8474C38.2488 49.2259 39.53 51.6454 41.0727 53.8759C39.8001 56.5325 41.7138 60.4293 42.6089 62.9339C44.5786 68.4045 47.514 73.4795 50.0687 78.688C51.2964 81.0471 52.8455 84.8914 55.8272 85.4689C58.1286 85.9187 62.6754 83.9936 63.9718 82.0322C65.8148 79.2477 64.1491 75.1511 62.9016 72.5288C60.3749 67.1967 57.6069 61.7295 54.5567 56.6822C53.0035 54.1163 51.4558 50.5692 48.1399 50.1889C46.8227 47.9307 45.8424 45.4996 44.564 43.2149C47.4143 41.1727 49.8196 38.5366 51.4547 35.4314C56.038 26.7074 52.5779 17.7397 45.0846 11.9912ZM53.1796 58.9107C56.0487 64.0078 59.2335 69.4012 61.3979 74.8328C62.2295 76.9243 62.887 78.6028 61.5922 80.5124C60.7094 81.8228 59.2867 82.5917 57.7163 82.8759C57.6607 82.8846 57.609 82.883 57.5464 82.8949C57.7113 82.6995 57.8696 82.4901 58.048 82.3054C58.3691 81.9696 58.4744 81.4614 58.1542 81.082C57.8739 80.7522 57.2589 80.6368 56.9307 80.9759C56.442 81.4828 55.9905 82.0151 55.5693 82.5759C55.2325 82.3999 54.9286 82.1661 54.6538 81.8848C55.2934 80.6188 55.9869 79.3958 56.7522 78.1993C57.3543 77.257 55.9299 76.2567 55.3241 77.2093C54.6783 78.2229 54.0833 79.2726 53.5223 80.3405C53.3154 79.9853 53.1192 79.6165 52.9339 79.2343C53.6549 78.0157 54.376 76.797 55.104 75.5752C55.6722 74.6145 54.2478 73.6143 53.6759 74.5852C53.1223 75.5221 52.5687 76.459 52.0151 77.3959C51.8362 77.0277 51.6471 76.6557 51.4612 76.2907C52.0036 74.925 52.6377 73.6104 53.3981 72.3481C53.9695 71.3945 52.5521 70.3909 51.9699 71.3581C51.4023 72.3015 50.8925 73.2777 50.4339 74.2728C50.1237 73.676 49.8205 73.0759 49.5136 72.4861C50.1559 71.2444 50.8797 70.05 51.6779 68.9063C52.3173 67.9893 50.8929 66.989 50.2498 67.9163C49.6427 68.7929 49.0934 69.7023 48.5711 70.6332C48.4014 70.3033 48.2355 69.9631 48.0728 69.6299C48.7611 68.469 49.4563 67.3049 50.1445 66.144C50.7158 65.1904 49.2915 64.1901 48.7163 65.154C48.1994 66.0229 47.6824 66.8918 47.1617 67.771C47.006 67.4346 46.8503 67.0981 46.6947 66.7617C46.7453 66.6872 46.7959 66.6127 46.8266 66.5135C47.3515 64.9261 48.0431 63.4232 48.9361 62.006C49.5279 61.0599 48.1068 60.0666 47.5079 61.016C46.8072 62.1315 46.2016 63.3053 45.7087 64.5204C45.5281 64.0934 45.3615 63.6599 45.1912 63.2367C45.9066 61.7484 46.7915 60.3689 47.8356 59.0944C48.5424 58.2312 47.1143 57.2412 46.4074 58.1044C45.6397 59.0382 44.9702 60.0373 44.372 61.0799C44.2184 60.6745 44.0654 60.2517 43.9226 59.8328C44.5569 58.7394 45.2792 57.7074 46.0965 56.7336C46.8168 55.8812 45.3887 54.8912 44.6684 55.7435C44.1916 56.3131 43.7487 56.9009 43.3297 57.5032C43.1097 55.8691 43.4361 54.331 45.1444 53.2598C49.052 50.7624 51.6516 56.1969 53.1796 58.9107ZM45.6368 50.4621C44.5595 50.7819 43.4855 51.3298 42.6108 52.0324C41.3447 50.142 40.2623 48.1155 39.1757 46.1166C40.3608 45.6618 41.5043 45.0987 42.6051 44.4617C43.6858 46.4294 44.5664 48.4981 45.6368 50.4621ZM41.2134 42.6124C32.8337 47.3066 22.0943 45.8342 16.1751 37.9704C10.1932 30.0078 12.4412 19.2159 20.2911 13.4137C28.313 6.84278 39.7621 9.29725 46.4977 16.3324C54.7807 24.9831 51.0588 37.0953 41.2134 42.6124Z" fill="#1B5697"/>
<path d="M24.1185 13.2252C16.5188 17.3798 11.8501 28.2367 17.0092 35.9842C21.9366 43.3965 32.6316 44.6257 40.2069 40.9333C48.6135 36.8308 51.6281 28.4497 46.425 20.331C41.7269 12.9914 32.1034 9.24114 24.1185 13.2252ZM47.3329 30.5137C46.5877 34.6962 43.1002 37.5864 39.4772 39.3564C33.0136 42.5088 23.9287 41.8536 19.1484 35.973C13.6218 29.1783 17.7719 18.672 24.8481 14.8022C31.3559 11.5612 38.984 13.9967 43.5983 19.4265C46.0709 22.3244 48.0281 26.6095 47.3329 30.5137Z" fill="#1B5697"/>
<path d="M20.8795 21.1401C18.1169 24.6223 17.5481 29.2594 19.0235 33.3675C19.5548 34.5343 20.5645 36.2199 22.1042 35.9245C23.2998 35.6946 23.777 34.4272 23.6535 33.3696C23.5425 32.3572 22.9796 31.4349 22.8238 30.4178C22.6007 28.9978 22.8356 27.5191 23.2431 26.1563C23.735 24.5161 25.1878 23.095 25.5369 21.4954C25.741 20.5756 25.2339 19.4061 24.314 19.0915C22.9462 18.6181 21.6197 20.202 20.8795 21.1401ZM22.5241 23.3149C21.737 24.8875 21.1799 26.6259 21.0435 28.3909C20.9684 29.3872 21.0233 30.4254 21.2357 31.3994C21.3061 31.6987 21.4693 32.0146 21.5014 32.3231C21.5956 33.207 21.5788 34.789 20.5934 32.6411C19.5642 29.7731 19.7436 26.7033 21.1325 23.9673C21.3533 23.5248 23.2387 20.4825 23.6134 21.4579C23.681 21.6223 22.6673 23.0359 22.5241 23.3149Z" fill="#1B5697"/>
<path d="M26.2265 16.1812C26.2157 16.1947 26.2119 16.205 26.1979 16.2114C26.1553 16.2482 26.109 16.2951 26.0729 16.3459C25.1194 17.5955 25.5808 19.4753 27.0156 20.1303C28.5152 20.815 30.1524 19.8107 30.4113 18.2187C30.5647 17.2628 30.0018 16.3405 29.2407 15.7991C28.2562 15.1059 27.0434 15.3352 26.2265 16.1812ZM28.633 18.1822C28.5253 18.4277 28.3297 18.6118 28.0563 18.6277C27.3643 18.6586 27.1564 17.8783 27.4785 17.3974C27.7204 17.1663 27.9172 17.0582 28.1725 17.1869C28.404 17.301 28.6265 17.598 28.7055 17.8423C28.7082 17.8665 28.7179 17.8876 28.7141 17.8978C28.705 17.9701 28.6663 18.1072 28.633 18.1822ZM28.7033 17.8007C28.6876 17.7484 28.687 17.7657 28.7033 17.8007V17.8007Z" fill="#1B5697"/>
</svg>
