<svg width="88" height="81" viewBox="0 0 88 81" fill="none" xmlns="http://www.w3.org/2000/svg">
<g style="mix-blend-mode:multiply" opacity="0.15">
<path d="M65.6227 56.8788C65.6214 56.8562 65.6289 56.8247 65.6172 56.8129C65.6051 56.8007 65.5737 56.8076 65.5508 56.8059C65.5528 56.8278 65.5473 56.8569 65.5594 56.8691C65.5715 56.8812 65.6008 56.876 65.6227 56.8788ZM74.0016 62.8741C74.0239 62.8765 74.0454 62.879 74.0665 62.8812C74.0642 62.8597 74.0691 62.8314 74.0573 62.8189C74.0464 62.8077 74.0176 62.814 73.9965 62.8125C73.9983 62.8329 74.0002 62.8533 74.0016 62.8741ZM76.3402 63.8702C76.2759 63.8448 76.2525 63.8663 76.2775 63.9324C76.2804 63.9402 76.3192 63.9342 76.3416 63.9347C76.3411 63.9128 76.3407 63.8915 76.3402 63.8702ZM34.9102 17.1078C34.9097 17.0865 34.9178 17.0575 34.9069 17.0464C34.896 17.0353 34.8668 17.0412 34.8454 17.0401C34.8465 17.0606 34.8409 17.0883 34.8518 17.1001C34.8616 17.111 34.8894 17.106 34.9102 17.1078ZM76.2141 62.724C76.198 62.7295 76.1714 62.7307 76.1682 62.7409C76.1611 62.7599 76.1618 62.8002 76.1689 62.8022C76.2276 62.8223 76.2572 62.8038 76.2465 62.7578C76.2435 62.7452 76.225 62.7351 76.2141 62.724ZM52.4416 42.696C52.4402 42.6759 52.4449 42.6428 52.4361 42.6381C52.3733 42.6051 52.3517 42.6269 52.3834 42.6898C52.3883 42.6992 52.4223 42.694 52.4416 42.696ZM69.0902 54.6713L69.0339 54.6822L69.0742 54.7267L69.0902 54.6713ZM53.6201 40.5294C53.6196 40.5074 53.6269 40.4778 53.616 40.4666C53.6047 40.4552 53.5748 40.4619 53.553 40.4605C53.5553 40.4812 53.5496 40.5089 53.561 40.5204C53.5719 40.5315 53.6001 40.5268 53.6201 40.5294ZM53.9066 40.6052C53.9285 40.6072 53.9511 40.6093 53.9729 40.6114C53.9706 40.5892 53.9757 40.5604 53.9635 40.5476C53.9522 40.5361 53.9224 40.5428 53.901 40.5418C53.9028 40.5622 53.9051 40.5836 53.9066 40.6052ZM54.9163 40.9269L54.8587 40.9394L54.8997 40.9838L54.9163 40.9269ZM40.9915 29.3241L41.0161 29.3858L41.0539 29.3486L40.9915 29.3241ZM70.4974 53.7961L70.4754 53.7345L70.4362 53.7718L70.4974 53.7961ZM68.1925 50.9643C68.1718 50.9625 68.1351 50.9547 68.1326 50.9601C68.1078 51.0236 68.1317 51.0483 68.1957 51.0249C68.201 51.0226 68.194 50.9851 68.1925 50.9643ZM41.9654 28.7181L42.0239 28.7037L41.981 28.6583L41.9654 28.7181ZM41.5771 26.9179L41.6312 26.9039L41.5926 26.8621L41.5771 26.9179ZM46.4422 30.7436C46.4411 30.7232 46.4481 30.6954 46.4376 30.6838C46.4266 30.672 46.3984 30.6774 46.378 30.6752C46.3798 30.6949 46.3759 30.7205 46.3868 30.7317C46.3966 30.7433 46.4228 30.7402 46.4422 30.7436ZM34.2716 18.2948C34.295 18.2974 34.3168 18.2995 34.3383 18.302C34.3356 18.2802 34.3405 18.2519 34.3287 18.2394C34.3178 18.2282 34.289 18.2345 34.2679 18.233C34.2694 18.2538 34.2705 18.2743 34.2716 18.2948ZM24.3301 9.55525L24.3885 9.54269L24.3493 9.4992L24.3301 9.55525ZM24.8577 9.74494L24.8387 9.6879L24.8 9.72366L24.8577 9.74494ZM25.8096 10.1229L25.7854 10.0616L25.745 10.1026L25.8096 10.1229ZM15.6756 37.7811L15.6162 37.7941L15.6577 37.8396L15.6756 37.7811ZM19.6201 39.6089L19.5655 39.6226L19.6022 39.6634L19.6201 39.6089ZM50.1408 52.9728L50.1317 52.9167L50.0864 52.9564L50.1408 52.9728ZM63.1301 58.3605C63.127 58.3384 63.1308 58.3032 63.1201 58.2983C63.0533 58.2653 63.0301 58.2891 63.0628 58.3555C63.0677 58.365 63.1039 58.3588 63.1301 58.3605ZM64.0669 58.734C64.0664 58.7127 64.0742 58.6841 64.0633 58.673C64.0527 58.6614 64.0235 58.6681 64.0025 58.6667C64.0039 58.6867 63.999 58.7136 64.0096 58.7251C64.0197 58.7363 64.0468 58.7314 64.0669 58.734ZM62.2888 56.7619C62.2692 56.7611 62.2345 56.7543 62.2321 56.7604C62.2058 56.8233 62.2287 56.8459 62.2914 56.8201C62.2978 56.818 62.2898 56.7824 62.2888 56.7619ZM63.1842 55.932L63.2399 55.9138L63.2029 55.8742L63.1842 55.932ZM52.7831 40.1551C52.7305 40.1213 52.6819 40.0577 52.6117 40.1183C52.6004 40.1278 52.604 40.1766 52.6176 40.1886C52.6667 40.2331 52.7226 40.2798 52.7924 40.2263C52.8017 40.2192 52.7872 40.1801 52.7831 40.1551ZM53.2575 40.4197C53.2567 40.3933 53.2651 40.3518 53.2522 40.3431C53.2108 40.3152 53.1613 40.3002 53.1151 40.2797C53.1183 40.3161 53.1082 40.371 53.1278 40.3854C53.1612 40.4099 53.2133 40.4097 53.2575 40.4197ZM38.6259 31.7189C38.5852 31.7353 38.5321 31.7415 38.5069 31.771C38.4796 31.8028 38.4785 31.8565 38.4663 31.9009C38.5082 31.8846 38.5624 31.8787 38.588 31.8489C38.6149 31.8175 38.6145 31.7632 38.6259 31.7189ZM33.4956 15.5112C33.4896 15.4732 33.4957 15.4223 33.4732 15.4001C33.4442 15.3718 33.3927 15.3665 33.351 15.3512C33.3579 15.3873 33.353 15.4351 33.3743 15.4563C33.4045 15.4855 33.4544 15.4943 33.4956 15.5112ZM68.5999 59.5878C68.5949 59.5479 68.6043 59.4931 68.5818 59.4716C68.5509 59.4424 68.4962 59.4385 68.4512 59.4238C68.4571 59.4611 68.451 59.5119 68.4723 59.5324C68.5037 59.5626 68.5557 59.5705 68.5999 59.5878ZM65.2551 56.7663C65.2529 56.7415 65.2608 56.703 65.2482 56.6938C65.2099 56.6671 65.163 56.6522 65.1198 56.633C65.1245 56.6685 65.1162 56.7196 65.1367 56.7353C65.1656 56.7588 65.2154 56.7573 65.2551 56.7663ZM69.0924 59.7671C69.0758 59.7249 69.0697 59.6692 69.0392 59.6437C69.0058 59.6158 68.9493 59.6157 68.9027 59.6038C68.9205 59.647 68.9266 59.7033 68.9588 59.7302C68.9899 59.7582 69.0467 59.7565 69.0924 59.7671ZM69.5496 59.937C69.548 59.9114 69.5562 59.8718 69.5429 59.862C69.5033 59.8336 69.4552 59.8177 69.41 59.7967C69.4144 59.8334 69.4066 59.8855 69.4264 59.9021C69.458 59.9272 69.5094 59.927 69.5496 59.937ZM23.3606 9.74494C23.3579 9.71912 23.3651 9.67993 23.3518 9.67084C23.3131 9.64456 23.2652 9.63011 23.2212 9.6109C23.2252 9.64726 23.2165 9.70127 23.2366 9.71746C23.267 9.74082 23.3177 9.73739 23.3606 9.74494ZM63.4504 58.5023C63.4959 58.5147 63.5418 58.5268 63.5872 58.5385C63.5698 58.4957 63.5634 58.4404 63.5327 58.4134C63.5021 58.3864 63.4464 58.3877 63.4013 58.3763C63.4176 58.4189 63.4341 58.4604 63.4504 58.5023ZM25.4605 10.0164C25.4356 9.97127 25.4217 9.91927 25.3876 9.89478C25.3625 9.87647 25.3112 9.89426 25.2717 9.89559C25.2954 9.93496 25.3113 9.9853 25.3455 10.0112C25.3699 10.0296 25.419 10.0161 25.4605 10.0164ZM62.2769 55.7773C62.3201 55.7562 62.366 55.7392 62.404 55.7124C62.417 55.7024 62.4105 55.6666 62.4131 55.6425C62.3749 55.6456 62.3199 55.6339 62.3026 55.6546C62.2787 55.6824 62.2841 55.7348 62.2769 55.7773ZM76.7946 64.1282C76.7899 64.0878 76.7994 64.033 76.7772 64.0111C76.7459 63.9809 76.6907 63.9759 76.6456 63.9597C76.6512 63.9974 76.6433 64.0488 76.6653 64.0692C76.6971 64.1005 76.75 64.1097 76.7946 64.1282ZM67.3466 60.0863C67.403 60.1051 67.4495 60.1204 67.4957 60.1361C67.4897 60.0974 67.4978 60.0449 67.4754 60.0234C67.4425 59.9925 67.3886 59.9845 67.3432 59.9662C67.3444 60.0075 67.3455 60.0489 67.3466 60.0863ZM35.0726 17.5213C35.121 17.5618 35.1565 17.5968 35.1977 17.6232C35.216 17.6352 35.246 17.6333 35.2695 17.6293C35.2804 17.6276 35.2963 17.6053 35.295 17.594C35.2864 17.5026 35.1069 17.3538 35.0332 17.3758C35.0217 17.379 35.0049 17.404 35.008 17.41C35.0298 17.4525 35.0558 17.4931 35.0726 17.5213ZM34.667 16.8593C34.6831 16.7562 34.5232 16.6137 34.3983 16.6178C34.383 16.6185 34.3574 16.6362 34.3559 16.6484C34.353 16.6736 34.3544 16.7091 34.3697 16.7247C34.4253 16.7799 34.4828 16.8361 34.5499 16.876C34.5762 16.8913 34.6279 16.8657 34.667 16.8593ZM50.9091 51.1211C50.9403 51.0765 50.9653 51.0563 50.9687 51.0328C50.9745 50.9905 50.9673 50.9467 50.9653 50.9039C50.9386 50.9092 50.9104 50.9099 50.8872 50.9215C50.8644 50.9328 50.8446 50.954 50.8273 50.9739C50.7771 51.0331 50.7076 51.0848 50.7358 51.1792C50.8007 51.1572 50.8659 51.1356 50.9091 51.1211ZM78.7583 62.2069C78.8465 62.253 78.9362 62.2795 79.0308 62.2251C79.0473 62.216 79.0718 62.1859 79.0704 62.1834C79.0286 62.1302 78.9879 62.0443 78.9378 62.0381C78.8828 62.0313 78.8162 62.0949 78.7591 62.1341C78.7477 62.1421 78.7582 62.1812 78.7583 62.2069ZM74.4713 63.0073C74.4748 63.1281 74.5564 63.1869 74.6456 63.2326C74.6829 63.2516 74.7337 63.2449 74.7782 63.2497C74.7599 63.2055 74.7527 63.1489 74.7208 63.1201C74.6677 63.0724 74.6002 63.0402 74.5358 63.006C74.5189 62.9979 74.4926 63.0069 74.4713 63.0073ZM65.9894 57.0594C66.032 57.0883 66.0731 57.1213 66.1182 57.1448C66.139 57.1554 66.1694 57.1472 66.1955 57.1475C66.187 57.106 66.1899 57.0558 66.1673 57.0248C66.1384 56.9844 66.0927 56.9496 66.0466 56.9306C66.01 56.9155 65.9623 56.9282 65.9194 56.9287C65.9423 56.9722 65.9664 57.0159 65.9894 57.0594ZM72.7063 55.9752C72.6777 55.9635 72.6423 55.9413 72.6353 55.9482C72.6069 55.9757 72.5612 56.0198 72.5682 56.0445C72.5947 56.1401 72.6374 56.2318 72.6797 56.3223C72.6877 56.3385 72.7216 56.348 72.7449 56.3499C72.7619 56.3513 72.7952 56.3381 72.7962 56.3281C72.8131 56.1974 72.7984 56.0731 72.7063 55.9752ZM58.6257 39.3693C58.6031 39.3585 58.5817 39.3406 58.5583 39.3379C58.5058 39.333 58.4772 39.3712 58.4903 39.4394C58.5051 39.5152 58.5192 39.595 58.5555 39.6604C58.5748 39.6947 58.6412 39.7031 58.6863 39.7233C58.6946 39.7013 58.7096 39.6794 58.7098 39.6573C58.7134 39.5531 58.7174 39.4459 58.6257 39.3693ZM34.1642 16.1538C34.0722 16.0768 34.0359 16.0331 33.9892 16.0115C33.9448 15.9905 33.8898 15.9918 33.8391 15.9831C33.8562 16.0304 33.8602 16.0924 33.8934 16.1222C33.9899 16.2083 34.0965 16.2839 34.2023 16.3589C34.22 16.3716 34.2544 16.362 34.2812 16.3621C34.2763 16.3358 34.2797 16.3043 34.2658 16.2846C34.2216 16.2213 34.1708 16.162 34.1642 16.1538ZM77.7727 63.4219C77.7671 63.3963 77.7688 63.3653 77.7546 63.3461C77.6493 63.2035 77.4985 63.163 77.3328 63.1781C77.2997 63.1814 77.2679 63.2324 77.2446 63.2675C77.2385 63.2772 77.2625 63.3235 77.2798 63.3286C77.4286 63.3748 77.5795 63.416 77.7302 63.4551C77.7404 63.4589 77.758 63.4339 77.7727 63.4219ZM16.2075 38.1624C16.3864 38.312 16.4426 38.3705 16.5094 38.4108C16.5505 38.4357 16.6083 38.4328 16.659 38.4422C16.6459 38.3935 16.6482 38.3253 16.6166 38.2995C16.4756 38.1844 16.326 38.0795 16.1764 37.9746C16.1587 37.9619 16.1248 37.9726 16.0984 37.9728C16.1006 37.9976 16.0929 38.0309 16.1065 38.047C16.1715 38.1256 16.2417 38.2005 16.2075 38.1624ZM78.9457 61.37C78.9934 61.2953 78.991 61.0425 78.9431 61.0072C78.8638 60.9504 78.5494 61.0474 78.5361 61.1408C78.5208 61.2526 78.5912 61.3304 78.6792 61.3912C78.7892 61.467 78.889 61.4588 78.9457 61.37ZM37.218 32.7627C37.2152 32.7604 37.2128 32.7584 37.21 32.756C37.344 32.5958 37.4804 32.4375 37.6086 32.2737C37.6264 32.2508 37.6028 32.196 37.5985 32.156C37.5728 32.1601 37.5364 32.1553 37.5234 32.1701C37.3049 32.4289 37.088 32.6891 36.8771 32.9535C36.8589 32.9761 36.8845 33.0333 36.8901 33.075C36.9158 33.0709 36.9522 33.0757 36.9659 33.0602C37.0524 32.964 37.1344 32.8627 37.218 32.7627ZM36.4955 54.4129C36.2514 53.9163 35.8418 53.9169 35.5257 53.7685C35.523 53.7669 35.4989 53.794 35.4991 53.8076C35.4995 53.8329 35.5037 53.8634 35.5182 53.8823C35.7448 54.1715 36.1078 54.1824 36.4955 54.4129ZM76.103 50.3375C76.2044 50.3226 76.3184 50.3289 76.407 50.2843C76.4491 50.2629 76.4756 50.1321 76.4517 50.0743C76.3881 49.9207 76.2592 49.8217 76.0886 49.8065C76.0497 49.8029 75.9839 49.8463 75.9684 49.8833C75.8981 50.0577 76.0544 50.1715 76.103 50.3375ZM54.6325 42.4442C54.6854 42.5148 54.7172 42.6 54.7775 42.6295C54.9852 42.731 55.2017 42.8171 55.4181 42.9002C55.4618 42.9172 55.5204 42.8995 55.5715 42.8916C55.5961 42.888 55.6397 42.8665 55.6387 42.8588C55.6323 42.8165 55.6236 42.7471 55.599 42.7394C55.2844 42.6408 54.9987 42.4464 54.6325 42.4442ZM31.1123 37.3015C31.0925 37.347 31.046 37.4025 31.0578 37.436C31.1011 37.5503 31.1653 37.4671 31.2242 37.4402C31.2947 37.4075 31.375 37.3904 31.4388 37.348C31.6092 37.2337 31.8501 37.2342 31.9629 37.0307C31.9851 36.9912 31.9828 36.9367 31.9855 36.8884C31.9854 36.8836 31.9358 36.8664 31.9128 36.8721C31.6083 36.9445 31.3096 37.0277 31.1123 37.3015ZM37.6247 23.3935C37.6425 23.3538 37.6868 23.3039 37.676 23.2726C37.5497 22.898 37.418 22.525 37.2785 22.155C37.266 22.1216 37.193 22.1105 37.1463 22.093C37.1436 22.0921 37.1176 22.1297 37.1176 22.1499C37.1161 22.5571 37.2841 22.9214 37.4186 23.2934C37.4337 23.3342 37.497 23.3609 37.5423 23.3873C37.5631 23.3979 37.5945 23.3918 37.6247 23.3935ZM37.5231 53.3564C37.8317 53.8241 38.036 53.9571 38.5353 53.9992C38.5752 54.0022 38.6403 53.9534 38.6573 53.9137C38.6727 53.8768 38.6546 53.8009 38.6235 53.7743C38.5452 53.7068 38.4578 53.6371 38.3621 53.6049C38.0852 53.5129 37.8028 53.4386 37.5231 53.3564ZM33.7106 51.4569C33.6431 51.0418 33.5013 50.6584 33.2333 50.3291C33.2205 50.313 33.1841 50.3082 33.1613 50.3121C33.145 50.3146 33.1215 50.3395 33.1194 50.3566C33.0745 50.7255 33.2102 51.0372 33.4397 51.3133C33.5067 51.3929 33.5865 51.4731 33.7106 51.4569ZM77.125 64.2716C77.3995 64.4802 78.0876 64.7158 78.3708 64.689C78.4068 64.6854 78.4554 64.6337 78.4687 64.5936C78.5294 64.4131 78.4247 64.2191 78.2754 64.246C77.9007 64.3128 77.5414 64.2774 77.1884 64.1385C77.1176 64.1111 77.0827 64.1432 77.0984 64.2002C77.1053 64.2241 77.1159 64.2478 77.125 64.2716ZM70.2214 53.3772C69.8944 53.0331 69.7643 52.5414 69.3561 52.2709C69.3151 52.2433 69.2828 52.1934 69.2624 52.1467C69.1044 51.7867 68.7663 51.6146 68.4763 51.3923C68.4602 51.3802 68.4246 51.3929 68.3982 51.3938C68.4004 51.4178 68.3945 51.4466 68.4057 51.4647C68.5591 51.7069 68.8738 51.8231 68.9325 52.1398C69.3461 52.4708 69.5933 52.9619 70.0217 53.2783C70.0807 53.3222 70.1547 53.345 70.2214 53.3772ZM55.457 36.4307C55.7046 36.6094 55.791 36.9035 55.9811 37.1123C56.2116 37.3663 56.3144 37.7246 56.6396 37.9001C56.7753 37.9731 56.8509 38.1455 57.0334 38.1465C57.0904 37.9494 56.8747 37.9187 56.8192 37.7941C56.6988 37.5229 56.4875 37.3193 56.3159 37.0868C56.0428 36.7176 55.9547 36.6513 55.457 36.4307ZM14.4475 33.7944C14.4558 33.7845 14.4857 33.7657 14.4881 33.7434C14.5225 33.4257 14.5154 33.1151 14.3887 32.8103C14.2877 32.5675 14.2201 32.3114 14.1364 32.0615C14.1143 31.9944 13.9805 31.919 13.9492 31.9582C13.9033 32.0155 13.8419 32.0848 13.8407 32.1499C13.8369 32.415 13.8802 32.6824 13.8562 32.9448C13.8205 33.3383 14.0633 33.5703 14.2976 33.8133C14.3188 33.8331 14.3917 33.8023 14.4475 33.7944ZM34.2131 48.0382C34.1884 48.0445 34.1598 48.0456 34.1397 48.0591C34.1186 48.0731 34.0937 48.0988 34.0917 48.1214C34.065 48.4887 34.0244 48.8565 34.0961 49.2231C33.967 49.6733 34.2708 49.9678 34.4862 50.2915C34.51 50.3275 34.5789 50.3507 34.6249 50.3481C34.6527 50.3471 34.7021 50.2832 34.7002 50.25C34.6752 49.8058 34.7275 49.3587 34.4951 48.9345C34.3587 48.6857 34.33 48.3773 34.2514 48.0965C34.2451 48.075 34.2259 48.0577 34.2131 48.0382ZM34.6419 36.4894C34.4194 36.604 34.2361 36.6604 34.104 36.7757C33.9183 36.9373 33.7027 37.0347 33.4978 37.158C33.0891 37.4034 32.679 37.6496 32.2943 37.9299C32.1361 38.045 31.9558 38.1929 31.9464 38.4411C32.1549 38.3708 32.3174 38.2377 32.5289 38.1766C33.0457 38.0277 33.5139 37.77 33.8536 37.3307C34.0343 37.0969 34.2473 36.905 34.498 36.7479C34.5536 36.7135 34.5724 36.6193 34.6419 36.4894ZM77.0536 59.2973C77.0628 59.2605 77.0752 59.2344 77.0747 59.2091C77.0634 58.2641 76.7012 57.3856 76.5531 56.4663C76.55 56.4475 76.5172 56.4255 76.4934 56.4184C76.4258 56.3977 76.4001 56.4301 76.4024 56.5055C76.4141 56.9857 76.375 57.4734 76.4489 57.9437C76.5064 58.312 76.5582 58.6829 76.6111 59.0526C76.6296 59.182 76.7099 59.2263 76.8229 59.2467C76.9002 59.2607 76.9768 59.2803 77.0536 59.2973ZM55.2216 49.3896C55.173 49.3962 55.1208 49.3876 55.0908 49.409C54.6389 49.7342 54.2065 50.0893 53.7371 50.3863C52.6376 51.0814 51.5977 51.8607 50.5242 52.5924C50.4675 52.6312 50.4054 52.7289 50.4159 52.7856C50.4404 52.9159 50.5265 52.8235 50.5806 52.7966C51.6534 52.2625 52.7267 51.735 53.6459 50.9404C53.8453 50.768 54.0922 50.6421 54.2472 50.4212C54.4071 50.1936 54.6854 50.1155 54.8558 49.9102C54.9894 49.7496 55.1782 49.6237 55.2216 49.3896ZM53.8568 46.3524C53.8545 46.3504 53.8517 46.3481 53.8493 46.3461C54.1939 45.9339 54.5402 45.5238 54.8814 45.1093C54.9794 44.9904 54.9557 44.8567 54.8318 44.7631C54.746 44.6988 54.6636 44.6232 54.5682 44.5785C53.9423 44.2871 53.3143 43.9999 52.6841 43.7184C52.4665 43.6207 52.2254 43.5681 52.0196 43.4506C51.1966 42.9822 50.2785 42.7782 49.3762 42.5892C48.3623 42.3765 47.3355 42.1913 46.2811 42.1955C45.3538 42.1994 44.2837 42.2038 43.4321 42.3492C42.8521 42.4487 42.2706 42.5388 41.692 42.6455C41.4832 42.684 41.2741 42.743 41.0778 42.823C40.6812 42.9861 40.299 43.1829 39.9021 43.3424C39.5173 43.4979 39.3045 43.87 38.9497 44.0574C38.8281 44.4181 38.5488 44.686 38.3791 45.0147C38.1854 45.3899 38.0036 45.7806 37.8852 46.1851C37.7275 46.722 37.6057 47.2692 37.5469 47.8328C37.5046 48.239 37.5256 48.6339 37.551 49.034C37.5614 49.1998 37.6138 49.3386 37.7459 49.4572C38.385 50.0319 39.0796 50.5144 39.8864 50.8297C40.4563 51.0527 41.0239 51.263 41.632 51.3717C42.0793 51.4518 42.5271 51.5242 42.9776 51.5666C43.43 51.6092 43.8941 51.5637 44.3402 51.6348C44.8072 51.7091 45.229 51.4248 45.6864 51.5315C46.3842 51.358 47.083 51.1873 47.7792 51.0084C47.9078 50.9757 48.0346 50.9206 48.1498 50.8538C48.8844 50.4259 49.6432 50.0425 50.3484 49.561C51.4912 48.7795 52.5641 47.926 53.444 46.8478C53.5796 46.6807 53.7192 46.517 53.8568 46.3524ZM33.6205 33.3044C34.0862 32.7474 34.5531 32.1914 35.0168 31.6328C35.1023 31.5297 35.1993 31.4274 35.2517 31.3075C35.5929 30.527 35.9739 29.7609 36.1304 28.9111C36.2011 28.5273 36.2023 28.4905 35.8613 28.3807C35.2267 28.1764 34.5911 27.9732 33.9507 27.7869C32.9733 27.5016 31.9559 27.3978 30.9683 27.1537C30.8399 27.1219 30.702 27.1279 30.5691 27.1119C30.3034 27.0798 30.0349 27.0615 29.7736 27.0089C28.9315 26.8373 28.0739 26.8166 27.2226 26.7634C26.6921 26.7303 26.1543 26.7882 25.6226 26.7083C25.5716 26.7007 25.5167 26.7108 25.465 26.7202C24.6346 26.8677 23.789 26.8712 22.9546 26.9986C21.7039 27.1891 20.4977 27.495 19.3871 28.1195C19.2722 28.1845 19.1381 28.2335 19.0501 28.3251C18.457 28.9482 17.9511 29.6225 17.6333 30.4413C17.464 30.8768 17.4451 31.3275 17.3288 31.7641C17.2372 32.1115 17.2817 32.4581 17.3193 32.8057C17.3343 32.9449 17.395 33.0577 17.51 33.1451C17.9979 33.5153 18.3939 34.0115 18.9935 34.2297C19.5115 34.6574 20.1124 34.9415 20.7097 35.2373C22.0652 35.9082 23.4882 36.337 24.9947 36.4628C25.7666 36.5272 26.5425 36.5666 27.3165 36.5713C27.7984 36.5745 28.285 36.519 28.7608 36.4402C29.341 36.3436 29.9127 36.1968 30.487 36.0669C30.59 36.0438 30.6856 35.9842 30.789 35.9669C31.2314 35.8926 31.8888 35.3078 32.2668 34.9066C32.746 34.3987 33.172 33.8408 33.6205 33.3044ZM32.6659 39.7363C32.6169 39.7257 32.5569 39.691 32.5198 39.7079C32.0308 39.9259 31.532 40.0993 30.9976 40.183C30.6312 40.2399 30.2746 40.3624 29.9147 40.4592C28.6455 40.8001 27.3659 41.0365 26.0393 40.993C25.4564 40.9735 24.8696 41.0626 24.2848 41.1034C24.2589 41.1053 24.2319 41.1151 24.2091 41.127C24.1901 41.1368 24.1603 41.1652 24.1631 41.1708C24.1864 41.2146 24.2069 41.2748 24.2455 41.2923C24.5994 41.4527 24.983 41.3663 25.3518 41.4179C25.8009 41.4806 26.2527 41.5206 26.7085 41.4737C27.3222 41.4105 27.9386 41.3691 28.5503 41.2921C29.3214 41.1953 30.0747 41.0143 30.7912 40.708C31.0376 40.6027 31.2874 40.5176 31.5409 40.433C31.9678 40.2891 32.3633 40.0717 32.663 39.7164C32.7713 39.7853 32.8474 39.7378 32.9063 39.6448C32.9169 39.628 32.9041 39.5958 32.9022 39.5706C32.8771 39.5732 32.8446 39.5669 32.8286 39.5805C32.7712 39.6289 32.7196 39.6835 32.6659 39.7363ZM26.1774 26.0883C26.1007 26.0067 26.0072 25.9629 25.8942 25.9634C25.707 25.964 25.514 25.9933 25.3335 25.9584C24.4793 25.7942 23.6292 25.8991 22.7796 25.9841C21.9394 26.0682 21.1851 26.3859 20.4948 26.8617C20.4388 26.9004 20.4185 26.99 20.3691 27.0781C20.5735 27.032 20.748 27.0006 20.9177 26.9517C21.0455 26.9149 21.165 26.8518 21.2907 26.8086C21.7718 26.6453 22.2559 26.5048 22.7681 26.4638C23.7818 26.3832 24.7942 26.2874 25.8066 26.1955C25.9348 26.1841 26.0777 26.226 26.1787 26.1036C26.2199 26.1124 26.2607 26.1216 26.3012 26.1305C26.299 26.1024 26.2969 26.0743 26.2944 26.0466C26.2557 26.0607 26.2165 26.0745 26.1774 26.0883ZM45.2072 41.5983C45.0948 41.4699 44.9475 41.4195 44.782 41.4079C44.3583 41.3785 43.932 41.3072 43.511 41.3293C43.0357 41.3545 42.5469 41.3489 42.0901 41.5244C41.595 41.7151 41.1434 41.9948 40.6822 42.2529C40.6662 42.2624 40.6585 42.2991 40.6595 42.3228C40.6602 42.3389 40.6845 42.3687 40.6946 42.3671C40.7981 42.3538 40.905 42.3468 41.0036 42.3167C41.7648 42.0836 42.5343 41.8824 43.3282 41.81C43.8536 41.762 44.3722 41.6416 44.9049 41.6616C45.0033 41.6657 45.104 41.6056 45.2041 41.5754C45.2524 41.5862 45.303 41.6103 45.3491 41.6036C45.394 41.5974 45.3897 41.5486 45.3415 41.5481C45.297 41.5466 45.2522 41.5799 45.2072 41.5983ZM20.0814 38.6782C19.5916 38.1426 18.9063 38.0078 18.2606 37.7908C18.2368 37.783 18.208 37.7812 18.1835 37.7863C18.1705 37.7889 18.1524 37.8122 18.1522 37.8262C18.1529 37.8511 18.1599 37.8798 18.1742 37.8998C18.3251 38.1096 18.6081 38.0645 18.7946 38.2332C19.1153 38.5236 19.5331 38.6303 19.9464 38.7244C19.9843 38.7332 20.0349 38.6872 20.0793 38.6663C20.1265 38.6687 20.2017 38.7795 20.2102 38.6322C20.1679 38.6474 20.1248 38.6626 20.0814 38.6782ZM36.0994 21.773C35.9926 22.0869 36.196 22.3129 36.3252 22.5591C36.3331 22.5738 36.3714 22.5795 36.3935 22.5765C36.4095 22.5743 36.4348 22.5489 36.4339 22.5347C36.4152 22.2434 36.3267 21.98 36.1113 21.7716C36.1223 21.6972 36.1634 21.6102 36.1393 21.5503C35.9284 21.0335 35.7068 20.5213 35.4834 20.0097C35.4636 19.9648 35.4146 19.9259 35.3698 19.9005C35.3265 19.8758 35.2714 19.8722 35.2215 19.8594C35.2172 19.9105 35.2101 19.9618 35.2099 20.0136C35.2097 20.0396 35.2139 20.0701 35.2271 20.0913C35.5398 20.5873 35.7331 21.1405 35.9833 21.6659C36.0035 21.7104 36.0592 21.7381 36.0994 21.773ZM37.8816 21.1554C37.9507 21.0527 37.9131 20.9727 37.8236 20.9088C37.8072 20.897 37.7628 20.8929 37.758 20.901C37.7398 20.9317 37.7126 20.9851 37.7254 21.0012C37.7699 21.0593 37.8298 21.1046 37.8838 21.1552C37.8053 21.25 37.8382 21.3557 37.8716 21.4497C38.0357 21.9104 38.2069 22.3691 38.3811 22.8268C38.3978 22.8704 38.4525 22.8993 38.4895 22.9356C38.4068 23.1692 38.4833 23.3841 38.5695 23.597C38.5779 23.6168 38.6038 23.6358 38.6257 23.6427C38.6491 23.6501 38.6995 23.6423 38.6995 23.6423C38.6953 23.3901 38.7542 23.1205 38.5105 22.9323C38.6046 22.7231 38.5467 22.5109 38.4654 22.3284C38.2871 21.9306 38.1961 21.4864 37.8816 21.1554ZM13.4584 35.0226C13.433 35.0796 13.3475 35.1544 13.4989 35.1596C13.482 35.1145 13.4647 35.069 13.4478 35.0239C13.4297 34.6562 13.3352 34.317 13.1104 34.0158C13.0504 33.9353 13.0398 33.8173 12.9188 33.7895C12.8476 33.7731 12.8141 33.9622 12.8559 34.1299C12.9478 34.5013 13.12 34.8179 13.4584 35.0226ZM69.4605 55.349C69.5503 55.149 69.4152 55.0711 69.2689 55.0034C69.2479 54.9939 69.2173 55.0047 69.1909 55.0056C69.1934 55.03 69.1868 55.0629 69.2002 55.0767C69.2888 55.169 69.3822 55.2572 69.4743 55.347C69.3797 55.64 69.6507 55.8181 69.7051 56.0658C69.7255 56.1583 69.81 56.2411 69.8787 56.3161C69.9088 56.3487 69.9732 56.3506 70.0219 56.3657C70.0345 56.3217 70.0712 56.2674 70.0573 56.2356C69.9121 55.9045 69.8084 55.5441 69.4605 55.349ZM42.7053 28.9674C42.97 29.2797 43.3571 29.356 43.7145 29.4889C43.7293 29.4946 43.7573 29.4634 43.7796 29.4497C44.0293 29.7468 44.4583 29.7448 44.7283 30.0185C44.7934 30.085 44.9259 30.0853 45.028 30.114C45.1677 30.1533 45.2708 30.35 45.4518 30.2149C45.5918 30.3265 45.7307 30.4393 45.8729 30.5481C45.8895 30.5606 45.9448 30.5549 45.9455 30.5508C45.9523 30.512 45.9682 30.4511 45.9499 30.4359C45.8313 30.3407 45.7076 30.2508 45.578 30.1721C45.5551 30.1583 45.4954 30.2055 45.4527 30.2244C45.1172 29.8421 44.6481 29.6791 44.2025 29.4865C44.0857 29.4359 43.93 29.3045 43.7797 29.4552C43.5091 29.1541 43.1344 29.0565 42.7695 28.9414C42.754 28.9366 42.7274 28.9683 42.7064 28.9831C42.6664 28.9503 42.6303 28.9087 42.5852 28.8878C42.5426 28.8677 42.4899 28.8695 42.4415 28.8621C42.4449 28.8878 42.4396 28.9232 42.4541 28.9373C42.4891 28.972 42.5315 29.0148 42.5749 29.0201C42.6158 29.0253 42.6615 28.9867 42.7053 28.9674ZM50.2704 54.6679C49.9999 54.6312 49.7853 54.7362 49.606 54.9314C49.4772 54.846 49.3462 54.9002 49.2246 54.9401C48.6452 55.1284 48.0659 55.3053 47.468 55.435C46.7424 55.5926 46.0217 55.7612 45.2884 55.8869C44.6322 56.0002 43.9845 56.0815 43.3154 56.0579C42.7376 56.0378 42.1505 56.0491 41.5878 56.2359C41.5468 56.2245 41.5018 56.197 41.4655 56.2065C41.421 56.2178 41.426 56.2698 41.4759 56.2771C41.5101 56.2821 41.5494 56.2456 41.5863 56.2273C41.7403 56.414 41.9721 56.4245 42.1745 56.438C42.8386 56.4822 43.5055 56.5262 44.1699 56.5088C45.3493 56.4784 46.5127 56.3228 47.6265 55.8985C47.8502 55.8132 48.1045 55.7872 48.3032 55.6655C48.5351 55.5244 48.7741 55.4337 49.0273 55.3501C49.2516 55.2762 49.488 55.1934 49.6084 54.9543C49.9385 55.0867 50.0934 54.8482 50.2658 54.6445C50.4359 54.7409 50.5416 54.5725 50.6815 54.5439C50.7446 54.5305 50.7704 54.4868 50.7283 54.4347C50.7015 54.4015 50.6404 54.3754 50.5986 54.3795C50.4243 54.3969 50.3641 54.5535 50.2704 54.6679ZM62.3744 58.0509C62.2489 57.9157 62.1254 57.778 61.9387 57.7264C61.9173 57.7206 61.8757 57.7243 61.8705 57.7354C61.8614 57.7568 61.8638 57.7918 61.8759 57.812C61.962 57.9501 62.0835 58.049 62.2403 58.0905C62.2775 58.1 62.3283 58.0562 62.3729 58.0375C62.4196 58.0381 62.4944 58.1485 62.5013 58.0033C62.4586 58.0188 62.4167 58.0351 62.3744 58.0509ZM71.1949 60.582C71.1002 60.5075 71.0103 60.4256 70.9091 60.3612C70.8468 60.3212 70.7732 60.3366 70.72 60.3979C70.6078 60.3047 70.4979 60.2088 70.3827 60.1192C70.3005 60.0546 70.2109 60.0369 70.1214 60.1117C70.0627 60.0674 70.0076 60.0173 69.9439 59.9829C69.9254 59.9728 69.8798 60.0048 69.8518 60.0246C69.8466 60.0283 69.8597 60.0716 69.8742 60.0864C69.9528 60.1642 70.0358 60.1851 70.12 60.0924C70.2538 60.2009 70.383 60.3156 70.5222 60.4159C70.5827 60.4597 70.6604 60.4465 70.719 60.387C70.8135 60.4626 70.9031 60.5456 71.0037 60.6115C71.066 60.6515 71.1396 60.6369 71.1944 60.5762C71.2886 60.6522 71.3779 60.7364 71.4796 60.8018C71.5419 60.8418 71.6163 60.8238 71.6694 60.761C71.9415 61.062 72.3039 61.1897 72.682 61.2841C72.6978 61.2878 72.7226 61.254 72.7432 61.2375C73.15 61.6612 73.7255 61.7346 74.2314 61.9527C74.2433 61.9579 74.2715 61.9249 74.2926 61.9094C74.4136 62.0066 74.5263 62.1177 74.6594 62.1939C74.7417 62.2405 74.8547 62.2352 74.9545 62.2472C74.9764 62.25 75.0222 62.2243 75.0212 62.2167C75.0159 62.1738 75.0106 62.106 74.985 62.0954C74.7773 62.0101 74.566 61.9338 74.3535 61.8599C74.3399 61.8553 74.3131 61.8881 74.2924 61.9039C73.8801 61.4958 73.3192 61.4016 72.8073 61.2035C72.7944 61.1981 72.7652 61.233 72.7438 61.2488C72.4848 60.925 72.0945 60.8549 71.7334 60.7289C71.719 60.7243 71.6914 60.7565 71.6696 60.7713C71.5759 60.6963 71.4891 60.6075 71.3853 60.5518C71.3402 60.5268 71.2592 60.5697 71.1949 60.582ZM73.3197 62.5587C73.4255 62.6337 73.5303 62.7099 73.638 62.7818C73.6536 62.7921 73.6848 62.7791 73.7081 62.777C73.7043 62.7509 73.711 62.7147 73.6961 62.7002C73.5922 62.5979 73.5089 62.4251 73.3204 62.5748C73.2159 62.4989 73.1128 62.4208 73.0061 62.3484C72.9877 62.3358 72.955 62.3442 72.9289 62.3432C72.9333 62.3678 72.9302 62.3989 72.9438 62.4157C73.041 62.534 73.1318 62.6753 73.3197 62.5587ZM42.808 30.1216C42.7023 30.044 42.5983 29.9645 42.4904 29.8904C42.4724 29.878 42.4387 29.8877 42.4123 29.8878C42.4172 29.9142 42.4139 29.9464 42.4284 29.9653C42.5253 30.0888 42.6163 30.2356 42.8062 30.1019C42.8689 30.1463 42.93 30.1933 42.9952 30.2323C43.013 30.2432 43.0457 30.2307 43.0713 30.2292C43.0679 30.2041 43.0735 30.1717 43.0603 30.1552C42.9885 30.0669 42.9056 30.0306 42.808 30.1216ZM41.7331 29.6287C41.8304 29.7066 41.925 29.7878 42.0272 29.859C42.0444 29.8707 42.0971 29.8407 42.1265 29.8201C42.1355 29.8141 42.1291 29.7629 42.1148 29.751C42.0038 29.6629 41.9064 29.5174 41.7338 29.6407C41.6344 29.563 41.5408 29.4766 41.4339 29.4109C41.3772 29.3756 41.3334 29.407 41.3387 29.4546C41.3413 29.479 41.3407 29.5143 41.3556 29.5247C41.4684 29.6035 41.5578 29.778 41.7331 29.6287ZM34.6963 18.9195C34.7091 18.8736 34.7404 18.8216 34.7285 18.7826C34.7159 18.7404 34.6655 18.7057 34.6255 18.6769C34.6086 18.6648 34.5748 18.677 34.5485 18.6786C34.5636 18.7243 34.5701 18.7762 34.5962 18.8143C34.6252 18.8554 34.6729 18.8838 34.7119 18.9177C34.6572 19.0155 34.6881 19.0987 34.7622 19.168C34.8307 19.2328 34.9057 19.2907 34.9776 19.3522C34.9695 19.4014 34.9436 19.4565 34.9579 19.4975C34.9727 19.5395 35.0233 19.5724 35.0651 19.5999C35.0826 19.6119 35.1161 19.6001 35.1424 19.5985C35.1239 19.5513 35.1139 19.4979 35.0851 19.4582C35.0546 19.4165 35.0061 19.3882 34.9659 19.3532C35.0373 19.2558 35.0038 19.1725 34.9252 19.1021C34.8522 19.037 34.7729 18.9795 34.6963 18.9195ZM71.1715 61.6032C71.276 61.679 71.3794 61.7561 71.4861 61.8284C71.5044 61.8404 71.537 61.8312 71.5627 61.8319C71.5579 61.8062 71.5612 61.7733 71.5468 61.7558C71.4487 61.6401 71.3602 61.4913 71.1732 61.6221C71.1322 61.5898 71.0955 61.549 71.0498 61.5271C71.0057 61.5057 70.9526 61.5031 70.9032 61.4928C70.9074 61.5185 70.9031 61.5526 70.918 61.5678C70.9523 61.6026 70.994 61.6462 71.0375 61.6522C71.0788 61.6577 71.1266 61.6215 71.1715 61.6032ZM69.1487 60.772C69.0746 60.7114 69.0015 60.6489 68.9257 60.5896C68.844 60.5253 68.7595 60.5039 68.6743 60.5856C68.6007 60.5228 68.5299 60.4568 68.4534 60.3976C68.3706 60.3337 68.2831 60.3158 68.1983 60.3987C68.0926 60.3204 67.9881 60.2397 67.8794 60.165C67.861 60.1523 67.827 60.1623 67.7998 60.1618C67.8036 60.1879 67.7981 60.2211 67.8121 60.2382C67.9117 60.3593 68.0079 60.499 68.1968 60.3771C68.2699 60.4396 68.3411 60.5052 68.4172 60.5641C68.4992 60.6273 68.5868 60.6459 68.6725 60.566C68.7669 60.6401 68.8564 60.7217 68.9572 60.7865C69.0196 60.8265 69.0926 60.81 69.1468 60.7509C69.2415 60.8287 69.3306 60.914 69.4321 60.9813C69.4948 61.0223 69.5697 61.0061 69.6224 60.9415C69.7556 61.0482 69.8827 61.1646 70.026 61.2561C70.0681 61.2832 70.1547 61.2417 70.221 61.2317C70.3272 61.307 70.4328 61.3839 70.5405 61.4558C70.5565 61.4657 70.5873 61.4531 70.611 61.4513C70.6072 61.4252 70.6139 61.389 70.5986 61.3742C70.4946 61.2704 70.4103 61.0995 70.2212 61.2467C70.1093 61.1525 69.9986 61.0559 69.8836 60.9645C69.8014 60.8991 69.7116 60.88 69.6226 60.9566C69.5489 60.8956 69.4765 60.8338 69.4012 60.7748C69.3197 60.7094 69.2336 60.6954 69.1487 60.772ZM53.1195 42.9324C53.1921 42.9931 53.2631 43.0566 53.3387 43.1137C53.4209 43.1757 53.5081 43.1893 53.5938 43.1181C53.6877 43.1952 53.7769 43.2805 53.8775 43.3472C53.9395 43.3875 54.0147 43.3709 54.0687 43.3095C54.1094 43.3415 54.1471 43.3818 54.1927 43.4031C54.2368 43.4238 54.2935 43.4422 54.3377 43.432C54.3838 43.4213 54.2986 43.2934 54.2052 43.2753C54.1645 43.2676 54.1149 43.3043 54.0694 43.3216C53.9753 43.2463 53.8857 43.1633 53.7841 43.0985C53.7218 43.0586 53.6474 43.0766 53.5954 43.1396C53.5217 43.0746 53.451 43.0067 53.3737 42.9468C53.2908 42.8815 53.203 42.86 53.1201 42.9518C53.0151 42.8735 52.9113 42.7928 52.8037 42.7176C52.7857 42.7053 52.7513 42.7149 52.7245 42.7148C52.7282 42.7394 52.7235 42.7699 52.7362 42.7886C52.8302 42.9245 52.9313 43.0454 53.1195 42.9324ZM72.2454 62.0852C72.3511 62.1587 72.4566 62.2341 72.5642 62.3045C72.5802 62.3152 72.6107 62.3037 72.6345 62.3027C72.6304 62.277 72.635 62.2417 72.62 62.2265C72.5176 62.1233 72.4359 61.9533 72.2462 62.0939C72.1412 62.0203 72.0372 61.9448 71.9299 61.874C71.9124 61.8627 71.8813 61.8724 71.8564 61.8725C71.862 61.898 71.8594 61.9309 71.8741 61.948C71.9723 62.0604 72.0573 62.215 72.2454 62.0852ZM66.7962 58.8064C66.6933 58.7312 66.5921 58.6539 66.4873 58.5818C66.4693 58.5695 66.4368 58.5793 66.411 58.5787C66.4143 58.6037 66.4091 58.6358 66.4231 58.6521C66.5204 58.7679 66.6134 58.905 66.7948 58.7823C66.8567 58.826 66.9168 58.8735 66.9812 58.9125C66.9991 58.9234 67.0311 58.9118 67.0566 58.9102C67.0537 58.8862 67.0594 58.8553 67.0466 58.8392C66.9746 58.7479 66.8919 58.7186 66.7962 58.8064ZM67.6042 57.5885C67.5302 57.5247 67.4576 57.4599 67.3823 57.3976C67.2988 57.3291 67.2136 57.3125 67.1295 57.3993C67.0661 57.355 67.005 57.308 66.9391 57.2683C66.9201 57.2572 66.8884 57.2684 66.8625 57.2696C66.8654 57.2943 66.8601 57.3257 66.8729 57.3418C66.9446 57.4334 67.0287 57.4659 67.1286 57.3803C67.2015 57.4406 67.2724 57.5032 67.3474 57.5612C67.4294 57.6243 67.5153 57.6369 67.6019 57.5664C67.6498 57.5768 67.6977 57.5872 67.746 57.5972C67.7426 57.5762 67.7396 57.5548 67.7366 57.5334C67.6916 57.5517 67.6478 57.5703 67.6042 57.5885ZM62.5201 57.1084C62.6019 57.1687 62.6714 57.2652 62.7879 57.2372C62.8281 57.2278 62.8687 57.176 62.8891 57.1338C62.9218 57.0674 62.887 57.0276 62.8128 57.043C62.7147 57.0635 62.6183 57.0934 62.5207 57.119C62.4791 57.1051 62.4332 57.0728 62.3969 57.0809C62.3494 57.0917 62.3516 57.1488 62.4033 57.1611C62.4369 57.1676 62.4807 57.1273 62.5201 57.1084ZM64.749 58.9646C64.8232 59.0266 64.8974 59.0894 64.9724 59.1513C65.0552 59.2199 65.1391 59.2389 65.2241 59.1542C65.318 59.2313 65.407 59.3159 65.5078 59.3833C65.5691 59.4244 65.6439 59.4115 65.6999 59.3518C65.7945 59.4241 65.8821 59.5096 65.9864 59.563C66.0314 59.5865 66.1106 59.5442 66.1749 59.5319C66.2694 59.6082 66.3592 59.6928 66.4605 59.7579C66.5236 59.7985 66.5972 59.7805 66.6494 59.7157C66.7538 59.7915 66.857 59.8697 66.9634 59.9424C66.9821 59.9547 67.0151 59.9459 67.0408 59.9465C67.036 59.9216 67.0395 59.8908 67.0257 59.8719C66.9315 59.7459 66.836 59.6142 66.6501 59.731C66.5562 59.6546 66.4672 59.57 66.3663 59.5045C66.3039 59.4646 66.2298 59.4815 66.175 59.5421C66.1005 59.4805 66.0256 59.4186 65.9521 59.3565C65.8696 59.2867 65.7865 59.2692 65.6996 59.3489C65.6254 59.2909 65.5515 59.2318 65.4763 59.175C65.3937 59.1126 65.3104 59.0969 65.2254 59.1728C65.1521 59.1129 65.0795 59.0515 65.0045 58.9935C64.9225 58.9304 64.8367 58.9153 64.7508 58.989C64.6467 58.9128 64.5439 58.8342 64.4386 58.761C64.4206 58.7487 64.3877 58.7582 64.3612 58.7576C64.3645 58.7827 64.359 58.8151 64.3733 58.8318C64.4707 58.9516 64.5651 59.0878 64.749 58.9646ZM67.7458 59.1791C67.6831 59.1348 67.6228 59.0877 67.5576 59.0487C67.539 59.0379 67.5074 59.0499 67.4815 59.0511C67.4851 59.0757 67.4799 59.1078 67.4932 59.1249C67.5648 59.2151 67.6479 59.2495 67.7445 59.1565C67.8085 59.2025 67.8701 59.2513 67.9366 59.2928C67.9556 59.3039 67.988 59.2926 68.0151 59.2916C68.0121 59.2669 68.0177 59.2352 68.0049 59.2184C67.9322 59.1246 67.8475 59.0889 67.7458 59.1791ZM49.5507 51.742C49.7315 51.8426 49.7938 51.6891 49.8806 51.5878C49.9981 51.6503 50.0783 51.6068 50.1305 51.4968C50.1402 51.4772 50.1284 51.4478 50.1265 51.4226C50.1 51.4261 50.0649 51.4197 50.0486 51.4344C49.9901 51.4866 49.9371 51.546 49.8823 51.6027C49.704 51.4813 49.6373 51.6344 49.5499 51.7373C49.4761 51.6837 49.4012 51.6911 49.347 51.7591C49.3182 51.7943 49.3179 51.852 49.3049 51.8998C49.3514 51.8861 49.4031 51.8815 49.4423 51.8563C49.4854 51.8283 49.5153 51.7812 49.5507 51.742ZM41.0145 26.7071C41.0761 26.7504 41.136 26.7964 41.2003 26.8348C41.2182 26.8456 41.2492 26.8352 41.2748 26.8343C41.2712 26.8104 41.277 26.7802 41.2641 26.7641C41.1931 26.6757 41.1111 26.6456 41.0168 26.7326C40.9543 26.6864 40.8942 26.6381 40.8289 26.597C40.8113 26.5857 40.7784 26.5986 40.7525 26.6005C40.7546 26.6245 40.7471 26.656 40.7596 26.6718C40.8314 26.7656 40.9164 26.7922 41.0145 26.7071ZM55.4924 38.8351C55.5036 38.7838 55.6124 38.7062 55.4558 38.6999C55.4755 38.7441 55.4952 38.7882 55.5146 38.8327C55.4462 38.9427 55.4909 39.0191 55.5912 39.0741C55.609 39.0835 55.6523 39.0793 55.6603 39.0664C55.6709 39.049 55.6695 39.0087 55.6557 38.9938C55.6051 38.9374 55.5474 38.8878 55.4924 38.8351ZM79.0023 63.8547C79.0137 64.0443 79.0178 64.2304 79.0387 64.415C79.0601 64.6088 79.0172 64.7745 78.9281 64.9521C78.764 65.278 78.4708 65.4635 78.1771 65.3238C77.6239 65.0608 77.0134 64.9339 76.4919 64.595C76.3614 64.5101 76.1903 64.489 76.0497 64.416C75.9193 64.3487 75.7862 64.3305 75.6638 64.3866C75.4688 64.4756 75.3158 64.3942 75.1344 64.3369C74.3185 64.0793 73.5718 63.6599 72.7793 63.3485C72.3113 63.1641 71.8717 62.9078 71.4087 62.7094C70.554 62.3426 69.6864 62.0041 68.8316 61.6373C67.3165 60.9866 65.7889 60.3652 64.2683 59.7274C63.2396 59.2961 62.2057 58.8744 61.1808 58.4314C60.96 58.3358 60.7904 58.1468 60.5345 58.1135C60.4257 58.0993 60.3714 57.9885 60.3573 57.8716C60.3391 57.7216 60.3979 57.5948 60.5176 57.5291C60.6307 57.4672 60.7706 57.4555 60.8982 57.4206C60.9243 57.4135 60.9481 57.4003 60.9733 57.3904C60.9481 57.3464 60.9324 57.274 60.8965 57.2621C60.6396 57.176 60.3972 57.0684 60.2216 56.8528C60.191 56.8152 60.1596 56.7343 60.1772 56.71C60.2212 56.651 60.2963 56.5716 60.3556 56.574C60.7305 56.5908 61.0914 56.6775 61.4344 56.8356C61.4808 56.8576 61.5345 56.8627 61.5849 56.8758C61.3366 56.5206 61.337 56.5209 61.0419 56.378C60.9471 56.3318 60.8478 56.2925 60.7605 56.2357C60.6638 56.1724 60.6172 55.9798 60.6565 55.8691C60.7494 55.6104 60.9571 55.4571 61.1987 55.4818C61.3043 55.4926 61.4072 55.5348 61.5125 55.5467C61.6519 55.5621 61.7646 55.5209 61.8582 55.3976C61.9364 55.2945 62.0453 55.1658 62.1568 55.1478C62.4398 55.1019 62.657 55.051 62.7504 54.7159C62.7933 54.563 63.0321 54.483 63.2188 54.4685C63.4314 54.4521 63.6483 54.4555 63.8606 54.478C64.1526 54.5085 64.4642 54.5108 64.7276 54.6206C65.276 54.8492 65.8663 54.9106 66.42 55.1134C66.9695 55.3147 67.5215 55.5221 68.1227 55.6197C68.0742 55.36 67.9705 55.152 67.7756 54.9682C67.6045 54.8069 67.4915 54.5864 67.336 54.4065C66.145 53.0285 66.3883 53.1632 64.7512 51.7917C64.5452 51.6188 64.2929 51.4772 64.1464 51.2638C63.9929 51.0403 63.7039 50.9861 63.5937 50.7261C63.4902 50.4805 63.1572 50.5539 63.0099 50.3391C62.8921 50.1672 62.7366 50.021 62.5981 49.8626C62.2223 49.8195 62.0741 49.4502 61.7743 49.2838C61.4739 49.1175 61.2323 48.8461 60.9618 48.6247C60.691 48.4036 60.4172 48.1861 60.1433 47.9686C59.9975 47.8528 59.8639 47.7296 59.6735 47.6695C59.3566 47.5697 59.3294 47.5571 59.1236 47.8008C58.6727 48.3352 58.2294 48.8759 57.7746 49.407C57.5329 49.6896 57.309 49.9775 56.9833 50.1946C56.7026 50.3819 56.5154 50.7066 56.2832 50.9674C56.018 51.2661 55.8131 51.628 55.4191 51.792C55.3954 51.8018 55.3751 51.8246 55.3589 51.8455C54.7763 52.606 53.9311 53.0284 53.1712 53.5639C52.7816 53.8388 52.4094 54.1308 51.994 54.3761C51.3514 54.7561 50.6968 55.1134 50.0302 55.4438C49.0951 55.9084 48.1283 56.3045 47.1394 56.6431C47.0635 56.6694 46.9888 56.7047 46.911 56.7164C46.1956 56.8254 45.4827 56.9775 44.7626 57.0253C43.5349 57.1062 42.3099 57.0621 41.0975 56.7885C40.519 56.6581 39.9704 56.4508 39.4268 56.2342C39.1018 56.1047 38.7766 55.9905 38.4369 55.9276C37.5373 55.7612 36.6839 55.4589 35.8532 55.0851C35.7805 55.0527 35.6955 55.0416 35.6318 54.9984C34.9944 54.5612 34.313 54.191 33.733 53.6657C33.0973 53.091 32.6604 52.4035 32.4378 51.5885C32.3184 51.1516 32.2056 50.7102 32.1647 50.252C32.1244 49.8003 31.9897 49.3568 31.9553 48.9054C31.8359 47.3286 32.1228 45.8221 32.8002 44.3911C33.119 43.718 33.5352 43.0961 33.8363 42.4135C33.8784 42.318 33.9605 42.2383 34.0287 42.1551C34.5583 41.512 35.0647 40.8468 35.6291 40.2355C36.006 39.8273 36.496 39.5387 36.9815 39.2605C37.1663 39.1548 37.347 39.0571 37.5556 38.9882C38.0869 38.813 38.6037 38.598 39.0761 38.2798C39.793 37.7973 40.602 37.5166 41.4302 37.2903C42.8476 36.9035 43.8599 36.8142 45.3969 36.7802C46.1498 36.7633 46.8914 36.8454 47.6379 36.8724C48.089 36.8883 48.5385 36.9965 48.9852 37.0814C50.2449 37.3218 51.487 37.6316 52.7105 38.0177C52.7853 38.0411 52.8615 38.0596 53.0026 38.098C52.779 37.7366 52.5951 37.4196 52.289 37.1988C51.9018 36.9195 51.6067 36.513 51.1314 36.3542C50.9334 36.0162 50.5145 35.9739 50.2604 35.6941C50.0284 35.4387 49.7262 35.2454 49.4501 35.0314C49.1989 34.8369 48.9933 34.5692 48.6462 34.5217C48.5993 34.5148 48.5579 34.4627 48.515 34.4302C48.237 34.2186 47.9871 33.9369 47.6746 33.8125C47.3389 33.6787 47.1138 33.378 46.7826 33.2871C46.4364 33.1917 46.2252 32.8534 45.8556 32.8261C45.5381 32.5795 45.1832 32.3961 44.8312 32.2035C44.2015 31.8611 43.5805 31.5083 42.9177 31.2271C42.3072 30.9681 41.7172 30.6595 41.1163 30.3769C40.9726 30.3093 40.8235 30.2506 40.6725 30.2006C40.4929 30.1414 40.4084 30.182 40.3682 30.3364C40.3209 30.518 40.2933 30.7058 40.2334 30.8823C39.9523 31.7143 39.6133 32.5268 39.2004 33.2979C38.9522 33.7617 38.6907 34.2293 38.3683 34.6567C37.9679 35.1888 37.4375 35.625 37.1681 36.2551C36.9095 36.3443 36.8428 36.5756 36.7276 36.79C36.6473 36.94 36.4362 37.0136 36.3116 37.1473C36.0372 37.4423 35.7786 37.7525 35.5167 38.06C34.9535 38.7216 34.3408 39.31 33.3249 39.9826C33.0592 40.3092 32.6704 40.4404 32.3053 40.5942C31.6917 40.8523 31.1063 41.1704 30.4677 41.3779C29.8305 41.5846 29.1904 41.7559 28.5281 41.8458C28.1821 41.8929 27.8336 41.9291 27.4869 41.9722C26.468 42.0983 25.4559 41.9794 24.4479 41.8572C23.3586 41.725 22.2892 41.4746 21.2625 41.0846C20.8122 40.9137 20.352 40.7837 19.8952 40.6384C19.3356 40.4603 18.748 40.3553 18.2073 40.1337C17.5218 39.8531 16.8248 39.5798 16.1931 39.1857C15.9003 39.003 15.5576 38.9139 15.2976 38.6662C15.0652 38.4442 14.8002 38.2557 14.5467 38.0559C14.4005 37.9404 14.2697 37.8034 14.0742 37.7599C14.0045 37.7441 13.9156 37.6852 13.8906 37.6239C13.7947 37.384 13.5908 37.2506 13.4117 37.0907C12.8615 36.599 12.479 35.9988 12.2615 35.2939C12.0959 34.7584 11.9313 34.2224 11.8952 33.657C11.8689 33.2562 11.6879 32.8851 11.6909 32.471C11.693 32.1775 11.6819 31.8852 11.7149 31.5919C11.8045 30.7946 11.9726 30.0171 12.3055 29.2836C12.4585 28.9458 12.6299 28.6158 12.8075 28.2898C13.0105 27.9163 13.1553 27.5061 13.4665 27.1968C13.7911 26.4409 14.3808 25.8824 14.9041 25.2758C15.3106 24.8041 16.0137 24.2785 16.6037 23.9743C16.9343 23.8038 17.2676 23.6423 17.6218 23.5185C18.0476 23.3697 18.4864 23.231 18.8146 22.8819C18.9008 22.7902 19.0477 22.7539 19.1687 22.6987C19.8504 22.3897 20.5369 22.1023 21.2709 21.9266C22.6551 21.5957 24.043 21.3304 25.4771 21.3856C26.0109 21.4059 26.5475 21.3598 27.0821 21.3767C27.9893 21.4059 28.8988 21.3959 29.7955 21.5997C30.367 21.7296 30.9558 21.7824 31.5358 21.8764C32.8314 22.0868 34.1089 22.3736 35.3558 22.7873C35.4054 22.8038 35.4624 22.7969 35.5156 22.805C35.6027 22.8185 35.6857 22.7524 35.6697 22.6811C35.6581 22.6289 35.6564 22.5729 35.6366 22.524C35.2424 21.558 34.8252 20.6019 34.2605 19.7205C33.903 19.1629 33.5426 18.6047 33.1513 18.0706C32.901 17.7291 32.6125 17.4091 32.3009 17.1223C31.9853 16.8321 31.8105 16.4278 31.4429 16.1764C31.0902 15.9348 30.7284 15.6653 30.4745 15.3296C29.9127 14.5876 29.1411 14.0914 28.4582 13.4934C28.0588 13.144 27.6901 12.74 27.1592 12.5671C27.0874 12.5442 27.026 12.4766 26.9698 12.4196C26.4769 11.9144 25.7859 11.6959 25.2627 11.2349C24.8085 11.0735 24.4296 10.7648 23.9851 10.5839C23.1732 10.2529 22.4009 9.83097 21.5384 9.61464C20.9183 9.45889 20.3171 9.22987 19.6722 9.18538C18.9896 8.87149 18.21 8.90252 17.5269 8.57399C17.2668 8.44889 16.9601 8.4223 16.677 8.34404C16.4711 8.28716 16.2668 8.22353 16.0656 8.15301C15.9523 8.11284 15.9088 7.97611 15.9621 7.89793C16.0208 7.81156 16.0945 7.83068 16.1748 7.84663C16.222 7.85638 16.2716 7.85341 16.3196 7.85574C16.2967 7.80896 16.2787 7.75954 16.2503 7.71692C16.1501 7.56579 15.9575 7.60024 15.8278 7.50866C15.8087 7.49532 15.7842 7.45197 15.7883 7.44867C15.8193 7.41654 15.8611 7.36252 15.8923 7.36707C16.3402 7.42951 16.7865 7.50201 17.2343 7.563C17.2574 7.56608 17.2952 7.48782 17.3188 7.44349C17.3247 7.43158 17.3044 7.3897 17.2906 7.3869C17.1076 7.34853 16.924 7.31499 16.74 7.28112C16.5568 7.24792 16.3696 7.22755 16.192 7.17475C16.1323 7.15658 16.0849 7.06096 16.0558 6.99013C16.0272 6.92036 16.0178 6.80739 16.1185 6.80061C16.4543 6.77871 16.7249 6.62607 16.9901 6.43462C17.3087 6.20427 17.659 6.14326 18.0575 6.23509C18.604 6.36106 19.1732 6.33007 19.7276 6.44248C20.8796 6.6763 22.0644 6.75226 23.196 7.08226C24.7044 7.52179 26.2016 7.99572 27.5947 8.75135C27.8737 8.90304 28.1393 9.09482 28.435 9.19912C28.7281 9.30329 28.9148 9.56122 29.1783 9.66216C29.7388 9.87608 30.1168 10.3721 30.6808 10.5707C30.8013 10.6128 30.8964 10.728 30.9995 10.8135C31.7864 11.4654 32.5581 12.1362 33.3638 12.764C33.982 13.2452 34.4804 13.8432 35.0088 14.4043C35.6236 15.0573 36.2639 15.7112 36.6589 16.5424C37.2845 17.2461 37.6369 18.1218 38.1405 18.9021C38.2043 19.3909 38.5538 19.7646 38.675 20.234C38.7416 20.4906 38.865 20.7347 38.9781 20.9768C39.3979 21.8758 39.7627 22.7956 40.0322 23.751C40.0471 23.8018 40.0888 23.8454 40.0992 23.8966C40.15 24.1615 40.3124 24.3108 40.5613 24.4016C41.0611 24.5843 41.5538 24.7859 42.0509 24.9757C42.5724 25.1744 43.1029 25.3518 43.6161 25.5692C44.3498 25.88 45.0852 26.1936 45.7954 26.5535C46.4841 26.9028 47.2114 27.1664 47.886 27.5438C47.9788 27.5958 48.0866 27.6232 48.1717 27.6843C48.8239 28.1474 49.5486 28.481 50.254 28.8483C50.2775 28.8605 50.3095 28.8617 50.3276 28.8788C50.7628 29.2845 51.3602 29.4456 51.7959 29.8517C51.8743 29.9247 51.9558 30.011 52.0524 30.0446C52.5771 30.2258 52.9338 30.644 53.3651 30.9561C53.6874 31.1898 53.9472 31.5095 54.3565 31.6239C54.4759 31.6576 54.57 31.7829 54.6735 31.8687C55.1483 32.265 55.6224 32.6622 56.0977 33.0588C56.2409 33.1786 56.4091 33.2788 56.4631 33.4755C56.5141 33.6604 56.7617 33.5803 56.824 33.7524C56.9017 33.9683 57.1023 34.0734 57.2627 34.2129C57.925 34.7889 58.5748 35.5991 58.9893 36.3926C59.2975 36.9833 59.6086 37.569 59.7474 38.2357C59.8111 38.5425 59.9718 38.8372 60.1301 39.1139C60.5618 39.8657 60.8823 40.6514 60.9579 41.5235C60.9759 41.7286 61.0834 41.8765 61.2506 41.9805C61.521 42.148 61.8031 42.2976 62.069 42.4714C62.3379 42.6463 62.5781 42.8734 62.8619 43.017C63.0564 43.1156 63.2315 43.2303 63.4026 43.3579C63.8307 43.6754 64.1984 44.0765 64.7142 44.2738C64.8335 44.319 64.9249 44.4379 65.028 44.5241C66.2455 45.5414 67.463 46.5587 68.6798 47.5767C68.8635 47.731 69.0235 47.8985 69.1634 48.1044C69.3252 48.3422 69.5765 48.5253 69.809 48.7069C70.2557 49.0561 70.5258 49.5651 70.9483 49.9345C71.0293 50.2415 71.3792 50.3447 71.4833 50.6232C71.5808 50.8847 71.8334 51.0163 71.9473 51.2727C72.0636 51.5343 72.2923 51.7437 72.4462 51.9918C72.9392 52.7855 73.393 53.5997 73.6985 54.4894C73.8021 54.7904 73.9328 55.0823 74.0546 55.3776C74.0631 55.3982 74.0932 55.4146 74.1171 55.4231C74.1885 55.4505 74.2168 55.4215 74.2199 55.3453C74.2465 54.6773 74.3197 54.0118 74.2829 53.3407C74.2638 52.9951 74.2937 52.6474 74.2994 52.3003C74.3102 51.6312 74.336 50.9618 74.3229 50.293C74.3172 49.995 74.4659 49.9172 74.7061 49.8975C74.8424 49.8868 74.8789 49.7933 74.8893 49.6841C74.8995 49.58 74.9238 49.4655 74.8924 49.3725C74.8344 49.2007 74.8974 49.0512 74.9421 48.9018C75.0315 48.6038 75.3312 48.5018 75.5767 48.6862C75.7699 48.8308 75.9473 48.9967 76.1343 49.1504C76.2148 49.217 76.2998 49.3225 76.4097 49.2748C76.5147 49.2291 76.5177 49.1062 76.5082 48.9959C76.4929 48.8078 76.4798 48.6203 76.4726 48.4322C76.4658 48.2702 76.5421 48.158 76.6701 48.1242C76.852 48.0767 77.0848 48.1925 77.1222 48.3606C77.1571 48.5172 77.173 48.6788 77.2004 48.8372C77.2227 48.9677 77.2475 49.0976 77.277 49.2268C77.2822 49.248 77.3119 49.2688 77.335 49.2807C77.3999 49.312 77.4283 49.2893 77.4503 49.2308C77.5793 48.887 77.5033 48.5377 77.4733 48.1931C77.4508 47.933 77.5242 47.7308 77.6814 47.5266C77.8353 47.3263 78.0238 47.2871 78.2486 47.3045C78.3277 47.3106 78.3899 47.3201 78.4446 47.4023C78.5937 47.6254 78.7247 47.8428 78.7366 48.1284C78.757 48.6112 78.8146 49.0929 78.8489 49.5751C78.8621 49.7601 78.9479 49.8831 79.1219 49.9241C79.2536 49.9553 79.3792 49.9801 79.4927 50.0636C79.7182 50.2292 79.8628 50.4175 79.8919 50.7196C79.9502 51.3109 79.9347 51.9019 79.9004 52.4887C79.8381 53.5589 79.8469 54.6279 79.8389 55.6984C79.8336 56.3714 79.878 57.0374 79.9234 57.7063C79.9776 58.5113 80.0902 59.303 80.3263 60.0775C80.3882 60.2809 80.3899 60.5021 80.4253 60.7137C80.4873 61.083 80.4936 61.4584 80.6049 61.8243C80.7155 62.1878 80.662 62.5711 80.6168 62.9452C80.6042 63.0465 80.5721 63.1599 80.5109 63.2395C79.9978 63.9065 80.091 63.9635 79.0023 63.8547Z" fill="#2063AC"/>
</g>
</svg>
