<svg width="82" height="58" viewBox="0 0 82 58" fill="none" xmlns="http://www.w3.org/2000/svg">
<g style="mix-blend-mode:multiply" opacity="0.15">
<path d="M49.7561 33.4289C49.7363 33.4314 49.7007 33.4317 49.6997 33.4368C49.689 33.5008 49.7164 33.5191 49.7711 33.4845C49.7761 33.4815 49.7617 33.4481 49.7561 33.4289ZM51.0816 33.8205L51.1127 33.8723L51.1425 33.8296L51.0816 33.8205ZM54.4456 34.8423C54.4254 34.8456 54.3891 34.8462 54.3874 34.8537C54.374 34.9196 54.4019 34.9382 54.4578 34.9003C54.4638 34.8962 54.4503 34.8621 54.4456 34.8423ZM62.399 38.6901C62.3806 38.6922 62.3484 38.6915 62.3478 38.6968C62.3372 38.7563 62.3624 38.7735 62.4139 38.7417C62.4182 38.7389 62.4044 38.7075 62.399 38.6901ZM55.7621 35.2341L55.7932 35.2836L55.8212 35.2434L55.7621 35.2341ZM64.2732 39.2017L64.2445 39.1518L64.2152 39.1936L64.2732 39.2017ZM58.5343 36.0334L58.5812 36.0104L58.5364 35.9784L58.5343 36.0334ZM65.4647 39.5121L65.5137 39.4873L65.4699 39.4564L65.4647 39.5121ZM15.3004 10.432L15.2686 10.3804L15.2398 10.4225L15.3004 10.432ZM72.4339 37.928L72.4882 37.9038L72.4398 37.8688L72.4339 37.928ZM66.5463 32.823L66.4992 32.8487L66.5403 32.8782L66.5463 32.823ZM12.451 24.7442C12.4738 24.7393 12.4963 24.7349 12.5193 24.7307C12.5138 24.7082 12.5146 24.6789 12.5002 24.6657C12.4915 24.6577 12.4489 24.6673 12.4413 24.6807C12.4334 24.6945 12.4475 24.7221 12.451 24.7442ZM44.3375 31.7169C44.3586 31.7152 44.3791 31.7136 44.3991 31.7118C44.3926 31.6932 44.3916 31.6663 44.3783 31.6576C44.3665 31.6491 44.3411 31.6599 44.322 31.6622C44.3274 31.6807 44.3323 31.6991 44.3375 31.7169ZM44.8231 31.8009L44.8759 31.7732L44.827 31.7401L44.8231 31.8009ZM48.0317 32.8514C47.9956 32.8582 47.9596 32.8656 47.9237 32.8731C47.9508 32.9059 47.9725 32.951 48.0075 32.9666C48.0341 32.979 48.078 32.9543 48.1141 32.9464C48.0866 32.9145 48.0595 32.8828 48.0317 32.8514ZM65.9781 32.4727C66.0216 32.467 66.0641 32.4607 66.1074 32.4543C66.0889 32.4148 66.0804 32.3638 66.0501 32.3383C65.9863 32.2856 65.8845 32.3117 65.8993 32.3666C65.91 32.4071 65.9509 32.4381 65.9781 32.4727ZM25.9562 24.9139C25.9149 24.9134 25.8731 24.9128 25.8318 24.9124C25.8393 24.9365 25.8405 24.9747 25.8553 24.9808C25.898 24.9988 25.9461 25.0034 25.9923 25.0137C25.9806 24.9806 25.9684 24.9472 25.9562 24.9139ZM53.6003 34.561C53.567 34.5698 53.5342 34.5789 53.5013 34.588C53.5284 34.6196 53.5497 34.6634 53.5843 34.6788C53.6094 34.6898 53.6508 34.6633 53.685 34.6538C53.657 34.6228 53.629 34.5918 53.6003 34.561ZM6.04349 13.3247C6.12411 13.389 6.23368 13.376 6.2923 13.2829C6.30977 13.255 6.29688 13.1708 6.28362 13.1672C6.17892 13.139 6.09088 13.1846 6.01825 13.2575C6.01122 13.2645 6.0342 13.3018 6.04349 13.3247ZM52.5546 34.3308C52.6006 34.3511 52.6454 34.3747 52.6929 34.389C52.7141 34.3956 52.7417 34.3827 52.7666 34.379C52.7536 34.3429 52.7499 34.2967 52.7246 34.2732C52.6898 34.2403 52.6412 34.2142 52.5942 34.2034C52.555 34.1946 52.51 34.2118 52.4674 34.2181C52.4967 34.2553 52.5256 34.293 52.5546 34.3308ZM23.0768 11.9589C23.1494 11.9297 23.2181 11.9047 23.2843 11.8739C23.3003 11.866 23.3209 11.8269 23.3172 11.8233C23.2861 11.7907 23.2532 11.7464 23.2137 11.7363C23.1337 11.7166 23.0683 11.763 23.0379 11.8345C23.0264 11.8616 23.0595 11.9076 23.0768 11.9589ZM42.1614 30.7949C42.0993 30.77 42.0282 30.7399 41.9988 30.8266C41.9907 30.8504 42.0473 30.906 42.0848 30.9319C42.1237 30.9592 42.1744 30.9791 42.2212 30.983C42.2525 30.9854 42.2869 30.9553 42.3196 30.94C42.3088 30.918 42.3022 30.8898 42.2852 30.8753C42.2468 30.8449 42.2031 30.8213 42.1614 30.7949ZM43.5469 31.3371C43.5008 31.3179 43.4562 31.2876 43.4094 31.2837C43.3759 31.2812 43.3377 31.3122 43.3061 31.3338C43.3025 31.3363 43.3186 31.3847 43.3356 31.3981C43.3745 31.4287 43.418 31.455 43.4633 31.4744C43.5223 31.4998 43.5964 31.536 43.628 31.4483C43.6368 31.4243 43.5763 31.375 43.5469 31.3371ZM51.9397 34.0265C51.8928 34.0058 51.8473 33.9813 51.7985 33.9663C51.7765 33.9591 51.7484 33.9719 51.7232 33.976C51.7391 34.013 51.7461 34.0605 51.7734 34.0855C51.8097 34.1187 51.8603 34.1442 51.9085 34.155C51.947 34.164 51.9918 34.1461 52.0339 34.1396C52.0027 34.1019 51.9709 34.0643 51.9397 34.0265ZM77.4801 41.4555C77.477 41.4326 77.4807 41.3947 77.4686 41.3889C77.3751 41.3436 77.2879 41.3706 77.2181 41.4382C77.2054 41.4506 77.2249 41.5255 77.248 41.5393C77.3371 41.5907 77.4401 41.5484 77.4801 41.4555ZM42.957 31.1622C42.953 31.1399 42.956 31.1044 42.9437 31.098C42.8523 31.0498 42.7656 31.0727 42.6936 31.138C42.6829 31.1476 42.704 31.2204 42.7275 31.2345C42.819 31.2877 42.924 31.2504 42.957 31.1622ZM66.9823 30.7227C67.0986 30.8002 67.3293 30.7533 67.3558 30.6443C67.3597 30.6273 67.3411 30.5945 67.3236 30.583C67.2058 30.5092 67.0893 30.5343 66.984 30.6074C66.9656 30.6201 66.9818 30.6831 66.9823 30.7227ZM18.2689 21.5328C18.2143 21.5108 18.1476 21.4807 18.0783 21.4577C18.0585 21.4506 18.0308 21.4647 18.0065 21.4693C18.0164 21.5059 18.0146 21.5617 18.038 21.5768C18.1404 21.6414 18.2497 21.6961 18.3585 21.7495C18.3754 21.7579 18.4051 21.7398 18.429 21.7339C18.4203 21.6973 18.4212 21.6529 18.4 21.6271C18.3689 21.5911 18.3214 21.5695 18.2689 21.5328ZM17.3843 21.0799C17.4736 21.1213 17.5404 21.1565 17.6107 21.1828C17.6303 21.1903 17.6612 21.1786 17.6832 21.1677C17.6938 21.1626 17.705 21.1348 17.7001 21.1261C17.6345 21.0034 17.3544 20.8553 17.2618 20.8947C17.2517 20.8989 17.2408 20.9313 17.2462 20.937C17.2946 20.9911 17.3471 21.0417 17.3843 21.0799ZM39.7004 30.0248C39.7703 29.9465 39.7189 29.8959 39.6572 29.8522C39.5852 29.8013 39.523 29.8202 39.4705 29.8869C39.4094 29.9647 39.4451 30.0172 39.5144 30.0626C39.5897 30.1124 39.6497 30.0935 39.7004 30.0248ZM48.82 33.2368C48.8858 33.2675 48.9538 33.3067 49.0269 33.3289C49.0538 33.3375 49.0931 33.3054 49.1267 33.2917C49.1145 33.2701 49.107 33.2386 49.089 33.2291C48.9753 33.1721 48.8607 33.1179 48.7442 33.0672C48.7242 33.0584 48.6939 33.0722 48.6681 33.0754C48.6767 33.0996 48.6787 33.1309 48.6957 33.1466C48.7321 33.1798 48.7753 33.2054 48.82 33.2368ZM21.3843 12.4719C21.5325 12.4197 21.675 12.3707 21.8159 12.3175C21.8304 12.3122 21.8453 12.2808 21.8428 12.2643C21.8397 12.2436 21.8232 12.213 21.8056 12.2071C21.6238 12.1473 21.3935 12.2359 21.3612 12.3772C21.3566 12.3978 21.3718 12.4232 21.3843 12.4719ZM40.1812 30.2853C40.2533 30.3148 40.3431 30.3542 40.4354 30.3877C40.4557 30.395 40.4833 30.381 40.5072 30.3772C40.4997 30.3402 40.5043 30.2825 40.4834 30.271C40.3346 30.1881 40.1809 30.1133 40.0267 30.0394C40.0082 30.0308 39.9793 30.0442 39.9552 30.0473C39.9636 30.0825 39.9597 30.1304 39.9813 30.1502C40.0358 30.198 40.1019 30.2334 40.1812 30.2853ZM22.682 10.9628C22.8682 10.7606 23.0221 10.7199 23.1724 10.67C23.1955 10.6624 23.2152 10.6453 23.2359 10.6315C23.2821 10.6014 23.2883 10.5575 23.2472 10.5078C23.2329 10.4902 23.2034 10.4758 23.181 10.4758C22.9096 10.4731 22.8618 10.5126 22.682 10.9628ZM70.5427 39.5623C70.6684 39.5549 70.7959 39.5558 70.9196 39.5351C70.9548 39.529 71.002 39.4629 71.0037 39.4222C71.0056 39.3845 70.962 39.3245 70.9241 39.3091C70.77 39.2458 70.6268 39.2703 70.5304 39.4172C70.5116 39.4465 70.5366 39.5046 70.5427 39.5623ZM23.8056 23.7515L23.8015 23.7595C23.6899 23.7007 23.5801 23.6373 23.4648 23.5866C23.4406 23.5761 23.3965 23.6119 23.362 23.6262C23.3733 23.6485 23.3793 23.6808 23.3973 23.6914C23.5953 23.8013 23.7947 23.9108 23.9979 24.0122C24.0187 24.0226 24.0678 23.9839 24.0978 23.961C24.1037 23.9562 24.0888 23.9046 24.0717 23.8944C23.9859 23.8431 23.8948 23.7985 23.8056 23.7515ZM23.7605 10.5402C23.8713 10.5749 24.0599 10.4929 24.1027 10.3988C24.12 10.3607 24.123 10.291 24.0998 10.2648C24.0262 10.1828 23.7287 10.1978 23.7002 10.2934C23.678 10.3687 23.7407 10.4691 23.7605 10.5402ZM41.2023 30.6305C41.2032 30.6287 41.2046 30.6261 41.2055 30.6243C41.3391 30.6947 41.4716 30.7661 41.6068 30.8334C41.625 30.8425 41.6769 30.8282 41.6772 30.8222C41.6802 30.7856 41.6855 30.7244 41.6666 30.7145C41.4234 30.5836 41.1766 30.4587 40.9283 30.3386C40.9103 30.3302 40.8655 30.3695 40.8388 30.3925C40.8338 30.3966 40.853 30.4432 40.8706 30.4536C40.9795 30.5154 41.0916 30.5722 41.2023 30.6305ZM68.3171 31.3257C68.1113 31.1197 67.9275 31.0083 67.7021 30.9642C67.6817 30.9602 67.6465 30.9675 67.6382 30.9811C67.6271 31 67.6298 31.0322 67.6364 31.0559C67.6708 31.1813 67.7173 31.304 67.8694 31.3179C67.9934 31.3298 68.1197 31.3234 68.3171 31.3257ZM20.3392 20.2853C20.7745 20.5853 21.0744 20.7556 21.3887 20.9037C21.4094 20.9135 21.4367 20.9138 21.4601 20.9121C21.4848 20.91 21.5079 20.9002 21.5322 20.8934C21.5218 20.8705 21.5187 20.8391 21.501 20.8259C21.4225 20.766 21.3467 20.6936 21.257 20.6592C21.0069 20.5629 20.7917 20.3788 20.3392 20.2853ZM71.6654 40.0289C71.7554 40.0561 71.8701 40.0985 71.9891 40.1208C72.0152 40.1256 72.0583 40.0641 72.0862 40.0271C72.0971 40.0127 72.0963 39.9769 72.0858 39.9607C71.9377 39.7463 71.73 39.661 71.5223 39.7335C71.4829 39.7476 71.4507 39.7896 71.4235 39.8252C71.4165 39.8344 71.436 39.8761 71.4537 39.8894C71.5128 39.9339 71.5775 39.972 71.6654 40.0289ZM25.5824 24.7967C25.5923 24.7693 25.6013 24.7416 25.6112 24.7142C25.2367 24.513 24.8633 24.3108 24.4869 24.1131C24.4474 24.0923 24.3566 24.0866 24.3471 24.1046C24.3066 24.1826 24.379 24.2253 24.4328 24.2542C24.7665 24.4316 25.1023 24.6051 25.4397 24.7755C25.4804 24.7963 25.5343 24.7899 25.5824 24.7967ZM77.0779 40.2357C77.1671 40.3051 77.263 40.3426 77.3608 40.2965C77.473 40.2433 77.5852 40.1806 77.6756 40.0974C77.7134 40.0629 77.7088 39.9628 77.6951 39.8983C77.6882 39.8678 77.6071 39.8245 77.572 39.8335C77.4043 39.8771 77.2384 39.93 77.0764 39.9924C76.9808 40.0301 76.9894 40.1767 77.0779 40.2357ZM69.7776 40.7955C69.9613 40.8507 70.1109 41.0216 70.3258 41.0079C70.3959 41.0038 70.4638 40.9548 70.5324 40.9258C70.4911 40.8732 70.4509 40.7768 70.4078 40.7755C70.065 40.7645 69.7867 40.5875 69.4926 40.4478C69.4508 40.4281 69.3995 40.4252 69.3523 40.42C69.2898 40.4129 69.2494 40.4438 69.2483 40.5066C69.2474 40.5488 69.2633 40.6285 69.2706 40.6284C69.4571 40.625 69.6111 40.7151 69.7776 40.7955ZM37.9001 29.4583C38.2112 29.5795 38.4848 29.7826 38.8454 29.7608C38.9353 29.7554 39.0291 29.8458 39.1257 29.8798C39.1533 29.8893 39.1977 29.856 39.2312 29.8361C39.2346 29.8339 39.2205 29.7765 39.204 29.7695C38.9718 29.6647 38.7743 29.4663 38.5086 29.4572C38.2888 29.4492 38.1185 29.3528 37.9375 29.2541C37.8046 29.1813 37.6577 29.1342 37.5151 29.0799C37.495 29.0721 37.466 29.0888 37.4406 29.0945C37.4474 29.1178 37.446 29.1524 37.4615 29.1634C37.6063 29.2638 37.7535 29.3604 37.9001 29.4583ZM63.517 45.8505C63.6358 45.8541 63.7741 45.8972 63.875 45.8538C64.2003 45.7136 64.5127 45.5414 64.8294 45.3803C64.8516 45.369 64.8847 45.3488 64.8857 45.332C64.8875 45.2914 64.8786 45.2474 64.8627 45.2093C64.8545 45.1898 64.8208 45.1653 64.8014 45.168C64.3102 45.2321 63.899 45.4736 63.5109 45.7619C63.5001 45.7686 63.5132 45.8075 63.517 45.8505ZM6.42118 12.1642C6.39658 12.1512 6.37135 12.1256 6.35194 12.1294C5.82664 12.2305 5.31329 12.376 4.82146 12.5863C4.64974 12.6597 4.54221 12.8288 4.5554 13.0147C4.56565 13.1605 4.64598 13.3021 4.70502 13.4415C4.71114 13.4566 4.80167 13.4616 4.82143 13.4411C4.87277 13.3873 4.91771 13.3212 4.9456 13.2522C5.12106 12.8114 5.46325 12.5763 5.90288 12.4502C6.07408 12.4012 6.23985 12.3358 6.40751 12.2754C6.42609 12.2689 6.44903 12.2445 6.44962 12.2274C6.45006 12.2063 6.43055 12.1837 6.42118 12.1642ZM21.8762 22.7343C21.8738 22.7387 21.8718 22.7426 21.8695 22.747C22.1656 22.903 22.4615 23.0605 22.7591 23.215C22.8733 23.274 22.9909 23.3269 23.1093 23.3781C23.1284 23.3865 23.1583 23.3713 23.1828 23.3674C23.1747 23.3306 23.1784 23.2736 23.1562 23.2602C22.7769 23.0414 22.3539 22.8759 22.0234 22.5997C21.6645 22.2995 21.2797 22.0615 20.876 21.8388C20.8312 21.8141 20.7744 21.7931 20.749 21.7539C20.5713 21.4763 20.2789 21.3537 20.0063 21.2191C19.5177 20.9787 19.164 20.5493 18.6781 20.3103C18.4992 20.0393 18.1507 19.9719 17.9564 19.7495C17.7418 19.5046 17.4701 19.3789 17.2185 19.2076C17.155 19.1641 17.0658 19.1351 17.0322 19.0753C16.8601 18.7669 16.4907 18.7009 16.2759 18.4289C16.0753 18.1745 15.7374 18.0297 15.5321 17.7779C15.3274 17.5269 15.0329 17.419 14.816 17.202C14.4207 16.8069 14.0233 16.4147 13.6228 16.0253C13.4047 15.8127 13.182 15.6045 12.9541 15.4031C12.9 15.3556 12.8157 15.3398 12.7436 15.3158C12.7228 15.3094 12.691 15.3207 12.6708 15.3336C12.6602 15.3409 12.6536 15.3779 12.661 15.3863C12.8712 15.6053 13.0803 15.8254 13.2955 16.0392C13.7285 16.4693 14.1166 16.9432 14.5836 17.3395C15.0491 17.7346 15.4665 18.1817 15.9254 18.585C16.328 18.9385 16.7266 19.2921 17.1727 19.5888C17.3592 19.8879 17.7227 19.9705 17.9482 20.2009C18.2104 20.4693 18.5335 20.6147 18.8349 20.8054C18.922 20.8608 19.0361 20.8923 19.0965 20.9673C19.3321 21.2598 19.6616 21.4153 19.9804 21.572C20.3315 21.744 20.6037 22.0159 20.9221 22.2246C21.2232 22.4213 21.5571 22.5663 21.8762 22.7343ZM21.8266 21.1989C21.8459 21.3572 21.982 21.3812 22.0812 21.4379C22.4173 21.629 22.7569 21.8123 23.0955 21.9985C23.3318 22.3693 23.7459 22.4858 24.0971 22.6876C24.5664 22.9572 25.0513 23.1991 25.5292 23.4536C25.6654 23.5264 25.8452 23.5706 25.9257 23.6843C26.1343 23.9777 26.453 24.0877 26.7426 24.2425C28.2669 25.0548 29.7962 25.8579 31.3252 26.6625C31.5075 26.7586 31.6875 26.8708 31.883 26.9271C32.4449 27.0889 32.9575 27.3572 33.4731 27.622C33.6318 27.7033 33.7996 27.8142 33.9666 27.8201C34.1368 27.8261 34.2099 27.9719 34.3686 27.9903C34.5377 28.0103 34.6963 28.1247 34.8575 28.2023C35.2059 28.369 35.5385 28.6019 35.9059 28.6876C36.2142 28.7597 36.4832 28.8811 36.7594 29.012C36.8729 29.0661 36.9969 29.0983 37.1171 29.1364C37.1299 29.1409 37.1646 29.1187 37.1646 29.1092C37.1644 29.0849 37.1568 29.0472 37.1401 29.0384C36.6414 28.7713 36.142 28.5067 35.6422 28.2418C35.0355 28.1714 34.5589 27.7953 34.0255 27.5526C33.8383 27.4669 33.6629 27.3139 33.4701 27.2909C32.9897 27.2333 32.6138 26.9579 32.199 26.7629C31.966 26.6532 31.7392 26.5298 31.5106 26.4105C31.2595 26.2788 31.0097 26.1445 30.7593 26.0126C30.5312 25.8925 30.3016 25.7744 30.0742 25.654C29.8468 25.5337 29.6215 25.4083 29.3918 25.2913C29.1426 25.1645 28.9125 24.9811 28.6084 25C28.4743 24.7537 28.2155 24.6696 27.9889 24.5637C27.7617 24.457 27.5689 24.255 27.2832 24.2774C27.2205 24.2825 27.121 24.238 27.0923 24.187C26.9814 23.9882 26.7822 23.9232 26.6029 23.8276C25.6934 23.3419 24.7826 22.8589 23.8729 22.3736C23.7371 22.301 23.5712 22.2462 23.483 22.1335C23.3497 21.9634 23.1904 21.8492 23.0062 21.7544C22.7996 21.649 22.5984 21.5335 22.388 21.4362C22.2061 21.351 22.0533 21.1914 21.8266 21.1989ZM19.0732 22.3162C19.0702 22.2697 19.0855 22.2065 19.0612 22.1791C18.9419 22.0444 18.7998 21.9454 18.6008 21.9748C18.6936 22.1887 18.9102 22.2197 19.0835 22.3126C19.0757 22.3371 19.054 22.3751 19.0629 22.3848C19.3025 22.6429 19.5457 22.9057 19.8554 23.0744C20.4869 23.4177 20.9945 23.9533 21.6669 24.2316C21.7125 24.2506 21.7678 24.2797 21.7887 24.3199C21.9205 24.5717 22.1824 24.6446 22.4043 24.7626C24.4962 25.8765 26.5906 26.9846 28.6863 28.0911C28.9594 28.2355 29.2411 28.3636 29.5204 28.4961C29.54 28.5059 29.5698 28.4929 29.5952 28.4906C29.5884 28.4545 29.5933 28.4003 29.5718 28.3857C29.4875 28.3273 29.3952 28.2798 29.3045 28.2314C28.0074 27.5427 26.709 26.8567 25.4124 26.166C24.9124 25.8993 24.4104 25.6344 23.9231 25.3457C23.6247 25.1684 23.3725 24.9205 23.0581 24.7617C22.7133 24.5874 22.376 24.3985 22.0378 24.2114C21.858 24.1117 21.6407 24.0382 21.5173 23.889C21.3257 23.6579 21.0726 23.546 20.831 23.4036C20.6755 23.3121 20.485 23.2517 20.3713 23.1233C20.0141 22.7219 19.5286 22.5471 19.0732 22.3162ZM10.3476 12.2949C10.2785 12.2664 10.2005 12.2012 10.1425 12.2155C9.88005 12.2811 9.59182 12.2752 9.36753 12.4613C9.08335 12.3476 8.83332 12.4163 8.60654 12.6039C8.58935 12.6184 8.5697 12.6546 8.57652 12.6683C8.59721 12.709 8.62676 12.7723 8.65868 12.7756C8.94704 12.8068 9.20337 12.7453 9.37331 12.4823C9.73877 12.5547 9.88427 12.5235 10.3405 12.2743C10.3853 12.2648 10.4797 12.3617 10.4619 12.2176C10.4233 12.2439 10.3853 12.2693 10.3476 12.2949ZM73.3689 38.6466C73.3654 38.601 73.3795 38.5326 73.3555 38.5144C73.2398 38.4271 73.115 38.3518 72.9904 38.2761C72.975 38.2669 72.925 38.2809 72.923 38.29C72.9174 38.3241 72.9113 38.3826 72.9288 38.393C73.0756 38.4809 73.2274 38.5603 73.3776 38.6428C73.3771 38.6897 73.3556 38.7592 73.3783 38.7801C73.5481 38.9363 73.7421 39.0486 74.0615 39.09C73.8196 38.8598 73.6065 38.7347 73.3689 38.6466ZM45.6393 32.1067C45.4825 32.0314 45.3264 31.9548 45.1677 31.8831C45.1492 31.8745 45.1191 31.8912 45.0946 31.8962C45.1021 31.9181 45.1037 31.9492 45.1194 31.9609C45.2728 32.0714 45.4125 32.2443 45.6321 32.0884C45.6788 32.0882 45.7252 32.0885 45.7719 32.0884C45.7647 32.0689 45.758 32.0497 45.7509 32.0302C45.7139 32.0556 45.6765 32.0808 45.6393 32.1067ZM46.5345 32.4042C46.423 32.3516 46.3124 32.2973 46.1995 32.2485C46.1807 32.2403 46.1511 32.2572 46.1263 32.2627C46.134 32.2842 46.1361 32.3122 46.1507 32.3272C46.2615 32.4366 46.3772 32.5301 46.5271 32.384C46.5725 32.3843 46.6173 32.3844 46.6629 32.3842C46.657 32.3665 46.6507 32.3486 46.6445 32.3307C46.6077 32.3546 46.5712 32.3792 46.5345 32.4042ZM47.4291 32.6974C47.3156 32.6443 47.2035 32.5898 47.0883 32.5409C47.0692 32.5325 47.039 32.5503 47.0143 32.5558C47.0227 32.5782 47.0247 32.6073 47.0404 32.6223C47.1537 32.7302 47.2706 32.8289 47.4239 32.6817C47.4768 32.7006 47.5345 32.736 47.5621 32.6495C47.5637 32.6454 47.5283 32.6199 47.5227 32.6243C47.4891 32.6453 47.4597 32.6725 47.4291 32.6974ZM11.5452 17.65C11.4876 17.7572 11.539 17.8556 11.589 17.9409C12.4031 19.3367 13.154 20.7683 13.9975 22.1476C14.0838 22.2896 14.1077 22.4425 14.0196 22.5875C13.9109 22.7672 13.9533 22.904 14.0581 23.0782C14.1755 23.273 14.2303 23.5068 14.3021 23.7276C14.3525 23.8843 14.2759 24.0107 14.1044 24.0859C13.8362 24.204 13.6015 24.1433 13.4239 23.9403C13.2165 23.7031 13.0931 23.4226 12.9537 23.1471C12.924 23.0882 12.8331 23.0392 12.7553 23.0954C12.6939 23.1394 12.6466 23.2004 12.6619 23.2898C12.6979 23.4985 12.8001 23.6741 12.9164 23.8476C13.0732 24.0817 13.2045 24.3333 13.3681 24.562C13.4633 24.6947 13.5007 24.839 13.5375 24.9886C13.5711 25.1241 13.528 25.239 13.3667 25.2842C13.1575 25.3424 13.0681 25.4419 13.1062 25.6562C13.1241 25.7576 13.1219 25.8631 13.1458 25.9627C13.1993 26.1851 13.1114 26.3678 12.9984 26.544C12.9079 26.685 12.7708 26.7492 12.6072 26.7584C12.3352 26.7729 12.0991 26.7148 11.9744 26.4369C11.9321 26.3434 11.8919 26.247 11.836 26.1614C11.7021 25.9562 11.6462 25.6691 11.3087 25.6716C11.2567 25.6723 11.2094 25.5682 11.1501 25.5252C11.0236 25.4339 11.0166 25.2393 10.8324 25.1788C10.735 25.2358 10.6259 25.2968 10.5195 25.3626C10.3056 25.4958 10.0723 25.4656 9.84322 25.4381C9.77452 25.43 9.69083 25.3853 9.65043 25.3309C9.4966 25.1253 9.33406 24.9213 9.2171 24.6947C8.39082 23.0982 7.4456 21.5687 6.57323 19.998C6.22502 19.3706 5.82511 18.7721 5.44791 18.1604C5.43483 18.1383 5.41658 18.1186 5.40551 18.0959C5.04632 17.3573 4.53117 16.7133 4.13124 15.9997C4.04325 15.8428 3.96783 15.6791 3.87984 15.5221C3.7139 15.2265 3.74576 14.9273 3.86771 14.6328C3.92668 14.491 4.01059 14.3573 4.10009 14.2321C4.17219 14.1314 4.32412 14.1009 4.35753 13.9489C4.25324 13.7537 4.13951 13.5529 4.03633 13.347C3.8545 12.9835 3.99203 12.4559 4.34403 12.2714C4.63852 12.1172 4.9206 11.9301 5.2558 11.8574C5.70773 11.7592 6.12705 11.5321 6.60172 11.5144C6.66753 11.512 6.74313 11.4558 6.79399 11.404C7.26282 10.9252 7.83923 10.6759 8.49542 10.5831C8.673 10.5582 8.84788 10.5032 9.01881 10.4462C9.90342 10.1509 10.8259 10.0384 11.7389 9.89393C12.6254 9.75401 13.5216 9.66805 14.4159 9.58672C15.3609 9.50068 16.3081 9.42246 17.2558 9.38668C18.6667 9.33268 20.0783 9.28914 21.4872 9.19311C21.998 9.15789 22.5039 9.05104 23.012 8.97511C23.252 8.9393 23.4334 8.78451 23.6243 8.65547C23.7316 8.58286 23.8292 8.49673 23.9644 8.48825C24.0481 8.4829 24.1243 8.52139 24.1309 8.60794C24.1465 8.80976 24.1981 9.02612 23.9757 9.16493C23.9273 9.19502 23.9273 9.24944 23.9808 9.28323C24.0202 9.3085 24.0804 9.32842 24.1222 9.31731C24.2194 9.29048 24.3258 9.26229 24.4019 9.2008C24.5212 9.10535 24.6222 9.08837 24.7401 9.18749C24.837 9.26884 24.8192 9.36555 24.782 9.46607C24.7728 9.48987 24.7617 9.51318 24.7501 9.53626C24.6735 9.69126 24.6675 9.81887 24.8386 9.92978C25.012 10.0418 25.0456 10.2189 24.9696 10.4068C24.8735 10.6458 24.7859 10.891 24.5608 11.0509C24.5002 11.0936 24.4106 11.1615 24.4116 11.2159C24.4206 11.622 24.1013 11.9191 24.0684 12.3132C24.0416 12.6325 23.8559 12.8637 23.6245 13.0943C23.2512 13.4674 22.8457 13.7534 22.345 13.9197C22.0533 14.0164 21.7811 14.1699 21.4904 14.27C20.7318 14.5317 19.939 14.6451 19.149 14.7478C18.3117 14.8563 17.4676 14.9136 16.6262 14.9852C16.2937 15.0132 15.9594 15.0342 15.6258 15.0314C15.3928 15.0293 15.1872 15.0839 14.923 15.1816C15.422 15.5931 15.7953 16.0535 16.3268 16.3284C16.5336 16.4356 16.615 16.685 16.8501 16.7746C17.0403 16.8473 17.2133 16.9665 17.3357 17.1454C17.3764 17.2056 17.4466 17.2577 17.5151 17.2865C18.1387 17.5487 18.6572 17.9839 19.1839 18.382C19.8063 18.8523 20.4843 19.2072 21.1544 19.5859C21.1994 19.6112 21.2541 19.6266 21.2887 19.6622C21.8035 20.1938 22.5043 20.4225 23.1187 20.7916C23.2945 20.897 23.4945 20.9574 23.6108 21.1489C23.6896 21.2797 23.8794 21.1921 23.955 21.2628C24.4349 21.7115 25.0391 21.9477 25.6025 22.2495C27.2634 23.1393 28.9336 24.0127 30.6005 24.8912C30.8973 25.048 31.1967 25.2001 31.4963 25.3517C31.7012 25.4551 31.8892 25.5895 32.1399 25.593C32.2587 25.5944 32.3789 25.6784 32.4935 25.7348C32.8411 25.9061 33.1806 26.0939 33.5338 26.2513C33.9542 26.4378 34.3913 26.5861 34.8106 26.7749C35.2342 26.966 35.6337 27.2124 36.0635 27.3854C36.3701 27.5087 36.7047 27.5597 36.9984 27.7279C37.2675 27.8819 37.5836 27.9277 37.8574 28.0494C38.3981 28.2899 38.9877 28.3938 39.5073 28.6894C39.6777 28.7858 39.9007 28.7854 40.0915 28.8516C40.2615 28.9103 40.4163 29.0502 40.5853 29.0651C40.9348 29.0953 41.2098 29.2924 41.5221 29.403C42.0742 29.5994 42.6096 29.8393 43.1834 29.9809C43.6035 30.0849 44.0186 30.2367 44.4103 30.4211C44.6521 30.5355 44.9136 30.5206 45.1474 30.6246C45.3802 30.7281 45.5996 30.8392 45.8661 30.883C46.2133 30.9401 46.5197 31.1767 46.8863 31.2075C47.28 31.4671 47.7821 31.4357 48.1782 31.6886C48.859 31.8103 49.4817 32.1242 50.1551 32.2801C50.7749 32.4236 51.3753 32.65 51.9866 32.8321C52.6206 33.0212 53.267 33.173 53.89 33.3928C54.518 33.6146 55.162 33.773 55.8014 33.9498C56.5852 34.1667 57.35 34.4527 58.1551 34.591C58.1808 34.5956 58.2112 34.5846 58.2319 34.5955C58.7614 34.871 59.3679 34.8834 59.9185 35.088C60.1085 35.1589 60.3162 35.1813 60.5137 35.2337C61.3534 35.4553 62.1791 35.7302 63.0379 35.8771C63.4943 36.1382 64.0258 36.133 64.5063 36.2929C64.9922 36.4551 65.4854 36.5834 65.9819 36.6894C66.8059 36.8652 67.5955 37.1682 68.4273 37.311C68.6013 37.3409 68.7612 37.4454 68.9318 37.5032C68.9646 37.5143 69.032 37.4802 69.0551 37.4469C69.0789 37.4134 69.0894 37.3297 69.0684 37.3119C68.5598 36.8846 68.0944 36.4116 67.6119 35.9572C67.0329 35.412 66.4849 34.84 65.9656 34.2392C65.6806 33.9095 65.4033 33.5727 65.1315 33.2319C65.0358 33.1119 64.9516 32.9778 64.8915 32.8372C64.8542 32.7502 64.8384 32.6246 64.8737 32.5427C64.9851 32.2843 65.0771 32.001 65.3089 31.8239C65.4586 31.7091 65.4198 31.6123 65.3396 31.5067C65.2633 31.4053 65.1575 31.326 65.0805 31.2248C65.0196 31.1445 64.9817 31.0448 65.023 30.9375C65.0766 30.7996 65.1928 30.8635 65.2881 30.852C65.4393 30.8334 65.5405 30.8906 65.5687 31.0396C65.6037 31.2237 65.7079 31.2156 65.8428 31.1598C66.0017 31.0936 66.1627 31.1044 66.258 31.2517C66.4769 31.5864 66.8425 31.7469 67.1307 31.9958C67.4578 32.2775 67.7768 32.5713 68.1093 32.8469C68.4438 33.1241 68.7639 33.4105 69.0763 33.7148C69.7328 34.3535 70.4532 34.9254 71.1243 35.5494C71.4602 35.8621 71.8574 36.096 72.171 36.4363C72.4642 36.7546 72.8681 36.9521 73.1575 37.2808C73.1909 37.3186 73.2344 37.3522 73.2802 37.374C73.8847 37.6649 74.3256 38.2069 74.9538 38.4636C75.0628 38.5082 75.138 38.6319 75.2455 38.6846C75.2961 38.709 75.3928 38.6606 75.4573 38.6244C75.4783 38.6124 75.4771 38.5304 75.4615 38.4897C75.4139 38.3647 75.3281 38.2634 75.205 38.2126C74.7451 38.0232 74.3962 37.6733 74.0114 37.3797C73.6482 37.1037 73.2455 36.8697 72.9485 36.5106C72.3892 36.1892 71.9617 35.7008 71.4438 35.3242C71.0117 35.0096 70.6424 34.6108 70.2273 34.2704C69.7532 33.8821 69.3391 33.4288 68.8417 33.0625C68.4748 32.7924 68.1761 32.4302 67.8372 32.1209C67.5159 31.8282 67.2033 31.5255 66.8184 31.3099C66.5795 31.1762 66.5734 31.1101 66.6684 30.7954C66.698 30.6976 66.7352 30.6004 66.7515 30.5001C66.7977 30.2174 67.0127 30.0808 67.228 29.9512C67.2847 29.9171 67.3847 29.9159 67.4493 29.9403C67.7643 30.0585 68.087 30.197 68.3123 30.4397C68.4778 30.6178 68.6715 30.7254 68.8611 30.8534C69.3905 31.2124 69.8821 31.624 70.3373 32.0663C70.582 32.3041 70.9126 32.3957 71.1322 32.6662C71.3219 32.8997 71.5663 33.0986 71.8154 33.2702C72.4472 33.7056 73.0299 34.2 73.6048 34.7048C73.855 34.9247 74.2139 35.0009 74.392 35.3119C74.8969 35.5234 75.2416 35.971 75.7229 36.2188C75.9279 36.324 76.1151 36.4472 76.2809 36.6227C76.4338 36.7852 76.6656 36.8747 76.8669 36.9891C77.1365 37.1423 77.4109 37.2863 77.6808 37.4379C77.8178 37.5146 77.9524 37.5681 78.1175 37.5636C78.477 37.5536 78.7005 37.7314 78.7579 38.0944C78.7951 38.3318 78.8983 38.4726 79.1701 38.4288C79.2387 38.4178 79.3184 38.4604 79.3905 38.4866C79.6701 38.5866 79.7542 38.8246 79.6157 39.112C79.5347 39.2798 79.4084 39.348 79.2458 39.291C79.1263 39.2494 79.0183 39.156 78.8829 39.1936C78.8226 39.2101 78.7717 39.2641 78.7162 39.3012C78.7499 39.3385 78.778 39.3842 78.8181 39.4115C78.9247 39.4851 79.0396 39.5473 79.1769 39.5264C79.3414 39.5019 79.4764 39.5791 79.6179 39.643C79.795 39.7234 79.8974 39.8497 79.9422 40.0428C80.0275 40.4127 79.8866 40.6557 79.5106 40.7068C79.3348 40.7304 79.1516 40.6935 78.973 40.7044C78.8478 40.7119 78.7225 40.7453 78.6023 40.7836C78.5632 40.7961 78.5209 40.8552 78.5128 40.8993C78.4958 40.988 78.5714 41.062 78.6369 41.0527C78.9918 41.0022 79.0913 41.2269 79.1383 41.5032C79.1804 41.7526 78.9838 41.9629 78.7304 41.9462C78.6555 41.9415 78.5839 41.9004 78.5085 41.886C78.4609 41.8772 78.41 41.8875 78.3071 41.8911C78.7374 42.1665 78.8075 42.5576 78.7565 42.9871C78.7408 43.1202 78.6569 43.2231 78.533 43.2825C78.3433 43.374 78.1435 43.4136 77.9322 43.3831C77.6124 43.337 77.3345 43.4287 77.0504 43.5844C76.6913 43.7815 76.3101 43.9489 75.9217 44.0789C75.1089 44.3508 74.3863 44.7999 73.6401 45.2C73.0308 45.5268 72.4498 45.9062 71.8698 46.2861C71.0115 46.8489 70.1121 47.3491 69.2582 47.9187C68.5074 48.4191 67.7009 48.8144 66.9145 49.2473C66.5333 49.4574 66.1408 49.6453 65.7661 49.8706C65.5715 49.9876 65.3343 50.0373 65.1119 50.1025C64.9232 50.1581 64.7514 50.0676 64.657 49.9017C64.5346 49.6874 64.5062 49.4535 64.5696 49.2287C64.6082 49.0936 64.7347 48.9834 64.8186 48.8603C64.831 48.8421 64.8303 48.8115 64.828 48.7872C64.8233 48.7364 64.7848 48.7252 64.718 48.7338C64.4783 48.7658 64.3031 48.9323 64.0934 49.0267C63.918 49.1061 63.7119 48.9667 63.7281 48.7676C63.7361 48.6691 63.795 48.5755 63.8164 48.4762C63.8238 48.4408 63.7939 48.3931 63.7702 48.3581C63.7625 48.3462 63.716 48.347 63.6963 48.3579C63.3809 48.5314 63.0643 48.7009 62.7074 48.7818C62.4862 48.832 62.2962 48.806 62.1673 48.5978C62.074 48.4477 61.9117 48.319 61.9494 48.1194C62.0025 47.8341 62.122 47.5732 62.376 47.4117C62.5482 47.302 62.7424 47.2275 62.9256 47.1354C63.2074 46.9936 63.2267 46.9847 63.0768 46.6352C62.9872 46.4269 63.137 46.2437 63.0812 45.9735C62.8373 46.069 62.6246 46.1574 62.4077 46.2345C62.2855 46.2779 62.1694 46.1551 62.1767 46.0091C62.1855 45.8346 62.2828 45.7298 62.4315 45.6554C62.9584 45.3913 63.4877 45.1312 64.0098 44.8572C64.9418 44.3686 65.8513 43.8406 66.7297 43.2598C66.8795 43.1607 67.0429 43.0829 67.1985 42.9919C67.277 42.9463 67.2609 42.7756 67.1742 42.7344C67.0348 42.6677 66.8992 42.5767 66.7518 42.5473C66.1023 42.4186 65.4723 42.208 64.8264 42.0744C64.2257 41.95 63.6481 41.7508 63.0556 41.6021C62.8099 41.5401 62.5636 41.4323 62.3137 41.4208C61.9422 41.4036 61.6435 41.1458 61.2734 41.1569C60.6908 40.8787 60.011 40.9288 59.4393 40.6108C59.3771 40.5764 59.2906 40.583 59.2147 40.5757C58.7029 40.5222 58.2219 40.3357 57.7362 40.1922C56.9281 39.9541 56.1078 39.7606 55.3031 39.5097C54.8651 39.3728 54.4015 39.3183 53.983 39.1142C53.8432 39.0462 53.6939 39.0237 53.5452 38.9864C52.9521 38.8357 52.3719 38.6329 51.7782 38.4824C51.3835 38.3823 51.0128 38.2028 50.6053 38.1504C50.5307 38.1408 50.4534 38.1181 50.3854 38.0851C49.7614 37.779 49.0588 37.7137 48.4241 37.4406C47.9715 37.4453 47.6088 37.1566 47.1782 37.0629C46.684 36.9559 46.2141 36.7247 45.7434 36.5251C45.5272 36.4336 45.2951 36.4596 45.0749 36.3588C44.6817 36.1781 44.2462 36.1087 43.8515 35.9087C43.6345 35.7984 43.3467 35.8343 43.1255 35.6841C42.6009 35.6593 42.175 35.3317 41.6724 35.214C41.1303 35.0869 40.6122 34.8365 40.1039 34.5974C39.8194 34.4639 39.507 34.4391 39.2318 34.306C38.9059 34.1489 38.5628 34.0586 38.2238 33.9446C37.9103 33.8396 37.623 33.654 37.2825 33.6206C36.6328 33.2471 35.8668 33.1529 35.2241 32.7544C34.991 32.6097 34.7421 32.4461 34.4375 32.4692C34.0444 32.2734 33.6534 32.0748 33.258 31.8834C33.006 31.7619 32.7807 31.5703 32.4708 31.5929C32.4021 31.5977 32.3284 31.5393 32.2577 31.5093C31.6663 31.2607 31.1453 30.8539 30.5011 30.7245C30.3329 30.5153 30.1249 30.4018 29.8492 30.3605C29.6357 30.3289 29.4749 30.1257 29.2442 30.0918C29.0375 30.061 28.9552 29.824 28.7328 29.786C28.5619 29.7566 28.4029 29.646 28.2416 29.5666C28.0564 29.4747 27.873 29.3798 27.6904 29.283C26.2054 28.4993 24.7197 27.718 23.2382 26.9277C22.9466 26.7725 22.62 26.6712 22.4107 26.3768C22.3432 26.2823 22.192 26.2465 22.0782 26.1843C21.7839 26.0226 21.4899 25.8605 21.1949 25.7001C20.7866 25.4778 20.3568 25.2879 19.9749 25.0261C19.5962 24.7667 19.2468 24.4636 18.8312 24.2582C18.5787 23.885 18.0765 23.8176 17.8266 23.4395C17.8006 23.3994 17.7462 23.3759 17.7009 23.3509C17.1359 23.0415 16.6708 22.603 16.1816 22.1932C15.752 21.8334 15.3352 21.459 14.9044 21.1002C14.3575 20.6455 13.8675 20.1169 13.3872 19.5889C12.8714 19.022 12.3304 18.475 11.8687 17.8586C11.7971 17.7631 11.6586 17.7182 11.5512 17.6504C11.5486 17.603 11.5621 17.5444 11.5397 17.5102C11.4831 17.4237 11.3513 17.3958 11.3519 17.4511C11.3525 17.4925 11.3837 17.5409 11.4148 17.5724C11.4506 17.6047 11.5015 17.6242 11.5452 17.65Z" fill="#1C599C"/>
</g>
</svg>
