<svg width="26" height="25" viewBox="0 0 26 25" fill="none" xmlns="http://www.w3.org/2000/svg">
<g style="mix-blend-mode:multiply" opacity="0.15">
<path d="M16.1007 22.379L16.0777 22.4084L16.1161 22.414L16.1007 22.379ZM15.1136 22.7506L15.1391 22.7198L15.0965 22.7143L15.1136 22.7506ZM8.9372 6.49042C8.92707 6.48099 8.91485 6.46213 8.90717 6.46423C8.86038 6.47505 8.85828 6.49565 8.90228 6.51521C8.90891 6.51765 8.92428 6.50019 8.9372 6.49042ZM19.6984 2.1043L19.675 2.13782L19.7169 2.14271L19.6984 2.1043ZM9.11948 2.04494L9.14427 2.01247L9.10446 2.00688L9.11948 2.04494ZM9.96486 1.68982L10.0033 1.71147L10.0071 1.67515L9.96486 1.68982ZM15.4149 8.77374L15.4506 8.79469L15.4547 8.75872L15.4149 8.77374ZM15.6918 8.89211C15.6831 8.88129 15.6754 8.86348 15.6657 8.86243C15.6559 8.86138 15.644 8.8771 15.6332 8.88548C15.6426 8.89491 15.6506 8.91062 15.6611 8.91202C15.6698 8.91376 15.6814 8.89945 15.6918 8.89211ZM15.7749 9.95468L15.754 9.98401L15.79 9.9889L15.7749 9.95468ZM18.4169 10.5242L18.3799 10.5029L18.3757 10.5389L18.4169 10.5242ZM11.0812 12.7258L11.1074 12.6926L11.0644 12.6871L11.0812 12.7258ZM10.7603 12.7876L10.7379 12.8177L10.7757 12.8229L10.7603 12.7876ZM12.9326 12.8372C12.9438 12.8299 12.9556 12.8215 12.9678 12.8135C12.9574 12.8033 12.9479 12.7862 12.9364 12.7852C12.9263 12.7838 12.9141 12.7998 12.9025 12.8082C12.9127 12.8177 12.9225 12.8274 12.9326 12.8372ZM9.59053 24.0419C9.5804 24.0307 9.57132 24.0118 9.5605 24.0108C9.54932 24.0097 9.5364 24.0261 9.52453 24.0349C9.53466 24.045 9.54409 24.0618 9.55526 24.0632C9.56609 24.0642 9.57866 24.0495 9.59053 24.0419ZM9.92226 13.7922C9.91073 13.7821 9.89711 13.7615 9.88908 13.7636C9.83949 13.7762 9.8374 13.7989 9.88419 13.8198C9.89118 13.823 9.90759 13.8034 9.92226 13.7922ZM10.4254 23.9486L10.4467 23.9193L10.4115 23.9137L10.4254 23.9486ZM23.0988 13.8844C23.0897 13.8785 23.0775 13.8656 23.0719 13.868C23.0593 13.8736 23.039 13.8904 23.0411 13.8963C23.0551 13.9364 23.0771 13.9438 23.0956 13.9172C23.1012 13.9099 23.0981 13.8956 23.0988 13.8844ZM24.8202 14.9623L24.7986 14.9983L24.8349 15.0025L24.8202 14.9623ZM7.95494 7.74853C7.93993 7.76774 7.92491 7.78659 7.90955 7.80545C7.93678 7.81627 7.96472 7.83618 7.99091 7.83443C8.00837 7.83303 8.02373 7.80021 8.03979 7.7817C8.01151 7.77053 7.98358 7.75971 7.95494 7.74853ZM11.6685 22.8738C11.6989 22.863 11.7293 22.8518 11.7597 22.841C11.7474 22.8291 11.7356 22.8082 11.7226 22.8078C11.6916 22.8061 11.6546 22.8051 11.6312 22.8208C11.6057 22.8375 11.6242 22.8644 11.6685 22.8738ZM15.5675 21.8539C15.555 21.8413 15.5413 21.8172 15.5302 21.8183C15.4973 21.8214 15.4656 21.8347 15.4331 21.8441C15.4516 21.8616 15.4705 21.8937 15.4883 21.893C15.5155 21.8919 15.5413 21.8682 15.5675 21.8539ZM24.2731 9.51192C24.2591 9.53706 24.2343 9.56185 24.234 9.58769C24.2333 9.61493 24.2553 9.64286 24.2675 9.67045C24.2821 9.64496 24.3073 9.61946 24.308 9.59328C24.3087 9.56639 24.286 9.53915 24.2731 9.51192ZM17.9968 10.0444C17.9769 10.0619 17.9381 10.0825 17.9402 10.0968C17.9465 10.1373 17.9821 10.1516 18.0199 10.1321C18.0443 10.1195 18.0632 10.0968 18.0845 10.0786C18.0551 10.0671 18.0261 10.0556 17.9968 10.0444ZM9.26369 12.2223C9.24763 12.2398 9.23191 12.2569 9.21585 12.2743C9.24308 12.2844 9.27137 12.3033 9.29721 12.3012C9.31502 12.2995 9.33073 12.2684 9.34714 12.2506C9.31921 12.2408 9.29162 12.2317 9.26369 12.2223ZM13.4288 12.6595C13.4036 12.6748 13.3785 12.6902 13.3534 12.7052C13.3663 12.7178 13.3806 12.7422 13.3918 12.7408C13.4253 12.7366 13.4571 12.7223 13.4895 12.7118C13.4693 12.6944 13.449 12.6769 13.4288 12.6595ZM12.5862 12.9049C12.6068 12.9242 12.6253 12.9556 12.6463 12.9573C12.6759 12.9594 12.707 12.9402 12.7374 12.9297C12.7196 12.9112 12.7025 12.8795 12.6833 12.8781C12.6529 12.8756 12.6204 12.8941 12.5862 12.9049ZM17.5184 2.77928C17.4842 2.71852 17.4266 2.73179 17.376 2.73633C17.3442 2.73912 17.3142 2.76252 17.2834 2.77613C17.3068 2.79464 17.3292 2.82677 17.354 2.82851C17.4025 2.832 17.4528 2.82048 17.5017 2.8107C17.51 2.80931 17.5146 2.78661 17.5184 2.77928ZM5.67406 4.4634C5.75123 4.45467 5.79768 4.38972 5.78092 4.32093C5.77707 4.30591 5.75962 4.29439 5.74809 4.28112C5.69746 4.32582 5.64718 4.37051 5.59655 4.41556C5.62238 4.43162 5.64822 4.44768 5.67406 4.4634ZM8.24057 7.164C8.27933 7.1399 8.32333 7.1214 8.35441 7.08997C8.37047 7.07391 8.37536 7.01978 8.36384 7.01035C8.34184 6.99324 8.30098 6.98521 8.2741 6.99324C8.21997 7.00966 8.20426 7.05854 8.2102 7.11162C8.2116 7.12663 8.22556 7.13955 8.24057 7.164ZM14.6624 22.8857C14.6803 22.8847 14.6991 22.8882 14.7148 22.8822C14.7469 22.8707 14.7777 22.8543 14.8091 22.84C14.7801 22.8232 14.7522 22.804 14.7218 22.7911C14.7068 22.7844 14.6865 22.7858 14.6694 22.789C14.6275 22.7967 14.5671 22.7855 14.571 22.8518C14.5713 22.8648 14.6303 22.8745 14.6624 22.8857ZM17.7562 1.86371C17.7367 1.86371 17.7175 1.85952 17.701 1.86441C17.6682 1.87489 17.6368 1.8899 17.6047 1.90352C17.6291 1.92063 17.6525 1.94018 17.6791 1.9538C17.6941 1.96148 17.7143 1.96253 17.7318 1.96114C17.7789 1.95764 17.8334 1.96148 17.8456 1.90108C17.8474 1.89479 17.7866 1.87593 17.7562 1.86371ZM12.2003 22.7792C12.2265 22.7666 12.2695 22.746 12.3124 22.7258C12.266 22.7097 12.2206 22.6923 12.1738 22.679C12.1584 22.6748 12.1382 22.6779 12.1235 22.6846C12.0949 22.6975 12.0683 22.7153 12.0408 22.7314C12.0701 22.746 12.0984 22.7628 12.1288 22.7747C12.1438 22.7806 12.1626 22.7771 12.2003 22.7792ZM1.12523 19.8426C1.11754 19.8045 1.10952 19.7532 1.09625 19.7029C1.09241 19.6875 1.07389 19.6763 1.06237 19.6634C1.04212 19.6851 1.00441 19.7064 1.00371 19.7287C1.00127 19.8143 1.0093 19.9005 1.01698 19.9857C1.01803 20 1.03863 20.0123 1.05015 20.0255C1.07076 20.0042 1.10009 19.9857 1.11056 19.9602C1.12348 19.9292 1.12034 19.8914 1.12523 19.8426ZM24.2692 9.23746C24.3541 9.13095 24.3356 9.01433 24.3038 8.897C24.2996 8.88164 24.2828 8.87011 24.2717 8.8565C24.2602 8.86837 24.2434 8.8785 24.2378 8.89281C24.1921 9.01188 24.1983 9.12746 24.2692 9.23746ZM15.7226 1.59763C15.8455 1.63116 15.9481 1.64477 16.0532 1.62662C16.0724 1.62347 16.0868 1.58995 16.1032 1.5704C16.0885 1.56097 16.0742 1.54526 16.0588 1.54351C15.9537 1.53338 15.8469 1.51557 15.7226 1.59763ZM24.1708 8.58099C24.2294 8.32643 24.2357 8.07048 24.1949 7.81313C24.1924 7.79777 24.1739 7.78554 24.1627 7.77158C24.1509 7.7831 24.1309 7.79323 24.1285 7.80615C24.0821 8.06629 24.103 8.32364 24.1708 8.58099ZM17.4954 1.8026C17.2956 1.75686 17.1518 1.74359 17.0243 1.68982C16.884 1.63046 16.7425 1.64198 16.6008 1.63395C16.4978 1.62836 16.3857 1.5924 16.2938 1.67795C16.3553 1.80226 16.4726 1.74045 16.5648 1.75477C16.6528 1.76804 16.7366 1.77851 16.8232 1.81029C17.0222 1.88292 17.2293 1.89619 17.4954 1.8026ZM10.8326 7.46534C10.5881 7.42274 10.4254 7.28935 10.2201 7.30262C10.0263 7.31519 9.82692 7.26456 9.557 7.36094C10.0141 7.44195 10.3779 7.62143 10.8326 7.46534ZM19.5042 11.9077C19.4707 11.8787 19.4323 11.8403 19.3887 11.8092C19.3394 11.7739 19.2734 11.7767 19.2462 11.8232C19.1568 11.9761 19.0112 12.0376 18.8572 12.0924C18.6369 12.1706 18.4158 12.2457 18.1979 12.3302C18.1148 12.3627 18.0373 12.4175 18.0185 12.5153C18.0129 12.5449 18.0335 12.5816 18.0481 12.6123C18.0541 12.6242 18.0771 12.635 18.0918 12.6347C18.1264 12.6336 18.1648 12.634 18.1941 12.619C18.5932 12.4105 18.9826 12.1825 19.4156 12.0467C19.4456 12.0372 19.4679 11.9988 19.4899 11.9709C19.4994 11.9601 19.4976 11.9405 19.5042 11.9077ZM3.78881 18.0593C3.81779 18.0387 3.8583 18.0244 3.87436 17.9961C4.04372 17.6954 4.29898 17.4698 4.53503 17.2272C4.68483 17.0732 4.83532 16.9199 4.98407 16.7652C4.99385 16.7551 4.99455 16.7359 4.99943 16.7212C4.96766 16.7128 4.92506 16.6866 4.90551 16.6981C4.66317 16.8466 4.42014 16.996 4.18514 17.1552C4.05036 17.2464 3.94594 17.371 3.89077 17.5289C3.83839 17.6787 3.78952 17.8299 3.74133 17.9811C3.73679 17.995 3.74377 18.0163 3.75215 18.0303C3.75948 18.0429 3.77624 18.0502 3.78881 18.0593ZM12.4762 22.6291C12.5506 22.7041 12.6494 22.6863 12.7308 22.672C13.0101 22.6231 13.288 22.5634 13.5639 22.4974C13.8921 22.4185 14.2176 22.3291 14.5441 22.2436C14.7679 22.1845 14.9882 22.1151 15.197 22.0121C15.2414 21.9904 15.2575 21.9635 15.2309 21.9471C15.2019 21.9289 15.1663 21.9209 15.1324 21.9125C15.1157 21.9083 15.0958 21.909 15.079 21.9143C14.5008 22.0948 13.903 22.2003 13.3209 22.363C13.0384 22.4422 12.7342 22.4649 12.4762 22.6291ZM23.7235 14.8C24.0346 14.3268 24.2518 13.8174 24.3834 13.2796C24.4721 12.9161 24.5451 12.5432 24.551 12.164C24.5531 12.0404 24.5779 11.9133 24.4655 11.7774C24.39 12.318 24.2141 12.8086 24.0346 13.2922C23.8645 13.7496 23.7975 14.2256 23.6784 14.6917C23.6711 14.7186 23.7036 14.7553 23.7235 14.8ZM20.2536 20.7106C20.2969 20.697 20.35 20.6893 20.3936 20.6656C21.0319 20.3157 21.5829 19.8475 22.1203 19.3649C22.3738 19.1369 22.6106 18.8858 22.8302 18.6246C23.0848 18.3226 23.3257 18.0069 23.5478 17.6804C23.7301 17.4126 23.8607 17.1091 24.0433 16.842C24.2298 16.57 24.3014 16.2491 24.4651 15.9687C24.5653 15.7976 24.6443 15.6139 24.7315 15.4355C24.7623 15.373 24.7469 15.2742 24.7137 15.2895C24.6816 15.3042 24.6439 15.3227 24.6271 15.3503C24.4665 15.6111 24.3108 15.8744 24.1522 16.1363C24.1058 16.2131 24.0321 16.2805 24.0091 16.3626C23.9438 16.5986 23.7821 16.7708 23.6424 16.9562C23.3278 17.3738 23.0097 17.7887 22.6857 18.1989C22.4618 18.4821 22.2394 18.7688 21.9894 19.0276C21.8179 19.2053 21.6399 19.3799 21.4328 19.5259C21.2271 19.6711 21.0571 19.8663 20.8692 20.0371C20.6695 20.2176 20.4663 20.3939 20.2665 20.5741C20.2407 20.5975 20.2243 20.6324 20.2089 20.6645C20.2061 20.6698 20.2319 20.6886 20.2536 20.7106ZM13.2818 17.7286C13.2975 17.7199 13.3167 17.7139 13.3282 17.7014C13.7011 17.2848 14.1603 16.9492 14.4725 16.4761C14.7787 16.224 15.0116 15.9003 15.3007 15.631C15.4725 15.4711 15.6388 15.3039 15.7976 15.131C15.9429 14.9725 16.122 14.8422 16.2191 14.6421C16.4597 14.5664 16.496 14.2643 16.731 14.1823C16.9339 13.9312 17.1371 13.6801 17.3386 13.428C17.3477 13.4165 17.3477 13.3903 17.3417 13.3753C17.3239 13.3306 17.2974 13.3337 17.2565 13.3484C16.9803 13.4493 16.745 13.6061 16.5452 13.824C16.3375 14.0503 16.1168 14.2643 15.9045 14.4868C15.4554 14.9561 15.0479 15.4631 14.5793 15.9149C14.1236 16.3542 13.684 16.8099 13.2381 17.2593C13.0764 17.422 13.0754 17.4472 13.2081 17.6776C13.2168 17.693 13.2262 17.7097 13.2399 17.7202C13.25 17.7275 13.2674 17.7258 13.2818 17.7286ZM3.72945 22.3431C3.74342 22.3797 3.73015 22.4569 3.80942 22.3976L3.72317 22.3494C3.71165 22.3165 3.70885 22.2764 3.6879 22.2516C3.31288 21.8032 2.8331 21.482 2.35402 21.1604C2.33376 21.1468 2.28383 21.1625 2.25694 21.1796C2.24681 21.1859 2.25484 21.2417 2.27056 21.2637C2.35471 21.3804 2.43921 21.4981 2.53279 21.6073C2.65047 21.7446 2.76082 21.8954 2.90328 22.0019C3.14597 22.1832 3.39144 22.3832 3.72945 22.3431ZM19.8569 3.16478C19.8412 3.13579 19.8328 3.09424 19.8084 3.07992C19.748 3.04396 19.6551 3.0698 19.6736 3.10472C19.6869 3.13021 19.7225 3.15046 19.7522 3.15919C19.785 3.16897 19.8227 3.16303 19.858 3.16408C19.8667 3.27023 19.954 3.31423 20.0266 3.36172C20.3734 3.58729 20.7414 3.78144 21.0627 4.04542C21.2156 4.17113 21.3647 4.30172 21.5166 4.42883C21.5271 4.43756 21.5592 4.4407 21.5599 4.4386C21.5711 4.40753 21.5973 4.36248 21.585 4.34467C21.3598 4.01853 21.1178 3.70985 20.7355 3.54958C20.6527 3.51501 20.5735 3.46682 20.5019 3.41235C20.3098 3.26604 20.0888 3.20249 19.8569 3.16478ZM2.85439 22.892C2.84252 22.8669 2.83659 22.8302 2.81669 22.819C2.78666 22.8019 2.76116 22.8274 2.77932 22.8525C2.79399 22.8728 2.82925 22.8787 2.85544 22.8913C2.86801 22.9231 2.87186 22.9674 2.89525 22.9849C3.27307 23.2611 3.69209 23.4462 4.15022 23.5415C4.17641 23.5471 4.21098 23.5149 4.26719 23.4881C4.06432 23.3903 3.8789 23.2971 3.69034 23.2112C3.44835 23.1012 3.20498 22.9954 2.9602 22.892C2.93017 22.8794 2.89001 22.8913 2.85439 22.892ZM20.9408 2.84422C20.9537 2.9413 21.0326 2.97587 21.106 3.01428C21.1115 3.01742 21.1332 3.00136 21.1395 2.98983C21.1461 2.97691 21.1472 2.95876 21.1447 2.94374C21.1259 2.83165 21.0368 2.83549 20.9541 2.82991C20.7543 2.49644 20.4292 2.37038 20.0731 2.29496C20.0553 2.26528 20.072 2.18287 19.9952 2.24397C20.0228 2.25899 20.0507 2.274 20.0783 2.28902C20.0797 2.30683 20.0734 2.33302 20.0832 2.3414C20.3234 2.55405 20.6101 2.69268 20.8877 2.84527C20.901 2.8533 20.923 2.84527 20.9408 2.84422ZM4.38103 21.5829C4.3915 21.6304 4.38976 21.6981 4.46763 21.6356C4.43829 21.6185 4.40931 21.6014 4.37998 21.5843C4.32481 21.4251 4.20574 21.3318 4.05455 21.2732C4.04128 21.2679 4.01997 21.2721 4.0067 21.2795C3.99483 21.2861 3.97772 21.3102 3.98086 21.3147C4.07654 21.4593 4.15441 21.6332 4.38103 21.5829ZM22.9085 14.2807C22.8344 14.3785 22.7321 14.6065 22.708 14.7378C22.7059 14.7504 22.7213 14.772 22.7342 14.7804C22.7436 14.786 22.7691 14.7811 22.7761 14.7724C22.8194 14.7179 22.8823 14.6655 22.8952 14.6034C22.9168 14.4997 22.906 14.3897 22.9092 14.2818C22.9916 14.2741 23.0209 14.2221 23.0101 14.1484C23.0073 14.1292 22.9734 14.1128 22.9511 14.0999C22.9476 14.0978 22.9207 14.1201 22.9189 14.1334C22.9126 14.1819 22.9116 14.2315 22.9085 14.2807ZM10.5986 2.29845C10.5106 2.30299 10.4226 2.30578 10.335 2.31346C10.32 2.31451 10.3067 2.33441 10.2927 2.34559C10.3053 2.35676 10.3165 2.37387 10.3308 2.37841C10.437 2.40844 10.5421 2.43079 10.5867 2.28692C10.6395 2.28308 10.6929 2.28134 10.7453 2.27366C10.7599 2.27156 10.7722 2.25166 10.7854 2.23978C10.7732 2.22861 10.7624 2.20975 10.7484 2.20661C10.6713 2.19055 10.6112 2.20696 10.5986 2.29845ZM11.3588 13.3034C11.2946 13.3037 11.2303 13.3013 11.1664 13.3044C11.0962 13.3076 11.0459 13.3393 11.033 13.4141C10.9684 13.4137 10.9035 13.413 10.8385 13.4141C10.7676 13.4151 10.7156 13.4423 10.703 13.5195C10.6391 13.5213 10.5756 13.522 10.512 13.5248C10.4418 13.5279 10.3926 13.5583 10.3811 13.633C10.3322 13.6347 10.2819 13.632 10.2341 13.6417C10.218 13.6449 10.2065 13.6784 10.1971 13.6997C10.196 13.7025 10.2208 13.7238 10.2341 13.7241C10.3064 13.7273 10.3594 13.7014 10.3692 13.6211C10.452 13.6208 10.5358 13.6267 10.6175 13.6183C10.6681 13.6131 10.7002 13.5733 10.7002 13.5167C10.7816 13.5143 10.8637 13.5181 10.944 13.5073C10.9932 13.5007 11.0236 13.4595 11.0236 13.4043C11.0899 13.406 11.1563 13.4099 11.2223 13.4085C11.2946 13.4074 11.3487 13.3802 11.3525 13.2971C11.4367 13.295 11.5212 13.296 11.605 13.2884C11.6196 13.287 11.634 13.2496 11.6409 13.2269C11.643 13.2206 11.6165 13.1958 11.6046 13.1969C11.511 13.2032 11.3955 13.1637 11.3588 13.3034ZM12.1221 13.0862C12.0338 13.0921 11.9451 13.0967 11.8571 13.1054C11.8421 13.1068 11.8288 13.1263 11.8145 13.1375C11.8285 13.1487 11.8407 13.1672 11.856 13.1703C11.9601 13.192 12.0697 13.2238 12.1158 13.0792C12.1511 13.0785 12.1881 13.0848 12.2213 13.0757C12.2524 13.0677 12.289 13.0502 12.3061 13.0251C12.3239 12.9982 12.223 12.9689 12.1675 13.0006C12.1438 13.0142 12.1368 13.0568 12.1221 13.0862ZM11.5777 12.5414C11.4908 12.5481 11.4038 12.5533 11.3172 12.5624C11.3026 12.5641 11.2897 12.5827 11.276 12.5938C11.2893 12.6053 11.3015 12.6242 11.3166 12.627C11.4182 12.6448 11.5271 12.6766 11.5701 12.5338C11.6511 12.5317 11.7331 12.5352 11.8131 12.5247C11.8623 12.5184 11.8948 12.4796 11.8972 12.4245C12.0223 12.4192 12.1546 12.4381 12.2716 12.4042C12.6805 12.2858 13.0796 12.1308 13.492 12.0271C13.6805 11.9796 13.8499 11.8612 14.058 11.8738C14.1167 11.8773 14.1806 11.8106 14.2399 11.7732C14.2535 11.7649 14.2693 11.7324 14.2668 11.7299C14.2452 11.71 14.2148 11.6769 14.1963 11.6818C14.1289 11.6996 14.0667 11.7477 13.9997 11.7547C13.64 11.7914 13.316 11.9499 12.9745 12.0467C12.6337 12.1437 12.2943 12.245 11.9556 12.3497C11.9325 12.3567 11.922 12.4046 11.9053 12.4332C11.8232 12.4342 11.7401 12.429 11.6591 12.4388C11.6088 12.4444 11.5777 12.4856 11.5777 12.5414ZM9.60868 12.0976C9.69598 12.091 9.78293 12.0858 9.87023 12.076C9.8835 12.0746 9.89466 12.0547 9.90654 12.0432C9.89362 12.0313 9.88175 12.0103 9.86743 12.0079C9.76652 11.9925 9.65373 11.9531 9.61602 12.1043C9.57866 12.113 9.52976 12.1085 9.53919 12.1699C9.53954 12.1727 9.57028 12.1772 9.57272 12.1727C9.58704 12.1497 9.59681 12.1231 9.60868 12.0976ZM10.0462 8.28942C10.0305 8.26183 10.0218 8.22203 9.99768 8.20876C9.94251 8.17733 9.84508 8.20492 9.86359 8.23041C9.8807 8.25415 9.91737 8.26847 9.94845 8.27685C9.98057 8.28558 10.0162 8.28244 10.0508 8.28453C10.0577 8.36449 10.108 8.39452 10.181 8.39522C10.2466 8.39592 10.3123 8.39417 10.3779 8.39313C10.4534 8.53175 10.6011 8.55829 10.7282 8.61067C10.9251 8.69203 11.1322 8.7493 11.3284 8.8324C11.8906 9.0695 12.449 9.31602 13.0108 9.55382C13.0733 9.58036 13.1494 9.57756 13.2196 9.5835C13.2336 9.5849 13.2619 9.56639 13.2622 9.55661C13.264 9.48433 13.3268 9.55487 13.2633 9.521C13.0405 9.40192 12.8247 9.26085 12.5883 9.17844C12.0121 8.97696 11.459 8.72066 10.8968 8.48811C10.7191 8.41443 10.5536 8.39348 10.3731 8.39837C10.3734 8.3425 10.3437 8.2992 10.2934 8.29291C10.2117 8.28348 10.1286 8.28977 10.0462 8.28942ZM17.7838 2.94933C17.7709 2.90917 17.7796 2.83619 17.7017 2.89625C17.7311 2.91197 17.7604 2.92768 17.7894 2.94339C17.7967 3.02126 17.8435 3.05234 17.9172 3.05339C17.9821 3.05443 18.0471 3.05583 18.1117 3.05688C18.126 3.08656 18.1323 3.13265 18.1553 3.14348C18.5244 3.31842 18.89 3.49825 19.2361 3.71754C19.3244 3.77341 19.4156 3.8394 19.5332 3.81461C19.5343 3.89422 19.595 3.93054 19.6464 3.97524C19.682 4.00631 19.7152 4.00911 19.7277 3.96965C19.7365 3.94171 19.7319 3.89911 19.7152 3.87607C19.6694 3.81252 19.5957 3.82055 19.5273 3.82124C19.5147 3.78912 19.5119 3.74477 19.4885 3.72627C19.1359 3.44517 18.7381 3.23985 18.3282 3.05793C18.2681 3.03139 18.1864 3.05374 18.1148 3.05374C18.0998 2.97761 18.0436 2.95247 17.9766 2.94828C17.9123 2.94444 17.8481 2.94863 17.7838 2.94933ZM15.6115 22.5697C15.5581 22.5728 15.5043 22.5735 15.4516 22.5809C15.4369 22.583 15.4251 22.6039 15.4118 22.6165C15.424 22.6284 15.4341 22.6469 15.4481 22.6504C15.5277 22.6706 15.5867 22.6507 15.6018 22.5596C15.6363 22.5585 15.6723 22.5631 15.7051 22.5547C15.7362 22.5467 15.7638 22.525 15.7931 22.5096C15.7802 22.4981 15.7676 22.4782 15.754 22.4768C15.7212 22.4744 15.6817 22.4705 15.6569 22.4866C15.6332 22.502 15.6258 22.5411 15.6115 22.5697ZM8.73468 12.4224C8.78706 12.4189 8.84013 12.4178 8.89216 12.4105C8.90683 12.4084 8.91869 12.3885 8.93196 12.3766C8.92079 12.3655 8.91101 12.3473 8.89739 12.3438C8.81918 12.3239 8.76261 12.3459 8.74654 12.4332C8.72001 12.4524 8.62817 12.4217 8.68998 12.5079C8.70465 12.4793 8.71966 12.451 8.73468 12.4224ZM16.0424 9.05029C16.0291 9.02515 16.0176 8.99931 16.0016 8.97627C15.9984 8.97208 15.9687 8.97801 15.968 8.98185C15.9572 9.04261 16.0033 9.04296 16.0431 9.0496C16.0641 9.19625 16.1786 9.14562 16.2652 9.15435C16.282 9.29018 16.3829 9.27273 16.4758 9.27098C16.5145 9.40961 16.6182 9.47351 16.7495 9.48957C16.7953 9.49516 16.8459 9.45884 16.8944 9.44103C16.8749 9.41275 16.8588 9.38027 16.8347 9.35618C16.7359 9.25701 16.6095 9.25562 16.4813 9.26434C16.4545 9.12572 16.3473 9.16343 16.2575 9.16273C16.2327 9.03598 16.1343 9.0489 16.0424 9.05029ZM9.72601 3.06037C9.67293 3.06351 9.61916 3.06456 9.56678 3.07154C9.55211 3.07364 9.5406 3.09459 9.52768 3.10716C9.53955 3.11903 9.55037 3.13789 9.56434 3.14138C9.64291 3.15954 9.70296 3.14208 9.71623 3.04989C9.76791 3.0457 9.81994 3.04361 9.87127 3.03558C9.88558 3.03348 9.89676 3.01288 9.90933 3.00101C9.89676 2.98949 9.88523 2.97028 9.87057 2.96749C9.79445 2.95282 9.73509 2.96923 9.72601 3.06037ZM12.4504 13.7412C12.3236 13.7158 12.1979 13.7175 12.0739 13.7573C11.0822 14.0758 10.086 14.3817 9.10097 14.72C8.72979 14.8475 8.3593 14.9885 8.02513 15.2176C7.79153 15.3779 7.50868 15.461 7.26111 15.6108C6.73698 15.9278 6.21531 16.2491 5.72365 16.615C5.59306 16.7121 5.46979 16.8242 5.36434 16.9471C5.25784 17.0714 5.07381 17.1053 5.00816 17.2701C4.7585 17.4531 4.57553 17.6989 4.37335 17.928C4.10727 18.2297 3.89706 18.5583 3.77764 18.9473C3.73748 19.0778 3.73119 19.1763 3.78602 19.3055C3.93721 19.662 4.18968 19.9452 4.41874 20.2466C4.55423 20.425 4.7613 20.5113 4.92856 20.6485C4.96767 20.681 5.02493 20.7047 5.07556 20.7078C5.43488 20.7302 5.77987 20.8426 6.14861 20.8329C7.03763 20.8098 7.92771 20.8255 8.81708 20.8192C8.99516 20.8182 9.17639 20.8412 9.34959 20.7494C9.42257 20.7106 9.52697 20.7264 9.61741 20.7264C10.035 20.726 10.437 20.6314 10.8427 20.5469C11.1228 20.4889 11.4094 20.4606 11.6912 20.4006C12.2342 20.2846 12.7786 20.1844 13.3121 20.0241C13.8279 19.8691 14.351 19.7409 14.8618 19.5681C15.5794 19.3261 16.2917 19.0737 16.9713 18.736C17.0994 18.6724 17.2454 18.6396 17.3644 18.5635C17.7911 18.2908 18.2632 18.0984 18.6767 17.8026C19.1627 17.4548 19.6338 17.0889 20.0553 16.6646C20.4104 16.3071 20.7543 15.939 21.0648 15.5389C21.4436 15.0507 21.7621 14.5294 21.9782 13.9536C22.1039 13.6194 22.1699 13.2625 22.2635 12.9161C22.3683 12.5289 22.3857 12.1326 22.3833 11.7345C22.5579 11.1671 22.4465 10.5843 22.4737 10.0092C22.4807 9.86599 22.4845 9.72248 22.4196 9.58245C22.3836 9.50493 22.3861 9.40646 22.3836 9.31707C22.362 8.45458 22.1001 7.66368 21.739 6.88465C21.429 6.21526 21.0082 5.64609 20.4806 5.1464C20.218 4.89813 19.9282 4.67989 19.6097 4.50879C19.087 4.22805 18.5614 3.95359 18.0045 3.73954C17.7842 3.65468 17.5544 3.61662 17.3365 3.53107C17.1193 3.44552 16.8972 3.36556 16.657 3.36765C16.3609 3.21366 16.0072 3.33169 15.7131 3.16792C15.4226 3.16059 15.1324 3.1564 14.8423 3.14487C14.5919 3.13475 14.3342 3.19131 14.0947 3.06666C14.0657 3.05164 14.021 3.07015 13.9871 3.06037C13.8604 3.02301 13.75 3.15814 13.6247 3.09424C13.5035 3.03278 13.376 3.05723 13.2503 3.05688C13.1599 3.05653 13.0618 3.03837 12.9794 3.06596C12.6263 3.18363 12.2621 3.13998 11.9032 3.14836C11.6483 3.1543 11.4059 3.21611 11.1573 3.24823C10.9258 3.27826 10.6964 3.28978 10.4663 3.35299C10.1737 3.43365 9.86184 3.44378 9.56713 3.51885C9.27207 3.59427 8.98609 3.70636 8.70011 3.81321C8.34638 3.94555 8.00313 4.10269 7.66652 4.27519C7.44304 4.38972 7.2007 4.47038 6.98316 4.59434C6.81171 4.69176 6.6661 4.80804 6.44716 4.81677C6.31797 4.82201 6.19225 4.93969 6.0669 5.01057C5.9569 5.07307 5.8518 5.14396 5.74076 5.20367C5.71562 5.21694 5.66534 5.20961 5.64194 5.1918C5.61889 5.17399 5.61191 5.13209 5.60423 5.09891C5.60108 5.0846 5.61365 5.06574 5.62169 5.05038C5.66219 4.97425 5.7446 4.89045 5.63984 4.81747C5.57699 4.77382 5.50611 4.83528 5.44744 4.87683C5.43313 4.88696 5.41672 4.89569 5.39996 4.90128C5.34793 4.91978 5.28542 4.87299 5.30672 4.8269C5.34583 4.7417 5.38214 4.66627 5.30567 4.58107C5.25923 4.52939 5.20685 4.47178 5.19254 4.40892C5.1845 4.374 5.24212 4.31499 5.28228 4.28007C5.47154 4.11491 5.53823 3.88305 5.56931 3.65748C5.59375 3.47939 5.66429 3.35334 5.77952 3.23392C6.37209 2.62214 7.01808 2.08056 7.7786 1.68423C7.98637 1.57633 8.17493 1.42723 8.38793 1.3326C9.34295 0.910087 10.3081 0.514111 11.3445 0.329742C11.5606 0.214161 11.8131 0.274919 12.0292 0.201241C12.244 0.128262 12.4556 0.132801 12.67 0.116389C12.7241 0.112199 12.7838 0.127913 12.8324 0.110453C13.2542 -0.0417915 13.6917 0.0179192 14.1233 0.00884034C14.6314 -0.00128603 15.1401 0.0168716 15.6482 0.00115827C16.1618 -0.0149043 16.9793 0.139086 17.5656 0.277364C18.2161 0.431005 18.8335 0.676483 19.4477 0.938022C19.698 1.04452 19.9316 1.16953 20.166 1.30432C20.4949 1.49358 20.8388 1.65839 21.1838 1.81692C21.9461 2.16715 22.6291 2.63925 23.2545 3.18887C23.5471 3.44622 23.8104 3.74303 24.059 4.04717C24.4487 4.52485 24.8073 5.02663 25.0455 5.59755C25.2249 6.02879 25.3699 6.47575 25.513 6.92131C25.6223 7.26212 25.6894 7.6134 25.7533 7.96782C25.8245 8.36345 25.8427 8.75453 25.85 9.15121C25.8514 9.22384 25.8542 9.29682 25.8657 9.3684C25.9631 9.98541 25.9607 9.98506 25.8654 10.7026C25.8441 10.864 25.851 11.0288 25.8482 11.1922C25.842 11.5372 25.8266 11.8825 25.8374 12.2268C25.8427 12.3979 25.7351 12.5449 25.7477 12.6996C25.777 13.0694 25.6314 13.4113 25.6129 13.7727C25.6028 13.9665 25.5399 14.1613 25.4767 14.3474C25.2749 14.9424 25.0703 15.5371 24.8485 16.1248C24.7731 16.3245 24.639 16.5012 24.5391 16.6926C24.3136 17.1245 24.0957 17.5603 23.7933 17.9468C23.582 18.2168 23.3819 18.4947 23.1686 18.7625C23.0118 18.9602 22.8438 19.1494 22.6776 19.3394C22.1601 19.9309 21.4998 20.3478 20.8706 20.8007C20.5214 21.0514 19.2218 21.7938 18.7196 21.9307C18.3642 22.1542 17.9406 22.2086 17.5687 22.3972C17.1996 22.5847 16.8145 22.7422 16.4318 22.9021C15.5022 23.2908 14.5458 23.6008 13.5737 23.8634C13.2451 23.9521 12.9155 24.0373 12.5848 24.1183C12.324 24.1822 12.0631 24.2542 11.7981 24.2929C11.319 24.3635 10.8556 24.5258 10.3657 24.5293C10.13 24.6543 9.87197 24.6142 9.62125 24.6302C9.58529 24.6327 9.54687 24.6247 9.51265 24.633C8.81708 24.8087 8.10754 24.7203 7.40428 24.7427C6.91472 24.7584 6.42411 24.7364 5.93386 24.7423C5.2725 24.7504 4.64956 24.5793 4.04302 24.3422C3.43579 24.1051 2.8942 23.7597 2.38194 23.3505C1.98352 23.032 1.61199 22.6919 1.26315 22.3242C0.85705 21.8958 0.63427 21.3682 0.477486 20.8088C0.495644 20.5685 0.39857 20.3485 0.346542 20.123C0.191154 19.4501 0.189065 18.9954 0.370292 18.3107C0.439082 18.0512 0.532316 17.7991 0.694687 17.5718C0.959369 17.2013 1.13885 16.7844 1.22684 16.3371C1.27364 16.0975 1.38293 15.8891 1.51352 15.6991C1.73805 15.3723 1.98841 15.0626 2.24367 14.7584C2.40569 14.5657 2.5733 14.375 2.80167 14.2458C2.90886 14.1851 2.98743 14.0747 3.08171 13.9895C3.48502 13.625 3.9229 13.3093 4.38627 13.0244C5.12585 12.5697 5.88183 12.1462 6.66924 11.7809C6.9636 11.6444 7.25867 11.5072 7.56036 11.3874C8.228 11.122 8.88971 10.8371 9.58459 10.6482C9.86359 10.5724 10.1101 10.4191 10.3961 10.3587C10.6761 10.2997 10.9457 10.1918 11.2209 10.1097C11.4775 10.0329 11.7352 9.96202 12.0114 9.88345C11.863 9.69943 11.672 9.64775 11.4849 9.58001C11.0295 9.41519 10.5766 9.24025 10.1555 8.99861C10.0368 8.93052 9.90549 8.96125 9.78922 8.91341C9.35588 8.73568 8.87085 8.73393 8.44974 8.51534C8.41901 8.49963 8.37606 8.4909 8.34358 8.49893C8.08868 8.56109 7.96193 8.34878 7.78768 8.24123C7.70737 8.19165 7.66093 8.11448 7.65639 8.01601C7.65394 7.96188 7.66512 7.89763 7.64033 7.85538C7.51427 7.63889 7.53277 7.47233 7.7147 7.27434C7.85402 7.12279 7.94587 6.9063 7.9731 6.68701C8.0164 6.33922 8.24756 6.1332 8.53459 6.01518C8.8988 5.86538 9.28184 5.78367 9.6883 5.77389C10.2938 5.75922 10.8692 5.88493 11.4384 6.05289C11.9199 6.19466 12.3913 6.37169 12.8666 6.53441C13.1037 6.61577 13.3537 6.67339 13.5737 6.78827C14.1823 7.10673 14.8594 7.26386 15.4547 7.61514C15.732 7.77891 16.0484 7.87389 16.3406 8.01391C16.5355 8.10749 16.7177 8.22726 16.9067 8.33237C17.1727 8.48042 17.4626 8.57645 17.7251 8.73568C17.987 8.89491 18.2695 9.02166 18.5457 9.15575C18.9043 9.32999 19.2441 9.53252 19.5661 9.76892C19.7948 9.93653 19.9351 10.1621 20.035 10.4135C20.1324 10.6586 20.0179 10.9101 19.7717 11.0455C19.6296 11.1238 19.4854 11.1978 19.3593 11.2645C19.5304 11.4265 19.7075 11.5794 19.8663 11.7495C20.0336 11.9283 19.9893 12.1926 19.7777 12.3023C19.6177 12.3854 19.454 12.4842 19.2815 12.5139C18.8663 12.5858 18.5527 12.8204 18.2664 13.097C17.8222 13.5251 17.3662 13.9462 16.9653 14.4134C16.3137 15.1715 15.5825 15.85 14.9016 16.5784C14.6181 16.8818 14.3017 17.1521 14.0266 17.4615C13.8104 17.7045 13.6076 17.9591 13.3736 18.1864C13.2922 18.2656 13.2063 18.3334 13.0869 18.3013C12.9406 18.2618 12.8984 18.1483 12.9004 18.0083C12.9015 17.9542 12.8994 17.8979 12.8851 17.8466C12.8781 17.8236 12.824 17.789 12.8142 17.7949C12.5879 17.943 12.3477 18.076 12.1459 18.2531C11.9014 18.4678 11.6825 18.7129 11.4695 18.9595C11.3941 19.0471 11.3057 19.1009 11.2118 19.1487C11.0281 19.2427 10.8256 19.1292 10.8144 18.9305C10.8053 18.7678 10.798 18.605 10.9297 18.472C10.9922 18.4088 11.0417 18.3281 11.0253 18.2283C11.0225 18.2105 11.0183 18.193 11.0128 18.1759C10.996 18.1256 10.9688 18.1186 10.9321 18.1536C10.7872 18.2901 10.6412 18.4259 10.4974 18.5635C10.3629 18.6923 10.1971 18.5792 10.1663 18.443C10.1374 18.3159 10.1534 18.1902 10.2278 18.0781C10.2896 17.9849 10.2645 17.9105 10.1834 17.8442C10.1412 17.8096 10.1 17.7733 10.0633 17.7335C9.86778 17.5226 9.89746 17.1989 10.1276 17.0267C10.2142 16.9618 10.3032 16.8996 10.3909 16.8354C10.4708 16.7771 10.5022 16.6981 10.4939 16.6C10.489 16.5456 10.4876 16.4911 10.489 16.4366C10.4921 16.2976 10.5473 16.1894 10.6831 16.1388C10.8134 16.0902 10.8431 15.9921 10.7956 15.88C10.7442 15.7606 10.6863 15.6464 10.7484 15.5186C10.8183 15.3758 10.8546 15.2099 11.0414 15.1502C11.1231 15.124 11.1989 15.0598 11.2614 14.9973C11.6455 14.6107 12.0254 14.2203 12.4043 13.8296C12.4266 13.8065 12.4294 13.765 12.4416 13.7325C12.4626 13.7116 12.5488 13.7374 12.4933 13.6609C12.479 13.6878 12.4647 13.7147 12.4504 13.7412Z" fill="#1E5EA4"/>
</g>
</svg>
