<svg width="40" height="30" viewBox="0 0 40 30" fill="none" xmlns="http://www.w3.org/2000/svg">
<g style="mix-blend-mode:multiply" opacity="0.15">
<path d="M39.9947 8.29087C39.9611 7.55317 39.7856 7.11573 39.4603 6.55145C39.4087 6.41944 39.2641 6.2719 39.1531 6.12954L38.9802 5.9147C38.9156 5.84481 38.8821 5.77234 38.7814 5.70245L38.2651 5.27795C38.1722 5.20806 38.1076 5.133 37.9915 5.06829L37.6662 4.86898C37.4468 4.73697 37.2351 4.60237 37.0105 4.47036L36.298 4.08728L35.9392 3.89573L35.5571 3.71713L34.793 3.35734L34.0031 3.03379C33.7398 2.92249 33.4764 2.81636 33.2183 2.72836L32.4413 2.44881L32.3432 2.41516L32.2838 2.39704L32.1728 2.3608L31.9482 2.28833C31.3493 2.09419 30.7504 1.92595 30.1515 1.76546C28.9537 1.45485 27.7585 1.20119 26.5736 0.988938C24.2038 0.567026 21.8159 0.271946 19.4177 0.103699C16.6271 -0.0956096 13.8572 0.0338113 11.0847 0.147702C10.3696 0.173586 9.71653 0.321126 9.12537 0.559261C8.23476 0.926816 7.99726 1.46521 8.51098 1.96218C9.16151 2.59117 10.1399 3.01567 11.3558 3.22016C12.9279 3.479 14.5232 3.73007 16.1186 3.97597C17.7217 4.22187 19.3764 4.32282 20.9873 4.57131C22.9311 4.86639 24.8775 5.21065 26.7801 5.66104C27.7611 5.89658 28.7265 6.17354 29.6714 6.46345L30.9518 6.86724C31.1376 6.9216 31.2538 6.94489 31.4371 6.98113C31.5455 6.99925 31.6436 7.05361 31.6539 7.1209C31.6694 7.2555 31.7159 7.32798 31.8114 7.40045C31.8966 7.47293 32.0515 7.52988 32.1005 7.64635C32.1238 7.7033 32.1134 7.77836 32.067 7.83013C32.0205 7.88449 31.9508 7.91555 31.8811 7.93626C31.7365 7.97508 31.5765 7.96473 31.419 7.95696C31.228 7.94402 31.0447 7.89743 30.9337 7.87672C30.8743 7.86637 30.8304 7.86637 30.7866 7.8819C30.7736 7.88449 30.7607 7.88967 30.7478 7.89743C30.7582 7.90002 30.691 7.90778 30.6472 7.91555L30.5077 7.93885C30.3219 7.97249 30.1386 8.01132 29.9527 8.05532C29.5862 8.14592 29.137 8.08121 28.7214 8.09156C27.9727 8.10968 27.2241 8.09674 26.4755 8.16145C23.8166 8.40476 21.1292 8.65066 18.429 8.95351C17.7966 9.02857 17.1667 9.08293 16.5342 9.17352C16.2193 9.21752 15.9017 9.26153 15.5868 9.3133L15.1118 9.39612C14.8692 9.44272 14.6239 9.48672 14.3787 9.53331C13.7385 9.65756 13.0931 9.77403 12.4477 9.88534C12.125 9.9371 11.7998 9.99146 11.4745 10.0432L10.54 10.2244C9.30349 10.4626 7.95596 10.6386 6.76074 10.8508C6.28574 10.9259 5.81592 11.0087 5.35641 11.0993L4.67232 11.2365C4.61811 11.2494 4.55357 11.2598 4.50969 11.2727L4.37545 11.3141L4.11214 11.3996C3.41256 11.6273 2.74396 11.8655 2.07277 12.1036C1.96951 12.1321 1.95403 12.1657 1.91272 12.1968L1.79914 12.2926L1.5668 12.4841C1.40933 12.6109 1.24928 12.7378 1.0789 12.8646L0.813012 13.0458C0.761383 13.0794 0.743312 13.1053 0.714916 13.1312L0.632309 13.214C0.518724 13.3228 0.399976 13.4315 0.276065 13.5428C0.23218 13.6825 0.165061 13.8223 0.108269 13.9595C0.0850352 14.0268 0.061802 14.1096 0.0463131 14.2313C0.0334057 14.3478 -0.0156424 14.5264 0.00500944 14.7257C0.00759092 14.9224 0.0204983 15.0984 0.0488946 15.2149C0.0721279 15.334 0.0953612 15.4194 0.113432 15.4867C0.154735 15.6135 0.211528 15.7403 0.25025 15.8672L0.312205 16.0587L0.340602 16.1545C0.350928 16.1881 0.353509 16.2166 0.387068 16.2554L0.696845 16.6981L0.859479 16.9207L0.900782 16.975L0.921434 17.0035L0.970482 17.032L1.177 17.1459C1.45322 17.296 1.74234 17.4435 2.04696 17.5859L2.31285 17.7334C2.3619 17.7567 2.38771 17.7852 2.45741 17.8059L2.7104 17.8603C3.04857 17.9327 3.38933 18.0026 3.74041 18.0673L4.84528 18.2718C5.03631 18.3055 5.19894 18.3417 5.41062 18.3702L6.02502 18.4556L8.46451 18.7947C10.1812 18.9733 11.8772 19.1648 13.5242 19.2968L14.7582 19.4055L15.2461 19.447L15.5739 19.4703L16.8905 19.5712C17.763 19.6437 18.6355 19.7239 19.5003 19.8249C21.4648 20.0526 23.4138 20.2727 25.3216 20.6143L26.7414 20.8991C26.9014 20.9327 26.8679 20.9275 26.9014 20.9353L26.9634 20.9534C27.0047 20.9664 27.0434 20.9793 27.0821 20.9948C27.2215 21.0544 27.299 21.1113 27.268 21.189C27.2344 21.2666 27.1312 21.3572 27.0408 21.3598C26.9582 21.3702 26.9272 21.3753 26.8963 21.3857L26.7207 21.4426L26.1554 21.6135C25.9308 21.6834 25.6985 21.7455 25.4661 21.8102C24.5394 22.0664 23.5868 22.2994 22.6033 22.5168C22.198 22.6074 21.7875 22.7498 21.408 22.9154C20.7833 23.1872 20.138 23.3943 19.441 23.5522C19.1596 23.6117 18.8808 23.6894 18.6071 23.7748C18.3335 23.8576 18.0624 23.9534 17.794 24.0595L17.3938 24.22L17.2828 24.264C17.2028 24.2951 17.1202 24.3287 17.0324 24.3701C16.8595 24.4504 16.6684 24.5513 16.4387 24.717C16.2167 24.8852 15.9172 25.1234 15.6307 25.6074C15.4939 25.8404 15.37 26.1561 15.3158 26.4823C15.2615 26.8214 15.2693 27.1346 15.3364 27.4555C15.4035 27.7765 15.5326 28.0664 15.672 28.289C15.8114 28.5142 15.9585 28.6773 16.0876 28.8015C16.3483 29.0474 16.5549 29.1665 16.7072 29.2493C17.6133 29.7023 18.4342 29.7929 19.0434 29.8421C19.6707 29.8886 20.1586 29.9068 20.471 29.987C20.6362 30.031 20.773 29.9534 20.884 29.9016C20.915 29.8861 20.9563 29.8628 20.9976 29.8369C21.0466 29.8058 21.0879 29.7799 21.1215 29.7566C21.2118 29.6945 21.3125 29.6246 21.3951 29.5314C21.5887 29.327 21.7152 28.9905 21.5603 28.6177C21.4184 28.245 20.9898 27.9059 20.5174 27.7506C19.9211 27.5513 19.317 27.3934 18.8085 27.1604C18.7775 27.1475 18.7491 27.1294 18.7207 27.1164L18.7569 27.1087C18.9556 27.0647 19.1544 27.0181 19.3558 26.9793C19.7559 26.8964 20.1586 26.8162 20.5639 26.7411C21.3796 26.5936 22.1954 26.446 23.0111 26.2985C23.832 26.151 24.6633 25.9957 25.4971 25.8171C25.9127 25.7291 26.3309 25.6333 26.7517 25.5297C26.9608 25.4806 27.1699 25.4236 27.3816 25.3667L27.6965 25.2813L27.854 25.2373L28.0631 25.1725C28.5691 25.0121 29.0699 24.8619 29.6146 24.6549C29.8779 24.5565 30.1593 24.4685 30.4174 24.365C30.6807 24.2614 30.944 24.1605 31.2047 24.0595C31.5119 23.9586 31.7469 23.8214 31.9998 23.692L32.3767 23.4927L32.5652 23.3917C32.6297 23.3581 32.6633 23.3192 32.7149 23.283C33.0789 22.9853 33.4842 22.698 33.7217 22.3719C33.8508 22.2036 33.9669 22.0147 34.047 21.7843C34.1296 21.5565 34.1657 21.2873 34.158 21.0233C34.1373 20.4953 33.9385 19.9983 33.6804 19.6307C33.4171 19.258 33.1125 18.9785 32.7433 18.7067C32.6633 18.6342 32.5161 18.5824 32.3896 18.5229L31.9998 18.3469L31.2177 17.9897L30.4329 17.6273L29.4855 17.3555C28.8659 17.1717 28.249 16.988 27.6294 16.8042C25.5978 16.1778 23.4268 15.8258 21.3099 15.5177C19.7817 15.2925 18.2612 15.0932 16.7511 14.9043L15.6178 14.7645L15.3622 14.7205L15.1686 14.6869L15.0034 14.6636C14.6575 14.6196 14.3141 14.5756 13.9656 14.5083L13.7075 14.4539C13.6662 14.441 13.6197 14.4228 13.6042 14.3814C13.5913 14.3348 13.6352 14.2986 13.6739 14.2831C13.8443 14.2313 14.0173 14.1821 14.1928 14.1459C14.5439 14.0656 14.9079 14.0139 15.2435 13.9854L15.4913 13.9699L17.1615 13.8042C18.3206 13.6981 19.4797 13.6049 20.6517 13.5272C23.6565 13.3202 26.6923 13.1157 29.7565 12.8724L31.8346 12.6938C32.9679 12.5747 34.0805 12.4298 35.2138 12.2977L36.0605 12.1968C36.1302 12.189 36.2051 12.1813 36.2696 12.1709L36.4038 12.1114L36.6723 11.9923L37.7514 11.5083L38.2909 11.265L38.562 11.1433L38.6962 11.0812C38.7169 11.0708 38.7427 11.0605 38.7633 11.0501L38.802 11.0165C39.0163 10.8327 39.2048 10.623 39.3803 10.3797C39.5532 10.1338 39.7081 9.8491 39.8321 9.48154C39.8863 9.29777 39.9431 9.09587 39.9611 8.89138C39.9973 8.67654 40.0076 8.47465 39.9947 8.29087Z" fill="#1B5798"/>
</g>
</svg>
