<svg width="831" height="560" viewBox="0 0 831 560" fill="none" xmlns="http://www.w3.org/2000/svg">
<path fill-rule="evenodd" clip-rule="evenodd" d="M346.762 16.3572L346.692 17.8572L346.662 18.5772C346.222 28.7272 317.802 37.6272 283.352 37.6272C262.612 37.6272 243.352 43.2872 240.252 50.5972L239.032 53.4972C238.732 54.1872 238.592 54.8672 238.592 55.5372L238.612 55.5371C238.582 62.5071 253.732 68.1071 274.832 68.1071H418.162C456.572 68.1071 493.112 80.0271 500.212 96.0671L501.562 99.1471H470.922L469.842 96.0671C466.412 86.2171 444.282 78.6371 420.312 78.6371H271.882C234.132 78.6371 208.542 68.0071 211.892 55.5371L211.872 55.5372C212.062 54.8572 212.322 54.1772 212.672 53.4972L214.162 50.5972C220.312 38.6672 252.142 29.7072 285.552 29.7072C305.672 29.7072 322.742 24.5972 323.582 18.5772L323.682 17.8572L323.692 17.8572L323.902 16.3572C324.672 10.7272 310.412 6.33722 292.122 6.33722H8.26216C2.21216 6.33722 -1.28784 4.91722 0.44216 3.19722C2.13216 1.50722 8.25216 0.157227 14.1422 0.157227H293.852C323.412 0.157227 347.172 7.14722 346.762 16.3572ZM382.022 159.367C381.132 145.357 403.522 134.677 431.872 134.677C478.972 134.677 510.012 118.247 501.922 99.997L501.552 99.157H470.912L471.212 99.997C474.952 110.747 456.062 120.037 428.852 120.037C383.662 120.037 346.402 136.637 345.712 159.367L345.562 164.147H382.332L382.022 159.367ZM706.712 408.517L811.462 523C822.212 542.54 814.402 559.13 793.512 559.13C772.622 559.13 754.5 541 739.212 523L646.972 408.517C606.5 357 658.182 308.597 727.952 308.597C769.952 308.597 785.912 286.787 765.472 262.287L760.482 256.307H805.912L811.462 262.287C850.532 304.367 827.112 344.347 752.692 344.347C707.892 344.347 665.5 357 706.712 408.517ZM760.492 256.307H805.922L803.352 253.547C771.152 218.877 729.5 194.157 648.732 194.157H444.122C411.092 194.157 383.372 180.557 382.372 164.997L382.322 164.157H345.552L345.532 164.997C344.732 191.537 390.922 215.947 448.612 215.947H663.812C698.552 215.947 740.252 232.057 758.192 253.547L760.492 256.307Z" fill="url(#paint0_linear)"/>
<defs>
<linearGradient id="paint0_linear" x1="708.503" y1="395.387" x2="429.873" y2="-104.055" gradientUnits="userSpaceOnUse">
<stop stop-color="#1B5696"/>
<stop offset="1" stop-color="#2063AC"/>
</linearGradient>
</defs>
</svg>
