<svg width="18" height="18" viewBox="0 0 18 18" fill="none" xmlns="http://www.w3.org/2000/svg">
<path d="M0.185484 4.31224C0.145485 5.35224 0.0354845 6.38224 0.0154845 7.42224C-0.00451545 8.56224 -0.0145155 9.70224 0.0454845 10.8322C0.105485 11.9122 0.215485 13.0022 0.485485 14.0522C0.685485 14.8222 0.965485 15.7822 1.59548 16.3222C2.23548 16.8722 3.09548 17.0522 3.90548 17.1622C4.90548 17.2922 5.92548 17.2722 6.92548 17.2322C7.86548 17.2022 8.80549 17.1322 9.74549 17.1022C10.8555 17.0722 11.9555 17.0322 13.0555 16.8522C14.9355 16.5422 16.8855 15.6822 17.5055 13.7322C17.7255 13.0222 17.6555 12.2722 17.6655 11.5422C17.6755 10.7422 17.6955 9.93224 17.7055 9.13224C17.7255 7.32224 17.7555 5.47224 17.4655 3.68224C17.3555 3.04224 17.2355 2.36224 16.8455 1.82224C16.4255 1.25224 15.7655 0.872241 15.1055 0.622241C13.4155 -0.0177592 11.4755 -0.0377592 9.68548 0.0222408C7.78548 0.0822408 5.89548 0.302241 4.00548 0.512241C3.63548 0.552241 3.27548 0.592241 2.90548 0.622241C2.53548 0.652241 2.20548 0.912241 2.04548 1.25224C1.94548 1.47224 1.92548 1.93224 2.29548 1.89224C3.99548 1.70224 5.68548 1.46224 7.39548 1.32224C9.22548 1.17224 11.1355 1.06224 12.9555 1.38224C13.6655 1.51224 14.3955 1.71224 15.0155 2.08224C15.2555 2.22224 15.4955 2.42224 15.6955 2.64224C15.8855 2.85224 15.9455 2.97224 16.0555 3.27224C16.2955 3.92224 16.3755 4.62224 16.4355 5.30224C16.5155 6.19224 16.5455 7.08224 16.5555 7.98224C16.5755 9.55224 16.4855 11.1222 16.4755 12.6922C16.4755 13.0122 16.4955 13.3322 16.4355 13.6522C16.4155 13.7522 16.3955 13.8522 16.3655 13.9522C16.3555 13.9922 16.3455 14.0422 16.3255 14.0822C16.3555 14.0022 16.3155 14.1022 16.3155 14.1122C16.2855 14.1922 16.2455 14.2622 16.2055 14.3422C16.1155 14.5222 16.2555 14.2722 16.1855 14.3722C16.1555 14.4122 16.1255 14.4622 16.0955 14.5022C16.0955 14.5022 15.9755 14.6622 16.0455 14.5722C16.1055 14.4922 16.0255 14.5922 16.0055 14.6122C15.9455 14.6822 15.8755 14.7422 15.8055 14.8022C15.9255 14.6922 15.7555 14.8422 15.7055 14.8722C15.6755 14.8922 15.6355 14.9222 15.6055 14.9422C15.5955 14.9522 15.4155 15.0522 15.5455 14.9822C15.1655 15.2022 14.8655 15.3122 14.4655 15.4222C12.6255 15.9322 10.6655 15.8322 8.77549 15.9222C7.82549 15.9722 6.86548 16.0122 5.91548 15.9722C5.07548 15.9422 4.21548 15.8822 3.42548 15.5922C2.70548 15.3322 2.39548 14.9322 2.10548 14.2322C1.74548 13.3622 1.57548 12.4322 1.46548 11.5022C1.22548 9.39224 1.31548 7.26224 1.26548 5.14224C1.26548 4.70224 1.25548 4.25224 1.23548 3.81224C1.21548 3.52224 0.915484 3.51224 0.705485 3.61224C0.435484 3.73224 0.205484 4.01224 0.185484 4.31224Z" fill="#2063AC"/>
</svg>
