<?xml version="1.0" encoding="UTF-8" standalone="no"?>
<!-- Created with Inkscape (http://www.inkscape.org/) -->

<svg
   xmlns:dc="http://purl.org/dc/elements/1.1/"
   xmlns:cc="http://creativecommons.org/ns#"
   xmlns:rdf="http://www.w3.org/1999/02/22-rdf-syntax-ns#"
   xmlns:svg="http://www.w3.org/2000/svg"
   xmlns="http://www.w3.org/2000/svg"
   xmlns:xlink="http://www.w3.org/1999/xlink"
   xmlns:sodipodi="http://sodipodi.sourceforge.net/DTD/sodipodi-0.dtd"
   xmlns:inkscape="http://www.inkscape.org/namespaces/inkscape"
   sodipodi:docname="ladybug.svg"
   inkscape:version="0.48.4 r9939"
   version="1.1"
   id="svg2"
   height="400"
   width="510">
  <sodipodi:namedview
     id="base"
     pagecolor="#ffffff"
     bordercolor="#666666"
     borderopacity="1.0"
     inkscape:pageopacity="0.0"
     inkscape:pageshadow="2"
     inkscape:zoom="0.49497475"
     inkscape:cx="-23.109946"
     inkscape:cy="99.626579"
     inkscape:document-units="px"
     inkscape:current-layer="g4480"
     showgrid="false"
     inkscape:window-width="1440"
     inkscape:window-height="845"
     inkscape:window-x="-3"
     inkscape:window-y="-3"
     inkscape:window-maximized="1"
     showguides="true"
     inkscape:guide-bbox="true"
     fit-margin-top="0"
     fit-margin-left="0"
     fit-margin-right="0"
     fit-margin-bottom="0" />
  <defs
     id="defs4">
    <inkscape:path-effect
       effect="bend_path"
       id="path-effect5163"
       is_visible="true"
       bendpath="m -8238.4065,244.7258 c 600.4751,-650.77969 1384.2192,-507.39297 2139.1386,-488.91383"
       prop_scale="1"
       scale_y_rel="false"
       vertical="false"
       bendpath-nodetypes="cc" />
    <inkscape:path-effect
       effect="bend_path"
       id="path-effect5161"
       is_visible="true"
       bendpath="m -8300.4764,597.50765 c 67.0408,-411.73038 829.027,-696.204168 2209.7075,-210.11173"
       prop_scale="1"
       scale_y_rel="false"
       vertical="false"
       bendpath-nodetypes="cc" />
    <inkscape:path-effect
       effect="bend_path"
       id="path-effect5157"
       is_visible="true"
       bendpath="m -7774.8452,41.705507 1745.5932,0"
       prop_scale="1"
       scale_y_rel="false"
       vertical="false" />
    <inkscape:path-effect
       bendpath-nodetypes="cc"
       vertical="false"
       scale_y_rel="false"
       prop_scale="1"
       bendpath="m -7813.9566,-108.69283 c 246.7392,286.22969 756.0323,182.264628 1716.2698,0"
       is_visible="true"
       id="path-effect5155"
       effect="bend_path" />
    <inkscape:path-effect
       effect="bend_path"
       id="path-effect5151"
       is_visible="true"
       bendpath="m -6037.48,210.18829 c -777.9751,-82.39675 -1535.6535,-94.12005 -2148.3943,398.82208"
       prop_scale="1"
       scale_y_rel="false"
       vertical="false"
       bendpath-nodetypes="cc" />
    <inkscape:path-effect
       effect="bend_path"
       id="path-effect5149"
       is_visible="true"
       bendpath="m -7813.9566,-148.25455 c 246.7392,-286.22969 756.0323,-182.26463 1716.2698,0"
       prop_scale="1"
       scale_y_rel="false"
       vertical="false"
       bendpath-nodetypes="cc" />
    <linearGradient
       id="linearGradient4576">
      <stop
         id="stop4578"
         offset="0"
         style="stop-color:#40a000;stop-opacity:1;" />
      <stop
         style="stop-color:#48b600;stop-opacity:1;"
         offset="0.5"
         id="stop4590" />
      <stop
         id="stop4580"
         offset="1"
         style="stop-color:#1d380b;stop-opacity:1;" />
    </linearGradient>
    <linearGradient
       id="linearGradient4418"
       inkscape:collect="always">
      <stop
         id="stop4420"
         offset="0"
         style="stop-color:#ffffff;stop-opacity:1;" />
      <stop
         id="stop4422"
         offset="1"
         style="stop-color:#ffffff;stop-opacity:0;" />
    </linearGradient>
    <linearGradient
       id="linearGradient4392">
      <stop
         id="stop4394"
         offset="0"
         style="stop-color:#ff7464;stop-opacity:1;" />
      <stop
         style="stop-color:#fd1900;stop-opacity:1;"
         offset="0.57722551"
         id="stop4414" />
      <stop
         style="stop-color:#ba0001;stop-opacity:1;"
         offset="0.94178897"
         id="stop4404" />
      <stop
         id="stop4396"
         offset="1"
         style="stop-color:#7c0d04;stop-opacity:1;" />
    </linearGradient>
    <radialGradient
       r="190.75"
       fy="492.78497"
       fx="-503.06702"
       cy="492.78497"
       cx="-503.06702"
       gradientTransform="matrix(1.010333,-0.30086864,0.22658188,0.76087417,-101.82255,-23.725916)"
       gradientUnits="userSpaceOnUse"
       id="radialGradient4561"
       xlink:href="#linearGradient4392"
       inkscape:collect="always" />
    <radialGradient
       r="22.223356"
       fy="538.19452"
       fx="-568.71588"
       cy="538.19452"
       cx="-568.71588"
       spreadMethod="pad"
       gradientTransform="matrix(4.9601121,-2.7566626,1.000013,2.7950835,1732.4349,-2560.2635)"
       gradientUnits="userSpaceOnUse"
       id="radialGradient4563"
       xlink:href="#linearGradient4418"
       inkscape:collect="always" />
    <radialGradient
       inkscape:collect="always"
       xlink:href="#linearGradient4576"
       id="radialGradient5184"
       gradientUnits="userSpaceOnUse"
       gradientTransform="matrix(0.75578202,0.18761038,-0.06271502,0.25264537,-1164.1065,1357.0872)"
       spreadMethod="pad"
       cx="-6471.5186"
       cy="-574.20636"
       fx="-6471.5186"
       fy="-574.20636"
       r="1517.4419" />
    <radialGradient
       inkscape:collect="always"
       xlink:href="#linearGradient4576"
       id="radialGradient5194"
       cx="-6526.5669"
       cy="993.10864"
       fx="-6526.5669"
       fy="993.10864"
       r="636.5"
       gradientTransform="matrix(1,0,0,0.6482718,0,-33.590043)"
       gradientUnits="userSpaceOnUse" />
    <radialGradient
       inkscape:collect="always"
       xlink:href="#linearGradient4576"
       id="radialGradient5202"
       cx="-6996.7163"
       cy="71.820839"
       fx="-6996.7163"
       fy="71.820839"
       r="646.60938"
       gradientTransform="matrix(1,0,0,0.48169541,0,-211.79223)"
       gradientUnits="userSpaceOnUse" />
    <radialGradient
       inkscape:collect="always"
       xlink:href="#linearGradient4576"
       id="radialGradient5210"
       cx="-6592.7456"
       cy="78.815048"
       fx="-6592.7456"
       fy="78.815048"
       r="665.06702"
       gradientTransform="matrix(1,0,0,0.683089,0,69.967589)"
       gradientUnits="userSpaceOnUse" />
    <radialGradient
       inkscape:collect="always"
       xlink:href="#linearGradient4576"
       id="radialGradient5220"
       cx="-6019.1523"
       cy="-33.715111"
       fx="-6019.1523"
       fy="-33.715111"
       r="735.05988"
       gradientTransform="matrix(1,0,0,0.87311562,0,27.329789)"
       gradientUnits="userSpaceOnUse"
       spreadMethod="reflect" />
  </defs>
  <metadata
     id="metadata7">
    <rdf:RDF>
      <cc:Work
         rdf:about="">
        <dc:format>image/svg+xml</dc:format>
        <dc:type
           rdf:resource="http://purl.org/dc/dcmitype/StillImage" />
        <dc:title />
      </cc:Work>
    </rdf:RDF>
  </metadata>
  <g
     transform="translate(790.10711,-311.34375)"
     id="layer1"
     inkscape:groupmode="layer"
     inkscape:label="Layer 1">
    <g
       transform="translate(3.9308202,-10.390817)"
       id="g4480">
      <g
         transform="matrix(-1,0,0,1,-1078.0759,5.802633e-8)"
         id="g4530">
        <path
           style="font-size:medium;font-style:normal;font-variant:normal;font-weight:normal;font-stretch:normal;text-indent:0;text-align:start;text-decoration:none;line-height:normal;letter-spacing:normal;word-spacing:normal;text-transform:none;direction:ltr;block-progression:tb;writing-mode:lr-tb;text-anchor:start;baseline-shift:baseline;color:#000000;fill:#1a1a1a;fill-opacity:1;fill-rule:evenodd;stroke:none;stroke-width:2;marker:none;visibility:visible;display:inline;overflow:visible;enable-background:accumulate;font-family:Sans;-inkscape-font-specification:Sans"
           d="m -691.61664,567.60244 c 0.89155,22.30174 0.0575,56.46163 3.59727,78.26258 1.37306,8.45653 1.26376,4.79948 6.0927,12.73248 2.56926,17.83797 -10.16582,16.83604 -10.92748,5.32979 -2.29111,-30.55065 -0.198,-64.17132 0.0277,-89.57627 0.31149,-1.72418 -0.63316,-8.86227 1.20982,-6.74858 z"
           id="path3839"
           inkscape:connector-curvature="0"
           sodipodi:nodetypes="csccccc" />
        <path
           inkscape:transform-center-y="6.6547122"
           inkscape:transform-center-x="5.0507627"
           sodipodi:nodetypes="csccc"
           inkscape:connector-curvature="0"
           id="path3836"
           d="m -686.25443,553.04965 c -22.30174,-0.96516 -79.33504,2.01136 -83.83945,-1.7436 -6.4989,-5.41759 -15.86095,-7.43845 -20.01092,-0.18839 -0.46769,10.60392 70.19898,3.56915 97.10179,3.24171 1.72418,-0.33721 8.86227,0.68542 6.74858,-1.30972 z"
           style="font-size:medium;font-style:normal;font-variant:normal;font-weight:normal;font-stretch:normal;text-indent:0;text-align:start;text-decoration:none;line-height:normal;letter-spacing:normal;word-spacing:normal;text-transform:none;direction:ltr;block-progression:tb;writing-mode:lr-tb;text-anchor:start;baseline-shift:baseline;color:#000000;fill:#1a1a1a;fill-opacity:1;fill-rule:evenodd;stroke:none;stroke-width:2;marker:none;visibility:visible;display:inline;overflow:visible;enable-background:accumulate;font-family:Sans;-inkscape-font-specification:Sans" />
        <path
           style="font-size:medium;font-style:normal;font-variant:normal;font-weight:normal;font-stretch:normal;text-indent:0;text-align:start;text-decoration:none;line-height:normal;letter-spacing:normal;word-spacing:normal;text-transform:none;direction:ltr;block-progression:tb;writing-mode:lr-tb;text-anchor:start;baseline-shift:baseline;color:#000000;fill:#000000;fill-opacity:1;fill-rule:evenodd;stroke:none;stroke-width:2;marker:none;visibility:visible;display:inline;overflow:visible;enable-background:accumulate;font-family:Sans;-inkscape-font-specification:Sans"
           d="m -699.93375,555.05177 c -3.79418,13.9819 -2.95084,29.30411 -6.71746,43.29963 -1.48762,5.5275 -8.74938,11.04545 -9.77927,15.61136 -1.16801,5.17825 0.1381,7.1012 4.38079,9.09701 2.17418,1.02275 5.02734,2.75526 7.06769,0.75369 1.75588,-1.7225 1.25785,-4.78693 0.66424,-7.12901 -1.86592,-7.36199 -0.0224,-11.50332 1.24693,-18.98159 2.14956,-12.66446 3.40277,-25.52188 4.16172,-38.38845 0.0659,-1.11776 -0.31293,-6.88537 -1.02464,-4.26264 z"
           id="path3830"
           inkscape:connector-curvature="0"
           sodipodi:nodetypes="sssssssss" />
        <path
           sodipodi:nodetypes="sssssss"
           inkscape:connector-curvature="0"
           id="path3826"
           d="m -709.3272,549.6588 c -6.98841,7.87678 -12.45465,17.2068 -20.23432,24.27791 -4.13161,3.75531 -15.66203,3.43119 -13.82664,11.35765 1.23249,5.32275 8.27929,6.92856 9.27209,0.52566 0.99328,-6.40596 7.15587,-10.01174 10.82229,-14.94944 5.0507,-6.80197 10.52313,-13.34536 14.72952,-20.72167 0.19991,-0.35057 -0.51278,-0.77207 -0.76294,-0.49011 z"
           style="font-size:medium;font-style:normal;font-variant:normal;font-weight:normal;font-stretch:normal;text-indent:0;text-align:start;text-decoration:none;line-height:normal;letter-spacing:normal;word-spacing:normal;text-transform:none;direction:ltr;block-progression:tb;writing-mode:lr-tb;text-anchor:start;baseline-shift:baseline;color:#000000;fill:#000000;fill-opacity:1;fill-rule:evenodd;stroke:none;stroke-width:2;marker:none;visibility:visible;display:inline;overflow:visible;enable-background:accumulate;font-family:Sans;-inkscape-font-specification:Sans" />
        <path
           inkscape:connector-curvature="0"
           id="path4345"
           d="m -480.75245,334.34833 c -67.20226,-0.42793 -137.94401,30.83188 -172.17312,90.68587 -17.14947,29.83699 -22.36861,66.38834 -13.44645,99.70032 6.99083,14.27106 16.17911,37.94524 30.07884,52.12793 55.23796,64.04663 151.33918,81.9417 229.46236,54.59428 54.25254,-18.4079 103.18956,-62.7223 113.80325,-120.79093 4.50426,-24.1295 1.99754,-49.48269 -7.02113,-72.30535 -10.50084,-14.31256 -19.37124,-33.90317 -34.01895,-46.67645 -38.24392,-38.35518 -93.07905,-57.44324 -146.6848,-57.33567 z"
           style="fill:#000000;fill-opacity:1;fill-rule:evenodd;stroke:none" />
        <path
           sodipodi:nodetypes="cccccscc"
           inkscape:connector-curvature="0"
           id="path4224"
           d="m -600.11799,604.02734 c 0.38252,2.26019 7.23898,29.5089 6.8922,32.09929 -0.83256,3.35819 -22.9881,45.03149 -24.32098,48.0938 0.13451,0.40825 6.96565,-7.92835 7.32206,-8.51434 0.92343,-1.59064 13.18636,-22.51247 14.06608,-24.13957 0.54857,-1.14088 6.65635,-14.48254 6.73953,-15.71281 0.0685,-1.01335 -3.22857,-16.25672 -3.52751,-17.09015 15.84703,-52.30455 1.86171,-104.81301 -7.17138,-14.73622 z"
           style="font-size:medium;font-style:normal;font-variant:normal;font-weight:normal;font-stretch:normal;text-indent:0;text-align:start;text-decoration:none;line-height:normal;letter-spacing:normal;word-spacing:normal;text-transform:none;direction:ltr;block-progression:tb;writing-mode:lr-tb;text-anchor:start;baseline-shift:baseline;color:#000000;fill:#000000;fill-opacity:1;fill-rule:nonzero;stroke:#000000;stroke-width:2.40834403;marker:none;visibility:visible;display:inline;overflow:visible;enable-background:accumulate;font-family:Sans;-inkscape-font-specification:Sans" />
        <path
           style="font-size:medium;font-style:normal;font-variant:normal;font-weight:normal;font-stretch:normal;text-indent:0;text-align:start;text-decoration:none;line-height:normal;letter-spacing:normal;word-spacing:normal;text-transform:none;direction:ltr;block-progression:tb;writing-mode:lr-tb;text-anchor:start;baseline-shift:baseline;color:#000000;fill:#000000;fill-opacity:1;fill-rule:nonzero;stroke:#000000;stroke-width:3.09386706;marker:none;visibility:visible;display:inline;overflow:visible;enable-background:accumulate;font-family:Sans;-inkscape-font-specification:Sans"
           d="m -560.62919,640.29874 c 2.5875,0.85213 34.99499,8.28884 37.53634,10.25765 3.0877,3.03637 16.11277,63.40949 15.52253,59.15077 -3.6544,-26.36744 -2.58345,-36.04059 -13.75355,-64.1223 -1.03042,-0.68539 -18.86878,-5.52607 -19.90821,-5.64078 -47.48234,-41.49986 -112.53199,-66.53192 -19.39711,0.35466 z"
           id="path4226"
           inkscape:connector-curvature="0"
           sodipodi:nodetypes="ccsccc" />
        <path
           style="font-size:medium;font-style:normal;font-variant:normal;font-weight:normal;font-stretch:normal;text-indent:0;text-align:start;text-decoration:none;line-height:normal;letter-spacing:normal;word-spacing:normal;text-transform:none;direction:ltr;block-progression:tb;writing-mode:lr-tb;text-anchor:start;baseline-shift:baseline;color:#000000;fill:#000000;fill-opacity:1;fill-rule:nonzero;stroke:#000000;stroke-width:2.91908169;marker:none;visibility:visible;display:inline;overflow:visible;enable-background:accumulate;font-family:Sans;-inkscape-font-specification:Sans"
           d="m -481.00071,611.88166 c 3.41721,2.43954 49.84645,32.47772 53.70804,33.71165 2.53466,0.1912 33.91189,-0.38273 36.53021,0.84339 3.25456,2.08074 42.08351,45.69863 42.08351,45.69863 0,0 -16.97176,-25.65923 -26.79335,-37.27993 -1.00867,-1.04768 -12.91633,-12.90527 -14.18962,-13.38306 -1.04878,-0.39353 -18.40513,-0.76313 -19.3974,-0.63116 -29.2419,-2.44004 -43.61226,-18.6556 -66.23982,-29.4947 -0.41121,-0.1262 -5.4081,0.32564 -5.70157,0.53518 z"
           id="path4072"
           inkscape:connector-curvature="0"
           sodipodi:nodetypes="cccccsccc" />
        <path
           sodipodi:nodetypes="sssss"
           inkscape:connector-curvature="0"
           id="path3775"
           d="m -617.76991,533.01462 c 11.69022,55.95104 117.23916,116.96338 -32.6174,85.59557 -23.71669,-4.96435 -66.90254,-49.14848 -60.49257,-99.50309 5.20569,-40.89416 53.20135,-81.74291 76.71039,-79.19147 24.08924,2.61441 6.01795,43.411 16.39958,93.09899 z"
           style="fill:#000000;stroke:none" />
        <path
           inkscape:connector-curvature="0"
           id="path3908"
           d="m -478.71875,332 c -105.3456,0 -190.75,71.38655 -190.75,159.4375 0,11.61608 1.49018,22.93359 4.3125,33.84375 15.26148,-17.52405 36.27544,-33.30634 61.71875,-46.6875 55.01625,-28.93418 130.87836,-46.78125 214.625,-46.78125 31.42742,0 61.73869,2.52075 90.25,7.1875 -25.95027,-62.28323 -96.79587,-107 -180.15625,-107 z m 89.90625,102.125 c -83.35752,0 -158.82037,17.77896 -213.3125,46.4375 -25.9251,13.63454 -47.05411,29.70594 -62.09375,47.4375 20.08672,70.06296 95.5173,122.15625 185.5,122.15625 105.3456,0 190.75,-71.38655 190.75,-159.4375 0,-17.14441 -3.25783,-33.64854 -9.25,-49.125 -28.88441,-4.83171 -59.65448,-7.46875 -91.59375,-7.46875 z"
           style="fill:url(#radialGradient4561);fill-opacity:1;fill-rule:evenodd;stroke:none" />
        <path
           style="fill:#ffffff;fill-opacity:1;fill-rule:evenodd;stroke:none"
           d="m -690.58472,484.08722 c -2.85388,-1.64116 -8.27547,6.84007 -9.49164,8.66954 -3.38925,5.70612 -6.09324,11.84959 -7.70849,18.29706 7.97898,1.45121 15.7661,-2.55695 21.75881,-7.49699 4.18402,-3.4642 8.01272,-7.8173 9.47199,-13.15595 0.56492,-3.63538 -3.37812,-5.57783 -6.47816,-4.81331 -4.07834,0.22488 -3.75314,-2.86761 -7.55251,-1.50035 z"
           id="path4351"
           inkscape:connector-curvature="0"
           sodipodi:nodetypes="ccccccc" />
        <path
           style="fill:#ffffff;fill-opacity:1;fill-rule:evenodd;stroke:none"
           d="m -651.00668,595.82386 c -1.82619,0.0244 -3.42787,0.63114 -5.28125,1.59375 -8.04134,5.55248 -13.3097,7.13969 -10.9375,11.40625 6.04156,4.17774 11.87591,6.96014 16.84375,8 11.09747,2.32291 20.74947,4.11949 29.1875,5.46875 0.15611,-0.45153 0.22041,-0.96678 0.21875,-1.5625 -0.64417,-4.52404 -6.49385,-11.25095 -9.46875,-14.3125 -5.77575,-5.21198 -10.53859,-5.53224 -16.90625,-9.96875 -1.3887,-0.43745 -2.56054,-0.63966 -3.65625,-0.625 z"
           id="path4353"
           inkscape:connector-curvature="0" />
        <path
           sodipodi:nodetypes="ccsccc"
           inkscape:connector-curvature="0"
           id="rect3790"
           d="m -714.70241,553.15956 18.41461,39.03837 c 9.50796,7.19365 18.66672,9.46979 23.42991,6.35656 13.64917,-8.92113 4.95877,-21.24366 -1.99976,-31.57858 l -18.1278,-46.76902 c -23.496,-6.75193 -26.32033,16.05939 -21.71696,32.95267 z"
           style="fill:#000000;fill-opacity:1;fill-rule:evenodd;stroke:none" />
        <path
           sodipodi:nodetypes="sssssss"
           inkscape:connector-curvature="0"
           id="rect3793"
           d="m -712.27272,546.34482 c 5.10723,-2.94866 8.32459,5.32525 11.27325,10.43248 l 10.64498,18.43765 c 2.94866,5.10723 4.28673,10.63146 -0.8205,13.58011 -5.10722,2.94867 -14.66849,2.1721 -17.61715,-2.93513 l -10.64498,-18.43764 c -2.94866,-5.10724 2.05717,-18.12881 7.1644,-21.07747 z"
           style="fill:#000000;fill-opacity:1;fill-rule:evenodd;stroke:none" />
        <path
           inkscape:connector-curvature="0"
           id="path3832"
           d="m -710.125,578.875 c -1.81489,3.89226 -4.99267,12.90635 -2.59375,12.96875 2.72892,-2.66662 2.94193,-5.4724 5.46875,-8 l -2.875,-4.96875 z"
           style="font-size:medium;font-style:normal;font-variant:normal;font-weight:normal;font-stretch:normal;text-indent:0;text-align:start;text-decoration:none;line-height:normal;letter-spacing:normal;word-spacing:normal;text-transform:none;direction:ltr;block-progression:tb;writing-mode:lr-tb;text-anchor:start;baseline-shift:baseline;color:#000000;fill:#000000;fill-opacity:1;fill-rule:evenodd;stroke:none;stroke-width:2;marker:none;visibility:visible;display:inline;overflow:visible;enable-background:accumulate;font-family:Sans;-inkscape-font-specification:Sans" />
        <path
           inkscape:connector-curvature="0"
           id="path3834"
           d="m -718.21875,567.46875 c -1.36828,5.02781 -4.23624,14.87682 -1.28125,15.0625 1.78426,-3.12159 2.28122,-7.63345 3.90625,-10.5625 l -2.625,-4.5 z"
           style="font-size:medium;font-style:normal;font-variant:normal;font-weight:normal;font-stretch:normal;text-indent:0;text-align:start;text-decoration:none;line-height:normal;letter-spacing:normal;word-spacing:normal;text-transform:none;direction:ltr;block-progression:tb;writing-mode:lr-tb;text-anchor:start;baseline-shift:baseline;color:#000000;fill:#000000;fill-opacity:1;fill-rule:evenodd;stroke:none;stroke-width:2;marker:none;visibility:visible;display:inline;overflow:visible;enable-background:accumulate;font-family:Sans;-inkscape-font-specification:Sans" />
        <path
           inkscape:connector-curvature="0"
           id="path3841"
           d="m -694.4643,544.15146 c 6.77145,5.8877 -7.62306,15.09568 -9.49203,5.81564 -1.43661,-5.04392 5.70675,-10.69423 9.49203,-5.81564 z"
           style="fill:#f2f2f2;fill-opacity:1;fill-rule:evenodd;stroke:none" />
        <path
           style="fill:#f2f2f2;fill-opacity:1;fill-rule:evenodd;stroke:none"
           d="m -681.21336,563.87117 c 6.77146,5.88771 -7.62305,15.09569 -9.49203,5.81565 -1.4366,-5.04392 5.70676,-10.69423 9.49203,-5.81565 z"
           id="path3874"
           inkscape:connector-curvature="0" />
        <path
           sodipodi:nodetypes="ccc"
           inkscape:connector-curvature="0"
           id="path3910"
           d="m -624.75184,492.08219 c 53.57665,23.20677 -41.06139,92.63901 -51.76018,32.69813 -8.22369,-32.57927 45.54779,-80.63785 51.76018,-32.69813 z"
           style="fill:#000000;fill-opacity:1;fill-rule:evenodd;stroke:none" />
        <path
           sodipodi:nodetypes="ccc"
           inkscape:connector-curvature="0"
           id="path3912"
           d="m -663.99229,529.27618 c 3.38992,11.82413 6.58665,20.64474 12.93304,31.28125 10.59974,-21.90033 13.91297,-52.06218 -12.93304,-31.28125 z"
           style="fill:#ffffff;fill-opacity:1;fill-rule:evenodd;stroke:none" />
        <path
           sodipodi:nodetypes="ccsccc"
           inkscape:connector-curvature="0"
           id="path3914"
           d="m -666.84629,490.67538 c -0.80851,-0.0177 -1.62333,0.007 -2.46875,0.0937 -0.0293,1.15109 -0.0625,2.31178 -0.0625,3.46875 0,11.14415 0.32501,17.00151 2.92857,27.5 15.94944,-11.99425 22.55964,-31.14272 -0.39732,-31.0625 z"
           style="fill:#ffffff;fill-opacity:1;fill-rule:evenodd;stroke:none" />
        <path
           inkscape:connector-curvature="0"
           id="path3934"
           d="m -473.27926,458.96522 c -17.21594,2.04283 -27.28334,24.24128 -17.67687,38.66687 6.4838,12.73696 21.89793,19.97544 35.74781,15.78879 11.20708,-2.45187 21.91094,-12.74727 19.63449,-25.01102 -2.14507,-18.06829 -20.55162,-29.52429 -37.70543,-29.44464 z"
           style="fill:#000000;fill-opacity:1;fill-rule:evenodd;stroke:none" />
        <path
           sodipodi:nodetypes="sssss"
           inkscape:connector-curvature="0"
           id="path3936"
           d="m -499.19339,381.40255 c -9.41103,0.26687 -17.79506,4.79934 -23.58631,11.14291 -10.99162,12.03987 -12.64328,30.6038 5.75034,38.91029 20.36381,9.19622 45.24604,-14.7911 41.48006,-34.73001 -1.49714,-7.92655 -16.57538,-15.52365 -23.64409,-15.32319 z"
           style="fill:#000000;fill-opacity:1;fill-rule:evenodd;stroke:none" />
        <path
           inkscape:connector-curvature="0"
           id="path3938"
           d="m -514.86002,580.74259 c -16.13899,0.63202 -32.82099,13.96529 -32.4289,32.6629 1.88981,18.40749 22.72798,24.39765 36.56876,18.76023 14.75857,-4.75949 27.57501,-25.01867 18.24605,-40.91238 -5.6313,-7.70038 -13.93215,-10.8418 -22.38591,-10.51075 z"
           style="fill:#000000;fill-opacity:1;fill-rule:evenodd;stroke:none" />
        <path
           style="fill:#000000;fill-opacity:1;fill-rule:evenodd;stroke:none"
           d="m -331.45606,514.26369 c -22.70003,-1.53729 -32.56106,28.67037 -23.95044,46.01606 17.36417,19.38987 47.13154,-5.87703 40.49737,-27.86249 -0.95828,-8.60138 -6.74489,-18.27537 -16.54693,-18.15357 z"
           id="path3940"
           inkscape:connector-curvature="0" />
        <path
           inkscape:connector-curvature="0"
           id="path3945"
           d="m -563.01339,348.37054 c -14.73006,6.07504 -28.40661,13.68601 -40.6875,22.59375 1.06536,20.25177 40.70844,17.39043 46.5,-3.03125 3.879,-10.72738 0.55989,-16.83672 -5.8125,-19.5625 z"
           style="fill:#000000;fill-opacity:1;fill-rule:evenodd;stroke:none" />
        <path
           inkscape:connector-curvature="0"
           id="path4304"
           d="m -373.74518,361.16062 c -2.82773,0.25602 -5.52209,0.95133 -7.90302,2.12282 -14.19478,12.59957 4.28922,34.20075 20.38416,29.38695 6.29684,-0.69534 13.38874,-4.88277 13.29958,-11.9952 0.0481,-0.70431 0.0343,-1.40173 0,-2.07166 -7.8021,-6.54548 -16.41712,-12.39325 -25.72957,-17.44291 -0.0168,0.001 -0.0344,-0.002 -0.0512,0 z"
           style="fill:#000000;fill-opacity:1;fill-rule:evenodd;stroke:none" />
        <path
           inkscape:connector-curvature="0"
           id="path4416"
           d="m -440.02795,450.53054 c 12.27378,34.30579 -27.12812,89.54418 -88.00665,123.37842 -60.87854,33.83423 -120.18023,33.45194 -132.454,-0.85385 -12.27379,-34.30579 27.12816,-89.54422 88.00669,-123.37845 60.87854,-33.83423 120.18018,-33.45193 132.45396,0.85388 z"
           style="fill:url(#radialGradient4563);fill-opacity:1;fill-rule:evenodd;stroke:none" />
        <path
           inkscape:connector-curvature="0"
           id="path4426"
           d="m -520.67257,491.73668 c 2.7844,7.52447 -5.83639,21.43474 -19.25509,31.06944 -13.41869,9.63471 -26.55389,11.3454 -29.33829,3.82092 -2.78439,-7.52447 5.83641,-21.43475 19.2551,-31.06945 13.41869,-9.63471 26.55388,-11.34539 29.33828,-3.82091 z"
           inkscape:transform-center-y="-17.905533"
           inkscape:transform-center-x="4.209213"
           style="fill:#ffffff;fill-opacity:1;fill-rule:evenodd;stroke:none" />
      </g>
    </g>
  </g>
</svg>
