<svg width="33" height="29" viewBox="0 0 33 29" fill="none" xmlns="http://www.w3.org/2000/svg">
<path d="M21.6594 27.795C24.8923 27.7085 28.0862 27.6234 31.3015 27.5369C31.3252 27.461 31.3428 27.4327 31.3421 27.4051C31.2693 25.6316 31.195 23.8581 31.1199 22.0846C31.0609 20.6888 30.9973 19.2937 30.9406 17.8979C30.8824 16.4584 30.8211 15.0197 30.7805 13.5794C30.7721 13.2722 30.635 13.0815 30.3232 12.906C26.1602 10.5595 21.7843 7.30746 17.6267 4.95402C17.498 4.88125 17.3609 4.81919 17.2682 4.77246C15.6081 5.67798 13.8024 7.00025 12.1706 7.86823C9.19054 9.45328 6.60115 11.4719 3.71069 13.1658C3.3468 13.3787 3.22652 13.5902 3.24261 13.9548C3.30696 15.4073 3.34526 16.8621 3.34143 18.3162C3.33837 19.2753 3.21196 20.2337 3.20277 21.1936C3.18285 23.2598 3.20201 25.3259 3.2089 27.3913C3.20967 27.5614 3.23725 27.7314 3.25793 27.9544C4.79701 27.9689 6.29395 27.9597 7.78859 28.0026C9.30392 28.0455 10.8162 28.09 12.3261 27.9743L21.6594 27.795Z" fill="#FFD62B"/>
<path d="M32.6582 9.79731L26.0553 5.83662L17.5271 0.722192L17.3318 0.60498L17.1357 0.72066C14.9408 2.01535 12.7406 3.35448 10.6132 4.64918C7.62389 6.46864 4.53348 8.35016 1.44 10.1175C1.32969 10.1804 1.25461 10.2639 1.19409 10.3313C1.17187 10.3558 1.15119 10.3795 1.12974 10.4002L0.86084 10.6645L1.12131 10.938L1.58326 11.4222L1.80237 11.6512L2.0682 11.4796C2.16932 11.4138 2.26585 11.3517 2.35778 11.292C2.54318 11.1717 2.71784 11.0583 2.89098 10.9487C3.28322 10.7013 3.67929 10.447 4.0631 10.2018C4.94794 9.6349 5.86341 9.04884 6.78196 8.50261C7.95791 7.80317 9.16527 7.1068 10.3336 6.43263C11.2904 5.88028 12.2794 5.30955 13.247 4.73957C14.5471 3.97425 15.8456 3.16756 17.1012 2.38844L17.2353 2.3057C17.3149 2.25591 17.3494 2.25361 17.3555 2.25361C17.367 2.25361 17.3946 2.26433 17.4352 2.29345C17.5057 2.34401 17.5762 2.38614 17.6436 2.42598C17.6696 2.4413 17.6949 2.45662 17.7202 2.47271L19.2248 3.40351C23.2613 5.90173 27.2986 8.39919 31.3359 10.8966C31.4378 10.9595 31.5413 11.0185 31.6508 11.0805C31.7037 11.1104 31.7596 11.1418 31.8186 11.1763L32.138 11.3609L32.3342 11.0483L32.6574 10.5335L32.7846 10.3313L32.993 10.0003L32.6582 9.79731Z" fill="#FFD62B"/>
</svg>
