<svg width="33" height="29" viewBox="0 0 33 29" fill="none" xmlns="http://www.w3.org/2000/svg">
<path d="M21.6594 27.795C24.8923 27.7085 28.0861 27.6234 31.3014 27.5369C31.3252 27.461 31.3428 27.4327 31.342 27.4051C31.2692 25.6316 31.1949 23.8581 31.1198 22.0846C31.0609 20.6888 30.9973 19.2937 30.9406 17.8979C30.8824 16.4584 30.8211 15.0197 30.7805 13.5794C30.772 13.2722 30.6349 13.0815 30.3231 12.906C26.1602 10.5595 21.7843 7.30746 17.6267 4.95402C17.498 4.88125 17.3609 4.81919 17.2682 4.77246C15.608 5.67798 13.8024 7.00025 12.1706 7.86823C9.19049 9.45328 6.60111 11.4719 3.71064 13.1658C3.34675 13.3787 3.22647 13.5902 3.24256 13.9548C3.30691 15.4073 3.34522 16.8621 3.34139 18.3162C3.33832 19.2753 3.21192 20.2337 3.20273 21.1936C3.18281 23.2598 3.20196 25.3259 3.20885 27.3913C3.20962 27.5614 3.2372 27.7314 3.25788 27.9544C4.79696 27.9689 6.2939 27.9597 7.78855 28.0026C9.30387 28.0455 10.8161 28.09 12.3261 27.9743L21.6594 27.795Z" fill="#977FB8"/>
<path d="M32.6582 9.79731L26.0552 5.83662L17.5271 0.722192L17.3318 0.60498L17.1356 0.72066C14.9408 2.01535 12.7406 3.35448 10.6131 4.64918C7.62385 6.46864 4.53343 8.35016 1.43996 10.1175C1.32964 10.1804 1.25456 10.2639 1.19404 10.3313C1.17183 10.3558 1.15114 10.3795 1.12969 10.4002L0.860794 10.6645L1.12126 10.938L1.58322 11.4222L1.80232 11.6512L2.06815 11.4796C2.16928 11.4138 2.26581 11.3517 2.35774 11.292C2.54313 11.1717 2.7178 11.0583 2.89094 10.9487C3.28317 10.7013 3.67924 10.447 4.06305 10.2018C4.94789 9.6349 5.86337 9.04884 6.78191 8.50261C7.95786 7.80317 9.16522 7.1068 10.3335 6.43263C11.2904 5.88028 12.2794 5.30955 13.247 4.73957C14.547 3.97425 15.8455 3.16756 17.1012 2.38844L17.2352 2.3057C17.3149 2.25591 17.3494 2.25361 17.3555 2.25361C17.367 2.25361 17.3946 2.26433 17.4352 2.29345C17.5057 2.34401 17.5761 2.38614 17.6435 2.42598C17.6696 2.4413 17.6949 2.45662 17.7202 2.47271L19.2248 3.40351C23.2613 5.90173 27.2986 8.39919 31.3359 10.8966C31.4378 10.9595 31.5412 11.0185 31.6508 11.0805C31.7036 11.1104 31.7595 11.1418 31.8185 11.1763L32.138 11.3609L32.3341 11.0483L32.6574 10.5335L32.7846 10.3313L32.9929 10.0003L32.6582 9.79731Z" fill="#977FB8"/>
</svg>
