<svg width="39" height="22" viewBox="0 0 39 22" fill="none" xmlns="http://www.w3.org/2000/svg">
<path d="M25.6269 12.7806L25.5688 12.774L25.5972 12.7285L25.6269 12.7806ZM23.7191 11.4134L23.6622 11.4078L23.6896 11.3634L23.7191 11.4134ZM21.1671 12.4855L21.163 12.5465L21.1127 12.5147L21.1671 12.4855ZM24.0198 9.68293C24.0379 9.67911 24.0686 9.66703 24.0731 9.67333C24.11 9.72618 24.093 9.75149 24.0303 9.73789C24.0231 9.73645 24.0232 9.70244 24.0198 9.68293ZM14.5134 17.3781C14.5069 17.356 14.5003 17.3358 14.4943 17.3154C14.5154 17.3142 14.5414 17.3046 14.5558 17.3139C14.5684 17.3223 14.567 17.3515 14.5722 17.3712C14.5522 17.3734 14.5326 17.3759 14.5134 17.3781ZM3.90737 15.8241C3.88792 15.8281 3.86262 15.8407 3.85085 15.833C3.83909 15.8252 3.84087 15.7971 3.8371 15.7773C3.85567 15.7752 3.87845 15.7656 3.8913 15.7736C3.90299 15.7806 3.90241 15.8065 3.90737 15.8241ZM3.08838 13.755L3.141 13.7603L3.1161 13.8016L3.08838 13.755ZM15.8481 17.8883C15.8225 17.8485 15.7972 17.8084 15.7712 17.7683C15.7912 17.7629 15.8135 17.7484 15.831 17.7532C15.9207 17.7749 15.9752 17.8654 15.9193 17.8908C15.9002 17.8989 15.8724 17.8895 15.8481 17.8883ZM3.49043 11.9602C3.44582 11.9782 3.40113 11.9955 3.35653 12.0134C3.36131 11.9659 3.35149 11.907 3.37584 11.8742C3.39962 11.843 3.45905 11.8385 3.50278 11.8223C3.49856 11.8684 3.49466 11.9141 3.49043 11.9602ZM2.25092 11.5374C2.28669 11.5302 2.32239 11.5222 2.35777 11.5146C2.34494 11.5562 2.34184 11.6064 2.31567 11.6351C2.29525 11.6575 2.24519 11.653 2.20808 11.6611C2.2227 11.6197 2.23631 11.5788 2.25092 11.5374ZM22.691 11.4014C22.6816 11.3828 22.6609 11.36 22.6658 11.3454C22.6902 11.2631 22.7589 11.2276 22.8342 11.2407C22.8731 11.247 22.904 11.3032 22.9378 11.3369C22.9061 11.3629 22.8774 11.4024 22.8417 11.4103C22.7942 11.4208 22.7413 11.4056 22.691 11.4014ZM37.8819 13.0865C37.8385 13.1016 37.7916 13.1293 37.7452 13.1291C37.7076 13.129 37.6701 13.0943 37.6321 13.0752C37.6536 13.0357 37.6661 12.9835 37.6984 12.9599C37.7325 12.9358 37.7925 12.9228 37.8303 12.9359C37.8678 12.9494 37.8935 13.0008 37.92 13.0387C37.9233 13.0433 37.8965 13.0688 37.8819 13.0865ZM25.087 9.71993C25.0753 9.73413 25.0639 9.76211 25.0495 9.76311C24.8486 9.78442 24.6467 9.7998 24.4456 9.8222C24.3723 9.83013 24.3423 9.80603 24.3617 9.73516C24.3673 9.71339 24.3864 9.68787 24.4064 9.67857C24.6191 9.58142 24.8369 9.55145 25.0579 9.6529C25.0739 9.66025 25.077 9.69502 25.087 9.71993ZM2.62266 12.8131C2.58195 12.8524 2.53168 12.9127 2.46935 12.9553C2.43717 12.9771 2.3829 12.973 2.33961 12.9689C2.32817 12.9679 2.30946 12.9229 2.31258 12.901C2.32748 12.8026 2.33256 12.698 2.37144 12.609C2.43229 12.4705 2.60913 12.432 2.67819 12.5268C2.75502 12.6318 2.68956 12.7137 2.62266 12.8131ZM17.4625 18.2398C17.3549 18.1493 17.2993 18.0656 17.3074 17.9558C17.3105 17.9126 17.3349 17.8703 17.3498 17.8279C17.5319 17.8947 17.7336 17.9229 17.875 18.0715C17.9012 18.0995 17.8858 18.1686 17.887 18.2191C17.8887 18.2777 17.8558 18.3066 17.7924 18.3144C17.6606 18.3288 17.5388 18.3116 17.4625 18.2398ZM1.69397 12.4473C1.61411 12.527 1.5092 12.6395 1.39344 12.7393C1.37157 12.758 1.29423 12.7394 1.26434 12.7135C1.23245 12.6853 1.20268 12.6183 1.21481 12.5839C1.32636 12.2696 1.5789 12.1029 1.87123 11.9831C1.89401 11.9735 1.92227 11.9762 1.94779 11.9727C1.94641 12.0153 1.95981 12.0675 1.94031 12.0991C1.87292 12.2078 1.79315 12.3094 1.69397 12.4473ZM16.044 1.05188C16.0292 1.07451 16.0217 1.10496 16.0056 1.11037C15.5849 1.25073 15.2338 1.50885 14.8748 1.75533C14.8358 1.78236 14.7758 1.78904 14.7254 1.7881C14.6822 1.78791 14.607 1.76981 14.6028 1.74896C14.5945 1.70547 14.6084 1.63264 14.6402 1.61053C15.0149 1.34736 15.393 1.09024 15.7746 0.836683C15.8129 0.811499 15.8745 0.821658 15.9259 0.815066C15.9889 0.807038 16.0216 0.836548 16.0273 0.903651C16.0317 0.954234 16.0389 1.00525 16.044 1.05188ZM22.5089 9.74596C22.7402 9.61839 22.9996 9.65357 23.2479 9.62817C23.3612 9.61648 23.4319 9.6998 23.5056 9.77009C23.5516 9.74877 23.5992 9.64056 23.6404 9.7748C23.5949 9.76632 23.5498 9.75816 23.5039 9.75006C23.2239 9.89741 22.9257 9.87084 22.628 9.82792C22.5848 9.82135 22.5482 9.7706 22.5079 9.74003C22.4464 9.82264 22.3734 9.82948 22.2901 9.77319C21.9583 9.91974 21.6025 9.86244 21.2566 9.87964C21.1977 9.88268 21.134 9.8019 21.0727 9.75984C21.025 9.78626 20.9733 9.89168 20.934 9.75194C20.9809 9.75959 21.0273 9.76692 21.0738 9.77496C21.4261 9.62401 21.7975 9.64904 22.1676 9.67171C22.2093 9.67453 22.2482 9.72578 22.2886 9.75457C22.359 9.67927 22.4328 9.69112 22.5089 9.74596ZM19.2032 9.8664C19.0613 9.94522 18.9156 9.95922 18.7634 9.89382C18.7426 9.90887 18.7229 9.93515 18.7004 9.93725C17.7219 10.0272 16.7428 10.1148 15.764 10.2019C15.7127 10.2067 15.6584 10.2161 15.6092 10.2058C15.2462 10.1304 14.8865 10.1903 14.5277 10.2233C13.4707 10.3188 12.4144 10.4246 11.3577 10.5229C10.6359 10.5899 9.91392 10.6515 9.19172 10.7111C9.15693 10.714 9.11787 10.6709 9.08068 10.65C9.10738 10.6089 9.12799 10.5389 9.16102 10.5327C9.41403 10.4834 9.6685 10.438 9.92458 10.4087C10.3618 10.3585 10.8205 10.3852 11.232 10.2592C11.5871 10.1505 11.9541 10.2549 12.2898 10.1083C13.2249 10.1616 14.1468 10.0231 15.073 9.94479C15.1763 9.93582 15.2812 9.91465 15.3825 9.92534C16.1367 10.0009 16.8769 9.85572 17.6235 9.80981C17.9078 9.79272 18.1916 9.76824 18.4757 9.74975C18.5838 9.7428 18.6782 9.77928 18.7573 9.85472C18.8832 9.68994 19.0294 9.67377 19.1955 9.797C19.2666 9.74288 19.34 9.73955 19.4154 9.78808C19.7393 9.75346 20.0632 9.71814 20.3877 9.68595C20.466 9.67826 20.5867 9.76857 20.5549 9.80165C20.5261 9.83197 20.4904 9.87214 20.4539 9.87557C20.2016 9.90028 19.9492 9.92748 19.6965 9.92993C19.6051 9.9307 19.5125 9.86538 19.4203 9.83011C19.3579 9.9004 19.2851 9.90865 19.2032 9.8664ZM21.2433 11.2804C21.1997 11.298 21.1558 11.3159 21.1122 11.3334C21.1111 11.3119 21.1104 11.2907 21.1096 11.2689C21.1547 11.2802 21.2001 11.2912 21.2452 11.3025C21.2897 11.2839 21.3365 11.1782 21.3774 11.3064C21.3322 11.2976 21.2874 11.289 21.2433 11.2804ZM24.1368 11.4554C24.0932 11.4587 24.0369 11.5791 24.0085 11.4405C24.0516 11.4502 24.0948 11.46 24.1379 11.4698C24.1922 11.3825 24.2638 11.3655 24.3536 11.4156C24.559 11.3265 24.7515 11.3241 24.9154 11.5059C24.9811 11.4261 25.055 11.4277 25.1351 11.4846C25.3347 11.3625 25.5222 11.3694 25.6933 11.5417C26.2198 11.3437 26.7643 11.5465 27.2964 11.4786C28.2836 11.7072 29.2974 11.6759 30.2967 11.7922C31.0643 11.8814 31.8354 11.9522 32.601 12.0635C33.2397 12.1566 33.8749 12.279 34.5155 12.3589C35.0297 12.4229 35.5356 12.5239 36.0366 12.6472C36.3342 12.7203 36.62 12.8422 36.9099 12.945C36.9264 12.9509 36.9481 12.997 36.9415 13.0057C36.9179 13.0384 36.885 13.0847 36.8523 13.0874C36.7761 13.0942 36.6971 13.0839 36.6208 13.0719C35.5503 12.8989 34.4806 12.7208 33.4095 12.5518C32.9514 12.4793 32.4908 12.4233 32.031 12.3609C31.264 12.2568 30.4975 12.1512 29.73 12.0525C28.9633 11.9544 28.1968 11.8559 27.4285 11.7739C26.9174 11.7195 26.4024 11.6973 25.8899 11.6501C25.8216 11.6441 25.7589 11.5738 25.6935 11.5329C25.4937 11.6504 25.3047 11.6557 25.1347 11.4734C25.0683 11.5532 24.994 11.5506 24.9145 11.4936C24.7226 11.6182 24.5375 11.5959 24.3582 11.4619C24.2828 11.533 24.2094 11.5144 24.1368 11.4554ZM18.6354 19.6174C18.7133 19.5542 18.7875 19.4846 18.8704 19.4279C19.0963 19.2747 19.1488 19.1486 18.9817 18.9288C18.8485 18.7529 18.8328 18.6389 18.9596 18.4588C19.1054 18.2518 19.1884 17.999 19.336 17.7936C19.568 17.4715 19.4257 17.1839 19.2455 16.9391C19.0977 16.7383 18.8888 16.5639 18.6283 16.482C18.3579 16.3973 18.0983 16.2608 17.8229 16.2144C17.3323 16.1319 16.8739 15.9425 16.4408 15.7335C15.9924 15.5177 15.5219 15.3982 15.0605 15.2432C14.3035 14.9884 13.5308 14.7779 12.7663 14.5439C12.7272 14.5317 12.7023 14.4713 12.6712 14.4335C12.7089 14.4098 12.7445 14.3696 12.7842 14.3656C13.504 14.2899 14.2207 14.204 14.9515 14.2293C15.4404 14.2461 15.9332 14.1606 16.4237 14.1157C17.528 14.0154 18.6315 13.9027 19.7438 13.9061C19.9763 13.907 20.2086 13.8632 20.4418 13.8563C21.2672 13.8327 22.092 13.7791 22.9183 13.8238C22.9956 13.8283 23.0735 13.8209 23.1512 13.8179C23.9522 13.7878 24.7535 13.7573 25.5541 13.7269C25.5798 13.7255 25.6066 13.7173 25.6318 13.7206C26.6359 13.8609 17.154 13.7067 18.1594 13.7746C18.5454 13.8007 18.9344 13.8351 19.3202 13.8198C20.2256 13.7849 21.1247 13.9024 22.0286 13.9204C22.7235 13.9342 23.4244 13.888 24.116 14.0183C25.5611 14.022 26.9944 14.2406 28.4347 14.2958C29.6477 14.3421 30.8526 14.459 32.059 14.5708C33.5487 14.7084 35.0385 14.8428 36.5283 14.978C36.6055 14.9849 36.6907 15.0042 36.7589 14.9811C37.3186 14.7923 37.8769 14.9319 38.4356 14.9868C38.4613 14.9894 38.4854 15.0034 38.5109 15.0063C38.7527 15.029 38.948 14.9098 38.9917 14.7141C39.0294 14.5462 38.9356 14.3776 38.7621 14.2593C38.5832 14.1366 38.3724 14.1259 38.1748 14.0708C38.111 14.053 38.0841 14.0399 38.0773 13.9829C38.0724 13.944 38.1814 13.8651 38.2559 13.873C38.3572 13.8837 38.4586 13.9014 38.5602 13.911C38.5831 13.9131 38.6262 13.8978 38.6284 13.8848C38.6352 13.8435 38.6428 13.7879 38.6217 13.7583C38.5772 13.6966 38.5123 13.6503 38.4599 13.5936C38.3978 13.5265 38.2816 13.4591 38.4424 13.3739C38.4881 13.3498 38.5399 13.3325 38.5777 13.3C39.0899 12.8642 38.9729 12.6237 38.5909 12.3037C38.3069 12.0654 38.0011 11.9 37.6408 11.8017C37.1952 11.6802 36.7582 11.5208 36.3257 11.3566C35.6448 11.0982 34.9303 10.9768 34.2272 10.814C33.498 10.6451 32.7607 10.512 32.0157 10.4292C31.8878 10.4153 31.7594 10.3895 31.6351 10.3555C30.6827 10.0956 29.7029 10.0139 28.7297 9.89658C28.0912 9.81904 27.4453 9.80239 26.8133 9.66652C26.5312 9.60621 26.2481 9.65576 25.9648 9.6324C25.4767 9.59245 24.9885 9.54013 24.5 9.51014C24.1656 9.48979 23.8315 9.417 23.4944 9.4826C23.4451 9.49218 23.3879 9.4947 23.34 9.48042C22.7581 9.30976 22.156 9.41542 21.5669 9.33609C21.3126 9.30185 21.0516 9.31038 20.7934 9.30449C20.0717 9.28787 19.3449 9.31917 18.6289 9.24358C18.1375 9.19121 28.1439 9.28287 27.6533 9.22085C26.9641 9.13319 26.265 9.17252 25.5697 9.12545C24.9824 9.0856 24.3825 9.04693 23.7882 9.13771C23.3541 9.2046 22.9128 9.16452 22.4735 9.15825C21.7247 9.14701 20.9758 9.20517 20.2272 9.22754C19.6856 9.24396 19.1419 9.27794 18.6015 9.24963C18.2884 9.2333 17.9813 9.24509 17.6732 9.26831C17.2596 9.29929 16.8461 9.33486 16.4341 9.38128C15.6661 9.46815 14.8922 9.44332 14.1231 9.49842C13.0892 9.57303 12.0574 9.67897 11.0237 9.76277C10.8272 9.77871 10.6276 9.84098 10.4278 9.77507C10.4308 9.55488 10.588 9.43321 10.724 9.33405C11.1364 9.0337 11.5142 8.6863 11.9354 8.40284C12.2775 8.1721 12.5476 7.86279 12.8942 7.64085C13.2374 7.42064 13.5571 7.16439 13.8885 6.92616C14.4474 6.52496 14.9323 6.03013 15.5081 5.6486C15.6127 5.57895 15.6899 5.46618 15.7772 5.37195C15.8648 5.27734 15.9338 5.154 16.0389 5.08856C16.6479 4.71064 17.0136 4.10411 17.4759 3.58874C17.5275 3.53149 17.5713 3.46647 17.6137 3.40159C17.7587 3.18049 17.6988 2.95806 17.467 2.80592C17.3907 2.75605 17.2352 2.83012 17.2363 2.67527C17.2367 2.60547 17.2998 2.539 17.3245 2.46728C17.3404 2.42117 17.3615 2.35616 17.3414 2.32228C17.2471 2.15902 17.3312 2.03781 17.3916 1.89051C17.4881 1.65589 17.5818 1.41056 17.505 1.14014C17.4677 1.00907 17.3689 0.907842 17.2342 0.907016C17.0515 0.905371 16.874 0.916342 16.7228 1.04419C16.6461 1.1091 16.5502 1.15244 16.4591 1.19852C16.3482 1.2546 16.2755 1.21148 16.2513 1.07317C16.2473 1.04804 16.2562 1.01994 16.2491 0.995464C16.0763 0.393736 16.108 0.374121 15.5511 0.604448C14.904 0.871911 14.3548 1.29521 13.7892 1.6889C13.2027 2.09693 12.6356 2.53254 12.051 2.94535C11.2804 3.48962 10.4895 4.00358 9.74994 4.59204C9.39134 4.87744 8.98321 5.10019 8.60491 5.36229C8.07956 5.7267 7.55544 6.09277 7.04232 6.47303C6.42725 6.92836 5.8329 7.41363 5.20824 7.85463C5.03819 7.97468 4.87117 8.08631 4.74013 8.24555C4.64028 8.3661 4.50709 8.44056 4.38339 8.53183C4.03443 8.78977 3.68307 9.04509 3.39678 9.38355C3.18459 9.63433 2.90335 9.82571 2.67121 10.0614C2.45482 10.281 2.27728 10.5416 1.97874 10.6667C1.55087 11.1441 1.01073 11.506 0.623676 12.0299C0.28096 12.4944 0.21928 12.9804 0.478706 13.4706C0.593399 13.6879 0.659958 13.8952 0.682259 14.124C0.735821 14.6706 1.02986 15.0857 1.40087 15.4592C1.56528 15.6248 1.75323 15.7672 1.91308 15.9367C1.98013 16.008 2.00679 16.1039 2.12223 16.1384C2.43033 16.2317 2.64824 16.4677 2.88597 16.6646C3.47114 17.1487 4.13522 17.4731 4.85352 17.7026C5.61322 17.9454 6.39228 18.1483 7.12168 18.4634C7.81004 18.7615 8.54423 18.9023 9.22992 19.202C9.91157 19.5004 10.6204 19.7381 11.326 19.9783C11.9597 20.194 12.6084 20.3655 13.2428 20.5787C13.9261 20.8089 14.6483 20.9148 15.2997 21.2468C15.4121 21.3039 15.5475 21.322 15.6744 21.3434C15.803 21.3649 15.9301 21.3601 16.0403 21.268C16.1187 21.2026 16.2106 21.1539 16.2916 21.0925C16.4924 20.9398 16.6976 20.9156 16.9461 20.9979C17.2101 21.0857 17.4941 21.1862 17.7616 20.9887C18.0686 21.0322 18.3648 21.1099 18.6555 21.2236C19.2201 21.4437 19.7249 21.0507 19.6558 20.4655C19.6278 20.2263 19.4704 20.0735 19.2835 20.0053C19.0334 19.9141 18.8007 19.8236 18.6359 19.6057C18.3142 19.6762 18.0469 19.5759 17.829 19.3368C17.8039 19.3091 17.7903 19.2303 17.8071 19.2146C17.8402 19.1845 17.8999 19.168 17.9468 19.1724C18.0198 19.1797 18.1028 19.1914 18.1593 19.2322C18.3231 19.3528 18.477 19.4878 18.6354 19.6174Z" fill="#FFD62B"/>
</svg>
