<svg width="46" height="46" viewBox="0 0 46 46" fill="none" xmlns="http://www.w3.org/2000/svg">
<path d="M43.8963 43.9019L3.8147e-06 46L7.83614e-06 1.51149e-05L45.2813 3.8147e-06L43.8963 43.9019Z" fill="#FFD62B"/>
<path d="M38.6582 18.7968L32.0553 14.8361L23.5271 9.7217L23.3318 9.60449L23.1357 9.72017C20.9408 11.0149 18.7406 12.354 16.6132 13.6487C13.6239 15.4682 10.5335 17.3497 7.44 19.117C7.32969 19.1799 7.25461 19.2634 7.19409 19.3308C7.17187 19.3553 7.15119 19.379 7.12974 19.3997L6.86084 19.664L7.12131 19.9375L7.58326 20.4217L7.80237 20.6508L8.0682 20.4792C8.16932 20.4133 8.26585 20.3512 8.35778 20.2915C8.54318 20.1712 8.71784 20.0578 8.89098 19.9483C9.28322 19.7008 9.67929 19.4465 10.0631 19.2013C10.9479 18.6344 11.8634 18.0483 12.782 17.5021C13.9579 16.8027 15.1653 16.1063 16.3336 15.4321C17.2904 14.8798 18.2794 14.3091 19.247 13.7391C20.5471 12.9738 21.8456 12.1671 23.1012 11.388L23.2353 11.3052C23.3149 11.2554 23.3494 11.2531 23.3555 11.2531C23.367 11.2531 23.3946 11.2638 23.4352 11.293C23.5057 11.3435 23.5762 11.3857 23.6436 11.4255C23.6696 11.4408 23.6949 11.4561 23.7202 11.4722L25.2248 12.403C29.2613 14.9012 33.2986 17.3987 37.3359 19.8962C37.4378 19.959 37.5413 20.018 37.6508 20.08C37.7037 20.1099 37.7596 20.1413 37.8186 20.1758L38.138 20.3604L38.3342 20.0478L38.6574 19.533L38.7846 19.3308L38.993 18.9998L38.6582 18.7968Z" fill="#FFD62B"/>
<path d="M37.8 4.16353C32.1134 8.9185 27.1255 14.7215 22.06 20.2334C22.0212 20.1946 21.963 20.1558 21.9048 20.0975C17.3051 16.3324 12.9577 12.4314 8.14447 8.9185C6.55301 7.73461 4.127 10.0054 5.31089 11.655C8.80434 16.4682 12.3754 21.0291 16.3153 25.5124C16.4317 25.6482 16.5482 25.7841 16.6646 25.92C12.3366 30.2868 7.67867 34.9059 5.67964 40.5924C5.3303 41.6017 6.41715 42.805 7.46519 42.4362C13.1323 40.4372 17.6932 35.8763 22.0212 31.5871C24.7772 34.2266 27.8048 36.575 31.1624 37.8559C35.3546 39.4668 38.324 33.6832 35.5098 30.6943C33.569 28.6371 31.2206 26.871 28.814 25.163C34.0154 20.4275 39.372 15.7307 43.8165 10.3935C47.3681 6.14315 42.1474 0.534225 37.8 4.16353Z" fill="#977FB8"/>
</svg>
