<svg width="37" height="20" viewBox="0 0 37 20" fill="none" xmlns="http://www.w3.org/2000/svg">
<path d="M12.7635 11.7511L12.8189 11.7449L12.7919 11.7014L12.7635 11.7511ZM14.5844 10.4462L14.6387 10.4409L14.6125 10.3985L14.5844 10.4462ZM17.02 11.4695L17.0239 11.5277L17.072 11.4973L17.02 11.4695ZM14.2973 8.79463C14.2801 8.79099 14.2508 8.77946 14.2465 8.78548C14.2113 8.83592 14.2275 8.86008 14.2873 8.8471C14.2942 8.84572 14.2941 8.81326 14.2973 8.79463ZM23.3705 16.139C23.3766 16.118 23.383 16.0986 23.3886 16.0792C23.3685 16.078 23.3437 16.0689 23.3299 16.0778C23.318 16.0858 23.3192 16.1136 23.3143 16.1324C23.3334 16.1345 23.3521 16.137 23.3705 16.139ZM33.493 14.6559C33.5116 14.6597 33.5357 14.6718 33.547 14.6644C33.5582 14.657 33.5565 14.6301 33.5601 14.6112C33.5424 14.6092 33.5206 14.6 33.5083 14.6077C33.4972 14.6144 33.4977 14.6391 33.493 14.6559ZM34.2747 12.6811L34.2244 12.6862L34.2482 12.7256L34.2747 12.6811ZM22.0965 16.6259C22.121 16.588 22.1451 16.5497 22.1699 16.5115C22.1508 16.5063 22.1296 16.4925 22.1129 16.497C22.0273 16.5177 21.9753 16.6041 22.0287 16.6284C22.0468 16.6361 22.0734 16.6271 22.0965 16.6259ZM33.8909 10.9681C33.9335 10.9852 33.9762 11.0017 34.0187 11.0189C34.0142 10.9735 34.0236 10.9173 34.0003 10.8861C33.9776 10.8562 33.9209 10.8519 33.8792 10.8365C33.8832 10.8805 33.8869 10.9241 33.8909 10.9681ZM35.074 10.5646C35.0398 10.5577 35.0057 10.5501 34.972 10.5429C34.9842 10.5825 34.9872 10.6305 35.0122 10.6578C35.0316 10.6792 35.0794 10.6749 35.1148 10.6826C35.1009 10.6431 35.0879 10.6041 35.074 10.5646ZM15.5656 10.4348C15.5745 10.4171 15.5943 10.3953 15.5896 10.3813C15.5664 10.3027 15.5008 10.2689 15.4289 10.2814C15.3917 10.2874 15.3623 10.3411 15.33 10.3732C15.3603 10.398 15.3877 10.4357 15.4217 10.4433C15.4671 10.4533 15.5176 10.4388 15.5656 10.4348ZM1.06709 12.0431C1.10859 12.0574 1.15328 12.0839 1.1976 12.0837C1.23345 12.0837 1.26926 12.0505 1.30558 12.0323C1.28503 11.9945 1.27313 11.9448 1.24225 11.9223C1.20972 11.8993 1.15247 11.8868 1.11638 11.8993C1.08059 11.9122 1.05604 11.9613 1.03076 11.9974C1.02761 12.0018 1.05323 12.0262 1.06709 12.0431ZM13.2788 8.82996C13.29 8.84351 13.3008 8.87021 13.3146 8.87116C13.5063 8.8915 13.699 8.90618 13.891 8.92756C13.9609 8.93513 13.9896 8.91213 13.971 8.84449C13.9657 8.82371 13.9475 8.79936 13.9284 8.79047C13.7254 8.69776 13.5175 8.66915 13.3066 8.76597C13.2913 8.77299 13.2883 8.80617 13.2788 8.82996ZM34.7192 11.7822C34.758 11.8196 34.806 11.8772 34.8655 11.9179C34.8962 11.9387 34.948 11.9347 34.9893 11.9308C35.0002 11.9298 35.0181 11.8869 35.0151 11.866C35.0009 11.7721 34.996 11.6722 34.9589 11.5873C34.9009 11.4551 34.7321 11.4184 34.6662 11.5088C34.5928 11.6091 34.6553 11.6873 34.7192 11.7822ZM20.5558 16.9614C20.6585 16.8751 20.7115 16.7952 20.7038 16.6904C20.7008 16.6492 20.6775 16.6088 20.6633 16.5683C20.4895 16.6321 20.2971 16.659 20.1621 16.8008C20.137 16.8275 20.1517 16.8935 20.1506 16.9417C20.149 16.9976 20.1804 17.0253 20.2409 17.0326C20.3667 17.0464 20.483 17.03 20.5558 16.9614ZM35.6055 11.433C35.6817 11.5091 35.7819 11.6165 35.8924 11.7117C35.9132 11.7295 35.987 11.7118 36.0156 11.687C36.046 11.6602 36.0744 11.5962 36.0628 11.5634C35.9564 11.2634 35.7153 11.1043 35.4363 10.9899C35.4146 10.9808 35.3876 10.9833 35.3633 10.98C35.3646 11.0207 35.3518 11.0705 35.3704 11.1007C35.4347 11.2044 35.5109 11.3014 35.6055 11.433ZM21.9096 0.557015C21.9237 0.578611 21.9309 0.607678 21.9463 0.612837C22.3478 0.746798 22.6829 0.993158 23.0255 1.2284C23.0628 1.2542 23.12 1.26058 23.1681 1.25968C23.2094 1.25949 23.2811 1.24222 23.2851 1.22232C23.293 1.18081 23.2797 1.1113 23.2494 1.0902C22.8918 0.839027 22.5309 0.593628 22.1667 0.351627C22.1302 0.327592 22.0714 0.337287 22.0223 0.330996C21.9622 0.323334 21.931 0.351499 21.9256 0.415543C21.9214 0.46382 21.9144 0.512515 21.9096 0.557015ZM15.7394 8.85479C15.5186 8.73304 15.2711 8.76662 15.0341 8.74237C14.926 8.73122 14.8585 8.81074 14.7881 8.87782C14.7442 8.85748 14.6988 8.7542 14.6595 8.88232C14.7029 8.87423 14.746 8.86644 14.7897 8.85871C15.0569 8.99934 15.3416 8.97398 15.6257 8.93302C15.6669 8.92674 15.7019 8.87831 15.7403 8.84913C15.799 8.92798 15.8687 8.93451 15.9482 8.88078C16.2649 9.02065 16.6045 8.96597 16.9346 8.98238C16.9908 8.98529 17.0517 8.90819 17.1101 8.86804C17.1556 8.89326 17.205 8.99388 17.2425 8.86051C17.1978 8.86781 17.1534 8.8748 17.109 8.88247C16.7728 8.73841 16.4184 8.76229 16.0651 8.78393C16.0253 8.78662 15.9882 8.83554 15.9496 8.86301C15.8825 8.79114 15.812 8.80245 15.7394 8.85479ZM18.8944 8.96974C19.0299 9.04497 19.1689 9.05834 19.3142 8.99591C19.334 9.01028 19.3528 9.03536 19.3743 9.03737C20.3082 9.12323 21.2427 9.20678 22.1768 9.28996C22.2258 9.29455 22.2776 9.30346 22.3246 9.29367C22.671 9.22172 23.0143 9.2789 23.3568 9.31033C24.3656 9.40152 25.3737 9.50246 26.3823 9.59632C27.0712 9.66023 27.7603 9.71909 28.4495 9.77593C28.4827 9.77871 28.52 9.73759 28.5555 9.71759C28.53 9.67837 28.5104 9.61163 28.4788 9.60563C28.2374 9.55866 27.9945 9.51527 27.7501 9.48729C27.3328 9.43939 26.895 9.46493 26.5023 9.34463C26.1634 9.24087 25.8131 9.34052 25.4927 9.20064C24.6002 9.25148 23.7203 9.11932 22.8363 9.04457C22.7378 9.036 22.6376 9.0158 22.5409 9.026C21.8211 9.0981 21.1147 8.95955 20.4021 8.91573C20.1308 8.89942 19.8599 8.87606 19.5887 8.85841C19.4856 8.85178 19.3955 8.8866 19.3199 8.9586C19.1998 8.80133 19.0603 8.78589 18.9017 8.90351C18.8339 8.85186 18.7638 8.84867 18.6919 8.89499C18.3827 8.86195 18.0736 8.82824 17.7639 8.79752C17.6892 8.79018 17.574 8.87638 17.6043 8.90794C17.6318 8.93689 17.6658 8.97523 17.7007 8.97849C17.9415 9.00208 18.1824 9.02804 18.4236 9.03038C18.5108 9.03112 18.5992 8.96877 18.6872 8.93511C18.7467 9.0022 18.8163 9.01007 18.8944 8.96974ZM16.9473 10.3193C16.9889 10.336 17.0308 10.3532 17.0724 10.3699C17.0734 10.3494 17.0741 10.3292 17.0749 10.3083C17.0318 10.3191 16.9885 10.3296 16.9455 10.3404C16.903 10.3226 16.8583 10.2217 16.8193 10.3441C16.8624 10.3357 16.9052 10.3275 16.9473 10.3193ZM14.1857 10.4863C14.2273 10.4895 14.281 10.6044 14.3082 10.4721C14.267 10.4814 14.2258 10.4907 14.1846 10.5C14.1328 10.4168 14.0644 10.4005 13.9788 10.4483C13.7827 10.3633 13.599 10.361 13.4425 10.5346C13.3799 10.4584 13.3094 10.4599 13.2329 10.5142C13.0424 10.3977 12.8635 10.4042 12.7002 10.5687C12.1977 10.3797 11.678 10.5733 11.1701 10.5084C10.228 10.7266 9.26034 10.6968 8.30662 10.8078C7.57399 10.8929 6.83804 10.9604 6.10734 11.0667C5.49777 11.1555 4.89146 11.2724 4.28012 11.3486C3.78934 11.4097 3.30652 11.5061 2.8283 11.6238C2.54431 11.6935 2.27152 11.8099 1.99482 11.908C1.97903 11.9136 1.95837 11.9576 1.96463 11.966C1.9872 11.9972 2.0186 12.0413 2.0498 12.0439C2.12253 12.0504 2.19793 12.0406 2.27077 12.0292C3.2925 11.864 4.31335 11.6941 5.33571 11.5327C5.77286 11.4635 6.21248 11.4101 6.65136 11.3505C7.3834 11.2512 8.1149 11.1504 8.84744 11.0562C9.57924 10.9626 10.3107 10.8686 11.044 10.7903C11.5319 10.7384 12.0234 10.7172 12.5125 10.6721C12.5777 10.6664 12.6376 10.5994 12.7 10.5603C12.8906 10.6724 13.071 10.6775 13.2333 10.5034C13.2966 10.5797 13.3676 10.5772 13.4434 10.5228C13.6266 10.6417 13.8032 10.6204 13.9744 10.4925C14.0463 10.5604 14.1164 10.5426 14.1857 10.4863ZM19.4364 18.2763C19.3619 18.2159 19.2912 18.1495 19.2121 18.0954C18.9965 17.9491 18.9463 17.8289 19.1058 17.6191C19.2329 17.4512 19.2479 17.3424 19.1269 17.1705C18.9878 16.9729 18.9086 16.7316 18.7676 16.5356C18.5462 16.2282 18.6821 15.9537 18.854 15.72C18.9951 15.5284 19.1944 15.3619 19.4431 15.2838C19.7011 15.2029 19.9489 15.0727 20.2118 15.0284C20.68 14.9496 21.1175 14.7689 21.5309 14.5694C21.9588 14.3635 22.4079 14.2494 22.8482 14.1014C23.5707 13.8582 24.3083 13.6573 25.0379 13.4341C25.0752 13.4224 25.099 13.3648 25.1286 13.3287C25.0927 13.306 25.0587 13.2677 25.0208 13.2638C24.3338 13.1916 23.6497 13.1096 22.9523 13.1338C22.4857 13.1498 22.0153 13.0682 21.5472 13.0254C20.4932 12.9296 19.44 12.8221 18.3785 12.8253C18.1565 12.8261 17.9348 12.7844 17.7123 12.7777C16.9245 12.7553 16.1373 12.7041 15.3487 12.7468C15.2749 12.751 15.2005 12.744 15.1264 12.7411C14.3619 12.7124 13.5971 12.6833 12.833 12.6542C12.8085 12.653 12.7829 12.6451 12.7589 12.6483C11.8005 12.7822 20.8502 12.635 19.8906 12.6998C19.5222 12.7247 19.1509 12.7575 18.7828 12.743C17.9186 12.7096 17.0605 12.8218 16.1978 12.8389C15.5346 12.8521 14.8657 12.808 14.2055 12.9324C12.8263 12.9359 11.4583 13.1446 10.0837 13.1972C8.92596 13.2415 7.77604 13.353 6.62458 13.4597C5.20278 13.591 3.78095 13.7193 2.35906 13.8483C2.28534 13.8549 2.20402 13.8733 2.13893 13.8513C1.60477 13.6711 1.07191 13.8044 0.538711 13.8568C0.514117 13.8592 0.491127 13.8726 0.466834 13.8754C0.236039 13.897 0.0496376 13.7832 0.00788242 13.5965C-0.0280895 13.4363 0.0614835 13.2753 0.227056 13.1624C0.39779 13.0453 0.599027 13.0351 0.787621 12.9825C0.848509 12.9655 0.874113 12.953 0.880606 12.8986C0.885349 12.8615 0.781321 12.7862 0.710219 12.7937C0.613484 12.8039 0.516746 12.8209 0.419777 12.83C0.397931 12.832 0.356792 12.8174 0.354654 12.805C0.34814 12.7655 0.340964 12.7125 0.361048 12.6843C0.403495 12.6254 0.465432 12.5812 0.515516 12.527C0.574718 12.463 0.685687 12.3987 0.532206 12.3174C0.488527 12.2944 0.439115 12.2779 0.403012 12.2468C-0.0857907 11.8309 0.025897 11.6014 0.390419 11.2959C0.661523 11.0685 0.953365 10.9107 1.29728 10.8168C1.72255 10.7009 2.13963 10.5487 2.55243 10.3921C3.20222 10.1454 3.88418 10.0295 4.55523 9.87412C5.25122 9.71292 5.95492 9.58591 6.66598 9.5069C6.78805 9.49367 6.91059 9.469 7.02918 9.43651C7.93817 9.18849 8.87334 9.11055 9.80213 8.99855C10.4116 8.92455 11.028 8.90865 11.6312 8.77898C11.9004 8.72141 12.1706 8.76871 12.4411 8.74641C12.9069 8.70829 13.3729 8.65835 13.8391 8.62973C14.1582 8.61031 14.477 8.54083 14.7988 8.60344C14.8459 8.61258 14.9005 8.61499 14.9461 8.60136C15.5016 8.43848 16.0762 8.53933 16.6384 8.4636C16.8812 8.43093 17.1303 8.43907 17.3767 8.43345C18.0655 8.41758 18.7592 8.44746 19.4425 8.37532C19.9115 8.32533 10.3612 8.41281 10.8295 8.35363C11.4873 8.26996 12.1545 8.30749 12.8181 8.26257C13.3786 8.22453 13.9512 8.18763 14.5184 8.27427C14.9327 8.33811 15.3539 8.29986 15.7732 8.29388C16.4878 8.28314 17.2026 8.33866 17.9171 8.36001C18.434 8.37568 18.9529 8.40811 19.4687 8.38109C19.7675 8.3655 20.0606 8.37676 20.3546 8.39891C20.7494 8.42848 21.144 8.46244 21.5373 8.50674C22.2703 8.58965 23.0089 8.56595 23.7429 8.61854C24.7297 8.68975 25.7145 8.79086 26.7011 8.87084C26.8886 8.88605 27.0791 8.94549 27.2698 8.88258C27.2669 8.67243 27.1169 8.5563 26.9871 8.46167C26.5935 8.17501 26.2329 7.84344 25.8309 7.5729C25.5044 7.35268 25.2466 7.05746 24.9158 6.84564C24.5883 6.63547 24.2832 6.3909 23.9668 6.16353C23.4334 5.78062 22.9706 5.30834 22.4211 4.94421C22.3213 4.87773 22.2475 4.7701 22.1643 4.68017C22.0807 4.58986 22.0147 4.47215 21.9145 4.40969C21.3332 4.049 20.9842 3.47012 20.543 2.97823C20.4937 2.92359 20.4519 2.86155 20.4115 2.79962C20.2731 2.58859 20.3303 2.3763 20.5515 2.2311C20.6243 2.18351 20.7727 2.2542 20.7717 2.10641C20.7713 2.03979 20.711 1.97635 20.6875 1.9079C20.6723 1.86389 20.6522 1.80184 20.6713 1.7695C20.7614 1.61369 20.681 1.49801 20.6235 1.35742C20.5313 1.1335 20.4419 0.899348 20.5152 0.641249C20.5508 0.516154 20.6451 0.419543 20.7737 0.418755C20.948 0.417185 21.1174 0.427656 21.2617 0.549674C21.335 0.61163 21.4265 0.652996 21.5134 0.696967C21.6193 0.750492 21.6887 0.709345 21.7118 0.577333C21.7155 0.553352 21.7071 0.526535 21.7138 0.503171C21.8788 -0.0711289 21.8485 -0.0898493 22.3801 0.129979C22.9976 0.38525 23.5218 0.789255 24.0616 1.16499C24.6214 1.55443 25.1627 1.97018 25.7206 2.36418C26.456 2.88364 27.2109 3.37417 27.9168 3.93581C28.259 4.20819 28.6485 4.42079 29.0096 4.67095C29.511 5.01875 30.0112 5.36812 30.501 5.73105C31.088 6.16563 31.6552 6.62878 32.2514 7.04968C32.4137 7.16426 32.5731 7.27079 32.6982 7.42278C32.7935 7.53783 32.9206 7.6089 33.0387 7.69601C33.3717 7.94219 33.7071 8.18587 33.9803 8.50891C34.1828 8.74825 34.4513 8.93091 34.6728 9.15581C34.8793 9.36545 35.0488 9.6142 35.3337 9.73352C35.7421 10.1892 36.2576 10.5346 36.627 11.0346C36.9541 11.478 37.013 11.9418 36.7654 12.4096C36.6559 12.617 36.5924 12.8149 36.5711 13.0332C36.52 13.555 36.2394 13.9512 35.8853 14.3077C35.7283 14.4656 35.549 14.6016 35.3964 14.7634C35.3324 14.8314 35.307 14.923 35.1968 14.9559C34.9027 15.0449 34.6947 15.2701 34.4679 15.4581C33.9094 15.9201 33.2756 16.2298 32.59 16.4487C31.8649 16.6805 31.1214 16.8741 30.4252 17.1749C29.7682 17.4594 29.0675 17.5938 28.4131 17.8798C27.7625 18.1646 27.0859 18.3915 26.4125 18.6207C25.8078 18.8266 25.1886 18.9903 24.5831 19.1938C23.9309 19.4135 23.2417 19.5145 22.62 19.8314C22.5127 19.8859 22.3835 19.9031 22.2624 19.9236C22.1396 19.9442 22.0183 19.9395 21.9132 19.8516C21.8383 19.7892 21.7506 19.7428 21.6733 19.6841C21.4817 19.5384 21.2858 19.5153 21.0486 19.5938C20.7967 19.6777 20.5256 19.7736 20.2703 19.5851C19.9773 19.6265 19.6946 19.7007 19.4171 19.8093C18.8782 20.0193 18.3965 19.6443 18.4625 19.0857C18.4891 18.8574 18.6394 18.7116 18.8178 18.6465C19.0565 18.5594 19.2786 18.4731 19.4358 18.2651C19.7429 18.3324 19.998 18.2367 20.206 18.0085C20.23 17.982 20.2429 17.9068 20.2269 17.8918C20.1952 17.8631 20.1383 17.8473 20.0936 17.8516C20.0239 17.8586 19.9446 17.8697 19.8907 17.9086C19.7344 18.0237 19.5875 18.1526 19.4364 18.2763Z" fill="#2063AC"/>
</svg>
