<svg width="32" height="18" viewBox="0 0 32 18" fill="none" xmlns="http://www.w3.org/2000/svg">
<path d="M10.9634 10.5928L11.011 10.5874L10.9878 10.5501L10.9634 10.5928ZM12.5275 9.47198L12.5741 9.46735L12.5516 9.43099L12.5275 9.47198ZM14.6196 10.3509L14.623 10.4009L14.6642 10.3748L14.6196 10.3509ZM12.2809 8.0533C12.2661 8.05017 12.2409 8.04027 12.2372 8.04544C12.207 8.08876 12.2209 8.10952 12.2723 8.09837C12.2782 8.09718 12.2781 8.0693 12.2809 8.0533ZM20.0744 14.3619C20.0797 14.3438 20.0851 14.3272 20.09 14.3105C20.0727 14.3095 20.0514 14.3017 20.0396 14.3093C20.0293 14.3161 20.0304 14.3401 20.0262 14.3562C20.0425 14.358 20.0586 14.3601 20.0744 14.3619ZM28.7693 13.0879C28.7853 13.0912 28.806 13.1015 28.8156 13.0952C28.8253 13.0888 28.8238 13.0658 28.8269 13.0495C28.8117 13.0478 28.793 13.0399 28.7825 13.0465C28.7729 13.0523 28.7734 13.0735 28.7693 13.0879ZM29.4407 11.3916L29.3976 11.396L29.418 11.4298L29.4407 11.3916ZM18.9801 14.7801C19.0011 14.7475 19.0219 14.7146 19.0432 14.6818C19.0268 14.6774 19.0085 14.6655 18.9942 14.6694C18.9206 14.6872 18.876 14.7614 18.9218 14.7822C18.9374 14.7889 18.9603 14.7812 18.9801 14.7801ZM29.1111 9.92021C29.1477 9.93496 29.1843 9.94914 29.2209 9.96389C29.217 9.92491 29.225 9.8766 29.2051 9.84976C29.1856 9.82413 29.1368 9.82043 29.101 9.8072C29.1045 9.84498 29.1077 9.88244 29.1111 9.92021ZM30.1273 9.57362C30.098 9.56768 30.0687 9.56116 30.0397 9.55496C30.0502 9.58904 30.0527 9.63021 30.0742 9.65371C30.0909 9.67211 30.132 9.66841 30.1624 9.67504C30.1504 9.64111 30.1393 9.60755 30.1273 9.57362ZM13.3703 9.46216C13.378 9.44691 13.3949 9.42818 13.3909 9.41619C13.371 9.34871 13.3147 9.31962 13.2529 9.33038C13.221 9.33552 13.1957 9.38163 13.1679 9.40922C13.194 9.43053 13.2174 9.46292 13.2467 9.46944C13.2856 9.47803 13.329 9.46554 13.3703 9.46216ZM0.916591 10.8436C0.952243 10.8559 0.990623 10.8787 1.0287 10.8785C1.05949 10.8785 1.09025 10.85 1.12145 10.8343C1.1038 10.8019 1.09357 10.7592 1.06704 10.7398C1.03911 10.7201 0.989931 10.7094 0.95893 10.7201C0.928188 10.7312 0.907099 10.7733 0.885384 10.8044C0.882676 10.8082 0.904684 10.8291 0.916591 10.8436ZM11.4061 8.08364C11.4156 8.09528 11.4249 8.11822 11.4368 8.11904C11.6015 8.13651 11.7669 8.14912 11.9318 8.16748C11.9919 8.17398 12.0166 8.15423 12.0006 8.09612C11.996 8.07827 11.9804 8.05736 11.964 8.04973C11.7896 7.97009 11.6111 7.94552 11.4299 8.02869C11.4168 8.03472 11.4142 8.06322 11.4061 8.08364ZM29.8225 10.6195C29.8559 10.6516 29.8971 10.7011 29.9482 10.7361C29.9746 10.7539 30.0191 10.7505 30.0546 10.7472C30.064 10.7463 30.0793 10.7095 30.0767 10.6915C30.0645 10.6108 30.0604 10.5251 30.0285 10.4521C29.9786 10.3386 29.8336 10.307 29.777 10.3847C29.714 10.4708 29.7677 10.538 29.8225 10.6195ZM17.6567 15.0683C17.7449 14.9941 17.7905 14.9255 17.7838 14.8355C17.7813 14.8001 17.7612 14.7654 17.7491 14.7306C17.5997 14.7854 17.4344 14.8085 17.3185 14.9303C17.297 14.9533 17.3096 15.0099 17.3086 15.0513C17.3073 15.0994 17.3343 15.1231 17.3862 15.1294C17.4942 15.1413 17.5941 15.1272 17.6567 15.0683ZM30.5839 10.3196C30.6493 10.3849 30.7354 10.4772 30.8303 10.5589C30.8482 10.5743 30.9116 10.559 30.9361 10.5378C30.9622 10.5147 30.9866 10.4598 30.9767 10.4316C30.8852 10.1739 30.6782 10.0372 30.4386 9.93898C30.4199 9.93113 30.3967 9.93331 30.3758 9.93048C30.3769 9.96543 30.3659 10.0082 30.3819 10.0341C30.4372 10.1232 30.5026 10.2065 30.5839 10.3196ZM18.8196 0.977479C18.8317 0.99603 18.8379 1.021 18.8511 1.02543C19.196 1.1405 19.4838 1.35211 19.7781 1.55417C19.8101 1.57634 19.8592 1.58181 19.9006 1.58104C19.936 1.58088 19.9976 1.56605 20.0011 1.54895C20.0079 1.5133 19.9965 1.45359 19.9704 1.43547C19.6632 1.21972 19.3533 1.00893 19.0404 0.801059C19.0091 0.780413 18.9586 0.788741 18.9164 0.783338C18.8648 0.776756 18.8379 0.800949 18.8333 0.855961C18.8297 0.897428 18.8237 0.939256 18.8196 0.977479ZM13.5196 8.10498C13.33 8.0004 13.1173 8.02924 12.9137 8.00841C12.8209 7.99883 12.7629 8.06713 12.7025 8.12476C12.6647 8.10729 12.6257 8.01857 12.592 8.12862C12.6293 8.12167 12.6663 8.11498 12.7038 8.10834C12.9334 8.22914 13.1778 8.20735 13.4219 8.17217C13.4573 8.16678 13.4874 8.12518 13.5204 8.10012C13.5708 8.16784 13.6307 8.17345 13.6989 8.1273C13.9709 8.24744 14.2627 8.20047 14.5462 8.21457C14.5945 8.21707 14.6468 8.15084 14.697 8.11636C14.7361 8.13802 14.7785 8.22445 14.8107 8.10988C14.7723 8.11616 14.7342 8.12217 14.6961 8.12875C14.4073 8.00501 14.1028 8.02552 13.7994 8.04411C13.7652 8.04642 13.7333 8.08844 13.7002 8.11203C13.6425 8.05031 13.5819 8.06002 13.5196 8.10498ZM16.2296 8.20371C16.346 8.26833 16.4654 8.27981 16.5902 8.22619C16.6072 8.23853 16.6234 8.26008 16.6418 8.2618C17.444 8.33556 18.2467 8.40732 19.0491 8.47877C19.0911 8.48271 19.1357 8.49037 19.176 8.48196C19.4736 8.42015 19.7685 8.46927 20.0627 8.49627C20.9292 8.5746 21.7951 8.6613 22.6614 8.74193C23.2532 8.79682 23.8451 8.84738 24.4371 8.8962C24.4657 8.89859 24.4977 8.86327 24.5282 8.84609C24.5063 8.8124 24.4894 8.75507 24.4623 8.74992C24.2549 8.70958 24.0463 8.6723 23.8363 8.64827C23.4779 8.60712 23.1019 8.62906 22.7645 8.52573C22.4734 8.4366 22.1726 8.5222 21.8973 8.40205C21.1307 8.44572 20.3749 8.3322 19.6156 8.26798C19.5309 8.26063 19.4449 8.24328 19.3618 8.25203C18.7435 8.31397 18.1367 8.19496 17.5247 8.15732C17.2916 8.14331 17.0589 8.12324 16.826 8.10808C16.7374 8.10239 16.6601 8.1323 16.5951 8.19414C16.492 8.05906 16.3722 8.04579 16.2359 8.14682C16.1776 8.10246 16.1175 8.09972 16.0557 8.13951C15.7901 8.11113 15.5246 8.08217 15.2585 8.05578C15.1944 8.04948 15.0954 8.12352 15.1215 8.15063C15.1451 8.17549 15.1743 8.20843 15.2043 8.21123C15.4111 8.23149 15.618 8.25379 15.8252 8.2558C15.9001 8.25643 15.9761 8.20288 16.0516 8.17396C16.1028 8.23159 16.1625 8.23836 16.2296 8.20371ZM14.5571 9.36294C14.5929 9.37732 14.6288 9.39202 14.6646 9.4064C14.6655 9.38878 14.6661 9.37141 14.6667 9.35347C14.6298 9.36278 14.5925 9.37178 14.5556 9.38109C14.5191 9.36576 14.4807 9.27914 14.4472 9.38428C14.4842 9.37701 14.521 9.37 14.5571 9.36294ZM12.185 9.50636C12.2207 9.50913 12.2669 9.6078 12.2902 9.49416C12.2549 9.50216 12.2195 9.51017 12.1841 9.51818C12.1396 9.44665 12.0809 9.43273 12.0073 9.47373C11.8389 9.40075 11.6811 9.39873 11.5467 9.54784C11.4928 9.4824 11.4323 9.48369 11.3666 9.53037C11.2029 9.43026 11.0493 9.43589 10.909 9.57718C10.4774 9.41479 10.031 9.58109 9.59475 9.52539C8.78545 9.71283 7.9543 9.68717 7.13509 9.78253C6.50579 9.85562 5.87364 9.91365 5.24599 10.0049C4.72239 10.0812 4.20159 10.1816 3.67647 10.2471C3.25491 10.2996 2.84018 10.3823 2.42941 10.4835C2.18547 10.5433 1.95115 10.6433 1.71348 10.7276C1.69992 10.7324 1.68217 10.7702 1.68755 10.7774C1.70693 10.8042 1.73391 10.8421 1.7607 10.8443C1.82318 10.8499 1.88794 10.8415 1.95051 10.8316C2.82814 10.6898 3.70502 10.5438 4.58319 10.4052C4.95868 10.3458 5.3363 10.2999 5.71328 10.2487C6.34208 10.1634 6.97041 10.0768 7.59964 9.99591C8.22823 9.91549 8.85656 9.83475 9.48644 9.76752C9.90547 9.7229 10.3277 9.7047 10.7478 9.666C10.8038 9.66109 10.8552 9.60349 10.9088 9.56991C11.0726 9.66625 11.2276 9.67062 11.3669 9.52111C11.4213 9.5866 11.4823 9.58447 11.5474 9.53774C11.7047 9.63987 11.8565 9.62158 12.0035 9.51169C12.0653 9.57003 12.1255 9.55478 12.185 9.50636ZM16.6952 16.1977C16.6312 16.1459 16.5704 16.0888 16.5025 16.0424C16.3173 15.9167 16.2742 15.8134 16.4112 15.6332C16.5204 15.489 16.5333 15.3955 16.4293 15.2479C16.3098 15.0782 16.2418 14.8709 16.1207 14.7025C15.9306 14.4385 16.0472 14.2027 16.195 14.002C16.3161 13.8374 16.4873 13.6944 16.7009 13.6273C16.9226 13.5578 17.1354 13.4459 17.3612 13.4079C17.7634 13.3402 18.1392 13.185 18.4943 13.0136C18.8618 12.8367 19.2476 12.7388 19.6258 12.6117C20.2464 12.4028 20.8799 12.2302 21.5067 12.0384C21.5387 12.0283 21.5591 11.9789 21.5846 11.9479C21.5537 11.9284 21.5245 11.8955 21.492 11.8922C20.9019 11.8302 20.3143 11.7597 19.7152 11.7805C19.3144 11.7943 18.9104 11.7242 18.5083 11.6874C17.6029 11.6051 16.6983 11.5127 15.7865 11.5155C15.5958 11.5162 15.4054 11.4804 15.2142 11.4746C14.5376 11.4553 13.8613 11.4114 13.184 11.4481C13.1206 11.4517 13.0567 11.4457 12.993 11.4432C12.3364 11.4185 11.6795 11.3935 11.0231 11.3686C11.002 11.3675 10.98 11.3608 10.9594 11.3635C10.1362 11.4785 17.9096 11.352 17.0854 11.4077C16.7689 11.4291 16.45 11.4573 16.1337 11.4448C15.3915 11.4161 14.6544 11.5125 13.9133 11.5272C13.3436 11.5386 12.7691 11.5007 12.202 11.6075C11.0174 11.6105 9.84228 11.7898 8.6615 11.835C7.66708 11.873 6.67934 11.9688 5.69028 12.0604C4.469 12.1732 3.2477 12.2834 2.02635 12.3942C1.96303 12.3999 1.89317 12.4157 1.83726 12.3968C1.37844 12.242 0.92073 12.3565 0.462734 12.4015C0.441609 12.4036 0.421861 12.4151 0.400994 12.4175C0.202749 12.4361 0.0426369 12.3383 0.00677072 12.1779C-0.0241279 12.0403 0.0528122 11.9021 0.195033 11.8051C0.341688 11.7045 0.514543 11.6957 0.676539 11.6505C0.728839 11.6359 0.750832 11.6252 0.75641 11.5784C0.760484 11.5466 0.671127 11.4819 0.610053 11.4884C0.526961 11.4971 0.443867 11.5117 0.360574 11.5196C0.341809 11.5213 0.306472 11.5087 0.304635 11.4981C0.29904 11.4641 0.292876 11.4186 0.310127 11.3943C0.346588 11.3438 0.399789 11.3058 0.44281 11.2593C0.493662 11.2043 0.588981 11.1491 0.457146 11.0792C0.419627 11.0594 0.377184 11.0453 0.346173 11.0186C-0.0736912 10.6613 0.0222446 10.4642 0.335356 10.2018C0.568225 10.0065 0.818907 9.8709 1.11431 9.79031C1.47961 9.69072 1.83787 9.55999 2.19245 9.42543C2.75059 9.21358 3.33637 9.11405 3.91278 8.98054C4.51061 8.84208 5.11507 8.73298 5.72584 8.66511C5.83069 8.65375 5.93595 8.63256 6.03782 8.60466C6.8186 8.39161 7.62188 8.32466 8.41968 8.22846C8.94316 8.16489 9.47266 8.15124 9.99078 8.03985C10.2221 7.99041 10.4541 8.03104 10.6864 8.01188C11.0865 7.97913 11.4868 7.93624 11.8873 7.91165C12.1614 7.89497 12.4353 7.83529 12.7116 7.88907C12.7521 7.89693 12.799 7.899 12.8382 7.88729C13.3153 7.74738 13.8089 7.834 14.2918 7.76896C14.5003 7.74089 14.7143 7.74789 14.926 7.74306C15.5176 7.72943 16.1135 7.7551 16.7004 7.69312C17.1033 7.65019 8.89994 7.72533 9.30216 7.67449C9.86715 7.60262 10.4403 7.63486 11.0103 7.59628C11.4918 7.56361 11.9836 7.53191 12.4708 7.60633C12.8267 7.66117 13.1884 7.62831 13.5486 7.62317C14.1625 7.61395 14.7764 7.66163 15.3902 7.67998C15.8341 7.69344 16.2799 7.72129 16.7229 7.69808C16.9796 7.68469 17.2313 7.69436 17.4839 7.71339C17.823 7.73879 18.162 7.76796 18.4998 7.80601C19.1294 7.87723 19.7638 7.85687 20.3943 7.90204C21.2419 7.96321 22.0879 8.05006 22.9353 8.11876C23.0964 8.13183 23.26 8.18288 23.4238 8.12885C23.4213 7.94833 23.2925 7.84858 23.181 7.76729C22.8429 7.52106 22.5331 7.23626 22.1878 7.00387C21.9074 6.81472 21.6859 6.56113 21.4018 6.37918C21.1205 6.19866 20.8584 5.98858 20.5866 5.79327C20.1285 5.46437 19.7309 5.0587 19.2589 4.74592C19.1732 4.68882 19.1099 4.59637 19.0383 4.51912C18.9665 4.44155 18.9099 4.34044 18.8238 4.28679C18.3245 3.97697 18.0247 3.47973 17.6457 3.05722C17.6034 3.01029 17.5675 2.95699 17.5327 2.9038C17.4138 2.72253 17.463 2.54018 17.653 2.41546C17.7155 2.37458 17.843 2.4353 17.8421 2.30835C17.8418 2.25113 17.7901 2.19664 17.7698 2.13784C17.7568 2.10004 17.7395 2.04674 17.7559 2.01896C17.8333 1.88513 17.7643 1.78576 17.7148 1.665C17.6357 1.47266 17.5589 1.27153 17.6219 1.04983C17.6524 0.942381 17.7334 0.859396 17.8439 0.858719C17.9936 0.85737 18.1391 0.866365 18.2631 0.971174C18.326 1.02439 18.4046 1.05992 18.4792 1.09769C18.5702 1.14367 18.6298 1.10833 18.6496 0.994932C18.6529 0.974333 18.6456 0.951298 18.6514 0.93123C18.7931 0.437926 18.7671 0.421846 19.2237 0.610671C19.7542 0.82994 20.2044 1.17697 20.6681 1.49971C21.1489 1.83422 21.6138 2.19134 22.0931 2.52977C22.7248 2.97597 23.3732 3.39732 23.9795 3.87974C24.2735 4.11371 24.6081 4.29633 24.9182 4.5112C25.3489 4.80995 25.7786 5.11005 26.1992 5.4218C26.7035 5.79508 27.1907 6.19291 27.7028 6.55445C27.8423 6.65287 27.9792 6.74438 28.0866 6.87492C28.1685 6.97376 28.2777 7.0348 28.3791 7.10963C28.6651 7.32108 28.9532 7.5304 29.1879 7.80787C29.3619 8.01346 29.5924 8.17036 29.7827 8.36354C29.9601 8.54362 30.1057 8.75728 30.3504 8.85977C30.7012 9.25118 31.144 9.54788 31.4613 9.97738C31.7423 10.3582 31.7928 10.7566 31.5802 11.1585C31.4861 11.3366 31.4316 11.5065 31.4133 11.6941C31.3694 12.1423 31.1283 12.4826 30.8242 12.7888C30.6894 12.9245 30.5353 13.0413 30.4042 13.1802C30.3493 13.2387 30.3274 13.3173 30.2328 13.3456C29.9802 13.4221 29.8016 13.6155 29.6067 13.777C29.1269 14.1738 28.5825 14.4398 27.9936 14.6279C27.3708 14.827 26.7322 14.9933 26.1342 15.2516C25.5699 15.496 24.968 15.6114 24.4058 15.8572C23.847 16.1018 23.2659 16.2967 22.6874 16.4936C22.168 16.6704 21.6362 16.811 21.116 16.9858C20.5558 17.1745 19.9638 17.2613 19.4298 17.5335C19.3376 17.5803 19.2266 17.5951 19.1226 17.6127C19.0171 17.6303 18.9129 17.6264 18.8226 17.5509C18.7583 17.4972 18.683 17.4574 18.6166 17.407C18.452 17.2818 18.2838 17.262 18.08 17.3294C17.8636 17.4014 17.6308 17.4838 17.4115 17.3219C17.1598 17.3575 16.9169 17.4213 16.6786 17.5145C16.2157 17.6949 15.8019 17.3728 15.8586 16.893C15.8815 16.6968 16.0106 16.5716 16.1638 16.5157C16.3689 16.4409 16.5596 16.3668 16.6947 16.1881C16.9584 16.2459 17.1776 16.1637 17.3562 15.9676C17.3768 15.9449 17.388 15.8803 17.3741 15.8674C17.347 15.8428 17.2981 15.8292 17.2597 15.8329C17.1998 15.8389 17.1317 15.8485 17.0854 15.8819C16.9511 15.9808 16.8249 16.0914 16.6952 16.1977Z" fill="#977FB8"/>
</svg>
